M48
; DRILL file {KiCad 7.0.10} date Mon Jan 22 13:55:39 2024
; FORMAT={-:-/ absolute / metric / decimal}
; #@! TF.CreationDate,2024-01-22T13:55:39+11:00
; #@! TF.GenerationSoftware,Kicad,Pcbnew,7.0.10
; #@! TF.FileFunction,Plated,1,2,PTH
FMAT,2
METRIC
; #@! TA.AperFunction,Plated,PTH,ViaDrill
T1C0.400
; #@! TA.AperFunction,Plated,PTH,ComponentDrill
T2C0.500
; #@! TA.AperFunction,Plated,PTH,ViaDrill
T3C0.600
%
G90
G05
T1
X2.5Y-42.0
X4.5Y-13.5
X5.0Y-22.0
X5.0Y-32.5
X12.8Y-7.9
X14.0Y-4.35
X14.5Y-6.2
X14.5Y-7.9
X16.3Y-7.9
X17.5Y-6.162
X18.025Y-9.0
X18.975Y-6.2
X19.1Y-3.5
X20.0Y-40.5
X20.3Y-3.5
X20.4Y-6.162
X24.5Y-5.8
X24.6Y-2.3
X28.5Y-2.4
X28.5Y-3.5
X30.1Y-2.4
X30.1Y-5.0
X31.4Y-2.4
X31.4Y-3.7
X31.4Y-4.8
X31.4Y-5.9
X32.65Y-3.3
X33.3Y-2.4
X36.0Y-40.5
X37.7Y-10.0
X38.2Y-2.4
X38.2Y-5.0
X39.6Y-2.4
X39.6Y-4.1
X39.6Y-5.2
X39.6Y-6.3
X39.6Y-10.0
X40.85Y-3.3
X41.35Y-10.0
X41.6Y-8.2
X42.1Y-4.35
X42.1Y-5.5
X43.0Y-6.35
X43.7Y-8.1
X44.0Y-4.0
X44.4Y-10.35
X46.25Y-8.3
X46.7Y-10.4
X50.2Y-2.5
X50.65Y-7.05
X51.0Y-15.0
X51.0Y-22.0
X51.0Y-30.0
X51.0Y-42.0
X52.1Y-4.8
X52.3Y-8.8
X53.35Y-5.65
T3
X30.3Y-10.1
T2
G00X2.68Y-1.6
M15
G01X1.98Y-1.6
M16
G05
G00X2.68Y-8.75
M15
G01X1.98Y-8.75
M16
G05
G00X6.15Y-1.6
M15
G01X5.45Y-1.6
M16
G05
G00X6.15Y-8.75
M15
G01X5.45Y-8.75
M16
G05
M30
