%TF.GenerationSoftware,KiCad,Pcbnew,7.0.8*%
%TF.CreationDate,2024-01-10T09:36:00+11:00*%
%TF.ProjectId,cphp82001-pcb,63706870-3832-4303-9031-2d7063622e6b,2.2*%
%TF.SameCoordinates,Original*%
%TF.FileFunction,Legend,Bot*%
%TF.FilePolarity,Positive*%
%FSLAX46Y46*%
G04 Gerber Fmt 4.6, Leading zero omitted, Abs format (unit mm)*
G04 Created by KiCad (PCBNEW 7.0.8) date 2024-01-10 09:36:00*
%MOMM*%
%LPD*%
G01*
G04 APERTURE LIST*
%ADD10C,0.150000*%
%ADD11C,0.120000*%
%ADD12C,0.250000*%
%ADD13C,1.000000*%
%ADD14C,0.010000*%
G04 APERTURE END LIST*
D10*
X30000000Y-14500000D02*
X44500000Y-14500000D01*
X44500000Y-17500000D01*
X30000000Y-17500000D01*
X30000000Y-14500000D01*
G36*
X30000000Y-14500000D02*
G01*
X44500000Y-14500000D01*
X44500000Y-17500000D01*
X30000000Y-17500000D01*
X30000000Y-14500000D01*
G37*
D11*
X43773433Y-13803664D02*
X43811529Y-13841760D01*
X43811529Y-13841760D02*
X43925814Y-13879855D01*
X43925814Y-13879855D02*
X44002005Y-13879855D01*
X44002005Y-13879855D02*
X44116291Y-13841760D01*
X44116291Y-13841760D02*
X44192481Y-13765569D01*
X44192481Y-13765569D02*
X44230576Y-13689379D01*
X44230576Y-13689379D02*
X44268672Y-13536998D01*
X44268672Y-13536998D02*
X44268672Y-13422712D01*
X44268672Y-13422712D02*
X44230576Y-13270331D01*
X44230576Y-13270331D02*
X44192481Y-13194140D01*
X44192481Y-13194140D02*
X44116291Y-13117950D01*
X44116291Y-13117950D02*
X44002005Y-13079855D01*
X44002005Y-13079855D02*
X43925814Y-13079855D01*
X43925814Y-13079855D02*
X43811529Y-13117950D01*
X43811529Y-13117950D02*
X43773433Y-13156045D01*
X43430576Y-13879855D02*
X43430576Y-13079855D01*
X43430576Y-13079855D02*
X43125814Y-13079855D01*
X43125814Y-13079855D02*
X43049624Y-13117950D01*
X43049624Y-13117950D02*
X43011529Y-13156045D01*
X43011529Y-13156045D02*
X42973433Y-13232236D01*
X42973433Y-13232236D02*
X42973433Y-13346521D01*
X42973433Y-13346521D02*
X43011529Y-13422712D01*
X43011529Y-13422712D02*
X43049624Y-13460807D01*
X43049624Y-13460807D02*
X43125814Y-13498902D01*
X43125814Y-13498902D02*
X43430576Y-13498902D01*
X42630576Y-13879855D02*
X42630576Y-13079855D01*
X42630576Y-13460807D02*
X42173433Y-13460807D01*
X42173433Y-13879855D02*
X42173433Y-13079855D01*
X41792481Y-13879855D02*
X41792481Y-13079855D01*
X41792481Y-13079855D02*
X41487719Y-13079855D01*
X41487719Y-13079855D02*
X41411529Y-13117950D01*
X41411529Y-13117950D02*
X41373434Y-13156045D01*
X41373434Y-13156045D02*
X41335338Y-13232236D01*
X41335338Y-13232236D02*
X41335338Y-13346521D01*
X41335338Y-13346521D02*
X41373434Y-13422712D01*
X41373434Y-13422712D02*
X41411529Y-13460807D01*
X41411529Y-13460807D02*
X41487719Y-13498902D01*
X41487719Y-13498902D02*
X41792481Y-13498902D01*
X40878196Y-13422712D02*
X40954386Y-13384617D01*
X40954386Y-13384617D02*
X40992481Y-13346521D01*
X40992481Y-13346521D02*
X41030577Y-13270331D01*
X41030577Y-13270331D02*
X41030577Y-13232236D01*
X41030577Y-13232236D02*
X40992481Y-13156045D01*
X40992481Y-13156045D02*
X40954386Y-13117950D01*
X40954386Y-13117950D02*
X40878196Y-13079855D01*
X40878196Y-13079855D02*
X40725815Y-13079855D01*
X40725815Y-13079855D02*
X40649624Y-13117950D01*
X40649624Y-13117950D02*
X40611529Y-13156045D01*
X40611529Y-13156045D02*
X40573434Y-13232236D01*
X40573434Y-13232236D02*
X40573434Y-13270331D01*
X40573434Y-13270331D02*
X40611529Y-13346521D01*
X40611529Y-13346521D02*
X40649624Y-13384617D01*
X40649624Y-13384617D02*
X40725815Y-13422712D01*
X40725815Y-13422712D02*
X40878196Y-13422712D01*
X40878196Y-13422712D02*
X40954386Y-13460807D01*
X40954386Y-13460807D02*
X40992481Y-13498902D01*
X40992481Y-13498902D02*
X41030577Y-13575093D01*
X41030577Y-13575093D02*
X41030577Y-13727474D01*
X41030577Y-13727474D02*
X40992481Y-13803664D01*
X40992481Y-13803664D02*
X40954386Y-13841760D01*
X40954386Y-13841760D02*
X40878196Y-13879855D01*
X40878196Y-13879855D02*
X40725815Y-13879855D01*
X40725815Y-13879855D02*
X40649624Y-13841760D01*
X40649624Y-13841760D02*
X40611529Y-13803664D01*
X40611529Y-13803664D02*
X40573434Y-13727474D01*
X40573434Y-13727474D02*
X40573434Y-13575093D01*
X40573434Y-13575093D02*
X40611529Y-13498902D01*
X40611529Y-13498902D02*
X40649624Y-13460807D01*
X40649624Y-13460807D02*
X40725815Y-13422712D01*
X40268672Y-13156045D02*
X40230576Y-13117950D01*
X40230576Y-13117950D02*
X40154386Y-13079855D01*
X40154386Y-13079855D02*
X39963910Y-13079855D01*
X39963910Y-13079855D02*
X39887719Y-13117950D01*
X39887719Y-13117950D02*
X39849624Y-13156045D01*
X39849624Y-13156045D02*
X39811529Y-13232236D01*
X39811529Y-13232236D02*
X39811529Y-13308426D01*
X39811529Y-13308426D02*
X39849624Y-13422712D01*
X39849624Y-13422712D02*
X40306767Y-13879855D01*
X40306767Y-13879855D02*
X39811529Y-13879855D01*
X39316290Y-13079855D02*
X39240100Y-13079855D01*
X39240100Y-13079855D02*
X39163909Y-13117950D01*
X39163909Y-13117950D02*
X39125814Y-13156045D01*
X39125814Y-13156045D02*
X39087719Y-13232236D01*
X39087719Y-13232236D02*
X39049624Y-13384617D01*
X39049624Y-13384617D02*
X39049624Y-13575093D01*
X39049624Y-13575093D02*
X39087719Y-13727474D01*
X39087719Y-13727474D02*
X39125814Y-13803664D01*
X39125814Y-13803664D02*
X39163909Y-13841760D01*
X39163909Y-13841760D02*
X39240100Y-13879855D01*
X39240100Y-13879855D02*
X39316290Y-13879855D01*
X39316290Y-13879855D02*
X39392481Y-13841760D01*
X39392481Y-13841760D02*
X39430576Y-13803664D01*
X39430576Y-13803664D02*
X39468671Y-13727474D01*
X39468671Y-13727474D02*
X39506767Y-13575093D01*
X39506767Y-13575093D02*
X39506767Y-13384617D01*
X39506767Y-13384617D02*
X39468671Y-13232236D01*
X39468671Y-13232236D02*
X39430576Y-13156045D01*
X39430576Y-13156045D02*
X39392481Y-13117950D01*
X39392481Y-13117950D02*
X39316290Y-13079855D01*
X38554385Y-13079855D02*
X38478195Y-13079855D01*
X38478195Y-13079855D02*
X38402004Y-13117950D01*
X38402004Y-13117950D02*
X38363909Y-13156045D01*
X38363909Y-13156045D02*
X38325814Y-13232236D01*
X38325814Y-13232236D02*
X38287719Y-13384617D01*
X38287719Y-13384617D02*
X38287719Y-13575093D01*
X38287719Y-13575093D02*
X38325814Y-13727474D01*
X38325814Y-13727474D02*
X38363909Y-13803664D01*
X38363909Y-13803664D02*
X38402004Y-13841760D01*
X38402004Y-13841760D02*
X38478195Y-13879855D01*
X38478195Y-13879855D02*
X38554385Y-13879855D01*
X38554385Y-13879855D02*
X38630576Y-13841760D01*
X38630576Y-13841760D02*
X38668671Y-13803664D01*
X38668671Y-13803664D02*
X38706766Y-13727474D01*
X38706766Y-13727474D02*
X38744862Y-13575093D01*
X38744862Y-13575093D02*
X38744862Y-13384617D01*
X38744862Y-13384617D02*
X38706766Y-13232236D01*
X38706766Y-13232236D02*
X38668671Y-13156045D01*
X38668671Y-13156045D02*
X38630576Y-13117950D01*
X38630576Y-13117950D02*
X38554385Y-13079855D01*
X37525814Y-13879855D02*
X37982957Y-13879855D01*
X37754385Y-13879855D02*
X37754385Y-13079855D01*
X37754385Y-13079855D02*
X37830576Y-13194140D01*
X37830576Y-13194140D02*
X37906766Y-13270331D01*
X37906766Y-13270331D02*
X37982957Y-13308426D01*
X36687718Y-13079855D02*
X36421051Y-13879855D01*
X36421051Y-13879855D02*
X36154385Y-13079855D01*
X35963909Y-13079855D02*
X35468671Y-13079855D01*
X35468671Y-13079855D02*
X35735337Y-13384617D01*
X35735337Y-13384617D02*
X35621052Y-13384617D01*
X35621052Y-13384617D02*
X35544861Y-13422712D01*
X35544861Y-13422712D02*
X35506766Y-13460807D01*
X35506766Y-13460807D02*
X35468671Y-13536998D01*
X35468671Y-13536998D02*
X35468671Y-13727474D01*
X35468671Y-13727474D02*
X35506766Y-13803664D01*
X35506766Y-13803664D02*
X35544861Y-13841760D01*
X35544861Y-13841760D02*
X35621052Y-13879855D01*
X35621052Y-13879855D02*
X35849623Y-13879855D01*
X35849623Y-13879855D02*
X35925814Y-13841760D01*
X35925814Y-13841760D02*
X35963909Y-13803664D01*
X43849624Y-18231855D02*
X44230576Y-18231855D01*
X44230576Y-18231855D02*
X44268672Y-18612807D01*
X44268672Y-18612807D02*
X44230576Y-18574712D01*
X44230576Y-18574712D02*
X44154386Y-18536617D01*
X44154386Y-18536617D02*
X43963910Y-18536617D01*
X43963910Y-18536617D02*
X43887719Y-18574712D01*
X43887719Y-18574712D02*
X43849624Y-18612807D01*
X43849624Y-18612807D02*
X43811529Y-18688998D01*
X43811529Y-18688998D02*
X43811529Y-18879474D01*
X43811529Y-18879474D02*
X43849624Y-18955664D01*
X43849624Y-18955664D02*
X43887719Y-18993760D01*
X43887719Y-18993760D02*
X43963910Y-19031855D01*
X43963910Y-19031855D02*
X44154386Y-19031855D01*
X44154386Y-19031855D02*
X44230576Y-18993760D01*
X44230576Y-18993760D02*
X44268672Y-18955664D01*
X43582957Y-18231855D02*
X43316290Y-19031855D01*
X43316290Y-19031855D02*
X43049624Y-18231855D01*
X42173433Y-19031855D02*
X42173433Y-18231855D01*
X42173433Y-18231855D02*
X41982957Y-18231855D01*
X41982957Y-18231855D02*
X41868671Y-18269950D01*
X41868671Y-18269950D02*
X41792481Y-18346140D01*
X41792481Y-18346140D02*
X41754386Y-18422331D01*
X41754386Y-18422331D02*
X41716290Y-18574712D01*
X41716290Y-18574712D02*
X41716290Y-18688998D01*
X41716290Y-18688998D02*
X41754386Y-18841379D01*
X41754386Y-18841379D02*
X41792481Y-18917569D01*
X41792481Y-18917569D02*
X41868671Y-18993760D01*
X41868671Y-18993760D02*
X41982957Y-19031855D01*
X41982957Y-19031855D02*
X42173433Y-19031855D01*
X40916290Y-18955664D02*
X40954386Y-18993760D01*
X40954386Y-18993760D02*
X41068671Y-19031855D01*
X41068671Y-19031855D02*
X41144862Y-19031855D01*
X41144862Y-19031855D02*
X41259148Y-18993760D01*
X41259148Y-18993760D02*
X41335338Y-18917569D01*
X41335338Y-18917569D02*
X41373433Y-18841379D01*
X41373433Y-18841379D02*
X41411529Y-18688998D01*
X41411529Y-18688998D02*
X41411529Y-18574712D01*
X41411529Y-18574712D02*
X41373433Y-18422331D01*
X41373433Y-18422331D02*
X41335338Y-18346140D01*
X41335338Y-18346140D02*
X41259148Y-18269950D01*
X41259148Y-18269950D02*
X41144862Y-18231855D01*
X41144862Y-18231855D02*
X41068671Y-18231855D01*
X41068671Y-18231855D02*
X40954386Y-18269950D01*
X40954386Y-18269950D02*
X40916290Y-18308045D01*
X39621052Y-18498521D02*
X39621052Y-19031855D01*
X39811528Y-18193760D02*
X40002005Y-18765188D01*
X40002005Y-18765188D02*
X39506766Y-18765188D01*
X39049623Y-18231855D02*
X38973433Y-18231855D01*
X38973433Y-18231855D02*
X38897242Y-18269950D01*
X38897242Y-18269950D02*
X38859147Y-18308045D01*
X38859147Y-18308045D02*
X38821052Y-18384236D01*
X38821052Y-18384236D02*
X38782957Y-18536617D01*
X38782957Y-18536617D02*
X38782957Y-18727093D01*
X38782957Y-18727093D02*
X38821052Y-18879474D01*
X38821052Y-18879474D02*
X38859147Y-18955664D01*
X38859147Y-18955664D02*
X38897242Y-18993760D01*
X38897242Y-18993760D02*
X38973433Y-19031855D01*
X38973433Y-19031855D02*
X39049623Y-19031855D01*
X39049623Y-19031855D02*
X39125814Y-18993760D01*
X39125814Y-18993760D02*
X39163909Y-18955664D01*
X39163909Y-18955664D02*
X39202004Y-18879474D01*
X39202004Y-18879474D02*
X39240100Y-18727093D01*
X39240100Y-18727093D02*
X39240100Y-18536617D01*
X39240100Y-18536617D02*
X39202004Y-18384236D01*
X39202004Y-18384236D02*
X39163909Y-18308045D01*
X39163909Y-18308045D02*
X39125814Y-18269950D01*
X39125814Y-18269950D02*
X39049623Y-18231855D01*
X38287718Y-18231855D02*
X38211528Y-18231855D01*
X38211528Y-18231855D02*
X38135337Y-18269950D01*
X38135337Y-18269950D02*
X38097242Y-18308045D01*
X38097242Y-18308045D02*
X38059147Y-18384236D01*
X38059147Y-18384236D02*
X38021052Y-18536617D01*
X38021052Y-18536617D02*
X38021052Y-18727093D01*
X38021052Y-18727093D02*
X38059147Y-18879474D01*
X38059147Y-18879474D02*
X38097242Y-18955664D01*
X38097242Y-18955664D02*
X38135337Y-18993760D01*
X38135337Y-18993760D02*
X38211528Y-19031855D01*
X38211528Y-19031855D02*
X38287718Y-19031855D01*
X38287718Y-19031855D02*
X38363909Y-18993760D01*
X38363909Y-18993760D02*
X38402004Y-18955664D01*
X38402004Y-18955664D02*
X38440099Y-18879474D01*
X38440099Y-18879474D02*
X38478195Y-18727093D01*
X38478195Y-18727093D02*
X38478195Y-18536617D01*
X38478195Y-18536617D02*
X38440099Y-18384236D01*
X38440099Y-18384236D02*
X38402004Y-18308045D01*
X38402004Y-18308045D02*
X38363909Y-18269950D01*
X38363909Y-18269950D02*
X38287718Y-18231855D01*
X37678194Y-19031855D02*
X37678194Y-18498521D01*
X37678194Y-18574712D02*
X37640099Y-18536617D01*
X37640099Y-18536617D02*
X37563909Y-18498521D01*
X37563909Y-18498521D02*
X37449623Y-18498521D01*
X37449623Y-18498521D02*
X37373432Y-18536617D01*
X37373432Y-18536617D02*
X37335337Y-18612807D01*
X37335337Y-18612807D02*
X37335337Y-19031855D01*
X37335337Y-18612807D02*
X37297242Y-18536617D01*
X37297242Y-18536617D02*
X37221051Y-18498521D01*
X37221051Y-18498521D02*
X37106766Y-18498521D01*
X37106766Y-18498521D02*
X37030575Y-18536617D01*
X37030575Y-18536617D02*
X36992480Y-18612807D01*
X36992480Y-18612807D02*
X36992480Y-19031855D01*
X36649623Y-18803283D02*
X36268670Y-18803283D01*
X36725813Y-19031855D02*
X36459146Y-18231855D01*
X36459146Y-18231855D02*
X36192480Y-19031855D01*
X43849624Y-19519855D02*
X44230576Y-19519855D01*
X44230576Y-19519855D02*
X44268672Y-19900807D01*
X44268672Y-19900807D02*
X44230576Y-19862712D01*
X44230576Y-19862712D02*
X44154386Y-19824617D01*
X44154386Y-19824617D02*
X43963910Y-19824617D01*
X43963910Y-19824617D02*
X43887719Y-19862712D01*
X43887719Y-19862712D02*
X43849624Y-19900807D01*
X43849624Y-19900807D02*
X43811529Y-19976998D01*
X43811529Y-19976998D02*
X43811529Y-20167474D01*
X43811529Y-20167474D02*
X43849624Y-20243664D01*
X43849624Y-20243664D02*
X43887719Y-20281760D01*
X43887719Y-20281760D02*
X43963910Y-20319855D01*
X43963910Y-20319855D02*
X44154386Y-20319855D01*
X44154386Y-20319855D02*
X44230576Y-20281760D01*
X44230576Y-20281760D02*
X44268672Y-20243664D01*
X43316290Y-19519855D02*
X43240100Y-19519855D01*
X43240100Y-19519855D02*
X43163909Y-19557950D01*
X43163909Y-19557950D02*
X43125814Y-19596045D01*
X43125814Y-19596045D02*
X43087719Y-19672236D01*
X43087719Y-19672236D02*
X43049624Y-19824617D01*
X43049624Y-19824617D02*
X43049624Y-20015093D01*
X43049624Y-20015093D02*
X43087719Y-20167474D01*
X43087719Y-20167474D02*
X43125814Y-20243664D01*
X43125814Y-20243664D02*
X43163909Y-20281760D01*
X43163909Y-20281760D02*
X43240100Y-20319855D01*
X43240100Y-20319855D02*
X43316290Y-20319855D01*
X43316290Y-20319855D02*
X43392481Y-20281760D01*
X43392481Y-20281760D02*
X43430576Y-20243664D01*
X43430576Y-20243664D02*
X43468671Y-20167474D01*
X43468671Y-20167474D02*
X43506767Y-20015093D01*
X43506767Y-20015093D02*
X43506767Y-19824617D01*
X43506767Y-19824617D02*
X43468671Y-19672236D01*
X43468671Y-19672236D02*
X43430576Y-19596045D01*
X43430576Y-19596045D02*
X43392481Y-19557950D01*
X43392481Y-19557950D02*
X43316290Y-19519855D01*
X42706766Y-20319855D02*
X42706766Y-19786521D01*
X42706766Y-19862712D02*
X42668671Y-19824617D01*
X42668671Y-19824617D02*
X42592481Y-19786521D01*
X42592481Y-19786521D02*
X42478195Y-19786521D01*
X42478195Y-19786521D02*
X42402004Y-19824617D01*
X42402004Y-19824617D02*
X42363909Y-19900807D01*
X42363909Y-19900807D02*
X42363909Y-20319855D01*
X42363909Y-19900807D02*
X42325814Y-19824617D01*
X42325814Y-19824617D02*
X42249623Y-19786521D01*
X42249623Y-19786521D02*
X42135338Y-19786521D01*
X42135338Y-19786521D02*
X42059147Y-19824617D01*
X42059147Y-19824617D02*
X42021052Y-19900807D01*
X42021052Y-19900807D02*
X42021052Y-20319855D01*
X41678195Y-20091283D02*
X41297242Y-20091283D01*
X41754385Y-20319855D02*
X41487718Y-19519855D01*
X41487718Y-19519855D02*
X41221052Y-20319855D01*
X40344861Y-20319855D02*
X40344861Y-19519855D01*
X40344861Y-19519855D02*
X40154385Y-19519855D01*
X40154385Y-19519855D02*
X40040099Y-19557950D01*
X40040099Y-19557950D02*
X39963909Y-19634140D01*
X39963909Y-19634140D02*
X39925814Y-19710331D01*
X39925814Y-19710331D02*
X39887718Y-19862712D01*
X39887718Y-19862712D02*
X39887718Y-19976998D01*
X39887718Y-19976998D02*
X39925814Y-20129379D01*
X39925814Y-20129379D02*
X39963909Y-20205569D01*
X39963909Y-20205569D02*
X40040099Y-20281760D01*
X40040099Y-20281760D02*
X40154385Y-20319855D01*
X40154385Y-20319855D02*
X40344861Y-20319855D01*
X39087718Y-20243664D02*
X39125814Y-20281760D01*
X39125814Y-20281760D02*
X39240099Y-20319855D01*
X39240099Y-20319855D02*
X39316290Y-20319855D01*
X39316290Y-20319855D02*
X39430576Y-20281760D01*
X39430576Y-20281760D02*
X39506766Y-20205569D01*
X39506766Y-20205569D02*
X39544861Y-20129379D01*
X39544861Y-20129379D02*
X39582957Y-19976998D01*
X39582957Y-19976998D02*
X39582957Y-19862712D01*
X39582957Y-19862712D02*
X39544861Y-19710331D01*
X39544861Y-19710331D02*
X39506766Y-19634140D01*
X39506766Y-19634140D02*
X39430576Y-19557950D01*
X39430576Y-19557950D02*
X39316290Y-19519855D01*
X39316290Y-19519855D02*
X39240099Y-19519855D01*
X39240099Y-19519855D02*
X39125814Y-19557950D01*
X39125814Y-19557950D02*
X39087718Y-19596045D01*
X37678194Y-20243664D02*
X37716290Y-20281760D01*
X37716290Y-20281760D02*
X37830575Y-20319855D01*
X37830575Y-20319855D02*
X37906766Y-20319855D01*
X37906766Y-20319855D02*
X38021052Y-20281760D01*
X38021052Y-20281760D02*
X38097242Y-20205569D01*
X38097242Y-20205569D02*
X38135337Y-20129379D01*
X38135337Y-20129379D02*
X38173433Y-19976998D01*
X38173433Y-19976998D02*
X38173433Y-19862712D01*
X38173433Y-19862712D02*
X38135337Y-19710331D01*
X38135337Y-19710331D02*
X38097242Y-19634140D01*
X38097242Y-19634140D02*
X38021052Y-19557950D01*
X38021052Y-19557950D02*
X37906766Y-19519855D01*
X37906766Y-19519855D02*
X37830575Y-19519855D01*
X37830575Y-19519855D02*
X37716290Y-19557950D01*
X37716290Y-19557950D02*
X37678194Y-19596045D01*
X36878194Y-20243664D02*
X36916290Y-20281760D01*
X36916290Y-20281760D02*
X37030575Y-20319855D01*
X37030575Y-20319855D02*
X37106766Y-20319855D01*
X37106766Y-20319855D02*
X37221052Y-20281760D01*
X37221052Y-20281760D02*
X37297242Y-20205569D01*
X37297242Y-20205569D02*
X37335337Y-20129379D01*
X37335337Y-20129379D02*
X37373433Y-19976998D01*
X37373433Y-19976998D02*
X37373433Y-19862712D01*
X37373433Y-19862712D02*
X37335337Y-19710331D01*
X37335337Y-19710331D02*
X37297242Y-19634140D01*
X37297242Y-19634140D02*
X37221052Y-19557950D01*
X37221052Y-19557950D02*
X37106766Y-19519855D01*
X37106766Y-19519855D02*
X37030575Y-19519855D01*
X37030575Y-19519855D02*
X36916290Y-19557950D01*
X36916290Y-19557950D02*
X36878194Y-19596045D01*
X35697242Y-20624617D02*
X35735337Y-20586521D01*
X35735337Y-20586521D02*
X35811528Y-20472236D01*
X35811528Y-20472236D02*
X35849623Y-20396045D01*
X35849623Y-20396045D02*
X35887718Y-20281760D01*
X35887718Y-20281760D02*
X35925813Y-20091283D01*
X35925813Y-20091283D02*
X35925813Y-19938902D01*
X35925813Y-19938902D02*
X35887718Y-19748426D01*
X35887718Y-19748426D02*
X35849623Y-19634140D01*
X35849623Y-19634140D02*
X35811528Y-19557950D01*
X35811528Y-19557950D02*
X35735337Y-19443664D01*
X35735337Y-19443664D02*
X35697242Y-19405569D01*
X34973433Y-20319855D02*
X35430576Y-20319855D01*
X35202004Y-20319855D02*
X35202004Y-19519855D01*
X35202004Y-19519855D02*
X35278195Y-19634140D01*
X35278195Y-19634140D02*
X35354385Y-19710331D01*
X35354385Y-19710331D02*
X35430576Y-19748426D01*
X34287718Y-19519855D02*
X34440099Y-19519855D01*
X34440099Y-19519855D02*
X34516290Y-19557950D01*
X34516290Y-19557950D02*
X34554385Y-19596045D01*
X34554385Y-19596045D02*
X34630575Y-19710331D01*
X34630575Y-19710331D02*
X34668671Y-19862712D01*
X34668671Y-19862712D02*
X34668671Y-20167474D01*
X34668671Y-20167474D02*
X34630575Y-20243664D01*
X34630575Y-20243664D02*
X34592480Y-20281760D01*
X34592480Y-20281760D02*
X34516290Y-20319855D01*
X34516290Y-20319855D02*
X34363909Y-20319855D01*
X34363909Y-20319855D02*
X34287718Y-20281760D01*
X34287718Y-20281760D02*
X34249623Y-20243664D01*
X34249623Y-20243664D02*
X34211528Y-20167474D01*
X34211528Y-20167474D02*
X34211528Y-19976998D01*
X34211528Y-19976998D02*
X34249623Y-19900807D01*
X34249623Y-19900807D02*
X34287718Y-19862712D01*
X34287718Y-19862712D02*
X34363909Y-19824617D01*
X34363909Y-19824617D02*
X34516290Y-19824617D01*
X34516290Y-19824617D02*
X34592480Y-19862712D01*
X34592480Y-19862712D02*
X34630575Y-19900807D01*
X34630575Y-19900807D02*
X34668671Y-19976998D01*
X33982956Y-19519855D02*
X33716289Y-20319855D01*
X33716289Y-20319855D02*
X33449623Y-19519855D01*
X32573432Y-20319855D02*
X32573432Y-19519855D01*
X32573432Y-19519855D02*
X32306766Y-20091283D01*
X32306766Y-20091283D02*
X32040099Y-19519855D01*
X32040099Y-19519855D02*
X32040099Y-20319855D01*
X31697242Y-20091283D02*
X31316289Y-20091283D01*
X31773432Y-20319855D02*
X31506765Y-19519855D01*
X31506765Y-19519855D02*
X31240099Y-20319855D01*
X31049623Y-19519855D02*
X30516289Y-20319855D01*
X30516289Y-19519855D02*
X31049623Y-20319855D01*
X30287718Y-20624617D02*
X30249623Y-20586521D01*
X30249623Y-20586521D02*
X30173432Y-20472236D01*
X30173432Y-20472236D02*
X30135337Y-20396045D01*
X30135337Y-20396045D02*
X30097242Y-20281760D01*
X30097242Y-20281760D02*
X30059146Y-20091283D01*
X30059146Y-20091283D02*
X30059146Y-19938902D01*
X30059146Y-19938902D02*
X30097242Y-19748426D01*
X30097242Y-19748426D02*
X30135337Y-19634140D01*
X30135337Y-19634140D02*
X30173432Y-19557950D01*
X30173432Y-19557950D02*
X30249623Y-19443664D01*
X30249623Y-19443664D02*
X30287718Y-19405569D01*
X44306767Y-20807855D02*
X43811529Y-20807855D01*
X43811529Y-20807855D02*
X44078195Y-21112617D01*
X44078195Y-21112617D02*
X43963910Y-21112617D01*
X43963910Y-21112617D02*
X43887719Y-21150712D01*
X43887719Y-21150712D02*
X43849624Y-21188807D01*
X43849624Y-21188807D02*
X43811529Y-21264998D01*
X43811529Y-21264998D02*
X43811529Y-21455474D01*
X43811529Y-21455474D02*
X43849624Y-21531664D01*
X43849624Y-21531664D02*
X43887719Y-21569760D01*
X43887719Y-21569760D02*
X43963910Y-21607855D01*
X43963910Y-21607855D02*
X44192481Y-21607855D01*
X44192481Y-21607855D02*
X44268672Y-21569760D01*
X44268672Y-21569760D02*
X44306767Y-21531664D01*
X43468671Y-21531664D02*
X43430576Y-21569760D01*
X43430576Y-21569760D02*
X43468671Y-21607855D01*
X43468671Y-21607855D02*
X43506767Y-21569760D01*
X43506767Y-21569760D02*
X43468671Y-21531664D01*
X43468671Y-21531664D02*
X43468671Y-21607855D01*
X43163910Y-20807855D02*
X42630576Y-20807855D01*
X42630576Y-20807855D02*
X42973434Y-21607855D01*
X42440100Y-20807855D02*
X42173433Y-21607855D01*
X42173433Y-21607855D02*
X41906767Y-20807855D01*
X41030576Y-21607855D02*
X41030576Y-20807855D01*
X41030576Y-20807855D02*
X40840100Y-20807855D01*
X40840100Y-20807855D02*
X40725814Y-20845950D01*
X40725814Y-20845950D02*
X40649624Y-20922140D01*
X40649624Y-20922140D02*
X40611529Y-20998331D01*
X40611529Y-20998331D02*
X40573433Y-21150712D01*
X40573433Y-21150712D02*
X40573433Y-21264998D01*
X40573433Y-21264998D02*
X40611529Y-21417379D01*
X40611529Y-21417379D02*
X40649624Y-21493569D01*
X40649624Y-21493569D02*
X40725814Y-21569760D01*
X40725814Y-21569760D02*
X40840100Y-21607855D01*
X40840100Y-21607855D02*
X41030576Y-21607855D01*
X39773433Y-21531664D02*
X39811529Y-21569760D01*
X39811529Y-21569760D02*
X39925814Y-21607855D01*
X39925814Y-21607855D02*
X40002005Y-21607855D01*
X40002005Y-21607855D02*
X40116291Y-21569760D01*
X40116291Y-21569760D02*
X40192481Y-21493569D01*
X40192481Y-21493569D02*
X40230576Y-21417379D01*
X40230576Y-21417379D02*
X40268672Y-21264998D01*
X40268672Y-21264998D02*
X40268672Y-21150712D01*
X40268672Y-21150712D02*
X40230576Y-20998331D01*
X40230576Y-20998331D02*
X40192481Y-20922140D01*
X40192481Y-20922140D02*
X40116291Y-20845950D01*
X40116291Y-20845950D02*
X40002005Y-20807855D01*
X40002005Y-20807855D02*
X39925814Y-20807855D01*
X39925814Y-20807855D02*
X39811529Y-20845950D01*
X39811529Y-20845950D02*
X39773433Y-20884045D01*
X38478195Y-21074521D02*
X38478195Y-21607855D01*
X38668671Y-20769760D02*
X38859148Y-21341188D01*
X38859148Y-21341188D02*
X38363909Y-21341188D01*
X37906766Y-20807855D02*
X37830576Y-20807855D01*
X37830576Y-20807855D02*
X37754385Y-20845950D01*
X37754385Y-20845950D02*
X37716290Y-20884045D01*
X37716290Y-20884045D02*
X37678195Y-20960236D01*
X37678195Y-20960236D02*
X37640100Y-21112617D01*
X37640100Y-21112617D02*
X37640100Y-21303093D01*
X37640100Y-21303093D02*
X37678195Y-21455474D01*
X37678195Y-21455474D02*
X37716290Y-21531664D01*
X37716290Y-21531664D02*
X37754385Y-21569760D01*
X37754385Y-21569760D02*
X37830576Y-21607855D01*
X37830576Y-21607855D02*
X37906766Y-21607855D01*
X37906766Y-21607855D02*
X37982957Y-21569760D01*
X37982957Y-21569760D02*
X38021052Y-21531664D01*
X38021052Y-21531664D02*
X38059147Y-21455474D01*
X38059147Y-21455474D02*
X38097243Y-21303093D01*
X38097243Y-21303093D02*
X38097243Y-21112617D01*
X38097243Y-21112617D02*
X38059147Y-20960236D01*
X38059147Y-20960236D02*
X38021052Y-20884045D01*
X38021052Y-20884045D02*
X37982957Y-20845950D01*
X37982957Y-20845950D02*
X37906766Y-20807855D01*
X37144861Y-20807855D02*
X37068671Y-20807855D01*
X37068671Y-20807855D02*
X36992480Y-20845950D01*
X36992480Y-20845950D02*
X36954385Y-20884045D01*
X36954385Y-20884045D02*
X36916290Y-20960236D01*
X36916290Y-20960236D02*
X36878195Y-21112617D01*
X36878195Y-21112617D02*
X36878195Y-21303093D01*
X36878195Y-21303093D02*
X36916290Y-21455474D01*
X36916290Y-21455474D02*
X36954385Y-21531664D01*
X36954385Y-21531664D02*
X36992480Y-21569760D01*
X36992480Y-21569760D02*
X37068671Y-21607855D01*
X37068671Y-21607855D02*
X37144861Y-21607855D01*
X37144861Y-21607855D02*
X37221052Y-21569760D01*
X37221052Y-21569760D02*
X37259147Y-21531664D01*
X37259147Y-21531664D02*
X37297242Y-21455474D01*
X37297242Y-21455474D02*
X37335338Y-21303093D01*
X37335338Y-21303093D02*
X37335338Y-21112617D01*
X37335338Y-21112617D02*
X37297242Y-20960236D01*
X37297242Y-20960236D02*
X37259147Y-20884045D01*
X37259147Y-20884045D02*
X37221052Y-20845950D01*
X37221052Y-20845950D02*
X37144861Y-20807855D01*
X36535337Y-21607855D02*
X36535337Y-21074521D01*
X36535337Y-21150712D02*
X36497242Y-21112617D01*
X36497242Y-21112617D02*
X36421052Y-21074521D01*
X36421052Y-21074521D02*
X36306766Y-21074521D01*
X36306766Y-21074521D02*
X36230575Y-21112617D01*
X36230575Y-21112617D02*
X36192480Y-21188807D01*
X36192480Y-21188807D02*
X36192480Y-21607855D01*
X36192480Y-21188807D02*
X36154385Y-21112617D01*
X36154385Y-21112617D02*
X36078194Y-21074521D01*
X36078194Y-21074521D02*
X35963909Y-21074521D01*
X35963909Y-21074521D02*
X35887718Y-21112617D01*
X35887718Y-21112617D02*
X35849623Y-21188807D01*
X35849623Y-21188807D02*
X35849623Y-21607855D01*
X35506766Y-21379283D02*
X35125813Y-21379283D01*
X35582956Y-21607855D02*
X35316289Y-20807855D01*
X35316289Y-20807855D02*
X35049623Y-21607855D01*
X44306767Y-22095855D02*
X43811529Y-22095855D01*
X43811529Y-22095855D02*
X44078195Y-22400617D01*
X44078195Y-22400617D02*
X43963910Y-22400617D01*
X43963910Y-22400617D02*
X43887719Y-22438712D01*
X43887719Y-22438712D02*
X43849624Y-22476807D01*
X43849624Y-22476807D02*
X43811529Y-22552998D01*
X43811529Y-22552998D02*
X43811529Y-22743474D01*
X43811529Y-22743474D02*
X43849624Y-22819664D01*
X43849624Y-22819664D02*
X43887719Y-22857760D01*
X43887719Y-22857760D02*
X43963910Y-22895855D01*
X43963910Y-22895855D02*
X44192481Y-22895855D01*
X44192481Y-22895855D02*
X44268672Y-22857760D01*
X44268672Y-22857760D02*
X44306767Y-22819664D01*
X43468671Y-22819664D02*
X43430576Y-22857760D01*
X43430576Y-22857760D02*
X43468671Y-22895855D01*
X43468671Y-22895855D02*
X43506767Y-22857760D01*
X43506767Y-22857760D02*
X43468671Y-22819664D01*
X43468671Y-22819664D02*
X43468671Y-22895855D01*
X43163910Y-22095855D02*
X42630576Y-22095855D01*
X42630576Y-22095855D02*
X42973434Y-22895855D01*
X42440100Y-22095855D02*
X42173433Y-22895855D01*
X42173433Y-22895855D02*
X41906767Y-22095855D01*
X41068672Y-22172045D02*
X41030576Y-22133950D01*
X41030576Y-22133950D02*
X40954386Y-22095855D01*
X40954386Y-22095855D02*
X40763910Y-22095855D01*
X40763910Y-22095855D02*
X40687719Y-22133950D01*
X40687719Y-22133950D02*
X40649624Y-22172045D01*
X40649624Y-22172045D02*
X40611529Y-22248236D01*
X40611529Y-22248236D02*
X40611529Y-22324426D01*
X40611529Y-22324426D02*
X40649624Y-22438712D01*
X40649624Y-22438712D02*
X41106767Y-22895855D01*
X41106767Y-22895855D02*
X40611529Y-22895855D01*
X40116290Y-22095855D02*
X40040100Y-22095855D01*
X40040100Y-22095855D02*
X39963909Y-22133950D01*
X39963909Y-22133950D02*
X39925814Y-22172045D01*
X39925814Y-22172045D02*
X39887719Y-22248236D01*
X39887719Y-22248236D02*
X39849624Y-22400617D01*
X39849624Y-22400617D02*
X39849624Y-22591093D01*
X39849624Y-22591093D02*
X39887719Y-22743474D01*
X39887719Y-22743474D02*
X39925814Y-22819664D01*
X39925814Y-22819664D02*
X39963909Y-22857760D01*
X39963909Y-22857760D02*
X40040100Y-22895855D01*
X40040100Y-22895855D02*
X40116290Y-22895855D01*
X40116290Y-22895855D02*
X40192481Y-22857760D01*
X40192481Y-22857760D02*
X40230576Y-22819664D01*
X40230576Y-22819664D02*
X40268671Y-22743474D01*
X40268671Y-22743474D02*
X40306767Y-22591093D01*
X40306767Y-22591093D02*
X40306767Y-22400617D01*
X40306767Y-22400617D02*
X40268671Y-22248236D01*
X40268671Y-22248236D02*
X40230576Y-22172045D01*
X40230576Y-22172045D02*
X40192481Y-22133950D01*
X40192481Y-22133950D02*
X40116290Y-22095855D01*
X39354385Y-22095855D02*
X39278195Y-22095855D01*
X39278195Y-22095855D02*
X39202004Y-22133950D01*
X39202004Y-22133950D02*
X39163909Y-22172045D01*
X39163909Y-22172045D02*
X39125814Y-22248236D01*
X39125814Y-22248236D02*
X39087719Y-22400617D01*
X39087719Y-22400617D02*
X39087719Y-22591093D01*
X39087719Y-22591093D02*
X39125814Y-22743474D01*
X39125814Y-22743474D02*
X39163909Y-22819664D01*
X39163909Y-22819664D02*
X39202004Y-22857760D01*
X39202004Y-22857760D02*
X39278195Y-22895855D01*
X39278195Y-22895855D02*
X39354385Y-22895855D01*
X39354385Y-22895855D02*
X39430576Y-22857760D01*
X39430576Y-22857760D02*
X39468671Y-22819664D01*
X39468671Y-22819664D02*
X39506766Y-22743474D01*
X39506766Y-22743474D02*
X39544862Y-22591093D01*
X39544862Y-22591093D02*
X39544862Y-22400617D01*
X39544862Y-22400617D02*
X39506766Y-22248236D01*
X39506766Y-22248236D02*
X39468671Y-22172045D01*
X39468671Y-22172045D02*
X39430576Y-22133950D01*
X39430576Y-22133950D02*
X39354385Y-22095855D01*
X38592480Y-22095855D02*
X38516290Y-22095855D01*
X38516290Y-22095855D02*
X38440099Y-22133950D01*
X38440099Y-22133950D02*
X38402004Y-22172045D01*
X38402004Y-22172045D02*
X38363909Y-22248236D01*
X38363909Y-22248236D02*
X38325814Y-22400617D01*
X38325814Y-22400617D02*
X38325814Y-22591093D01*
X38325814Y-22591093D02*
X38363909Y-22743474D01*
X38363909Y-22743474D02*
X38402004Y-22819664D01*
X38402004Y-22819664D02*
X38440099Y-22857760D01*
X38440099Y-22857760D02*
X38516290Y-22895855D01*
X38516290Y-22895855D02*
X38592480Y-22895855D01*
X38592480Y-22895855D02*
X38668671Y-22857760D01*
X38668671Y-22857760D02*
X38706766Y-22819664D01*
X38706766Y-22819664D02*
X38744861Y-22743474D01*
X38744861Y-22743474D02*
X38782957Y-22591093D01*
X38782957Y-22591093D02*
X38782957Y-22400617D01*
X38782957Y-22400617D02*
X38744861Y-22248236D01*
X38744861Y-22248236D02*
X38706766Y-22172045D01*
X38706766Y-22172045D02*
X38668671Y-22133950D01*
X38668671Y-22133950D02*
X38592480Y-22095855D01*
X37982956Y-22895855D02*
X37982956Y-22362521D01*
X37982956Y-22438712D02*
X37944861Y-22400617D01*
X37944861Y-22400617D02*
X37868671Y-22362521D01*
X37868671Y-22362521D02*
X37754385Y-22362521D01*
X37754385Y-22362521D02*
X37678194Y-22400617D01*
X37678194Y-22400617D02*
X37640099Y-22476807D01*
X37640099Y-22476807D02*
X37640099Y-22895855D01*
X37640099Y-22476807D02*
X37602004Y-22400617D01*
X37602004Y-22400617D02*
X37525813Y-22362521D01*
X37525813Y-22362521D02*
X37411528Y-22362521D01*
X37411528Y-22362521D02*
X37335337Y-22400617D01*
X37335337Y-22400617D02*
X37297242Y-22476807D01*
X37297242Y-22476807D02*
X37297242Y-22895855D01*
X36954385Y-22667283D02*
X36573432Y-22667283D01*
X37030575Y-22895855D02*
X36763908Y-22095855D01*
X36763908Y-22095855D02*
X36497242Y-22895855D01*
X36230575Y-22895855D02*
X36230575Y-22095855D01*
X35887718Y-22895855D02*
X35887718Y-22476807D01*
X35887718Y-22476807D02*
X35925813Y-22400617D01*
X35925813Y-22400617D02*
X36002004Y-22362521D01*
X36002004Y-22362521D02*
X36116290Y-22362521D01*
X36116290Y-22362521D02*
X36192480Y-22400617D01*
X36192480Y-22400617D02*
X36230575Y-22438712D01*
X34516289Y-22895855D02*
X34897241Y-22895855D01*
X34897241Y-22895855D02*
X34897241Y-22095855D01*
X34249622Y-22895855D02*
X34249622Y-22362521D01*
X34249622Y-22095855D02*
X34287718Y-22133950D01*
X34287718Y-22133950D02*
X34249622Y-22172045D01*
X34249622Y-22172045D02*
X34211527Y-22133950D01*
X34211527Y-22133950D02*
X34249622Y-22095855D01*
X34249622Y-22095855D02*
X34249622Y-22172045D01*
X33868670Y-22895855D02*
X33868670Y-22095855D01*
X33868670Y-22095855D02*
X33563908Y-22095855D01*
X33563908Y-22095855D02*
X33487718Y-22133950D01*
X33487718Y-22133950D02*
X33449623Y-22172045D01*
X33449623Y-22172045D02*
X33411527Y-22248236D01*
X33411527Y-22248236D02*
X33411527Y-22362521D01*
X33411527Y-22362521D02*
X33449623Y-22438712D01*
X33449623Y-22438712D02*
X33487718Y-22476807D01*
X33487718Y-22476807D02*
X33563908Y-22514902D01*
X33563908Y-22514902D02*
X33868670Y-22514902D01*
X32954385Y-22895855D02*
X33030575Y-22857760D01*
X33030575Y-22857760D02*
X33068670Y-22819664D01*
X33068670Y-22819664D02*
X33106766Y-22743474D01*
X33106766Y-22743474D02*
X33106766Y-22514902D01*
X33106766Y-22514902D02*
X33068670Y-22438712D01*
X33068670Y-22438712D02*
X33030575Y-22400617D01*
X33030575Y-22400617D02*
X32954385Y-22362521D01*
X32954385Y-22362521D02*
X32840099Y-22362521D01*
X32840099Y-22362521D02*
X32763908Y-22400617D01*
X32763908Y-22400617D02*
X32725813Y-22438712D01*
X32725813Y-22438712D02*
X32687718Y-22514902D01*
X32687718Y-22514902D02*
X32687718Y-22743474D01*
X32687718Y-22743474D02*
X32725813Y-22819664D01*
X32725813Y-22819664D02*
X32763908Y-22857760D01*
X32763908Y-22857760D02*
X32840099Y-22895855D01*
X32840099Y-22895855D02*
X32954385Y-22895855D01*
D12*
X47421241Y-10538071D02*
X47492669Y-10609500D01*
X47492669Y-10609500D02*
X47706955Y-10680928D01*
X47706955Y-10680928D02*
X47849812Y-10680928D01*
X47849812Y-10680928D02*
X48064098Y-10609500D01*
X48064098Y-10609500D02*
X48206955Y-10466642D01*
X48206955Y-10466642D02*
X48278384Y-10323785D01*
X48278384Y-10323785D02*
X48349812Y-10038071D01*
X48349812Y-10038071D02*
X48349812Y-9823785D01*
X48349812Y-9823785D02*
X48278384Y-9538071D01*
X48278384Y-9538071D02*
X48206955Y-9395214D01*
X48206955Y-9395214D02*
X48064098Y-9252357D01*
X48064098Y-9252357D02*
X47849812Y-9180928D01*
X47849812Y-9180928D02*
X47706955Y-9180928D01*
X47706955Y-9180928D02*
X47492669Y-9252357D01*
X47492669Y-9252357D02*
X47421241Y-9323785D01*
X46849812Y-10252357D02*
X46135527Y-10252357D01*
X46992669Y-10680928D02*
X46492669Y-9180928D01*
X46492669Y-9180928D02*
X45992669Y-10680928D01*
X44778384Y-10680928D02*
X45492670Y-10680928D01*
X45492670Y-10680928D02*
X45492670Y-9180928D01*
X43421241Y-10538071D02*
X43492669Y-10609500D01*
X43492669Y-10609500D02*
X43706955Y-10680928D01*
X43706955Y-10680928D02*
X43849812Y-10680928D01*
X43849812Y-10680928D02*
X44064098Y-10609500D01*
X44064098Y-10609500D02*
X44206955Y-10466642D01*
X44206955Y-10466642D02*
X44278384Y-10323785D01*
X44278384Y-10323785D02*
X44349812Y-10038071D01*
X44349812Y-10038071D02*
X44349812Y-9823785D01*
X44349812Y-9823785D02*
X44278384Y-9538071D01*
X44278384Y-9538071D02*
X44206955Y-9395214D01*
X44206955Y-9395214D02*
X44064098Y-9252357D01*
X44064098Y-9252357D02*
X43849812Y-9180928D01*
X43849812Y-9180928D02*
X43706955Y-9180928D01*
X43706955Y-9180928D02*
X43492669Y-9252357D01*
X43492669Y-9252357D02*
X43421241Y-9323785D01*
X42778384Y-10680928D02*
X42778384Y-9180928D01*
X42778384Y-9180928D02*
X42206955Y-9180928D01*
X42206955Y-9180928D02*
X42064098Y-9252357D01*
X42064098Y-9252357D02*
X41992669Y-9323785D01*
X41992669Y-9323785D02*
X41921241Y-9466642D01*
X41921241Y-9466642D02*
X41921241Y-9680928D01*
X41921241Y-9680928D02*
X41992669Y-9823785D01*
X41992669Y-9823785D02*
X42064098Y-9895214D01*
X42064098Y-9895214D02*
X42206955Y-9966642D01*
X42206955Y-9966642D02*
X42778384Y-9966642D01*
X41349812Y-10609500D02*
X41135527Y-10680928D01*
X41135527Y-10680928D02*
X40778384Y-10680928D01*
X40778384Y-10680928D02*
X40635527Y-10609500D01*
X40635527Y-10609500D02*
X40564098Y-10538071D01*
X40564098Y-10538071D02*
X40492669Y-10395214D01*
X40492669Y-10395214D02*
X40492669Y-10252357D01*
X40492669Y-10252357D02*
X40564098Y-10109500D01*
X40564098Y-10109500D02*
X40635527Y-10038071D01*
X40635527Y-10038071D02*
X40778384Y-9966642D01*
X40778384Y-9966642D02*
X41064098Y-9895214D01*
X41064098Y-9895214D02*
X41206955Y-9823785D01*
X41206955Y-9823785D02*
X41278384Y-9752357D01*
X41278384Y-9752357D02*
X41349812Y-9609500D01*
X41349812Y-9609500D02*
X41349812Y-9466642D01*
X41349812Y-9466642D02*
X41278384Y-9323785D01*
X41278384Y-9323785D02*
X41206955Y-9252357D01*
X41206955Y-9252357D02*
X41064098Y-9180928D01*
X41064098Y-9180928D02*
X40706955Y-9180928D01*
X40706955Y-9180928D02*
X40492669Y-9252357D01*
X39849813Y-9180928D02*
X39849813Y-10395214D01*
X39849813Y-10395214D02*
X39778384Y-10538071D01*
X39778384Y-10538071D02*
X39706956Y-10609500D01*
X39706956Y-10609500D02*
X39564098Y-10680928D01*
X39564098Y-10680928D02*
X39278384Y-10680928D01*
X39278384Y-10680928D02*
X39135527Y-10609500D01*
X39135527Y-10609500D02*
X39064098Y-10538071D01*
X39064098Y-10538071D02*
X38992670Y-10395214D01*
X38992670Y-10395214D02*
X38992670Y-9180928D01*
X38278384Y-10538071D02*
X38206955Y-10609500D01*
X38206955Y-10609500D02*
X38278384Y-10680928D01*
X38278384Y-10680928D02*
X38349812Y-10609500D01*
X38349812Y-10609500D02*
X38278384Y-10538071D01*
X38278384Y-10538071D02*
X38278384Y-10680928D01*
X36706955Y-10538071D02*
X36778383Y-10609500D01*
X36778383Y-10609500D02*
X36992669Y-10680928D01*
X36992669Y-10680928D02*
X37135526Y-10680928D01*
X37135526Y-10680928D02*
X37349812Y-10609500D01*
X37349812Y-10609500D02*
X37492669Y-10466642D01*
X37492669Y-10466642D02*
X37564098Y-10323785D01*
X37564098Y-10323785D02*
X37635526Y-10038071D01*
X37635526Y-10038071D02*
X37635526Y-9823785D01*
X37635526Y-9823785D02*
X37564098Y-9538071D01*
X37564098Y-9538071D02*
X37492669Y-9395214D01*
X37492669Y-9395214D02*
X37349812Y-9252357D01*
X37349812Y-9252357D02*
X37135526Y-9180928D01*
X37135526Y-9180928D02*
X36992669Y-9180928D01*
X36992669Y-9180928D02*
X36778383Y-9252357D01*
X36778383Y-9252357D02*
X36706955Y-9323785D01*
X35778383Y-9180928D02*
X35492669Y-9180928D01*
X35492669Y-9180928D02*
X35349812Y-9252357D01*
X35349812Y-9252357D02*
X35206955Y-9395214D01*
X35206955Y-9395214D02*
X35135526Y-9680928D01*
X35135526Y-9680928D02*
X35135526Y-10180928D01*
X35135526Y-10180928D02*
X35206955Y-10466642D01*
X35206955Y-10466642D02*
X35349812Y-10609500D01*
X35349812Y-10609500D02*
X35492669Y-10680928D01*
X35492669Y-10680928D02*
X35778383Y-10680928D01*
X35778383Y-10680928D02*
X35921241Y-10609500D01*
X35921241Y-10609500D02*
X36064098Y-10466642D01*
X36064098Y-10466642D02*
X36135526Y-10180928D01*
X36135526Y-10180928D02*
X36135526Y-9680928D01*
X36135526Y-9680928D02*
X36064098Y-9395214D01*
X36064098Y-9395214D02*
X35921241Y-9252357D01*
X35921241Y-9252357D02*
X35778383Y-9180928D01*
X34492669Y-10680928D02*
X34492669Y-9180928D01*
X34492669Y-9180928D02*
X33992669Y-10252357D01*
X33992669Y-10252357D02*
X33492669Y-9180928D01*
X33492669Y-9180928D02*
X33492669Y-10680928D01*
X32778383Y-10538071D02*
X32706954Y-10609500D01*
X32706954Y-10609500D02*
X32778383Y-10680928D01*
X32778383Y-10680928D02*
X32849811Y-10609500D01*
X32849811Y-10609500D02*
X32778383Y-10538071D01*
X32778383Y-10538071D02*
X32778383Y-10680928D01*
X32135525Y-10252357D02*
X31421240Y-10252357D01*
X32278382Y-10680928D02*
X31778382Y-9180928D01*
X31778382Y-9180928D02*
X31278382Y-10680928D01*
X30778383Y-9180928D02*
X30778383Y-10395214D01*
X30778383Y-10395214D02*
X30706954Y-10538071D01*
X30706954Y-10538071D02*
X30635526Y-10609500D01*
X30635526Y-10609500D02*
X30492668Y-10680928D01*
X30492668Y-10680928D02*
X30206954Y-10680928D01*
X30206954Y-10680928D02*
X30064097Y-10609500D01*
X30064097Y-10609500D02*
X29992668Y-10538071D01*
X29992668Y-10538071D02*
X29921240Y-10395214D01*
X29921240Y-10395214D02*
X29921240Y-9180928D01*
D13*
X9404761Y-14356333D02*
X5595238Y-14356333D01*
D11*
X52730576Y-13831855D02*
X52730576Y-13031855D01*
X52730576Y-13031855D02*
X52463910Y-13603283D01*
X52463910Y-13603283D02*
X52197243Y-13031855D01*
X52197243Y-13031855D02*
X52197243Y-13831855D01*
X51663909Y-13031855D02*
X51511528Y-13031855D01*
X51511528Y-13031855D02*
X51435338Y-13069950D01*
X51435338Y-13069950D02*
X51359147Y-13146140D01*
X51359147Y-13146140D02*
X51321052Y-13298521D01*
X51321052Y-13298521D02*
X51321052Y-13565188D01*
X51321052Y-13565188D02*
X51359147Y-13717569D01*
X51359147Y-13717569D02*
X51435338Y-13793760D01*
X51435338Y-13793760D02*
X51511528Y-13831855D01*
X51511528Y-13831855D02*
X51663909Y-13831855D01*
X51663909Y-13831855D02*
X51740100Y-13793760D01*
X51740100Y-13793760D02*
X51816290Y-13717569D01*
X51816290Y-13717569D02*
X51854386Y-13565188D01*
X51854386Y-13565188D02*
X51854386Y-13298521D01*
X51854386Y-13298521D02*
X51816290Y-13146140D01*
X51816290Y-13146140D02*
X51740100Y-13069950D01*
X51740100Y-13069950D02*
X51663909Y-13031855D01*
X50978195Y-13831855D02*
X50978195Y-13031855D01*
X50978195Y-13031855D02*
X50787719Y-13031855D01*
X50787719Y-13031855D02*
X50673433Y-13069950D01*
X50673433Y-13069950D02*
X50597243Y-13146140D01*
X50597243Y-13146140D02*
X50559148Y-13222331D01*
X50559148Y-13222331D02*
X50521052Y-13374712D01*
X50521052Y-13374712D02*
X50521052Y-13488998D01*
X50521052Y-13488998D02*
X50559148Y-13641379D01*
X50559148Y-13641379D02*
X50597243Y-13717569D01*
X50597243Y-13717569D02*
X50673433Y-13793760D01*
X50673433Y-13793760D02*
X50787719Y-13831855D01*
X50787719Y-13831855D02*
X50978195Y-13831855D01*
X50178195Y-13412807D02*
X49911529Y-13412807D01*
X49797243Y-13831855D02*
X50178195Y-13831855D01*
X50178195Y-13831855D02*
X50178195Y-13031855D01*
X50178195Y-13031855D02*
X49797243Y-13031855D01*
X49073433Y-13831855D02*
X49454385Y-13831855D01*
X49454385Y-13831855D02*
X49454385Y-13031855D01*
X48806766Y-13755664D02*
X48768671Y-13793760D01*
X48768671Y-13793760D02*
X48806766Y-13831855D01*
X48806766Y-13831855D02*
X48844862Y-13793760D01*
X48844862Y-13793760D02*
X48806766Y-13755664D01*
X48806766Y-13755664D02*
X48806766Y-13831855D01*
X48806766Y-13336617D02*
X48768671Y-13374712D01*
X48768671Y-13374712D02*
X48806766Y-13412807D01*
X48806766Y-13412807D02*
X48844862Y-13374712D01*
X48844862Y-13374712D02*
X48806766Y-13336617D01*
X48806766Y-13336617D02*
X48806766Y-13412807D01*
X52768672Y-16369760D02*
X52654386Y-16407855D01*
X52654386Y-16407855D02*
X52463910Y-16407855D01*
X52463910Y-16407855D02*
X52387719Y-16369760D01*
X52387719Y-16369760D02*
X52349624Y-16331664D01*
X52349624Y-16331664D02*
X52311529Y-16255474D01*
X52311529Y-16255474D02*
X52311529Y-16179283D01*
X52311529Y-16179283D02*
X52349624Y-16103093D01*
X52349624Y-16103093D02*
X52387719Y-16064998D01*
X52387719Y-16064998D02*
X52463910Y-16026902D01*
X52463910Y-16026902D02*
X52616291Y-15988807D01*
X52616291Y-15988807D02*
X52692481Y-15950712D01*
X52692481Y-15950712D02*
X52730576Y-15912617D01*
X52730576Y-15912617D02*
X52768672Y-15836426D01*
X52768672Y-15836426D02*
X52768672Y-15760236D01*
X52768672Y-15760236D02*
X52730576Y-15684045D01*
X52730576Y-15684045D02*
X52692481Y-15645950D01*
X52692481Y-15645950D02*
X52616291Y-15607855D01*
X52616291Y-15607855D02*
X52425814Y-15607855D01*
X52425814Y-15607855D02*
X52311529Y-15645950D01*
X51968671Y-15988807D02*
X51702005Y-15988807D01*
X51587719Y-16407855D02*
X51968671Y-16407855D01*
X51968671Y-16407855D02*
X51968671Y-15607855D01*
X51968671Y-15607855D02*
X51587719Y-15607855D01*
X50787718Y-16407855D02*
X51054385Y-16026902D01*
X51244861Y-16407855D02*
X51244861Y-15607855D01*
X51244861Y-15607855D02*
X50940099Y-15607855D01*
X50940099Y-15607855D02*
X50863909Y-15645950D01*
X50863909Y-15645950D02*
X50825814Y-15684045D01*
X50825814Y-15684045D02*
X50787718Y-15760236D01*
X50787718Y-15760236D02*
X50787718Y-15874521D01*
X50787718Y-15874521D02*
X50825814Y-15950712D01*
X50825814Y-15950712D02*
X50863909Y-15988807D01*
X50863909Y-15988807D02*
X50940099Y-16026902D01*
X50940099Y-16026902D02*
X51244861Y-16026902D01*
X50444861Y-16407855D02*
X50444861Y-15607855D01*
X50102005Y-16179283D02*
X49721052Y-16179283D01*
X50178195Y-16407855D02*
X49911528Y-15607855D01*
X49911528Y-15607855D02*
X49644862Y-16407855D01*
X48997243Y-16407855D02*
X49378195Y-16407855D01*
X49378195Y-16407855D02*
X49378195Y-15607855D01*
X48730576Y-16331664D02*
X48692481Y-16369760D01*
X48692481Y-16369760D02*
X48730576Y-16407855D01*
X48730576Y-16407855D02*
X48768672Y-16369760D01*
X48768672Y-16369760D02*
X48730576Y-16331664D01*
X48730576Y-16331664D02*
X48730576Y-16407855D01*
X48730576Y-15912617D02*
X48692481Y-15950712D01*
X48692481Y-15950712D02*
X48730576Y-15988807D01*
X48730576Y-15988807D02*
X48768672Y-15950712D01*
X48768672Y-15950712D02*
X48730576Y-15912617D01*
X48730576Y-15912617D02*
X48730576Y-15988807D01*
X52730576Y-18183855D02*
X52730576Y-18831474D01*
X52730576Y-18831474D02*
X52692481Y-18907664D01*
X52692481Y-18907664D02*
X52654386Y-18945760D01*
X52654386Y-18945760D02*
X52578195Y-18983855D01*
X52578195Y-18983855D02*
X52425814Y-18983855D01*
X52425814Y-18983855D02*
X52349624Y-18945760D01*
X52349624Y-18945760D02*
X52311529Y-18907664D01*
X52311529Y-18907664D02*
X52273433Y-18831474D01*
X52273433Y-18831474D02*
X52273433Y-18183855D01*
X51930577Y-18945760D02*
X51816291Y-18983855D01*
X51816291Y-18983855D02*
X51625815Y-18983855D01*
X51625815Y-18983855D02*
X51549624Y-18945760D01*
X51549624Y-18945760D02*
X51511529Y-18907664D01*
X51511529Y-18907664D02*
X51473434Y-18831474D01*
X51473434Y-18831474D02*
X51473434Y-18755283D01*
X51473434Y-18755283D02*
X51511529Y-18679093D01*
X51511529Y-18679093D02*
X51549624Y-18640998D01*
X51549624Y-18640998D02*
X51625815Y-18602902D01*
X51625815Y-18602902D02*
X51778196Y-18564807D01*
X51778196Y-18564807D02*
X51854386Y-18526712D01*
X51854386Y-18526712D02*
X51892481Y-18488617D01*
X51892481Y-18488617D02*
X51930577Y-18412426D01*
X51930577Y-18412426D02*
X51930577Y-18336236D01*
X51930577Y-18336236D02*
X51892481Y-18260045D01*
X51892481Y-18260045D02*
X51854386Y-18221950D01*
X51854386Y-18221950D02*
X51778196Y-18183855D01*
X51778196Y-18183855D02*
X51587719Y-18183855D01*
X51587719Y-18183855D02*
X51473434Y-18221950D01*
X50863910Y-18564807D02*
X50749624Y-18602902D01*
X50749624Y-18602902D02*
X50711529Y-18640998D01*
X50711529Y-18640998D02*
X50673433Y-18717188D01*
X50673433Y-18717188D02*
X50673433Y-18831474D01*
X50673433Y-18831474D02*
X50711529Y-18907664D01*
X50711529Y-18907664D02*
X50749624Y-18945760D01*
X50749624Y-18945760D02*
X50825814Y-18983855D01*
X50825814Y-18983855D02*
X51130576Y-18983855D01*
X51130576Y-18983855D02*
X51130576Y-18183855D01*
X51130576Y-18183855D02*
X50863910Y-18183855D01*
X50863910Y-18183855D02*
X50787719Y-18221950D01*
X50787719Y-18221950D02*
X50749624Y-18260045D01*
X50749624Y-18260045D02*
X50711529Y-18336236D01*
X50711529Y-18336236D02*
X50711529Y-18412426D01*
X50711529Y-18412426D02*
X50749624Y-18488617D01*
X50749624Y-18488617D02*
X50787719Y-18526712D01*
X50787719Y-18526712D02*
X50863910Y-18564807D01*
X50863910Y-18564807D02*
X51130576Y-18564807D01*
X49721052Y-18983855D02*
X49721052Y-18183855D01*
X49340100Y-18983855D02*
X49340100Y-18183855D01*
X49340100Y-18183855D02*
X48882957Y-18983855D01*
X48882957Y-18983855D02*
X48882957Y-18183855D01*
X48502005Y-18983855D02*
X48502005Y-18183855D01*
X48502005Y-18183855D02*
X48197243Y-18183855D01*
X48197243Y-18183855D02*
X48121053Y-18221950D01*
X48121053Y-18221950D02*
X48082958Y-18260045D01*
X48082958Y-18260045D02*
X48044862Y-18336236D01*
X48044862Y-18336236D02*
X48044862Y-18450521D01*
X48044862Y-18450521D02*
X48082958Y-18526712D01*
X48082958Y-18526712D02*
X48121053Y-18564807D01*
X48121053Y-18564807D02*
X48197243Y-18602902D01*
X48197243Y-18602902D02*
X48502005Y-18602902D01*
X47702005Y-18183855D02*
X47702005Y-18831474D01*
X47702005Y-18831474D02*
X47663910Y-18907664D01*
X47663910Y-18907664D02*
X47625815Y-18945760D01*
X47625815Y-18945760D02*
X47549624Y-18983855D01*
X47549624Y-18983855D02*
X47397243Y-18983855D01*
X47397243Y-18983855D02*
X47321053Y-18945760D01*
X47321053Y-18945760D02*
X47282958Y-18907664D01*
X47282958Y-18907664D02*
X47244862Y-18831474D01*
X47244862Y-18831474D02*
X47244862Y-18183855D01*
X46978196Y-18183855D02*
X46521053Y-18183855D01*
X46749625Y-18983855D02*
X46749625Y-18183855D01*
X46254386Y-18907664D02*
X46216291Y-18945760D01*
X46216291Y-18945760D02*
X46254386Y-18983855D01*
X46254386Y-18983855D02*
X46292482Y-18945760D01*
X46292482Y-18945760D02*
X46254386Y-18907664D01*
X46254386Y-18907664D02*
X46254386Y-18983855D01*
X46254386Y-18488617D02*
X46216291Y-18526712D01*
X46216291Y-18526712D02*
X46254386Y-18564807D01*
X46254386Y-18564807D02*
X46292482Y-18526712D01*
X46292482Y-18526712D02*
X46254386Y-18488617D01*
X46254386Y-18488617D02*
X46254386Y-18564807D01*
X52730576Y-20271855D02*
X52730576Y-19471855D01*
X52730576Y-19471855D02*
X52425814Y-19471855D01*
X52425814Y-19471855D02*
X52349624Y-19509950D01*
X52349624Y-19509950D02*
X52311529Y-19548045D01*
X52311529Y-19548045D02*
X52273433Y-19624236D01*
X52273433Y-19624236D02*
X52273433Y-19738521D01*
X52273433Y-19738521D02*
X52311529Y-19814712D01*
X52311529Y-19814712D02*
X52349624Y-19852807D01*
X52349624Y-19852807D02*
X52425814Y-19890902D01*
X52425814Y-19890902D02*
X52730576Y-19890902D01*
X51968672Y-20043283D02*
X51587719Y-20043283D01*
X52044862Y-20271855D02*
X51778195Y-19471855D01*
X51778195Y-19471855D02*
X51511529Y-20271855D01*
X51244862Y-20271855D02*
X51244862Y-19471855D01*
X51244862Y-19471855D02*
X51054386Y-19471855D01*
X51054386Y-19471855D02*
X50940100Y-19509950D01*
X50940100Y-19509950D02*
X50863910Y-19586140D01*
X50863910Y-19586140D02*
X50825815Y-19662331D01*
X50825815Y-19662331D02*
X50787719Y-19814712D01*
X50787719Y-19814712D02*
X50787719Y-19928998D01*
X50787719Y-19928998D02*
X50825815Y-20081379D01*
X50825815Y-20081379D02*
X50863910Y-20157569D01*
X50863910Y-20157569D02*
X50940100Y-20233760D01*
X50940100Y-20233760D02*
X51054386Y-20271855D01*
X51054386Y-20271855D02*
X51244862Y-20271855D01*
X49835338Y-20271855D02*
X49835338Y-19471855D01*
X49454386Y-20271855D02*
X49454386Y-19471855D01*
X49454386Y-19471855D02*
X48997243Y-20271855D01*
X48997243Y-20271855D02*
X48997243Y-19471855D01*
X48616291Y-20271855D02*
X48616291Y-19471855D01*
X48616291Y-19471855D02*
X48311529Y-19471855D01*
X48311529Y-19471855D02*
X48235339Y-19509950D01*
X48235339Y-19509950D02*
X48197244Y-19548045D01*
X48197244Y-19548045D02*
X48159148Y-19624236D01*
X48159148Y-19624236D02*
X48159148Y-19738521D01*
X48159148Y-19738521D02*
X48197244Y-19814712D01*
X48197244Y-19814712D02*
X48235339Y-19852807D01*
X48235339Y-19852807D02*
X48311529Y-19890902D01*
X48311529Y-19890902D02*
X48616291Y-19890902D01*
X47816291Y-19471855D02*
X47816291Y-20119474D01*
X47816291Y-20119474D02*
X47778196Y-20195664D01*
X47778196Y-20195664D02*
X47740101Y-20233760D01*
X47740101Y-20233760D02*
X47663910Y-20271855D01*
X47663910Y-20271855D02*
X47511529Y-20271855D01*
X47511529Y-20271855D02*
X47435339Y-20233760D01*
X47435339Y-20233760D02*
X47397244Y-20195664D01*
X47397244Y-20195664D02*
X47359148Y-20119474D01*
X47359148Y-20119474D02*
X47359148Y-19471855D01*
X47092482Y-19471855D02*
X46635339Y-19471855D01*
X46863911Y-20271855D02*
X46863911Y-19471855D01*
X46368672Y-20195664D02*
X46330577Y-20233760D01*
X46330577Y-20233760D02*
X46368672Y-20271855D01*
X46368672Y-20271855D02*
X46406768Y-20233760D01*
X46406768Y-20233760D02*
X46368672Y-20195664D01*
X46368672Y-20195664D02*
X46368672Y-20271855D01*
X46368672Y-19776617D02*
X46330577Y-19814712D01*
X46330577Y-19814712D02*
X46368672Y-19852807D01*
X46368672Y-19852807D02*
X46406768Y-19814712D01*
X46406768Y-19814712D02*
X46368672Y-19776617D01*
X46368672Y-19776617D02*
X46368672Y-19852807D01*
X52730576Y-21559855D02*
X52730576Y-20759855D01*
X52730576Y-20759855D02*
X52425814Y-20759855D01*
X52425814Y-20759855D02*
X52349624Y-20797950D01*
X52349624Y-20797950D02*
X52311529Y-20836045D01*
X52311529Y-20836045D02*
X52273433Y-20912236D01*
X52273433Y-20912236D02*
X52273433Y-21026521D01*
X52273433Y-21026521D02*
X52311529Y-21102712D01*
X52311529Y-21102712D02*
X52349624Y-21140807D01*
X52349624Y-21140807D02*
X52425814Y-21178902D01*
X52425814Y-21178902D02*
X52730576Y-21178902D01*
X51968672Y-21331283D02*
X51587719Y-21331283D01*
X52044862Y-21559855D02*
X51778195Y-20759855D01*
X51778195Y-20759855D02*
X51511529Y-21559855D01*
X51244862Y-21559855D02*
X51244862Y-20759855D01*
X51244862Y-20759855D02*
X51054386Y-20759855D01*
X51054386Y-20759855D02*
X50940100Y-20797950D01*
X50940100Y-20797950D02*
X50863910Y-20874140D01*
X50863910Y-20874140D02*
X50825815Y-20950331D01*
X50825815Y-20950331D02*
X50787719Y-21102712D01*
X50787719Y-21102712D02*
X50787719Y-21216998D01*
X50787719Y-21216998D02*
X50825815Y-21369379D01*
X50825815Y-21369379D02*
X50863910Y-21445569D01*
X50863910Y-21445569D02*
X50940100Y-21521760D01*
X50940100Y-21521760D02*
X51054386Y-21559855D01*
X51054386Y-21559855D02*
X51244862Y-21559855D01*
X49682957Y-20759855D02*
X49530576Y-20759855D01*
X49530576Y-20759855D02*
X49454386Y-20797950D01*
X49454386Y-20797950D02*
X49378195Y-20874140D01*
X49378195Y-20874140D02*
X49340100Y-21026521D01*
X49340100Y-21026521D02*
X49340100Y-21293188D01*
X49340100Y-21293188D02*
X49378195Y-21445569D01*
X49378195Y-21445569D02*
X49454386Y-21521760D01*
X49454386Y-21521760D02*
X49530576Y-21559855D01*
X49530576Y-21559855D02*
X49682957Y-21559855D01*
X49682957Y-21559855D02*
X49759148Y-21521760D01*
X49759148Y-21521760D02*
X49835338Y-21445569D01*
X49835338Y-21445569D02*
X49873434Y-21293188D01*
X49873434Y-21293188D02*
X49873434Y-21026521D01*
X49873434Y-21026521D02*
X49835338Y-20874140D01*
X49835338Y-20874140D02*
X49759148Y-20797950D01*
X49759148Y-20797950D02*
X49682957Y-20759855D01*
X48997243Y-20759855D02*
X48997243Y-21407474D01*
X48997243Y-21407474D02*
X48959148Y-21483664D01*
X48959148Y-21483664D02*
X48921053Y-21521760D01*
X48921053Y-21521760D02*
X48844862Y-21559855D01*
X48844862Y-21559855D02*
X48692481Y-21559855D01*
X48692481Y-21559855D02*
X48616291Y-21521760D01*
X48616291Y-21521760D02*
X48578196Y-21483664D01*
X48578196Y-21483664D02*
X48540100Y-21407474D01*
X48540100Y-21407474D02*
X48540100Y-20759855D01*
X48273434Y-20759855D02*
X47816291Y-20759855D01*
X48044863Y-21559855D02*
X48044863Y-20759855D01*
X47549624Y-21559855D02*
X47549624Y-20759855D01*
X47549624Y-20759855D02*
X47244862Y-20759855D01*
X47244862Y-20759855D02*
X47168672Y-20797950D01*
X47168672Y-20797950D02*
X47130577Y-20836045D01*
X47130577Y-20836045D02*
X47092481Y-20912236D01*
X47092481Y-20912236D02*
X47092481Y-21026521D01*
X47092481Y-21026521D02*
X47130577Y-21102712D01*
X47130577Y-21102712D02*
X47168672Y-21140807D01*
X47168672Y-21140807D02*
X47244862Y-21178902D01*
X47244862Y-21178902D02*
X47549624Y-21178902D01*
X46749624Y-20759855D02*
X46749624Y-21407474D01*
X46749624Y-21407474D02*
X46711529Y-21483664D01*
X46711529Y-21483664D02*
X46673434Y-21521760D01*
X46673434Y-21521760D02*
X46597243Y-21559855D01*
X46597243Y-21559855D02*
X46444862Y-21559855D01*
X46444862Y-21559855D02*
X46368672Y-21521760D01*
X46368672Y-21521760D02*
X46330577Y-21483664D01*
X46330577Y-21483664D02*
X46292481Y-21407474D01*
X46292481Y-21407474D02*
X46292481Y-20759855D01*
X46025815Y-20759855D02*
X45568672Y-20759855D01*
X45797244Y-21559855D02*
X45797244Y-20759855D01*
X45302005Y-21483664D02*
X45263910Y-21521760D01*
X45263910Y-21521760D02*
X45302005Y-21559855D01*
X45302005Y-21559855D02*
X45340101Y-21521760D01*
X45340101Y-21521760D02*
X45302005Y-21483664D01*
X45302005Y-21483664D02*
X45302005Y-21559855D01*
X45302005Y-21064617D02*
X45263910Y-21102712D01*
X45263910Y-21102712D02*
X45302005Y-21140807D01*
X45302005Y-21140807D02*
X45340101Y-21102712D01*
X45340101Y-21102712D02*
X45302005Y-21064617D01*
X45302005Y-21064617D02*
X45302005Y-21140807D01*
X52463910Y-22428807D02*
X52349624Y-22466902D01*
X52349624Y-22466902D02*
X52311529Y-22504998D01*
X52311529Y-22504998D02*
X52273433Y-22581188D01*
X52273433Y-22581188D02*
X52273433Y-22695474D01*
X52273433Y-22695474D02*
X52311529Y-22771664D01*
X52311529Y-22771664D02*
X52349624Y-22809760D01*
X52349624Y-22809760D02*
X52425814Y-22847855D01*
X52425814Y-22847855D02*
X52730576Y-22847855D01*
X52730576Y-22847855D02*
X52730576Y-22047855D01*
X52730576Y-22047855D02*
X52463910Y-22047855D01*
X52463910Y-22047855D02*
X52387719Y-22085950D01*
X52387719Y-22085950D02*
X52349624Y-22124045D01*
X52349624Y-22124045D02*
X52311529Y-22200236D01*
X52311529Y-22200236D02*
X52311529Y-22276426D01*
X52311529Y-22276426D02*
X52349624Y-22352617D01*
X52349624Y-22352617D02*
X52387719Y-22390712D01*
X52387719Y-22390712D02*
X52463910Y-22428807D01*
X52463910Y-22428807D02*
X52730576Y-22428807D01*
X51968672Y-22619283D02*
X51587719Y-22619283D01*
X52044862Y-22847855D02*
X51778195Y-22047855D01*
X51778195Y-22047855D02*
X51511529Y-22847855D01*
X51359148Y-22047855D02*
X50902005Y-22047855D01*
X51130577Y-22847855D02*
X51130577Y-22047855D01*
X50749624Y-22047855D02*
X50292481Y-22047855D01*
X50521053Y-22847855D02*
X50521053Y-22047855D01*
X50025814Y-22428807D02*
X49759148Y-22428807D01*
X49644862Y-22847855D02*
X50025814Y-22847855D01*
X50025814Y-22847855D02*
X50025814Y-22047855D01*
X50025814Y-22047855D02*
X49644862Y-22047855D01*
X48844861Y-22847855D02*
X49111528Y-22466902D01*
X49302004Y-22847855D02*
X49302004Y-22047855D01*
X49302004Y-22047855D02*
X48997242Y-22047855D01*
X48997242Y-22047855D02*
X48921052Y-22085950D01*
X48921052Y-22085950D02*
X48882957Y-22124045D01*
X48882957Y-22124045D02*
X48844861Y-22200236D01*
X48844861Y-22200236D02*
X48844861Y-22314521D01*
X48844861Y-22314521D02*
X48882957Y-22390712D01*
X48882957Y-22390712D02*
X48921052Y-22428807D01*
X48921052Y-22428807D02*
X48997242Y-22466902D01*
X48997242Y-22466902D02*
X49302004Y-22466902D01*
X48349623Y-22466902D02*
X48349623Y-22847855D01*
X48616290Y-22047855D02*
X48349623Y-22466902D01*
X48349623Y-22466902D02*
X48082957Y-22047855D01*
X47816290Y-22771664D02*
X47778195Y-22809760D01*
X47778195Y-22809760D02*
X47816290Y-22847855D01*
X47816290Y-22847855D02*
X47854386Y-22809760D01*
X47854386Y-22809760D02*
X47816290Y-22771664D01*
X47816290Y-22771664D02*
X47816290Y-22847855D01*
X47816290Y-22352617D02*
X47778195Y-22390712D01*
X47778195Y-22390712D02*
X47816290Y-22428807D01*
X47816290Y-22428807D02*
X47854386Y-22390712D01*
X47854386Y-22390712D02*
X47816290Y-22352617D01*
X47816290Y-22352617D02*
X47816290Y-22428807D01*
X52273433Y-25423855D02*
X52540100Y-25042902D01*
X52730576Y-25423855D02*
X52730576Y-24623855D01*
X52730576Y-24623855D02*
X52425814Y-24623855D01*
X52425814Y-24623855D02*
X52349624Y-24661950D01*
X52349624Y-24661950D02*
X52311529Y-24700045D01*
X52311529Y-24700045D02*
X52273433Y-24776236D01*
X52273433Y-24776236D02*
X52273433Y-24890521D01*
X52273433Y-24890521D02*
X52311529Y-24966712D01*
X52311529Y-24966712D02*
X52349624Y-25004807D01*
X52349624Y-25004807D02*
X52425814Y-25042902D01*
X52425814Y-25042902D02*
X52730576Y-25042902D01*
X51930576Y-25004807D02*
X51663910Y-25004807D01*
X51549624Y-25423855D02*
X51930576Y-25423855D01*
X51930576Y-25423855D02*
X51930576Y-24623855D01*
X51930576Y-24623855D02*
X51549624Y-24623855D01*
X51244862Y-25195283D02*
X50863909Y-25195283D01*
X51321052Y-25423855D02*
X51054385Y-24623855D01*
X51054385Y-24623855D02*
X50787719Y-25423855D01*
X50521052Y-25423855D02*
X50521052Y-24623855D01*
X50521052Y-24623855D02*
X50330576Y-24623855D01*
X50330576Y-24623855D02*
X50216290Y-24661950D01*
X50216290Y-24661950D02*
X50140100Y-24738140D01*
X50140100Y-24738140D02*
X50102005Y-24814331D01*
X50102005Y-24814331D02*
X50063909Y-24966712D01*
X50063909Y-24966712D02*
X50063909Y-25080998D01*
X50063909Y-25080998D02*
X50102005Y-25233379D01*
X50102005Y-25233379D02*
X50140100Y-25309569D01*
X50140100Y-25309569D02*
X50216290Y-25385760D01*
X50216290Y-25385760D02*
X50330576Y-25423855D01*
X50330576Y-25423855D02*
X50521052Y-25423855D01*
X49111528Y-25423855D02*
X49111528Y-24623855D01*
X49111528Y-24623855D02*
X48844862Y-25195283D01*
X48844862Y-25195283D02*
X48578195Y-24623855D01*
X48578195Y-24623855D02*
X48578195Y-25423855D01*
X48235338Y-25195283D02*
X47854385Y-25195283D01*
X48311528Y-25423855D02*
X48044861Y-24623855D01*
X48044861Y-24623855D02*
X47778195Y-25423855D01*
X47511528Y-25423855D02*
X47511528Y-24623855D01*
X47511528Y-24623855D02*
X47054385Y-25423855D01*
X47054385Y-25423855D02*
X47054385Y-24623855D01*
X46673433Y-24623855D02*
X46673433Y-25271474D01*
X46673433Y-25271474D02*
X46635338Y-25347664D01*
X46635338Y-25347664D02*
X46597243Y-25385760D01*
X46597243Y-25385760D02*
X46521052Y-25423855D01*
X46521052Y-25423855D02*
X46368671Y-25423855D01*
X46368671Y-25423855D02*
X46292481Y-25385760D01*
X46292481Y-25385760D02*
X46254386Y-25347664D01*
X46254386Y-25347664D02*
X46216290Y-25271474D01*
X46216290Y-25271474D02*
X46216290Y-24623855D01*
X45873434Y-25195283D02*
X45492481Y-25195283D01*
X45949624Y-25423855D02*
X45682957Y-24623855D01*
X45682957Y-24623855D02*
X45416291Y-25423855D01*
X44768672Y-25423855D02*
X45149624Y-25423855D01*
X45149624Y-25423855D02*
X45149624Y-24623855D01*
X43625815Y-25004807D02*
X43511529Y-25042902D01*
X43511529Y-25042902D02*
X43473434Y-25080998D01*
X43473434Y-25080998D02*
X43435338Y-25157188D01*
X43435338Y-25157188D02*
X43435338Y-25271474D01*
X43435338Y-25271474D02*
X43473434Y-25347664D01*
X43473434Y-25347664D02*
X43511529Y-25385760D01*
X43511529Y-25385760D02*
X43587719Y-25423855D01*
X43587719Y-25423855D02*
X43892481Y-25423855D01*
X43892481Y-25423855D02*
X43892481Y-24623855D01*
X43892481Y-24623855D02*
X43625815Y-24623855D01*
X43625815Y-24623855D02*
X43549624Y-24661950D01*
X43549624Y-24661950D02*
X43511529Y-24700045D01*
X43511529Y-24700045D02*
X43473434Y-24776236D01*
X43473434Y-24776236D02*
X43473434Y-24852426D01*
X43473434Y-24852426D02*
X43511529Y-24928617D01*
X43511529Y-24928617D02*
X43549624Y-24966712D01*
X43549624Y-24966712D02*
X43625815Y-25004807D01*
X43625815Y-25004807D02*
X43892481Y-25004807D01*
X43092481Y-25004807D02*
X42825815Y-25004807D01*
X42711529Y-25423855D02*
X43092481Y-25423855D01*
X43092481Y-25423855D02*
X43092481Y-24623855D01*
X43092481Y-24623855D02*
X42711529Y-24623855D01*
X42102005Y-25004807D02*
X42368671Y-25004807D01*
X42368671Y-25423855D02*
X42368671Y-24623855D01*
X42368671Y-24623855D02*
X41987719Y-24623855D01*
X41530576Y-24623855D02*
X41378195Y-24623855D01*
X41378195Y-24623855D02*
X41302005Y-24661950D01*
X41302005Y-24661950D02*
X41225814Y-24738140D01*
X41225814Y-24738140D02*
X41187719Y-24890521D01*
X41187719Y-24890521D02*
X41187719Y-25157188D01*
X41187719Y-25157188D02*
X41225814Y-25309569D01*
X41225814Y-25309569D02*
X41302005Y-25385760D01*
X41302005Y-25385760D02*
X41378195Y-25423855D01*
X41378195Y-25423855D02*
X41530576Y-25423855D01*
X41530576Y-25423855D02*
X41606767Y-25385760D01*
X41606767Y-25385760D02*
X41682957Y-25309569D01*
X41682957Y-25309569D02*
X41721053Y-25157188D01*
X41721053Y-25157188D02*
X41721053Y-24890521D01*
X41721053Y-24890521D02*
X41682957Y-24738140D01*
X41682957Y-24738140D02*
X41606767Y-24661950D01*
X41606767Y-24661950D02*
X41530576Y-24623855D01*
X40387719Y-25423855D02*
X40654386Y-25042902D01*
X40844862Y-25423855D02*
X40844862Y-24623855D01*
X40844862Y-24623855D02*
X40540100Y-24623855D01*
X40540100Y-24623855D02*
X40463910Y-24661950D01*
X40463910Y-24661950D02*
X40425815Y-24700045D01*
X40425815Y-24700045D02*
X40387719Y-24776236D01*
X40387719Y-24776236D02*
X40387719Y-24890521D01*
X40387719Y-24890521D02*
X40425815Y-24966712D01*
X40425815Y-24966712D02*
X40463910Y-25004807D01*
X40463910Y-25004807D02*
X40540100Y-25042902D01*
X40540100Y-25042902D02*
X40844862Y-25042902D01*
X40044862Y-25004807D02*
X39778196Y-25004807D01*
X39663910Y-25423855D02*
X40044862Y-25423855D01*
X40044862Y-25423855D02*
X40044862Y-24623855D01*
X40044862Y-24623855D02*
X39663910Y-24623855D01*
X38711528Y-24623855D02*
X38711528Y-25271474D01*
X38711528Y-25271474D02*
X38673433Y-25347664D01*
X38673433Y-25347664D02*
X38635338Y-25385760D01*
X38635338Y-25385760D02*
X38559147Y-25423855D01*
X38559147Y-25423855D02*
X38406766Y-25423855D01*
X38406766Y-25423855D02*
X38330576Y-25385760D01*
X38330576Y-25385760D02*
X38292481Y-25347664D01*
X38292481Y-25347664D02*
X38254385Y-25271474D01*
X38254385Y-25271474D02*
X38254385Y-24623855D01*
X37911529Y-25385760D02*
X37797243Y-25423855D01*
X37797243Y-25423855D02*
X37606767Y-25423855D01*
X37606767Y-25423855D02*
X37530576Y-25385760D01*
X37530576Y-25385760D02*
X37492481Y-25347664D01*
X37492481Y-25347664D02*
X37454386Y-25271474D01*
X37454386Y-25271474D02*
X37454386Y-25195283D01*
X37454386Y-25195283D02*
X37492481Y-25119093D01*
X37492481Y-25119093D02*
X37530576Y-25080998D01*
X37530576Y-25080998D02*
X37606767Y-25042902D01*
X37606767Y-25042902D02*
X37759148Y-25004807D01*
X37759148Y-25004807D02*
X37835338Y-24966712D01*
X37835338Y-24966712D02*
X37873433Y-24928617D01*
X37873433Y-24928617D02*
X37911529Y-24852426D01*
X37911529Y-24852426D02*
X37911529Y-24776236D01*
X37911529Y-24776236D02*
X37873433Y-24700045D01*
X37873433Y-24700045D02*
X37835338Y-24661950D01*
X37835338Y-24661950D02*
X37759148Y-24623855D01*
X37759148Y-24623855D02*
X37568671Y-24623855D01*
X37568671Y-24623855D02*
X37454386Y-24661950D01*
X37111528Y-25423855D02*
X37111528Y-24623855D01*
X36730576Y-25423855D02*
X36730576Y-24623855D01*
X36730576Y-24623855D02*
X36273433Y-25423855D01*
X36273433Y-25423855D02*
X36273433Y-24623855D01*
X35473434Y-24661950D02*
X35549624Y-24623855D01*
X35549624Y-24623855D02*
X35663910Y-24623855D01*
X35663910Y-24623855D02*
X35778196Y-24661950D01*
X35778196Y-24661950D02*
X35854386Y-24738140D01*
X35854386Y-24738140D02*
X35892481Y-24814331D01*
X35892481Y-24814331D02*
X35930577Y-24966712D01*
X35930577Y-24966712D02*
X35930577Y-25080998D01*
X35930577Y-25080998D02*
X35892481Y-25233379D01*
X35892481Y-25233379D02*
X35854386Y-25309569D01*
X35854386Y-25309569D02*
X35778196Y-25385760D01*
X35778196Y-25385760D02*
X35663910Y-25423855D01*
X35663910Y-25423855D02*
X35587719Y-25423855D01*
X35587719Y-25423855D02*
X35473434Y-25385760D01*
X35473434Y-25385760D02*
X35435338Y-25347664D01*
X35435338Y-25347664D02*
X35435338Y-25080998D01*
X35435338Y-25080998D02*
X35587719Y-25080998D01*
X52730576Y-26711855D02*
X52730576Y-25911855D01*
X52730576Y-25911855D02*
X52540100Y-25911855D01*
X52540100Y-25911855D02*
X52425814Y-25949950D01*
X52425814Y-25949950D02*
X52349624Y-26026140D01*
X52349624Y-26026140D02*
X52311529Y-26102331D01*
X52311529Y-26102331D02*
X52273433Y-26254712D01*
X52273433Y-26254712D02*
X52273433Y-26368998D01*
X52273433Y-26368998D02*
X52311529Y-26521379D01*
X52311529Y-26521379D02*
X52349624Y-26597569D01*
X52349624Y-26597569D02*
X52425814Y-26673760D01*
X52425814Y-26673760D02*
X52540100Y-26711855D01*
X52540100Y-26711855D02*
X52730576Y-26711855D01*
X51778195Y-25911855D02*
X51625814Y-25911855D01*
X51625814Y-25911855D02*
X51549624Y-25949950D01*
X51549624Y-25949950D02*
X51473433Y-26026140D01*
X51473433Y-26026140D02*
X51435338Y-26178521D01*
X51435338Y-26178521D02*
X51435338Y-26445188D01*
X51435338Y-26445188D02*
X51473433Y-26597569D01*
X51473433Y-26597569D02*
X51549624Y-26673760D01*
X51549624Y-26673760D02*
X51625814Y-26711855D01*
X51625814Y-26711855D02*
X51778195Y-26711855D01*
X51778195Y-26711855D02*
X51854386Y-26673760D01*
X51854386Y-26673760D02*
X51930576Y-26597569D01*
X51930576Y-26597569D02*
X51968672Y-26445188D01*
X51968672Y-26445188D02*
X51968672Y-26178521D01*
X51968672Y-26178521D02*
X51930576Y-26026140D01*
X51930576Y-26026140D02*
X51854386Y-25949950D01*
X51854386Y-25949950D02*
X51778195Y-25911855D01*
X50482957Y-26711855D02*
X50482957Y-25911855D01*
X50482957Y-25911855D02*
X50025814Y-26711855D01*
X50025814Y-26711855D02*
X50025814Y-25911855D01*
X49492481Y-25911855D02*
X49340100Y-25911855D01*
X49340100Y-25911855D02*
X49263910Y-25949950D01*
X49263910Y-25949950D02*
X49187719Y-26026140D01*
X49187719Y-26026140D02*
X49149624Y-26178521D01*
X49149624Y-26178521D02*
X49149624Y-26445188D01*
X49149624Y-26445188D02*
X49187719Y-26597569D01*
X49187719Y-26597569D02*
X49263910Y-26673760D01*
X49263910Y-26673760D02*
X49340100Y-26711855D01*
X49340100Y-26711855D02*
X49492481Y-26711855D01*
X49492481Y-26711855D02*
X49568672Y-26673760D01*
X49568672Y-26673760D02*
X49644862Y-26597569D01*
X49644862Y-26597569D02*
X49682958Y-26445188D01*
X49682958Y-26445188D02*
X49682958Y-26178521D01*
X49682958Y-26178521D02*
X49644862Y-26026140D01*
X49644862Y-26026140D02*
X49568672Y-25949950D01*
X49568672Y-25949950D02*
X49492481Y-25911855D01*
X48921053Y-25911855D02*
X48463910Y-25911855D01*
X48692482Y-26711855D02*
X48692482Y-25911855D01*
X47625815Y-26673760D02*
X47511529Y-26711855D01*
X47511529Y-26711855D02*
X47321053Y-26711855D01*
X47321053Y-26711855D02*
X47244862Y-26673760D01*
X47244862Y-26673760D02*
X47206767Y-26635664D01*
X47206767Y-26635664D02*
X47168672Y-26559474D01*
X47168672Y-26559474D02*
X47168672Y-26483283D01*
X47168672Y-26483283D02*
X47206767Y-26407093D01*
X47206767Y-26407093D02*
X47244862Y-26368998D01*
X47244862Y-26368998D02*
X47321053Y-26330902D01*
X47321053Y-26330902D02*
X47473434Y-26292807D01*
X47473434Y-26292807D02*
X47549624Y-26254712D01*
X47549624Y-26254712D02*
X47587719Y-26216617D01*
X47587719Y-26216617D02*
X47625815Y-26140426D01*
X47625815Y-26140426D02*
X47625815Y-26064236D01*
X47625815Y-26064236D02*
X47587719Y-25988045D01*
X47587719Y-25988045D02*
X47549624Y-25949950D01*
X47549624Y-25949950D02*
X47473434Y-25911855D01*
X47473434Y-25911855D02*
X47282957Y-25911855D01*
X47282957Y-25911855D02*
X47168672Y-25949950D01*
X46825814Y-26711855D02*
X46825814Y-25911855D01*
X46825814Y-26292807D02*
X46368671Y-26292807D01*
X46368671Y-26711855D02*
X46368671Y-25911855D01*
X45835338Y-25911855D02*
X45682957Y-25911855D01*
X45682957Y-25911855D02*
X45606767Y-25949950D01*
X45606767Y-25949950D02*
X45530576Y-26026140D01*
X45530576Y-26026140D02*
X45492481Y-26178521D01*
X45492481Y-26178521D02*
X45492481Y-26445188D01*
X45492481Y-26445188D02*
X45530576Y-26597569D01*
X45530576Y-26597569D02*
X45606767Y-26673760D01*
X45606767Y-26673760D02*
X45682957Y-26711855D01*
X45682957Y-26711855D02*
X45835338Y-26711855D01*
X45835338Y-26711855D02*
X45911529Y-26673760D01*
X45911529Y-26673760D02*
X45987719Y-26597569D01*
X45987719Y-26597569D02*
X46025815Y-26445188D01*
X46025815Y-26445188D02*
X46025815Y-26178521D01*
X46025815Y-26178521D02*
X45987719Y-26026140D01*
X45987719Y-26026140D02*
X45911529Y-25949950D01*
X45911529Y-25949950D02*
X45835338Y-25911855D01*
X44692481Y-26711855D02*
X44959148Y-26330902D01*
X45149624Y-26711855D02*
X45149624Y-25911855D01*
X45149624Y-25911855D02*
X44844862Y-25911855D01*
X44844862Y-25911855D02*
X44768672Y-25949950D01*
X44768672Y-25949950D02*
X44730577Y-25988045D01*
X44730577Y-25988045D02*
X44692481Y-26064236D01*
X44692481Y-26064236D02*
X44692481Y-26178521D01*
X44692481Y-26178521D02*
X44730577Y-26254712D01*
X44730577Y-26254712D02*
X44768672Y-26292807D01*
X44768672Y-26292807D02*
X44844862Y-26330902D01*
X44844862Y-26330902D02*
X45149624Y-26330902D01*
X44463910Y-25911855D02*
X44006767Y-25911855D01*
X44235339Y-26711855D02*
X44235339Y-25911855D01*
X42673433Y-26635664D02*
X42711529Y-26673760D01*
X42711529Y-26673760D02*
X42825814Y-26711855D01*
X42825814Y-26711855D02*
X42902005Y-26711855D01*
X42902005Y-26711855D02*
X43016291Y-26673760D01*
X43016291Y-26673760D02*
X43092481Y-26597569D01*
X43092481Y-26597569D02*
X43130576Y-26521379D01*
X43130576Y-26521379D02*
X43168672Y-26368998D01*
X43168672Y-26368998D02*
X43168672Y-26254712D01*
X43168672Y-26254712D02*
X43130576Y-26102331D01*
X43130576Y-26102331D02*
X43092481Y-26026140D01*
X43092481Y-26026140D02*
X43016291Y-25949950D01*
X43016291Y-25949950D02*
X42902005Y-25911855D01*
X42902005Y-25911855D02*
X42825814Y-25911855D01*
X42825814Y-25911855D02*
X42711529Y-25949950D01*
X42711529Y-25949950D02*
X42673433Y-25988045D01*
X42330576Y-26711855D02*
X42330576Y-25911855D01*
X41492481Y-26711855D02*
X41759148Y-26330902D01*
X41949624Y-26711855D02*
X41949624Y-25911855D01*
X41949624Y-25911855D02*
X41644862Y-25911855D01*
X41644862Y-25911855D02*
X41568672Y-25949950D01*
X41568672Y-25949950D02*
X41530577Y-25988045D01*
X41530577Y-25988045D02*
X41492481Y-26064236D01*
X41492481Y-26064236D02*
X41492481Y-26178521D01*
X41492481Y-26178521D02*
X41530577Y-26254712D01*
X41530577Y-26254712D02*
X41568672Y-26292807D01*
X41568672Y-26292807D02*
X41644862Y-26330902D01*
X41644862Y-26330902D02*
X41949624Y-26330902D01*
X40692481Y-26635664D02*
X40730577Y-26673760D01*
X40730577Y-26673760D02*
X40844862Y-26711855D01*
X40844862Y-26711855D02*
X40921053Y-26711855D01*
X40921053Y-26711855D02*
X41035339Y-26673760D01*
X41035339Y-26673760D02*
X41111529Y-26597569D01*
X41111529Y-26597569D02*
X41149624Y-26521379D01*
X41149624Y-26521379D02*
X41187720Y-26368998D01*
X41187720Y-26368998D02*
X41187720Y-26254712D01*
X41187720Y-26254712D02*
X41149624Y-26102331D01*
X41149624Y-26102331D02*
X41111529Y-26026140D01*
X41111529Y-26026140D02*
X41035339Y-25949950D01*
X41035339Y-25949950D02*
X40921053Y-25911855D01*
X40921053Y-25911855D02*
X40844862Y-25911855D01*
X40844862Y-25911855D02*
X40730577Y-25949950D01*
X40730577Y-25949950D02*
X40692481Y-25988045D01*
X40349624Y-25911855D02*
X40349624Y-26559474D01*
X40349624Y-26559474D02*
X40311529Y-26635664D01*
X40311529Y-26635664D02*
X40273434Y-26673760D01*
X40273434Y-26673760D02*
X40197243Y-26711855D01*
X40197243Y-26711855D02*
X40044862Y-26711855D01*
X40044862Y-26711855D02*
X39968672Y-26673760D01*
X39968672Y-26673760D02*
X39930577Y-26635664D01*
X39930577Y-26635664D02*
X39892481Y-26559474D01*
X39892481Y-26559474D02*
X39892481Y-25911855D01*
X39511529Y-26711855D02*
X39511529Y-25911855D01*
X39244863Y-25911855D02*
X38787720Y-25911855D01*
X39016292Y-26711855D02*
X39016292Y-25911855D01*
X52730576Y-27999855D02*
X52730576Y-27199855D01*
X52730576Y-27199855D02*
X52540100Y-27199855D01*
X52540100Y-27199855D02*
X52425814Y-27237950D01*
X52425814Y-27237950D02*
X52349624Y-27314140D01*
X52349624Y-27314140D02*
X52311529Y-27390331D01*
X52311529Y-27390331D02*
X52273433Y-27542712D01*
X52273433Y-27542712D02*
X52273433Y-27656998D01*
X52273433Y-27656998D02*
X52311529Y-27809379D01*
X52311529Y-27809379D02*
X52349624Y-27885569D01*
X52349624Y-27885569D02*
X52425814Y-27961760D01*
X52425814Y-27961760D02*
X52540100Y-27999855D01*
X52540100Y-27999855D02*
X52730576Y-27999855D01*
X51778195Y-27199855D02*
X51625814Y-27199855D01*
X51625814Y-27199855D02*
X51549624Y-27237950D01*
X51549624Y-27237950D02*
X51473433Y-27314140D01*
X51473433Y-27314140D02*
X51435338Y-27466521D01*
X51435338Y-27466521D02*
X51435338Y-27733188D01*
X51435338Y-27733188D02*
X51473433Y-27885569D01*
X51473433Y-27885569D02*
X51549624Y-27961760D01*
X51549624Y-27961760D02*
X51625814Y-27999855D01*
X51625814Y-27999855D02*
X51778195Y-27999855D01*
X51778195Y-27999855D02*
X51854386Y-27961760D01*
X51854386Y-27961760D02*
X51930576Y-27885569D01*
X51930576Y-27885569D02*
X51968672Y-27733188D01*
X51968672Y-27733188D02*
X51968672Y-27466521D01*
X51968672Y-27466521D02*
X51930576Y-27314140D01*
X51930576Y-27314140D02*
X51854386Y-27237950D01*
X51854386Y-27237950D02*
X51778195Y-27199855D01*
X50482957Y-27999855D02*
X50482957Y-27199855D01*
X50482957Y-27199855D02*
X50025814Y-27999855D01*
X50025814Y-27999855D02*
X50025814Y-27199855D01*
X49492481Y-27199855D02*
X49340100Y-27199855D01*
X49340100Y-27199855D02*
X49263910Y-27237950D01*
X49263910Y-27237950D02*
X49187719Y-27314140D01*
X49187719Y-27314140D02*
X49149624Y-27466521D01*
X49149624Y-27466521D02*
X49149624Y-27733188D01*
X49149624Y-27733188D02*
X49187719Y-27885569D01*
X49187719Y-27885569D02*
X49263910Y-27961760D01*
X49263910Y-27961760D02*
X49340100Y-27999855D01*
X49340100Y-27999855D02*
X49492481Y-27999855D01*
X49492481Y-27999855D02*
X49568672Y-27961760D01*
X49568672Y-27961760D02*
X49644862Y-27885569D01*
X49644862Y-27885569D02*
X49682958Y-27733188D01*
X49682958Y-27733188D02*
X49682958Y-27466521D01*
X49682958Y-27466521D02*
X49644862Y-27314140D01*
X49644862Y-27314140D02*
X49568672Y-27237950D01*
X49568672Y-27237950D02*
X49492481Y-27199855D01*
X48921053Y-27199855D02*
X48463910Y-27199855D01*
X48692482Y-27999855D02*
X48692482Y-27199855D01*
X47321053Y-27580807D02*
X47206767Y-27618902D01*
X47206767Y-27618902D02*
X47168672Y-27656998D01*
X47168672Y-27656998D02*
X47130576Y-27733188D01*
X47130576Y-27733188D02*
X47130576Y-27847474D01*
X47130576Y-27847474D02*
X47168672Y-27923664D01*
X47168672Y-27923664D02*
X47206767Y-27961760D01*
X47206767Y-27961760D02*
X47282957Y-27999855D01*
X47282957Y-27999855D02*
X47587719Y-27999855D01*
X47587719Y-27999855D02*
X47587719Y-27199855D01*
X47587719Y-27199855D02*
X47321053Y-27199855D01*
X47321053Y-27199855D02*
X47244862Y-27237950D01*
X47244862Y-27237950D02*
X47206767Y-27276045D01*
X47206767Y-27276045D02*
X47168672Y-27352236D01*
X47168672Y-27352236D02*
X47168672Y-27428426D01*
X47168672Y-27428426D02*
X47206767Y-27504617D01*
X47206767Y-27504617D02*
X47244862Y-27542712D01*
X47244862Y-27542712D02*
X47321053Y-27580807D01*
X47321053Y-27580807D02*
X47587719Y-27580807D01*
X46787719Y-27199855D02*
X46787719Y-27847474D01*
X46787719Y-27847474D02*
X46749624Y-27923664D01*
X46749624Y-27923664D02*
X46711529Y-27961760D01*
X46711529Y-27961760D02*
X46635338Y-27999855D01*
X46635338Y-27999855D02*
X46482957Y-27999855D01*
X46482957Y-27999855D02*
X46406767Y-27961760D01*
X46406767Y-27961760D02*
X46368672Y-27923664D01*
X46368672Y-27923664D02*
X46330576Y-27847474D01*
X46330576Y-27847474D02*
X46330576Y-27199855D01*
X45492481Y-27999855D02*
X45759148Y-27618902D01*
X45949624Y-27999855D02*
X45949624Y-27199855D01*
X45949624Y-27199855D02*
X45644862Y-27199855D01*
X45644862Y-27199855D02*
X45568672Y-27237950D01*
X45568672Y-27237950D02*
X45530577Y-27276045D01*
X45530577Y-27276045D02*
X45492481Y-27352236D01*
X45492481Y-27352236D02*
X45492481Y-27466521D01*
X45492481Y-27466521D02*
X45530577Y-27542712D01*
X45530577Y-27542712D02*
X45568672Y-27580807D01*
X45568672Y-27580807D02*
X45644862Y-27618902D01*
X45644862Y-27618902D02*
X45949624Y-27618902D01*
X45149624Y-27999855D02*
X45149624Y-27199855D01*
X45149624Y-27199855D02*
X44692481Y-27999855D01*
X44692481Y-27999855D02*
X44692481Y-27199855D01*
D13*
X9404761Y-29856333D02*
X5595238Y-29856333D01*
X7499999Y-31761095D02*
X7499999Y-27951571D01*
%TO.C,REF\u002A\u002A*%
D14*
X51772971Y-40517822D02*
X48252178Y-40517822D01*
X48252178Y-39650198D01*
X51772971Y-39650198D01*
X51772971Y-40517822D01*
G36*
X51772971Y-40517822D02*
G01*
X48252178Y-40517822D01*
X48252178Y-39650198D01*
X51772971Y-39650198D01*
X51772971Y-40517822D01*
G37*
X50741894Y-34975718D02*
X50742388Y-34988668D01*
X50748819Y-35010411D01*
X50767123Y-35028851D01*
X50802830Y-35050801D01*
X50834174Y-35070854D01*
X50881893Y-35109356D01*
X50925138Y-35152579D01*
X50958219Y-35194627D01*
X50975442Y-35229604D01*
X50979662Y-35243081D01*
X50987480Y-35252334D01*
X50990116Y-35255454D01*
X51011662Y-35260696D01*
X51051314Y-35261782D01*
X51119109Y-35261782D01*
X51119109Y-35374951D01*
X50959577Y-35374951D01*
X50944682Y-35552732D01*
X50942682Y-35577037D01*
X50938023Y-35637880D01*
X50934731Y-35687389D01*
X50933092Y-35720992D01*
X50933390Y-35734116D01*
X50937724Y-35730343D01*
X50957496Y-35710676D01*
X50991679Y-35675818D01*
X51038541Y-35627576D01*
X51096354Y-35567757D01*
X51163387Y-35498167D01*
X51237912Y-35420615D01*
X51318197Y-35336907D01*
X51402513Y-35248849D01*
X51489130Y-35158250D01*
X51576319Y-35066915D01*
X51662349Y-34976653D01*
X51745492Y-34889269D01*
X51824016Y-34806572D01*
X51896192Y-34730368D01*
X51960291Y-34662463D01*
X52014583Y-34604666D01*
X52111592Y-34501040D01*
X52112034Y-34589315D01*
X52112475Y-34677589D01*
X51511938Y-35309158D01*
X50911401Y-35940726D01*
X50899396Y-36084674D01*
X50851365Y-36660635D01*
X50842876Y-36762791D01*
X50832343Y-36890612D01*
X50822621Y-37009767D01*
X50813898Y-37117914D01*
X50806358Y-37212713D01*
X50800187Y-37291819D01*
X50795573Y-37352892D01*
X50792700Y-37393590D01*
X50791754Y-37411570D01*
X50794251Y-37419808D01*
X50805471Y-37437599D01*
X50826751Y-37464411D01*
X50837021Y-37476129D01*
X50859225Y-37501466D01*
X50904023Y-37549986D01*
X50962281Y-37611192D01*
X51035129Y-37686307D01*
X51123703Y-37776550D01*
X51229134Y-37883145D01*
X51298492Y-37953093D01*
X51395179Y-38050658D01*
X51491526Y-38147941D01*
X51584638Y-38242014D01*
X51671618Y-38329950D01*
X51749569Y-38408820D01*
X51815596Y-38475699D01*
X51866802Y-38527658D01*
X52067514Y-38731620D01*
X52031058Y-38769671D01*
X52022460Y-38778245D01*
X51997095Y-38799297D01*
X51979695Y-38807723D01*
X51966071Y-38800530D01*
X51940743Y-38778944D01*
X51910379Y-38747995D01*
X51891896Y-38728448D01*
X51857427Y-38692752D01*
X51808712Y-38642684D01*
X51747469Y-38580001D01*
X51675420Y-38506457D01*
X51594285Y-38423810D01*
X51505784Y-38333815D01*
X51411637Y-38238228D01*
X51313565Y-38138805D01*
X50771161Y-37589343D01*
X50749066Y-37874746D01*
X50744250Y-37935662D01*
X50737216Y-38017548D01*
X50730872Y-38079569D01*
X50724748Y-38124987D01*
X50718373Y-38157062D01*
X50711277Y-38179052D01*
X50702991Y-38194219D01*
X50691393Y-38215416D01*
X50681850Y-38254386D01*
X50679010Y-38310531D01*
X50679010Y-38392773D01*
X50452674Y-38392773D01*
X50452674Y-38216733D01*
X49607082Y-38216733D01*
X49558203Y-38272262D01*
X49544836Y-38286722D01*
X49472388Y-38344813D01*
X49390532Y-38380576D01*
X49301900Y-38392773D01*
X49223692Y-38386306D01*
X49135233Y-38359047D01*
X49059507Y-38310328D01*
X49044748Y-38296403D01*
X49007864Y-38251328D01*
X48975503Y-38198819D01*
X48952297Y-38147061D01*
X48942879Y-38104239D01*
X48942697Y-38098023D01*
X48941342Y-38075246D01*
X48937800Y-38059513D01*
X48930390Y-38052068D01*
X48917431Y-38054156D01*
X48897243Y-38067020D01*
X48868145Y-38091905D01*
X48828456Y-38130053D01*
X48776496Y-38182710D01*
X48710584Y-38251119D01*
X48629040Y-38336524D01*
X48585604Y-38382112D01*
X48513000Y-38458441D01*
X48444309Y-38530808D01*
X48382223Y-38596366D01*
X48329434Y-38652274D01*
X48288634Y-38695686D01*
X48262515Y-38723758D01*
X48191119Y-38801436D01*
X48102863Y-38713416D01*
X48648690Y-38141287D01*
X48683105Y-38105188D01*
X48805546Y-37976272D01*
X48910651Y-37864754D01*
X48998736Y-37770288D01*
X49070116Y-37692529D01*
X49120588Y-37636174D01*
X49327247Y-37636174D01*
X49328872Y-37649434D01*
X49329156Y-37650819D01*
X49342698Y-37682228D01*
X49369748Y-37696863D01*
X49453129Y-37728063D01*
X49527418Y-37780038D01*
X49585846Y-37848791D01*
X49625890Y-37931315D01*
X49645026Y-38024606D01*
X49651364Y-38103565D01*
X50600838Y-38103565D01*
X50607458Y-38075273D01*
X50608629Y-38068329D01*
X50612268Y-38037281D01*
X50617234Y-37987081D01*
X50623157Y-37921727D01*
X50629669Y-37845219D01*
X50636401Y-37761555D01*
X50658724Y-37476129D01*
X50357826Y-37170565D01*
X50302636Y-37114704D01*
X50235109Y-37046888D01*
X50174529Y-36986643D01*
X50123021Y-36936052D01*
X50082710Y-36897200D01*
X50055722Y-36872170D01*
X50044182Y-36863046D01*
X50036444Y-36867405D01*
X50013395Y-36887241D01*
X49978709Y-36920375D01*
X49935487Y-36963820D01*
X49886832Y-37014587D01*
X49874140Y-37028051D01*
X49817229Y-37088275D01*
X49749414Y-37159864D01*
X49675800Y-37237437D01*
X49601493Y-37315611D01*
X49531599Y-37389005D01*
X49527401Y-37393409D01*
X49462420Y-37461785D01*
X49412836Y-37514732D01*
X49376688Y-37554767D01*
X49352016Y-37584411D01*
X49336858Y-37606181D01*
X49329256Y-37622595D01*
X49327247Y-37636174D01*
X49120588Y-37636174D01*
X49125105Y-37631131D01*
X49164019Y-37585748D01*
X49187173Y-37556035D01*
X49194882Y-37541644D01*
X49194883Y-37541559D01*
X49193825Y-37523624D01*
X49190737Y-37483421D01*
X49185858Y-37423687D01*
X49179432Y-37347158D01*
X49171700Y-37256569D01*
X49162905Y-37154657D01*
X49153287Y-37044159D01*
X49143091Y-36927811D01*
X49132556Y-36808348D01*
X49121926Y-36688507D01*
X49111442Y-36571025D01*
X49101346Y-36458637D01*
X49091881Y-36354081D01*
X49083288Y-36260091D01*
X49075809Y-36179405D01*
X49069687Y-36114759D01*
X49065162Y-36068888D01*
X49062478Y-36044530D01*
X49057067Y-36003732D01*
X49186253Y-36003732D01*
X49187908Y-36034653D01*
X49191549Y-36086653D01*
X49196995Y-36157487D01*
X49204063Y-36244911D01*
X49212570Y-36346681D01*
X49222335Y-36460552D01*
X49233174Y-36584279D01*
X49244907Y-36715618D01*
X49254079Y-36816908D01*
X49265566Y-36942526D01*
X49276322Y-37058762D01*
X49286131Y-37163380D01*
X49294781Y-37254140D01*
X49302057Y-37328804D01*
X49307746Y-37385134D01*
X49311634Y-37420891D01*
X49313506Y-37433837D01*
X49319188Y-37429826D01*
X49340020Y-37410138D01*
X49373872Y-37376322D01*
X49418412Y-37330837D01*
X49471310Y-37276146D01*
X49530236Y-37214710D01*
X49592858Y-37148990D01*
X49656848Y-37081449D01*
X49719874Y-37014547D01*
X49779606Y-36950746D01*
X49833713Y-36892507D01*
X49879865Y-36842292D01*
X49915733Y-36802563D01*
X49938984Y-36775780D01*
X49945778Y-36766477D01*
X50127601Y-36766477D01*
X50403305Y-37041968D01*
X50470726Y-37109224D01*
X50534267Y-37172162D01*
X50583490Y-37220100D01*
X50620196Y-37254594D01*
X50646190Y-37277199D01*
X50663276Y-37289471D01*
X50673256Y-37292966D01*
X50677935Y-37289238D01*
X50679116Y-37279844D01*
X50679873Y-37264749D01*
X50682601Y-37225883D01*
X50687108Y-37166895D01*
X50693179Y-37090473D01*
X50700596Y-36999305D01*
X50709142Y-36896080D01*
X50718602Y-36783483D01*
X50728758Y-36664205D01*
X50737723Y-36559077D01*
X50747066Y-36448351D01*
X50755443Y-36347814D01*
X50762653Y-36259943D01*
X50768496Y-36187215D01*
X50772769Y-36132110D01*
X50775273Y-36097104D01*
X50775805Y-36084674D01*
X50775384Y-36084908D01*
X50763509Y-36096350D01*
X50737130Y-36123198D01*
X50698570Y-36163018D01*
X50650153Y-36213372D01*
X50594203Y-36271828D01*
X50533042Y-36335948D01*
X50468995Y-36403298D01*
X50404385Y-36471443D01*
X50341535Y-36537948D01*
X50282768Y-36600377D01*
X50230409Y-36656295D01*
X50129533Y-36764406D01*
X50127601Y-36766477D01*
X49945778Y-36766477D01*
X49947290Y-36764406D01*
X49939148Y-36753383D01*
X49915478Y-36726999D01*
X49878478Y-36687527D01*
X49830350Y-36637191D01*
X49773296Y-36578217D01*
X49709520Y-36512830D01*
X49641222Y-36443255D01*
X49570605Y-36371716D01*
X49499871Y-36300438D01*
X49431222Y-36231647D01*
X49366861Y-36167566D01*
X49308989Y-36110422D01*
X49259810Y-36062439D01*
X49221524Y-36025841D01*
X49196334Y-36002854D01*
X49186442Y-35995703D01*
X49186253Y-36003732D01*
X49057067Y-36003732D01*
X49055390Y-35991089D01*
X48780297Y-35991089D01*
X48780140Y-35890495D01*
X48880891Y-35890495D01*
X48962624Y-35890495D01*
X48969895Y-35890489D01*
X49010950Y-35889613D01*
X49033277Y-35885867D01*
X49042529Y-35877270D01*
X49044357Y-35861840D01*
X49036306Y-35839159D01*
X49008730Y-35801428D01*
X48962624Y-35752179D01*
X48880891Y-35671172D01*
X48880891Y-35890495D01*
X48780140Y-35890495D01*
X48779968Y-35780471D01*
X48779639Y-35569852D01*
X48327914Y-35110891D01*
X47876189Y-34651931D01*
X47875570Y-34564848D01*
X47874951Y-34477767D01*
X48416769Y-35026952D01*
X48469137Y-35079998D01*
X48577803Y-35189772D01*
X48670709Y-35283114D01*
X48749055Y-35361173D01*
X48814043Y-35425097D01*
X48866872Y-35476035D01*
X48908743Y-35515135D01*
X48940855Y-35543548D01*
X48964410Y-35562420D01*
X48980608Y-35572901D01*
X48990649Y-35576139D01*
X49007579Y-35575158D01*
X49017084Y-35567996D01*
X49018723Y-35548401D01*
X49014782Y-35510124D01*
X49012065Y-35486025D01*
X49008284Y-35445744D01*
X49006760Y-35418961D01*
X49006015Y-35409728D01*
X48998746Y-35399839D01*
X48978668Y-35396562D01*
X48939689Y-35397992D01*
X48929737Y-35398553D01*
X48889898Y-35397921D01*
X48861560Y-35389167D01*
X48841586Y-35374951D01*
X49124852Y-35374951D01*
X49129013Y-35422104D01*
X49130935Y-35443498D01*
X49136924Y-35501909D01*
X49142826Y-35540381D01*
X49149727Y-35562912D01*
X49158712Y-35573498D01*
X49170870Y-35576139D01*
X49181801Y-35577937D01*
X49189050Y-35586530D01*
X49193100Y-35606505D01*
X49194863Y-35642450D01*
X49195248Y-35698952D01*
X49195248Y-35821766D01*
X49235447Y-35861840D01*
X49333565Y-35959654D01*
X49471881Y-36097542D01*
X49471881Y-35991089D01*
X50226337Y-35991089D01*
X50226337Y-36230000D01*
X49607831Y-36230000D01*
X49817592Y-36446906D01*
X49857770Y-36488334D01*
X49913328Y-36545200D01*
X49961570Y-36594082D01*
X49999971Y-36632441D01*
X50026003Y-36657741D01*
X50037140Y-36667442D01*
X50041373Y-36664767D01*
X50061224Y-36646782D01*
X50095451Y-36613481D01*
X50142227Y-36566712D01*
X50199724Y-36508325D01*
X50266112Y-36440169D01*
X50339564Y-36364094D01*
X50418251Y-36281950D01*
X50497341Y-36198943D01*
X50574871Y-36117136D01*
X50637746Y-36050083D01*
X50687502Y-35996007D01*
X50725678Y-35953129D01*
X50753811Y-35919673D01*
X50773440Y-35893861D01*
X50786101Y-35873914D01*
X50793334Y-35858056D01*
X50796675Y-35844509D01*
X50797561Y-35837910D01*
X50801488Y-35801548D01*
X50806459Y-35748018D01*
X50811927Y-35683421D01*
X50817344Y-35613862D01*
X50819181Y-35589635D01*
X50824488Y-35524178D01*
X50829548Y-35467717D01*
X50833863Y-35425618D01*
X50836934Y-35403243D01*
X50842955Y-35374951D01*
X49124852Y-35374951D01*
X48841586Y-35374951D01*
X48833630Y-35369289D01*
X48828820Y-35365104D01*
X48789482Y-35314427D01*
X48773903Y-35261782D01*
X49114698Y-35261782D01*
X50529221Y-35261782D01*
X50741881Y-35261782D01*
X50798908Y-35261782D01*
X50815993Y-35261662D01*
X50841308Y-35259462D01*
X50848616Y-35252334D01*
X50842943Y-35237508D01*
X50841267Y-35234682D01*
X50822448Y-35212944D01*
X50795183Y-35188820D01*
X50767987Y-35169254D01*
X50749371Y-35161188D01*
X50747697Y-35162463D01*
X50743544Y-35179976D01*
X50741881Y-35211485D01*
X50741881Y-35261782D01*
X50529221Y-35261782D01*
X50525526Y-35171095D01*
X50521832Y-35080407D01*
X50446386Y-35065252D01*
X50408551Y-35058379D01*
X50345368Y-35048756D01*
X50286065Y-35041496D01*
X50201188Y-35032893D01*
X50201188Y-35136040D01*
X49622773Y-35136040D01*
X49622773Y-35045122D01*
X49550471Y-35053753D01*
X49439998Y-35072249D01*
X49328816Y-35105691D01*
X49236850Y-35152324D01*
X49162542Y-35212786D01*
X49114698Y-35261782D01*
X48773903Y-35261782D01*
X48772172Y-35255934D01*
X48777474Y-35194575D01*
X48805975Y-35135297D01*
X48808733Y-35131606D01*
X48846822Y-35099851D01*
X48896476Y-35081067D01*
X48950002Y-35076071D01*
X48999707Y-35085678D01*
X49037900Y-35110704D01*
X49050831Y-35123480D01*
X49063428Y-35126576D01*
X49081467Y-35116998D01*
X49111928Y-35093082D01*
X49121274Y-35085731D01*
X49193430Y-35039339D01*
X49201497Y-35035446D01*
X49723367Y-35035446D01*
X50100594Y-35035446D01*
X50100594Y-34972575D01*
X49723367Y-34972575D01*
X49723367Y-35035446D01*
X49201497Y-35035446D01*
X49278915Y-34998084D01*
X49369767Y-34964936D01*
X49458027Y-34942868D01*
X49535736Y-34934852D01*
X49543991Y-34934788D01*
X49589879Y-34930321D01*
X49615079Y-34917795D01*
X49622773Y-34895784D01*
X49623676Y-34888849D01*
X49628615Y-34882885D01*
X49640611Y-34878519D01*
X49662680Y-34875503D01*
X49697836Y-34873590D01*
X49749094Y-34872530D01*
X49819471Y-34872077D01*
X49911980Y-34871980D01*
X49998660Y-34872150D01*
X50072332Y-34872834D01*
X50126265Y-34874215D01*
X50163288Y-34876470D01*
X50186230Y-34879778D01*
X50197920Y-34884320D01*
X50201188Y-34890272D01*
X50211937Y-34904888D01*
X50242055Y-34914215D01*
X50253582Y-34915847D01*
X50292886Y-34921591D01*
X50345188Y-34929378D01*
X50402376Y-34938003D01*
X50433916Y-34942393D01*
X50480074Y-34947148D01*
X50512641Y-34948295D01*
X50526023Y-34945495D01*
X50528308Y-34943671D01*
X50549405Y-34939165D01*
X50587355Y-34936029D01*
X50636048Y-34934852D01*
X50741881Y-34934852D01*
X50741894Y-34972575D01*
X50741894Y-34975718D01*
G36*
X50741894Y-34975718D02*
G01*
X50742388Y-34988668D01*
X50748819Y-35010411D01*
X50767123Y-35028851D01*
X50802830Y-35050801D01*
X50834174Y-35070854D01*
X50881893Y-35109356D01*
X50925138Y-35152579D01*
X50958219Y-35194627D01*
X50975442Y-35229604D01*
X50979662Y-35243081D01*
X50987480Y-35252334D01*
X50990116Y-35255454D01*
X51011662Y-35260696D01*
X51051314Y-35261782D01*
X51119109Y-35261782D01*
X51119109Y-35374951D01*
X50959577Y-35374951D01*
X50944682Y-35552732D01*
X50942682Y-35577037D01*
X50938023Y-35637880D01*
X50934731Y-35687389D01*
X50933092Y-35720992D01*
X50933390Y-35734116D01*
X50937724Y-35730343D01*
X50957496Y-35710676D01*
X50991679Y-35675818D01*
X51038541Y-35627576D01*
X51096354Y-35567757D01*
X51163387Y-35498167D01*
X51237912Y-35420615D01*
X51318197Y-35336907D01*
X51402513Y-35248849D01*
X51489130Y-35158250D01*
X51576319Y-35066915D01*
X51662349Y-34976653D01*
X51745492Y-34889269D01*
X51824016Y-34806572D01*
X51896192Y-34730368D01*
X51960291Y-34662463D01*
X52014583Y-34604666D01*
X52111592Y-34501040D01*
X52112034Y-34589315D01*
X52112475Y-34677589D01*
X51511938Y-35309158D01*
X50911401Y-35940726D01*
X50899396Y-36084674D01*
X50851365Y-36660635D01*
X50842876Y-36762791D01*
X50832343Y-36890612D01*
X50822621Y-37009767D01*
X50813898Y-37117914D01*
X50806358Y-37212713D01*
X50800187Y-37291819D01*
X50795573Y-37352892D01*
X50792700Y-37393590D01*
X50791754Y-37411570D01*
X50794251Y-37419808D01*
X50805471Y-37437599D01*
X50826751Y-37464411D01*
X50837021Y-37476129D01*
X50859225Y-37501466D01*
X50904023Y-37549986D01*
X50962281Y-37611192D01*
X51035129Y-37686307D01*
X51123703Y-37776550D01*
X51229134Y-37883145D01*
X51298492Y-37953093D01*
X51395179Y-38050658D01*
X51491526Y-38147941D01*
X51584638Y-38242014D01*
X51671618Y-38329950D01*
X51749569Y-38408820D01*
X51815596Y-38475699D01*
X51866802Y-38527658D01*
X52067514Y-38731620D01*
X52031058Y-38769671D01*
X52022460Y-38778245D01*
X51997095Y-38799297D01*
X51979695Y-38807723D01*
X51966071Y-38800530D01*
X51940743Y-38778944D01*
X51910379Y-38747995D01*
X51891896Y-38728448D01*
X51857427Y-38692752D01*
X51808712Y-38642684D01*
X51747469Y-38580001D01*
X51675420Y-38506457D01*
X51594285Y-38423810D01*
X51505784Y-38333815D01*
X51411637Y-38238228D01*
X51313565Y-38138805D01*
X50771161Y-37589343D01*
X50749066Y-37874746D01*
X50744250Y-37935662D01*
X50737216Y-38017548D01*
X50730872Y-38079569D01*
X50724748Y-38124987D01*
X50718373Y-38157062D01*
X50711277Y-38179052D01*
X50702991Y-38194219D01*
X50691393Y-38215416D01*
X50681850Y-38254386D01*
X50679010Y-38310531D01*
X50679010Y-38392773D01*
X50452674Y-38392773D01*
X50452674Y-38216733D01*
X49607082Y-38216733D01*
X49558203Y-38272262D01*
X49544836Y-38286722D01*
X49472388Y-38344813D01*
X49390532Y-38380576D01*
X49301900Y-38392773D01*
X49223692Y-38386306D01*
X49135233Y-38359047D01*
X49059507Y-38310328D01*
X49044748Y-38296403D01*
X49007864Y-38251328D01*
X48975503Y-38198819D01*
X48952297Y-38147061D01*
X48942879Y-38104239D01*
X48942697Y-38098023D01*
X48941342Y-38075246D01*
X48937800Y-38059513D01*
X48930390Y-38052068D01*
X48917431Y-38054156D01*
X48897243Y-38067020D01*
X48868145Y-38091905D01*
X48828456Y-38130053D01*
X48776496Y-38182710D01*
X48710584Y-38251119D01*
X48629040Y-38336524D01*
X48585604Y-38382112D01*
X48513000Y-38458441D01*
X48444309Y-38530808D01*
X48382223Y-38596366D01*
X48329434Y-38652274D01*
X48288634Y-38695686D01*
X48262515Y-38723758D01*
X48191119Y-38801436D01*
X48102863Y-38713416D01*
X48648690Y-38141287D01*
X48683105Y-38105188D01*
X48805546Y-37976272D01*
X48910651Y-37864754D01*
X48998736Y-37770288D01*
X49070116Y-37692529D01*
X49120588Y-37636174D01*
X49327247Y-37636174D01*
X49328872Y-37649434D01*
X49329156Y-37650819D01*
X49342698Y-37682228D01*
X49369748Y-37696863D01*
X49453129Y-37728063D01*
X49527418Y-37780038D01*
X49585846Y-37848791D01*
X49625890Y-37931315D01*
X49645026Y-38024606D01*
X49651364Y-38103565D01*
X50600838Y-38103565D01*
X50607458Y-38075273D01*
X50608629Y-38068329D01*
X50612268Y-38037281D01*
X50617234Y-37987081D01*
X50623157Y-37921727D01*
X50629669Y-37845219D01*
X50636401Y-37761555D01*
X50658724Y-37476129D01*
X50357826Y-37170565D01*
X50302636Y-37114704D01*
X50235109Y-37046888D01*
X50174529Y-36986643D01*
X50123021Y-36936052D01*
X50082710Y-36897200D01*
X50055722Y-36872170D01*
X50044182Y-36863046D01*
X50036444Y-36867405D01*
X50013395Y-36887241D01*
X49978709Y-36920375D01*
X49935487Y-36963820D01*
X49886832Y-37014587D01*
X49874140Y-37028051D01*
X49817229Y-37088275D01*
X49749414Y-37159864D01*
X49675800Y-37237437D01*
X49601493Y-37315611D01*
X49531599Y-37389005D01*
X49527401Y-37393409D01*
X49462420Y-37461785D01*
X49412836Y-37514732D01*
X49376688Y-37554767D01*
X49352016Y-37584411D01*
X49336858Y-37606181D01*
X49329256Y-37622595D01*
X49327247Y-37636174D01*
X49120588Y-37636174D01*
X49125105Y-37631131D01*
X49164019Y-37585748D01*
X49187173Y-37556035D01*
X49194882Y-37541644D01*
X49194883Y-37541559D01*
X49193825Y-37523624D01*
X49190737Y-37483421D01*
X49185858Y-37423687D01*
X49179432Y-37347158D01*
X49171700Y-37256569D01*
X49162905Y-37154657D01*
X49153287Y-37044159D01*
X49143091Y-36927811D01*
X49132556Y-36808348D01*
X49121926Y-36688507D01*
X49111442Y-36571025D01*
X49101346Y-36458637D01*
X49091881Y-36354081D01*
X49083288Y-36260091D01*
X49075809Y-36179405D01*
X49069687Y-36114759D01*
X49065162Y-36068888D01*
X49062478Y-36044530D01*
X49057067Y-36003732D01*
X49186253Y-36003732D01*
X49187908Y-36034653D01*
X49191549Y-36086653D01*
X49196995Y-36157487D01*
X49204063Y-36244911D01*
X49212570Y-36346681D01*
X49222335Y-36460552D01*
X49233174Y-36584279D01*
X49244907Y-36715618D01*
X49254079Y-36816908D01*
X49265566Y-36942526D01*
X49276322Y-37058762D01*
X49286131Y-37163380D01*
X49294781Y-37254140D01*
X49302057Y-37328804D01*
X49307746Y-37385134D01*
X49311634Y-37420891D01*
X49313506Y-37433837D01*
X49319188Y-37429826D01*
X49340020Y-37410138D01*
X49373872Y-37376322D01*
X49418412Y-37330837D01*
X49471310Y-37276146D01*
X49530236Y-37214710D01*
X49592858Y-37148990D01*
X49656848Y-37081449D01*
X49719874Y-37014547D01*
X49779606Y-36950746D01*
X49833713Y-36892507D01*
X49879865Y-36842292D01*
X49915733Y-36802563D01*
X49938984Y-36775780D01*
X49945778Y-36766477D01*
X50127601Y-36766477D01*
X50403305Y-37041968D01*
X50470726Y-37109224D01*
X50534267Y-37172162D01*
X50583490Y-37220100D01*
X50620196Y-37254594D01*
X50646190Y-37277199D01*
X50663276Y-37289471D01*
X50673256Y-37292966D01*
X50677935Y-37289238D01*
X50679116Y-37279844D01*
X50679873Y-37264749D01*
X50682601Y-37225883D01*
X50687108Y-37166895D01*
X50693179Y-37090473D01*
X50700596Y-36999305D01*
X50709142Y-36896080D01*
X50718602Y-36783483D01*
X50728758Y-36664205D01*
X50737723Y-36559077D01*
X50747066Y-36448351D01*
X50755443Y-36347814D01*
X50762653Y-36259943D01*
X50768496Y-36187215D01*
X50772769Y-36132110D01*
X50775273Y-36097104D01*
X50775805Y-36084674D01*
X50775384Y-36084908D01*
X50763509Y-36096350D01*
X50737130Y-36123198D01*
X50698570Y-36163018D01*
X50650153Y-36213372D01*
X50594203Y-36271828D01*
X50533042Y-36335948D01*
X50468995Y-36403298D01*
X50404385Y-36471443D01*
X50341535Y-36537948D01*
X50282768Y-36600377D01*
X50230409Y-36656295D01*
X50129533Y-36764406D01*
X50127601Y-36766477D01*
X49945778Y-36766477D01*
X49947290Y-36764406D01*
X49939148Y-36753383D01*
X49915478Y-36726999D01*
X49878478Y-36687527D01*
X49830350Y-36637191D01*
X49773296Y-36578217D01*
X49709520Y-36512830D01*
X49641222Y-36443255D01*
X49570605Y-36371716D01*
X49499871Y-36300438D01*
X49431222Y-36231647D01*
X49366861Y-36167566D01*
X49308989Y-36110422D01*
X49259810Y-36062439D01*
X49221524Y-36025841D01*
X49196334Y-36002854D01*
X49186442Y-35995703D01*
X49186253Y-36003732D01*
X49057067Y-36003732D01*
X49055390Y-35991089D01*
X48780297Y-35991089D01*
X48780140Y-35890495D01*
X48880891Y-35890495D01*
X48962624Y-35890495D01*
X48969895Y-35890489D01*
X49010950Y-35889613D01*
X49033277Y-35885867D01*
X49042529Y-35877270D01*
X49044357Y-35861840D01*
X49036306Y-35839159D01*
X49008730Y-35801428D01*
X48962624Y-35752179D01*
X48880891Y-35671172D01*
X48880891Y-35890495D01*
X48780140Y-35890495D01*
X48779968Y-35780471D01*
X48779639Y-35569852D01*
X48327914Y-35110891D01*
X47876189Y-34651931D01*
X47875570Y-34564848D01*
X47874951Y-34477767D01*
X48416769Y-35026952D01*
X48469137Y-35079998D01*
X48577803Y-35189772D01*
X48670709Y-35283114D01*
X48749055Y-35361173D01*
X48814043Y-35425097D01*
X48866872Y-35476035D01*
X48908743Y-35515135D01*
X48940855Y-35543548D01*
X48964410Y-35562420D01*
X48980608Y-35572901D01*
X48990649Y-35576139D01*
X49007579Y-35575158D01*
X49017084Y-35567996D01*
X49018723Y-35548401D01*
X49014782Y-35510124D01*
X49012065Y-35486025D01*
X49008284Y-35445744D01*
X49006760Y-35418961D01*
X49006015Y-35409728D01*
X48998746Y-35399839D01*
X48978668Y-35396562D01*
X48939689Y-35397992D01*
X48929737Y-35398553D01*
X48889898Y-35397921D01*
X48861560Y-35389167D01*
X48841586Y-35374951D01*
X49124852Y-35374951D01*
X49129013Y-35422104D01*
X49130935Y-35443498D01*
X49136924Y-35501909D01*
X49142826Y-35540381D01*
X49149727Y-35562912D01*
X49158712Y-35573498D01*
X49170870Y-35576139D01*
X49181801Y-35577937D01*
X49189050Y-35586530D01*
X49193100Y-35606505D01*
X49194863Y-35642450D01*
X49195248Y-35698952D01*
X49195248Y-35821766D01*
X49235447Y-35861840D01*
X49333565Y-35959654D01*
X49471881Y-36097542D01*
X49471881Y-35991089D01*
X50226337Y-35991089D01*
X50226337Y-36230000D01*
X49607831Y-36230000D01*
X49817592Y-36446906D01*
X49857770Y-36488334D01*
X49913328Y-36545200D01*
X49961570Y-36594082D01*
X49999971Y-36632441D01*
X50026003Y-36657741D01*
X50037140Y-36667442D01*
X50041373Y-36664767D01*
X50061224Y-36646782D01*
X50095451Y-36613481D01*
X50142227Y-36566712D01*
X50199724Y-36508325D01*
X50266112Y-36440169D01*
X50339564Y-36364094D01*
X50418251Y-36281950D01*
X50497341Y-36198943D01*
X50574871Y-36117136D01*
X50637746Y-36050083D01*
X50687502Y-35996007D01*
X50725678Y-35953129D01*
X50753811Y-35919673D01*
X50773440Y-35893861D01*
X50786101Y-35873914D01*
X50793334Y-35858056D01*
X50796675Y-35844509D01*
X50797561Y-35837910D01*
X50801488Y-35801548D01*
X50806459Y-35748018D01*
X50811927Y-35683421D01*
X50817344Y-35613862D01*
X50819181Y-35589635D01*
X50824488Y-35524178D01*
X50829548Y-35467717D01*
X50833863Y-35425618D01*
X50836934Y-35403243D01*
X50842955Y-35374951D01*
X49124852Y-35374951D01*
X48841586Y-35374951D01*
X48833630Y-35369289D01*
X48828820Y-35365104D01*
X48789482Y-35314427D01*
X48773903Y-35261782D01*
X49114698Y-35261782D01*
X50529221Y-35261782D01*
X50741881Y-35261782D01*
X50798908Y-35261782D01*
X50815993Y-35261662D01*
X50841308Y-35259462D01*
X50848616Y-35252334D01*
X50842943Y-35237508D01*
X50841267Y-35234682D01*
X50822448Y-35212944D01*
X50795183Y-35188820D01*
X50767987Y-35169254D01*
X50749371Y-35161188D01*
X50747697Y-35162463D01*
X50743544Y-35179976D01*
X50741881Y-35211485D01*
X50741881Y-35261782D01*
X50529221Y-35261782D01*
X50525526Y-35171095D01*
X50521832Y-35080407D01*
X50446386Y-35065252D01*
X50408551Y-35058379D01*
X50345368Y-35048756D01*
X50286065Y-35041496D01*
X50201188Y-35032893D01*
X50201188Y-35136040D01*
X49622773Y-35136040D01*
X49622773Y-35045122D01*
X49550471Y-35053753D01*
X49439998Y-35072249D01*
X49328816Y-35105691D01*
X49236850Y-35152324D01*
X49162542Y-35212786D01*
X49114698Y-35261782D01*
X48773903Y-35261782D01*
X48772172Y-35255934D01*
X48777474Y-35194575D01*
X48805975Y-35135297D01*
X48808733Y-35131606D01*
X48846822Y-35099851D01*
X48896476Y-35081067D01*
X48950002Y-35076071D01*
X48999707Y-35085678D01*
X49037900Y-35110704D01*
X49050831Y-35123480D01*
X49063428Y-35126576D01*
X49081467Y-35116998D01*
X49111928Y-35093082D01*
X49121274Y-35085731D01*
X49193430Y-35039339D01*
X49201497Y-35035446D01*
X49723367Y-35035446D01*
X50100594Y-35035446D01*
X50100594Y-34972575D01*
X49723367Y-34972575D01*
X49723367Y-35035446D01*
X49201497Y-35035446D01*
X49278915Y-34998084D01*
X49369767Y-34964936D01*
X49458027Y-34942868D01*
X49535736Y-34934852D01*
X49543991Y-34934788D01*
X49589879Y-34930321D01*
X49615079Y-34917795D01*
X49622773Y-34895784D01*
X49623676Y-34888849D01*
X49628615Y-34882885D01*
X49640611Y-34878519D01*
X49662680Y-34875503D01*
X49697836Y-34873590D01*
X49749094Y-34872530D01*
X49819471Y-34872077D01*
X49911980Y-34871980D01*
X49998660Y-34872150D01*
X50072332Y-34872834D01*
X50126265Y-34874215D01*
X50163288Y-34876470D01*
X50186230Y-34879778D01*
X50197920Y-34884320D01*
X50201188Y-34890272D01*
X50211937Y-34904888D01*
X50242055Y-34914215D01*
X50253582Y-34915847D01*
X50292886Y-34921591D01*
X50345188Y-34929378D01*
X50402376Y-34938003D01*
X50433916Y-34942393D01*
X50480074Y-34947148D01*
X50512641Y-34948295D01*
X50526023Y-34945495D01*
X50528308Y-34943671D01*
X50549405Y-34939165D01*
X50587355Y-34936029D01*
X50636048Y-34934852D01*
X50741881Y-34934852D01*
X50741894Y-34972575D01*
X50741894Y-34975718D01*
G37*
D11*
%TO.C,J3*%
X12800000Y-10300000D02*
X28200000Y-10300000D01*
X28200000Y-10300000D02*
X28200000Y-18700000D01*
X28200000Y-18700000D02*
X12800000Y-18700000D01*
X12800000Y-18700000D02*
X12800000Y-10300000D01*
%TO.C,REF\u002A\u002A*%
G36*
X51747415Y-11680012D02*
G01*
X51766315Y-11685393D01*
X51781001Y-11697205D01*
X51789714Y-11714158D01*
X51790388Y-11717751D01*
X51791566Y-11731303D01*
X51792457Y-11753171D01*
X51793062Y-11783418D01*
X51793382Y-11822108D01*
X51793419Y-11869303D01*
X51793173Y-11925066D01*
X51792980Y-11953854D01*
X51792658Y-11995242D01*
X51792303Y-12029256D01*
X51791880Y-12056682D01*
X51791356Y-12078310D01*
X51790694Y-12094926D01*
X51789861Y-12107319D01*
X51788821Y-12116275D01*
X51787540Y-12122585D01*
X51785984Y-12127033D01*
X51784116Y-12130410D01*
X51775951Y-12139824D01*
X51766843Y-12146133D01*
X51765205Y-12146520D01*
X51755524Y-12147455D01*
X51738803Y-12148306D01*
X51716185Y-12149041D01*
X51688813Y-12149627D01*
X51657830Y-12150030D01*
X51624378Y-12150219D01*
X51609758Y-12150242D01*
X51571874Y-12150180D01*
X51541457Y-12149841D01*
X51517634Y-12149120D01*
X51499532Y-12147913D01*
X51486277Y-12146112D01*
X51476996Y-12143612D01*
X51470815Y-12140309D01*
X51466861Y-12136096D01*
X51464261Y-12130867D01*
X51462520Y-12124499D01*
X51462047Y-12108369D01*
X51466024Y-12094117D01*
X51466401Y-12093423D01*
X51470601Y-12087212D01*
X51476217Y-12082373D01*
X51484279Y-12078739D01*
X51495820Y-12076141D01*
X51511870Y-12074412D01*
X51533461Y-12073385D01*
X51561623Y-12072892D01*
X51597389Y-12072764D01*
X51699082Y-12072764D01*
X51699082Y-11890966D01*
X51699082Y-11709167D01*
X51713765Y-11694485D01*
X51718153Y-11690326D01*
X51730328Y-11682181D01*
X51742913Y-11679819D01*
X51747415Y-11680012D01*
G37*
G36*
X50952024Y-11924284D02*
G01*
X50952024Y-12129765D01*
X50937342Y-12144448D01*
X50921448Y-12155953D01*
X50904315Y-12159214D01*
X50885354Y-12154146D01*
X50884154Y-12153590D01*
X50875768Y-12148855D01*
X50869459Y-12142803D01*
X50864905Y-12134214D01*
X50861780Y-12121868D01*
X50859762Y-12104546D01*
X50858527Y-12081028D01*
X50857752Y-12050094D01*
X50856322Y-11973444D01*
X50818887Y-11973370D01*
X50790710Y-11972845D01*
X50743339Y-11969214D01*
X50703413Y-11961934D01*
X50670579Y-11950770D01*
X50644483Y-11935487D01*
X50624772Y-11915852D01*
X50611093Y-11891631D01*
X50603093Y-11862589D01*
X50600610Y-11830928D01*
X50697246Y-11830928D01*
X50697565Y-11839533D01*
X50702320Y-11860275D01*
X50713421Y-11875999D01*
X50731698Y-11888085D01*
X50737490Y-11890675D01*
X50748414Y-11894220D01*
X50761786Y-11896628D01*
X50779669Y-11898219D01*
X50804123Y-11899310D01*
X50857022Y-11901077D01*
X50857022Y-11828648D01*
X50857022Y-11756219D01*
X50803203Y-11758762D01*
X50780517Y-11760241D01*
X50751586Y-11764111D01*
X50729792Y-11770385D01*
X50714297Y-11779634D01*
X50704267Y-11792427D01*
X50698862Y-11809335D01*
X50697246Y-11830928D01*
X50600610Y-11830928D01*
X50600419Y-11828493D01*
X50600446Y-11817348D01*
X50601146Y-11800739D01*
X50603245Y-11787928D01*
X50607395Y-11775732D01*
X50614247Y-11760970D01*
X50621300Y-11747950D01*
X50635744Y-11728721D01*
X50654196Y-11713476D01*
X50678966Y-11700040D01*
X50681484Y-11698897D01*
X50687990Y-11696286D01*
X50695020Y-11694287D01*
X50703733Y-11692820D01*
X50715288Y-11691803D01*
X50730843Y-11691154D01*
X50751559Y-11690791D01*
X50778593Y-11690633D01*
X50813105Y-11690598D01*
X50926805Y-11690598D01*
X50939414Y-11704701D01*
X50952024Y-11718803D01*
X50952024Y-11756219D01*
X50952024Y-11924284D01*
G37*
G36*
X50704036Y-10349887D02*
G01*
X50740043Y-10350041D01*
X50769667Y-10350387D01*
X50793679Y-10350997D01*
X50812853Y-10351940D01*
X50827959Y-10353287D01*
X50839771Y-10355108D01*
X50849059Y-10357475D01*
X50856596Y-10360456D01*
X50863155Y-10364124D01*
X50869506Y-10368548D01*
X50876423Y-10373799D01*
X50883237Y-10380182D01*
X50894871Y-10395289D01*
X50905573Y-10413873D01*
X50919637Y-10442440D01*
X50919637Y-10623898D01*
X50919637Y-10805355D01*
X50907502Y-10830071D01*
X50903528Y-10837517D01*
X50885872Y-10861342D01*
X50864037Y-10879921D01*
X50839881Y-10891565D01*
X50832483Y-10892786D01*
X50816927Y-10894031D01*
X50794773Y-10895127D01*
X50767101Y-10896071D01*
X50734992Y-10896856D01*
X50699526Y-10897479D01*
X50661783Y-10897933D01*
X50622846Y-10898214D01*
X50583792Y-10898318D01*
X50545705Y-10898237D01*
X50509663Y-10897969D01*
X50476747Y-10897507D01*
X50448039Y-10896847D01*
X50424618Y-10895984D01*
X50407565Y-10894912D01*
X50397960Y-10893627D01*
X50390507Y-10891430D01*
X50364667Y-10878255D01*
X50342653Y-10857743D01*
X50325185Y-10830519D01*
X50310762Y-10801224D01*
X50310762Y-10624082D01*
X50310774Y-10587552D01*
X50310889Y-10546551D01*
X50311231Y-10512662D01*
X50311924Y-10485021D01*
X50313090Y-10462763D01*
X50314854Y-10445022D01*
X50317339Y-10430934D01*
X50320668Y-10419634D01*
X50324966Y-10410256D01*
X50330355Y-10401935D01*
X50336959Y-10393807D01*
X50344901Y-10385006D01*
X50347328Y-10382350D01*
X50353907Y-10375197D01*
X50360036Y-10369183D01*
X50366470Y-10364207D01*
X50373968Y-10360172D01*
X50383287Y-10356979D01*
X50395183Y-10354528D01*
X50410416Y-10352721D01*
X50429740Y-10351460D01*
X50453915Y-10350645D01*
X50483697Y-10350178D01*
X50519843Y-10349959D01*
X50563111Y-10349891D01*
X50614259Y-10349874D01*
X50660874Y-10349856D01*
X50704036Y-10349887D01*
G37*
G36*
X50624872Y-9525917D02*
G01*
X50837590Y-9527151D01*
X50857646Y-9538941D01*
X50870910Y-9547795D01*
X50893394Y-9569907D01*
X50910604Y-9598402D01*
X50912260Y-9602103D01*
X50914190Y-9607285D01*
X50915751Y-9613350D01*
X50916982Y-9621160D01*
X50917921Y-9631576D01*
X50918609Y-9645459D01*
X50919083Y-9663672D01*
X50919384Y-9687075D01*
X50919551Y-9716530D01*
X50919622Y-9752898D01*
X50919637Y-9797042D01*
X50919636Y-9808613D01*
X50919598Y-9851061D01*
X50919482Y-9885954D01*
X50919250Y-9914164D01*
X50918867Y-9936560D01*
X50918299Y-9954012D01*
X50917508Y-9967392D01*
X50916459Y-9977569D01*
X50915116Y-9985413D01*
X50913444Y-9991796D01*
X50911407Y-9997588D01*
X50902687Y-10014888D01*
X50887353Y-10035627D01*
X50869167Y-10053338D01*
X50850545Y-10065331D01*
X50849703Y-10065708D01*
X50845160Y-10067448D01*
X50839637Y-10068899D01*
X50832369Y-10070087D01*
X50822591Y-10071038D01*
X50809535Y-10071779D01*
X50792438Y-10072337D01*
X50770533Y-10072737D01*
X50743054Y-10073006D01*
X50709235Y-10073170D01*
X50668312Y-10073257D01*
X50619518Y-10073292D01*
X50569144Y-10073231D01*
X50518595Y-10072971D01*
X50476092Y-10072508D01*
X50441754Y-10071845D01*
X50415698Y-10070985D01*
X50398041Y-10069929D01*
X50388901Y-10068680D01*
X50377764Y-10064012D01*
X50360114Y-10051623D01*
X50343067Y-10034653D01*
X50328671Y-10015244D01*
X50318979Y-9995544D01*
X50318885Y-9995272D01*
X50316843Y-9988801D01*
X50315173Y-9981736D01*
X50313838Y-9973184D01*
X50312800Y-9962250D01*
X50312024Y-9948042D01*
X50311471Y-9929665D01*
X50311106Y-9906226D01*
X50310890Y-9876832D01*
X50310788Y-9840588D01*
X50310762Y-9796602D01*
X50310762Y-9621273D01*
X50325876Y-9591676D01*
X50329195Y-9585490D01*
X50347819Y-9559367D01*
X50369998Y-9540440D01*
X50395106Y-9529273D01*
X50401954Y-9528271D01*
X50418156Y-9527257D01*
X50442845Y-9526490D01*
X50475941Y-9525972D01*
X50517365Y-9525702D01*
X50567035Y-9525684D01*
X50624872Y-9525917D01*
G37*
G36*
X52553451Y-11681243D02*
G01*
X52592735Y-11688309D01*
X52630131Y-11702104D01*
X52664415Y-11722587D01*
X52694362Y-11749719D01*
X52709309Y-11768585D01*
X52728849Y-11803022D01*
X52742497Y-11840964D01*
X52750377Y-11881221D01*
X52752615Y-11922603D01*
X52749336Y-11963921D01*
X52740665Y-12003985D01*
X52726727Y-12041605D01*
X52707647Y-12075592D01*
X52683552Y-12104756D01*
X52654564Y-12127907D01*
X52633541Y-12139016D01*
X52606290Y-12149526D01*
X52580007Y-12156146D01*
X52565426Y-12157705D01*
X52543401Y-12158458D01*
X52519457Y-12158102D01*
X52497096Y-12156700D01*
X52479820Y-12154317D01*
X52460795Y-12149214D01*
X52428597Y-12135259D01*
X52399893Y-12116085D01*
X52375711Y-12092767D01*
X52357079Y-12066381D01*
X52345026Y-12038001D01*
X52340579Y-12008704D01*
X52340574Y-12003467D01*
X52341609Y-11991016D01*
X52345172Y-11982730D01*
X52352460Y-11975237D01*
X52361235Y-11969392D01*
X52377411Y-11964775D01*
X52393283Y-11966473D01*
X52406098Y-11974524D01*
X52412184Y-11982973D01*
X52420090Y-11996651D01*
X52427873Y-12012309D01*
X52437082Y-12030050D01*
X52455132Y-12053853D01*
X52476910Y-12070195D01*
X52503185Y-12079579D01*
X52534726Y-12082512D01*
X52563908Y-12079648D01*
X52591839Y-12069873D01*
X52614786Y-12053110D01*
X52632797Y-12029310D01*
X52645922Y-11998423D01*
X52654209Y-11960399D01*
X52656286Y-11939966D01*
X52655986Y-11902052D01*
X52650548Y-11865960D01*
X52640372Y-11833204D01*
X52625862Y-11805301D01*
X52607417Y-11783763D01*
X52598463Y-11776611D01*
X52576448Y-11764768D01*
X52550878Y-11758820D01*
X52519957Y-11758242D01*
X52500224Y-11760654D01*
X52481112Y-11766996D01*
X52464160Y-11778223D01*
X52447755Y-11795442D01*
X52430280Y-11819762D01*
X52423855Y-11829478D01*
X52413604Y-11844176D01*
X52405683Y-11853430D01*
X52398589Y-11858498D01*
X52390821Y-11860637D01*
X52380877Y-11861104D01*
X52366140Y-11858666D01*
X52353507Y-11850211D01*
X52345743Y-11836870D01*
X52342854Y-11819856D01*
X52344848Y-11800383D01*
X52351730Y-11779664D01*
X52363509Y-11758913D01*
X52380190Y-11739342D01*
X52401917Y-11721083D01*
X52436511Y-11700827D01*
X52474115Y-11687462D01*
X52513503Y-11680948D01*
X52553451Y-11681243D01*
G37*
G36*
X51282329Y-11685853D02*
G01*
X51320837Y-11699040D01*
X51356184Y-11719314D01*
X51387223Y-11746479D01*
X51406757Y-11769921D01*
X51425841Y-11801342D01*
X51438839Y-11835779D01*
X51446263Y-11874673D01*
X51448623Y-11919466D01*
X51448024Y-11942174D01*
X51442410Y-11987658D01*
X51430635Y-12027957D01*
X51412394Y-12063960D01*
X51387378Y-12096557D01*
X51386269Y-12097763D01*
X51359731Y-12122129D01*
X51330974Y-12139463D01*
X51297484Y-12151295D01*
X51281135Y-12154909D01*
X51240651Y-12158990D01*
X51199536Y-12156986D01*
X51160243Y-12149121D01*
X51125225Y-12135618D01*
X51120161Y-12132912D01*
X51097756Y-12117394D01*
X51078035Y-12098169D01*
X51061599Y-12076508D01*
X51049050Y-12053683D01*
X51040991Y-12030967D01*
X51038024Y-12009632D01*
X51040751Y-11990950D01*
X51049773Y-11976192D01*
X51050060Y-11975909D01*
X51064842Y-11967015D01*
X51082369Y-11964697D01*
X51099364Y-11969404D01*
X51100235Y-11969974D01*
X51106514Y-11977183D01*
X51114309Y-11989641D01*
X51122138Y-12005030D01*
X51124583Y-12010261D01*
X51140467Y-12038516D01*
X51157921Y-12059066D01*
X51178070Y-12072716D01*
X51202040Y-12080267D01*
X51230960Y-12082521D01*
X51238905Y-12082299D01*
X51270538Y-12076957D01*
X51297254Y-12064642D01*
X51318922Y-12045544D01*
X51335411Y-12019857D01*
X51346588Y-11987770D01*
X51352324Y-11949477D01*
X51352485Y-11905169D01*
X51349781Y-11877281D01*
X51342346Y-11843970D01*
X51330262Y-11816241D01*
X51313095Y-11792856D01*
X51297387Y-11777880D01*
X51278152Y-11765993D01*
X51255987Y-11759601D01*
X51228392Y-11757667D01*
X51227431Y-11757667D01*
X51202250Y-11759514D01*
X51181319Y-11765606D01*
X51162982Y-11776957D01*
X51145583Y-11794582D01*
X51127465Y-11819495D01*
X51120637Y-11829556D01*
X51110291Y-11843656D01*
X51101805Y-11853866D01*
X51096540Y-11858469D01*
X51084143Y-11861241D01*
X51066973Y-11858935D01*
X51052358Y-11850336D01*
X51042207Y-11836730D01*
X51038431Y-11819399D01*
X51039072Y-11810485D01*
X51046022Y-11786575D01*
X51059689Y-11762375D01*
X51078925Y-11739355D01*
X51102579Y-11718988D01*
X51129503Y-11702745D01*
X51159295Y-11690752D01*
X51200412Y-11681515D01*
X51241805Y-11679946D01*
X51282329Y-11685853D01*
G37*
G36*
X50057221Y-11683271D02*
G01*
X50073690Y-11694485D01*
X50088372Y-11709167D01*
X50088372Y-11855830D01*
X50088317Y-11879389D01*
X50088033Y-11914233D01*
X50087534Y-11946488D01*
X50086853Y-11974946D01*
X50086020Y-11998397D01*
X50085065Y-12015631D01*
X50084020Y-12025438D01*
X50082557Y-12032530D01*
X50070677Y-12068701D01*
X50052593Y-12098888D01*
X50028400Y-12122996D01*
X49998191Y-12140926D01*
X49962058Y-12152581D01*
X49943086Y-12155656D01*
X49915063Y-12157976D01*
X49885080Y-12158638D01*
X49856606Y-12157582D01*
X49833104Y-12154751D01*
X49822099Y-12152262D01*
X49790523Y-12140452D01*
X49761920Y-12123008D01*
X49738114Y-12101204D01*
X49720929Y-12076317D01*
X49717654Y-12069638D01*
X49712765Y-12058036D01*
X49708835Y-12045629D01*
X49705774Y-12031438D01*
X49703491Y-12014486D01*
X49701899Y-11993793D01*
X49700908Y-11968382D01*
X49700429Y-11937273D01*
X49700372Y-11899488D01*
X49700648Y-11854049D01*
X49701888Y-11704995D01*
X49715990Y-11692399D01*
X49724209Y-11686336D01*
X49741838Y-11680106D01*
X49759447Y-11681502D01*
X49775176Y-11690174D01*
X49787167Y-11705772D01*
X49788475Y-11708630D01*
X49790328Y-11714241D01*
X49791779Y-11721687D01*
X49792876Y-11731939D01*
X49793667Y-11745970D01*
X49794200Y-11764750D01*
X49794521Y-11789252D01*
X49794680Y-11820447D01*
X49794723Y-11859306D01*
X49794771Y-11891247D01*
X49795052Y-11928798D01*
X49795696Y-11959354D01*
X49796832Y-11983867D01*
X49798585Y-12003292D01*
X49801082Y-12018582D01*
X49804449Y-12030689D01*
X49808814Y-12040567D01*
X49814302Y-12049169D01*
X49821041Y-12057448D01*
X49831605Y-12067393D01*
X49848364Y-12076509D01*
X49869763Y-12081420D01*
X49897517Y-12082692D01*
X49925662Y-12080186D01*
X49948961Y-12072617D01*
X49966832Y-12059501D01*
X49980246Y-12040341D01*
X49991211Y-12019052D01*
X49993370Y-11865621D01*
X49993451Y-11859938D01*
X49994057Y-11820030D01*
X49994659Y-11787756D01*
X49995307Y-11762229D01*
X49996056Y-11742559D01*
X49996957Y-11727858D01*
X49998064Y-11717239D01*
X49999430Y-11709811D01*
X50001106Y-11704688D01*
X50003147Y-11700980D01*
X50006965Y-11695988D01*
X50022045Y-11684189D01*
X50039402Y-11679895D01*
X50057221Y-11683271D01*
G37*
G36*
X52247248Y-11998133D02*
G01*
X52257783Y-12025163D01*
X52266339Y-12047206D01*
X52273110Y-12064760D01*
X52278290Y-12078320D01*
X52282071Y-12088383D01*
X52284646Y-12095447D01*
X52286210Y-12100007D01*
X52288698Y-12117802D01*
X52283481Y-12135487D01*
X52270085Y-12150639D01*
X52261737Y-12155605D01*
X52245205Y-12159293D01*
X52228760Y-12156836D01*
X52215520Y-12148363D01*
X52210833Y-12141519D01*
X52203613Y-12127851D01*
X52195410Y-12109996D01*
X52187250Y-12090067D01*
X52168958Y-12042537D01*
X52075093Y-12042537D01*
X51981227Y-12042537D01*
X51962651Y-12090137D01*
X51959704Y-12097564D01*
X51948729Y-12122354D01*
X51938460Y-12139921D01*
X51928052Y-12151249D01*
X51916659Y-12157324D01*
X51903437Y-12159130D01*
X51896536Y-12158603D01*
X51885214Y-12154188D01*
X51872992Y-12143899D01*
X51869103Y-12139928D01*
X51861861Y-12130849D01*
X51859265Y-12122263D01*
X51859846Y-12110433D01*
X51859967Y-12109683D01*
X51862518Y-12100899D01*
X51867933Y-12085304D01*
X51875813Y-12063887D01*
X51885764Y-12037637D01*
X51897387Y-12007544D01*
X51910286Y-11974596D01*
X51913775Y-11965781D01*
X52009997Y-11965781D01*
X52011346Y-11966450D01*
X52019672Y-11967510D01*
X52034327Y-11968359D01*
X52053842Y-11968922D01*
X52076746Y-11969126D01*
X52143496Y-11969126D01*
X52123825Y-11914068D01*
X52115586Y-11890962D01*
X52106312Y-11864871D01*
X52097675Y-11840497D01*
X52090814Y-11821047D01*
X52088093Y-11813520D01*
X52081845Y-11798200D01*
X52077119Y-11789690D01*
X52074303Y-11788749D01*
X52072083Y-11793890D01*
X52067473Y-11805733D01*
X52061088Y-11822671D01*
X52053460Y-11843240D01*
X52045123Y-11865974D01*
X52036608Y-11889407D01*
X52028448Y-11912075D01*
X52021174Y-11932512D01*
X52015319Y-11949252D01*
X52011416Y-11960830D01*
X52009997Y-11965781D01*
X51913775Y-11965781D01*
X51924065Y-11939783D01*
X51938327Y-11904093D01*
X51952674Y-11868515D01*
X51966711Y-11834040D01*
X51980040Y-11801655D01*
X51992265Y-11772350D01*
X52002989Y-11747115D01*
X52011815Y-11726937D01*
X52018346Y-11712806D01*
X52022187Y-11705712D01*
X52026160Y-11700920D01*
X52042984Y-11688459D01*
X52063551Y-11681436D01*
X52085130Y-11680495D01*
X52104990Y-11686276D01*
X52108611Y-11688329D01*
X52120412Y-11698103D01*
X52131498Y-11712829D01*
X52142643Y-11733685D01*
X52154618Y-11761850D01*
X52158136Y-11770808D01*
X52181461Y-11830219D01*
X52201842Y-11882160D01*
X52219471Y-11927128D01*
X52234542Y-11965621D01*
X52235912Y-11969126D01*
X52247248Y-11998133D01*
G37*
G36*
X50383247Y-11681223D02*
G01*
X50418538Y-11687450D01*
X50451019Y-11698330D01*
X50479075Y-11713644D01*
X50501090Y-11733172D01*
X50504359Y-11737183D01*
X50519060Y-11762484D01*
X50526946Y-11790467D01*
X50528113Y-11819423D01*
X50522652Y-11847645D01*
X50510658Y-11873424D01*
X50492224Y-11895053D01*
X50488691Y-11898065D01*
X50473485Y-11909082D01*
X50455440Y-11918963D01*
X50433132Y-11928325D01*
X50405138Y-11937784D01*
X50370034Y-11947956D01*
X50364218Y-11949558D01*
X50336192Y-11957590D01*
X50315035Y-11964424D01*
X50299429Y-11970652D01*
X50288053Y-11976868D01*
X50279587Y-11983664D01*
X50272709Y-11991632D01*
X50267390Y-12001785D01*
X50263946Y-12020021D01*
X50265703Y-12038866D01*
X50272664Y-12054577D01*
X50276531Y-12059261D01*
X50294753Y-12073584D01*
X50317858Y-12083393D01*
X50343748Y-12088430D01*
X50370328Y-12088437D01*
X50395500Y-12083157D01*
X50417168Y-12072331D01*
X50418130Y-12071596D01*
X50426774Y-12062143D01*
X50436876Y-12047338D01*
X50446827Y-12029503D01*
X50449707Y-12023941D01*
X50458734Y-12008244D01*
X50467184Y-11995792D01*
X50473542Y-11988884D01*
X50476363Y-11987078D01*
X50492858Y-11982012D01*
X50509862Y-11984827D01*
X50525427Y-11995282D01*
X50530819Y-12000942D01*
X50535765Y-12008516D01*
X50537223Y-12017493D01*
X50536259Y-12031436D01*
X50531383Y-12055045D01*
X50518088Y-12083182D01*
X50496561Y-12109583D01*
X50476190Y-12127014D01*
X50449605Y-12141979D01*
X50417595Y-12152402D01*
X50409934Y-12154023D01*
X50383729Y-12157335D01*
X50354111Y-12158617D01*
X50324790Y-12157793D01*
X50299476Y-12154789D01*
X50295320Y-12153955D01*
X50263883Y-12143942D01*
X50234797Y-12128459D01*
X50209627Y-12108704D01*
X50189937Y-12085876D01*
X50177293Y-12061174D01*
X50172696Y-12040789D01*
X50170681Y-12015340D01*
X50171607Y-11989745D01*
X50175552Y-11968108D01*
X50176027Y-11966612D01*
X50185594Y-11947968D01*
X50201039Y-11928946D01*
X50220249Y-11911783D01*
X50241114Y-11898715D01*
X50241220Y-11898663D01*
X50254931Y-11892890D01*
X50274406Y-11885880D01*
X50297066Y-11878512D01*
X50320333Y-11871667D01*
X50321763Y-11871271D01*
X50344327Y-11864886D01*
X50365512Y-11858679D01*
X50382999Y-11853339D01*
X50394468Y-11849560D01*
X50412360Y-11841324D01*
X50428902Y-11828295D01*
X50438171Y-11813603D01*
X50440520Y-11798293D01*
X50436297Y-11783407D01*
X50425854Y-11769991D01*
X50409541Y-11759086D01*
X50387708Y-11751738D01*
X50360706Y-11748990D01*
X50336087Y-11750776D01*
X50314786Y-11757613D01*
X50297527Y-11770495D01*
X50282479Y-11790392D01*
X50279931Y-11794530D01*
X50268223Y-11812745D01*
X50259100Y-11824796D01*
X50251287Y-11831900D01*
X50243508Y-11835270D01*
X50234488Y-11836124D01*
X50217351Y-11833938D01*
X50203207Y-11825726D01*
X50193559Y-11810715D01*
X50190084Y-11797562D01*
X50191291Y-11776568D01*
X50199517Y-11755092D01*
X50214025Y-11734380D01*
X50234080Y-11715676D01*
X50258943Y-11700227D01*
X50276686Y-11692662D01*
X50310705Y-11683609D01*
X50346765Y-11679870D01*
X50383247Y-11681223D01*
G37*
G36*
X52751820Y-8249625D02*
G01*
X52751972Y-8300942D01*
X52752107Y-8357396D01*
X52752225Y-8419235D01*
X52752328Y-8486711D01*
X52752416Y-8560072D01*
X52752491Y-8639569D01*
X52752554Y-8725452D01*
X52752605Y-8817971D01*
X52752647Y-8917376D01*
X52752679Y-9023918D01*
X52752703Y-9137845D01*
X52752720Y-9259409D01*
X52752730Y-9388860D01*
X52752736Y-9526446D01*
X52752737Y-9581988D01*
X52752738Y-9672420D01*
X52752738Y-9732328D01*
X52752737Y-9874375D01*
X52752734Y-10008141D01*
X52752728Y-10133877D01*
X52752720Y-10222390D01*
X52752717Y-10251836D01*
X52752700Y-10362270D01*
X52752677Y-10465431D01*
X52752645Y-10561573D01*
X52752603Y-10650947D01*
X52752551Y-10733806D01*
X52752537Y-10751081D01*
X52752487Y-10810402D01*
X52752410Y-10880988D01*
X52752318Y-10945815D01*
X52752211Y-11005137D01*
X52752087Y-11059206D01*
X52751944Y-11108274D01*
X52751782Y-11152593D01*
X52751600Y-11192416D01*
X52751395Y-11227996D01*
X52751168Y-11259584D01*
X52750916Y-11287434D01*
X52750639Y-11311797D01*
X52750335Y-11332926D01*
X52750002Y-11351073D01*
X52749641Y-11366491D01*
X52749249Y-11379432D01*
X52748825Y-11390148D01*
X52748368Y-11398892D01*
X52747877Y-11405917D01*
X52747350Y-11411474D01*
X52746787Y-11415816D01*
X52746186Y-11419196D01*
X52745546Y-11421865D01*
X52744865Y-11424077D01*
X52744142Y-11426083D01*
X52739971Y-11435524D01*
X52724312Y-11458823D01*
X52703311Y-11479067D01*
X52679327Y-11493793D01*
X52678380Y-11494217D01*
X52676485Y-11494998D01*
X52674274Y-11495729D01*
X52671472Y-11496411D01*
X52667799Y-11497046D01*
X52662978Y-11497636D01*
X52656733Y-11498182D01*
X52648786Y-11498687D01*
X52638859Y-11499151D01*
X52626676Y-11499576D01*
X52611958Y-11499965D01*
X52594428Y-11500318D01*
X52573810Y-11500638D01*
X52549825Y-11500926D01*
X52522196Y-11501183D01*
X52490646Y-11501413D01*
X52454898Y-11501615D01*
X52414673Y-11501792D01*
X52369696Y-11501946D01*
X52319687Y-11502077D01*
X52264371Y-11502189D01*
X52203469Y-11502282D01*
X52136705Y-11502358D01*
X52063800Y-11502419D01*
X51984478Y-11502467D01*
X51898461Y-11502503D01*
X51805472Y-11502529D01*
X51705233Y-11502546D01*
X51597467Y-11502557D01*
X51481896Y-11502562D01*
X51358244Y-11502564D01*
X51226233Y-11502565D01*
X51156891Y-11502564D01*
X51029238Y-11502563D01*
X50909801Y-11502560D01*
X50798302Y-11502552D01*
X50694464Y-11502538D01*
X50598009Y-11502517D01*
X50508661Y-11502486D01*
X50426141Y-11502444D01*
X50350173Y-11502390D01*
X50280479Y-11502321D01*
X50216782Y-11502236D01*
X50158804Y-11502134D01*
X50106267Y-11502012D01*
X50058896Y-11501869D01*
X50016411Y-11501703D01*
X49978537Y-11501513D01*
X49944995Y-11501297D01*
X49915507Y-11501054D01*
X49889798Y-11500781D01*
X49867589Y-11500476D01*
X49848603Y-11500140D01*
X49832562Y-11499768D01*
X49819190Y-11499361D01*
X49808208Y-11498916D01*
X49799340Y-11498431D01*
X49792308Y-11497905D01*
X49786834Y-11497336D01*
X49782642Y-11496723D01*
X49779454Y-11496064D01*
X49776992Y-11495357D01*
X49774980Y-11494601D01*
X49773139Y-11493793D01*
X49763522Y-11488830D01*
X49740427Y-11471644D01*
X49721241Y-11449907D01*
X49708324Y-11426083D01*
X49708026Y-11425280D01*
X49707321Y-11423221D01*
X49706656Y-11420854D01*
X49706032Y-11417928D01*
X49705446Y-11414189D01*
X49704898Y-11409385D01*
X49704386Y-11403264D01*
X49703909Y-11395574D01*
X49703466Y-11386062D01*
X49703055Y-11374476D01*
X49702675Y-11360563D01*
X49702326Y-11344071D01*
X49702005Y-11324747D01*
X49701712Y-11302339D01*
X49701445Y-11276596D01*
X49701203Y-11247263D01*
X49700985Y-11214090D01*
X49700790Y-11176823D01*
X49700616Y-11135210D01*
X49700462Y-11088999D01*
X49700327Y-11037938D01*
X49700210Y-10981773D01*
X49700109Y-10920253D01*
X49700023Y-10853125D01*
X49699951Y-10780137D01*
X49699892Y-10701036D01*
X49699845Y-10615571D01*
X49699807Y-10523488D01*
X49699779Y-10424535D01*
X49699758Y-10318460D01*
X49699744Y-10205011D01*
X49699744Y-10202414D01*
X50157160Y-10202414D01*
X50157182Y-10276718D01*
X50157241Y-10350641D01*
X50157337Y-10423667D01*
X50157469Y-10495279D01*
X50157638Y-10564963D01*
X50157843Y-10632202D01*
X50158084Y-10696480D01*
X50158362Y-10757282D01*
X50158676Y-10814090D01*
X50159026Y-10866390D01*
X50159412Y-10913665D01*
X50159833Y-10955400D01*
X50160291Y-10991077D01*
X50160784Y-11020183D01*
X50161312Y-11042199D01*
X50161876Y-11056611D01*
X50162476Y-11062903D01*
X50164106Y-11067722D01*
X50176894Y-11090075D01*
X50196899Y-11109627D01*
X50223044Y-11125274D01*
X50250307Y-11137861D01*
X50600085Y-11138497D01*
X50621377Y-11138529D01*
X50675405Y-11138556D01*
X50727063Y-11138503D01*
X50775654Y-11138375D01*
X50820483Y-11138178D01*
X50860854Y-11137917D01*
X50896069Y-11137596D01*
X50925434Y-11137220D01*
X50948250Y-11136795D01*
X50963823Y-11136326D01*
X50971456Y-11135818D01*
X51001132Y-11128183D01*
X51028287Y-11114501D01*
X51049955Y-11095869D01*
X51064881Y-11073124D01*
X51065798Y-11070855D01*
X51066664Y-11067935D01*
X51067455Y-11064058D01*
X51068174Y-11058858D01*
X51068825Y-11051970D01*
X51069411Y-11043028D01*
X51069936Y-11031666D01*
X51070403Y-11017519D01*
X51070815Y-11000221D01*
X51071176Y-10979406D01*
X51071490Y-10954708D01*
X51071758Y-10925762D01*
X51071986Y-10892203D01*
X51072176Y-10853663D01*
X51072331Y-10809779D01*
X51072450Y-10762607D01*
X51410581Y-10762607D01*
X51416897Y-10790973D01*
X51430037Y-10817245D01*
X51449828Y-10840153D01*
X51476097Y-10858427D01*
X51498283Y-10870129D01*
X51861017Y-10871069D01*
X51903499Y-10871171D01*
X51964847Y-10871279D01*
X52018404Y-10871314D01*
X52064692Y-10871268D01*
X52104233Y-10871135D01*
X52137546Y-10870907D01*
X52165153Y-10870579D01*
X52187576Y-10870143D01*
X52205334Y-10869593D01*
X52218950Y-10868921D01*
X52228943Y-10868121D01*
X52235836Y-10867186D01*
X52240149Y-10866110D01*
X52266349Y-10853289D01*
X52290644Y-10833492D01*
X52309183Y-10809006D01*
X52321018Y-10781109D01*
X52325206Y-10751081D01*
X52325175Y-10748026D01*
X52320549Y-10717817D01*
X52307905Y-10690248D01*
X52287005Y-10664783D01*
X52285094Y-10662896D01*
X52279063Y-10656831D01*
X52273565Y-10651518D01*
X52268027Y-10646907D01*
X52261875Y-10642948D01*
X52254537Y-10639593D01*
X52245439Y-10636790D01*
X52234009Y-10634492D01*
X52219673Y-10632647D01*
X52201858Y-10631208D01*
X52179991Y-10630123D01*
X52153500Y-10629344D01*
X52121810Y-10628820D01*
X52084350Y-10628503D01*
X52040545Y-10628343D01*
X51989823Y-10628290D01*
X51931611Y-10628294D01*
X51865335Y-10628307D01*
X51799291Y-10628300D01*
X51741206Y-10628310D01*
X51690615Y-10628382D01*
X51646946Y-10628559D01*
X51609628Y-10628886D01*
X51578088Y-10629409D01*
X51551756Y-10630171D01*
X51530059Y-10631217D01*
X51512426Y-10632592D01*
X51498284Y-10634340D01*
X51487063Y-10636507D01*
X51478191Y-10639136D01*
X51471096Y-10642272D01*
X51465206Y-10645960D01*
X51459949Y-10650244D01*
X51454755Y-10655169D01*
X51449050Y-10660780D01*
X51434318Y-10677640D01*
X51419118Y-10704671D01*
X51411263Y-10733416D01*
X51410581Y-10762607D01*
X51072450Y-10762607D01*
X51072456Y-10760184D01*
X51072553Y-10704512D01*
X51072626Y-10642397D01*
X51072678Y-10573475D01*
X51072712Y-10497378D01*
X51072733Y-10413743D01*
X51072743Y-10322202D01*
X51072745Y-10222390D01*
X51072745Y-10206771D01*
X51072742Y-10108275D01*
X51072732Y-10017995D01*
X51072711Y-9935563D01*
X51072676Y-9860615D01*
X51072623Y-9792784D01*
X51072549Y-9731705D01*
X51072451Y-9677011D01*
X51072324Y-9628336D01*
X51072174Y-9587127D01*
X51379583Y-9587127D01*
X51384277Y-9616730D01*
X51396504Y-9644880D01*
X51416258Y-9670238D01*
X51421205Y-9675106D01*
X51431015Y-9683918D01*
X51440839Y-9690902D01*
X51451756Y-9696270D01*
X51464844Y-9700233D01*
X51481179Y-9703001D01*
X51501839Y-9704787D01*
X51527902Y-9705801D01*
X51560445Y-9706254D01*
X51600546Y-9706358D01*
X51716355Y-9706358D01*
X51716450Y-9828349D01*
X51716454Y-9832814D01*
X51716542Y-9868187D01*
X51716768Y-9896123D01*
X51717195Y-9917698D01*
X51717885Y-9933991D01*
X51718900Y-9946079D01*
X51720302Y-9955041D01*
X51722154Y-9961954D01*
X51724519Y-9967895D01*
X51736401Y-9988411D01*
X51757115Y-10011444D01*
X51781804Y-10028411D01*
X51786381Y-10030606D01*
X51815737Y-10039647D01*
X51846161Y-10041259D01*
X51875246Y-10035265D01*
X51880205Y-10033411D01*
X51906649Y-10019543D01*
X51927401Y-10000338D01*
X51944144Y-9974306D01*
X51958178Y-9946841D01*
X51958178Y-9826843D01*
X51958178Y-9706845D01*
X52082328Y-9705522D01*
X52112232Y-9705186D01*
X52142183Y-9704760D01*
X52165435Y-9704244D01*
X52183061Y-9703556D01*
X52196129Y-9702616D01*
X52205712Y-9701341D01*
X52212880Y-9699649D01*
X52218704Y-9697459D01*
X52224254Y-9694690D01*
X52236637Y-9687322D01*
X52261885Y-9666127D01*
X52280177Y-9640884D01*
X52291095Y-9612526D01*
X52294221Y-9581988D01*
X52289135Y-9550201D01*
X52284045Y-9536797D01*
X52269616Y-9512970D01*
X52250364Y-9491830D01*
X52228623Y-9476231D01*
X52224203Y-9473988D01*
X52218450Y-9471672D01*
X52211520Y-9469855D01*
X52202349Y-9468449D01*
X52189870Y-9467367D01*
X52173018Y-9466521D01*
X52150727Y-9465826D01*
X52121932Y-9465193D01*
X52085567Y-9464536D01*
X51960337Y-9462377D01*
X51958178Y-9339306D01*
X51957751Y-9315882D01*
X51956962Y-9281455D01*
X51955933Y-9253965D01*
X51954456Y-9232331D01*
X51952322Y-9215476D01*
X51949322Y-9202321D01*
X51945249Y-9191788D01*
X51939893Y-9182797D01*
X51933047Y-9174271D01*
X51924501Y-9165131D01*
X51918615Y-9159315D01*
X51896901Y-9142963D01*
X51872654Y-9133120D01*
X51843387Y-9128667D01*
X51838829Y-9128395D01*
X51820763Y-9128266D01*
X51806641Y-9130482D01*
X51792719Y-9135552D01*
X51792594Y-9135608D01*
X51766301Y-9149891D01*
X51746488Y-9167165D01*
X51731086Y-9189228D01*
X51718515Y-9211918D01*
X51716355Y-9337147D01*
X51714196Y-9462377D01*
X51588967Y-9464536D01*
X51561891Y-9465023D01*
X51528136Y-9465797D01*
X51501239Y-9466813D01*
X51480135Y-9468274D01*
X51463760Y-9470385D01*
X51451052Y-9473351D01*
X51440945Y-9477375D01*
X51432378Y-9482662D01*
X51424285Y-9489417D01*
X51415603Y-9497844D01*
X51410743Y-9502975D01*
X51392811Y-9528911D01*
X51382425Y-9557408D01*
X51379583Y-9587127D01*
X51072174Y-9587127D01*
X51072167Y-9585315D01*
X51071974Y-9547581D01*
X51071743Y-9514769D01*
X51071471Y-9486513D01*
X51071153Y-9462446D01*
X51070786Y-9442203D01*
X51070368Y-9425417D01*
X51069894Y-9411724D01*
X51069361Y-9400755D01*
X51068765Y-9392147D01*
X51068104Y-9385533D01*
X51067373Y-9380546D01*
X51066570Y-9376821D01*
X51065690Y-9373992D01*
X51064731Y-9371693D01*
X51053133Y-9353019D01*
X51032350Y-9332750D01*
X51006002Y-9317163D01*
X51004731Y-9316603D01*
X50994353Y-9312695D01*
X50982913Y-9309906D01*
X50968520Y-9307973D01*
X50949277Y-9306631D01*
X50923293Y-9305615D01*
X50862175Y-9303698D01*
X50860560Y-9229739D01*
X50859901Y-9204151D01*
X50858988Y-9182357D01*
X50857721Y-9166242D01*
X50855923Y-9154243D01*
X50853418Y-9144799D01*
X50850030Y-9136348D01*
X50849314Y-9134806D01*
X50834804Y-9110254D01*
X50816247Y-9091472D01*
X50791385Y-9076143D01*
X50764959Y-9062938D01*
X50615589Y-9062980D01*
X50611388Y-9062981D01*
X50572307Y-9063008D01*
X50540793Y-9063102D01*
X50515873Y-9063320D01*
X50496572Y-9063723D01*
X50481916Y-9064368D01*
X50470929Y-9065315D01*
X50462637Y-9066620D01*
X50456066Y-9068344D01*
X50450241Y-9070545D01*
X50444187Y-9073281D01*
X50423074Y-9085652D01*
X50400308Y-9106178D01*
X50383899Y-9130288D01*
X50383596Y-9130907D01*
X50380584Y-9138257D01*
X50378346Y-9147055D01*
X50376734Y-9158739D01*
X50375603Y-9174745D01*
X50374805Y-9196513D01*
X50374194Y-9225479D01*
X50372853Y-9303813D01*
X50311580Y-9305843D01*
X50285884Y-9306981D01*
X50261336Y-9308984D01*
X50242806Y-9311826D01*
X50228867Y-9315675D01*
X50220682Y-9319225D01*
X50201665Y-9331279D01*
X50184082Y-9347025D01*
X50170169Y-9364276D01*
X50162165Y-9380845D01*
X50161887Y-9382761D01*
X50161307Y-9392990D01*
X50160766Y-9411093D01*
X50160263Y-9436555D01*
X50159798Y-9468860D01*
X50159372Y-9507491D01*
X50158983Y-9551932D01*
X50158632Y-9601668D01*
X50158319Y-9656183D01*
X50158043Y-9714960D01*
X50157805Y-9777484D01*
X50157604Y-9843239D01*
X50157441Y-9911708D01*
X50157315Y-9982376D01*
X50157227Y-10054728D01*
X50157175Y-10128245D01*
X50157160Y-10202414D01*
X49699744Y-10202414D01*
X49699736Y-10083934D01*
X49699731Y-9954979D01*
X49699729Y-9817891D01*
X49699728Y-9672420D01*
X49699728Y-9656584D01*
X49699731Y-9511509D01*
X49699737Y-9374794D01*
X49699748Y-9246189D01*
X49699766Y-9125445D01*
X49699790Y-9012310D01*
X49699823Y-8906534D01*
X49699866Y-8807869D01*
X49699918Y-8716063D01*
X49699982Y-8630867D01*
X49700059Y-8552030D01*
X49700149Y-8479303D01*
X49700253Y-8412436D01*
X49700373Y-8351178D01*
X49700509Y-8295279D01*
X49700663Y-8244489D01*
X49700673Y-8241758D01*
X50006017Y-8241758D01*
X50007251Y-8456947D01*
X50007271Y-8460524D01*
X50007556Y-8508603D01*
X50007833Y-8548865D01*
X50008140Y-8582074D01*
X50008510Y-8608996D01*
X50008979Y-8630398D01*
X50009584Y-8647044D01*
X50010358Y-8659702D01*
X50011338Y-8669137D01*
X50012558Y-8676114D01*
X50014055Y-8681400D01*
X50015864Y-8685761D01*
X50018020Y-8689962D01*
X50027888Y-8704670D01*
X50045778Y-8723430D01*
X50066548Y-8739240D01*
X50087221Y-8749540D01*
X50089725Y-8750214D01*
X50093557Y-8750876D01*
X50098912Y-8751488D01*
X50106099Y-8752053D01*
X50115428Y-8752572D01*
X50127208Y-8753047D01*
X50141749Y-8753479D01*
X50159360Y-8753871D01*
X50180349Y-8754223D01*
X50205027Y-8754539D01*
X50233702Y-8754819D01*
X50266684Y-8755065D01*
X50304282Y-8755280D01*
X50346805Y-8755464D01*
X50394563Y-8755620D01*
X50447865Y-8755749D01*
X50507020Y-8755853D01*
X50572337Y-8755934D01*
X50644126Y-8755994D01*
X50722695Y-8756034D01*
X50808355Y-8756056D01*
X50901415Y-8756062D01*
X51002183Y-8756054D01*
X51110969Y-8756033D01*
X51228082Y-8756001D01*
X51234236Y-8755999D01*
X51351520Y-8755958D01*
X51460487Y-8755910D01*
X51561439Y-8755852D01*
X51654679Y-8755783D01*
X51740511Y-8755700D01*
X51819237Y-8755603D01*
X51891162Y-8755490D01*
X51956588Y-8755357D01*
X52015819Y-8755205D01*
X52069158Y-8755030D01*
X52116907Y-8754832D01*
X52159371Y-8754608D01*
X52196852Y-8754357D01*
X52229654Y-8754076D01*
X52258079Y-8753765D01*
X52282432Y-8753420D01*
X52303015Y-8753041D01*
X52320131Y-8752626D01*
X52334084Y-8752173D01*
X52345177Y-8751679D01*
X52353713Y-8751144D01*
X52359996Y-8750565D01*
X52364328Y-8749941D01*
X52367012Y-8749270D01*
X52384240Y-8740613D01*
X52403938Y-8725878D01*
X52421641Y-8708144D01*
X52434447Y-8689962D01*
X52434605Y-8689665D01*
X52436736Y-8685478D01*
X52438522Y-8681078D01*
X52439999Y-8675701D01*
X52441202Y-8668581D01*
X52442167Y-8658951D01*
X52442929Y-8646046D01*
X52443523Y-8629100D01*
X52443984Y-8607347D01*
X52444349Y-8580021D01*
X52444652Y-8546356D01*
X52444929Y-8505587D01*
X52445216Y-8456947D01*
X52446449Y-8241758D01*
X52436176Y-8219442D01*
X52424628Y-8199206D01*
X52402872Y-8175501D01*
X52374890Y-8157776D01*
X52353299Y-8147551D01*
X51226233Y-8147551D01*
X50099167Y-8147551D01*
X50077486Y-8157648D01*
X50056911Y-8169570D01*
X50033521Y-8191446D01*
X50016245Y-8219416D01*
X50006017Y-8241758D01*
X49700673Y-8241758D01*
X49700835Y-8198559D01*
X49701028Y-8157238D01*
X49701240Y-8120276D01*
X49701475Y-8087423D01*
X49701732Y-8058429D01*
X49702013Y-8033044D01*
X49702319Y-8011018D01*
X49702650Y-7992101D01*
X49703009Y-7976042D01*
X49703395Y-7962593D01*
X49703810Y-7951502D01*
X49704255Y-7942519D01*
X49704732Y-7935395D01*
X49705240Y-7929880D01*
X49705781Y-7925723D01*
X49706357Y-7922675D01*
X49706967Y-7920485D01*
X49708272Y-7916979D01*
X49720245Y-7895817D01*
X49737735Y-7875631D01*
X49758261Y-7858901D01*
X49779343Y-7848109D01*
X49779524Y-7848048D01*
X49781970Y-7847381D01*
X49785319Y-7846757D01*
X49789847Y-7846173D01*
X49795829Y-7845629D01*
X49803544Y-7845123D01*
X49813266Y-7844654D01*
X49825271Y-7844221D01*
X49839837Y-7843822D01*
X49857239Y-7843455D01*
X49877753Y-7843120D01*
X49901656Y-7842815D01*
X49929223Y-7842538D01*
X49960732Y-7842289D01*
X49996458Y-7842065D01*
X50036677Y-7841866D01*
X50081666Y-7841690D01*
X50131701Y-7841536D01*
X50187058Y-7841402D01*
X50248013Y-7841286D01*
X50314842Y-7841189D01*
X50387823Y-7841107D01*
X50467230Y-7841040D01*
X50553340Y-7840987D01*
X50646429Y-7840946D01*
X50746774Y-7840915D01*
X50854651Y-7840893D01*
X50970335Y-7840880D01*
X51094104Y-7840873D01*
X51226233Y-7840871D01*
X51238216Y-7840871D01*
X51369597Y-7840873D01*
X51492642Y-7840881D01*
X51607628Y-7840895D01*
X51714830Y-7840917D01*
X51814525Y-7840949D01*
X51906988Y-7840991D01*
X51992497Y-7841046D01*
X52071327Y-7841114D01*
X52143754Y-7841197D01*
X52210055Y-7841296D01*
X52270506Y-7841413D01*
X52325383Y-7841549D01*
X52374962Y-7841705D01*
X52419520Y-7841883D01*
X52459332Y-7842084D01*
X52494675Y-7842310D01*
X52525826Y-7842562D01*
X52553059Y-7842841D01*
X52576652Y-7843148D01*
X52596881Y-7843486D01*
X52614022Y-7843856D01*
X52628351Y-7844258D01*
X52640145Y-7844694D01*
X52649679Y-7845166D01*
X52657229Y-7845675D01*
X52663073Y-7846223D01*
X52667486Y-7846810D01*
X52670744Y-7847438D01*
X52673124Y-7848109D01*
X52676629Y-7849414D01*
X52697791Y-7861387D01*
X52717977Y-7878877D01*
X52734707Y-7899403D01*
X52745499Y-7920485D01*
X52745565Y-7920683D01*
X52746172Y-7922952D01*
X52746744Y-7926106D01*
X52747281Y-7930395D01*
X52747786Y-7936068D01*
X52748259Y-7943377D01*
X52748701Y-7952570D01*
X52749113Y-7963899D01*
X52749497Y-7977612D01*
X52749852Y-7993961D01*
X52750181Y-8013195D01*
X52750484Y-8035565D01*
X52750762Y-8061319D01*
X52751017Y-8090709D01*
X52751249Y-8123985D01*
X52751460Y-8161396D01*
X52751650Y-8203192D01*
X52751791Y-8241758D01*
X52751820Y-8249625D01*
G37*
%TO.C,J2*%
X12800000Y-25300000D02*
X28200000Y-25300000D01*
X28200000Y-25300000D02*
X28200000Y-33700000D01*
X28200000Y-33700000D02*
X12800000Y-33700000D01*
X12800000Y-33700000D02*
X12800000Y-25300000D01*
%TD*%
M02*
