%TF.GenerationSoftware,KiCad,Pcbnew,7.0.8*%
%TF.CreationDate,2024-01-10T16:11:44+11:00*%
%TF.ProjectId,cphp82001-pcb,63706870-3832-4303-9031-2d7063622e6b,2.2*%
%TF.SameCoordinates,Original*%
%TF.FileFunction,Copper,L1,Top*%
%TF.FilePolarity,Positive*%
%FSLAX46Y46*%
G04 Gerber Fmt 4.6, Leading zero omitted, Abs format (unit mm)*
G04 Created by KiCad (PCBNEW 7.0.8) date 2024-01-10 16:11:44*
%MOMM*%
%LPD*%
G01*
G04 APERTURE LIST*
G04 Aperture macros list*
%AMRoundRect*
0 Rectangle with rounded corners*
0 $1 Rounding radius*
0 $2 $3 $4 $5 $6 $7 $8 $9 X,Y pos of 4 corners*
0 Add a 4 corners polygon primitive as box body*
4,1,4,$2,$3,$4,$5,$6,$7,$8,$9,$2,$3,0*
0 Add four circle primitives for the rounded corners*
1,1,$1+$1,$2,$3*
1,1,$1+$1,$4,$5*
1,1,$1+$1,$6,$7*
1,1,$1+$1,$8,$9*
0 Add four rect primitives between the rounded corners*
20,1,$1+$1,$2,$3,$4,$5,0*
20,1,$1+$1,$4,$5,$6,$7,0*
20,1,$1+$1,$6,$7,$8,$9,0*
20,1,$1+$1,$8,$9,$2,$3,0*%
G04 Aperture macros list end*
%TA.AperFunction,SMDPad,CuDef*%
%ADD10RoundRect,0.250000X-1.000000X-0.650000X1.000000X-0.650000X1.000000X0.650000X-1.000000X0.650000X0*%
%TD*%
%TA.AperFunction,SMDPad,CuDef*%
%ADD11RoundRect,0.225000X-0.375000X0.225000X-0.375000X-0.225000X0.375000X-0.225000X0.375000X0.225000X0*%
%TD*%
%TA.AperFunction,SMDPad,CuDef*%
%ADD12RoundRect,0.250000X-0.475000X0.250000X-0.475000X-0.250000X0.475000X-0.250000X0.475000X0.250000X0*%
%TD*%
%TA.AperFunction,SMDPad,CuDef*%
%ADD13RoundRect,0.243750X0.456250X-0.243750X0.456250X0.243750X-0.456250X0.243750X-0.456250X-0.243750X0*%
%TD*%
%TA.AperFunction,SMDPad,CuDef*%
%ADD14RoundRect,0.050000X-0.500000X-0.250000X0.500000X-0.250000X0.500000X0.250000X-0.500000X0.250000X0*%
%TD*%
%TA.AperFunction,SMDPad,CuDef*%
%ADD15RoundRect,0.250000X-0.250000X-0.475000X0.250000X-0.475000X0.250000X0.475000X-0.250000X0.475000X0*%
%TD*%
%TA.AperFunction,SMDPad,CuDef*%
%ADD16RoundRect,0.050000X0.250000X-0.500000X0.250000X0.500000X-0.250000X0.500000X-0.250000X-0.500000X0*%
%TD*%
%TA.AperFunction,SMDPad,CuDef*%
%ADD17R,1.800000X0.400000*%
%TD*%
%TA.AperFunction,ComponentPad*%
%ADD18O,1.800000X1.100000*%
%TD*%
%TA.AperFunction,SMDPad,CuDef*%
%ADD19R,1.000000X1.100000*%
%TD*%
%TA.AperFunction,SMDPad,CuDef*%
%ADD20RoundRect,0.250000X0.262500X0.450000X-0.262500X0.450000X-0.262500X-0.450000X0.262500X-0.450000X0*%
%TD*%
%TA.AperFunction,SMDPad,CuDef*%
%ADD21RoundRect,0.250000X-1.075000X0.375000X-1.075000X-0.375000X1.075000X-0.375000X1.075000X0.375000X0*%
%TD*%
%TA.AperFunction,SMDPad,CuDef*%
%ADD22RoundRect,0.250000X-0.262500X-0.450000X0.262500X-0.450000X0.262500X0.450000X-0.262500X0.450000X0*%
%TD*%
%TA.AperFunction,SMDPad,CuDef*%
%ADD23RoundRect,0.250000X0.250000X0.475000X-0.250000X0.475000X-0.250000X-0.475000X0.250000X-0.475000X0*%
%TD*%
%TA.AperFunction,SMDPad,CuDef*%
%ADD24RoundRect,0.150000X-0.587500X-0.150000X0.587500X-0.150000X0.587500X0.150000X-0.587500X0.150000X0*%
%TD*%
%TA.AperFunction,SMDPad,CuDef*%
%ADD25RoundRect,0.050000X-0.250000X0.500000X-0.250000X-0.500000X0.250000X-0.500000X0.250000X0.500000X0*%
%TD*%
%TA.AperFunction,SMDPad,CuDef*%
%ADD26RoundRect,0.250000X0.450000X-0.262500X0.450000X0.262500X-0.450000X0.262500X-0.450000X-0.262500X0*%
%TD*%
%TA.AperFunction,SMDPad,CuDef*%
%ADD27RoundRect,0.250000X-0.450000X0.262500X-0.450000X-0.262500X0.450000X-0.262500X0.450000X0.262500X0*%
%TD*%
%TA.AperFunction,SMDPad,CuDef*%
%ADD28RoundRect,0.150000X-0.625000X0.150000X-0.625000X-0.150000X0.625000X-0.150000X0.625000X0.150000X0*%
%TD*%
%TA.AperFunction,SMDPad,CuDef*%
%ADD29RoundRect,0.250000X-0.650000X0.350000X-0.650000X-0.350000X0.650000X-0.350000X0.650000X0.350000X0*%
%TD*%
%TA.AperFunction,SMDPad,CuDef*%
%ADD30RoundRect,0.050000X0.500000X0.250000X-0.500000X0.250000X-0.500000X-0.250000X0.500000X-0.250000X0*%
%TD*%
%TA.AperFunction,SMDPad,CuDef*%
%ADD31RoundRect,0.225000X0.225000X0.375000X-0.225000X0.375000X-0.225000X-0.375000X0.225000X-0.375000X0*%
%TD*%
%TA.AperFunction,ViaPad*%
%ADD32C,0.800000*%
%TD*%
%TA.AperFunction,ViaPad*%
%ADD33C,1.200000*%
%TD*%
%TA.AperFunction,Conductor*%
%ADD34C,0.400000*%
%TD*%
%TA.AperFunction,Conductor*%
%ADD35C,0.250000*%
%TD*%
%TA.AperFunction,Conductor*%
%ADD36C,0.800000*%
%TD*%
G04 APERTURE END LIST*
D10*
%TO.P,D2,1,K*%
%TO.N,/VCC*%
X22400000Y-2950000D03*
%TO.P,D2,2,A*%
%TO.N,/GND*%
X26400000Y-2950000D03*
%TD*%
D11*
%TO.P,D4,1,K*%
%TO.N,/VCC*%
X30300000Y-2650000D03*
%TO.P,D4,2,A*%
%TO.N,/VOUT*%
X30300000Y-5950000D03*
%TD*%
D12*
%TO.P,C5,1*%
%TO.N,/B+*%
X48700000Y-6350000D03*
%TO.P,C5,2*%
%TO.N,/GND*%
X48700000Y-8250000D03*
%TD*%
D13*
%TO.P,D3,1,K*%
%TO.N,/CHG*%
X28000000Y-7675000D03*
%TO.P,D3,2,A*%
%TO.N,/LCHG*%
X28000000Y-5800000D03*
%TD*%
D14*
%TO.P,U6,1,IN*%
%TO.N,/VBUS1*%
X7800000Y-3850000D03*
%TO.P,U6,2,GND*%
%TO.N,/GND*%
X7800000Y-4800000D03*
%TO.P,U6,3,~{EN}*%
X7800000Y-5750000D03*
%TO.P,U6,4,~{FLAG}*%
%TO.N,unconnected-(U6-~{FLAG}-Pad4)*%
X10400000Y-5750000D03*
%TO.P,U6,5,OUT*%
%TO.N,/VBUS*%
X10400000Y-3850000D03*
%TD*%
D15*
%TO.P,C7,1*%
%TO.N,/VOUT*%
X30250000Y-7800000D03*
%TO.P,C7,2*%
%TO.N,/GND*%
X32150000Y-7800000D03*
%TD*%
%TO.P,C6,1*%
%TO.N,/VBUS1*%
X8400000Y-8000000D03*
%TO.P,C6,2*%
%TO.N,/GND*%
X10300000Y-8000000D03*
%TD*%
D16*
%TO.P,U1,1,TS*%
%TO.N,/TS*%
X18025000Y-7837500D03*
%TO.P,U1,2,VOUT*%
%TO.N,/B+*%
X18975000Y-7837500D03*
%TO.P,U1,3,~{CHG}*%
%TO.N,/CHG*%
X19925000Y-7837500D03*
%TO.P,U1,4,ISET*%
%TO.N,/PROG*%
X19925000Y-5237500D03*
%TO.P,U1,5,GND*%
%TO.N,/GND*%
X18975000Y-5237500D03*
%TO.P,U1,6,VIN*%
%TO.N,/VCC*%
X18025000Y-5237500D03*
%TD*%
D17*
%TO.P,J1,1,VBUS*%
%TO.N,/VBUS1*%
X5190000Y-3875000D03*
%TO.P,J1,2,D-*%
%TO.N,unconnected-(J1-D--Pad2)*%
X5190000Y-4525000D03*
%TO.P,J1,3,D+*%
%TO.N,unconnected-(J1-D+-Pad3)*%
X5190000Y-5167222D03*
%TO.P,J1,4,ID*%
%TO.N,unconnected-(J1-ID-Pad4)*%
X5190000Y-5825000D03*
%TO.P,J1,5,GND*%
%TO.N,/GND*%
X5190000Y-6475000D03*
D18*
%TO.P,J1,6,Shield*%
X5800000Y-1600000D03*
X2330000Y-1600000D03*
D19*
X1180000Y-3675000D03*
X1180000Y-6675000D03*
D18*
X5800000Y-8750000D03*
X2330000Y-8750000D03*
%TD*%
D12*
%TO.P,C4,1*%
%TO.N,Net-(U4-SENSE)*%
X44700000Y-6350000D03*
%TO.P,C4,2*%
%TO.N,/GND*%
X44700000Y-8250000D03*
%TD*%
D20*
%TO.P,R1,1*%
%TO.N,/PROG2*%
X23462500Y-5800000D03*
%TO.P,R1,2*%
%TO.N,/PROG*%
X21637500Y-5800000D03*
%TD*%
D21*
%TO.P,F1,1*%
%TO.N,/GND*%
X53300000Y-9800000D03*
%TO.P,F1,2*%
%TO.N,/GNDF*%
X53300000Y-12600000D03*
%TD*%
D22*
%TO.P,R8,1*%
%TO.N,/GND*%
X21625000Y-7800000D03*
%TO.P,R8,2*%
%TO.N,/PROG2*%
X23450000Y-7800000D03*
%TD*%
D20*
%TO.P,R13,1*%
%TO.N,/GND*%
X16325000Y-8000000D03*
%TO.P,R13,2*%
%TO.N,/TS*%
X14500000Y-8000000D03*
%TD*%
D23*
%TO.P,C3,1*%
%TO.N,/VREG*%
X35700000Y-7800000D03*
%TO.P,C3,2*%
%TO.N,/GND*%
X33800000Y-7800000D03*
%TD*%
D24*
%TO.P,Q1,1,G*%
%TO.N,/VBUS*%
X12200000Y-4250000D03*
%TO.P,Q1,2,S*%
%TO.N,/GND*%
X12200000Y-6150000D03*
%TO.P,Q1,3,D*%
%TO.N,/PROG2*%
X14075000Y-5200000D03*
%TD*%
D25*
%TO.P,U4,1,~{RESET}*%
%TO.N,/EN*%
X44350000Y-2025000D03*
%TO.P,U4,2,GND*%
%TO.N,/GND*%
X43400000Y-2025000D03*
%TO.P,U4,3,~{MR}*%
%TO.N,unconnected-(U4-~{MR}-Pad3)*%
X42450000Y-2025000D03*
%TO.P,U4,4,CT*%
%TO.N,Net-(U4-CT)*%
X42450000Y-4625000D03*
%TO.P,U4,5,SENSE*%
%TO.N,Net-(U4-SENSE)*%
X43400000Y-4625000D03*
%TO.P,U4,6,VDD*%
%TO.N,/B+*%
X44350000Y-4625000D03*
%TD*%
D26*
%TO.P,R7,1*%
%TO.N,/GND*%
X46700000Y-8212500D03*
%TO.P,R7,2*%
%TO.N,Net-(U4-SENSE)*%
X46700000Y-6387500D03*
%TD*%
D25*
%TO.P,U3,1,VDD*%
%TO.N,/VREG*%
X34300000Y-2787500D03*
%TO.P,U3,2,GND*%
%TO.N,/GND*%
X33350000Y-2787500D03*
%TO.P,U3,3,EN*%
%TO.N,/EN*%
X32400000Y-2787500D03*
%TO.P,U3,4,NC*%
%TO.N,unconnected-(U3-NC-Pad4)*%
X32400000Y-5387500D03*
%TO.P,U3,5,OUT*%
%TO.N,/VOUT*%
X34300000Y-5387500D03*
%TD*%
D27*
%TO.P,R10,1*%
%TO.N,Net-(U4-CT)*%
X42700000Y-6387500D03*
%TO.P,R10,2*%
%TO.N,/B+*%
X42700000Y-8212500D03*
%TD*%
D26*
%TO.P,R2,1*%
%TO.N,/LCHG*%
X26050000Y-7612500D03*
%TO.P,R2,2*%
%TO.N,/VCC*%
X26050000Y-5787500D03*
%TD*%
D27*
%TO.P,R5,1*%
%TO.N,/ADJ*%
X39700000Y-2037500D03*
%TO.P,R5,2*%
%TO.N,/GND*%
X39700000Y-3862500D03*
%TD*%
D28*
%TO.P,BT1,1,Pin_1*%
%TO.N,/B+*%
X50675000Y-3800000D03*
%TO.P,BT1,2,Pin_2*%
%TO.N,/TS*%
X50675000Y-4800000D03*
%TO.P,BT1,3,Pin_3*%
%TO.N,/GND*%
X50675000Y-5800000D03*
D29*
%TO.P,BT1,MP*%
%TO.N,N/C*%
X53200000Y-2500000D03*
X53200000Y-7100000D03*
%TD*%
D22*
%TO.P,R4,1*%
%TO.N,/VREG*%
X36000000Y-2200000D03*
%TO.P,R4,2*%
%TO.N,/ADJ*%
X37825000Y-2200000D03*
%TD*%
%TO.P,R11,1*%
%TO.N,/EN*%
X46187500Y-2200000D03*
%TO.P,R11,2*%
%TO.N,/B+*%
X48012500Y-2200000D03*
%TD*%
D30*
%TO.P,U2,1,IN*%
%TO.N,/B+*%
X40375000Y-8000000D03*
%TO.P,U2,2,GND*%
%TO.N,/GND*%
X40375000Y-7050000D03*
%TO.P,U2,3,EN*%
%TO.N,/EN*%
X40375000Y-6100000D03*
%TO.P,U2,4,ADJ*%
%TO.N,/ADJ*%
X37775000Y-6100000D03*
%TO.P,U2,5,OUT*%
%TO.N,/VREG*%
X37775000Y-8000000D03*
%TD*%
D22*
%TO.P,R9,1*%
%TO.N,/GND*%
X8450000Y-1975000D03*
%TO.P,R9,2*%
%TO.N,/VBUS*%
X10275000Y-1975000D03*
%TD*%
D31*
%TO.P,D1,1,K*%
%TO.N,/VCC*%
X15400000Y-2250000D03*
%TO.P,D1,2,A*%
%TO.N,/VBUS*%
X12100000Y-2250000D03*
%TD*%
D12*
%TO.P,C1,1*%
%TO.N,/VCC*%
X16125000Y-4300000D03*
%TO.P,C1,2*%
%TO.N,/GND*%
X16125000Y-6200000D03*
%TD*%
D23*
%TO.P,C2,1*%
%TO.N,/ADJ*%
X37875000Y-4250000D03*
%TO.P,C2,2*%
%TO.N,/VREG*%
X35975000Y-4250000D03*
%TD*%
D22*
%TO.P,R6,1*%
%TO.N,Net-(U4-SENSE)*%
X46187500Y-4400000D03*
%TO.P,R6,2*%
%TO.N,/B+*%
X48012500Y-4400000D03*
%TD*%
D32*
%TO.N,/GND*%
X5000000Y-32500000D03*
X5000000Y-22000000D03*
X39000000Y-8150000D03*
X39000000Y-7050000D03*
X41400000Y-10250000D03*
X2500000Y-42000000D03*
X20400000Y-6500000D03*
X34400000Y-4100000D03*
X4500000Y-13500000D03*
X39000000Y-5950000D03*
X32300000Y-4100000D03*
X28400000Y-2300000D03*
X20800000Y-8600000D03*
X18975000Y-6537500D03*
X44800000Y-9700000D03*
X17500000Y-6500000D03*
X41450000Y-7050000D03*
X41400000Y-8700000D03*
X37750000Y-7000000D03*
X51000000Y-15000000D03*
X51000000Y-8000000D03*
X52500000Y-42500000D03*
X33350000Y-4087500D03*
X19000000Y-3800000D03*
X46900000Y-9700000D03*
X36000000Y-40000000D03*
X20200000Y-3800000D03*
X50200000Y-2500000D03*
X20000000Y-40000000D03*
X52700000Y-5800000D03*
X50500000Y-23500000D03*
X49500000Y-32000000D03*
X14500000Y-6200000D03*
X33350000Y-5100000D03*
X28400000Y-3400000D03*
X43400000Y-3300000D03*
D33*
%TO.N,/VOUT*%
X30300000Y-9700000D03*
D32*
%TO.N,/EN*%
X41250000Y-2150000D03*
X45200000Y-2187500D03*
X31600000Y-2950000D03*
%TO.N,/PROG2*%
X14000000Y-4350000D03*
X24500000Y-5800000D03*
%TO.N,/TS*%
X52100000Y-4800000D03*
X18025000Y-9000000D03*
D33*
%TO.N,/GNDF*%
X21600000Y-19900000D03*
X19400000Y-19900000D03*
%TD*%
D34*
%TO.N,/B+*%
X50000000Y-10400000D02*
X50000000Y-7400000D01*
X50000000Y-7400000D02*
X49450000Y-6850000D01*
X42700000Y-11650000D02*
X48750000Y-11650000D01*
X48750000Y-11650000D02*
X50000000Y-10400000D01*
X49300000Y-6700000D02*
X49450000Y-6850000D01*
X49300000Y-5750000D02*
X49300000Y-4400000D01*
X49300000Y-4400000D02*
X49300000Y-3800000D01*
X40212500Y-8000000D02*
X40212500Y-11637500D01*
X49300000Y-5750000D02*
X49300000Y-6700000D01*
X44350000Y-4600000D02*
X45650000Y-3300000D01*
X48012500Y-4400000D02*
X49300000Y-4400000D01*
X49300000Y-3300000D02*
X49300000Y-2500000D01*
X42700000Y-8212500D02*
X42700000Y-11650000D01*
X18975000Y-7675000D02*
X18975000Y-9850000D01*
X49300000Y-3800000D02*
X49300000Y-3300000D01*
X18975000Y-9850000D02*
X20775000Y-11650000D01*
X49000000Y-2200000D02*
X48012500Y-2200000D01*
X48012500Y-3287500D02*
X49287500Y-3287500D01*
X50675000Y-3800000D02*
X49300000Y-3800000D01*
X49287500Y-3287500D02*
X49300000Y-3300000D01*
X20775000Y-11650000D02*
X40200000Y-11650000D01*
X48700000Y-6350000D02*
X49300000Y-5750000D01*
X44350000Y-4625000D02*
X44350000Y-4600000D01*
X40212500Y-11637500D02*
X40200000Y-11650000D01*
X49300000Y-2500000D02*
X49000000Y-2200000D01*
X40200000Y-11650000D02*
X42700000Y-11650000D01*
X49450000Y-6850000D02*
X48950000Y-6350000D01*
X45650000Y-3300000D02*
X48012500Y-3300000D01*
X48012500Y-3287500D02*
X48000000Y-3300000D01*
D35*
%TO.N,Net-(U4-SENSE)*%
X46700000Y-6387500D02*
X44737500Y-6387500D01*
X46350000Y-4562500D02*
X46350000Y-6037500D01*
X43400000Y-5350000D02*
X44400000Y-6350000D01*
X46350000Y-6037500D02*
X46700000Y-6387500D01*
X46187500Y-4400000D02*
X46350000Y-4562500D01*
X43400000Y-4462500D02*
X43400000Y-5350000D01*
X44400000Y-6350000D02*
X44625000Y-6350000D01*
D34*
%TO.N,/VCC*%
X26050000Y-4750000D02*
X26100000Y-4700000D01*
X30281371Y-2650000D02*
X30300000Y-2650000D01*
X28231371Y-4700000D02*
X30281371Y-2650000D01*
X26100000Y-4700000D02*
X28231371Y-4700000D01*
X26050000Y-5787500D02*
X26050000Y-4750000D01*
X22400000Y-2950000D02*
X22400000Y-3700000D01*
X23400000Y-4700000D02*
X26100000Y-4700000D01*
X22400000Y-3700000D02*
X23400000Y-4700000D01*
%TO.N,/GND*%
X18975000Y-5400000D02*
X18975000Y-6400106D01*
X18975000Y-6400106D02*
X18962106Y-6413000D01*
%TO.N,/VREG*%
X35700000Y-8000000D02*
X38100000Y-8000000D01*
X34700000Y-2200000D02*
X36000000Y-2200000D01*
X35975000Y-2225000D02*
X35975000Y-4250000D01*
X35700000Y-4525000D02*
X35700000Y-8000000D01*
X34300000Y-2600000D02*
X34700000Y-2200000D01*
X35975000Y-4250000D02*
X35700000Y-4525000D01*
D35*
%TO.N,Net-(U4-CT)*%
X42450000Y-4462500D02*
X42450000Y-6137500D01*
%TO.N,/CHG*%
X19925000Y-9400000D02*
X19925000Y-7675000D01*
X20725000Y-10200000D02*
X19925000Y-9400000D01*
X26750000Y-10200000D02*
X20725000Y-10200000D01*
X28000000Y-7675000D02*
X28000000Y-8950000D01*
X28000000Y-8950000D02*
X26750000Y-10200000D01*
%TO.N,/LCHG*%
X26187500Y-7612500D02*
X28000000Y-5800000D01*
D34*
%TO.N,/VOUT*%
X34300000Y-5387500D02*
X34300000Y-6150000D01*
X30300000Y-6800000D02*
X30300000Y-7750000D01*
X30500000Y-5950000D02*
X30300000Y-5950000D01*
X30250000Y-7700000D02*
X30250000Y-7800000D01*
X30300000Y-7750000D02*
X30250000Y-7800000D01*
X30300000Y-5950000D02*
X30300000Y-6800000D01*
X33775000Y-6675000D02*
X31275000Y-6675000D01*
X31275000Y-6675000D02*
X30250000Y-7700000D01*
X34300000Y-6150000D02*
X33775000Y-6675000D01*
X30300000Y-9700000D02*
X30300000Y-7750000D01*
D35*
%TO.N,/PROG*%
X19925000Y-5400000D02*
X21237500Y-5400000D01*
X21237500Y-5400000D02*
X21637500Y-5800000D01*
%TO.N,/EN*%
X41250000Y-4650000D02*
X40375000Y-5525000D01*
X31600000Y-2950000D02*
X32400000Y-2950000D01*
X44350000Y-2187500D02*
X45200000Y-2187500D01*
X45200000Y-2187500D02*
X46175000Y-2187500D01*
X40375000Y-5525000D02*
X40375000Y-6100000D01*
X41250000Y-2150000D02*
X41250000Y-4650000D01*
%TO.N,/ADJ*%
X37875000Y-4250000D02*
X37875000Y-2250000D01*
X37875000Y-5840000D02*
X37875000Y-4250000D01*
X39525000Y-2200000D02*
X37825000Y-2200000D01*
%TO.N,/PROG2*%
X14000000Y-5200000D02*
X14000000Y-4350000D01*
X24500000Y-5800000D02*
X23462500Y-5800000D01*
X23462500Y-5800000D02*
X23462500Y-7787500D01*
%TO.N,/TS*%
X52100000Y-4800000D02*
X50675000Y-4800000D01*
X18025000Y-9175000D02*
X17600000Y-9600000D01*
X17600000Y-9600000D02*
X14900000Y-9600000D01*
X18025000Y-7837500D02*
X18025000Y-9175000D01*
X14500000Y-9200000D02*
X14500000Y-8000000D01*
X14900000Y-9600000D02*
X14500000Y-9200000D01*
D34*
%TO.N,/VBUS1*%
X9400000Y-6800000D02*
X9400000Y-4300000D01*
X8400000Y-7800000D02*
X9400000Y-6800000D01*
X9400000Y-4300000D02*
X8975000Y-3875000D01*
X8975000Y-3875000D02*
X5190000Y-3875000D01*
D36*
%TO.N,/GNDF*%
X21600000Y-19900000D02*
X49900000Y-19900000D01*
X21600000Y-19900000D02*
X19400000Y-19900000D01*
X53300000Y-16500000D02*
X53300000Y-12600000D01*
X49900000Y-19900000D02*
X53300000Y-16500000D01*
%TD*%
%TA.AperFunction,Conductor*%
%TO.N,/VCC*%
G36*
X23843039Y-1519685D02*
G01*
X23888794Y-1572489D01*
X23900000Y-1624000D01*
X23900000Y-4775500D01*
X23880315Y-4842539D01*
X23827511Y-4888294D01*
X23776000Y-4899500D01*
X23145734Y-4899500D01*
X23143288Y-4899729D01*
X23137502Y-4900000D01*
X21962498Y-4900000D01*
X21956711Y-4899729D01*
X21954266Y-4899500D01*
X21320734Y-4899500D01*
X21318288Y-4899729D01*
X21312502Y-4900000D01*
X21224000Y-4900000D01*
X21156961Y-4880315D01*
X21111206Y-4827511D01*
X21100000Y-4776000D01*
X21100000Y-2600000D01*
X18300000Y-2600000D01*
X18300000Y-5076000D01*
X18280315Y-5143039D01*
X18227511Y-5188794D01*
X18176000Y-5200000D01*
X15137000Y-5200000D01*
X15069961Y-5180315D01*
X15024206Y-5127511D01*
X15013000Y-5076000D01*
X15013000Y-5016739D01*
X15003073Y-4948608D01*
X15003073Y-4948607D01*
X14951698Y-4843517D01*
X14951696Y-4843515D01*
X14951696Y-4843514D01*
X14868985Y-4760803D01*
X14763891Y-4709426D01*
X14706121Y-4701009D01*
X14642620Y-4671864D01*
X14604957Y-4613015D01*
X14600000Y-4578305D01*
X14600000Y-4397226D01*
X14600531Y-4389124D01*
X14605682Y-4349999D01*
X14600531Y-4310875D01*
X14600000Y-4302773D01*
X14600000Y-1624000D01*
X14619685Y-1556961D01*
X14672489Y-1511206D01*
X14724000Y-1500000D01*
X23776000Y-1500000D01*
X23843039Y-1519685D01*
G37*
%TD.AperFunction*%
%TD*%
%TA.AperFunction,Conductor*%
%TO.N,/VBUS*%
G36*
X12115677Y-1219685D02*
G01*
X12136319Y-1236319D01*
X12863681Y-1963681D01*
X12897166Y-2025004D01*
X12900000Y-2051362D01*
X12900000Y-4626000D01*
X12880315Y-4693039D01*
X12827511Y-4738794D01*
X12776000Y-4750000D01*
X9924500Y-4750000D01*
X9857461Y-4730315D01*
X9811706Y-4677511D01*
X9800500Y-4626000D01*
X9800500Y-4230003D01*
X9800000Y-4223652D01*
X9800000Y-1324000D01*
X9819685Y-1256961D01*
X9872489Y-1211206D01*
X9924000Y-1200000D01*
X12048638Y-1200000D01*
X12115677Y-1219685D01*
G37*
%TD.AperFunction*%
%TD*%
%TA.AperFunction,Conductor*%
%TO.N,/GND*%
G36*
X1385710Y-519685D02*
G01*
X1431465Y-572489D01*
X1441409Y-641647D01*
X1412384Y-705203D01*
X1397336Y-719853D01*
X1233944Y-853944D01*
X1102732Y-1013826D01*
X1102728Y-1013833D01*
X1005233Y-1196233D01*
X958590Y-1350000D01*
X1955376Y-1350000D01*
X1882455Y-1364505D01*
X1799760Y-1419760D01*
X1744505Y-1502455D01*
X1725102Y-1600000D01*
X1744505Y-1697545D01*
X1799760Y-1780240D01*
X1882455Y-1835495D01*
X1955376Y-1850000D01*
X958590Y-1850000D01*
X1005233Y-2003766D01*
X1102728Y-2186166D01*
X1102732Y-2186173D01*
X1233944Y-2346055D01*
X1389078Y-2473371D01*
X1428412Y-2531117D01*
X1429551Y-2573638D01*
X1430000Y-2573638D01*
X1430000Y-2590397D01*
X1430283Y-2600962D01*
X1430000Y-2601453D01*
X1430000Y-3425000D01*
X2180000Y-3425000D01*
X2180000Y-3077172D01*
X2179999Y-3077155D01*
X2173598Y-3017627D01*
X2173596Y-3017620D01*
X2123354Y-2882913D01*
X2123352Y-2882911D01*
X2069471Y-2810934D01*
X2045054Y-2745470D01*
X2059905Y-2677197D01*
X2080000Y-2650354D01*
X2080000Y-1850000D01*
X2580000Y-1850000D01*
X2580000Y-2650000D01*
X2731585Y-2650000D01*
X2885834Y-2634808D01*
X3083766Y-2574766D01*
X3266166Y-2477271D01*
X3266173Y-2477267D01*
X3426055Y-2346055D01*
X3557267Y-2186173D01*
X3557271Y-2186166D01*
X3654766Y-2003766D01*
X3701410Y-1850000D01*
X2704624Y-1850000D01*
X2777545Y-1835495D01*
X2860240Y-1780240D01*
X2915495Y-1697545D01*
X2934898Y-1600000D01*
X2915495Y-1502455D01*
X2860240Y-1419760D01*
X2777545Y-1364505D01*
X2704624Y-1350000D01*
X3701410Y-1350000D01*
X3654766Y-1196233D01*
X3557271Y-1013833D01*
X3557267Y-1013826D01*
X3426055Y-853944D01*
X3262664Y-719853D01*
X3223330Y-662108D01*
X3221459Y-592263D01*
X3257646Y-532495D01*
X3320402Y-501779D01*
X3341329Y-500000D01*
X4788671Y-500000D01*
X4855710Y-519685D01*
X4901465Y-572489D01*
X4911409Y-641647D01*
X4882384Y-705203D01*
X4867336Y-719853D01*
X4703944Y-853944D01*
X4572732Y-1013826D01*
X4572728Y-1013833D01*
X4475233Y-1196233D01*
X4428590Y-1350000D01*
X5425376Y-1350000D01*
X5352455Y-1364505D01*
X5269760Y-1419760D01*
X5214505Y-1502455D01*
X5195102Y-1600000D01*
X5214505Y-1697545D01*
X5269760Y-1780240D01*
X5352455Y-1835495D01*
X5425376Y-1850000D01*
X4428590Y-1850000D01*
X4475233Y-2003766D01*
X4572728Y-2186166D01*
X4572732Y-2186173D01*
X4703944Y-2346055D01*
X4854548Y-2469652D01*
X4868585Y-2490260D01*
X4880641Y-2489961D01*
X4907124Y-2500411D01*
X5046233Y-2574766D01*
X5244165Y-2634808D01*
X5398415Y-2650000D01*
X5550000Y-2650000D01*
X5550000Y-1850000D01*
X6050000Y-1850000D01*
X6050000Y-2650000D01*
X6201585Y-2650000D01*
X6355834Y-2634808D01*
X6553766Y-2574766D01*
X6736166Y-2477271D01*
X6736173Y-2477267D01*
X6896055Y-2346055D01*
X7027267Y-2186173D01*
X7027271Y-2186166D01*
X7124766Y-2003766D01*
X7171410Y-1850000D01*
X6174624Y-1850000D01*
X6247545Y-1835495D01*
X6330240Y-1780240D01*
X6385495Y-1697545D01*
X6404898Y-1600000D01*
X6385495Y-1502455D01*
X6330240Y-1419760D01*
X6247545Y-1364505D01*
X6174624Y-1350000D01*
X7171410Y-1350000D01*
X7124766Y-1196233D01*
X7027271Y-1013833D01*
X7027267Y-1013826D01*
X6896055Y-853944D01*
X6732664Y-719853D01*
X6693330Y-662108D01*
X6691459Y-592263D01*
X6727646Y-532495D01*
X6790402Y-501779D01*
X6811329Y-500000D01*
X12288826Y-500000D01*
X12296924Y-500530D01*
X12388772Y-512622D01*
X12406116Y-514906D01*
X12437383Y-523284D01*
X12527808Y-560739D01*
X12555842Y-576924D01*
X12643224Y-643974D01*
X12649319Y-649319D01*
X13500000Y-1500000D01*
X13707114Y-1500000D01*
X14270500Y-1500000D01*
X14337539Y-1519685D01*
X14383294Y-1572489D01*
X14394500Y-1624000D01*
X14394500Y-3677851D01*
X14374815Y-3744890D01*
X14322011Y-3790645D01*
X14252853Y-3800589D01*
X14223048Y-3792412D01*
X14156765Y-3764957D01*
X14156760Y-3764955D01*
X14000001Y-3744318D01*
X13999999Y-3744318D01*
X13843239Y-3764955D01*
X13843237Y-3764956D01*
X13697160Y-3825463D01*
X13571718Y-3921718D01*
X13475463Y-4047160D01*
X13414956Y-4193237D01*
X13414955Y-4193239D01*
X13394318Y-4349998D01*
X13394318Y-4350001D01*
X13414955Y-4506760D01*
X13414956Y-4506762D01*
X13435310Y-4555900D01*
X13442779Y-4625370D01*
X13411504Y-4687849D01*
X13375209Y-4714754D01*
X13281934Y-4760353D01*
X13213061Y-4772112D01*
X13148764Y-4744768D01*
X13109457Y-4687004D01*
X13104738Y-4631296D01*
X13105500Y-4626000D01*
X13105500Y-4576255D01*
X13118099Y-4521795D01*
X13128073Y-4501393D01*
X13138000Y-4433260D01*
X13138000Y-4066740D01*
X13134380Y-4041893D01*
X13128074Y-3998611D01*
X13128073Y-3998609D01*
X13128073Y-3998607D01*
X13120571Y-3983260D01*
X13118099Y-3978203D01*
X13105500Y-3923745D01*
X13105500Y-2045862D01*
X13104910Y-2034856D01*
X13104910Y-2034855D01*
X13102805Y-2015279D01*
X13101488Y-2003035D01*
X13077529Y-1926518D01*
X13044044Y-1865195D01*
X13038255Y-1857462D01*
X13009001Y-1818384D01*
X13008998Y-1818381D01*
X13008991Y-1818371D01*
X12277737Y-1087117D01*
X12274485Y-1084196D01*
X12269552Y-1079763D01*
X12269554Y-1079764D01*
X12244623Y-1059674D01*
X12173575Y-1022509D01*
X12106543Y-1002826D01*
X12098016Y-1001600D01*
X12048638Y-994500D01*
X9924000Y-994500D01*
X9923992Y-994500D01*
X9880313Y-999197D01*
X9828807Y-1010402D01*
X9818629Y-1012889D01*
X9818624Y-1012891D01*
X9737916Y-1055899D01*
X9737913Y-1055901D01*
X9701894Y-1087112D01*
X9685111Y-1101655D01*
X9667159Y-1119243D01*
X9667154Y-1119249D01*
X9622511Y-1199059D01*
X9622509Y-1199064D01*
X9602826Y-1266096D01*
X9602825Y-1266101D01*
X9602825Y-1266102D01*
X9594715Y-1322510D01*
X9594500Y-1324003D01*
X9594500Y-1334507D01*
X9587542Y-1375461D01*
X9564853Y-1440301D01*
X9562000Y-1470730D01*
X9562000Y-2479269D01*
X9564853Y-2509698D01*
X9574304Y-2536706D01*
X9587227Y-2573638D01*
X9587541Y-2574533D01*
X9594500Y-2615489D01*
X9594500Y-3628744D01*
X9574815Y-3695783D01*
X9522011Y-3741538D01*
X9452853Y-3751482D01*
X9389297Y-3722457D01*
X9382819Y-3716425D01*
X9234287Y-3567893D01*
X9234256Y-3567864D01*
X9213342Y-3546950D01*
X9213341Y-3546949D01*
X9193600Y-3536890D01*
X9177014Y-3526726D01*
X9159090Y-3513704D01*
X9159091Y-3513704D01*
X9138018Y-3506857D01*
X9120045Y-3499412D01*
X9100307Y-3489355D01*
X9100304Y-3489354D01*
X9078418Y-3485887D01*
X9059507Y-3481346D01*
X9038439Y-3474501D01*
X9038434Y-3474500D01*
X9038433Y-3474500D01*
X9038429Y-3474500D01*
X8583697Y-3474500D01*
X8516658Y-3454815D01*
X8489313Y-3427953D01*
X8489234Y-3428033D01*
X8480603Y-3419402D01*
X8480601Y-3419399D01*
X8397740Y-3364034D01*
X8397738Y-3364033D01*
X8397735Y-3364032D01*
X8324677Y-3349500D01*
X8324674Y-3349500D01*
X7275326Y-3349500D01*
X7275323Y-3349500D01*
X7202264Y-3364032D01*
X7202260Y-3364034D01*
X7119401Y-3419397D01*
X7110766Y-3428033D01*
X7109990Y-3427257D01*
X7065796Y-3464195D01*
X7016303Y-3474500D01*
X5133460Y-3474500D01*
X5066421Y-3454815D01*
X5020666Y-3402011D01*
X5010722Y-3332853D01*
X5016620Y-3308975D01*
X5024053Y-3288060D01*
X5024053Y-3288058D01*
X5024054Y-3288056D01*
X5034381Y-3137079D01*
X5028481Y-3108687D01*
X5003594Y-2988921D01*
X5003592Y-2988918D01*
X5003592Y-2988915D01*
X4933971Y-2854553D01*
X4933967Y-2854549D01*
X4933967Y-2854548D01*
X4830681Y-2743956D01*
X4784243Y-2715717D01*
X4754223Y-2682762D01*
X4727410Y-2679638D01*
X4711457Y-2671454D01*
X4701386Y-2665330D01*
X4701384Y-2665329D01*
X4701383Y-2665328D01*
X4701382Y-2665328D01*
X4555665Y-2624500D01*
X4442342Y-2624500D01*
X4442341Y-2624500D01*
X4330082Y-2639929D01*
X4330079Y-2639930D01*
X4191283Y-2700217D01*
X4073889Y-2795724D01*
X3986623Y-2919352D01*
X3986621Y-2919355D01*
X3935946Y-3061939D01*
X3935946Y-3061942D01*
X3925619Y-3212918D01*
X3925619Y-3212921D01*
X3956405Y-3361078D01*
X3956407Y-3361083D01*
X3956408Y-3361085D01*
X4026029Y-3495447D01*
X4026031Y-3495449D01*
X4026032Y-3495451D01*
X4061162Y-3533065D01*
X4092534Y-3595495D01*
X4092157Y-3641890D01*
X4089500Y-3655249D01*
X4089500Y-4094752D01*
X4103515Y-4165209D01*
X4102239Y-4165462D01*
X4108317Y-4222023D01*
X4101303Y-4245910D01*
X4089500Y-4305247D01*
X4089500Y-4744752D01*
X4103515Y-4815209D01*
X4101071Y-4815694D01*
X4106705Y-4868140D01*
X4102287Y-4883183D01*
X4089500Y-4947469D01*
X4089500Y-5386974D01*
X4101132Y-5445453D01*
X4102460Y-5448659D01*
X4103271Y-5456208D01*
X4103515Y-5457432D01*
X4103405Y-5457453D01*
X4109929Y-5518129D01*
X4102460Y-5543563D01*
X4101132Y-5546768D01*
X4089500Y-5605247D01*
X4089500Y-5738443D01*
X4069815Y-5805482D01*
X4039812Y-5837709D01*
X3932809Y-5917812D01*
X3846649Y-6032906D01*
X3846645Y-6032913D01*
X3796403Y-6167620D01*
X3796401Y-6167627D01*
X3790000Y-6227155D01*
X3790000Y-6275000D01*
X6590000Y-6275000D01*
X6590000Y-6227172D01*
X6589999Y-6227155D01*
X6583598Y-6167627D01*
X6583596Y-6167620D01*
X6533354Y-6032913D01*
X6533350Y-6032906D01*
X6447190Y-5917812D01*
X6340188Y-5837709D01*
X6298318Y-5781775D01*
X6290500Y-5738443D01*
X6290500Y-5605249D01*
X6290499Y-5605247D01*
X6278869Y-5546775D01*
X6277541Y-5543570D01*
X6276728Y-5536012D01*
X6276485Y-5534790D01*
X6276594Y-5534768D01*
X6270069Y-5474101D01*
X6277541Y-5448652D01*
X6278864Y-5445456D01*
X6278867Y-5445453D01*
X6278867Y-5445448D01*
X6278869Y-5445446D01*
X6288470Y-5397175D01*
X6290500Y-5386970D01*
X6290500Y-4947474D01*
X6290500Y-4947471D01*
X6290499Y-4947469D01*
X6276485Y-4877012D01*
X6278930Y-4876525D01*
X6273290Y-4824104D01*
X6277709Y-4809054D01*
X6290499Y-4744752D01*
X6290500Y-4744750D01*
X6290500Y-4399500D01*
X6310185Y-4332461D01*
X6362989Y-4286706D01*
X6414500Y-4275500D01*
X7074150Y-4275500D01*
X7141189Y-4295185D01*
X7143029Y-4296390D01*
X7197014Y-4332461D01*
X7202260Y-4335966D01*
X7202264Y-4335967D01*
X7275321Y-4350499D01*
X7275324Y-4350500D01*
X7275326Y-4350500D01*
X8324676Y-4350500D01*
X8324677Y-4350499D01*
X8397740Y-4335966D01*
X8456960Y-4296396D01*
X8523638Y-4275520D01*
X8525850Y-4275500D01*
X8757745Y-4275500D01*
X8824784Y-4295185D01*
X8845426Y-4311819D01*
X8963181Y-4429574D01*
X8996666Y-4490897D01*
X8999500Y-4517255D01*
X8999500Y-6582745D01*
X8979815Y-6649784D01*
X8963181Y-6670426D01*
X8595426Y-7038181D01*
X8534103Y-7071666D01*
X8507745Y-7074500D01*
X8095730Y-7074500D01*
X8065300Y-7077353D01*
X8065298Y-7077353D01*
X7937119Y-7122206D01*
X7937117Y-7122207D01*
X7827850Y-7202850D01*
X7747207Y-7312117D01*
X7747206Y-7312119D01*
X7702353Y-7440298D01*
X7702353Y-7440300D01*
X7699500Y-7470730D01*
X7699500Y-8529269D01*
X7702353Y-8559699D01*
X7702353Y-8559701D01*
X7745320Y-8682490D01*
X7747207Y-8687882D01*
X7827850Y-8797150D01*
X7937118Y-8877793D01*
X7979845Y-8892744D01*
X8065299Y-8922646D01*
X8095730Y-8925500D01*
X8095734Y-8925500D01*
X8704270Y-8925500D01*
X8734699Y-8922646D01*
X8734701Y-8922646D01*
X8806145Y-8897646D01*
X8862882Y-8877793D01*
X8972150Y-8797150D01*
X9052793Y-8687882D01*
X9075158Y-8623964D01*
X9115877Y-8567192D01*
X9180830Y-8541444D01*
X9249392Y-8554900D01*
X9299795Y-8603287D01*
X9309904Y-8625917D01*
X9365642Y-8794121D01*
X9365643Y-8794124D01*
X9457684Y-8943345D01*
X9581654Y-9067315D01*
X9730875Y-9159356D01*
X9730880Y-9159358D01*
X9897302Y-9214505D01*
X9897309Y-9214506D01*
X10000019Y-9224999D01*
X10049999Y-9224998D01*
X10050000Y-9224998D01*
X10050000Y-8250000D01*
X10550000Y-8250000D01*
X10550000Y-9224999D01*
X10599972Y-9224999D01*
X10599986Y-9224998D01*
X10702697Y-9214505D01*
X10869119Y-9159358D01*
X10869124Y-9159356D01*
X11018345Y-9067315D01*
X11142315Y-8943345D01*
X11234356Y-8794124D01*
X11234358Y-8794119D01*
X11289505Y-8627697D01*
X11289506Y-8627690D01*
X11299999Y-8524986D01*
X11300000Y-8524973D01*
X11300000Y-8250000D01*
X10550000Y-8250000D01*
X10050000Y-8250000D01*
X10050000Y-6775000D01*
X10550000Y-6775000D01*
X10550000Y-7750000D01*
X11299999Y-7750000D01*
X11299999Y-7475028D01*
X11299998Y-7475013D01*
X11289505Y-7372302D01*
X11234358Y-7205880D01*
X11234356Y-7205875D01*
X11142315Y-7056654D01*
X11018345Y-6932684D01*
X10869124Y-6840643D01*
X10869119Y-6840641D01*
X10702697Y-6785494D01*
X10702690Y-6785493D01*
X10599986Y-6775000D01*
X10550000Y-6775000D01*
X10050000Y-6775000D01*
X10049999Y-6774999D01*
X10000029Y-6775000D01*
X10000009Y-6775001D01*
X9937101Y-6781428D01*
X9868408Y-6768658D01*
X9817524Y-6720777D01*
X9800500Y-6658070D01*
X9800500Y-6374500D01*
X9820185Y-6307461D01*
X9872989Y-6261706D01*
X9924500Y-6250500D01*
X10924676Y-6250500D01*
X10924677Y-6250499D01*
X10997740Y-6235966D01*
X11080601Y-6180601D01*
X11135966Y-6097740D01*
X11150500Y-6024674D01*
X11150500Y-5475326D01*
X11150500Y-5475323D01*
X11150499Y-5475321D01*
X11135967Y-5402264D01*
X11135966Y-5402260D01*
X11125750Y-5386970D01*
X11080601Y-5319399D01*
X11025235Y-5282405D01*
X10997739Y-5264033D01*
X10997735Y-5264032D01*
X10924677Y-5249500D01*
X10924674Y-5249500D01*
X9924500Y-5249500D01*
X9857461Y-5229815D01*
X9811706Y-5177011D01*
X9800500Y-5125500D01*
X9800500Y-5079500D01*
X9820185Y-5012461D01*
X9872989Y-4966706D01*
X9924500Y-4955500D01*
X12775991Y-4955500D01*
X12776000Y-4955500D01*
X12819684Y-4950803D01*
X12845439Y-4945200D01*
X12871193Y-4939598D01*
X12875374Y-4938575D01*
X12881373Y-4937110D01*
X12955050Y-4897848D01*
X13023465Y-4883694D01*
X13088677Y-4908776D01*
X13129977Y-4965133D01*
X13136485Y-5012253D01*
X13137000Y-5012253D01*
X13137000Y-5015978D01*
X13137036Y-5016239D01*
X13137000Y-5016736D01*
X13137000Y-5383260D01*
X13146926Y-5451391D01*
X13198303Y-5556485D01*
X13281014Y-5639196D01*
X13281015Y-5639196D01*
X13281017Y-5639198D01*
X13386107Y-5690573D01*
X13393362Y-5691630D01*
X13454239Y-5700500D01*
X13454240Y-5700500D01*
X14695761Y-5700500D01*
X14735190Y-5694755D01*
X14763893Y-5690573D01*
X14868983Y-5639198D01*
X14951698Y-5556483D01*
X14993169Y-5471651D01*
X15040295Y-5420070D01*
X15107829Y-5402155D01*
X15122210Y-5403373D01*
X15137000Y-5405500D01*
X17400500Y-5405500D01*
X17467539Y-5425185D01*
X17513294Y-5477989D01*
X17524500Y-5529500D01*
X17524500Y-5762178D01*
X17539032Y-5835235D01*
X17539033Y-5835239D01*
X17548562Y-5849500D01*
X17594399Y-5918101D01*
X17673243Y-5970782D01*
X17677260Y-5973466D01*
X17677264Y-5973467D01*
X17750321Y-5987999D01*
X17750324Y-5988000D01*
X17750326Y-5988000D01*
X18299676Y-5988000D01*
X18299677Y-5987999D01*
X18372740Y-5973466D01*
X18455601Y-5918101D01*
X18510966Y-5835240D01*
X18525500Y-5762174D01*
X18525500Y-4712826D01*
X18525500Y-4712823D01*
X18508584Y-4627783D01*
X18510568Y-4627388D01*
X18505500Y-4601898D01*
X18505500Y-2929500D01*
X18525185Y-2862461D01*
X18577989Y-2816706D01*
X18629500Y-2805500D01*
X20770500Y-2805500D01*
X20837539Y-2825185D01*
X20883294Y-2877989D01*
X20894500Y-2929500D01*
X20894500Y-4776007D01*
X20899197Y-4819686D01*
X20910402Y-4871193D01*
X20912889Y-4881370D01*
X20912892Y-4881377D01*
X20918651Y-4892184D01*
X20932808Y-4960605D01*
X20907726Y-5025817D01*
X20851369Y-5067117D01*
X20809220Y-5074500D01*
X20549500Y-5074500D01*
X20482461Y-5054815D01*
X20436706Y-5002011D01*
X20425500Y-4950500D01*
X20425500Y-4712823D01*
X20425499Y-4712821D01*
X20410967Y-4639764D01*
X20410966Y-4639760D01*
X20390998Y-4609876D01*
X20355601Y-4556899D01*
X20293154Y-4515174D01*
X20272739Y-4501533D01*
X20272735Y-4501532D01*
X20199677Y-4487000D01*
X20199674Y-4487000D01*
X19650326Y-4487000D01*
X19650323Y-4487000D01*
X19577264Y-4501532D01*
X19577260Y-4501533D01*
X19494399Y-4556899D01*
X19439033Y-4639760D01*
X19439032Y-4639764D01*
X19424500Y-4712821D01*
X19424500Y-5762178D01*
X19439032Y-5835235D01*
X19439033Y-5835239D01*
X19448562Y-5849500D01*
X19494399Y-5918101D01*
X19573243Y-5970782D01*
X19577260Y-5973466D01*
X19577264Y-5973467D01*
X19650321Y-5987999D01*
X19650324Y-5988000D01*
X19650326Y-5988000D01*
X20199676Y-5988000D01*
X20199677Y-5987999D01*
X20272740Y-5973466D01*
X20355601Y-5918101D01*
X20410966Y-5835240D01*
X20412941Y-5825309D01*
X20445326Y-5763398D01*
X20506042Y-5728824D01*
X20534559Y-5725500D01*
X20800500Y-5725500D01*
X20867539Y-5745185D01*
X20913294Y-5797989D01*
X20924500Y-5849500D01*
X20924500Y-6304269D01*
X20927353Y-6334699D01*
X20927353Y-6334701D01*
X20972206Y-6462880D01*
X20972207Y-6462882D01*
X21052850Y-6572150D01*
X21162118Y-6652793D01*
X21197861Y-6665300D01*
X21290299Y-6697646D01*
X21320730Y-6700500D01*
X21320734Y-6700500D01*
X21954270Y-6700500D01*
X21984699Y-6697646D01*
X21984701Y-6697646D01*
X22051038Y-6674433D01*
X22112882Y-6652793D01*
X22222150Y-6572150D01*
X22302793Y-6462882D01*
X22333657Y-6374678D01*
X22347646Y-6334701D01*
X22347646Y-6334699D01*
X22350500Y-6304269D01*
X22350500Y-5295730D01*
X22347646Y-5265300D01*
X22346036Y-5257927D01*
X22348782Y-5257327D01*
X22345883Y-5200696D01*
X22380602Y-5140063D01*
X22442590Y-5107825D01*
X22466491Y-5105500D01*
X22633509Y-5105500D01*
X22700548Y-5125185D01*
X22746303Y-5177989D01*
X22756247Y-5247147D01*
X22753629Y-5257853D01*
X22753964Y-5257927D01*
X22752353Y-5265300D01*
X22749500Y-5295730D01*
X22749500Y-6304269D01*
X22752353Y-6334699D01*
X22752353Y-6334701D01*
X22797206Y-6462880D01*
X22797207Y-6462882D01*
X22877850Y-6572150D01*
X22987118Y-6652793D01*
X23053958Y-6676181D01*
X23110731Y-6716901D01*
X23136478Y-6781854D01*
X23137000Y-6793221D01*
X23137000Y-6802404D01*
X23117315Y-6869443D01*
X23064511Y-6915198D01*
X23053956Y-6919445D01*
X22974617Y-6947207D01*
X22865350Y-7027850D01*
X22784707Y-7137117D01*
X22784706Y-7137119D01*
X22739853Y-7265298D01*
X22739853Y-7265300D01*
X22737000Y-7295730D01*
X22737000Y-8304269D01*
X22739853Y-8334699D01*
X22739853Y-8334701D01*
X22780777Y-8451652D01*
X22784707Y-8462882D01*
X22865350Y-8572150D01*
X22974618Y-8652793D01*
X23003445Y-8662880D01*
X23102799Y-8697646D01*
X23133230Y-8700500D01*
X23133234Y-8700500D01*
X23766770Y-8700500D01*
X23797199Y-8697646D01*
X23797201Y-8697646D01*
X23861918Y-8675000D01*
X23925382Y-8652793D01*
X24034650Y-8572150D01*
X24115293Y-8462882D01*
X24150531Y-8362178D01*
X24160146Y-8334701D01*
X24160146Y-8334699D01*
X24163000Y-8304269D01*
X24163000Y-7295730D01*
X24160146Y-7265300D01*
X24160146Y-7265298D01*
X24117325Y-7142925D01*
X24115293Y-7137118D01*
X24034650Y-7027850D01*
X23925382Y-6947207D01*
X23925379Y-6947206D01*
X23871044Y-6928193D01*
X23814268Y-6887471D01*
X23788522Y-6822518D01*
X23788000Y-6811152D01*
X23788000Y-6793221D01*
X23807685Y-6726182D01*
X23860489Y-6680427D01*
X23871022Y-6676188D01*
X23937882Y-6652793D01*
X24047150Y-6572150D01*
X24127793Y-6462882D01*
X24135536Y-6440751D01*
X24176256Y-6383977D01*
X24241208Y-6358229D01*
X24300027Y-6367145D01*
X24343238Y-6385044D01*
X24421619Y-6395363D01*
X24499999Y-6405682D01*
X24500000Y-6405682D01*
X24500001Y-6405682D01*
X24552254Y-6398802D01*
X24656762Y-6385044D01*
X24802841Y-6324536D01*
X24928282Y-6228282D01*
X24965016Y-6180408D01*
X25021440Y-6139207D01*
X25091186Y-6135052D01*
X25152107Y-6169263D01*
X25180431Y-6214940D01*
X25197207Y-6262882D01*
X25277850Y-6372150D01*
X25387118Y-6452793D01*
X25415945Y-6462880D01*
X25515299Y-6497646D01*
X25545730Y-6500500D01*
X26539812Y-6500500D01*
X26606851Y-6520185D01*
X26652606Y-6572989D01*
X26662550Y-6642147D01*
X26633525Y-6705703D01*
X26627493Y-6712181D01*
X26476493Y-6863181D01*
X26415170Y-6896666D01*
X26388812Y-6899500D01*
X25545730Y-6899500D01*
X25515300Y-6902353D01*
X25515298Y-6902353D01*
X25387119Y-6947206D01*
X25387117Y-6947207D01*
X25277850Y-7027850D01*
X25197207Y-7137117D01*
X25197206Y-7137119D01*
X25152353Y-7265298D01*
X25152353Y-7265300D01*
X25149500Y-7295730D01*
X25149500Y-7929269D01*
X25152353Y-7959699D01*
X25152353Y-7959701D01*
X25194333Y-8079669D01*
X25197207Y-8087882D01*
X25277850Y-8197150D01*
X25387118Y-8277793D01*
X25429845Y-8292744D01*
X25515299Y-8322646D01*
X25545730Y-8325500D01*
X25545734Y-8325500D01*
X26554270Y-8325500D01*
X26584699Y-8322646D01*
X26584701Y-8322646D01*
X26648790Y-8300219D01*
X26712882Y-8277793D01*
X26822150Y-8197150D01*
X26902793Y-8087882D01*
X26902794Y-8087876D01*
X26907133Y-8079669D01*
X26910015Y-8081192D01*
X26941172Y-8037717D01*
X27006114Y-8011945D01*
X27074681Y-8025374D01*
X27125103Y-8073741D01*
X27134571Y-8094460D01*
X27146546Y-8128681D01*
X27226069Y-8236430D01*
X27333819Y-8315954D01*
X27333821Y-8315955D01*
X27460218Y-8360184D01*
X27460222Y-8360184D01*
X27460226Y-8360186D01*
X27475231Y-8361593D01*
X27490232Y-8363000D01*
X27490236Y-8363000D01*
X27550500Y-8363000D01*
X27617539Y-8382685D01*
X27663294Y-8435489D01*
X27674500Y-8487000D01*
X27674500Y-8763812D01*
X27654815Y-8830851D01*
X27638181Y-8851493D01*
X26651493Y-9838181D01*
X26590170Y-9871666D01*
X26563812Y-9874500D01*
X20911188Y-9874500D01*
X20844149Y-9854815D01*
X20823507Y-9838181D01*
X20286819Y-9301493D01*
X20253334Y-9240170D01*
X20250500Y-9213812D01*
X20250500Y-8654605D01*
X20270185Y-8587566D01*
X20305609Y-8551503D01*
X20355601Y-8518101D01*
X20410966Y-8435240D01*
X20425500Y-8362174D01*
X20425500Y-7312826D01*
X20425500Y-7312823D01*
X20425499Y-7312821D01*
X20410967Y-7239764D01*
X20410966Y-7239760D01*
X20399999Y-7223347D01*
X20355601Y-7156899D01*
X20297907Y-7118350D01*
X20272739Y-7101533D01*
X20272735Y-7101532D01*
X20199677Y-7087000D01*
X20199674Y-7087000D01*
X19650326Y-7087000D01*
X19650323Y-7087000D01*
X19577264Y-7101532D01*
X19577261Y-7101533D01*
X19518889Y-7140535D01*
X19452211Y-7161411D01*
X19384831Y-7142925D01*
X19381111Y-7140535D01*
X19323967Y-7102354D01*
X19322740Y-7101534D01*
X19322739Y-7101533D01*
X19322738Y-7101533D01*
X19322735Y-7101532D01*
X19249677Y-7087000D01*
X19249674Y-7087000D01*
X18700326Y-7087000D01*
X18700323Y-7087000D01*
X18627264Y-7101532D01*
X18627261Y-7101533D01*
X18568889Y-7140535D01*
X18502211Y-7161411D01*
X18434831Y-7142925D01*
X18431111Y-7140535D01*
X18373967Y-7102354D01*
X18372740Y-7101534D01*
X18372739Y-7101533D01*
X18372738Y-7101533D01*
X18372735Y-7101532D01*
X18299677Y-7087000D01*
X18299674Y-7087000D01*
X17750326Y-7087000D01*
X17750323Y-7087000D01*
X17677264Y-7101532D01*
X17677260Y-7101533D01*
X17594399Y-7156899D01*
X17539033Y-7239760D01*
X17539032Y-7239764D01*
X17524500Y-7312821D01*
X17524500Y-8362178D01*
X17539032Y-8435235D01*
X17539034Y-8435239D01*
X17539034Y-8435240D01*
X17558037Y-8463681D01*
X17565262Y-8474493D01*
X17586140Y-8541171D01*
X17567655Y-8608551D01*
X17560536Y-8618870D01*
X17500464Y-8697157D01*
X17439956Y-8843237D01*
X17439955Y-8843239D01*
X17420586Y-8990370D01*
X17419318Y-9000000D01*
X17436090Y-9127400D01*
X17437001Y-9134315D01*
X17426235Y-9203350D01*
X17379856Y-9255606D01*
X17314062Y-9274500D01*
X15086189Y-9274500D01*
X15019150Y-9254815D01*
X14998508Y-9238181D01*
X14861819Y-9101492D01*
X14828334Y-9040169D01*
X14825500Y-9013811D01*
X14825500Y-8993221D01*
X14845185Y-8926182D01*
X14897989Y-8880427D01*
X14908522Y-8876188D01*
X14975382Y-8852793D01*
X15084650Y-8772150D01*
X15165293Y-8662882D01*
X15196581Y-8573466D01*
X15210146Y-8534701D01*
X15210146Y-8534699D01*
X15213000Y-8504269D01*
X15213000Y-7495730D01*
X15210146Y-7465300D01*
X15210146Y-7465298D01*
X15165293Y-7337119D01*
X15165292Y-7337117D01*
X15164886Y-7336567D01*
X15084650Y-7227850D01*
X14975382Y-7147207D01*
X14975380Y-7147206D01*
X14847200Y-7102353D01*
X14816770Y-7099500D01*
X14816766Y-7099500D01*
X14183234Y-7099500D01*
X14183230Y-7099500D01*
X14152800Y-7102353D01*
X14152798Y-7102353D01*
X14024619Y-7147206D01*
X14024617Y-7147207D01*
X13915350Y-7227850D01*
X13834707Y-7337117D01*
X13834706Y-7337119D01*
X13789853Y-7465298D01*
X13789853Y-7465300D01*
X13787000Y-7495730D01*
X13787000Y-8504269D01*
X13789853Y-8534699D01*
X13789853Y-8534701D01*
X13834706Y-8662880D01*
X13834707Y-8662882D01*
X13915350Y-8772150D01*
X14024618Y-8852793D01*
X14091458Y-8876181D01*
X14148231Y-8916901D01*
X14173978Y-8981854D01*
X14174500Y-8993221D01*
X14174500Y-9183078D01*
X14174264Y-9188485D01*
X14170735Y-9228808D01*
X14181212Y-9267910D01*
X14182383Y-9273190D01*
X14189411Y-9313043D01*
X14191235Y-9318055D01*
X14198197Y-9334861D01*
X14200445Y-9339681D01*
X14200446Y-9339684D01*
X14208003Y-9350476D01*
X14223655Y-9372831D01*
X14226561Y-9377392D01*
X14246806Y-9412455D01*
X14277815Y-9438475D01*
X14281805Y-9442131D01*
X14657868Y-9818195D01*
X14661523Y-9822184D01*
X14687541Y-9853190D01*
X14687542Y-9853191D01*
X14687545Y-9853194D01*
X14716387Y-9869845D01*
X14722604Y-9873435D01*
X14727154Y-9876333D01*
X14760316Y-9899553D01*
X14760318Y-9899553D01*
X14760319Y-9899554D01*
X14765168Y-9901815D01*
X14781947Y-9908765D01*
X14786952Y-9910587D01*
X14786953Y-9910587D01*
X14786955Y-9910588D01*
X14826829Y-9917618D01*
X14832092Y-9918786D01*
X14843907Y-9921951D01*
X14871193Y-9929263D01*
X14911510Y-9925735D01*
X14916912Y-9925500D01*
X17583078Y-9925500D01*
X17588481Y-9925735D01*
X17628807Y-9929264D01*
X17667940Y-9918777D01*
X17673162Y-9917619D01*
X17713045Y-9910588D01*
X17713050Y-9910584D01*
X17718099Y-9908747D01*
X17734824Y-9901819D01*
X17739681Y-9899554D01*
X17739684Y-9899554D01*
X17772841Y-9876335D01*
X17777390Y-9873438D01*
X17812455Y-9853194D01*
X17812459Y-9853190D01*
X17825052Y-9838181D01*
X17838481Y-9822176D01*
X17842122Y-9818202D01*
X18029375Y-9630949D01*
X18090696Y-9597466D01*
X18100866Y-9595693D01*
X18181762Y-9585044D01*
X18327841Y-9524536D01*
X18375014Y-9488338D01*
X18440183Y-9463145D01*
X18508627Y-9477183D01*
X18558617Y-9525997D01*
X18574500Y-9586715D01*
X18574500Y-9913429D01*
X18574501Y-9913439D01*
X18581346Y-9934507D01*
X18585887Y-9953418D01*
X18589354Y-9975304D01*
X18589355Y-9975307D01*
X18599412Y-9995045D01*
X18606857Y-10013018D01*
X18613704Y-10034090D01*
X18626726Y-10052014D01*
X18636890Y-10068600D01*
X18646950Y-10088342D01*
X18667864Y-10109256D01*
X18667893Y-10109287D01*
X20209108Y-11650500D01*
X20446950Y-11888342D01*
X20536658Y-11978050D01*
X20556395Y-11988106D01*
X20572981Y-11998269D01*
X20590910Y-12011296D01*
X20590912Y-12011296D01*
X20590913Y-12011297D01*
X20611974Y-12018140D01*
X20629953Y-12025586D01*
X20649696Y-12035646D01*
X20671585Y-12039112D01*
X20690501Y-12043653D01*
X20711567Y-12050499D01*
X20740924Y-12050499D01*
X20740948Y-12050500D01*
X20743481Y-12050500D01*
X40136567Y-12050500D01*
X40168481Y-12050500D01*
X42658725Y-12050500D01*
X42678120Y-12052026D01*
X42700000Y-12055492D01*
X42721879Y-12052026D01*
X42741275Y-12050500D01*
X48813431Y-12050500D01*
X48813433Y-12050500D01*
X48834501Y-12043654D01*
X48853417Y-12039112D01*
X48875304Y-12035646D01*
X48895044Y-12025586D01*
X48913011Y-12018144D01*
X48934090Y-12011296D01*
X48952026Y-11998263D01*
X48968588Y-11988114D01*
X48988342Y-11978050D01*
X49003834Y-11962557D01*
X49003841Y-11962552D01*
X50312552Y-10653841D01*
X50312557Y-10653834D01*
X50328050Y-10638342D01*
X50338114Y-10618588D01*
X50348263Y-10602026D01*
X50361296Y-10584090D01*
X50368144Y-10563011D01*
X50375586Y-10545044D01*
X50385646Y-10525304D01*
X50389112Y-10503417D01*
X50393655Y-10484498D01*
X50400500Y-10463433D01*
X50400500Y-10336567D01*
X50400500Y-10050000D01*
X51475001Y-10050000D01*
X51475001Y-10224986D01*
X51485494Y-10327697D01*
X51540641Y-10494119D01*
X51540643Y-10494124D01*
X51632684Y-10643345D01*
X51756654Y-10767315D01*
X51905875Y-10859356D01*
X51905880Y-10859358D01*
X52072302Y-10914505D01*
X52072309Y-10914506D01*
X52175019Y-10924999D01*
X53049999Y-10924999D01*
X53050000Y-10924998D01*
X53050000Y-10050000D01*
X51475001Y-10050000D01*
X50400500Y-10050000D01*
X50400500Y-9550000D01*
X51475000Y-9550000D01*
X53050000Y-9550000D01*
X53050000Y-8675000D01*
X52175028Y-8675000D01*
X52175012Y-8675001D01*
X52072302Y-8685494D01*
X51905880Y-8740641D01*
X51905875Y-8740643D01*
X51756654Y-8832684D01*
X51632684Y-8956654D01*
X51540643Y-9105875D01*
X51540641Y-9105880D01*
X51485494Y-9272302D01*
X51485493Y-9272309D01*
X51475000Y-9375013D01*
X51475000Y-9550000D01*
X50400500Y-9550000D01*
X50400500Y-7504269D01*
X52099500Y-7504269D01*
X52102353Y-7534699D01*
X52102353Y-7534701D01*
X52146505Y-7660877D01*
X52147207Y-7662882D01*
X52227850Y-7772150D01*
X52337118Y-7852793D01*
X52372861Y-7865300D01*
X52465299Y-7897646D01*
X52495730Y-7900500D01*
X52495734Y-7900500D01*
X53904270Y-7900500D01*
X53934699Y-7897646D01*
X53934701Y-7897646D01*
X54005911Y-7872728D01*
X54062882Y-7852793D01*
X54172150Y-7772150D01*
X54252793Y-7662882D01*
X54287226Y-7564479D01*
X54297646Y-7534701D01*
X54297646Y-7534699D01*
X54300500Y-7504269D01*
X54300500Y-6695730D01*
X54297646Y-6665300D01*
X54297646Y-6665298D01*
X54264006Y-6569163D01*
X54252793Y-6537118D01*
X54172150Y-6427850D01*
X54062882Y-6347207D01*
X54062880Y-6347206D01*
X53934700Y-6302353D01*
X53904270Y-6299500D01*
X53904266Y-6299500D01*
X52495734Y-6299500D01*
X52495730Y-6299500D01*
X52465300Y-6302353D01*
X52465298Y-6302353D01*
X52337119Y-6347206D01*
X52337117Y-6347207D01*
X52227850Y-6427850D01*
X52147207Y-6537117D01*
X52147206Y-6537119D01*
X52102353Y-6665298D01*
X52102353Y-6665300D01*
X52099500Y-6695730D01*
X52099500Y-7504269D01*
X50400500Y-7504269D01*
X50400500Y-7368481D01*
X50400500Y-7366159D01*
X50400499Y-7366129D01*
X50400499Y-7336568D01*
X50400499Y-7336567D01*
X50393653Y-7315501D01*
X50389111Y-7296580D01*
X50388977Y-7295734D01*
X50385646Y-7274696D01*
X50380859Y-7265301D01*
X50375586Y-7254952D01*
X50368140Y-7236974D01*
X50361297Y-7215913D01*
X50361296Y-7215912D01*
X50361296Y-7215910D01*
X50348269Y-7197981D01*
X50338104Y-7181392D01*
X50334847Y-7175000D01*
X50328050Y-7161658D01*
X50238342Y-7071950D01*
X49978072Y-6811679D01*
X49944588Y-6750358D01*
X49949572Y-6680666D01*
X49991444Y-6624733D01*
X50056908Y-6600316D01*
X50065754Y-6600000D01*
X50425000Y-6600000D01*
X50425000Y-6050000D01*
X50925000Y-6050000D01*
X50925000Y-6600000D01*
X51365644Y-6600000D01*
X51402489Y-6597100D01*
X51402495Y-6597099D01*
X51560193Y-6551283D01*
X51560196Y-6551282D01*
X51701552Y-6467685D01*
X51701561Y-6467678D01*
X51817678Y-6351561D01*
X51817685Y-6351552D01*
X51901281Y-6210198D01*
X51947100Y-6052486D01*
X51947295Y-6050001D01*
X51947295Y-6050000D01*
X50925000Y-6050000D01*
X50425000Y-6050000D01*
X50425000Y-5674000D01*
X50444685Y-5606961D01*
X50497489Y-5561206D01*
X50549000Y-5550000D01*
X51947295Y-5550000D01*
X51947295Y-5549998D01*
X51946603Y-5541191D01*
X51948211Y-5541064D01*
X51954682Y-5479530D01*
X51998397Y-5425025D01*
X52064640Y-5402807D01*
X52085536Y-5403777D01*
X52100000Y-5405682D01*
X52100001Y-5405682D01*
X52199269Y-5392613D01*
X52256762Y-5385044D01*
X52402841Y-5324536D01*
X52528282Y-5228282D01*
X52624536Y-5102841D01*
X52685044Y-4956762D01*
X52704405Y-4809699D01*
X52705682Y-4800001D01*
X52705682Y-4799998D01*
X52689726Y-4678803D01*
X52685044Y-4643238D01*
X52624536Y-4497159D01*
X52528282Y-4371718D01*
X52402841Y-4275464D01*
X52382274Y-4266945D01*
X52256762Y-4214956D01*
X52256760Y-4214955D01*
X52100001Y-4194318D01*
X52099999Y-4194318D01*
X51943239Y-4214955D01*
X51943237Y-4214956D01*
X51797156Y-4275464D01*
X51789914Y-4281022D01*
X51724744Y-4306213D01*
X51656300Y-4292171D01*
X51606312Y-4243354D01*
X51590653Y-4175262D01*
X51603031Y-4128185D01*
X51640573Y-4051393D01*
X51650500Y-3983260D01*
X51650500Y-3616740D01*
X51640573Y-3548607D01*
X51589198Y-3443517D01*
X51589196Y-3443515D01*
X51589196Y-3443514D01*
X51506485Y-3360803D01*
X51401391Y-3309426D01*
X51333261Y-3299500D01*
X51333260Y-3299500D01*
X50016740Y-3299500D01*
X50016739Y-3299500D01*
X49948608Y-3309426D01*
X49878960Y-3343475D01*
X49810087Y-3355233D01*
X49745790Y-3327890D01*
X49706483Y-3270125D01*
X49700500Y-3232074D01*
X49700500Y-2904269D01*
X52099500Y-2904269D01*
X52102353Y-2934699D01*
X52102353Y-2934701D01*
X52147206Y-3062880D01*
X52147207Y-3062882D01*
X52227850Y-3172150D01*
X52337118Y-3252793D01*
X52356709Y-3259648D01*
X52465299Y-3297646D01*
X52495730Y-3300500D01*
X52495734Y-3300500D01*
X53904270Y-3300500D01*
X53934699Y-3297646D01*
X53934701Y-3297646D01*
X53998790Y-3275219D01*
X54062882Y-3252793D01*
X54172150Y-3172150D01*
X54252793Y-3062882D01*
X54276716Y-2994513D01*
X54297646Y-2934701D01*
X54297646Y-2934699D01*
X54300500Y-2904269D01*
X54300500Y-2095730D01*
X54297646Y-2065300D01*
X54297646Y-2065298D01*
X54252793Y-1937119D01*
X54252792Y-1937117D01*
X54244968Y-1926516D01*
X54172150Y-1827850D01*
X54062882Y-1747207D01*
X54062880Y-1747206D01*
X53934700Y-1702353D01*
X53904270Y-1699500D01*
X53904266Y-1699500D01*
X52495734Y-1699500D01*
X52495730Y-1699500D01*
X52465300Y-1702353D01*
X52465298Y-1702353D01*
X52337119Y-1747206D01*
X52337117Y-1747207D01*
X52227850Y-1827850D01*
X52147207Y-1937117D01*
X52147206Y-1937119D01*
X52102353Y-2065298D01*
X52102353Y-2065300D01*
X52099500Y-2095730D01*
X52099500Y-2904269D01*
X49700500Y-2904269D01*
X49700500Y-2436568D01*
X49700500Y-2436567D01*
X49693652Y-2415491D01*
X49689111Y-2396578D01*
X49685646Y-2374696D01*
X49675588Y-2354958D01*
X49668140Y-2336976D01*
X49665440Y-2328666D01*
X49661296Y-2315910D01*
X49648271Y-2297982D01*
X49638106Y-2281394D01*
X49628050Y-2261658D01*
X49607398Y-2241006D01*
X49607380Y-2240986D01*
X49259287Y-1892893D01*
X49259256Y-1892864D01*
X49238342Y-1871950D01*
X49238341Y-1871949D01*
X49218600Y-1861890D01*
X49202014Y-1851726D01*
X49184090Y-1838704D01*
X49184091Y-1838704D01*
X49163018Y-1831857D01*
X49145045Y-1824412D01*
X49125307Y-1814355D01*
X49125304Y-1814354D01*
X49103418Y-1810887D01*
X49084507Y-1806346D01*
X49063439Y-1799501D01*
X49063434Y-1799500D01*
X49063433Y-1799500D01*
X49063429Y-1799500D01*
X48848147Y-1799500D01*
X48781108Y-1779815D01*
X48735353Y-1727011D01*
X48724689Y-1687079D01*
X48722646Y-1665300D01*
X48722646Y-1665298D01*
X48684736Y-1556961D01*
X48677793Y-1537118D01*
X48597150Y-1427850D01*
X48487882Y-1347207D01*
X48487880Y-1347206D01*
X48359700Y-1302353D01*
X48329270Y-1299500D01*
X48329266Y-1299500D01*
X47695734Y-1299500D01*
X47695730Y-1299500D01*
X47665300Y-1302353D01*
X47665298Y-1302353D01*
X47537119Y-1347206D01*
X47537117Y-1347207D01*
X47427850Y-1427850D01*
X47347207Y-1537117D01*
X47347206Y-1537119D01*
X47302353Y-1665298D01*
X47302353Y-1665300D01*
X47299500Y-1695730D01*
X47299500Y-2704269D01*
X47302353Y-2734699D01*
X47303964Y-2742073D01*
X47302698Y-2742349D01*
X47305861Y-2804327D01*
X47271130Y-2864954D01*
X47209136Y-2897179D01*
X47185258Y-2899500D01*
X47014742Y-2899500D01*
X46947703Y-2879815D01*
X46901948Y-2827011D01*
X46892004Y-2757853D01*
X46897513Y-2735307D01*
X46897646Y-2734699D01*
X46900500Y-2704269D01*
X46900500Y-1695730D01*
X46897646Y-1665300D01*
X46897646Y-1665298D01*
X46859736Y-1556961D01*
X46852793Y-1537118D01*
X46772150Y-1427850D01*
X46662882Y-1347207D01*
X46662880Y-1347206D01*
X46534700Y-1302353D01*
X46504270Y-1299500D01*
X46504266Y-1299500D01*
X45870734Y-1299500D01*
X45870730Y-1299500D01*
X45840300Y-1302353D01*
X45840298Y-1302353D01*
X45712119Y-1347206D01*
X45712117Y-1347207D01*
X45602850Y-1427850D01*
X45522205Y-1537120D01*
X45517865Y-1545333D01*
X45514913Y-1543773D01*
X45483864Y-1587038D01*
X45418904Y-1612766D01*
X45364620Y-1604530D01*
X45364613Y-1604560D01*
X45364351Y-1604489D01*
X45360127Y-1603849D01*
X45356768Y-1602458D01*
X45356760Y-1602455D01*
X45200001Y-1581818D01*
X45199999Y-1581818D01*
X45043239Y-1602455D01*
X45043234Y-1602457D01*
X45021950Y-1611273D01*
X44952480Y-1618740D01*
X44890002Y-1587464D01*
X44854351Y-1527374D01*
X44851707Y-1506325D01*
X44851097Y-1506386D01*
X44850500Y-1500331D01*
X44850500Y-1500326D01*
X44838560Y-1440301D01*
X44835967Y-1427264D01*
X44835966Y-1427260D01*
X44830611Y-1419246D01*
X44780601Y-1344399D01*
X44697740Y-1289034D01*
X44697739Y-1289033D01*
X44697735Y-1289032D01*
X44624677Y-1274500D01*
X44624674Y-1274500D01*
X44211886Y-1274500D01*
X44144847Y-1254815D01*
X44113082Y-1225425D01*
X44037440Y-1125676D01*
X44038512Y-1124862D01*
X44009261Y-1071292D01*
X44014245Y-1001600D01*
X44042744Y-957255D01*
X44350687Y-649312D01*
X44356768Y-643979D01*
X44444157Y-576924D01*
X44472191Y-560739D01*
X44562616Y-523284D01*
X44593882Y-514906D01*
X44703074Y-500530D01*
X44711174Y-500000D01*
X54995933Y-500000D01*
X55004031Y-500530D01*
X55095879Y-512622D01*
X55113223Y-514906D01*
X55144491Y-523284D01*
X55234918Y-560740D01*
X55262952Y-576925D01*
X55340602Y-636509D01*
X55363491Y-659398D01*
X55423074Y-737048D01*
X55439259Y-765081D01*
X55476715Y-855508D01*
X55485093Y-886775D01*
X55499469Y-995964D01*
X55500000Y-1004065D01*
X55500000Y-9288827D01*
X55499469Y-9296928D01*
X55485093Y-9406117D01*
X55476715Y-9437383D01*
X55439260Y-9527808D01*
X55423075Y-9555842D01*
X55356025Y-9643224D01*
X55350672Y-9649328D01*
X55336680Y-9663319D01*
X55275357Y-9696804D01*
X55205665Y-9691820D01*
X55149732Y-9649948D01*
X55125315Y-9584484D01*
X55124999Y-9575638D01*
X55124999Y-9375028D01*
X55124998Y-9375013D01*
X55114505Y-9272302D01*
X55059358Y-9105880D01*
X55059356Y-9105875D01*
X54967315Y-8956654D01*
X54843345Y-8832684D01*
X54694124Y-8740643D01*
X54694119Y-8740641D01*
X54527697Y-8685494D01*
X54527690Y-8685493D01*
X54424986Y-8675000D01*
X53550000Y-8675000D01*
X53550000Y-10924999D01*
X54376000Y-10924999D01*
X54443039Y-10944684D01*
X54488794Y-10997488D01*
X54500000Y-11048999D01*
X54500000Y-11650500D01*
X54480315Y-11717539D01*
X54427511Y-11763294D01*
X54376000Y-11774500D01*
X52170730Y-11774500D01*
X52140300Y-11777353D01*
X52140298Y-11777353D01*
X52012119Y-11822206D01*
X52012117Y-11822207D01*
X51902850Y-11902850D01*
X51822207Y-12012117D01*
X51822206Y-12012119D01*
X51777353Y-12140298D01*
X51777353Y-12140300D01*
X51774500Y-12170730D01*
X51774500Y-13029269D01*
X51777353Y-13059699D01*
X51777353Y-13059701D01*
X51822206Y-13187880D01*
X51822207Y-13187882D01*
X51902850Y-13297150D01*
X52012118Y-13377793D01*
X52054845Y-13392744D01*
X52140299Y-13422646D01*
X52170730Y-13425500D01*
X52170734Y-13425500D01*
X52575500Y-13425500D01*
X52642539Y-13445185D01*
X52688294Y-13497989D01*
X52699500Y-13549500D01*
X52699500Y-16199903D01*
X52679815Y-16266942D01*
X52663181Y-16287584D01*
X49687584Y-19263181D01*
X49626261Y-19296666D01*
X49599903Y-19299500D01*
X22182412Y-19299500D01*
X22115373Y-19279815D01*
X22105097Y-19272445D01*
X22102263Y-19270185D01*
X22102262Y-19270184D01*
X22045496Y-19234515D01*
X21949523Y-19174211D01*
X21779254Y-19114631D01*
X21779249Y-19114630D01*
X21600004Y-19094435D01*
X21599996Y-19094435D01*
X21420750Y-19114630D01*
X21420745Y-19114631D01*
X21250476Y-19174211D01*
X21097736Y-19270185D01*
X21094903Y-19272445D01*
X21092724Y-19273334D01*
X21091842Y-19273889D01*
X21091744Y-19273734D01*
X21030217Y-19298855D01*
X21017588Y-19299500D01*
X19982412Y-19299500D01*
X19915373Y-19279815D01*
X19905097Y-19272445D01*
X19902263Y-19270185D01*
X19902262Y-19270184D01*
X19845496Y-19234515D01*
X19749523Y-19174211D01*
X19579254Y-19114631D01*
X19579249Y-19114630D01*
X19400004Y-19094435D01*
X19399996Y-19094435D01*
X19220750Y-19114630D01*
X19220745Y-19114631D01*
X19050476Y-19174211D01*
X18897737Y-19270184D01*
X18770184Y-19397737D01*
X18674211Y-19550476D01*
X18614631Y-19720745D01*
X18614630Y-19720750D01*
X18594435Y-19899996D01*
X18594435Y-19900003D01*
X18614630Y-20079249D01*
X18614631Y-20079254D01*
X18674211Y-20249523D01*
X18702099Y-20293906D01*
X18770184Y-20402262D01*
X18897738Y-20529816D01*
X19050478Y-20625789D01*
X19220745Y-20685368D01*
X19220750Y-20685369D01*
X19399996Y-20705565D01*
X19400000Y-20705565D01*
X19400004Y-20705565D01*
X19579249Y-20685369D01*
X19579252Y-20685368D01*
X19579255Y-20685368D01*
X19749522Y-20625789D01*
X19902262Y-20529816D01*
X19902267Y-20529810D01*
X19905097Y-20527555D01*
X19907275Y-20526665D01*
X19908158Y-20526111D01*
X19908255Y-20526265D01*
X19969783Y-20501145D01*
X19982412Y-20500500D01*
X21017588Y-20500500D01*
X21084627Y-20520185D01*
X21094903Y-20527555D01*
X21097736Y-20529814D01*
X21097738Y-20529816D01*
X21250478Y-20625789D01*
X21420745Y-20685368D01*
X21420750Y-20685369D01*
X21599996Y-20705565D01*
X21600000Y-20705565D01*
X21600004Y-20705565D01*
X21779249Y-20685369D01*
X21779252Y-20685368D01*
X21779255Y-20685368D01*
X21949522Y-20625789D01*
X22102262Y-20529816D01*
X22102267Y-20529810D01*
X22105097Y-20527555D01*
X22107275Y-20526665D01*
X22108158Y-20526111D01*
X22108255Y-20526265D01*
X22169783Y-20501145D01*
X22182412Y-20500500D01*
X49856572Y-20500500D01*
X49864670Y-20501030D01*
X49900000Y-20505682D01*
X49900001Y-20505682D01*
X49952254Y-20498802D01*
X50056762Y-20485044D01*
X50202841Y-20424536D01*
X50231869Y-20402262D01*
X50328282Y-20328282D01*
X50349983Y-20299999D01*
X50355311Y-20293922D01*
X53693922Y-16955311D01*
X53699999Y-16949983D01*
X53728282Y-16928282D01*
X53824536Y-16802841D01*
X53885044Y-16656762D01*
X53900500Y-16539361D01*
X53905682Y-16500000D01*
X53901030Y-16464669D01*
X53900500Y-16456571D01*
X53900500Y-13549500D01*
X53920185Y-13482461D01*
X53972989Y-13436706D01*
X54024500Y-13425500D01*
X54376000Y-13425500D01*
X54443039Y-13445185D01*
X54488794Y-13497989D01*
X54500000Y-13549500D01*
X54500000Y-34500000D01*
X54646447Y-34646447D01*
X55350679Y-35350679D01*
X55356025Y-35356775D01*
X55423075Y-35444157D01*
X55439260Y-35472191D01*
X55476715Y-35562616D01*
X55485093Y-35593882D01*
X55499469Y-35703071D01*
X55500000Y-35711172D01*
X55500000Y-42995934D01*
X55499469Y-43004035D01*
X55485093Y-43113224D01*
X55476715Y-43144491D01*
X55439259Y-43234918D01*
X55423074Y-43262951D01*
X55363491Y-43340601D01*
X55340601Y-43363491D01*
X55262951Y-43423074D01*
X55234918Y-43439259D01*
X55144491Y-43476715D01*
X55113224Y-43485093D01*
X55024783Y-43496737D01*
X55004031Y-43499469D01*
X54995934Y-43500000D01*
X44711173Y-43500000D01*
X44703075Y-43499469D01*
X44679564Y-43496374D01*
X44593882Y-43485093D01*
X44562616Y-43476715D01*
X44472191Y-43439260D01*
X44444157Y-43423075D01*
X44356775Y-43356025D01*
X44350679Y-43350679D01*
X43646447Y-42646447D01*
X43500000Y-42500000D01*
X43292893Y-42500000D01*
X43292886Y-42500000D01*
X13707114Y-42500000D01*
X13707107Y-42500000D01*
X13500000Y-42500000D01*
X13353558Y-42646441D01*
X13353554Y-42646445D01*
X13353547Y-42646451D01*
X12649328Y-43350672D01*
X12643224Y-43356025D01*
X12555842Y-43423075D01*
X12527808Y-43439260D01*
X12437383Y-43476715D01*
X12406117Y-43485093D01*
X12317676Y-43496737D01*
X12296924Y-43499469D01*
X12288827Y-43500000D01*
X1004066Y-43500000D01*
X995968Y-43499469D01*
X972457Y-43496374D01*
X886775Y-43485093D01*
X855508Y-43476715D01*
X765081Y-43439259D01*
X737048Y-43423074D01*
X659398Y-43363491D01*
X636508Y-43340601D01*
X576925Y-43262951D01*
X560740Y-43234918D01*
X523284Y-43144491D01*
X514906Y-43113223D01*
X500531Y-43004035D01*
X500000Y-42995933D01*
X500000Y-35711173D01*
X500531Y-35703071D01*
X514906Y-35593883D01*
X523284Y-35562616D01*
X560739Y-35472191D01*
X576924Y-35444157D01*
X584742Y-35433967D01*
X643979Y-35356768D01*
X649312Y-35350687D01*
X1353553Y-34646447D01*
X1500000Y-34500000D01*
X1500000Y-10500000D01*
X649319Y-9649319D01*
X643974Y-9643224D01*
X576924Y-9555842D01*
X560739Y-9527808D01*
X523284Y-9437383D01*
X514906Y-9406116D01*
X503721Y-9321159D01*
X500530Y-9296924D01*
X500000Y-9288826D01*
X500000Y-9000000D01*
X958590Y-9000000D01*
X1005233Y-9153766D01*
X1102728Y-9336166D01*
X1102732Y-9336173D01*
X1233944Y-9496055D01*
X1393826Y-9627267D01*
X1393833Y-9627271D01*
X1576233Y-9724766D01*
X1774165Y-9784808D01*
X1928415Y-9800000D01*
X2080000Y-9800000D01*
X2080000Y-9000000D01*
X2580000Y-9000000D01*
X2580000Y-9800000D01*
X2731585Y-9800000D01*
X2885834Y-9784808D01*
X3083766Y-9724766D01*
X3266166Y-9627271D01*
X3266173Y-9627267D01*
X3426055Y-9496055D01*
X3557267Y-9336173D01*
X3557271Y-9336166D01*
X3654766Y-9153766D01*
X3701410Y-9000000D01*
X4428590Y-9000000D01*
X4475233Y-9153766D01*
X4572728Y-9336166D01*
X4572732Y-9336173D01*
X4703944Y-9496055D01*
X4863826Y-9627267D01*
X4863833Y-9627271D01*
X5046233Y-9724766D01*
X5244165Y-9784808D01*
X5398415Y-9800000D01*
X5550000Y-9800000D01*
X5550000Y-9000000D01*
X6050000Y-9000000D01*
X6050000Y-9800000D01*
X6201585Y-9800000D01*
X6355834Y-9784808D01*
X6553766Y-9724766D01*
X6736166Y-9627271D01*
X6736173Y-9627267D01*
X6896055Y-9496055D01*
X7027267Y-9336173D01*
X7027271Y-9336166D01*
X7124766Y-9153766D01*
X7171410Y-9000000D01*
X6174624Y-9000000D01*
X6247545Y-8985495D01*
X6330240Y-8930240D01*
X6385495Y-8847545D01*
X6404898Y-8750000D01*
X6385495Y-8652455D01*
X6330240Y-8569760D01*
X6247545Y-8514505D01*
X6174624Y-8500000D01*
X7171410Y-8500000D01*
X7124766Y-8346233D01*
X7027271Y-8163833D01*
X7027267Y-8163826D01*
X6896055Y-8003944D01*
X6736173Y-7872732D01*
X6736166Y-7872728D01*
X6553766Y-7775233D01*
X6355834Y-7715191D01*
X6201585Y-7700000D01*
X6050000Y-7700000D01*
X6050000Y-8500000D01*
X5550000Y-8500000D01*
X5550000Y-7700000D01*
X5398415Y-7700000D01*
X5244165Y-7715191D01*
X5046233Y-7775233D01*
X4922738Y-7841243D01*
X4877890Y-7850580D01*
X4862143Y-7874109D01*
X4861364Y-7874753D01*
X4703944Y-8003944D01*
X4572732Y-8163826D01*
X4572728Y-8163833D01*
X4475233Y-8346233D01*
X4428590Y-8500000D01*
X5425376Y-8500000D01*
X5352455Y-8514505D01*
X5269760Y-8569760D01*
X5214505Y-8652455D01*
X5195102Y-8750000D01*
X5214505Y-8847545D01*
X5269760Y-8930240D01*
X5352455Y-8985495D01*
X5425376Y-9000000D01*
X4428590Y-9000000D01*
X3701410Y-9000000D01*
X2704624Y-9000000D01*
X2777545Y-8985495D01*
X2860240Y-8930240D01*
X2915495Y-8847545D01*
X2934898Y-8750000D01*
X2915495Y-8652455D01*
X2860240Y-8569760D01*
X2777545Y-8514505D01*
X2704624Y-8500000D01*
X3701410Y-8500000D01*
X3654766Y-8346233D01*
X3557271Y-8163833D01*
X3557267Y-8163826D01*
X3426055Y-8003944D01*
X3266173Y-7872732D01*
X3266166Y-7872728D01*
X3083766Y-7775233D01*
X2885834Y-7715191D01*
X2731585Y-7700000D01*
X2580000Y-7700000D01*
X2580000Y-8500000D01*
X2080000Y-8500000D01*
X2080000Y-7699121D01*
X2047572Y-7639734D01*
X2052556Y-7570042D01*
X2069472Y-7539064D01*
X2123352Y-7467089D01*
X2123354Y-7467086D01*
X2173596Y-7332379D01*
X2173598Y-7332372D01*
X2179999Y-7272844D01*
X2180000Y-7272827D01*
X2180000Y-6925000D01*
X1430000Y-6925000D01*
X1430000Y-7751525D01*
X1431579Y-7754417D01*
X1426595Y-7824109D01*
X1389079Y-7876628D01*
X1233942Y-8003947D01*
X1102732Y-8163826D01*
X1102728Y-8163833D01*
X1005233Y-8346233D01*
X958590Y-8500000D01*
X1955376Y-8500000D01*
X1882455Y-8514505D01*
X1799760Y-8569760D01*
X1744505Y-8652455D01*
X1725102Y-8750000D01*
X1744505Y-8847545D01*
X1799760Y-8930240D01*
X1882455Y-8985495D01*
X1955376Y-9000000D01*
X958590Y-9000000D01*
X500000Y-9000000D01*
X500000Y-7848740D01*
X519685Y-7781701D01*
X572489Y-7735946D01*
X628851Y-7725256D01*
X628851Y-7725000D01*
X630205Y-7725000D01*
X630637Y-7724918D01*
X632167Y-7725000D01*
X930000Y-7725000D01*
X930000Y-6722844D01*
X3790000Y-6722844D01*
X3796401Y-6782372D01*
X3796403Y-6782379D01*
X3846645Y-6917086D01*
X3846647Y-6917089D01*
X3909962Y-7001666D01*
X3934380Y-7067130D01*
X3934407Y-7084440D01*
X3925619Y-7212918D01*
X3925619Y-7212921D01*
X3956405Y-7361078D01*
X3956407Y-7361083D01*
X3956408Y-7361085D01*
X4026029Y-7495447D01*
X4026031Y-7495449D01*
X4026032Y-7495451D01*
X4129318Y-7606043D01*
X4129320Y-7606044D01*
X4258618Y-7684672D01*
X4404335Y-7725500D01*
X4404336Y-7725500D01*
X4517659Y-7725500D01*
X4545723Y-7721642D01*
X4629920Y-7710070D01*
X4733298Y-7665165D01*
X4767656Y-7660877D01*
X4777390Y-7643424D01*
X4786024Y-7635701D01*
X4886108Y-7554278D01*
X4888976Y-7550216D01*
X4905942Y-7526179D01*
X4973377Y-7430647D01*
X4992182Y-7377736D01*
X5024053Y-7288060D01*
X5024053Y-7288058D01*
X5024054Y-7288056D01*
X5034381Y-7137079D01*
X5034380Y-7137074D01*
X5003594Y-6988921D01*
X5000753Y-6980928D01*
X5001724Y-6980582D01*
X4990000Y-6932466D01*
X4990000Y-6675000D01*
X5390000Y-6675000D01*
X5390000Y-7175000D01*
X6137828Y-7175000D01*
X6137844Y-7174999D01*
X6197372Y-7168598D01*
X6197379Y-7168596D01*
X6332086Y-7118354D01*
X6332093Y-7118350D01*
X6447187Y-7032190D01*
X6447190Y-7032187D01*
X6533350Y-6917093D01*
X6533354Y-6917086D01*
X6583596Y-6782379D01*
X6583598Y-6782372D01*
X6589999Y-6722844D01*
X6590000Y-6722827D01*
X6590000Y-6675000D01*
X5390000Y-6675000D01*
X4990000Y-6675000D01*
X4749416Y-6675000D01*
X4709787Y-6666765D01*
X4709549Y-6667617D01*
X4701384Y-6665329D01*
X4701382Y-6665328D01*
X4555665Y-6624500D01*
X4442342Y-6624500D01*
X4442341Y-6624500D01*
X4330079Y-6639930D01*
X4272976Y-6664734D01*
X4223574Y-6675000D01*
X3790000Y-6675000D01*
X3790000Y-6722844D01*
X930000Y-6722844D01*
X930000Y-5625000D01*
X1430000Y-5625000D01*
X1430000Y-6425000D01*
X2180000Y-6425000D01*
X2180000Y-6077172D01*
X2179999Y-6077155D01*
X2173598Y-6017627D01*
X2173596Y-6017620D01*
X2123354Y-5882913D01*
X2123350Y-5882906D01*
X2037190Y-5767812D01*
X2037187Y-5767809D01*
X1922093Y-5681649D01*
X1922086Y-5681645D01*
X1787379Y-5631403D01*
X1787372Y-5631401D01*
X1727844Y-5625000D01*
X1430000Y-5625000D01*
X930000Y-5625000D01*
X632166Y-5625000D01*
X630611Y-5625083D01*
X630260Y-5625000D01*
X628851Y-5625000D01*
X628851Y-5624666D01*
X562617Y-5609000D01*
X514112Y-5558711D01*
X500000Y-5501259D01*
X500000Y-4848740D01*
X519685Y-4781701D01*
X572489Y-4735946D01*
X628851Y-4725256D01*
X628851Y-4725000D01*
X630205Y-4725000D01*
X630637Y-4724918D01*
X632167Y-4725000D01*
X930000Y-4725000D01*
X930000Y-3925000D01*
X1430000Y-3925000D01*
X1430000Y-4725000D01*
X1727828Y-4725000D01*
X1727844Y-4724999D01*
X1787372Y-4718598D01*
X1787379Y-4718596D01*
X1922086Y-4668354D01*
X1922093Y-4668350D01*
X2037187Y-4582190D01*
X2037190Y-4582187D01*
X2123350Y-4467093D01*
X2123354Y-4467086D01*
X2173596Y-4332379D01*
X2173598Y-4332372D01*
X2179999Y-4272844D01*
X2180000Y-4272827D01*
X2180000Y-3925000D01*
X1430000Y-3925000D01*
X930000Y-3925000D01*
X930000Y-2625000D01*
X632166Y-2625000D01*
X630611Y-2625083D01*
X630260Y-2625000D01*
X628851Y-2625000D01*
X628851Y-2624666D01*
X562617Y-2609000D01*
X514112Y-2558711D01*
X500000Y-2501259D01*
X500000Y-1004066D01*
X500531Y-995964D01*
X505628Y-957253D01*
X514906Y-886775D01*
X523284Y-855508D01*
X560740Y-765081D01*
X576923Y-737050D01*
X636513Y-659392D01*
X659392Y-636513D01*
X737050Y-576923D01*
X765079Y-560740D01*
X855509Y-523283D01*
X886775Y-514906D01*
X995967Y-500530D01*
X1004067Y-500000D01*
X1318671Y-500000D01*
X1385710Y-519685D01*
G37*
%TD.AperFunction*%
%TA.AperFunction,Conductor*%
G36*
X35239972Y-1519685D02*
G01*
X35285727Y-1572489D01*
X35295671Y-1641647D01*
X35289975Y-1664952D01*
X35289854Y-1665296D01*
X35289853Y-1665300D01*
X35287811Y-1687079D01*
X35261953Y-1751987D01*
X35205107Y-1792612D01*
X35164353Y-1799500D01*
X34665948Y-1799500D01*
X34665924Y-1799501D01*
X34636564Y-1799501D01*
X34615499Y-1806346D01*
X34596582Y-1810887D01*
X34574700Y-1814352D01*
X34574695Y-1814354D01*
X34554950Y-1824414D01*
X34536986Y-1831855D01*
X34515907Y-1838705D01*
X34497984Y-1851727D01*
X34481399Y-1861890D01*
X34461659Y-1871948D01*
X34439093Y-1894515D01*
X34332927Y-2000681D01*
X34271604Y-2034166D01*
X34245246Y-2037000D01*
X34025323Y-2037000D01*
X33952264Y-2051532D01*
X33952260Y-2051533D01*
X33869399Y-2106899D01*
X33814033Y-2189760D01*
X33814032Y-2189764D01*
X33799500Y-2262821D01*
X33799500Y-3312178D01*
X33814032Y-3385235D01*
X33814033Y-3385239D01*
X33814034Y-3385240D01*
X33869399Y-3468101D01*
X33937650Y-3513704D01*
X33952260Y-3523466D01*
X33952264Y-3523467D01*
X34025321Y-3537999D01*
X34025324Y-3538000D01*
X34025326Y-3538000D01*
X34574676Y-3538000D01*
X34574677Y-3537999D01*
X34647740Y-3523466D01*
X34730601Y-3468101D01*
X34785966Y-3385240D01*
X34800500Y-3312174D01*
X34800500Y-2724500D01*
X34820185Y-2657461D01*
X34872989Y-2611706D01*
X34924500Y-2600500D01*
X35164353Y-2600500D01*
X35231392Y-2620185D01*
X35277147Y-2672989D01*
X35287811Y-2712921D01*
X35289853Y-2734699D01*
X35289853Y-2734701D01*
X35334706Y-2862880D01*
X35334707Y-2862882D01*
X35415349Y-2972149D01*
X35415351Y-2972151D01*
X35524133Y-3052435D01*
X35566384Y-3108082D01*
X35574500Y-3152205D01*
X35574500Y-3264520D01*
X35554815Y-3331559D01*
X35518371Y-3365031D01*
X35519595Y-3366689D01*
X35512118Y-3372206D01*
X35512118Y-3372207D01*
X35436476Y-3428033D01*
X35402850Y-3452850D01*
X35322207Y-3562117D01*
X35322206Y-3562119D01*
X35277353Y-3690298D01*
X35277353Y-3690300D01*
X35274500Y-3720730D01*
X35274500Y-4779269D01*
X35277352Y-4809689D01*
X35277355Y-4809703D01*
X35292541Y-4853100D01*
X35299500Y-4894055D01*
X35299500Y-6814520D01*
X35279815Y-6881559D01*
X35243371Y-6915031D01*
X35244595Y-6916689D01*
X35237118Y-6922206D01*
X35237118Y-6922207D01*
X35153270Y-6984089D01*
X35127850Y-7002850D01*
X35047207Y-7112117D01*
X35047206Y-7112119D01*
X35002353Y-7240298D01*
X35002353Y-7240300D01*
X34999500Y-7270730D01*
X34999500Y-8329269D01*
X35002353Y-8359699D01*
X35002353Y-8359701D01*
X35047206Y-8487880D01*
X35047207Y-8487882D01*
X35127850Y-8597150D01*
X35237118Y-8677793D01*
X35265945Y-8687880D01*
X35365299Y-8722646D01*
X35395730Y-8725500D01*
X35395734Y-8725500D01*
X36004270Y-8725500D01*
X36034699Y-8722646D01*
X36034701Y-8722646D01*
X36107537Y-8697159D01*
X36162882Y-8677793D01*
X36272150Y-8597150D01*
X36352793Y-8487882D01*
X36354310Y-8483548D01*
X36395030Y-8426771D01*
X36459982Y-8401022D01*
X36471352Y-8400500D01*
X37012935Y-8400500D01*
X37079974Y-8420185D01*
X37085624Y-8424738D01*
X37094399Y-8430601D01*
X37177260Y-8485966D01*
X37177263Y-8485966D01*
X37177264Y-8485967D01*
X37250321Y-8500499D01*
X37250324Y-8500500D01*
X37250326Y-8500500D01*
X38299676Y-8500500D01*
X38299677Y-8500499D01*
X38372740Y-8485966D01*
X38455601Y-8430601D01*
X38510966Y-8347740D01*
X38525500Y-8274674D01*
X38525500Y-7725326D01*
X38525500Y-7725323D01*
X38525499Y-7725321D01*
X38510967Y-7652264D01*
X38510966Y-7652260D01*
X38505062Y-7643424D01*
X38455601Y-7569399D01*
X38372740Y-7514034D01*
X38372739Y-7514033D01*
X38372735Y-7514032D01*
X38299677Y-7499500D01*
X38299674Y-7499500D01*
X37250326Y-7499500D01*
X37250323Y-7499500D01*
X37177264Y-7514032D01*
X37177260Y-7514034D01*
X37084244Y-7576184D01*
X37082254Y-7573206D01*
X37039293Y-7596666D01*
X37012935Y-7599500D01*
X36524500Y-7599500D01*
X36457461Y-7579815D01*
X36411706Y-7527011D01*
X36400500Y-7475500D01*
X36400500Y-7270730D01*
X36397646Y-7240300D01*
X36397646Y-7240298D01*
X36363573Y-7142925D01*
X36352793Y-7112118D01*
X36272150Y-7002850D01*
X36162882Y-6922207D01*
X36162881Y-6922206D01*
X36155405Y-6916689D01*
X36156862Y-6914714D01*
X36116485Y-6875420D01*
X36100500Y-6814520D01*
X36100500Y-5299500D01*
X36120185Y-5232461D01*
X36172989Y-5186706D01*
X36224500Y-5175500D01*
X36279270Y-5175500D01*
X36309699Y-5172646D01*
X36309701Y-5172646D01*
X36375349Y-5149674D01*
X36437882Y-5127793D01*
X36547150Y-5047150D01*
X36627793Y-4937882D01*
X36654187Y-4862453D01*
X36672646Y-4809701D01*
X36672646Y-4809699D01*
X36675500Y-4779269D01*
X36675500Y-3720730D01*
X36672646Y-3690300D01*
X36672646Y-3690298D01*
X36635653Y-3584582D01*
X36627793Y-3562118D01*
X36547150Y-3452850D01*
X36437882Y-3372207D01*
X36437881Y-3372206D01*
X36430405Y-3366689D01*
X36431862Y-3364714D01*
X36391485Y-3325420D01*
X36375500Y-3264520D01*
X36375500Y-3175726D01*
X36395185Y-3108687D01*
X36447989Y-3062932D01*
X36458547Y-3058684D01*
X36475379Y-3052794D01*
X36475378Y-3052794D01*
X36475382Y-3052793D01*
X36584650Y-2972150D01*
X36665293Y-2862882D01*
X36696904Y-2772543D01*
X36710146Y-2734701D01*
X36710146Y-2734699D01*
X36713000Y-2704269D01*
X36713000Y-1695730D01*
X36710146Y-1665300D01*
X36710145Y-1665296D01*
X36710025Y-1664952D01*
X36710011Y-1664681D01*
X36708536Y-1657927D01*
X36709654Y-1657682D01*
X36706464Y-1595173D01*
X36741194Y-1534547D01*
X36803188Y-1502321D01*
X36827067Y-1500000D01*
X36997933Y-1500000D01*
X37064972Y-1519685D01*
X37110727Y-1572489D01*
X37120671Y-1641647D01*
X37114975Y-1664952D01*
X37114854Y-1665296D01*
X37114853Y-1665300D01*
X37112000Y-1695730D01*
X37112000Y-2704269D01*
X37114853Y-2734699D01*
X37114853Y-2734701D01*
X37159706Y-2862880D01*
X37159707Y-2862882D01*
X37240350Y-2972150D01*
X37349618Y-3052793D01*
X37436265Y-3083112D01*
X37466455Y-3093676D01*
X37523231Y-3134397D01*
X37548978Y-3199350D01*
X37549500Y-3210717D01*
X37549500Y-3236152D01*
X37529815Y-3303191D01*
X37477011Y-3348946D01*
X37466456Y-3353193D01*
X37412117Y-3372207D01*
X37302850Y-3452850D01*
X37222207Y-3562117D01*
X37222206Y-3562119D01*
X37177353Y-3690298D01*
X37177353Y-3690300D01*
X37174500Y-3720730D01*
X37174500Y-4779269D01*
X37177353Y-4809699D01*
X37177353Y-4809701D01*
X37208199Y-4897850D01*
X37222207Y-4937882D01*
X37302850Y-5047150D01*
X37412118Y-5127793D01*
X37466456Y-5146806D01*
X37523231Y-5187527D01*
X37548978Y-5252480D01*
X37549500Y-5263847D01*
X37549500Y-5475500D01*
X37529815Y-5542539D01*
X37477011Y-5588294D01*
X37425500Y-5599500D01*
X37250323Y-5599500D01*
X37177264Y-5614032D01*
X37177260Y-5614033D01*
X37094399Y-5669399D01*
X37039033Y-5752260D01*
X37039032Y-5752264D01*
X37024500Y-5825321D01*
X37024500Y-6374678D01*
X37039032Y-6447735D01*
X37039033Y-6447739D01*
X37042410Y-6452793D01*
X37094399Y-6530601D01*
X37172439Y-6582745D01*
X37177260Y-6585966D01*
X37177264Y-6585967D01*
X37250321Y-6600499D01*
X37250324Y-6600500D01*
X37250326Y-6600500D01*
X38299676Y-6600500D01*
X38299677Y-6600499D01*
X38372740Y-6585966D01*
X38455601Y-6530601D01*
X38510966Y-6447740D01*
X38525500Y-6374674D01*
X38525500Y-5825326D01*
X38525500Y-5825323D01*
X38525499Y-5825321D01*
X38510967Y-5752264D01*
X38510966Y-5752260D01*
X38500074Y-5735959D01*
X38455601Y-5669399D01*
X38372740Y-5614034D01*
X38372739Y-5614033D01*
X38372736Y-5614032D01*
X38300308Y-5599625D01*
X38238397Y-5567240D01*
X38203823Y-5506523D01*
X38200500Y-5478008D01*
X38200500Y-5263847D01*
X38220185Y-5196808D01*
X38272989Y-5151053D01*
X38283528Y-5146812D01*
X38337882Y-5127793D01*
X38447150Y-5047150D01*
X38527793Y-4937882D01*
X38554187Y-4862453D01*
X38572646Y-4809701D01*
X38572646Y-4809699D01*
X38575500Y-4779269D01*
X38575500Y-3720730D01*
X38572646Y-3690300D01*
X38572646Y-3690298D01*
X38535653Y-3584582D01*
X38527793Y-3562118D01*
X38447150Y-3452850D01*
X38337882Y-3372207D01*
X38283544Y-3353193D01*
X38226768Y-3312471D01*
X38201022Y-3247518D01*
X38200500Y-3236152D01*
X38200500Y-3175726D01*
X38220185Y-3108687D01*
X38272989Y-3062932D01*
X38283547Y-3058684D01*
X38300379Y-3052794D01*
X38300378Y-3052794D01*
X38300382Y-3052793D01*
X38409650Y-2972150D01*
X38490293Y-2862882D01*
X38521904Y-2772543D01*
X38535146Y-2734701D01*
X38535146Y-2734699D01*
X38538000Y-2704269D01*
X38538000Y-2649500D01*
X38557685Y-2582461D01*
X38610489Y-2536706D01*
X38662000Y-2525500D01*
X38793921Y-2525500D01*
X38860960Y-2545185D01*
X38893690Y-2575865D01*
X38895474Y-2578282D01*
X38927848Y-2622148D01*
X38927850Y-2622150D01*
X39037118Y-2702793D01*
X39074053Y-2715717D01*
X39165299Y-2747646D01*
X39195730Y-2750500D01*
X39195734Y-2750500D01*
X40204270Y-2750500D01*
X40234699Y-2747646D01*
X40234701Y-2747646D01*
X40305005Y-2723045D01*
X40362882Y-2702793D01*
X40472150Y-2622150D01*
X40552793Y-2512882D01*
X40552793Y-2512881D01*
X40558311Y-2505405D01*
X40559881Y-2506563D01*
X40600391Y-2464923D01*
X40668453Y-2449133D01*
X40734247Y-2472646D01*
X40759685Y-2497440D01*
X40821716Y-2578280D01*
X40821718Y-2578282D01*
X40875987Y-2619924D01*
X40917189Y-2676349D01*
X40924500Y-2718298D01*
X40924500Y-4463811D01*
X40904815Y-4530850D01*
X40888181Y-4551492D01*
X40156803Y-5282870D01*
X40152814Y-5286525D01*
X40121805Y-5312545D01*
X40101562Y-5347606D01*
X40098656Y-5352166D01*
X40075446Y-5385313D01*
X40073206Y-5390117D01*
X40066229Y-5406961D01*
X40064410Y-5411959D01*
X40057383Y-5451811D01*
X40056212Y-5457091D01*
X40042928Y-5506671D01*
X40039035Y-5505628D01*
X40021189Y-5551324D01*
X39964619Y-5592333D01*
X39923073Y-5599500D01*
X39850323Y-5599500D01*
X39777264Y-5614032D01*
X39777260Y-5614033D01*
X39694399Y-5669399D01*
X39639033Y-5752260D01*
X39639032Y-5752264D01*
X39624500Y-5825321D01*
X39624500Y-6374678D01*
X39639032Y-6447735D01*
X39639033Y-6447739D01*
X39642410Y-6452793D01*
X39694399Y-6530601D01*
X39772439Y-6582745D01*
X39777260Y-6585966D01*
X39777264Y-6585967D01*
X39850321Y-6600499D01*
X39850324Y-6600500D01*
X39850326Y-6600500D01*
X40899676Y-6600500D01*
X40899677Y-6600499D01*
X40972740Y-6585966D01*
X41055601Y-6530601D01*
X41110966Y-6447740D01*
X41125500Y-6374674D01*
X41125500Y-5825326D01*
X41125500Y-5825323D01*
X41125499Y-5825321D01*
X41110967Y-5752264D01*
X41110966Y-5752260D01*
X41100074Y-5735959D01*
X41055601Y-5669399D01*
X41055600Y-5669398D01*
X40962624Y-5607274D01*
X40917819Y-5553662D01*
X40909112Y-5484337D01*
X40939266Y-5421309D01*
X40943820Y-5416505D01*
X41468215Y-4892109D01*
X41472166Y-4888489D01*
X41503194Y-4862455D01*
X41523438Y-4827390D01*
X41526335Y-4822841D01*
X41549554Y-4789684D01*
X41549554Y-4789681D01*
X41551819Y-4784824D01*
X41558747Y-4768099D01*
X41560584Y-4763050D01*
X41560588Y-4763045D01*
X41567619Y-4723162D01*
X41568777Y-4717940D01*
X41579264Y-4678807D01*
X41575735Y-4638478D01*
X41575500Y-4633075D01*
X41575500Y-2718298D01*
X41595185Y-2651259D01*
X41624010Y-2619925D01*
X41678282Y-2578282D01*
X41731584Y-2508816D01*
X41788009Y-2467615D01*
X41857755Y-2463460D01*
X41918675Y-2497671D01*
X41951429Y-2559388D01*
X41951575Y-2560111D01*
X41964032Y-2622736D01*
X41964033Y-2622739D01*
X41972097Y-2634808D01*
X42019399Y-2705601D01*
X42097601Y-2757853D01*
X42102260Y-2760966D01*
X42102264Y-2760967D01*
X42175321Y-2775499D01*
X42175324Y-2775500D01*
X42588114Y-2775500D01*
X42655153Y-2795185D01*
X42686918Y-2824575D01*
X42757433Y-2917563D01*
X42877904Y-3008920D01*
X43018556Y-3064386D01*
X43106946Y-3075000D01*
X43150000Y-3075000D01*
X43150000Y-1899000D01*
X43169685Y-1831961D01*
X43222489Y-1786206D01*
X43274000Y-1775000D01*
X43526000Y-1775000D01*
X43593039Y-1794685D01*
X43638794Y-1847489D01*
X43650000Y-1899000D01*
X43650000Y-3075000D01*
X43693054Y-3075000D01*
X43781443Y-3064386D01*
X43922095Y-3008920D01*
X44042566Y-2917563D01*
X44113082Y-2824575D01*
X44169275Y-2783051D01*
X44211886Y-2775500D01*
X44624676Y-2775500D01*
X44624677Y-2775499D01*
X44697740Y-2760966D01*
X44765351Y-2715790D01*
X44832027Y-2694913D01*
X44889323Y-2709717D01*
X44889651Y-2708926D01*
X44895272Y-2711254D01*
X44896234Y-2711503D01*
X44897152Y-2712033D01*
X44897158Y-2712035D01*
X44897159Y-2712036D01*
X45043238Y-2772544D01*
X45112542Y-2781668D01*
X45199999Y-2793182D01*
X45200000Y-2793182D01*
X45287454Y-2781668D01*
X45356486Y-2792433D01*
X45408742Y-2838813D01*
X45427628Y-2906081D01*
X45407148Y-2972882D01*
X45391338Y-2992269D01*
X44545426Y-3838181D01*
X44484103Y-3871666D01*
X44457745Y-3874500D01*
X44075323Y-3874500D01*
X44002264Y-3889032D01*
X44002261Y-3889033D01*
X43943889Y-3928035D01*
X43877211Y-3948911D01*
X43809831Y-3930425D01*
X43806111Y-3928035D01*
X43757761Y-3895730D01*
X43747740Y-3889034D01*
X43747739Y-3889033D01*
X43747738Y-3889033D01*
X43747735Y-3889032D01*
X43674677Y-3874500D01*
X43674674Y-3874500D01*
X43125326Y-3874500D01*
X43125323Y-3874500D01*
X43052264Y-3889032D01*
X43052261Y-3889033D01*
X42993889Y-3928035D01*
X42927211Y-3948911D01*
X42859831Y-3930425D01*
X42856111Y-3928035D01*
X42807761Y-3895730D01*
X42797740Y-3889034D01*
X42797739Y-3889033D01*
X42797738Y-3889033D01*
X42797735Y-3889032D01*
X42724677Y-3874500D01*
X42724674Y-3874500D01*
X42175326Y-3874500D01*
X42175323Y-3874500D01*
X42102264Y-3889032D01*
X42102260Y-3889033D01*
X42019399Y-3944399D01*
X41964033Y-4027260D01*
X41964032Y-4027264D01*
X41949500Y-4100321D01*
X41949500Y-5149678D01*
X41964032Y-5222735D01*
X41964033Y-5222739D01*
X41964034Y-5222740D01*
X42019399Y-5305601D01*
X42069390Y-5339003D01*
X42114195Y-5392613D01*
X42124500Y-5442105D01*
X42124500Y-5603648D01*
X42104815Y-5670687D01*
X42052011Y-5716442D01*
X42041463Y-5720686D01*
X42039393Y-5721410D01*
X42037117Y-5722207D01*
X41927850Y-5802850D01*
X41847207Y-5912117D01*
X41847206Y-5912119D01*
X41802353Y-6040298D01*
X41802353Y-6040300D01*
X41799500Y-6070730D01*
X41799500Y-6704269D01*
X41802353Y-6734699D01*
X41802353Y-6734701D01*
X41846877Y-6861939D01*
X41847207Y-6862882D01*
X41927850Y-6972150D01*
X42037118Y-7052793D01*
X42069463Y-7064111D01*
X42165299Y-7097646D01*
X42195730Y-7100500D01*
X42195734Y-7100500D01*
X43204270Y-7100500D01*
X43234699Y-7097646D01*
X43234701Y-7097646D01*
X43308946Y-7071666D01*
X43362882Y-7052793D01*
X43472150Y-6972150D01*
X43552793Y-6862882D01*
X43579207Y-6787395D01*
X43619928Y-6730619D01*
X43684881Y-6704872D01*
X43753443Y-6718328D01*
X43803845Y-6766716D01*
X43813286Y-6787387D01*
X43822207Y-6812882D01*
X43902850Y-6922150D01*
X44012118Y-7002793D01*
X44076033Y-7025158D01*
X44132807Y-7065878D01*
X44158555Y-7130830D01*
X44145099Y-7199392D01*
X44096712Y-7249795D01*
X44074082Y-7259904D01*
X43905878Y-7315642D01*
X43905875Y-7315643D01*
X43756654Y-7407684D01*
X43632684Y-7531654D01*
X43612438Y-7564479D01*
X43560490Y-7611204D01*
X43491527Y-7622425D01*
X43433266Y-7599152D01*
X43362886Y-7547209D01*
X43362880Y-7547206D01*
X43234700Y-7502353D01*
X43204270Y-7499500D01*
X43204266Y-7499500D01*
X42195734Y-7499500D01*
X42195730Y-7499500D01*
X42165300Y-7502353D01*
X42165298Y-7502353D01*
X42037119Y-7547206D01*
X42037117Y-7547207D01*
X41927850Y-7627850D01*
X41847207Y-7737117D01*
X41847206Y-7737119D01*
X41802353Y-7865298D01*
X41802353Y-7865300D01*
X41799500Y-7895730D01*
X41799500Y-8529269D01*
X41802353Y-8559699D01*
X41802353Y-8559701D01*
X41845320Y-8682490D01*
X41847207Y-8687882D01*
X41927850Y-8797150D01*
X42037118Y-8877793D01*
X42068063Y-8888621D01*
X42165295Y-8922645D01*
X42165299Y-8922645D01*
X42165301Y-8922646D01*
X42187078Y-8924688D01*
X42251984Y-8950544D01*
X42292610Y-9007388D01*
X42299500Y-9048146D01*
X42299500Y-11125500D01*
X42279815Y-11192539D01*
X42227011Y-11238294D01*
X42175500Y-11249500D01*
X40737000Y-11249500D01*
X40669961Y-11229815D01*
X40624206Y-11177011D01*
X40613000Y-11125500D01*
X40613000Y-8624500D01*
X40632685Y-8557461D01*
X40685489Y-8511706D01*
X40737000Y-8500500D01*
X40899676Y-8500500D01*
X40899677Y-8500499D01*
X40972740Y-8485966D01*
X41055601Y-8430601D01*
X41110966Y-8347740D01*
X41125500Y-8274674D01*
X41125500Y-7725326D01*
X41125500Y-7725323D01*
X41125499Y-7725321D01*
X41110967Y-7652264D01*
X41110966Y-7652260D01*
X41105062Y-7643424D01*
X41055601Y-7569399D01*
X40972740Y-7514034D01*
X40972739Y-7514033D01*
X40972735Y-7514032D01*
X40899677Y-7499500D01*
X40899674Y-7499500D01*
X39850326Y-7499500D01*
X39850323Y-7499500D01*
X39777264Y-7514032D01*
X39777260Y-7514033D01*
X39694399Y-7569399D01*
X39639033Y-7652260D01*
X39639032Y-7652264D01*
X39624500Y-7725321D01*
X39624500Y-8274678D01*
X39639032Y-8347735D01*
X39639033Y-8347739D01*
X39647350Y-8360186D01*
X39694399Y-8430601D01*
X39756890Y-8472355D01*
X39801696Y-8525967D01*
X39812000Y-8575458D01*
X39812000Y-11125500D01*
X39792315Y-11192539D01*
X39739511Y-11238294D01*
X39688000Y-11249500D01*
X20992254Y-11249500D01*
X20925215Y-11229815D01*
X20904573Y-11213181D01*
X19411819Y-9720426D01*
X19378334Y-9659103D01*
X19375500Y-9632745D01*
X19375500Y-9559877D01*
X19395185Y-9492838D01*
X19447989Y-9447083D01*
X19517147Y-9437139D01*
X19580703Y-9466164D01*
X19607217Y-9504678D01*
X19608991Y-9503655D01*
X19613521Y-9511502D01*
X19615947Y-9517360D01*
X19616023Y-9517470D01*
X19616239Y-9518064D01*
X19623197Y-9534861D01*
X19625445Y-9539681D01*
X19625446Y-9539684D01*
X19636760Y-9555842D01*
X19648655Y-9572831D01*
X19651561Y-9577392D01*
X19671806Y-9612455D01*
X19702815Y-9638475D01*
X19706805Y-9642131D01*
X20482863Y-10418189D01*
X20486518Y-10422178D01*
X20512541Y-10453190D01*
X20512543Y-10453191D01*
X20512545Y-10453194D01*
X20512547Y-10453195D01*
X20512548Y-10453196D01*
X20547599Y-10473433D01*
X20552163Y-10476340D01*
X20577075Y-10493784D01*
X20585316Y-10499554D01*
X20585319Y-10499554D01*
X20590176Y-10501820D01*
X20606933Y-10508760D01*
X20611953Y-10510587D01*
X20611955Y-10510588D01*
X20647806Y-10516909D01*
X20651808Y-10517615D01*
X20657080Y-10518783D01*
X20696193Y-10529264D01*
X20736522Y-10525735D01*
X20741924Y-10525500D01*
X26733078Y-10525500D01*
X26738481Y-10525735D01*
X26778807Y-10529264D01*
X26817940Y-10518777D01*
X26823162Y-10517619D01*
X26863045Y-10510588D01*
X26863050Y-10510584D01*
X26868099Y-10508747D01*
X26884824Y-10501819D01*
X26889681Y-10499554D01*
X26889684Y-10499554D01*
X26922841Y-10476335D01*
X26927390Y-10473438D01*
X26962455Y-10453194D01*
X26962459Y-10453190D01*
X26985450Y-10425789D01*
X26988481Y-10422176D01*
X26992122Y-10418202D01*
X27710321Y-9700003D01*
X29494435Y-9700003D01*
X29514630Y-9879249D01*
X29514631Y-9879254D01*
X29574211Y-10049523D01*
X29612783Y-10110909D01*
X29670184Y-10202262D01*
X29797738Y-10329816D01*
X29841851Y-10357534D01*
X29938382Y-10418189D01*
X29950478Y-10425789D01*
X30094947Y-10476341D01*
X30120745Y-10485368D01*
X30120750Y-10485369D01*
X30299996Y-10505565D01*
X30300000Y-10505565D01*
X30300004Y-10505565D01*
X30479249Y-10485369D01*
X30479252Y-10485368D01*
X30479255Y-10485368D01*
X30649522Y-10425789D01*
X30802262Y-10329816D01*
X30929816Y-10202262D01*
X31025789Y-10049522D01*
X31085368Y-9879255D01*
X31085369Y-9879249D01*
X31105565Y-9700003D01*
X31105565Y-9699996D01*
X31085369Y-9520750D01*
X31085368Y-9520745D01*
X31065213Y-9463145D01*
X31025789Y-9350478D01*
X31010180Y-9325637D01*
X30956478Y-9240170D01*
X30929816Y-9197738D01*
X30802262Y-9070184D01*
X30802261Y-9070183D01*
X30758528Y-9042704D01*
X30712237Y-8990370D01*
X30700500Y-8937710D01*
X30700500Y-8749529D01*
X30720185Y-8682490D01*
X30750867Y-8649759D01*
X30780760Y-8627697D01*
X30822150Y-8597150D01*
X30902793Y-8487882D01*
X30926481Y-8420185D01*
X30947646Y-8359701D01*
X30947646Y-8359699D01*
X30950500Y-8329269D01*
X30950500Y-7617255D01*
X30970185Y-7550216D01*
X30986819Y-7529574D01*
X31404574Y-7111819D01*
X31465897Y-7078334D01*
X31492255Y-7075500D01*
X33838431Y-7075500D01*
X33838433Y-7075500D01*
X33859501Y-7068654D01*
X33878417Y-7064112D01*
X33900304Y-7060646D01*
X33920044Y-7050586D01*
X33938011Y-7043144D01*
X33959090Y-7036296D01*
X33977026Y-7023263D01*
X33993588Y-7013114D01*
X34013342Y-7003050D01*
X34028834Y-6987557D01*
X34028841Y-6987552D01*
X34171040Y-6845353D01*
X34605483Y-6410909D01*
X34628050Y-6388342D01*
X34638107Y-6368601D01*
X34648277Y-6352007D01*
X34651765Y-6347207D01*
X34661296Y-6334090D01*
X34668142Y-6313016D01*
X34675585Y-6295047D01*
X34685646Y-6275304D01*
X34689112Y-6253417D01*
X34693655Y-6234498D01*
X34695675Y-6228282D01*
X34700500Y-6213433D01*
X34700500Y-6149564D01*
X34720185Y-6082525D01*
X34724736Y-6076876D01*
X34730597Y-6068103D01*
X34730601Y-6068101D01*
X34785966Y-5985240D01*
X34800500Y-5912174D01*
X34800500Y-4862826D01*
X34800500Y-4862823D01*
X34800499Y-4862821D01*
X34785967Y-4789764D01*
X34785966Y-4789760D01*
X34766317Y-4760353D01*
X34730601Y-4706899D01*
X34669230Y-4665893D01*
X34647739Y-4651533D01*
X34647735Y-4651532D01*
X34574677Y-4637000D01*
X34574674Y-4637000D01*
X34025326Y-4637000D01*
X34025323Y-4637000D01*
X33952264Y-4651532D01*
X33952260Y-4651533D01*
X33869399Y-4706899D01*
X33814033Y-4789760D01*
X33814032Y-4789764D01*
X33799500Y-4862821D01*
X33799500Y-5912178D01*
X33815094Y-5990575D01*
X33808867Y-6060167D01*
X33781158Y-6102447D01*
X33645424Y-6238182D01*
X33584104Y-6271666D01*
X33557745Y-6274500D01*
X32923564Y-6274500D01*
X32856525Y-6254815D01*
X32810770Y-6202011D01*
X32800826Y-6132853D01*
X32825304Y-6079251D01*
X32823815Y-6078256D01*
X32830599Y-6068101D01*
X32830601Y-6068101D01*
X32885966Y-5985240D01*
X32900500Y-5912174D01*
X32900500Y-4862826D01*
X32900500Y-4862823D01*
X32900499Y-4862821D01*
X32885967Y-4789764D01*
X32885966Y-4789760D01*
X32866317Y-4760353D01*
X32830601Y-4706899D01*
X32769230Y-4665893D01*
X32747739Y-4651533D01*
X32747735Y-4651532D01*
X32674677Y-4637000D01*
X32674674Y-4637000D01*
X32125326Y-4637000D01*
X32125323Y-4637000D01*
X32052264Y-4651532D01*
X32052260Y-4651533D01*
X31969399Y-4706899D01*
X31914033Y-4789760D01*
X31914032Y-4789764D01*
X31899500Y-4862821D01*
X31899500Y-5912178D01*
X31914032Y-5985235D01*
X31914033Y-5985239D01*
X31928493Y-6006880D01*
X31969399Y-6068101D01*
X31969400Y-6068101D01*
X31976185Y-6078256D01*
X31973518Y-6080037D01*
X31997602Y-6124142D01*
X31992618Y-6193834D01*
X31950746Y-6249767D01*
X31885282Y-6274184D01*
X31876436Y-6274500D01*
X31224500Y-6274500D01*
X31157461Y-6254815D01*
X31111706Y-6202011D01*
X31100500Y-6150500D01*
X31100500Y-5691506D01*
X31084720Y-5591878D01*
X31084719Y-5591876D01*
X31084719Y-5591874D01*
X31023528Y-5471780D01*
X31023526Y-5471778D01*
X31023523Y-5471774D01*
X30928225Y-5376476D01*
X30928221Y-5376473D01*
X30928220Y-5376472D01*
X30808126Y-5315281D01*
X30808124Y-5315280D01*
X30808121Y-5315279D01*
X30708493Y-5299500D01*
X30708488Y-5299500D01*
X29891512Y-5299500D01*
X29891507Y-5299500D01*
X29791878Y-5315279D01*
X29671778Y-5376473D01*
X29671774Y-5376476D01*
X29576476Y-5471774D01*
X29576473Y-5471778D01*
X29576472Y-5471780D01*
X29519239Y-5584107D01*
X29515279Y-5591878D01*
X29499500Y-5691506D01*
X29499500Y-6208493D01*
X29515279Y-6308121D01*
X29515280Y-6308124D01*
X29515281Y-6308126D01*
X29576472Y-6428220D01*
X29576473Y-6428221D01*
X29576476Y-6428225D01*
X29671774Y-6523523D01*
X29671778Y-6523526D01*
X29671780Y-6523528D01*
X29791874Y-6584719D01*
X29794892Y-6585197D01*
X29798268Y-6586797D01*
X29801160Y-6587737D01*
X29801038Y-6588110D01*
X29858028Y-6615123D01*
X29894962Y-6674433D01*
X29899500Y-6707671D01*
X29899500Y-6794900D01*
X29879815Y-6861939D01*
X29827011Y-6907694D01*
X29816456Y-6911941D01*
X29787118Y-6922207D01*
X29677850Y-7002850D01*
X29597207Y-7112117D01*
X29597206Y-7112119D01*
X29552353Y-7240298D01*
X29552353Y-7240300D01*
X29549500Y-7270730D01*
X29549500Y-8329269D01*
X29552353Y-8359699D01*
X29552353Y-8359701D01*
X29597206Y-8487880D01*
X29597207Y-8487882D01*
X29677850Y-8597150D01*
X29787118Y-8677793D01*
X29816456Y-8688059D01*
X29873230Y-8728779D01*
X29898978Y-8793731D01*
X29899500Y-8805099D01*
X29899500Y-8937710D01*
X29879815Y-9004749D01*
X29841472Y-9042704D01*
X29797738Y-9070183D01*
X29670184Y-9197737D01*
X29574211Y-9350476D01*
X29514631Y-9520745D01*
X29514630Y-9520750D01*
X29494435Y-9699996D01*
X29494435Y-9700003D01*
X27710321Y-9700003D01*
X28218204Y-9192120D01*
X28222171Y-9188485D01*
X28253194Y-9162455D01*
X28273438Y-9127390D01*
X28276335Y-9122841D01*
X28299554Y-9089684D01*
X28299554Y-9089681D01*
X28301819Y-9084824D01*
X28308747Y-9068099D01*
X28310584Y-9063050D01*
X28310588Y-9063045D01*
X28317619Y-9023162D01*
X28318777Y-9017940D01*
X28329264Y-8978807D01*
X28325735Y-8938481D01*
X28325500Y-8933078D01*
X28325500Y-8487000D01*
X28345185Y-8419961D01*
X28397989Y-8374206D01*
X28449500Y-8363000D01*
X28509768Y-8363000D01*
X28523101Y-8361749D01*
X28539774Y-8360186D01*
X28539778Y-8360184D01*
X28539781Y-8360184D01*
X28612612Y-8334699D01*
X28666179Y-8315955D01*
X28773930Y-8236430D01*
X28853455Y-8128679D01*
X28897686Y-8002274D01*
X28900500Y-7972264D01*
X28900500Y-7377736D01*
X28899990Y-7372302D01*
X28897686Y-7347730D01*
X28897686Y-7347726D01*
X28897684Y-7347722D01*
X28897684Y-7347718D01*
X28853455Y-7221321D01*
X28853454Y-7221319D01*
X28773930Y-7113569D01*
X28666180Y-7034045D01*
X28666178Y-7034044D01*
X28539781Y-6989815D01*
X28539769Y-6989813D01*
X28509768Y-6987000D01*
X28509764Y-6987000D01*
X27572688Y-6987000D01*
X27505649Y-6967315D01*
X27459894Y-6914511D01*
X27449950Y-6845353D01*
X27478975Y-6781797D01*
X27485007Y-6775319D01*
X27736007Y-6524319D01*
X27797330Y-6490834D01*
X27823688Y-6488000D01*
X28509768Y-6488000D01*
X28523101Y-6486749D01*
X28539774Y-6485186D01*
X28539778Y-6485184D01*
X28539781Y-6485184D01*
X28632348Y-6452793D01*
X28666179Y-6440955D01*
X28773930Y-6361430D01*
X28853455Y-6253679D01*
X28879026Y-6180601D01*
X28897684Y-6127281D01*
X28897684Y-6127278D01*
X28897686Y-6127274D01*
X28899249Y-6110601D01*
X28900500Y-6097268D01*
X28900500Y-5502731D01*
X28898181Y-5478008D01*
X28897686Y-5472726D01*
X28897684Y-5472722D01*
X28897684Y-5472718D01*
X28853455Y-5346321D01*
X28853454Y-5346319D01*
X28773930Y-5238569D01*
X28666180Y-5159045D01*
X28666178Y-5159044D01*
X28609870Y-5139341D01*
X28553094Y-5098619D01*
X28527347Y-5033666D01*
X28540804Y-4965105D01*
X28563141Y-4934622D01*
X30160945Y-3336819D01*
X30222268Y-3303334D01*
X30248626Y-3300500D01*
X30708493Y-3300500D01*
X30808121Y-3284720D01*
X30808121Y-3284719D01*
X30808126Y-3284719D01*
X30926021Y-3224648D01*
X30994686Y-3211753D01*
X31059426Y-3238029D01*
X31080684Y-3259644D01*
X31132640Y-3327354D01*
X31167056Y-3372207D01*
X31171718Y-3378282D01*
X31297159Y-3474536D01*
X31443238Y-3535044D01*
X31521619Y-3545363D01*
X31599999Y-3555682D01*
X31600000Y-3555682D01*
X31600001Y-3555682D01*
X31666334Y-3546949D01*
X31756762Y-3535044D01*
X31888641Y-3480417D01*
X31958108Y-3472949D01*
X32004980Y-3491875D01*
X32037650Y-3513704D01*
X32052260Y-3523466D01*
X32052264Y-3523467D01*
X32125321Y-3537999D01*
X32125324Y-3538000D01*
X32125326Y-3538000D01*
X32674676Y-3538000D01*
X32674677Y-3537999D01*
X32747740Y-3523466D01*
X32830601Y-3468101D01*
X32885966Y-3385240D01*
X32900500Y-3312174D01*
X32900500Y-2262826D01*
X32900500Y-2262823D01*
X32900499Y-2262821D01*
X32885967Y-2189764D01*
X32885966Y-2189760D01*
X32873948Y-2171774D01*
X32830601Y-2106899D01*
X32747740Y-2051534D01*
X32747739Y-2051533D01*
X32747735Y-2051532D01*
X32674677Y-2037000D01*
X32674674Y-2037000D01*
X32125326Y-2037000D01*
X32125323Y-2037000D01*
X32052264Y-2051532D01*
X32052260Y-2051533D01*
X31969399Y-2106899D01*
X31914033Y-2189760D01*
X31914032Y-2189763D01*
X31898717Y-2266756D01*
X31866331Y-2328666D01*
X31805615Y-2363240D01*
X31760915Y-2365502D01*
X31600001Y-2344318D01*
X31599999Y-2344318D01*
X31443239Y-2364955D01*
X31443237Y-2364956D01*
X31297156Y-2425465D01*
X31291955Y-2429456D01*
X31226784Y-2454647D01*
X31158340Y-2440604D01*
X31108353Y-2391788D01*
X31094001Y-2350474D01*
X31084720Y-2291878D01*
X31084719Y-2291876D01*
X31084719Y-2291874D01*
X31023528Y-2171780D01*
X31023526Y-2171778D01*
X31023523Y-2171774D01*
X30928225Y-2076476D01*
X30928221Y-2076473D01*
X30928220Y-2076472D01*
X30808126Y-2015281D01*
X30808124Y-2015280D01*
X30808121Y-2015279D01*
X30708493Y-1999500D01*
X30708488Y-1999500D01*
X29891512Y-1999500D01*
X29891507Y-1999500D01*
X29791878Y-2015279D01*
X29671778Y-2076473D01*
X29671774Y-2076476D01*
X29576476Y-2171774D01*
X29576473Y-2171778D01*
X29515279Y-2291878D01*
X29499500Y-2391506D01*
X29499500Y-2814116D01*
X29479815Y-2881155D01*
X29463181Y-2901797D01*
X28101797Y-4263181D01*
X28040474Y-4296666D01*
X28014116Y-4299500D01*
X24229500Y-4299500D01*
X24162461Y-4279815D01*
X24116706Y-4227011D01*
X24105500Y-4175500D01*
X24105500Y-1624000D01*
X24125185Y-1556961D01*
X24177989Y-1511206D01*
X24229500Y-1500000D01*
X35172933Y-1500000D01*
X35239972Y-1519685D01*
G37*
%TD.AperFunction*%
%TA.AperFunction,Conductor*%
G36*
X47918177Y-7982185D02*
G01*
X47938819Y-7998819D01*
X47940000Y-8000000D01*
X48826000Y-8000000D01*
X48893039Y-8019685D01*
X48938794Y-8072489D01*
X48950000Y-8124000D01*
X48950000Y-9249999D01*
X49224972Y-9249999D01*
X49224986Y-9249998D01*
X49327697Y-9239505D01*
X49436496Y-9203453D01*
X49506324Y-9201051D01*
X49566366Y-9236783D01*
X49597559Y-9299303D01*
X49599500Y-9321159D01*
X49599500Y-10182745D01*
X49579815Y-10249784D01*
X49563181Y-10270426D01*
X48620426Y-11213181D01*
X48559103Y-11246666D01*
X48532745Y-11249500D01*
X43224500Y-11249500D01*
X43157461Y-11229815D01*
X43111706Y-11177011D01*
X43100500Y-11125500D01*
X43100500Y-9048146D01*
X43120185Y-8981107D01*
X43172989Y-8935352D01*
X43212919Y-8924688D01*
X43234699Y-8922646D01*
X43234701Y-8922645D01*
X43234704Y-8922645D01*
X43306145Y-8897646D01*
X43362882Y-8877793D01*
X43401476Y-8849309D01*
X43467103Y-8825338D01*
X43535273Y-8840653D01*
X43580647Y-8883982D01*
X43632680Y-8968340D01*
X43632683Y-8968344D01*
X43756654Y-9092315D01*
X43905875Y-9184356D01*
X43905880Y-9184358D01*
X44072302Y-9239505D01*
X44072309Y-9239506D01*
X44175019Y-9249999D01*
X44449999Y-9249999D01*
X44950000Y-9249999D01*
X45224972Y-9249999D01*
X45224986Y-9249998D01*
X45327697Y-9239505D01*
X45494119Y-9184358D01*
X45494124Y-9184356D01*
X45643346Y-9092315D01*
X45649007Y-9087839D01*
X45650050Y-9089158D01*
X45703550Y-9059936D01*
X45773242Y-9064912D01*
X45795020Y-9075560D01*
X45930875Y-9159356D01*
X45930880Y-9159358D01*
X46097302Y-9214505D01*
X46097309Y-9214506D01*
X46200019Y-9224999D01*
X46449999Y-9224999D01*
X46450000Y-9224998D01*
X46450000Y-8462500D01*
X46950000Y-8462500D01*
X46950000Y-9224999D01*
X47199972Y-9224999D01*
X47199986Y-9224998D01*
X47302697Y-9214505D01*
X47469119Y-9159358D01*
X47469124Y-9159356D01*
X47604979Y-9075560D01*
X47672371Y-9057120D01*
X47739035Y-9078042D01*
X47750981Y-9087853D01*
X47750993Y-9087839D01*
X47756653Y-9092315D01*
X47905875Y-9184356D01*
X47905880Y-9184358D01*
X48072302Y-9239505D01*
X48072309Y-9239506D01*
X48175019Y-9249999D01*
X48449999Y-9249999D01*
X48450000Y-9249998D01*
X48450000Y-8500000D01*
X47523862Y-8500000D01*
X47456823Y-8480315D01*
X47436181Y-8463681D01*
X47435000Y-8462500D01*
X46950000Y-8462500D01*
X46450000Y-8462500D01*
X45965000Y-8462500D01*
X45963819Y-8463681D01*
X45902496Y-8497166D01*
X45876138Y-8500000D01*
X44950000Y-8500000D01*
X44950000Y-9249999D01*
X44449999Y-9249999D01*
X44450000Y-9249998D01*
X44450000Y-8124000D01*
X44469685Y-8056961D01*
X44522489Y-8011206D01*
X44574000Y-8000000D01*
X45460000Y-8000000D01*
X45461181Y-7998819D01*
X45522504Y-7965334D01*
X45548862Y-7962500D01*
X47851138Y-7962500D01*
X47918177Y-7982185D01*
G37*
%TD.AperFunction*%
%TD*%
M02*
