%TF.GenerationSoftware,KiCad,Pcbnew,8.0.5*%
%TF.CreationDate,2024-09-24T14:58:59+10:00*%
%TF.ProjectId,cphp82001-pcb,63706870-3832-4303-9031-2d7063622e6b,4.0*%
%TF.SameCoordinates,Original*%
%TF.FileFunction,Copper,L2,Bot*%
%TF.FilePolarity,Positive*%
%FSLAX46Y46*%
G04 Gerber Fmt 4.6, Leading zero omitted, Abs format (unit mm)*
G04 Created by KiCad (PCBNEW 8.0.5) date 2024-09-24 14:58:59*
%MOMM*%
%LPD*%
G01*
G04 APERTURE LIST*
G04 Aperture macros list*
%AMRoundRect*
0 Rectangle with rounded corners*
0 $1 Rounding radius*
0 $2 $3 $4 $5 $6 $7 $8 $9 X,Y pos of 4 corners*
0 Add a 4 corners polygon primitive as box body*
4,1,4,$2,$3,$4,$5,$6,$7,$8,$9,$2,$3,0*
0 Add four circle primitives for the rounded corners*
1,1,$1+$1,$2,$3*
1,1,$1+$1,$4,$5*
1,1,$1+$1,$6,$7*
1,1,$1+$1,$8,$9*
0 Add four rect primitives between the rounded corners*
20,1,$1+$1,$2,$3,$4,$5,0*
20,1,$1+$1,$4,$5,$6,$7,0*
20,1,$1+$1,$6,$7,$8,$9,0*
20,1,$1+$1,$8,$9,$2,$3,0*%
G04 Aperture macros list end*
%TA.AperFunction,ComponentPad*%
%ADD10O,0.800000X1.600000*%
%TD*%
%TA.AperFunction,ComponentPad*%
%ADD11O,1.550000X0.750000*%
%TD*%
%TA.AperFunction,SMDPad,CuDef*%
%ADD12RoundRect,0.800000X-6.700000X3.200000X-6.700000X-3.200000X6.700000X-3.200000X6.700000X3.200000X0*%
%TD*%
%TA.AperFunction,ViaPad*%
%ADD13C,0.800000*%
%TD*%
%TA.AperFunction,ViaPad*%
%ADD14C,1.200000*%
%TD*%
%TA.AperFunction,Conductor*%
%ADD15C,0.800000*%
%TD*%
%TA.AperFunction,Conductor*%
%ADD16C,0.250000*%
%TD*%
G04 APERTURE END LIST*
D10*
%TO.P,J1,S1,SHIELD*%
%TO.N,/GND*%
X5400000Y-2650000D03*
%TO.P,J1,S2,SHIELD__1*%
X5400000Y-7650000D03*
D11*
%TO.P,J1,S3,SHIELD__2*%
X2700000Y-1625000D03*
%TO.P,J1,S6,SHIELD__5*%
X2700000Y-8675000D03*
%TD*%
D12*
%TO.P,J3,1,Pin_1*%
%TO.N,/GND*%
X20500000Y-14500000D03*
%TD*%
%TO.P,J2,1,Pin_1*%
%TO.N,/VOUTF*%
X20500000Y-29500000D03*
%TD*%
D13*
%TO.N,/GND*%
X5000000Y-32500000D03*
X5000000Y-22000000D03*
X17900000Y-6150000D03*
X50100000Y-6900000D03*
X19000000Y-6150000D03*
X43000000Y-4000000D03*
X2500000Y-42000000D03*
X5000000Y-13500000D03*
X43000000Y-6000000D03*
X19100000Y-3550000D03*
X30600000Y-3900000D03*
X36700000Y-5300000D03*
X51000000Y-15000000D03*
X16800000Y-2900000D03*
X9550000Y-9600000D03*
X51000000Y-42000000D03*
X20200000Y-2900000D03*
X43000000Y-5000000D03*
X23250000Y-7500000D03*
X36000000Y-40500000D03*
X45200000Y-5000000D03*
X36700000Y-6200000D03*
X20000000Y-40500000D03*
X50150000Y-2550000D03*
X51000000Y-22000000D03*
X11000000Y-5200000D03*
X51000000Y-30000000D03*
X36700000Y-7200000D03*
X17900000Y-2900000D03*
X47400000Y-9400000D03*
X20050000Y-6150000D03*
X23250000Y-8900000D03*
%TO.N,/CHG*%
X19925000Y-8600000D03*
X16400000Y-9100000D03*
%TO.N,/EN*%
X37800000Y-3900000D03*
X44600000Y-2900000D03*
%TO.N,/PROG2*%
X14000000Y-4350000D03*
X23100000Y-3800000D03*
%TO.N,/TS*%
X50100000Y-8100000D03*
X18075000Y-9250000D03*
D14*
%TO.N,/VOUTF*%
X30000000Y-10200000D03*
%TD*%
D15*
%TO.N,/GND*%
X12000000Y-14500000D02*
X20500000Y-14500000D01*
X20500000Y-14500000D02*
X20500000Y-19500000D01*
D16*
%TO.N,/CHG*%
X19925000Y-8600000D02*
X19225000Y-7900000D01*
X19225000Y-7900000D02*
X17600000Y-7900000D01*
X17600000Y-7900000D02*
X16400000Y-9100000D01*
%TO.N,/EN*%
X44600000Y-2900000D02*
X38800000Y-2900000D01*
X38800000Y-2900000D02*
X37800000Y-3900000D01*
%TO.N,/PROG2*%
X23100000Y-3800000D02*
X23100000Y-2800000D01*
X23100000Y-2800000D02*
X21900000Y-1600000D01*
X15000000Y-1600000D02*
X14000000Y-2600000D01*
X14000000Y-2600000D02*
X14000000Y-4350000D01*
X21900000Y-1600000D02*
X15000000Y-1600000D01*
%TO.N,/TS*%
X31100000Y-8800000D02*
X29100000Y-8800000D01*
X48950000Y-10250000D02*
X32550000Y-10250000D01*
X50100000Y-8100000D02*
X50100000Y-9100000D01*
X29100000Y-8800000D02*
X28025000Y-9875000D01*
X50100000Y-9100000D02*
X48950000Y-10250000D01*
X28025000Y-9875000D02*
X18700000Y-9875000D01*
X18700000Y-9875000D02*
X18075000Y-9250000D01*
X32550000Y-10250000D02*
X31100000Y-8800000D01*
D15*
%TO.N,/VOUTF*%
X20500000Y-29500000D02*
X28900000Y-29500000D01*
X30000000Y-28400000D02*
X30000000Y-10200000D01*
X28900000Y-29500000D02*
X29100000Y-29300000D01*
X29100000Y-29300000D02*
X30000000Y-28400000D01*
%TD*%
%TA.AperFunction,Conductor*%
%TO.N,/GND*%
G36*
X12300952Y-501061D02*
G01*
X12406116Y-514906D01*
X12437383Y-523284D01*
X12527808Y-560739D01*
X12555842Y-576924D01*
X12640003Y-641503D01*
X12652198Y-652198D01*
X13353547Y-1353548D01*
X13353554Y-1353554D01*
X13500000Y-1500000D01*
X13707114Y-1500000D01*
X14340311Y-1500000D01*
X14407350Y-1519685D01*
X14453105Y-1572489D01*
X14463049Y-1641647D01*
X14434024Y-1705203D01*
X14427992Y-1711681D01*
X13739537Y-2400135D01*
X13739535Y-2400138D01*
X13696682Y-2474360D01*
X13696682Y-2474361D01*
X13690701Y-2496682D01*
X13690701Y-2496683D01*
X13690700Y-2496682D01*
X13674500Y-2557145D01*
X13674500Y-3781699D01*
X13654815Y-3848738D01*
X13625988Y-3880074D01*
X13571720Y-3921715D01*
X13475463Y-4047160D01*
X13414956Y-4193237D01*
X13414955Y-4193239D01*
X13394318Y-4349998D01*
X13394318Y-4350001D01*
X13414955Y-4506760D01*
X13414956Y-4506762D01*
X13475464Y-4652841D01*
X13571718Y-4778282D01*
X13697159Y-4874536D01*
X13843238Y-4935044D01*
X13921619Y-4945363D01*
X13999999Y-4955682D01*
X14000000Y-4955682D01*
X14000001Y-4955682D01*
X14052254Y-4948802D01*
X14156762Y-4935044D01*
X14302841Y-4874536D01*
X14428282Y-4778282D01*
X14524536Y-4652841D01*
X14585044Y-4506762D01*
X14605682Y-4350000D01*
X14585044Y-4193238D01*
X14524536Y-4047159D01*
X14428282Y-3921718D01*
X14428280Y-3921716D01*
X14428279Y-3921715D01*
X14374012Y-3880074D01*
X14332810Y-3823646D01*
X14325500Y-3781699D01*
X14325500Y-2786188D01*
X14345185Y-2719149D01*
X14361819Y-2698507D01*
X15098507Y-1961819D01*
X15159830Y-1928334D01*
X15186188Y-1925500D01*
X21713811Y-1925500D01*
X21780850Y-1945185D01*
X21801492Y-1961819D01*
X22738181Y-2898508D01*
X22771666Y-2959831D01*
X22774500Y-2986189D01*
X22774500Y-3231699D01*
X22754815Y-3298738D01*
X22725988Y-3330074D01*
X22671720Y-3371715D01*
X22575463Y-3497160D01*
X22514956Y-3643237D01*
X22514955Y-3643239D01*
X22494318Y-3799998D01*
X22494318Y-3800001D01*
X22514955Y-3956760D01*
X22514956Y-3956762D01*
X22556376Y-4056760D01*
X22575464Y-4102841D01*
X22671718Y-4228282D01*
X22797159Y-4324536D01*
X22943238Y-4385044D01*
X23021619Y-4395363D01*
X23099999Y-4405682D01*
X23100000Y-4405682D01*
X23100001Y-4405682D01*
X23152254Y-4398802D01*
X23256762Y-4385044D01*
X23402841Y-4324536D01*
X23528282Y-4228282D01*
X23624536Y-4102841D01*
X23685044Y-3956762D01*
X23692517Y-3899998D01*
X37194318Y-3899998D01*
X37194318Y-3900001D01*
X37214955Y-4056760D01*
X37214956Y-4056762D01*
X37275464Y-4202841D01*
X37371718Y-4328282D01*
X37497159Y-4424536D01*
X37643238Y-4485044D01*
X37721619Y-4495363D01*
X37799999Y-4505682D01*
X37800000Y-4505682D01*
X37800001Y-4505682D01*
X37852254Y-4498802D01*
X37956762Y-4485044D01*
X38102841Y-4424536D01*
X38228282Y-4328282D01*
X38324536Y-4202841D01*
X38385044Y-4056762D01*
X38405682Y-3900000D01*
X38396753Y-3832180D01*
X38407518Y-3763145D01*
X38432008Y-3728316D01*
X38898507Y-3261819D01*
X38959830Y-3228334D01*
X38986188Y-3225500D01*
X44031701Y-3225500D01*
X44098740Y-3245185D01*
X44130077Y-3274014D01*
X44161492Y-3314956D01*
X44171718Y-3328282D01*
X44297159Y-3424536D01*
X44443238Y-3485044D01*
X44521619Y-3495363D01*
X44599999Y-3505682D01*
X44600000Y-3505682D01*
X44600001Y-3505682D01*
X44664739Y-3497159D01*
X44756762Y-3485044D01*
X44902841Y-3424536D01*
X45028282Y-3328282D01*
X45124536Y-3202841D01*
X45185044Y-3056762D01*
X45205682Y-2900000D01*
X45185044Y-2743238D01*
X45124536Y-2597159D01*
X45028282Y-2471718D01*
X44902841Y-2375464D01*
X44756762Y-2314956D01*
X44756760Y-2314955D01*
X44600001Y-2294318D01*
X44599999Y-2294318D01*
X44443239Y-2314955D01*
X44443237Y-2314956D01*
X44297160Y-2375463D01*
X44171716Y-2471719D01*
X44130077Y-2525986D01*
X44073649Y-2567189D01*
X44031701Y-2574500D01*
X38850465Y-2574500D01*
X38850449Y-2574499D01*
X38842853Y-2574499D01*
X38757148Y-2574499D01*
X38715755Y-2585590D01*
X38674360Y-2596682D01*
X38674355Y-2596685D01*
X38600144Y-2639530D01*
X38600136Y-2639536D01*
X38539533Y-2700140D01*
X37971684Y-3267988D01*
X37910361Y-3301473D01*
X37867818Y-3303246D01*
X37800001Y-3294318D01*
X37799999Y-3294318D01*
X37643239Y-3314955D01*
X37643237Y-3314956D01*
X37497160Y-3375463D01*
X37371718Y-3471718D01*
X37275463Y-3597160D01*
X37214956Y-3743237D01*
X37214955Y-3743239D01*
X37194318Y-3899998D01*
X23692517Y-3899998D01*
X23705682Y-3800000D01*
X23685044Y-3643238D01*
X23624536Y-3497159D01*
X23528282Y-3371718D01*
X23528280Y-3371716D01*
X23528279Y-3371715D01*
X23474012Y-3330074D01*
X23432810Y-3273646D01*
X23425500Y-3231699D01*
X23425500Y-2757149D01*
X23425500Y-2757147D01*
X23403318Y-2674362D01*
X23403318Y-2674361D01*
X23360465Y-2600138D01*
X22472008Y-1711681D01*
X22438523Y-1650358D01*
X22443507Y-1580666D01*
X22485379Y-1524733D01*
X22550843Y-1500316D01*
X22559689Y-1500000D01*
X43292886Y-1500000D01*
X43292893Y-1500000D01*
X43500000Y-1500000D01*
X44347809Y-652190D01*
X44359996Y-641503D01*
X44444157Y-576924D01*
X44472191Y-560739D01*
X44562616Y-523284D01*
X44593882Y-514906D01*
X44699048Y-501061D01*
X44715233Y-500000D01*
X54991874Y-500000D01*
X55008059Y-501061D01*
X55113223Y-514906D01*
X55144491Y-523284D01*
X55234918Y-560740D01*
X55262952Y-576925D01*
X55340602Y-636509D01*
X55363491Y-659398D01*
X55423074Y-737048D01*
X55439259Y-765081D01*
X55476715Y-855508D01*
X55485093Y-886775D01*
X55498939Y-991939D01*
X55500000Y-1008125D01*
X55500000Y-9284767D01*
X55498939Y-9300953D01*
X55485093Y-9406117D01*
X55476715Y-9437383D01*
X55439260Y-9527808D01*
X55423075Y-9555842D01*
X55358496Y-9640003D01*
X55347801Y-9652198D01*
X54646451Y-10353547D01*
X54646445Y-10353554D01*
X54646441Y-10353558D01*
X54500000Y-10500000D01*
X54500000Y-34500000D01*
X54646445Y-34646445D01*
X54646451Y-34646452D01*
X55347801Y-35347801D01*
X55358496Y-35359996D01*
X55423075Y-35444157D01*
X55439260Y-35472191D01*
X55476715Y-35562616D01*
X55485093Y-35593882D01*
X55498939Y-35699046D01*
X55500000Y-35715232D01*
X55500000Y-42991874D01*
X55498939Y-43008060D01*
X55485093Y-43113224D01*
X55476715Y-43144491D01*
X55439259Y-43234918D01*
X55423074Y-43262951D01*
X55363491Y-43340601D01*
X55340601Y-43363491D01*
X55262951Y-43423074D01*
X55234918Y-43439259D01*
X55144491Y-43476715D01*
X55113224Y-43485093D01*
X55019398Y-43497446D01*
X55008058Y-43498939D01*
X54991874Y-43500000D01*
X44715233Y-43500000D01*
X44699048Y-43498939D01*
X44686024Y-43497224D01*
X44593882Y-43485093D01*
X44562616Y-43476715D01*
X44472191Y-43439260D01*
X44444157Y-43423075D01*
X44359996Y-43358496D01*
X44347801Y-43347801D01*
X43646452Y-42646451D01*
X43646445Y-42646445D01*
X43500000Y-42500000D01*
X43292893Y-42500000D01*
X43292886Y-42500000D01*
X13707114Y-42500000D01*
X13707107Y-42500000D01*
X13500000Y-42500000D01*
X13353558Y-42646441D01*
X13353554Y-42646445D01*
X13353547Y-42646451D01*
X12652198Y-43347801D01*
X12640003Y-43358496D01*
X12555842Y-43423075D01*
X12527808Y-43439260D01*
X12437383Y-43476715D01*
X12406117Y-43485093D01*
X12312291Y-43497446D01*
X12300951Y-43498939D01*
X12284767Y-43500000D01*
X1008126Y-43500000D01*
X991941Y-43498939D01*
X978917Y-43497224D01*
X886775Y-43485093D01*
X855508Y-43476715D01*
X765081Y-43439259D01*
X737048Y-43423074D01*
X659398Y-43363491D01*
X636508Y-43340601D01*
X576925Y-43262951D01*
X560740Y-43234918D01*
X523284Y-43144491D01*
X514906Y-43113223D01*
X501061Y-43008059D01*
X500000Y-42991874D01*
X500000Y-35715232D01*
X501061Y-35699047D01*
X514906Y-35593883D01*
X523284Y-35562616D01*
X560739Y-35472191D01*
X576924Y-35444157D01*
X641503Y-35359996D01*
X652190Y-35347809D01*
X1353553Y-34646447D01*
X1500000Y-34500000D01*
X1500000Y-26243214D01*
X12499500Y-26243214D01*
X12499500Y-32756785D01*
X12514364Y-32926687D01*
X12514366Y-32926697D01*
X12573258Y-33146488D01*
X12573261Y-33146497D01*
X12669431Y-33352732D01*
X12669432Y-33352734D01*
X12799954Y-33539141D01*
X12960858Y-33700045D01*
X12960861Y-33700047D01*
X13147266Y-33830568D01*
X13353504Y-33926739D01*
X13573308Y-33985635D01*
X13743214Y-34000499D01*
X13743215Y-34000500D01*
X13743216Y-34000500D01*
X27256785Y-34000500D01*
X27256785Y-34000499D01*
X27426692Y-33985635D01*
X27646496Y-33926739D01*
X27852734Y-33830568D01*
X28039139Y-33700047D01*
X28200047Y-33539139D01*
X28330568Y-33352734D01*
X28426739Y-33146496D01*
X28485635Y-32926692D01*
X28500500Y-32756784D01*
X28500500Y-30224500D01*
X28520185Y-30157461D01*
X28572989Y-30111706D01*
X28624500Y-30100500D01*
X28813331Y-30100500D01*
X28813347Y-30100501D01*
X28820943Y-30100501D01*
X28979054Y-30100501D01*
X28979057Y-30100501D01*
X29131785Y-30059577D01*
X29181904Y-30030639D01*
X29268716Y-29980520D01*
X29380520Y-29868716D01*
X29380520Y-29868714D01*
X29580520Y-29668716D01*
X29580520Y-29668714D01*
X29590725Y-29658510D01*
X29590729Y-29658505D01*
X30368713Y-28880521D01*
X30368716Y-28880520D01*
X30480520Y-28768716D01*
X30530639Y-28681904D01*
X30559577Y-28631785D01*
X30600500Y-28479058D01*
X30600500Y-28320943D01*
X30600500Y-18124000D01*
X30620185Y-18056961D01*
X30672989Y-18011206D01*
X30724500Y-18000000D01*
X40000000Y-18000000D01*
X40500000Y-17500000D01*
X40500000Y-11500000D01*
X40000000Y-11000000D01*
X30724500Y-11000000D01*
X30657461Y-10980315D01*
X30611706Y-10927511D01*
X30600500Y-10876000D01*
X30600500Y-10782412D01*
X30620185Y-10715373D01*
X30627555Y-10705097D01*
X30629810Y-10702267D01*
X30629816Y-10702262D01*
X30725789Y-10549522D01*
X30785368Y-10379255D01*
X30786799Y-10366557D01*
X30805565Y-10200003D01*
X30805565Y-10199996D01*
X30785369Y-10020750D01*
X30785368Y-10020745D01*
X30725788Y-9850476D01*
X30678071Y-9774536D01*
X30629816Y-9697738D01*
X30502262Y-9570184D01*
X30469344Y-9549500D01*
X30349523Y-9474211D01*
X30179254Y-9414631D01*
X30179249Y-9414630D01*
X30000004Y-9394435D01*
X29999996Y-9394435D01*
X29820750Y-9414630D01*
X29820745Y-9414631D01*
X29650476Y-9474211D01*
X29497737Y-9570184D01*
X29370184Y-9697737D01*
X29274211Y-9850476D01*
X29214631Y-10020745D01*
X29214630Y-10020750D01*
X29194435Y-10199996D01*
X29194435Y-10200003D01*
X29214630Y-10379249D01*
X29214631Y-10379254D01*
X29274211Y-10549523D01*
X29370185Y-10702263D01*
X29372445Y-10705097D01*
X29373334Y-10707275D01*
X29373889Y-10708158D01*
X29373734Y-10708255D01*
X29398855Y-10769783D01*
X29399500Y-10782412D01*
X29399500Y-28099902D01*
X29379815Y-28166941D01*
X29363181Y-28187583D01*
X28712181Y-28838583D01*
X28650858Y-28872068D01*
X28581166Y-28867084D01*
X28525233Y-28825212D01*
X28500816Y-28759748D01*
X28500500Y-28750902D01*
X28500500Y-26243215D01*
X28500499Y-26243214D01*
X28485635Y-26073308D01*
X28426739Y-25853504D01*
X28330568Y-25647266D01*
X28200047Y-25460861D01*
X28200045Y-25460858D01*
X28039141Y-25299954D01*
X27852734Y-25169432D01*
X27852732Y-25169431D01*
X27646497Y-25073261D01*
X27646488Y-25073258D01*
X27426697Y-25014366D01*
X27426687Y-25014364D01*
X27256785Y-24999500D01*
X27256784Y-24999500D01*
X13743216Y-24999500D01*
X13743215Y-24999500D01*
X13573312Y-25014364D01*
X13573302Y-25014366D01*
X13353511Y-25073258D01*
X13353502Y-25073261D01*
X13147267Y-25169431D01*
X13147265Y-25169432D01*
X12960858Y-25299954D01*
X12799954Y-25460858D01*
X12669432Y-25647265D01*
X12669431Y-25647267D01*
X12573261Y-25853502D01*
X12573258Y-25853511D01*
X12514366Y-26073302D01*
X12514364Y-26073312D01*
X12499500Y-26243214D01*
X1500000Y-26243214D01*
X1500000Y-11241999D01*
X12800000Y-11241999D01*
X12800000Y-17758000D01*
X12810608Y-17877325D01*
X12810609Y-17877328D01*
X12866557Y-18072861D01*
X12960721Y-18253129D01*
X13089246Y-18410753D01*
X13246870Y-18539278D01*
X13427138Y-18633442D01*
X13622671Y-18689390D01*
X13622674Y-18689391D01*
X13741999Y-18699999D01*
X13742002Y-18700000D01*
X27257998Y-18700000D01*
X27258000Y-18699999D01*
X27377325Y-18689391D01*
X27377328Y-18689390D01*
X27572861Y-18633442D01*
X27753129Y-18539278D01*
X27910753Y-18410753D01*
X28039278Y-18253129D01*
X28133442Y-18072861D01*
X28189390Y-17877328D01*
X28189391Y-17877325D01*
X28199999Y-17758000D01*
X28200000Y-17757998D01*
X28200000Y-11242002D01*
X28199999Y-11241999D01*
X28189391Y-11122674D01*
X28189390Y-11122671D01*
X28133442Y-10927138D01*
X28039278Y-10746870D01*
X27910753Y-10589246D01*
X27753129Y-10460721D01*
X27702757Y-10434409D01*
X27652450Y-10385923D01*
X27636342Y-10317935D01*
X27659548Y-10252032D01*
X27714701Y-10209137D01*
X27760168Y-10200500D01*
X28067851Y-10200500D01*
X28067853Y-10200500D01*
X28150639Y-10178318D01*
X28224862Y-10135465D01*
X29198507Y-9161818D01*
X29259830Y-9128334D01*
X29286188Y-9125500D01*
X30913811Y-9125500D01*
X30980850Y-9145185D01*
X31001492Y-9161819D01*
X32285194Y-10445520D01*
X32285204Y-10445531D01*
X32289534Y-10449861D01*
X32289535Y-10449862D01*
X32350138Y-10510465D01*
X32417787Y-10549522D01*
X32424362Y-10553318D01*
X32507147Y-10575501D01*
X32507149Y-10575501D01*
X32600449Y-10575501D01*
X32600465Y-10575500D01*
X48992851Y-10575500D01*
X48992853Y-10575500D01*
X49075639Y-10553318D01*
X49149862Y-10510465D01*
X50289652Y-9370672D01*
X50289657Y-9370669D01*
X50299860Y-9360465D01*
X50299862Y-9360465D01*
X50360465Y-9299862D01*
X50403318Y-9225638D01*
X50408665Y-9205682D01*
X50425501Y-9142853D01*
X50425501Y-9057147D01*
X50425501Y-9049552D01*
X50425500Y-9049534D01*
X50425500Y-8668298D01*
X50445185Y-8601259D01*
X50474010Y-8569925D01*
X50528282Y-8528282D01*
X50624536Y-8402841D01*
X50685044Y-8256762D01*
X50705682Y-8100000D01*
X50685044Y-7943238D01*
X50624536Y-7797159D01*
X50528282Y-7671718D01*
X50402841Y-7575464D01*
X50256762Y-7514956D01*
X50256760Y-7514955D01*
X50100001Y-7494318D01*
X50099999Y-7494318D01*
X49943239Y-7514955D01*
X49943237Y-7514956D01*
X49797160Y-7575463D01*
X49671718Y-7671718D01*
X49575463Y-7797160D01*
X49514956Y-7943237D01*
X49514955Y-7943239D01*
X49494318Y-8099998D01*
X49494318Y-8100000D01*
X49514955Y-8256760D01*
X49514956Y-8256762D01*
X49525240Y-8281591D01*
X49575464Y-8402841D01*
X49671718Y-8528282D01*
X49725987Y-8569924D01*
X49767189Y-8626349D01*
X49774500Y-8668298D01*
X49774500Y-8913811D01*
X49754815Y-8980850D01*
X49738181Y-9001492D01*
X48851492Y-9888181D01*
X48790169Y-9921666D01*
X48763811Y-9924500D01*
X32736188Y-9924500D01*
X32669149Y-9904815D01*
X32648507Y-9888181D01*
X31985966Y-9225640D01*
X31299862Y-8539535D01*
X31257289Y-8514955D01*
X31225640Y-8496682D01*
X31184246Y-8485591D01*
X31142853Y-8474500D01*
X31142852Y-8474500D01*
X29150465Y-8474500D01*
X29150449Y-8474499D01*
X29142853Y-8474499D01*
X29057148Y-8474499D01*
X29015755Y-8485590D01*
X28974360Y-8496682D01*
X28974355Y-8496685D01*
X28900144Y-8539530D01*
X28900136Y-8539536D01*
X27926492Y-9513181D01*
X27865169Y-9546666D01*
X27838811Y-9549500D01*
X18886189Y-9549500D01*
X18819150Y-9529815D01*
X18798508Y-9513181D01*
X18707011Y-9421684D01*
X18673526Y-9360361D01*
X18671753Y-9317816D01*
X18673974Y-9300953D01*
X18680682Y-9250000D01*
X18674847Y-9205682D01*
X18660044Y-9093239D01*
X18660044Y-9093238D01*
X18599536Y-8947159D01*
X18503282Y-8821718D01*
X18377841Y-8725464D01*
X18231762Y-8664956D01*
X18231760Y-8664955D01*
X18075001Y-8644318D01*
X18074999Y-8644318D01*
X17918239Y-8664955D01*
X17918237Y-8664956D01*
X17772160Y-8725463D01*
X17646718Y-8821718D01*
X17550463Y-8947160D01*
X17489956Y-9093237D01*
X17489955Y-9093239D01*
X17469318Y-9249998D01*
X17469318Y-9250000D01*
X17489955Y-9406760D01*
X17489956Y-9406762D01*
X17550464Y-9552841D01*
X17646718Y-9678282D01*
X17772159Y-9774536D01*
X17918238Y-9835044D01*
X17946548Y-9838771D01*
X18074999Y-9855682D01*
X18074999Y-9855681D01*
X18075000Y-9855682D01*
X18142817Y-9846753D01*
X18211852Y-9857518D01*
X18246684Y-9882011D01*
X18452992Y-10088319D01*
X18486477Y-10149642D01*
X18481493Y-10219334D01*
X18439621Y-10275267D01*
X18374157Y-10299684D01*
X18365311Y-10300000D01*
X13741999Y-10300000D01*
X13622674Y-10310608D01*
X13622671Y-10310609D01*
X13427138Y-10366557D01*
X13246870Y-10460721D01*
X13089246Y-10589246D01*
X12960721Y-10746870D01*
X12866557Y-10927138D01*
X12810609Y-11122671D01*
X12810608Y-11122674D01*
X12800000Y-11241999D01*
X1500000Y-11241999D01*
X1500000Y-10500000D01*
X1500000Y-8852861D01*
X1519685Y-8785822D01*
X1572489Y-8740067D01*
X1641647Y-8730123D01*
X1705203Y-8759148D01*
X1742977Y-8817926D01*
X1743775Y-8820768D01*
X1764185Y-8896941D01*
X1764186Y-8896944D01*
X1839883Y-9028054D01*
X1839887Y-9028060D01*
X1946939Y-9135112D01*
X1946945Y-9135116D01*
X2078055Y-9210813D01*
X2078058Y-9210814D01*
X2224300Y-9249999D01*
X2224302Y-9250000D01*
X3175698Y-9250000D01*
X3175699Y-9249999D01*
X3321941Y-9210814D01*
X3321944Y-9210813D01*
X3453054Y-9135116D01*
X3453060Y-9135112D01*
X3488174Y-9099998D01*
X15794318Y-9099998D01*
X15794318Y-9100001D01*
X15814955Y-9256760D01*
X15814956Y-9256762D01*
X15833260Y-9300953D01*
X15875464Y-9402841D01*
X15971718Y-9528282D01*
X16097159Y-9624536D01*
X16243238Y-9685044D01*
X16321619Y-9695363D01*
X16399999Y-9705682D01*
X16400000Y-9705682D01*
X16400001Y-9705682D01*
X16460341Y-9697738D01*
X16556762Y-9685044D01*
X16702841Y-9624536D01*
X16828282Y-9528282D01*
X16924536Y-9402841D01*
X16985044Y-9256762D01*
X17005682Y-9100000D01*
X17000039Y-9057143D01*
X16996753Y-9032181D01*
X17007518Y-8963146D01*
X17032008Y-8928317D01*
X17698508Y-8261819D01*
X17759831Y-8228334D01*
X17786189Y-8225500D01*
X19038811Y-8225500D01*
X19105850Y-8245185D01*
X19126492Y-8261819D01*
X19292988Y-8428315D01*
X19326473Y-8489638D01*
X19328246Y-8532181D01*
X19319318Y-8599998D01*
X19319318Y-8600001D01*
X19339955Y-8756760D01*
X19339956Y-8756762D01*
X19379761Y-8852861D01*
X19400464Y-8902841D01*
X19496718Y-9028282D01*
X19622159Y-9124536D01*
X19768238Y-9185044D01*
X19846619Y-9195363D01*
X19924999Y-9205682D01*
X19925000Y-9205682D01*
X19925001Y-9205682D01*
X19977254Y-9198802D01*
X20081762Y-9185044D01*
X20227841Y-9124536D01*
X20353282Y-9028282D01*
X20449536Y-8902841D01*
X20510044Y-8756762D01*
X20530682Y-8600000D01*
X20510044Y-8443238D01*
X20449536Y-8297159D01*
X20353282Y-8171718D01*
X20227841Y-8075464D01*
X20081762Y-8014956D01*
X20081760Y-8014955D01*
X19925001Y-7994318D01*
X19924999Y-7994318D01*
X19857181Y-8003246D01*
X19788145Y-7992480D01*
X19753315Y-7967988D01*
X19424864Y-7639537D01*
X19424862Y-7639535D01*
X19387750Y-7618108D01*
X19350640Y-7596682D01*
X19309246Y-7585591D01*
X19267853Y-7574500D01*
X17642853Y-7574500D01*
X17557147Y-7574500D01*
X17474359Y-7596682D01*
X17400138Y-7639535D01*
X17400135Y-7639537D01*
X16571683Y-8467988D01*
X16510360Y-8501473D01*
X16467817Y-8503246D01*
X16400001Y-8494318D01*
X16399999Y-8494318D01*
X16243239Y-8514955D01*
X16243237Y-8514956D01*
X16097160Y-8575463D01*
X15971718Y-8671718D01*
X15875463Y-8797160D01*
X15814956Y-8943237D01*
X15814955Y-8943239D01*
X15794318Y-9099998D01*
X3488174Y-9099998D01*
X3560112Y-9028060D01*
X3560116Y-9028054D01*
X3635813Y-8896944D01*
X3635814Y-8896941D01*
X3674999Y-8750699D01*
X3675000Y-8750698D01*
X3675000Y-8599302D01*
X3674999Y-8599300D01*
X3635814Y-8453058D01*
X3635813Y-8453055D01*
X3560116Y-8321945D01*
X3560112Y-8321939D01*
X3453060Y-8214887D01*
X3453054Y-8214883D01*
X3321944Y-8139186D01*
X3321941Y-8139185D01*
X3175699Y-8100000D01*
X2224300Y-8100000D01*
X2078058Y-8139185D01*
X2078055Y-8139186D01*
X1946945Y-8214883D01*
X1946939Y-8214887D01*
X1839887Y-8321939D01*
X1839883Y-8321945D01*
X1764186Y-8453055D01*
X1764185Y-8453058D01*
X1743775Y-8529231D01*
X1707410Y-8588892D01*
X1644563Y-8619421D01*
X1575188Y-8611126D01*
X1521310Y-8566641D01*
X1500035Y-8500089D01*
X1500000Y-8497138D01*
X1500000Y-7171009D01*
X4800000Y-7171009D01*
X4800000Y-8128990D01*
X4840889Y-8281591D01*
X4919881Y-8418407D01*
X4919883Y-8418410D01*
X5031589Y-8530116D01*
X5031592Y-8530118D01*
X5168408Y-8609110D01*
X5321009Y-8649999D01*
X5321011Y-8650000D01*
X5478989Y-8650000D01*
X5478990Y-8649999D01*
X5631591Y-8609110D01*
X5768407Y-8530118D01*
X5768410Y-8530116D01*
X5880116Y-8418410D01*
X5880118Y-8418407D01*
X5959110Y-8281591D01*
X5999999Y-8128990D01*
X6000000Y-8128989D01*
X6000000Y-7171011D01*
X5999999Y-7171009D01*
X5959110Y-7018408D01*
X5880118Y-6881592D01*
X5880116Y-6881589D01*
X5768410Y-6769883D01*
X5768407Y-6769881D01*
X5631591Y-6690889D01*
X5478990Y-6650000D01*
X5321009Y-6650000D01*
X5168408Y-6690889D01*
X5031592Y-6769881D01*
X5031589Y-6769883D01*
X4919883Y-6881589D01*
X4919881Y-6881592D01*
X4840889Y-7018408D01*
X4800000Y-7171009D01*
X1500000Y-7171009D01*
X1500000Y-1802861D01*
X1519685Y-1735822D01*
X1572489Y-1690067D01*
X1641647Y-1680123D01*
X1705203Y-1709148D01*
X1742977Y-1767926D01*
X1743775Y-1770768D01*
X1764185Y-1846941D01*
X1764186Y-1846944D01*
X1839883Y-1978054D01*
X1839887Y-1978060D01*
X1946939Y-2085112D01*
X1946945Y-2085116D01*
X2078055Y-2160813D01*
X2078058Y-2160814D01*
X2224300Y-2199999D01*
X2224302Y-2200000D01*
X3175698Y-2200000D01*
X3175699Y-2199999D01*
X3283892Y-2171009D01*
X4800000Y-2171009D01*
X4800000Y-3128990D01*
X4840889Y-3281591D01*
X4919881Y-3418407D01*
X4919883Y-3418410D01*
X5031589Y-3530116D01*
X5031592Y-3530118D01*
X5168408Y-3609110D01*
X5321009Y-3649999D01*
X5321011Y-3650000D01*
X5478989Y-3650000D01*
X5478990Y-3649999D01*
X5631591Y-3609110D01*
X5768407Y-3530118D01*
X5768410Y-3530116D01*
X5880116Y-3418410D01*
X5880118Y-3418407D01*
X5959110Y-3281591D01*
X5999999Y-3128990D01*
X6000000Y-3128989D01*
X6000000Y-2171011D01*
X5999999Y-2171009D01*
X5959110Y-2018408D01*
X5880118Y-1881592D01*
X5880116Y-1881589D01*
X5768410Y-1769883D01*
X5768407Y-1769881D01*
X5631591Y-1690889D01*
X5478990Y-1650000D01*
X5321009Y-1650000D01*
X5168408Y-1690889D01*
X5031592Y-1769881D01*
X5031589Y-1769883D01*
X4919883Y-1881589D01*
X4919881Y-1881592D01*
X4840889Y-2018408D01*
X4800000Y-2171009D01*
X3283892Y-2171009D01*
X3321941Y-2160814D01*
X3321944Y-2160813D01*
X3453054Y-2085116D01*
X3453060Y-2085112D01*
X3560112Y-1978060D01*
X3560116Y-1978054D01*
X3635813Y-1846944D01*
X3635814Y-1846941D01*
X3674999Y-1700699D01*
X3675000Y-1700698D01*
X3675000Y-1549302D01*
X3674999Y-1549300D01*
X3635814Y-1403058D01*
X3635813Y-1403055D01*
X3560116Y-1271945D01*
X3560112Y-1271939D01*
X3453060Y-1164887D01*
X3453054Y-1164883D01*
X3321944Y-1089186D01*
X3321941Y-1089185D01*
X3175699Y-1050000D01*
X2224300Y-1050000D01*
X2078058Y-1089185D01*
X2078055Y-1089186D01*
X1946945Y-1164883D01*
X1946939Y-1164887D01*
X1839887Y-1271939D01*
X1839883Y-1271945D01*
X1764186Y-1403055D01*
X1764185Y-1403058D01*
X1743775Y-1479231D01*
X1707410Y-1538892D01*
X1644563Y-1569421D01*
X1575188Y-1561126D01*
X1521310Y-1516641D01*
X1500035Y-1450089D01*
X1500000Y-1447138D01*
X1500000Y-1008125D01*
X1501061Y-991940D01*
X1514906Y-886776D01*
X1523284Y-855508D01*
X1560740Y-765081D01*
X1576923Y-737050D01*
X1636513Y-659392D01*
X1659392Y-636513D01*
X1737050Y-576923D01*
X1765079Y-560740D01*
X1855509Y-523283D01*
X1886775Y-514906D01*
X1991941Y-501061D01*
X2008126Y-500000D01*
X12284767Y-500000D01*
X12300952Y-501061D01*
G37*
%TD.AperFunction*%
%TD*%
M02*
