%TF.GenerationSoftware,KiCad,Pcbnew,7.0.10*%
%TF.CreationDate,2024-01-23T13:34:08+11:00*%
%TF.ProjectId,cphp82001-pcb,63706870-3832-4303-9031-2d7063622e6b,3.1*%
%TF.SameCoordinates,Original*%
%TF.FileFunction,Legend,Top*%
%TF.FilePolarity,Positive*%
%FSLAX46Y46*%
G04 Gerber Fmt 4.6, Leading zero omitted, Abs format (unit mm)*
G04 Created by KiCad (PCBNEW 7.0.10) date 2024-01-23 13:34:08*
%MOMM*%
%LPD*%
G01*
G04 APERTURE LIST*
%ADD10C,0.150000*%
%ADD11C,0.127000*%
%ADD12C,0.200000*%
%ADD13C,0.120000*%
G04 APERTURE END LIST*
D10*
X26800000Y-15000000D02*
X30100000Y-15000000D01*
X30100000Y-11800000D01*
X26800000Y-11800000D01*
X26800000Y-15000000D01*
X34100000Y-11600000D02*
X37700000Y-11600000D01*
X37700000Y-14600000D01*
X34100000Y-14600000D01*
X34100000Y-11600000D01*
X37200000Y-13900000D02*
X37200000Y-14300000D01*
X30600000Y-9200000D02*
X33600000Y-9200000D01*
X33600000Y-11000000D01*
X30600000Y-11000000D01*
X30600000Y-9200000D01*
X14200000Y-17400000D02*
X17200000Y-17400000D01*
X17200000Y-19400000D01*
X14200000Y-19400000D01*
X14200000Y-17400000D01*
X20900000Y-18700000D02*
X22900000Y-18700000D01*
X22900000Y-15700000D01*
X20900000Y-15700000D01*
X20900000Y-18700000D01*
X40900000Y-11300000D02*
X44500000Y-11300000D01*
X44500000Y-14300000D01*
X40900000Y-14300000D01*
X40900000Y-11300000D01*
X44000000Y-13600000D02*
X44000000Y-14000000D01*
X17300000Y-14200000D02*
X20700000Y-14200000D01*
X20700000Y-18000000D01*
X17300000Y-18000000D01*
X17300000Y-14200000D01*
X7475000Y-10750000D02*
X10475000Y-10750000D01*
X10475000Y-12750000D01*
X7475000Y-12750000D01*
X7475000Y-10750000D01*
X37500000Y-11000000D02*
X40500000Y-11000000D01*
X40500000Y-9200000D01*
X37500000Y-9200000D01*
X37500000Y-11000000D01*
X13600000Y-43000000D02*
X4600000Y-43000000D01*
X11000000Y-10700000D02*
X16000000Y-10700000D01*
X16000000Y-12800000D01*
X11000000Y-12800000D01*
X11000000Y-10700000D01*
X33600000Y-11300000D02*
X30600000Y-11300000D01*
X30600000Y-14900000D01*
X33600000Y-14900000D01*
X33600000Y-11300000D01*
X27000000Y-18000000D02*
X30000000Y-18000000D01*
X30000000Y-16000000D01*
X27000000Y-16000000D01*
X27000000Y-18000000D01*
X31300000Y-14500000D02*
X30900000Y-14500000D01*
X45050000Y-14600000D02*
X48350000Y-14600000D01*
X48350000Y-16400000D01*
X45050000Y-16400000D01*
X45050000Y-14600000D01*
X11600000Y-13200000D02*
X14800000Y-13200000D01*
X14800000Y-16500000D01*
X11600000Y-16500000D01*
X11600000Y-13200000D01*
X34100000Y-9200000D02*
X37100000Y-9200000D01*
X37100000Y-11000000D01*
X34100000Y-11000000D01*
X34100000Y-9200000D01*
X41000000Y-11000000D02*
X44000000Y-11000000D01*
X44000000Y-9200000D01*
X41000000Y-9200000D01*
X41000000Y-11000000D01*
X1600000Y-9800000D02*
X1600000Y-43800000D01*
X7475000Y-13200000D02*
X11075000Y-13200000D01*
X11075000Y-16800000D01*
X7475000Y-16800000D01*
X7475000Y-13200000D01*
X51600000Y-43000000D02*
X51600000Y-9000000D01*
X17800000Y-17100000D02*
X17800000Y-17500000D01*
X49800000Y-8950000D02*
X5200000Y-8950000D01*
X7900000Y-13600000D02*
X7900000Y-14000000D01*
X51600000Y-43000000D02*
X44000000Y-43000000D01*
X45200000Y-9650000D02*
X45500000Y-9650000D01*
X7525000Y-17400000D02*
X10525000Y-17400000D01*
X10525000Y-19400000D01*
X7525000Y-19400000D01*
X7525000Y-17400000D01*
X38600000Y-14700000D02*
X41600000Y-14700000D01*
X41600000Y-16500000D01*
X38600000Y-16500000D01*
X38600000Y-14700000D01*
X44800000Y-9100000D02*
X48200000Y-9100000D01*
X48200000Y-12200000D01*
X44800000Y-12200000D01*
X44800000Y-9100000D01*
X10900000Y-17400000D02*
X13900000Y-17400000D01*
X13900000Y-19400000D01*
X10900000Y-19400000D01*
X10900000Y-17400000D01*
X20900000Y-15200000D02*
X22900000Y-15200000D01*
X22900000Y-12200000D01*
X20900000Y-12200000D01*
X20900000Y-15200000D01*
X38600000Y-11300000D02*
X40400000Y-11300000D01*
X40400000Y-14300000D01*
X38600000Y-14300000D01*
X38600000Y-11300000D01*
X15100000Y-13400000D02*
X17100000Y-13400000D01*
X17100000Y-16400000D01*
X15100000Y-16400000D01*
X15100000Y-13400000D01*
X15400000Y-10800000D02*
X15400000Y-12800000D01*
X45100000Y-14300000D02*
X48300000Y-14300000D01*
X48300000Y-12500000D01*
X45100000Y-12500000D01*
X45100000Y-14300000D01*
X26500000Y-12600000D02*
X23300000Y-12600000D01*
X1600000Y-43000000D02*
X13000000Y-43000000D01*
X26500000Y-11800000D02*
X23300000Y-11800000D01*
X23300000Y-18800000D01*
X26500000Y-18800000D01*
X26500000Y-11800000D01*
X54419048Y-5973866D02*
X55180953Y-5973866D01*
X49970112Y-1346009D02*
X50112969Y-1393628D01*
X50112969Y-1393628D02*
X50160588Y-1441247D01*
X50160588Y-1441247D02*
X50208207Y-1536485D01*
X50208207Y-1536485D02*
X50208207Y-1679342D01*
X50208207Y-1679342D02*
X50160588Y-1774580D01*
X50160588Y-1774580D02*
X50112969Y-1822200D01*
X50112969Y-1822200D02*
X50017731Y-1869819D01*
X50017731Y-1869819D02*
X49636779Y-1869819D01*
X49636779Y-1869819D02*
X49636779Y-869819D01*
X49636779Y-869819D02*
X49970112Y-869819D01*
X49970112Y-869819D02*
X50065350Y-917438D01*
X50065350Y-917438D02*
X50112969Y-965057D01*
X50112969Y-965057D02*
X50160588Y-1060295D01*
X50160588Y-1060295D02*
X50160588Y-1155533D01*
X50160588Y-1155533D02*
X50112969Y-1250771D01*
X50112969Y-1250771D02*
X50065350Y-1298390D01*
X50065350Y-1298390D02*
X49970112Y-1346009D01*
X49970112Y-1346009D02*
X49636779Y-1346009D01*
X50589160Y-1584104D02*
X51065350Y-1584104D01*
X50493922Y-1869819D02*
X50827255Y-869819D01*
X50827255Y-869819D02*
X51160588Y-1869819D01*
X51351065Y-869819D02*
X51922493Y-869819D01*
X51636779Y-1869819D02*
X51636779Y-869819D01*
X15146303Y-18774580D02*
X15108207Y-18822200D01*
X15108207Y-18822200D02*
X14993922Y-18869819D01*
X14993922Y-18869819D02*
X14917731Y-18869819D01*
X14917731Y-18869819D02*
X14803445Y-18822200D01*
X14803445Y-18822200D02*
X14727255Y-18726961D01*
X14727255Y-18726961D02*
X14689160Y-18631723D01*
X14689160Y-18631723D02*
X14651064Y-18441247D01*
X14651064Y-18441247D02*
X14651064Y-18298390D01*
X14651064Y-18298390D02*
X14689160Y-18107914D01*
X14689160Y-18107914D02*
X14727255Y-18012676D01*
X14727255Y-18012676D02*
X14803445Y-17917438D01*
X14803445Y-17917438D02*
X14917731Y-17869819D01*
X14917731Y-17869819D02*
X14993922Y-17869819D01*
X14993922Y-17869819D02*
X15108207Y-17917438D01*
X15108207Y-17917438D02*
X15146303Y-17965057D01*
X15489160Y-18869819D02*
X15489160Y-17869819D01*
X15489160Y-18346009D02*
X15946303Y-18346009D01*
X15946303Y-18869819D02*
X15946303Y-17869819D01*
X16746302Y-17917438D02*
X16670112Y-17869819D01*
X16670112Y-17869819D02*
X16555826Y-17869819D01*
X16555826Y-17869819D02*
X16441540Y-17917438D01*
X16441540Y-17917438D02*
X16365350Y-18012676D01*
X16365350Y-18012676D02*
X16327255Y-18107914D01*
X16327255Y-18107914D02*
X16289159Y-18298390D01*
X16289159Y-18298390D02*
X16289159Y-18441247D01*
X16289159Y-18441247D02*
X16327255Y-18631723D01*
X16327255Y-18631723D02*
X16365350Y-18726961D01*
X16365350Y-18726961D02*
X16441540Y-18822200D01*
X16441540Y-18822200D02*
X16555826Y-18869819D01*
X16555826Y-18869819D02*
X16632017Y-18869819D01*
X16632017Y-18869819D02*
X16746302Y-18822200D01*
X16746302Y-18822200D02*
X16784398Y-18774580D01*
X16784398Y-18774580D02*
X16784398Y-18441247D01*
X16784398Y-18441247D02*
X16632017Y-18441247D01*
X54419048Y-3473866D02*
X55180953Y-3473866D01*
X54800000Y-3854819D02*
X54800000Y-3092914D01*
X54571428Y-4362295D02*
X55028571Y-4362295D01*
X54799999Y-5162295D02*
X54799999Y-4362295D01*
X24899999Y-23721009D02*
X25042856Y-23768628D01*
X25042856Y-23768628D02*
X25090475Y-23816247D01*
X25090475Y-23816247D02*
X25138094Y-23911485D01*
X25138094Y-23911485D02*
X25138094Y-24054342D01*
X25138094Y-24054342D02*
X25090475Y-24149580D01*
X25090475Y-24149580D02*
X25042856Y-24197200D01*
X25042856Y-24197200D02*
X24947618Y-24244819D01*
X24947618Y-24244819D02*
X24566666Y-24244819D01*
X24566666Y-24244819D02*
X24566666Y-23244819D01*
X24566666Y-23244819D02*
X24899999Y-23244819D01*
X24899999Y-23244819D02*
X24995237Y-23292438D01*
X24995237Y-23292438D02*
X25042856Y-23340057D01*
X25042856Y-23340057D02*
X25090475Y-23435295D01*
X25090475Y-23435295D02*
X25090475Y-23530533D01*
X25090475Y-23530533D02*
X25042856Y-23625771D01*
X25042856Y-23625771D02*
X24995237Y-23673390D01*
X24995237Y-23673390D02*
X24899999Y-23721009D01*
X24899999Y-23721009D02*
X24566666Y-23721009D01*
X25519047Y-23959104D02*
X25995237Y-23959104D01*
X25423809Y-24244819D02*
X25757142Y-23244819D01*
X25757142Y-23244819D02*
X26090475Y-24244819D01*
X26280952Y-23244819D02*
X26852380Y-23244819D01*
X26566666Y-24244819D02*
X26566666Y-23244819D01*
X27042857Y-23244819D02*
X27614285Y-23244819D01*
X27328571Y-24244819D02*
X27328571Y-23244819D01*
X27947619Y-23721009D02*
X28280952Y-23721009D01*
X28423809Y-24244819D02*
X27947619Y-24244819D01*
X27947619Y-24244819D02*
X27947619Y-23244819D01*
X27947619Y-23244819D02*
X28423809Y-23244819D01*
X29423809Y-24244819D02*
X29090476Y-23768628D01*
X28852381Y-24244819D02*
X28852381Y-23244819D01*
X28852381Y-23244819D02*
X29233333Y-23244819D01*
X29233333Y-23244819D02*
X29328571Y-23292438D01*
X29328571Y-23292438D02*
X29376190Y-23340057D01*
X29376190Y-23340057D02*
X29423809Y-23435295D01*
X29423809Y-23435295D02*
X29423809Y-23578152D01*
X29423809Y-23578152D02*
X29376190Y-23673390D01*
X29376190Y-23673390D02*
X29328571Y-23721009D01*
X29328571Y-23721009D02*
X29233333Y-23768628D01*
X29233333Y-23768628D02*
X28852381Y-23768628D01*
X30042857Y-23768628D02*
X30042857Y-24244819D01*
X29709524Y-23244819D02*
X30042857Y-23768628D01*
X30042857Y-23768628D02*
X30376190Y-23244819D01*
X16566666Y-25854819D02*
X16090476Y-25854819D01*
X16090476Y-25854819D02*
X16090476Y-24854819D01*
X16900000Y-25854819D02*
X16900000Y-24854819D01*
X17376190Y-25854819D02*
X17376190Y-24854819D01*
X17376190Y-24854819D02*
X17757142Y-24854819D01*
X17757142Y-24854819D02*
X17852380Y-24902438D01*
X17852380Y-24902438D02*
X17899999Y-24950057D01*
X17899999Y-24950057D02*
X17947618Y-25045295D01*
X17947618Y-25045295D02*
X17947618Y-25188152D01*
X17947618Y-25188152D02*
X17899999Y-25283390D01*
X17899999Y-25283390D02*
X17852380Y-25331009D01*
X17852380Y-25331009D02*
X17757142Y-25378628D01*
X17757142Y-25378628D02*
X17376190Y-25378628D01*
X18566666Y-24854819D02*
X18757142Y-24854819D01*
X18757142Y-24854819D02*
X18852380Y-24902438D01*
X18852380Y-24902438D02*
X18947618Y-24997676D01*
X18947618Y-24997676D02*
X18995237Y-25188152D01*
X18995237Y-25188152D02*
X18995237Y-25521485D01*
X18995237Y-25521485D02*
X18947618Y-25711961D01*
X18947618Y-25711961D02*
X18852380Y-25807200D01*
X18852380Y-25807200D02*
X18757142Y-25854819D01*
X18757142Y-25854819D02*
X18566666Y-25854819D01*
X18566666Y-25854819D02*
X18471428Y-25807200D01*
X18471428Y-25807200D02*
X18376190Y-25711961D01*
X18376190Y-25711961D02*
X18328571Y-25521485D01*
X18328571Y-25521485D02*
X18328571Y-25188152D01*
X18328571Y-25188152D02*
X18376190Y-24997676D01*
X18376190Y-24997676D02*
X18471428Y-24902438D01*
X18471428Y-24902438D02*
X18566666Y-24854819D01*
X20090476Y-24854819D02*
X20709523Y-24854819D01*
X20709523Y-24854819D02*
X20376190Y-25235771D01*
X20376190Y-25235771D02*
X20519047Y-25235771D01*
X20519047Y-25235771D02*
X20614285Y-25283390D01*
X20614285Y-25283390D02*
X20661904Y-25331009D01*
X20661904Y-25331009D02*
X20709523Y-25426247D01*
X20709523Y-25426247D02*
X20709523Y-25664342D01*
X20709523Y-25664342D02*
X20661904Y-25759580D01*
X20661904Y-25759580D02*
X20614285Y-25807200D01*
X20614285Y-25807200D02*
X20519047Y-25854819D01*
X20519047Y-25854819D02*
X20233333Y-25854819D01*
X20233333Y-25854819D02*
X20138095Y-25807200D01*
X20138095Y-25807200D02*
X20090476Y-25759580D01*
X21138095Y-25759580D02*
X21185714Y-25807200D01*
X21185714Y-25807200D02*
X21138095Y-25854819D01*
X21138095Y-25854819D02*
X21090476Y-25807200D01*
X21090476Y-25807200D02*
X21138095Y-25759580D01*
X21138095Y-25759580D02*
X21138095Y-25854819D01*
X21519047Y-24854819D02*
X22185713Y-24854819D01*
X22185713Y-24854819D02*
X21757142Y-25854819D01*
X22423809Y-24854819D02*
X22757142Y-25854819D01*
X22757142Y-25854819D02*
X23090475Y-24854819D01*
X24709523Y-25854819D02*
X24138095Y-25854819D01*
X24423809Y-25854819D02*
X24423809Y-24854819D01*
X24423809Y-24854819D02*
X24328571Y-24997676D01*
X24328571Y-24997676D02*
X24233333Y-25092914D01*
X24233333Y-25092914D02*
X24138095Y-25140533D01*
X25328571Y-24854819D02*
X25423809Y-24854819D01*
X25423809Y-24854819D02*
X25519047Y-24902438D01*
X25519047Y-24902438D02*
X25566666Y-24950057D01*
X25566666Y-24950057D02*
X25614285Y-25045295D01*
X25614285Y-25045295D02*
X25661904Y-25235771D01*
X25661904Y-25235771D02*
X25661904Y-25473866D01*
X25661904Y-25473866D02*
X25614285Y-25664342D01*
X25614285Y-25664342D02*
X25566666Y-25759580D01*
X25566666Y-25759580D02*
X25519047Y-25807200D01*
X25519047Y-25807200D02*
X25423809Y-25854819D01*
X25423809Y-25854819D02*
X25328571Y-25854819D01*
X25328571Y-25854819D02*
X25233333Y-25807200D01*
X25233333Y-25807200D02*
X25185714Y-25759580D01*
X25185714Y-25759580D02*
X25138095Y-25664342D01*
X25138095Y-25664342D02*
X25090476Y-25473866D01*
X25090476Y-25473866D02*
X25090476Y-25235771D01*
X25090476Y-25235771D02*
X25138095Y-25045295D01*
X25138095Y-25045295D02*
X25185714Y-24950057D01*
X25185714Y-24950057D02*
X25233333Y-24902438D01*
X25233333Y-24902438D02*
X25328571Y-24854819D01*
X25995238Y-25854819D02*
X26519047Y-25188152D01*
X25995238Y-25188152D02*
X26519047Y-25854819D01*
X26804762Y-24854819D02*
X27423809Y-24854819D01*
X27423809Y-24854819D02*
X27090476Y-25235771D01*
X27090476Y-25235771D02*
X27233333Y-25235771D01*
X27233333Y-25235771D02*
X27328571Y-25283390D01*
X27328571Y-25283390D02*
X27376190Y-25331009D01*
X27376190Y-25331009D02*
X27423809Y-25426247D01*
X27423809Y-25426247D02*
X27423809Y-25664342D01*
X27423809Y-25664342D02*
X27376190Y-25759580D01*
X27376190Y-25759580D02*
X27328571Y-25807200D01*
X27328571Y-25807200D02*
X27233333Y-25854819D01*
X27233333Y-25854819D02*
X26947619Y-25854819D01*
X26947619Y-25854819D02*
X26852381Y-25807200D01*
X26852381Y-25807200D02*
X26804762Y-25759580D01*
X28280952Y-25188152D02*
X28280952Y-25854819D01*
X28042857Y-24807200D02*
X27804762Y-25521485D01*
X27804762Y-25521485D02*
X28423809Y-25521485D01*
X28709524Y-25854819D02*
X29233333Y-25188152D01*
X28709524Y-25188152D02*
X29233333Y-25854819D01*
X30090476Y-24854819D02*
X29614286Y-24854819D01*
X29614286Y-24854819D02*
X29566667Y-25331009D01*
X29566667Y-25331009D02*
X29614286Y-25283390D01*
X29614286Y-25283390D02*
X29709524Y-25235771D01*
X29709524Y-25235771D02*
X29947619Y-25235771D01*
X29947619Y-25235771D02*
X30042857Y-25283390D01*
X30042857Y-25283390D02*
X30090476Y-25331009D01*
X30090476Y-25331009D02*
X30138095Y-25426247D01*
X30138095Y-25426247D02*
X30138095Y-25664342D01*
X30138095Y-25664342D02*
X30090476Y-25759580D01*
X30090476Y-25759580D02*
X30042857Y-25807200D01*
X30042857Y-25807200D02*
X29947619Y-25854819D01*
X29947619Y-25854819D02*
X29709524Y-25854819D01*
X29709524Y-25854819D02*
X29614286Y-25807200D01*
X29614286Y-25807200D02*
X29566667Y-25759580D01*
X30757143Y-24854819D02*
X30852381Y-24854819D01*
X30852381Y-24854819D02*
X30947619Y-24902438D01*
X30947619Y-24902438D02*
X30995238Y-24950057D01*
X30995238Y-24950057D02*
X31042857Y-25045295D01*
X31042857Y-25045295D02*
X31090476Y-25235771D01*
X31090476Y-25235771D02*
X31090476Y-25473866D01*
X31090476Y-25473866D02*
X31042857Y-25664342D01*
X31042857Y-25664342D02*
X30995238Y-25759580D01*
X30995238Y-25759580D02*
X30947619Y-25807200D01*
X30947619Y-25807200D02*
X30852381Y-25854819D01*
X30852381Y-25854819D02*
X30757143Y-25854819D01*
X30757143Y-25854819D02*
X30661905Y-25807200D01*
X30661905Y-25807200D02*
X30614286Y-25759580D01*
X30614286Y-25759580D02*
X30566667Y-25664342D01*
X30566667Y-25664342D02*
X30519048Y-25473866D01*
X30519048Y-25473866D02*
X30519048Y-25235771D01*
X30519048Y-25235771D02*
X30566667Y-25045295D01*
X30566667Y-25045295D02*
X30614286Y-24950057D01*
X30614286Y-24950057D02*
X30661905Y-24902438D01*
X30661905Y-24902438D02*
X30757143Y-24854819D01*
X32233334Y-24950057D02*
X32280953Y-24902438D01*
X32280953Y-24902438D02*
X32376191Y-24854819D01*
X32376191Y-24854819D02*
X32614286Y-24854819D01*
X32614286Y-24854819D02*
X32709524Y-24902438D01*
X32709524Y-24902438D02*
X32757143Y-24950057D01*
X32757143Y-24950057D02*
X32804762Y-25045295D01*
X32804762Y-25045295D02*
X32804762Y-25140533D01*
X32804762Y-25140533D02*
X32757143Y-25283390D01*
X32757143Y-25283390D02*
X32185715Y-25854819D01*
X32185715Y-25854819D02*
X32804762Y-25854819D01*
X33423810Y-24854819D02*
X33519048Y-24854819D01*
X33519048Y-24854819D02*
X33614286Y-24902438D01*
X33614286Y-24902438D02*
X33661905Y-24950057D01*
X33661905Y-24950057D02*
X33709524Y-25045295D01*
X33709524Y-25045295D02*
X33757143Y-25235771D01*
X33757143Y-25235771D02*
X33757143Y-25473866D01*
X33757143Y-25473866D02*
X33709524Y-25664342D01*
X33709524Y-25664342D02*
X33661905Y-25759580D01*
X33661905Y-25759580D02*
X33614286Y-25807200D01*
X33614286Y-25807200D02*
X33519048Y-25854819D01*
X33519048Y-25854819D02*
X33423810Y-25854819D01*
X33423810Y-25854819D02*
X33328572Y-25807200D01*
X33328572Y-25807200D02*
X33280953Y-25759580D01*
X33280953Y-25759580D02*
X33233334Y-25664342D01*
X33233334Y-25664342D02*
X33185715Y-25473866D01*
X33185715Y-25473866D02*
X33185715Y-25235771D01*
X33185715Y-25235771D02*
X33233334Y-25045295D01*
X33233334Y-25045295D02*
X33280953Y-24950057D01*
X33280953Y-24950057D02*
X33328572Y-24902438D01*
X33328572Y-24902438D02*
X33423810Y-24854819D01*
X34376191Y-24854819D02*
X34471429Y-24854819D01*
X34471429Y-24854819D02*
X34566667Y-24902438D01*
X34566667Y-24902438D02*
X34614286Y-24950057D01*
X34614286Y-24950057D02*
X34661905Y-25045295D01*
X34661905Y-25045295D02*
X34709524Y-25235771D01*
X34709524Y-25235771D02*
X34709524Y-25473866D01*
X34709524Y-25473866D02*
X34661905Y-25664342D01*
X34661905Y-25664342D02*
X34614286Y-25759580D01*
X34614286Y-25759580D02*
X34566667Y-25807200D01*
X34566667Y-25807200D02*
X34471429Y-25854819D01*
X34471429Y-25854819D02*
X34376191Y-25854819D01*
X34376191Y-25854819D02*
X34280953Y-25807200D01*
X34280953Y-25807200D02*
X34233334Y-25759580D01*
X34233334Y-25759580D02*
X34185715Y-25664342D01*
X34185715Y-25664342D02*
X34138096Y-25473866D01*
X34138096Y-25473866D02*
X34138096Y-25235771D01*
X34138096Y-25235771D02*
X34185715Y-25045295D01*
X34185715Y-25045295D02*
X34233334Y-24950057D01*
X34233334Y-24950057D02*
X34280953Y-24902438D01*
X34280953Y-24902438D02*
X34376191Y-24854819D01*
X35328572Y-24854819D02*
X35423810Y-24854819D01*
X35423810Y-24854819D02*
X35519048Y-24902438D01*
X35519048Y-24902438D02*
X35566667Y-24950057D01*
X35566667Y-24950057D02*
X35614286Y-25045295D01*
X35614286Y-25045295D02*
X35661905Y-25235771D01*
X35661905Y-25235771D02*
X35661905Y-25473866D01*
X35661905Y-25473866D02*
X35614286Y-25664342D01*
X35614286Y-25664342D02*
X35566667Y-25759580D01*
X35566667Y-25759580D02*
X35519048Y-25807200D01*
X35519048Y-25807200D02*
X35423810Y-25854819D01*
X35423810Y-25854819D02*
X35328572Y-25854819D01*
X35328572Y-25854819D02*
X35233334Y-25807200D01*
X35233334Y-25807200D02*
X35185715Y-25759580D01*
X35185715Y-25759580D02*
X35138096Y-25664342D01*
X35138096Y-25664342D02*
X35090477Y-25473866D01*
X35090477Y-25473866D02*
X35090477Y-25235771D01*
X35090477Y-25235771D02*
X35138096Y-25045295D01*
X35138096Y-25045295D02*
X35185715Y-24950057D01*
X35185715Y-24950057D02*
X35233334Y-24902438D01*
X35233334Y-24902438D02*
X35328572Y-24854819D01*
X36090477Y-25854819D02*
X36090477Y-25188152D01*
X36090477Y-25283390D02*
X36138096Y-25235771D01*
X36138096Y-25235771D02*
X36233334Y-25188152D01*
X36233334Y-25188152D02*
X36376191Y-25188152D01*
X36376191Y-25188152D02*
X36471429Y-25235771D01*
X36471429Y-25235771D02*
X36519048Y-25331009D01*
X36519048Y-25331009D02*
X36519048Y-25854819D01*
X36519048Y-25331009D02*
X36566667Y-25235771D01*
X36566667Y-25235771D02*
X36661905Y-25188152D01*
X36661905Y-25188152D02*
X36804762Y-25188152D01*
X36804762Y-25188152D02*
X36900001Y-25235771D01*
X36900001Y-25235771D02*
X36947620Y-25331009D01*
X36947620Y-25331009D02*
X36947620Y-25854819D01*
X37376191Y-25569104D02*
X37852381Y-25569104D01*
X37280953Y-25854819D02*
X37614286Y-24854819D01*
X37614286Y-24854819D02*
X37947619Y-25854819D01*
X38280953Y-25854819D02*
X38280953Y-24854819D01*
X38709524Y-25854819D02*
X38709524Y-25331009D01*
X38709524Y-25331009D02*
X38661905Y-25235771D01*
X38661905Y-25235771D02*
X38566667Y-25188152D01*
X38566667Y-25188152D02*
X38423810Y-25188152D01*
X38423810Y-25188152D02*
X38328572Y-25235771D01*
X38328572Y-25235771D02*
X38280953Y-25283390D01*
X7042856Y-27464819D02*
X7042856Y-26464819D01*
X7042856Y-26464819D02*
X7423808Y-26464819D01*
X7423808Y-26464819D02*
X7519046Y-26512438D01*
X7519046Y-26512438D02*
X7566665Y-26560057D01*
X7566665Y-26560057D02*
X7614284Y-26655295D01*
X7614284Y-26655295D02*
X7614284Y-26798152D01*
X7614284Y-26798152D02*
X7566665Y-26893390D01*
X7566665Y-26893390D02*
X7519046Y-26941009D01*
X7519046Y-26941009D02*
X7423808Y-26988628D01*
X7423808Y-26988628D02*
X7042856Y-26988628D01*
X8614284Y-27464819D02*
X8280951Y-26988628D01*
X8042856Y-27464819D02*
X8042856Y-26464819D01*
X8042856Y-26464819D02*
X8423808Y-26464819D01*
X8423808Y-26464819D02*
X8519046Y-26512438D01*
X8519046Y-26512438D02*
X8566665Y-26560057D01*
X8566665Y-26560057D02*
X8614284Y-26655295D01*
X8614284Y-26655295D02*
X8614284Y-26798152D01*
X8614284Y-26798152D02*
X8566665Y-26893390D01*
X8566665Y-26893390D02*
X8519046Y-26941009D01*
X8519046Y-26941009D02*
X8423808Y-26988628D01*
X8423808Y-26988628D02*
X8042856Y-26988628D01*
X9233332Y-26464819D02*
X9423808Y-26464819D01*
X9423808Y-26464819D02*
X9519046Y-26512438D01*
X9519046Y-26512438D02*
X9614284Y-26607676D01*
X9614284Y-26607676D02*
X9661903Y-26798152D01*
X9661903Y-26798152D02*
X9661903Y-27131485D01*
X9661903Y-27131485D02*
X9614284Y-27321961D01*
X9614284Y-27321961D02*
X9519046Y-27417200D01*
X9519046Y-27417200D02*
X9423808Y-27464819D01*
X9423808Y-27464819D02*
X9233332Y-27464819D01*
X9233332Y-27464819D02*
X9138094Y-27417200D01*
X9138094Y-27417200D02*
X9042856Y-27321961D01*
X9042856Y-27321961D02*
X8995237Y-27131485D01*
X8995237Y-27131485D02*
X8995237Y-26798152D01*
X8995237Y-26798152D02*
X9042856Y-26607676D01*
X9042856Y-26607676D02*
X9138094Y-26512438D01*
X9138094Y-26512438D02*
X9233332Y-26464819D01*
X9947618Y-26464819D02*
X10519046Y-26464819D01*
X10233332Y-27464819D02*
X10233332Y-26464819D01*
X10852380Y-26941009D02*
X11185713Y-26941009D01*
X11328570Y-27464819D02*
X10852380Y-27464819D01*
X10852380Y-27464819D02*
X10852380Y-26464819D01*
X10852380Y-26464819D02*
X11328570Y-26464819D01*
X12328570Y-27369580D02*
X12280951Y-27417200D01*
X12280951Y-27417200D02*
X12138094Y-27464819D01*
X12138094Y-27464819D02*
X12042856Y-27464819D01*
X12042856Y-27464819D02*
X11899999Y-27417200D01*
X11899999Y-27417200D02*
X11804761Y-27321961D01*
X11804761Y-27321961D02*
X11757142Y-27226723D01*
X11757142Y-27226723D02*
X11709523Y-27036247D01*
X11709523Y-27036247D02*
X11709523Y-26893390D01*
X11709523Y-26893390D02*
X11757142Y-26702914D01*
X11757142Y-26702914D02*
X11804761Y-26607676D01*
X11804761Y-26607676D02*
X11899999Y-26512438D01*
X11899999Y-26512438D02*
X12042856Y-26464819D01*
X12042856Y-26464819D02*
X12138094Y-26464819D01*
X12138094Y-26464819D02*
X12280951Y-26512438D01*
X12280951Y-26512438D02*
X12328570Y-26560057D01*
X12614285Y-26464819D02*
X13185713Y-26464819D01*
X12899999Y-27464819D02*
X12899999Y-26464819D01*
X13519047Y-26941009D02*
X13852380Y-26941009D01*
X13995237Y-27464819D02*
X13519047Y-27464819D01*
X13519047Y-27464819D02*
X13519047Y-26464819D01*
X13519047Y-26464819D02*
X13995237Y-26464819D01*
X14423809Y-27464819D02*
X14423809Y-26464819D01*
X14423809Y-26464819D02*
X14661904Y-26464819D01*
X14661904Y-26464819D02*
X14804761Y-26512438D01*
X14804761Y-26512438D02*
X14899999Y-26607676D01*
X14899999Y-26607676D02*
X14947618Y-26702914D01*
X14947618Y-26702914D02*
X14995237Y-26893390D01*
X14995237Y-26893390D02*
X14995237Y-27036247D01*
X14995237Y-27036247D02*
X14947618Y-27226723D01*
X14947618Y-27226723D02*
X14899999Y-27321961D01*
X14899999Y-27321961D02*
X14804761Y-27417200D01*
X14804761Y-27417200D02*
X14661904Y-27464819D01*
X14661904Y-27464819D02*
X14423809Y-27464819D01*
X16042857Y-26464819D02*
X16614285Y-26464819D01*
X16328571Y-27464819D02*
X16328571Y-26464819D01*
X17138095Y-26988628D02*
X17138095Y-27464819D01*
X16804762Y-26464819D02*
X17138095Y-26988628D01*
X17138095Y-26988628D02*
X17471428Y-26464819D01*
X17804762Y-27464819D02*
X17804762Y-26464819D01*
X17804762Y-26464819D02*
X18185714Y-26464819D01*
X18185714Y-26464819D02*
X18280952Y-26512438D01*
X18280952Y-26512438D02*
X18328571Y-26560057D01*
X18328571Y-26560057D02*
X18376190Y-26655295D01*
X18376190Y-26655295D02*
X18376190Y-26798152D01*
X18376190Y-26798152D02*
X18328571Y-26893390D01*
X18328571Y-26893390D02*
X18280952Y-26941009D01*
X18280952Y-26941009D02*
X18185714Y-26988628D01*
X18185714Y-26988628D02*
X17804762Y-26988628D01*
X18804762Y-26941009D02*
X19138095Y-26941009D01*
X19280952Y-27464819D02*
X18804762Y-27464819D01*
X18804762Y-27464819D02*
X18804762Y-26464819D01*
X18804762Y-26464819D02*
X19280952Y-26464819D01*
X20661905Y-26464819D02*
X20852381Y-26464819D01*
X20852381Y-26464819D02*
X20947619Y-26512438D01*
X20947619Y-26512438D02*
X21042857Y-26607676D01*
X21042857Y-26607676D02*
X21090476Y-26798152D01*
X21090476Y-26798152D02*
X21090476Y-27131485D01*
X21090476Y-27131485D02*
X21042857Y-27321961D01*
X21042857Y-27321961D02*
X20947619Y-27417200D01*
X20947619Y-27417200D02*
X20852381Y-27464819D01*
X20852381Y-27464819D02*
X20661905Y-27464819D01*
X20661905Y-27464819D02*
X20566667Y-27417200D01*
X20566667Y-27417200D02*
X20471429Y-27321961D01*
X20471429Y-27321961D02*
X20423810Y-27131485D01*
X20423810Y-27131485D02*
X20423810Y-26798152D01*
X20423810Y-26798152D02*
X20471429Y-26607676D01*
X20471429Y-26607676D02*
X20566667Y-26512438D01*
X20566667Y-26512438D02*
X20661905Y-26464819D01*
X21519048Y-27464819D02*
X21519048Y-26464819D01*
X21519048Y-26464819D02*
X22090476Y-27464819D01*
X22090476Y-27464819D02*
X22090476Y-26464819D01*
X23042857Y-27464819D02*
X22566667Y-27464819D01*
X22566667Y-27464819D02*
X22566667Y-26464819D01*
X23566667Y-26988628D02*
X23566667Y-27464819D01*
X23233334Y-26464819D02*
X23566667Y-26988628D01*
X23566667Y-26988628D02*
X23900000Y-26464819D01*
X25280953Y-27845771D02*
X25233334Y-27798152D01*
X25233334Y-27798152D02*
X25138096Y-27655295D01*
X25138096Y-27655295D02*
X25090477Y-27560057D01*
X25090477Y-27560057D02*
X25042858Y-27417200D01*
X25042858Y-27417200D02*
X24995239Y-27179104D01*
X24995239Y-27179104D02*
X24995239Y-26988628D01*
X24995239Y-26988628D02*
X25042858Y-26750533D01*
X25042858Y-26750533D02*
X25090477Y-26607676D01*
X25090477Y-26607676D02*
X25138096Y-26512438D01*
X25138096Y-26512438D02*
X25233334Y-26369580D01*
X25233334Y-26369580D02*
X25280953Y-26321961D01*
X25661906Y-27464819D02*
X25661906Y-26464819D01*
X25661906Y-26464819D02*
X25900001Y-26464819D01*
X25900001Y-26464819D02*
X26042858Y-26512438D01*
X26042858Y-26512438D02*
X26138096Y-26607676D01*
X26138096Y-26607676D02*
X26185715Y-26702914D01*
X26185715Y-26702914D02*
X26233334Y-26893390D01*
X26233334Y-26893390D02*
X26233334Y-27036247D01*
X26233334Y-27036247D02*
X26185715Y-27226723D01*
X26185715Y-27226723D02*
X26138096Y-27321961D01*
X26138096Y-27321961D02*
X26042858Y-27417200D01*
X26042858Y-27417200D02*
X25900001Y-27464819D01*
X25900001Y-27464819D02*
X25661906Y-27464819D01*
X26566668Y-26464819D02*
X26804763Y-27464819D01*
X26804763Y-27464819D02*
X26995239Y-26750533D01*
X26995239Y-26750533D02*
X27185715Y-27464819D01*
X27185715Y-27464819D02*
X27423811Y-26464819D01*
X27995239Y-26464819D02*
X28090477Y-26464819D01*
X28090477Y-26464819D02*
X28185715Y-26512438D01*
X28185715Y-26512438D02*
X28233334Y-26560057D01*
X28233334Y-26560057D02*
X28280953Y-26655295D01*
X28280953Y-26655295D02*
X28328572Y-26845771D01*
X28328572Y-26845771D02*
X28328572Y-27083866D01*
X28328572Y-27083866D02*
X28280953Y-27274342D01*
X28280953Y-27274342D02*
X28233334Y-27369580D01*
X28233334Y-27369580D02*
X28185715Y-27417200D01*
X28185715Y-27417200D02*
X28090477Y-27464819D01*
X28090477Y-27464819D02*
X27995239Y-27464819D01*
X27995239Y-27464819D02*
X27900001Y-27417200D01*
X27900001Y-27417200D02*
X27852382Y-27369580D01*
X27852382Y-27369580D02*
X27804763Y-27274342D01*
X27804763Y-27274342D02*
X27757144Y-27083866D01*
X27757144Y-27083866D02*
X27757144Y-26845771D01*
X27757144Y-26845771D02*
X27804763Y-26655295D01*
X27804763Y-26655295D02*
X27852382Y-26560057D01*
X27852382Y-26560057D02*
X27900001Y-26512438D01*
X27900001Y-26512438D02*
X27995239Y-26464819D01*
X29280953Y-27464819D02*
X28709525Y-27464819D01*
X28995239Y-27464819D02*
X28995239Y-26464819D01*
X28995239Y-26464819D02*
X28900001Y-26607676D01*
X28900001Y-26607676D02*
X28804763Y-26702914D01*
X28804763Y-26702914D02*
X28709525Y-26750533D01*
X29661906Y-27179104D02*
X30138096Y-27179104D01*
X29566668Y-27464819D02*
X29900001Y-26464819D01*
X29900001Y-26464819D02*
X30233334Y-27464819D01*
X30566668Y-27083866D02*
X31328573Y-27083866D01*
X30947620Y-27464819D02*
X30947620Y-26702914D01*
X32138096Y-26941009D02*
X31804763Y-26941009D01*
X31804763Y-27464819D02*
X31804763Y-26464819D01*
X31804763Y-26464819D02*
X32280953Y-26464819D01*
X32614287Y-27417200D02*
X32757144Y-27464819D01*
X32757144Y-27464819D02*
X32995239Y-27464819D01*
X32995239Y-27464819D02*
X33090477Y-27417200D01*
X33090477Y-27417200D02*
X33138096Y-27369580D01*
X33138096Y-27369580D02*
X33185715Y-27274342D01*
X33185715Y-27274342D02*
X33185715Y-27179104D01*
X33185715Y-27179104D02*
X33138096Y-27083866D01*
X33138096Y-27083866D02*
X33090477Y-27036247D01*
X33090477Y-27036247D02*
X32995239Y-26988628D01*
X32995239Y-26988628D02*
X32804763Y-26941009D01*
X32804763Y-26941009D02*
X32709525Y-26893390D01*
X32709525Y-26893390D02*
X32661906Y-26845771D01*
X32661906Y-26845771D02*
X32614287Y-26750533D01*
X32614287Y-26750533D02*
X32614287Y-26655295D01*
X32614287Y-26655295D02*
X32661906Y-26560057D01*
X32661906Y-26560057D02*
X32709525Y-26512438D01*
X32709525Y-26512438D02*
X32804763Y-26464819D01*
X32804763Y-26464819D02*
X33042858Y-26464819D01*
X33042858Y-26464819D02*
X33185715Y-26512438D01*
X33757144Y-26893390D02*
X33661906Y-26845771D01*
X33661906Y-26845771D02*
X33614287Y-26798152D01*
X33614287Y-26798152D02*
X33566668Y-26702914D01*
X33566668Y-26702914D02*
X33566668Y-26655295D01*
X33566668Y-26655295D02*
X33614287Y-26560057D01*
X33614287Y-26560057D02*
X33661906Y-26512438D01*
X33661906Y-26512438D02*
X33757144Y-26464819D01*
X33757144Y-26464819D02*
X33947620Y-26464819D01*
X33947620Y-26464819D02*
X34042858Y-26512438D01*
X34042858Y-26512438D02*
X34090477Y-26560057D01*
X34090477Y-26560057D02*
X34138096Y-26655295D01*
X34138096Y-26655295D02*
X34138096Y-26702914D01*
X34138096Y-26702914D02*
X34090477Y-26798152D01*
X34090477Y-26798152D02*
X34042858Y-26845771D01*
X34042858Y-26845771D02*
X33947620Y-26893390D01*
X33947620Y-26893390D02*
X33757144Y-26893390D01*
X33757144Y-26893390D02*
X33661906Y-26941009D01*
X33661906Y-26941009D02*
X33614287Y-26988628D01*
X33614287Y-26988628D02*
X33566668Y-27083866D01*
X33566668Y-27083866D02*
X33566668Y-27274342D01*
X33566668Y-27274342D02*
X33614287Y-27369580D01*
X33614287Y-27369580D02*
X33661906Y-27417200D01*
X33661906Y-27417200D02*
X33757144Y-27464819D01*
X33757144Y-27464819D02*
X33947620Y-27464819D01*
X33947620Y-27464819D02*
X34042858Y-27417200D01*
X34042858Y-27417200D02*
X34090477Y-27369580D01*
X34090477Y-27369580D02*
X34138096Y-27274342D01*
X34138096Y-27274342D02*
X34138096Y-27083866D01*
X34138096Y-27083866D02*
X34090477Y-26988628D01*
X34090477Y-26988628D02*
X34042858Y-26941009D01*
X34042858Y-26941009D02*
X33947620Y-26893390D01*
X34519049Y-26560057D02*
X34566668Y-26512438D01*
X34566668Y-26512438D02*
X34661906Y-26464819D01*
X34661906Y-26464819D02*
X34900001Y-26464819D01*
X34900001Y-26464819D02*
X34995239Y-26512438D01*
X34995239Y-26512438D02*
X35042858Y-26560057D01*
X35042858Y-26560057D02*
X35090477Y-26655295D01*
X35090477Y-26655295D02*
X35090477Y-26750533D01*
X35090477Y-26750533D02*
X35042858Y-26893390D01*
X35042858Y-26893390D02*
X34471430Y-27464819D01*
X34471430Y-27464819D02*
X35090477Y-27464819D01*
X35709525Y-26464819D02*
X35804763Y-26464819D01*
X35804763Y-26464819D02*
X35900001Y-26512438D01*
X35900001Y-26512438D02*
X35947620Y-26560057D01*
X35947620Y-26560057D02*
X35995239Y-26655295D01*
X35995239Y-26655295D02*
X36042858Y-26845771D01*
X36042858Y-26845771D02*
X36042858Y-27083866D01*
X36042858Y-27083866D02*
X35995239Y-27274342D01*
X35995239Y-27274342D02*
X35947620Y-27369580D01*
X35947620Y-27369580D02*
X35900001Y-27417200D01*
X35900001Y-27417200D02*
X35804763Y-27464819D01*
X35804763Y-27464819D02*
X35709525Y-27464819D01*
X35709525Y-27464819D02*
X35614287Y-27417200D01*
X35614287Y-27417200D02*
X35566668Y-27369580D01*
X35566668Y-27369580D02*
X35519049Y-27274342D01*
X35519049Y-27274342D02*
X35471430Y-27083866D01*
X35471430Y-27083866D02*
X35471430Y-26845771D01*
X35471430Y-26845771D02*
X35519049Y-26655295D01*
X35519049Y-26655295D02*
X35566668Y-26560057D01*
X35566668Y-26560057D02*
X35614287Y-26512438D01*
X35614287Y-26512438D02*
X35709525Y-26464819D01*
X36947620Y-26464819D02*
X36471430Y-26464819D01*
X36471430Y-26464819D02*
X36423811Y-26941009D01*
X36423811Y-26941009D02*
X36471430Y-26893390D01*
X36471430Y-26893390D02*
X36566668Y-26845771D01*
X36566668Y-26845771D02*
X36804763Y-26845771D01*
X36804763Y-26845771D02*
X36900001Y-26893390D01*
X36900001Y-26893390D02*
X36947620Y-26941009D01*
X36947620Y-26941009D02*
X36995239Y-27036247D01*
X36995239Y-27036247D02*
X36995239Y-27274342D01*
X36995239Y-27274342D02*
X36947620Y-27369580D01*
X36947620Y-27369580D02*
X36900001Y-27417200D01*
X36900001Y-27417200D02*
X36804763Y-27464819D01*
X36804763Y-27464819D02*
X36566668Y-27464819D01*
X36566668Y-27464819D02*
X36471430Y-27417200D01*
X36471430Y-27417200D02*
X36423811Y-27369580D01*
X37376192Y-27179104D02*
X37852382Y-27179104D01*
X37280954Y-27464819D02*
X37614287Y-26464819D01*
X37614287Y-26464819D02*
X37947620Y-27464819D01*
X39233335Y-26464819D02*
X39423811Y-26464819D01*
X39423811Y-26464819D02*
X39519049Y-26512438D01*
X39519049Y-26512438D02*
X39614287Y-26607676D01*
X39614287Y-26607676D02*
X39661906Y-26798152D01*
X39661906Y-26798152D02*
X39661906Y-27131485D01*
X39661906Y-27131485D02*
X39614287Y-27321961D01*
X39614287Y-27321961D02*
X39519049Y-27417200D01*
X39519049Y-27417200D02*
X39423811Y-27464819D01*
X39423811Y-27464819D02*
X39233335Y-27464819D01*
X39233335Y-27464819D02*
X39138097Y-27417200D01*
X39138097Y-27417200D02*
X39042859Y-27321961D01*
X39042859Y-27321961D02*
X38995240Y-27131485D01*
X38995240Y-27131485D02*
X38995240Y-26798152D01*
X38995240Y-26798152D02*
X39042859Y-26607676D01*
X39042859Y-26607676D02*
X39138097Y-26512438D01*
X39138097Y-26512438D02*
X39233335Y-26464819D01*
X40661906Y-27464819D02*
X40328573Y-26988628D01*
X40090478Y-27464819D02*
X40090478Y-26464819D01*
X40090478Y-26464819D02*
X40471430Y-26464819D01*
X40471430Y-26464819D02*
X40566668Y-26512438D01*
X40566668Y-26512438D02*
X40614287Y-26560057D01*
X40614287Y-26560057D02*
X40661906Y-26655295D01*
X40661906Y-26655295D02*
X40661906Y-26798152D01*
X40661906Y-26798152D02*
X40614287Y-26893390D01*
X40614287Y-26893390D02*
X40566668Y-26941009D01*
X40566668Y-26941009D02*
X40471430Y-26988628D01*
X40471430Y-26988628D02*
X40090478Y-26988628D01*
X41804764Y-27417200D02*
X41947621Y-27464819D01*
X41947621Y-27464819D02*
X42185716Y-27464819D01*
X42185716Y-27464819D02*
X42280954Y-27417200D01*
X42280954Y-27417200D02*
X42328573Y-27369580D01*
X42328573Y-27369580D02*
X42376192Y-27274342D01*
X42376192Y-27274342D02*
X42376192Y-27179104D01*
X42376192Y-27179104D02*
X42328573Y-27083866D01*
X42328573Y-27083866D02*
X42280954Y-27036247D01*
X42280954Y-27036247D02*
X42185716Y-26988628D01*
X42185716Y-26988628D02*
X41995240Y-26941009D01*
X41995240Y-26941009D02*
X41900002Y-26893390D01*
X41900002Y-26893390D02*
X41852383Y-26845771D01*
X41852383Y-26845771D02*
X41804764Y-26750533D01*
X41804764Y-26750533D02*
X41804764Y-26655295D01*
X41804764Y-26655295D02*
X41852383Y-26560057D01*
X41852383Y-26560057D02*
X41900002Y-26512438D01*
X41900002Y-26512438D02*
X41995240Y-26464819D01*
X41995240Y-26464819D02*
X42233335Y-26464819D01*
X42233335Y-26464819D02*
X42376192Y-26512438D01*
X42804764Y-27464819D02*
X42804764Y-26464819D01*
X43280954Y-27464819D02*
X43280954Y-26464819D01*
X43280954Y-26464819D02*
X43614287Y-27179104D01*
X43614287Y-27179104D02*
X43947620Y-26464819D01*
X43947620Y-26464819D02*
X43947620Y-27464819D01*
X44423811Y-27464819D02*
X44423811Y-26464819D01*
X45376191Y-27464819D02*
X44900001Y-27464819D01*
X44900001Y-27464819D02*
X44900001Y-26464819D01*
X45661906Y-27179104D02*
X46138096Y-27179104D01*
X45566668Y-27464819D02*
X45900001Y-26464819D01*
X45900001Y-26464819D02*
X46233334Y-27464819D01*
X47138096Y-27464819D02*
X46804763Y-26988628D01*
X46566668Y-27464819D02*
X46566668Y-26464819D01*
X46566668Y-26464819D02*
X46947620Y-26464819D01*
X46947620Y-26464819D02*
X47042858Y-26512438D01*
X47042858Y-26512438D02*
X47090477Y-26560057D01*
X47090477Y-26560057D02*
X47138096Y-26655295D01*
X47138096Y-26655295D02*
X47138096Y-26798152D01*
X47138096Y-26798152D02*
X47090477Y-26893390D01*
X47090477Y-26893390D02*
X47042858Y-26941009D01*
X47042858Y-26941009D02*
X46947620Y-26988628D01*
X46947620Y-26988628D02*
X46566668Y-26988628D01*
X47471430Y-27845771D02*
X47519049Y-27798152D01*
X47519049Y-27798152D02*
X47614287Y-27655295D01*
X47614287Y-27655295D02*
X47661906Y-27560057D01*
X47661906Y-27560057D02*
X47709525Y-27417200D01*
X47709525Y-27417200D02*
X47757144Y-27179104D01*
X47757144Y-27179104D02*
X47757144Y-26988628D01*
X47757144Y-26988628D02*
X47709525Y-26750533D01*
X47709525Y-26750533D02*
X47661906Y-26607676D01*
X47661906Y-26607676D02*
X47614287Y-26512438D01*
X47614287Y-26512438D02*
X47519049Y-26369580D01*
X47519049Y-26369580D02*
X47471430Y-26321961D01*
X3066666Y-9854819D02*
X3066666Y-10569104D01*
X3066666Y-10569104D02*
X3019047Y-10711961D01*
X3019047Y-10711961D02*
X2923809Y-10807200D01*
X2923809Y-10807200D02*
X2780952Y-10854819D01*
X2780952Y-10854819D02*
X2685714Y-10854819D01*
X4066666Y-10854819D02*
X3495238Y-10854819D01*
X3780952Y-10854819D02*
X3780952Y-9854819D01*
X3780952Y-9854819D02*
X3685714Y-9997676D01*
X3685714Y-9997676D02*
X3590476Y-10092914D01*
X3590476Y-10092914D02*
X3495238Y-10140533D01*
X31338095Y-12554819D02*
X31338095Y-13364342D01*
X31338095Y-13364342D02*
X31385714Y-13459580D01*
X31385714Y-13459580D02*
X31433333Y-13507200D01*
X31433333Y-13507200D02*
X31528571Y-13554819D01*
X31528571Y-13554819D02*
X31719047Y-13554819D01*
X31719047Y-13554819D02*
X31814285Y-13507200D01*
X31814285Y-13507200D02*
X31861904Y-13459580D01*
X31861904Y-13459580D02*
X31909523Y-13364342D01*
X31909523Y-13364342D02*
X31909523Y-12554819D01*
X32290476Y-12554819D02*
X32957142Y-12554819D01*
X32957142Y-12554819D02*
X32528571Y-13554819D01*
X35533333Y-10554819D02*
X35200000Y-10078628D01*
X34961905Y-10554819D02*
X34961905Y-9554819D01*
X34961905Y-9554819D02*
X35342857Y-9554819D01*
X35342857Y-9554819D02*
X35438095Y-9602438D01*
X35438095Y-9602438D02*
X35485714Y-9650057D01*
X35485714Y-9650057D02*
X35533333Y-9745295D01*
X35533333Y-9745295D02*
X35533333Y-9888152D01*
X35533333Y-9888152D02*
X35485714Y-9983390D01*
X35485714Y-9983390D02*
X35438095Y-10031009D01*
X35438095Y-10031009D02*
X35342857Y-10078628D01*
X35342857Y-10078628D02*
X34961905Y-10078628D01*
X36390476Y-9554819D02*
X36200000Y-9554819D01*
X36200000Y-9554819D02*
X36104762Y-9602438D01*
X36104762Y-9602438D02*
X36057143Y-9650057D01*
X36057143Y-9650057D02*
X35961905Y-9792914D01*
X35961905Y-9792914D02*
X35914286Y-9983390D01*
X35914286Y-9983390D02*
X35914286Y-10364342D01*
X35914286Y-10364342D02*
X35961905Y-10459580D01*
X35961905Y-10459580D02*
X36009524Y-10507200D01*
X36009524Y-10507200D02*
X36104762Y-10554819D01*
X36104762Y-10554819D02*
X36295238Y-10554819D01*
X36295238Y-10554819D02*
X36390476Y-10507200D01*
X36390476Y-10507200D02*
X36438095Y-10459580D01*
X36438095Y-10459580D02*
X36485714Y-10364342D01*
X36485714Y-10364342D02*
X36485714Y-10126247D01*
X36485714Y-10126247D02*
X36438095Y-10031009D01*
X36438095Y-10031009D02*
X36390476Y-9983390D01*
X36390476Y-9983390D02*
X36295238Y-9935771D01*
X36295238Y-9935771D02*
X36104762Y-9935771D01*
X36104762Y-9935771D02*
X36009524Y-9983390D01*
X36009524Y-9983390D02*
X35961905Y-10031009D01*
X35961905Y-10031009D02*
X35914286Y-10126247D01*
X31933333Y-10554819D02*
X31600000Y-10078628D01*
X31361905Y-10554819D02*
X31361905Y-9554819D01*
X31361905Y-9554819D02*
X31742857Y-9554819D01*
X31742857Y-9554819D02*
X31838095Y-9602438D01*
X31838095Y-9602438D02*
X31885714Y-9650057D01*
X31885714Y-9650057D02*
X31933333Y-9745295D01*
X31933333Y-9745295D02*
X31933333Y-9888152D01*
X31933333Y-9888152D02*
X31885714Y-9983390D01*
X31885714Y-9983390D02*
X31838095Y-10031009D01*
X31838095Y-10031009D02*
X31742857Y-10078628D01*
X31742857Y-10078628D02*
X31361905Y-10078628D01*
X32266667Y-9554819D02*
X32885714Y-9554819D01*
X32885714Y-9554819D02*
X32552381Y-9935771D01*
X32552381Y-9935771D02*
X32695238Y-9935771D01*
X32695238Y-9935771D02*
X32790476Y-9983390D01*
X32790476Y-9983390D02*
X32838095Y-10031009D01*
X32838095Y-10031009D02*
X32885714Y-10126247D01*
X32885714Y-10126247D02*
X32885714Y-10364342D01*
X32885714Y-10364342D02*
X32838095Y-10459580D01*
X32838095Y-10459580D02*
X32790476Y-10507200D01*
X32790476Y-10507200D02*
X32695238Y-10554819D01*
X32695238Y-10554819D02*
X32409524Y-10554819D01*
X32409524Y-10554819D02*
X32314286Y-10507200D01*
X32314286Y-10507200D02*
X32266667Y-10459580D01*
X28304761Y-13950057D02*
X28209523Y-13902438D01*
X28209523Y-13902438D02*
X28114285Y-13807200D01*
X28114285Y-13807200D02*
X27971428Y-13664342D01*
X27971428Y-13664342D02*
X27876190Y-13616723D01*
X27876190Y-13616723D02*
X27780952Y-13616723D01*
X27828571Y-13854819D02*
X27733333Y-13807200D01*
X27733333Y-13807200D02*
X27638095Y-13711961D01*
X27638095Y-13711961D02*
X27590476Y-13521485D01*
X27590476Y-13521485D02*
X27590476Y-13188152D01*
X27590476Y-13188152D02*
X27638095Y-12997676D01*
X27638095Y-12997676D02*
X27733333Y-12902438D01*
X27733333Y-12902438D02*
X27828571Y-12854819D01*
X27828571Y-12854819D02*
X28019047Y-12854819D01*
X28019047Y-12854819D02*
X28114285Y-12902438D01*
X28114285Y-12902438D02*
X28209523Y-12997676D01*
X28209523Y-12997676D02*
X28257142Y-13188152D01*
X28257142Y-13188152D02*
X28257142Y-13521485D01*
X28257142Y-13521485D02*
X28209523Y-13711961D01*
X28209523Y-13711961D02*
X28114285Y-13807200D01*
X28114285Y-13807200D02*
X28019047Y-13854819D01*
X28019047Y-13854819D02*
X27828571Y-13854819D01*
X28638095Y-12950057D02*
X28685714Y-12902438D01*
X28685714Y-12902438D02*
X28780952Y-12854819D01*
X28780952Y-12854819D02*
X29019047Y-12854819D01*
X29019047Y-12854819D02*
X29114285Y-12902438D01*
X29114285Y-12902438D02*
X29161904Y-12950057D01*
X29161904Y-12950057D02*
X29209523Y-13045295D01*
X29209523Y-13045295D02*
X29209523Y-13140533D01*
X29209523Y-13140533D02*
X29161904Y-13283390D01*
X29161904Y-13283390D02*
X28590476Y-13854819D01*
X28590476Y-13854819D02*
X29209523Y-13854819D01*
X25354819Y-16338094D02*
X24354819Y-16338094D01*
X24354819Y-16338094D02*
X24354819Y-16099999D01*
X24354819Y-16099999D02*
X24402438Y-15957142D01*
X24402438Y-15957142D02*
X24497676Y-15861904D01*
X24497676Y-15861904D02*
X24592914Y-15814285D01*
X24592914Y-15814285D02*
X24783390Y-15766666D01*
X24783390Y-15766666D02*
X24926247Y-15766666D01*
X24926247Y-15766666D02*
X25116723Y-15814285D01*
X25116723Y-15814285D02*
X25211961Y-15861904D01*
X25211961Y-15861904D02*
X25307200Y-15957142D01*
X25307200Y-15957142D02*
X25354819Y-16099999D01*
X25354819Y-16099999D02*
X25354819Y-16338094D01*
X24450057Y-15385713D02*
X24402438Y-15338094D01*
X24402438Y-15338094D02*
X24354819Y-15242856D01*
X24354819Y-15242856D02*
X24354819Y-15004761D01*
X24354819Y-15004761D02*
X24402438Y-14909523D01*
X24402438Y-14909523D02*
X24450057Y-14861904D01*
X24450057Y-14861904D02*
X24545295Y-14814285D01*
X24545295Y-14814285D02*
X24640533Y-14814285D01*
X24640533Y-14814285D02*
X24783390Y-14861904D01*
X24783390Y-14861904D02*
X25354819Y-15433332D01*
X25354819Y-15433332D02*
X25354819Y-14814285D01*
X46633333Y-15959580D02*
X46585714Y-16007200D01*
X46585714Y-16007200D02*
X46442857Y-16054819D01*
X46442857Y-16054819D02*
X46347619Y-16054819D01*
X46347619Y-16054819D02*
X46204762Y-16007200D01*
X46204762Y-16007200D02*
X46109524Y-15911961D01*
X46109524Y-15911961D02*
X46061905Y-15816723D01*
X46061905Y-15816723D02*
X46014286Y-15626247D01*
X46014286Y-15626247D02*
X46014286Y-15483390D01*
X46014286Y-15483390D02*
X46061905Y-15292914D01*
X46061905Y-15292914D02*
X46109524Y-15197676D01*
X46109524Y-15197676D02*
X46204762Y-15102438D01*
X46204762Y-15102438D02*
X46347619Y-15054819D01*
X46347619Y-15054819D02*
X46442857Y-15054819D01*
X46442857Y-15054819D02*
X46585714Y-15102438D01*
X46585714Y-15102438D02*
X46633333Y-15150057D01*
X47538095Y-15054819D02*
X47061905Y-15054819D01*
X47061905Y-15054819D02*
X47014286Y-15531009D01*
X47014286Y-15531009D02*
X47061905Y-15483390D01*
X47061905Y-15483390D02*
X47157143Y-15435771D01*
X47157143Y-15435771D02*
X47395238Y-15435771D01*
X47395238Y-15435771D02*
X47490476Y-15483390D01*
X47490476Y-15483390D02*
X47538095Y-15531009D01*
X47538095Y-15531009D02*
X47585714Y-15626247D01*
X47585714Y-15626247D02*
X47585714Y-15864342D01*
X47585714Y-15864342D02*
X47538095Y-15959580D01*
X47538095Y-15959580D02*
X47490476Y-16007200D01*
X47490476Y-16007200D02*
X47395238Y-16054819D01*
X47395238Y-16054819D02*
X47157143Y-16054819D01*
X47157143Y-16054819D02*
X47061905Y-16007200D01*
X47061905Y-16007200D02*
X47014286Y-15959580D01*
X8438095Y-14454819D02*
X8438095Y-15264342D01*
X8438095Y-15264342D02*
X8485714Y-15359580D01*
X8485714Y-15359580D02*
X8533333Y-15407200D01*
X8533333Y-15407200D02*
X8628571Y-15454819D01*
X8628571Y-15454819D02*
X8819047Y-15454819D01*
X8819047Y-15454819D02*
X8914285Y-15407200D01*
X8914285Y-15407200D02*
X8961904Y-15359580D01*
X8961904Y-15359580D02*
X9009523Y-15264342D01*
X9009523Y-15264342D02*
X9009523Y-14454819D01*
X9914285Y-14454819D02*
X9723809Y-14454819D01*
X9723809Y-14454819D02*
X9628571Y-14502438D01*
X9628571Y-14502438D02*
X9580952Y-14550057D01*
X9580952Y-14550057D02*
X9485714Y-14692914D01*
X9485714Y-14692914D02*
X9438095Y-14883390D01*
X9438095Y-14883390D02*
X9438095Y-15264342D01*
X9438095Y-15264342D02*
X9485714Y-15359580D01*
X9485714Y-15359580D02*
X9533333Y-15407200D01*
X9533333Y-15407200D02*
X9628571Y-15454819D01*
X9628571Y-15454819D02*
X9819047Y-15454819D01*
X9819047Y-15454819D02*
X9914285Y-15407200D01*
X9914285Y-15407200D02*
X9961904Y-15359580D01*
X9961904Y-15359580D02*
X10009523Y-15264342D01*
X10009523Y-15264342D02*
X10009523Y-15026247D01*
X10009523Y-15026247D02*
X9961904Y-14931009D01*
X9961904Y-14931009D02*
X9914285Y-14883390D01*
X9914285Y-14883390D02*
X9819047Y-14835771D01*
X9819047Y-14835771D02*
X9628571Y-14835771D01*
X9628571Y-14835771D02*
X9533333Y-14883390D01*
X9533333Y-14883390D02*
X9485714Y-14931009D01*
X9485714Y-14931009D02*
X9438095Y-15026247D01*
X28333333Y-17459580D02*
X28285714Y-17507200D01*
X28285714Y-17507200D02*
X28142857Y-17554819D01*
X28142857Y-17554819D02*
X28047619Y-17554819D01*
X28047619Y-17554819D02*
X27904762Y-17507200D01*
X27904762Y-17507200D02*
X27809524Y-17411961D01*
X27809524Y-17411961D02*
X27761905Y-17316723D01*
X27761905Y-17316723D02*
X27714286Y-17126247D01*
X27714286Y-17126247D02*
X27714286Y-16983390D01*
X27714286Y-16983390D02*
X27761905Y-16792914D01*
X27761905Y-16792914D02*
X27809524Y-16697676D01*
X27809524Y-16697676D02*
X27904762Y-16602438D01*
X27904762Y-16602438D02*
X28047619Y-16554819D01*
X28047619Y-16554819D02*
X28142857Y-16554819D01*
X28142857Y-16554819D02*
X28285714Y-16602438D01*
X28285714Y-16602438D02*
X28333333Y-16650057D01*
X28666667Y-16554819D02*
X29333333Y-16554819D01*
X29333333Y-16554819D02*
X28904762Y-17554819D01*
X8833333Y-18759580D02*
X8785714Y-18807200D01*
X8785714Y-18807200D02*
X8642857Y-18854819D01*
X8642857Y-18854819D02*
X8547619Y-18854819D01*
X8547619Y-18854819D02*
X8404762Y-18807200D01*
X8404762Y-18807200D02*
X8309524Y-18711961D01*
X8309524Y-18711961D02*
X8261905Y-18616723D01*
X8261905Y-18616723D02*
X8214286Y-18426247D01*
X8214286Y-18426247D02*
X8214286Y-18283390D01*
X8214286Y-18283390D02*
X8261905Y-18092914D01*
X8261905Y-18092914D02*
X8309524Y-17997676D01*
X8309524Y-17997676D02*
X8404762Y-17902438D01*
X8404762Y-17902438D02*
X8547619Y-17854819D01*
X8547619Y-17854819D02*
X8642857Y-17854819D01*
X8642857Y-17854819D02*
X8785714Y-17902438D01*
X8785714Y-17902438D02*
X8833333Y-17950057D01*
X9690476Y-17854819D02*
X9500000Y-17854819D01*
X9500000Y-17854819D02*
X9404762Y-17902438D01*
X9404762Y-17902438D02*
X9357143Y-17950057D01*
X9357143Y-17950057D02*
X9261905Y-18092914D01*
X9261905Y-18092914D02*
X9214286Y-18283390D01*
X9214286Y-18283390D02*
X9214286Y-18664342D01*
X9214286Y-18664342D02*
X9261905Y-18759580D01*
X9261905Y-18759580D02*
X9309524Y-18807200D01*
X9309524Y-18807200D02*
X9404762Y-18854819D01*
X9404762Y-18854819D02*
X9595238Y-18854819D01*
X9595238Y-18854819D02*
X9690476Y-18807200D01*
X9690476Y-18807200D02*
X9738095Y-18759580D01*
X9738095Y-18759580D02*
X9785714Y-18664342D01*
X9785714Y-18664342D02*
X9785714Y-18426247D01*
X9785714Y-18426247D02*
X9738095Y-18331009D01*
X9738095Y-18331009D02*
X9690476Y-18283390D01*
X9690476Y-18283390D02*
X9595238Y-18235771D01*
X9595238Y-18235771D02*
X9404762Y-18235771D01*
X9404762Y-18235771D02*
X9309524Y-18283390D01*
X9309524Y-18283390D02*
X9261905Y-18331009D01*
X9261905Y-18331009D02*
X9214286Y-18426247D01*
X18338095Y-15654819D02*
X18338095Y-16464342D01*
X18338095Y-16464342D02*
X18385714Y-16559580D01*
X18385714Y-16559580D02*
X18433333Y-16607200D01*
X18433333Y-16607200D02*
X18528571Y-16654819D01*
X18528571Y-16654819D02*
X18719047Y-16654819D01*
X18719047Y-16654819D02*
X18814285Y-16607200D01*
X18814285Y-16607200D02*
X18861904Y-16559580D01*
X18861904Y-16559580D02*
X18909523Y-16464342D01*
X18909523Y-16464342D02*
X18909523Y-15654819D01*
X19909523Y-16654819D02*
X19338095Y-16654819D01*
X19623809Y-16654819D02*
X19623809Y-15654819D01*
X19623809Y-15654819D02*
X19528571Y-15797676D01*
X19528571Y-15797676D02*
X19433333Y-15892914D01*
X19433333Y-15892914D02*
X19338095Y-15940533D01*
X22454819Y-13666666D02*
X21978628Y-13999999D01*
X22454819Y-14238094D02*
X21454819Y-14238094D01*
X21454819Y-14238094D02*
X21454819Y-13857142D01*
X21454819Y-13857142D02*
X21502438Y-13761904D01*
X21502438Y-13761904D02*
X21550057Y-13714285D01*
X21550057Y-13714285D02*
X21645295Y-13666666D01*
X21645295Y-13666666D02*
X21788152Y-13666666D01*
X21788152Y-13666666D02*
X21883390Y-13714285D01*
X21883390Y-13714285D02*
X21931009Y-13761904D01*
X21931009Y-13761904D02*
X21978628Y-13857142D01*
X21978628Y-13857142D02*
X21978628Y-14238094D01*
X22454819Y-12714285D02*
X22454819Y-13285713D01*
X22454819Y-12999999D02*
X21454819Y-12999999D01*
X21454819Y-12999999D02*
X21597676Y-13095237D01*
X21597676Y-13095237D02*
X21692914Y-13190475D01*
X21692914Y-13190475D02*
X21740533Y-13285713D01*
X22354819Y-17266666D02*
X21878628Y-17599999D01*
X22354819Y-17838094D02*
X21354819Y-17838094D01*
X21354819Y-17838094D02*
X21354819Y-17457142D01*
X21354819Y-17457142D02*
X21402438Y-17361904D01*
X21402438Y-17361904D02*
X21450057Y-17314285D01*
X21450057Y-17314285D02*
X21545295Y-17266666D01*
X21545295Y-17266666D02*
X21688152Y-17266666D01*
X21688152Y-17266666D02*
X21783390Y-17314285D01*
X21783390Y-17314285D02*
X21831009Y-17361904D01*
X21831009Y-17361904D02*
X21878628Y-17457142D01*
X21878628Y-17457142D02*
X21878628Y-17838094D01*
X21783390Y-16695237D02*
X21735771Y-16790475D01*
X21735771Y-16790475D02*
X21688152Y-16838094D01*
X21688152Y-16838094D02*
X21592914Y-16885713D01*
X21592914Y-16885713D02*
X21545295Y-16885713D01*
X21545295Y-16885713D02*
X21450057Y-16838094D01*
X21450057Y-16838094D02*
X21402438Y-16790475D01*
X21402438Y-16790475D02*
X21354819Y-16695237D01*
X21354819Y-16695237D02*
X21354819Y-16504761D01*
X21354819Y-16504761D02*
X21402438Y-16409523D01*
X21402438Y-16409523D02*
X21450057Y-16361904D01*
X21450057Y-16361904D02*
X21545295Y-16314285D01*
X21545295Y-16314285D02*
X21592914Y-16314285D01*
X21592914Y-16314285D02*
X21688152Y-16361904D01*
X21688152Y-16361904D02*
X21735771Y-16409523D01*
X21735771Y-16409523D02*
X21783390Y-16504761D01*
X21783390Y-16504761D02*
X21783390Y-16695237D01*
X21783390Y-16695237D02*
X21831009Y-16790475D01*
X21831009Y-16790475D02*
X21878628Y-16838094D01*
X21878628Y-16838094D02*
X21973866Y-16885713D01*
X21973866Y-16885713D02*
X22164342Y-16885713D01*
X22164342Y-16885713D02*
X22259580Y-16838094D01*
X22259580Y-16838094D02*
X22307200Y-16790475D01*
X22307200Y-16790475D02*
X22354819Y-16695237D01*
X22354819Y-16695237D02*
X22354819Y-16504761D01*
X22354819Y-16504761D02*
X22307200Y-16409523D01*
X22307200Y-16409523D02*
X22259580Y-16361904D01*
X22259580Y-16361904D02*
X22164342Y-16314285D01*
X22164342Y-16314285D02*
X21973866Y-16314285D01*
X21973866Y-16314285D02*
X21878628Y-16361904D01*
X21878628Y-16361904D02*
X21831009Y-16409523D01*
X21831009Y-16409523D02*
X21783390Y-16504761D01*
X53454819Y-14842857D02*
X52978628Y-15176190D01*
X53454819Y-15414285D02*
X52454819Y-15414285D01*
X52454819Y-15414285D02*
X52454819Y-15033333D01*
X52454819Y-15033333D02*
X52502438Y-14938095D01*
X52502438Y-14938095D02*
X52550057Y-14890476D01*
X52550057Y-14890476D02*
X52645295Y-14842857D01*
X52645295Y-14842857D02*
X52788152Y-14842857D01*
X52788152Y-14842857D02*
X52883390Y-14890476D01*
X52883390Y-14890476D02*
X52931009Y-14938095D01*
X52931009Y-14938095D02*
X52978628Y-15033333D01*
X52978628Y-15033333D02*
X52978628Y-15414285D01*
X53454819Y-13890476D02*
X53454819Y-14461904D01*
X53454819Y-14176190D02*
X52454819Y-14176190D01*
X52454819Y-14176190D02*
X52597676Y-14271428D01*
X52597676Y-14271428D02*
X52692914Y-14366666D01*
X52692914Y-14366666D02*
X52740533Y-14461904D01*
X52454819Y-13557142D02*
X52454819Y-12938095D01*
X52454819Y-12938095D02*
X52835771Y-13271428D01*
X52835771Y-13271428D02*
X52835771Y-13128571D01*
X52835771Y-13128571D02*
X52883390Y-13033333D01*
X52883390Y-13033333D02*
X52931009Y-12985714D01*
X52931009Y-12985714D02*
X53026247Y-12938095D01*
X53026247Y-12938095D02*
X53264342Y-12938095D01*
X53264342Y-12938095D02*
X53359580Y-12985714D01*
X53359580Y-12985714D02*
X53407200Y-13033333D01*
X53407200Y-13033333D02*
X53454819Y-13128571D01*
X53454819Y-13128571D02*
X53454819Y-13414285D01*
X53454819Y-13414285D02*
X53407200Y-13509523D01*
X53407200Y-13509523D02*
X53359580Y-13557142D01*
X45838095Y-10054819D02*
X45838095Y-10864342D01*
X45838095Y-10864342D02*
X45885714Y-10959580D01*
X45885714Y-10959580D02*
X45933333Y-11007200D01*
X45933333Y-11007200D02*
X46028571Y-11054819D01*
X46028571Y-11054819D02*
X46219047Y-11054819D01*
X46219047Y-11054819D02*
X46314285Y-11007200D01*
X46314285Y-11007200D02*
X46361904Y-10959580D01*
X46361904Y-10959580D02*
X46409523Y-10864342D01*
X46409523Y-10864342D02*
X46409523Y-10054819D01*
X47361904Y-10054819D02*
X46885714Y-10054819D01*
X46885714Y-10054819D02*
X46838095Y-10531009D01*
X46838095Y-10531009D02*
X46885714Y-10483390D01*
X46885714Y-10483390D02*
X46980952Y-10435771D01*
X46980952Y-10435771D02*
X47219047Y-10435771D01*
X47219047Y-10435771D02*
X47314285Y-10483390D01*
X47314285Y-10483390D02*
X47361904Y-10531009D01*
X47361904Y-10531009D02*
X47409523Y-10626247D01*
X47409523Y-10626247D02*
X47409523Y-10864342D01*
X47409523Y-10864342D02*
X47361904Y-10959580D01*
X47361904Y-10959580D02*
X47314285Y-11007200D01*
X47314285Y-11007200D02*
X47219047Y-11054819D01*
X47219047Y-11054819D02*
X46980952Y-11054819D01*
X46980952Y-11054819D02*
X46885714Y-11007200D01*
X46885714Y-11007200D02*
X46838095Y-10959580D01*
X39933333Y-15959580D02*
X39885714Y-16007200D01*
X39885714Y-16007200D02*
X39742857Y-16054819D01*
X39742857Y-16054819D02*
X39647619Y-16054819D01*
X39647619Y-16054819D02*
X39504762Y-16007200D01*
X39504762Y-16007200D02*
X39409524Y-15911961D01*
X39409524Y-15911961D02*
X39361905Y-15816723D01*
X39361905Y-15816723D02*
X39314286Y-15626247D01*
X39314286Y-15626247D02*
X39314286Y-15483390D01*
X39314286Y-15483390D02*
X39361905Y-15292914D01*
X39361905Y-15292914D02*
X39409524Y-15197676D01*
X39409524Y-15197676D02*
X39504762Y-15102438D01*
X39504762Y-15102438D02*
X39647619Y-15054819D01*
X39647619Y-15054819D02*
X39742857Y-15054819D01*
X39742857Y-15054819D02*
X39885714Y-15102438D01*
X39885714Y-15102438D02*
X39933333Y-15150057D01*
X40266667Y-15054819D02*
X40885714Y-15054819D01*
X40885714Y-15054819D02*
X40552381Y-15435771D01*
X40552381Y-15435771D02*
X40695238Y-15435771D01*
X40695238Y-15435771D02*
X40790476Y-15483390D01*
X40790476Y-15483390D02*
X40838095Y-15531009D01*
X40838095Y-15531009D02*
X40885714Y-15626247D01*
X40885714Y-15626247D02*
X40885714Y-15864342D01*
X40885714Y-15864342D02*
X40838095Y-15959580D01*
X40838095Y-15959580D02*
X40790476Y-16007200D01*
X40790476Y-16007200D02*
X40695238Y-16054819D01*
X40695238Y-16054819D02*
X40409524Y-16054819D01*
X40409524Y-16054819D02*
X40314286Y-16007200D01*
X40314286Y-16007200D02*
X40266667Y-15959580D01*
X13054761Y-15400057D02*
X12959523Y-15352438D01*
X12959523Y-15352438D02*
X12864285Y-15257200D01*
X12864285Y-15257200D02*
X12721428Y-15114342D01*
X12721428Y-15114342D02*
X12626190Y-15066723D01*
X12626190Y-15066723D02*
X12530952Y-15066723D01*
X12578571Y-15304819D02*
X12483333Y-15257200D01*
X12483333Y-15257200D02*
X12388095Y-15161961D01*
X12388095Y-15161961D02*
X12340476Y-14971485D01*
X12340476Y-14971485D02*
X12340476Y-14638152D01*
X12340476Y-14638152D02*
X12388095Y-14447676D01*
X12388095Y-14447676D02*
X12483333Y-14352438D01*
X12483333Y-14352438D02*
X12578571Y-14304819D01*
X12578571Y-14304819D02*
X12769047Y-14304819D01*
X12769047Y-14304819D02*
X12864285Y-14352438D01*
X12864285Y-14352438D02*
X12959523Y-14447676D01*
X12959523Y-14447676D02*
X13007142Y-14638152D01*
X13007142Y-14638152D02*
X13007142Y-14971485D01*
X13007142Y-14971485D02*
X12959523Y-15161961D01*
X12959523Y-15161961D02*
X12864285Y-15257200D01*
X12864285Y-15257200D02*
X12769047Y-15304819D01*
X12769047Y-15304819D02*
X12578571Y-15304819D01*
X13959523Y-15304819D02*
X13388095Y-15304819D01*
X13673809Y-15304819D02*
X13673809Y-14304819D01*
X13673809Y-14304819D02*
X13578571Y-14447676D01*
X13578571Y-14447676D02*
X13483333Y-14542914D01*
X13483333Y-14542914D02*
X13388095Y-14590533D01*
X35138095Y-12554819D02*
X35138095Y-13364342D01*
X35138095Y-13364342D02*
X35185714Y-13459580D01*
X35185714Y-13459580D02*
X35233333Y-13507200D01*
X35233333Y-13507200D02*
X35328571Y-13554819D01*
X35328571Y-13554819D02*
X35519047Y-13554819D01*
X35519047Y-13554819D02*
X35614285Y-13507200D01*
X35614285Y-13507200D02*
X35661904Y-13459580D01*
X35661904Y-13459580D02*
X35709523Y-13364342D01*
X35709523Y-13364342D02*
X35709523Y-12554819D01*
X36090476Y-12554819D02*
X36709523Y-12554819D01*
X36709523Y-12554819D02*
X36376190Y-12935771D01*
X36376190Y-12935771D02*
X36519047Y-12935771D01*
X36519047Y-12935771D02*
X36614285Y-12983390D01*
X36614285Y-12983390D02*
X36661904Y-13031009D01*
X36661904Y-13031009D02*
X36709523Y-13126247D01*
X36709523Y-13126247D02*
X36709523Y-13364342D01*
X36709523Y-13364342D02*
X36661904Y-13459580D01*
X36661904Y-13459580D02*
X36614285Y-13507200D01*
X36614285Y-13507200D02*
X36519047Y-13554819D01*
X36519047Y-13554819D02*
X36233333Y-13554819D01*
X36233333Y-13554819D02*
X36138095Y-13507200D01*
X36138095Y-13507200D02*
X36090476Y-13459580D01*
X12333333Y-18854819D02*
X12000000Y-18378628D01*
X11761905Y-18854819D02*
X11761905Y-17854819D01*
X11761905Y-17854819D02*
X12142857Y-17854819D01*
X12142857Y-17854819D02*
X12238095Y-17902438D01*
X12238095Y-17902438D02*
X12285714Y-17950057D01*
X12285714Y-17950057D02*
X12333333Y-18045295D01*
X12333333Y-18045295D02*
X12333333Y-18188152D01*
X12333333Y-18188152D02*
X12285714Y-18283390D01*
X12285714Y-18283390D02*
X12238095Y-18331009D01*
X12238095Y-18331009D02*
X12142857Y-18378628D01*
X12142857Y-18378628D02*
X11761905Y-18378628D01*
X12714286Y-17950057D02*
X12761905Y-17902438D01*
X12761905Y-17902438D02*
X12857143Y-17854819D01*
X12857143Y-17854819D02*
X13095238Y-17854819D01*
X13095238Y-17854819D02*
X13190476Y-17902438D01*
X13190476Y-17902438D02*
X13238095Y-17950057D01*
X13238095Y-17950057D02*
X13285714Y-18045295D01*
X13285714Y-18045295D02*
X13285714Y-18140533D01*
X13285714Y-18140533D02*
X13238095Y-18283390D01*
X13238095Y-18283390D02*
X12666667Y-18854819D01*
X12666667Y-18854819D02*
X13285714Y-18854819D01*
X42333333Y-10554819D02*
X42000000Y-10078628D01*
X41761905Y-10554819D02*
X41761905Y-9554819D01*
X41761905Y-9554819D02*
X42142857Y-9554819D01*
X42142857Y-9554819D02*
X42238095Y-9602438D01*
X42238095Y-9602438D02*
X42285714Y-9650057D01*
X42285714Y-9650057D02*
X42333333Y-9745295D01*
X42333333Y-9745295D02*
X42333333Y-9888152D01*
X42333333Y-9888152D02*
X42285714Y-9983390D01*
X42285714Y-9983390D02*
X42238095Y-10031009D01*
X42238095Y-10031009D02*
X42142857Y-10078628D01*
X42142857Y-10078628D02*
X41761905Y-10078628D01*
X43238095Y-9554819D02*
X42761905Y-9554819D01*
X42761905Y-9554819D02*
X42714286Y-10031009D01*
X42714286Y-10031009D02*
X42761905Y-9983390D01*
X42761905Y-9983390D02*
X42857143Y-9935771D01*
X42857143Y-9935771D02*
X43095238Y-9935771D01*
X43095238Y-9935771D02*
X43190476Y-9983390D01*
X43190476Y-9983390D02*
X43238095Y-10031009D01*
X43238095Y-10031009D02*
X43285714Y-10126247D01*
X43285714Y-10126247D02*
X43285714Y-10364342D01*
X43285714Y-10364342D02*
X43238095Y-10459580D01*
X43238095Y-10459580D02*
X43190476Y-10507200D01*
X43190476Y-10507200D02*
X43095238Y-10554819D01*
X43095238Y-10554819D02*
X42857143Y-10554819D01*
X42857143Y-10554819D02*
X42761905Y-10507200D01*
X42761905Y-10507200D02*
X42714286Y-10459580D01*
X38833333Y-10554819D02*
X38500000Y-10078628D01*
X38261905Y-10554819D02*
X38261905Y-9554819D01*
X38261905Y-9554819D02*
X38642857Y-9554819D01*
X38642857Y-9554819D02*
X38738095Y-9602438D01*
X38738095Y-9602438D02*
X38785714Y-9650057D01*
X38785714Y-9650057D02*
X38833333Y-9745295D01*
X38833333Y-9745295D02*
X38833333Y-9888152D01*
X38833333Y-9888152D02*
X38785714Y-9983390D01*
X38785714Y-9983390D02*
X38738095Y-10031009D01*
X38738095Y-10031009D02*
X38642857Y-10078628D01*
X38642857Y-10078628D02*
X38261905Y-10078628D01*
X39690476Y-9888152D02*
X39690476Y-10554819D01*
X39452381Y-9507200D02*
X39214286Y-10221485D01*
X39214286Y-10221485D02*
X39833333Y-10221485D01*
X46307142Y-13854819D02*
X45973809Y-13378628D01*
X45735714Y-13854819D02*
X45735714Y-12854819D01*
X45735714Y-12854819D02*
X46116666Y-12854819D01*
X46116666Y-12854819D02*
X46211904Y-12902438D01*
X46211904Y-12902438D02*
X46259523Y-12950057D01*
X46259523Y-12950057D02*
X46307142Y-13045295D01*
X46307142Y-13045295D02*
X46307142Y-13188152D01*
X46307142Y-13188152D02*
X46259523Y-13283390D01*
X46259523Y-13283390D02*
X46211904Y-13331009D01*
X46211904Y-13331009D02*
X46116666Y-13378628D01*
X46116666Y-13378628D02*
X45735714Y-13378628D01*
X47259523Y-13854819D02*
X46688095Y-13854819D01*
X46973809Y-13854819D02*
X46973809Y-12854819D01*
X46973809Y-12854819D02*
X46878571Y-12997676D01*
X46878571Y-12997676D02*
X46783333Y-13092914D01*
X46783333Y-13092914D02*
X46688095Y-13140533D01*
X48211904Y-13854819D02*
X47640476Y-13854819D01*
X47926190Y-13854819D02*
X47926190Y-12854819D01*
X47926190Y-12854819D02*
X47830952Y-12997676D01*
X47830952Y-12997676D02*
X47735714Y-13092914D01*
X47735714Y-13092914D02*
X47640476Y-13140533D01*
X41938095Y-12254819D02*
X41938095Y-13064342D01*
X41938095Y-13064342D02*
X41985714Y-13159580D01*
X41985714Y-13159580D02*
X42033333Y-13207200D01*
X42033333Y-13207200D02*
X42128571Y-13254819D01*
X42128571Y-13254819D02*
X42319047Y-13254819D01*
X42319047Y-13254819D02*
X42414285Y-13207200D01*
X42414285Y-13207200D02*
X42461904Y-13159580D01*
X42461904Y-13159580D02*
X42509523Y-13064342D01*
X42509523Y-13064342D02*
X42509523Y-12254819D01*
X42938095Y-12350057D02*
X42985714Y-12302438D01*
X42985714Y-12302438D02*
X43080952Y-12254819D01*
X43080952Y-12254819D02*
X43319047Y-12254819D01*
X43319047Y-12254819D02*
X43414285Y-12302438D01*
X43414285Y-12302438D02*
X43461904Y-12350057D01*
X43461904Y-12350057D02*
X43509523Y-12445295D01*
X43509523Y-12445295D02*
X43509523Y-12540533D01*
X43509523Y-12540533D02*
X43461904Y-12683390D01*
X43461904Y-12683390D02*
X42890476Y-13254819D01*
X42890476Y-13254819D02*
X43509523Y-13254819D01*
X8833333Y-12254819D02*
X8500000Y-11778628D01*
X8261905Y-12254819D02*
X8261905Y-11254819D01*
X8261905Y-11254819D02*
X8642857Y-11254819D01*
X8642857Y-11254819D02*
X8738095Y-11302438D01*
X8738095Y-11302438D02*
X8785714Y-11350057D01*
X8785714Y-11350057D02*
X8833333Y-11445295D01*
X8833333Y-11445295D02*
X8833333Y-11588152D01*
X8833333Y-11588152D02*
X8785714Y-11683390D01*
X8785714Y-11683390D02*
X8738095Y-11731009D01*
X8738095Y-11731009D02*
X8642857Y-11778628D01*
X8642857Y-11778628D02*
X8261905Y-11778628D01*
X9309524Y-12254819D02*
X9500000Y-12254819D01*
X9500000Y-12254819D02*
X9595238Y-12207200D01*
X9595238Y-12207200D02*
X9642857Y-12159580D01*
X9642857Y-12159580D02*
X9738095Y-12016723D01*
X9738095Y-12016723D02*
X9785714Y-11826247D01*
X9785714Y-11826247D02*
X9785714Y-11445295D01*
X9785714Y-11445295D02*
X9738095Y-11350057D01*
X9738095Y-11350057D02*
X9690476Y-11302438D01*
X9690476Y-11302438D02*
X9595238Y-11254819D01*
X9595238Y-11254819D02*
X9404762Y-11254819D01*
X9404762Y-11254819D02*
X9309524Y-11302438D01*
X9309524Y-11302438D02*
X9261905Y-11350057D01*
X9261905Y-11350057D02*
X9214286Y-11445295D01*
X9214286Y-11445295D02*
X9214286Y-11683390D01*
X9214286Y-11683390D02*
X9261905Y-11778628D01*
X9261905Y-11778628D02*
X9309524Y-11826247D01*
X9309524Y-11826247D02*
X9404762Y-11873866D01*
X9404762Y-11873866D02*
X9595238Y-11873866D01*
X9595238Y-11873866D02*
X9690476Y-11826247D01*
X9690476Y-11826247D02*
X9738095Y-11778628D01*
X9738095Y-11778628D02*
X9785714Y-11683390D01*
X12661905Y-12254819D02*
X12661905Y-11254819D01*
X12661905Y-11254819D02*
X12900000Y-11254819D01*
X12900000Y-11254819D02*
X13042857Y-11302438D01*
X13042857Y-11302438D02*
X13138095Y-11397676D01*
X13138095Y-11397676D02*
X13185714Y-11492914D01*
X13185714Y-11492914D02*
X13233333Y-11683390D01*
X13233333Y-11683390D02*
X13233333Y-11826247D01*
X13233333Y-11826247D02*
X13185714Y-12016723D01*
X13185714Y-12016723D02*
X13138095Y-12111961D01*
X13138095Y-12111961D02*
X13042857Y-12207200D01*
X13042857Y-12207200D02*
X12900000Y-12254819D01*
X12900000Y-12254819D02*
X12661905Y-12254819D01*
X14185714Y-12254819D02*
X13614286Y-12254819D01*
X13900000Y-12254819D02*
X13900000Y-11254819D01*
X13900000Y-11254819D02*
X13804762Y-11397676D01*
X13804762Y-11397676D02*
X13709524Y-11492914D01*
X13709524Y-11492914D02*
X13614286Y-11540533D01*
X16559580Y-15066666D02*
X16607200Y-15114285D01*
X16607200Y-15114285D02*
X16654819Y-15257142D01*
X16654819Y-15257142D02*
X16654819Y-15352380D01*
X16654819Y-15352380D02*
X16607200Y-15495237D01*
X16607200Y-15495237D02*
X16511961Y-15590475D01*
X16511961Y-15590475D02*
X16416723Y-15638094D01*
X16416723Y-15638094D02*
X16226247Y-15685713D01*
X16226247Y-15685713D02*
X16083390Y-15685713D01*
X16083390Y-15685713D02*
X15892914Y-15638094D01*
X15892914Y-15638094D02*
X15797676Y-15590475D01*
X15797676Y-15590475D02*
X15702438Y-15495237D01*
X15702438Y-15495237D02*
X15654819Y-15352380D01*
X15654819Y-15352380D02*
X15654819Y-15257142D01*
X15654819Y-15257142D02*
X15702438Y-15114285D01*
X15702438Y-15114285D02*
X15750057Y-15066666D01*
X16654819Y-14114285D02*
X16654819Y-14685713D01*
X16654819Y-14399999D02*
X15654819Y-14399999D01*
X15654819Y-14399999D02*
X15797676Y-14495237D01*
X15797676Y-14495237D02*
X15892914Y-14590475D01*
X15892914Y-14590475D02*
X15940533Y-14685713D01*
X39859580Y-13166666D02*
X39907200Y-13214285D01*
X39907200Y-13214285D02*
X39954819Y-13357142D01*
X39954819Y-13357142D02*
X39954819Y-13452380D01*
X39954819Y-13452380D02*
X39907200Y-13595237D01*
X39907200Y-13595237D02*
X39811961Y-13690475D01*
X39811961Y-13690475D02*
X39716723Y-13738094D01*
X39716723Y-13738094D02*
X39526247Y-13785713D01*
X39526247Y-13785713D02*
X39383390Y-13785713D01*
X39383390Y-13785713D02*
X39192914Y-13738094D01*
X39192914Y-13738094D02*
X39097676Y-13690475D01*
X39097676Y-13690475D02*
X39002438Y-13595237D01*
X39002438Y-13595237D02*
X38954819Y-13452380D01*
X38954819Y-13452380D02*
X38954819Y-13357142D01*
X38954819Y-13357142D02*
X39002438Y-13214285D01*
X39002438Y-13214285D02*
X39050057Y-13166666D01*
X39050057Y-12785713D02*
X39002438Y-12738094D01*
X39002438Y-12738094D02*
X38954819Y-12642856D01*
X38954819Y-12642856D02*
X38954819Y-12404761D01*
X38954819Y-12404761D02*
X39002438Y-12309523D01*
X39002438Y-12309523D02*
X39050057Y-12261904D01*
X39050057Y-12261904D02*
X39145295Y-12214285D01*
X39145295Y-12214285D02*
X39240533Y-12214285D01*
X39240533Y-12214285D02*
X39383390Y-12261904D01*
X39383390Y-12261904D02*
X39954819Y-12833332D01*
X39954819Y-12833332D02*
X39954819Y-12214285D01*
D11*
%TO.C,J1*%
X5550000Y-1450000D02*
X3795000Y-1450000D01*
X5550000Y-1450000D02*
X5550000Y-1530000D01*
X1250000Y-1450000D02*
X1605000Y-1450000D01*
X1250000Y-1450000D02*
X1250000Y-8850000D01*
X5550000Y-8770000D02*
X5550000Y-8850000D01*
X3795000Y-8850000D02*
X5550000Y-8850000D01*
X1250000Y-8850000D02*
X1605000Y-8850000D01*
D12*
X6900000Y-3800000D02*
G75*
G03*
X6700000Y-3800000I-100000J0D01*
G01*
X6700000Y-3800000D02*
G75*
G03*
X6900000Y-3800000I100000J0D01*
G01*
D13*
%TO.C,U7*%
X30440000Y-5600000D02*
X30440000Y-7400000D01*
X30440000Y-5600000D02*
X30440000Y-4800000D01*
X33560000Y-5600000D02*
X33560000Y-6400000D01*
X33560000Y-5600000D02*
X33560000Y-4800000D01*
%TO.C,R6*%
X35272936Y-1565000D02*
X35727064Y-1565000D01*
X35272936Y-3035000D02*
X35727064Y-3035000D01*
%TO.C,R3*%
X31772936Y-1565000D02*
X32227064Y-1565000D01*
X31772936Y-3035000D02*
X32227064Y-3035000D01*
%TO.C,Q2*%
X29960000Y-4062500D02*
X29960000Y-4712500D01*
X26840000Y-4062500D02*
X26840000Y-4712500D01*
X29960000Y-4062500D02*
X29960000Y-2387500D01*
X26840000Y-4062500D02*
X26840000Y-3412500D01*
%TO.C,D2*%
X23150000Y-2090000D02*
X23150000Y-7600000D01*
X26450000Y-2090000D02*
X26450000Y-7600000D01*
X26450000Y-2090000D02*
X23150000Y-2090000D01*
%TO.C,C5*%
X47188748Y-8535000D02*
X47711252Y-8535000D01*
X47188748Y-7065000D02*
X47711252Y-7065000D01*
%TO.C,D3*%
X17085000Y-8910000D02*
X17085000Y-6990000D01*
X17085000Y-6990000D02*
X14400000Y-6990000D01*
X14400000Y-8910000D02*
X17085000Y-8910000D01*
%TO.C,U6*%
X8925000Y-3640000D02*
X7125000Y-3640000D01*
X8925000Y-3640000D02*
X9725000Y-3640000D01*
X8925000Y-6760000D02*
X8125000Y-6760000D01*
X8925000Y-6760000D02*
X9725000Y-6760000D01*
%TO.C,C7*%
X28188748Y-6865000D02*
X28711252Y-6865000D01*
X28188748Y-8335000D02*
X28711252Y-8335000D01*
%TO.C,C6*%
X8288748Y-7215000D02*
X8811252Y-7215000D01*
X8288748Y-8685000D02*
X8811252Y-8685000D01*
%TO.C,U1*%
X17415000Y-6200000D02*
X17415000Y-8000000D01*
X17415000Y-6200000D02*
X17415000Y-5400000D01*
X20535000Y-6200000D02*
X20535000Y-7000000D01*
X20535000Y-6200000D02*
X20535000Y-5400000D01*
%TO.C,R1*%
X22635000Y-4039564D02*
X22635000Y-3585436D01*
X21165000Y-4039564D02*
X21165000Y-3585436D01*
%TO.C,R8*%
X22635000Y-7527064D02*
X22635000Y-7072936D01*
X21165000Y-7527064D02*
X21165000Y-7072936D01*
%TO.C,R13*%
X52165000Y-10814564D02*
X52165000Y-10360436D01*
X53635000Y-10814564D02*
X53635000Y-10360436D01*
%TO.C,U5*%
X47200000Y-1340000D02*
X45400000Y-1340000D01*
X47200000Y-1340000D02*
X48000000Y-1340000D01*
X47200000Y-4460000D02*
X46400000Y-4460000D01*
X47200000Y-4460000D02*
X48000000Y-4460000D01*
%TO.C,C3*%
X40911252Y-7165000D02*
X40388748Y-7165000D01*
X40911252Y-8635000D02*
X40388748Y-8635000D01*
%TO.C,Q1*%
X12962500Y-6760000D02*
X13612500Y-6760000D01*
X12962500Y-6760000D02*
X12312500Y-6760000D01*
X12962500Y-3640000D02*
X13612500Y-3640000D01*
X12962500Y-3640000D02*
X11287500Y-3640000D01*
%TO.C,U3*%
X35900000Y-7360000D02*
X37700000Y-7360000D01*
X35900000Y-7360000D02*
X35100000Y-7360000D01*
X35900000Y-4240000D02*
X36700000Y-4240000D01*
X35900000Y-4240000D02*
X35100000Y-4240000D01*
%TO.C,R2*%
X12227064Y-8685000D02*
X11772936Y-8685000D01*
X12227064Y-7215000D02*
X11772936Y-7215000D01*
%TO.C,R5*%
X42322936Y-1565000D02*
X42777064Y-1565000D01*
X42322936Y-3035000D02*
X42777064Y-3035000D01*
%TO.C,BT1*%
X52040000Y-2190000D02*
X50890000Y-2190000D01*
X50890000Y-2190000D02*
X50890000Y-3240000D01*
X50890000Y-3240000D02*
X49900000Y-3240000D01*
X54010000Y-3360000D02*
X54010000Y-6240000D01*
X52040000Y-7410000D02*
X50890000Y-7410000D01*
X50890000Y-7410000D02*
X50890000Y-6360000D01*
%TO.C,R4*%
X38872936Y-3035000D02*
X39327064Y-3035000D01*
X38872936Y-1565000D02*
X39327064Y-1565000D01*
%TO.C,R11*%
X47210436Y-6435000D02*
X47664564Y-6435000D01*
X47210436Y-4965000D02*
X47664564Y-4965000D01*
%TO.C,U2*%
X42900000Y-3440000D02*
X42100000Y-3440000D01*
X42900000Y-3440000D02*
X43700000Y-3440000D01*
X42900000Y-6560000D02*
X42100000Y-6560000D01*
X42900000Y-6560000D02*
X44700000Y-6560000D01*
%TO.C,R9*%
X9135436Y-1515000D02*
X9589564Y-1515000D01*
X9135436Y-2985000D02*
X9589564Y-2985000D01*
%TO.C,D1*%
X16110000Y-3250000D02*
X16110000Y-1250000D01*
X16110000Y-3250000D02*
X12100000Y-3250000D01*
X16110000Y-1250000D02*
X12100000Y-1250000D01*
%TO.C,C1*%
X16860000Y-4988748D02*
X16860000Y-5511252D01*
X15390000Y-4988748D02*
X15390000Y-5511252D01*
%TO.C,C2*%
X40485000Y-4788748D02*
X40485000Y-5311252D01*
X39015000Y-4788748D02*
X39015000Y-5311252D01*
%TD*%
M02*
