%TF.GenerationSoftware,KiCad,Pcbnew,7.0.10*%
%TF.CreationDate,2024-01-23T14:54:21+11:00*%
%TF.ProjectId,cphp82001-pcb,63706870-3832-4303-9031-2d7063622e6b,3.1*%
%TF.SameCoordinates,Original*%
%TF.FileFunction,Soldermask,Top*%
%TF.FilePolarity,Negative*%
%FSLAX46Y46*%
G04 Gerber Fmt 4.6, Leading zero omitted, Abs format (unit mm)*
G04 Created by KiCad (PCBNEW 7.0.10) date 2024-01-23 14:54:21*
%MOMM*%
%LPD*%
G01*
G04 APERTURE LIST*
G04 Aperture macros list*
%AMRoundRect*
0 Rectangle with rounded corners*
0 $1 Rounding radius*
0 $2 $3 $4 $5 $6 $7 $8 $9 X,Y pos of 4 corners*
0 Add a 4 corners polygon primitive as box body*
4,1,4,$2,$3,$4,$5,$6,$7,$8,$9,$2,$3,0*
0 Add four circle primitives for the rounded corners*
1,1,$1+$1,$2,$3*
1,1,$1+$1,$4,$5*
1,1,$1+$1,$6,$7*
1,1,$1+$1,$8,$9*
0 Add four rect primitives between the rounded corners*
20,1,$1+$1,$2,$3,$4,$5,0*
20,1,$1+$1,$4,$5,$6,$7,0*
20,1,$1+$1,$6,$7,$8,$9,0*
20,1,$1+$1,$8,$9,$2,$3,0*%
G04 Aperture macros list end*
%ADD10RoundRect,0.150000X-0.150000X0.512500X-0.150000X-0.512500X0.150000X-0.512500X0.150000X0.512500X0*%
%ADD11RoundRect,0.150000X-0.150000X0.587500X-0.150000X-0.587500X0.150000X-0.587500X0.150000X0.587500X0*%
%ADD12RoundRect,0.250000X-0.650000X1.000000X-0.650000X-1.000000X0.650000X-1.000000X0.650000X1.000000X0*%
%ADD13RoundRect,0.250000X-0.250000X-0.475000X0.250000X-0.475000X0.250000X0.475000X-0.250000X0.475000X0*%
%ADD14RoundRect,0.243750X0.243750X0.456250X-0.243750X0.456250X-0.243750X-0.456250X0.243750X-0.456250X0*%
%ADD15RoundRect,0.050000X-0.500000X-0.250000X0.500000X-0.250000X0.500000X0.250000X-0.500000X0.250000X0*%
%ADD16RoundRect,0.050000X0.250000X-0.500000X0.250000X0.500000X-0.250000X0.500000X-0.250000X-0.500000X0*%
%ADD17R,1.350000X0.400000*%
%ADD18O,0.800000X1.600000*%
%ADD19O,1.550000X0.750000*%
%ADD20R,1.550000X1.300000*%
%ADD21R,1.550000X1.500000*%
%ADD22RoundRect,0.250000X0.450000X-0.262500X0.450000X0.262500X-0.450000X0.262500X-0.450000X-0.262500X0*%
%ADD23RoundRect,0.150000X-0.512500X-0.150000X0.512500X-0.150000X0.512500X0.150000X-0.512500X0.150000X0*%
%ADD24RoundRect,0.250000X0.250000X0.475000X-0.250000X0.475000X-0.250000X-0.475000X0.250000X-0.475000X0*%
%ADD25RoundRect,0.150000X-0.587500X-0.150000X0.587500X-0.150000X0.587500X0.150000X-0.587500X0.150000X0*%
%ADD26RoundRect,0.050000X0.500000X0.250000X-0.500000X0.250000X-0.500000X-0.250000X0.500000X-0.250000X0*%
%ADD27RoundRect,0.250000X0.262500X0.450000X-0.262500X0.450000X-0.262500X-0.450000X0.262500X-0.450000X0*%
%ADD28RoundRect,0.250000X-0.262500X-0.450000X0.262500X-0.450000X0.262500X0.450000X-0.262500X0.450000X0*%
%ADD29RoundRect,0.150000X-0.625000X0.150000X-0.625000X-0.150000X0.625000X-0.150000X0.625000X0.150000X0*%
%ADD30RoundRect,0.250000X-0.650000X0.350000X-0.650000X-0.350000X0.650000X-0.350000X0.650000X0.350000X0*%
%ADD31RoundRect,0.225000X0.225000X0.375000X-0.225000X0.375000X-0.225000X-0.375000X0.225000X-0.375000X0*%
%ADD32RoundRect,0.250000X-0.475000X0.250000X-0.475000X-0.250000X0.475000X-0.250000X0.475000X0.250000X0*%
G04 APERTURE END LIST*
D10*
%TO.C,U4*%
X32850000Y-3062500D03*
X30950000Y-3062500D03*
X31900000Y-5337500D03*
%TD*%
D11*
%TO.C,Q2*%
X29350000Y-3125000D03*
X27450000Y-3125000D03*
X28400000Y-5000000D03*
%TD*%
D12*
%TO.C,D2*%
X24800000Y-3600000D03*
X24800000Y-7600000D03*
%TD*%
D13*
%TO.C,C5*%
X46000000Y-6000000D03*
X47900000Y-6000000D03*
%TD*%
D14*
%TO.C,D3*%
X16337500Y-7950000D03*
X14462500Y-7950000D03*
%TD*%
D15*
%TO.C,U6*%
X7625000Y-4250000D03*
X7625000Y-5200000D03*
X7625000Y-6150000D03*
X10225000Y-6150000D03*
X10225000Y-4250000D03*
%TD*%
D13*
%TO.C,C7*%
X27500000Y-7600000D03*
X29400000Y-7600000D03*
%TD*%
%TO.C,C6*%
X7600000Y-7950000D03*
X9500000Y-7950000D03*
%TD*%
D16*
%TO.C,U1*%
X18025000Y-7500000D03*
X18975000Y-7500000D03*
X19925000Y-7500000D03*
X19925000Y-4900000D03*
X18975000Y-4900000D03*
X18025000Y-4900000D03*
%TD*%
D17*
%TO.C,J1*%
X5375000Y-3850000D03*
X5375000Y-4500000D03*
X5375000Y-5150000D03*
X5375000Y-5800000D03*
X5375000Y-6450000D03*
D18*
X5400000Y-2650000D03*
X5400000Y-7650000D03*
D19*
X2700000Y-1625000D03*
D20*
X2700000Y-2250000D03*
D21*
X2700000Y-4150000D03*
X2700000Y-6150000D03*
D20*
X2700000Y-8050000D03*
D19*
X2700000Y-8675000D03*
%TD*%
D22*
%TO.C,R1*%
X21900000Y-4725000D03*
X21900000Y-2900000D03*
%TD*%
%TO.C,R8*%
X21900000Y-8212500D03*
X21900000Y-6387500D03*
%TD*%
%TO.C,R13*%
X52900000Y-11500000D03*
X52900000Y-9675000D03*
%TD*%
D23*
%TO.C,U5*%
X46062500Y-1950000D03*
X46062500Y-3850000D03*
X48337500Y-2900000D03*
%TD*%
D24*
%TO.C,C3*%
X41600000Y-7900000D03*
X39700000Y-7900000D03*
%TD*%
D25*
%TO.C,Q1*%
X12025000Y-4250000D03*
X12025000Y-6150000D03*
X13900000Y-5200000D03*
%TD*%
D26*
%TO.C,U3*%
X37200000Y-6750000D03*
X37200000Y-5800000D03*
X37200000Y-4850000D03*
X34600000Y-4850000D03*
X34600000Y-6750000D03*
%TD*%
D27*
%TO.C,R2*%
X12912500Y-7950000D03*
X11087500Y-7950000D03*
%TD*%
D28*
%TO.C,R5*%
X38787500Y-2300000D03*
X40612500Y-2300000D03*
%TD*%
D29*
%TO.C,BT1*%
X50675000Y-3800000D03*
X50675000Y-4800000D03*
X50675000Y-5800000D03*
D30*
X53200000Y-2500000D03*
X53200000Y-7100000D03*
%TD*%
D28*
%TO.C,R4*%
X35300000Y-2300000D03*
X37125000Y-2300000D03*
%TD*%
D26*
%TO.C,U2*%
X44200000Y-5950000D03*
X44200000Y-5000000D03*
X44200000Y-4050000D03*
X41600000Y-4050000D03*
X41600000Y-5950000D03*
%TD*%
D28*
%TO.C,R9*%
X8450000Y-2250000D03*
X10275000Y-2250000D03*
%TD*%
D31*
%TO.C,D1*%
X15400000Y-2250000D03*
X12100000Y-2250000D03*
%TD*%
D32*
%TO.C,C1*%
X16125000Y-4300000D03*
X16125000Y-6200000D03*
%TD*%
%TO.C,C2*%
X39750000Y-4100000D03*
X39750000Y-6000000D03*
%TD*%
M02*
