%TF.GenerationSoftware,KiCad,Pcbnew,8.0.5*%
%TF.CreationDate,2024-10-15T13:19:13+11:00*%
%TF.ProjectId,cphp82001-pcb,63706870-3832-4303-9031-2d7063622e6b,4.0*%
%TF.SameCoordinates,Original*%
%TF.FileFunction,Legend,Top*%
%TF.FilePolarity,Positive*%
%FSLAX46Y46*%
G04 Gerber Fmt 4.6, Leading zero omitted, Abs format (unit mm)*
G04 Created by KiCad (PCBNEW 8.0.5) date 2024-10-15 13:19:13*
%MOMM*%
%LPD*%
G01*
G04 APERTURE LIST*
%ADD10C,0.150000*%
%ADD11C,0.120000*%
%ADD12C,0.127000*%
%ADD13C,0.200000*%
G04 APERTURE END LIST*
D10*
X41000000Y-14500000D02*
X44400000Y-14500000D01*
X44400000Y-17600000D01*
X41000000Y-17600000D01*
X41000000Y-14500000D01*
X44400000Y-17100000D02*
X43900000Y-17600000D01*
X22400000Y-15600000D02*
X24400000Y-15600000D01*
X24400000Y-18600000D01*
X22400000Y-18600000D01*
X22400000Y-15600000D01*
X38800000Y-10900000D02*
X42400000Y-10900000D01*
X42400000Y-13900000D01*
X38800000Y-13900000D01*
X38800000Y-10900000D01*
X13900000Y-17400000D02*
X16900000Y-17400000D01*
X16900000Y-19400000D01*
X13900000Y-19400000D01*
X13900000Y-17400000D01*
X7300000Y-13400000D02*
X7800000Y-12900000D01*
X29000000Y-10400000D02*
X32600000Y-10400000D01*
X32600000Y-13600000D01*
X29000000Y-13600000D01*
X29000000Y-10400000D01*
X18300000Y-14300000D02*
X21700000Y-14300000D01*
X21700000Y-18100000D01*
X18300000Y-18100000D01*
X18300000Y-14300000D01*
X7275000Y-10450000D02*
X10275000Y-10450000D01*
X10275000Y-12450000D01*
X7275000Y-12450000D01*
X7275000Y-10450000D01*
X12800000Y-43000000D02*
X4600000Y-43000000D01*
X38800000Y-11400000D02*
X39300000Y-10900000D01*
X10800000Y-10400000D02*
X15800000Y-10400000D01*
X15800000Y-12500000D01*
X10800000Y-12500000D01*
X10800000Y-10400000D01*
X11400000Y-12900000D02*
X14600000Y-12900000D01*
X14600000Y-16200000D01*
X11400000Y-16200000D01*
X11400000Y-12900000D01*
X31000000Y-15200000D02*
X32800000Y-15200000D01*
X32800000Y-18200000D01*
X31000000Y-18200000D01*
X31000000Y-15200000D01*
X1600000Y-9800000D02*
X1600000Y-43000000D01*
X7275000Y-12900000D02*
X10875000Y-12900000D01*
X10875000Y-16500000D01*
X7275000Y-16500000D01*
X7275000Y-12900000D01*
X51600000Y-43000000D02*
X51600000Y-9000000D01*
X43150000Y-10750000D02*
X43650000Y-10250000D01*
X51600000Y-9000000D02*
X6000000Y-8950000D01*
X32600000Y-13000000D02*
X32000000Y-13600000D01*
X51600000Y-43000000D02*
X44000000Y-43000000D01*
X33550000Y-15850000D02*
X34050000Y-15350000D01*
X33900000Y-10500000D02*
X37200000Y-10500000D01*
X37200000Y-12200000D01*
X33900000Y-12200000D01*
X33900000Y-10500000D01*
X7225000Y-17400000D02*
X10225000Y-17400000D01*
X10225000Y-19400000D01*
X7225000Y-19400000D01*
X7225000Y-17400000D01*
X33550000Y-15350000D02*
X36850000Y-15350000D01*
X36850000Y-18550000D01*
X33550000Y-18550000D01*
X33550000Y-15350000D01*
X43150000Y-10250000D02*
X46550000Y-10250000D01*
X46550000Y-13350000D01*
X43150000Y-13350000D01*
X43150000Y-10250000D01*
X45350000Y-15900000D02*
X48550000Y-15900000D01*
X48550000Y-17700000D01*
X45350000Y-17700000D01*
X45350000Y-15900000D01*
X10600000Y-17400000D02*
X13600000Y-17400000D01*
X13600000Y-19400000D01*
X10600000Y-19400000D01*
X10600000Y-17400000D01*
X22400000Y-12100000D02*
X24400000Y-12100000D01*
X24400000Y-15100000D01*
X22400000Y-15100000D01*
X22400000Y-12100000D01*
X38000000Y-15200000D02*
X39800000Y-15200000D01*
X39800000Y-18200000D01*
X38000000Y-18200000D01*
X38000000Y-15200000D01*
X16200000Y-10700000D02*
X18200000Y-10700000D01*
X18200000Y-13700000D01*
X16200000Y-13700000D01*
X16200000Y-10700000D01*
X15200000Y-10500000D02*
X15200000Y-12500000D01*
X45350000Y-13800000D02*
X48550000Y-13800000D01*
X48550000Y-15600000D01*
X45350000Y-15600000D01*
X45350000Y-13800000D01*
X1600000Y-43000000D02*
X13000000Y-43000000D01*
X25100000Y-12000000D02*
X28300000Y-12000000D01*
X28300000Y-19000000D01*
X25100000Y-19000000D01*
X25100000Y-12000000D01*
X54469048Y-7123866D02*
X55230953Y-7123866D01*
X49970112Y-1346009D02*
X50112969Y-1393628D01*
X50112969Y-1393628D02*
X50160588Y-1441247D01*
X50160588Y-1441247D02*
X50208207Y-1536485D01*
X50208207Y-1536485D02*
X50208207Y-1679342D01*
X50208207Y-1679342D02*
X50160588Y-1774580D01*
X50160588Y-1774580D02*
X50112969Y-1822200D01*
X50112969Y-1822200D02*
X50017731Y-1869819D01*
X50017731Y-1869819D02*
X49636779Y-1869819D01*
X49636779Y-1869819D02*
X49636779Y-869819D01*
X49636779Y-869819D02*
X49970112Y-869819D01*
X49970112Y-869819D02*
X50065350Y-917438D01*
X50065350Y-917438D02*
X50112969Y-965057D01*
X50112969Y-965057D02*
X50160588Y-1060295D01*
X50160588Y-1060295D02*
X50160588Y-1155533D01*
X50160588Y-1155533D02*
X50112969Y-1250771D01*
X50112969Y-1250771D02*
X50065350Y-1298390D01*
X50065350Y-1298390D02*
X49970112Y-1346009D01*
X49970112Y-1346009D02*
X49636779Y-1346009D01*
X50589160Y-1584104D02*
X51065350Y-1584104D01*
X50493922Y-1869819D02*
X50827255Y-869819D01*
X50827255Y-869819D02*
X51160588Y-1869819D01*
X51351065Y-869819D02*
X51922493Y-869819D01*
X51636779Y-1869819D02*
X51636779Y-869819D01*
X14846303Y-18774580D02*
X14808207Y-18822200D01*
X14808207Y-18822200D02*
X14693922Y-18869819D01*
X14693922Y-18869819D02*
X14617731Y-18869819D01*
X14617731Y-18869819D02*
X14503445Y-18822200D01*
X14503445Y-18822200D02*
X14427255Y-18726961D01*
X14427255Y-18726961D02*
X14389160Y-18631723D01*
X14389160Y-18631723D02*
X14351064Y-18441247D01*
X14351064Y-18441247D02*
X14351064Y-18298390D01*
X14351064Y-18298390D02*
X14389160Y-18107914D01*
X14389160Y-18107914D02*
X14427255Y-18012676D01*
X14427255Y-18012676D02*
X14503445Y-17917438D01*
X14503445Y-17917438D02*
X14617731Y-17869819D01*
X14617731Y-17869819D02*
X14693922Y-17869819D01*
X14693922Y-17869819D02*
X14808207Y-17917438D01*
X14808207Y-17917438D02*
X14846303Y-17965057D01*
X15189160Y-18869819D02*
X15189160Y-17869819D01*
X15189160Y-18346009D02*
X15646303Y-18346009D01*
X15646303Y-18869819D02*
X15646303Y-17869819D01*
X16446302Y-17917438D02*
X16370112Y-17869819D01*
X16370112Y-17869819D02*
X16255826Y-17869819D01*
X16255826Y-17869819D02*
X16141540Y-17917438D01*
X16141540Y-17917438D02*
X16065350Y-18012676D01*
X16065350Y-18012676D02*
X16027255Y-18107914D01*
X16027255Y-18107914D02*
X15989159Y-18298390D01*
X15989159Y-18298390D02*
X15989159Y-18441247D01*
X15989159Y-18441247D02*
X16027255Y-18631723D01*
X16027255Y-18631723D02*
X16065350Y-18726961D01*
X16065350Y-18726961D02*
X16141540Y-18822200D01*
X16141540Y-18822200D02*
X16255826Y-18869819D01*
X16255826Y-18869819D02*
X16332017Y-18869819D01*
X16332017Y-18869819D02*
X16446302Y-18822200D01*
X16446302Y-18822200D02*
X16484398Y-18774580D01*
X16484398Y-18774580D02*
X16484398Y-18441247D01*
X16484398Y-18441247D02*
X16332017Y-18441247D01*
X54519048Y-2473866D02*
X55280953Y-2473866D01*
X54900000Y-2854819D02*
X54900000Y-2092914D01*
X54621428Y-4362295D02*
X55078571Y-4362295D01*
X54849999Y-5162295D02*
X54849999Y-4362295D01*
X24899999Y-23721065D02*
X25042856Y-23768684D01*
X25042856Y-23768684D02*
X25090475Y-23816303D01*
X25090475Y-23816303D02*
X25138094Y-23911541D01*
X25138094Y-23911541D02*
X25138094Y-24054398D01*
X25138094Y-24054398D02*
X25090475Y-24149636D01*
X25090475Y-24149636D02*
X25042856Y-24197256D01*
X25042856Y-24197256D02*
X24947618Y-24244875D01*
X24947618Y-24244875D02*
X24566666Y-24244875D01*
X24566666Y-24244875D02*
X24566666Y-23244875D01*
X24566666Y-23244875D02*
X24899999Y-23244875D01*
X24899999Y-23244875D02*
X24995237Y-23292494D01*
X24995237Y-23292494D02*
X25042856Y-23340113D01*
X25042856Y-23340113D02*
X25090475Y-23435351D01*
X25090475Y-23435351D02*
X25090475Y-23530589D01*
X25090475Y-23530589D02*
X25042856Y-23625827D01*
X25042856Y-23625827D02*
X24995237Y-23673446D01*
X24995237Y-23673446D02*
X24899999Y-23721065D01*
X24899999Y-23721065D02*
X24566666Y-23721065D01*
X25519047Y-23959160D02*
X25995237Y-23959160D01*
X25423809Y-24244875D02*
X25757142Y-23244875D01*
X25757142Y-23244875D02*
X26090475Y-24244875D01*
X26280952Y-23244875D02*
X26852380Y-23244875D01*
X26566666Y-24244875D02*
X26566666Y-23244875D01*
X27042857Y-23244875D02*
X27614285Y-23244875D01*
X27328571Y-24244875D02*
X27328571Y-23244875D01*
X27947619Y-23721065D02*
X28280952Y-23721065D01*
X28423809Y-24244875D02*
X27947619Y-24244875D01*
X27947619Y-24244875D02*
X27947619Y-23244875D01*
X27947619Y-23244875D02*
X28423809Y-23244875D01*
X29423809Y-24244875D02*
X29090476Y-23768684D01*
X28852381Y-24244875D02*
X28852381Y-23244875D01*
X28852381Y-23244875D02*
X29233333Y-23244875D01*
X29233333Y-23244875D02*
X29328571Y-23292494D01*
X29328571Y-23292494D02*
X29376190Y-23340113D01*
X29376190Y-23340113D02*
X29423809Y-23435351D01*
X29423809Y-23435351D02*
X29423809Y-23578208D01*
X29423809Y-23578208D02*
X29376190Y-23673446D01*
X29376190Y-23673446D02*
X29328571Y-23721065D01*
X29328571Y-23721065D02*
X29233333Y-23768684D01*
X29233333Y-23768684D02*
X28852381Y-23768684D01*
X30042857Y-23768684D02*
X30042857Y-24244875D01*
X29709524Y-23244875D02*
X30042857Y-23768684D01*
X30042857Y-23768684D02*
X30376190Y-23244875D01*
X16566666Y-25854819D02*
X16090476Y-25854819D01*
X16090476Y-25854819D02*
X16090476Y-24854819D01*
X16900000Y-25854819D02*
X16900000Y-24854819D01*
X17376190Y-25854819D02*
X17376190Y-24854819D01*
X17376190Y-24854819D02*
X17757142Y-24854819D01*
X17757142Y-24854819D02*
X17852380Y-24902438D01*
X17852380Y-24902438D02*
X17899999Y-24950057D01*
X17899999Y-24950057D02*
X17947618Y-25045295D01*
X17947618Y-25045295D02*
X17947618Y-25188152D01*
X17947618Y-25188152D02*
X17899999Y-25283390D01*
X17899999Y-25283390D02*
X17852380Y-25331009D01*
X17852380Y-25331009D02*
X17757142Y-25378628D01*
X17757142Y-25378628D02*
X17376190Y-25378628D01*
X18566666Y-24854819D02*
X18757142Y-24854819D01*
X18757142Y-24854819D02*
X18852380Y-24902438D01*
X18852380Y-24902438D02*
X18947618Y-24997676D01*
X18947618Y-24997676D02*
X18995237Y-25188152D01*
X18995237Y-25188152D02*
X18995237Y-25521485D01*
X18995237Y-25521485D02*
X18947618Y-25711961D01*
X18947618Y-25711961D02*
X18852380Y-25807200D01*
X18852380Y-25807200D02*
X18757142Y-25854819D01*
X18757142Y-25854819D02*
X18566666Y-25854819D01*
X18566666Y-25854819D02*
X18471428Y-25807200D01*
X18471428Y-25807200D02*
X18376190Y-25711961D01*
X18376190Y-25711961D02*
X18328571Y-25521485D01*
X18328571Y-25521485D02*
X18328571Y-25188152D01*
X18328571Y-25188152D02*
X18376190Y-24997676D01*
X18376190Y-24997676D02*
X18471428Y-24902438D01*
X18471428Y-24902438D02*
X18566666Y-24854819D01*
X20090476Y-24854819D02*
X20709523Y-24854819D01*
X20709523Y-24854819D02*
X20376190Y-25235771D01*
X20376190Y-25235771D02*
X20519047Y-25235771D01*
X20519047Y-25235771D02*
X20614285Y-25283390D01*
X20614285Y-25283390D02*
X20661904Y-25331009D01*
X20661904Y-25331009D02*
X20709523Y-25426247D01*
X20709523Y-25426247D02*
X20709523Y-25664342D01*
X20709523Y-25664342D02*
X20661904Y-25759580D01*
X20661904Y-25759580D02*
X20614285Y-25807200D01*
X20614285Y-25807200D02*
X20519047Y-25854819D01*
X20519047Y-25854819D02*
X20233333Y-25854819D01*
X20233333Y-25854819D02*
X20138095Y-25807200D01*
X20138095Y-25807200D02*
X20090476Y-25759580D01*
X21138095Y-25759580D02*
X21185714Y-25807200D01*
X21185714Y-25807200D02*
X21138095Y-25854819D01*
X21138095Y-25854819D02*
X21090476Y-25807200D01*
X21090476Y-25807200D02*
X21138095Y-25759580D01*
X21138095Y-25759580D02*
X21138095Y-25854819D01*
X21519047Y-24854819D02*
X22185713Y-24854819D01*
X22185713Y-24854819D02*
X21757142Y-25854819D01*
X22423809Y-24854819D02*
X22757142Y-25854819D01*
X22757142Y-25854819D02*
X23090475Y-24854819D01*
X24709523Y-25854819D02*
X24138095Y-25854819D01*
X24423809Y-25854819D02*
X24423809Y-24854819D01*
X24423809Y-24854819D02*
X24328571Y-24997676D01*
X24328571Y-24997676D02*
X24233333Y-25092914D01*
X24233333Y-25092914D02*
X24138095Y-25140533D01*
X25328571Y-24854819D02*
X25423809Y-24854819D01*
X25423809Y-24854819D02*
X25519047Y-24902438D01*
X25519047Y-24902438D02*
X25566666Y-24950057D01*
X25566666Y-24950057D02*
X25614285Y-25045295D01*
X25614285Y-25045295D02*
X25661904Y-25235771D01*
X25661904Y-25235771D02*
X25661904Y-25473866D01*
X25661904Y-25473866D02*
X25614285Y-25664342D01*
X25614285Y-25664342D02*
X25566666Y-25759580D01*
X25566666Y-25759580D02*
X25519047Y-25807200D01*
X25519047Y-25807200D02*
X25423809Y-25854819D01*
X25423809Y-25854819D02*
X25328571Y-25854819D01*
X25328571Y-25854819D02*
X25233333Y-25807200D01*
X25233333Y-25807200D02*
X25185714Y-25759580D01*
X25185714Y-25759580D02*
X25138095Y-25664342D01*
X25138095Y-25664342D02*
X25090476Y-25473866D01*
X25090476Y-25473866D02*
X25090476Y-25235771D01*
X25090476Y-25235771D02*
X25138095Y-25045295D01*
X25138095Y-25045295D02*
X25185714Y-24950057D01*
X25185714Y-24950057D02*
X25233333Y-24902438D01*
X25233333Y-24902438D02*
X25328571Y-24854819D01*
X25995238Y-25854819D02*
X26519047Y-25188152D01*
X25995238Y-25188152D02*
X26519047Y-25854819D01*
X26804762Y-24854819D02*
X27423809Y-24854819D01*
X27423809Y-24854819D02*
X27090476Y-25235771D01*
X27090476Y-25235771D02*
X27233333Y-25235771D01*
X27233333Y-25235771D02*
X27328571Y-25283390D01*
X27328571Y-25283390D02*
X27376190Y-25331009D01*
X27376190Y-25331009D02*
X27423809Y-25426247D01*
X27423809Y-25426247D02*
X27423809Y-25664342D01*
X27423809Y-25664342D02*
X27376190Y-25759580D01*
X27376190Y-25759580D02*
X27328571Y-25807200D01*
X27328571Y-25807200D02*
X27233333Y-25854819D01*
X27233333Y-25854819D02*
X26947619Y-25854819D01*
X26947619Y-25854819D02*
X26852381Y-25807200D01*
X26852381Y-25807200D02*
X26804762Y-25759580D01*
X28280952Y-25188152D02*
X28280952Y-25854819D01*
X28042857Y-24807200D02*
X27804762Y-25521485D01*
X27804762Y-25521485D02*
X28423809Y-25521485D01*
X28709524Y-25854819D02*
X29233333Y-25188152D01*
X28709524Y-25188152D02*
X29233333Y-25854819D01*
X30090476Y-24854819D02*
X29614286Y-24854819D01*
X29614286Y-24854819D02*
X29566667Y-25331009D01*
X29566667Y-25331009D02*
X29614286Y-25283390D01*
X29614286Y-25283390D02*
X29709524Y-25235771D01*
X29709524Y-25235771D02*
X29947619Y-25235771D01*
X29947619Y-25235771D02*
X30042857Y-25283390D01*
X30042857Y-25283390D02*
X30090476Y-25331009D01*
X30090476Y-25331009D02*
X30138095Y-25426247D01*
X30138095Y-25426247D02*
X30138095Y-25664342D01*
X30138095Y-25664342D02*
X30090476Y-25759580D01*
X30090476Y-25759580D02*
X30042857Y-25807200D01*
X30042857Y-25807200D02*
X29947619Y-25854819D01*
X29947619Y-25854819D02*
X29709524Y-25854819D01*
X29709524Y-25854819D02*
X29614286Y-25807200D01*
X29614286Y-25807200D02*
X29566667Y-25759580D01*
X30757143Y-24854819D02*
X30852381Y-24854819D01*
X30852381Y-24854819D02*
X30947619Y-24902438D01*
X30947619Y-24902438D02*
X30995238Y-24950057D01*
X30995238Y-24950057D02*
X31042857Y-25045295D01*
X31042857Y-25045295D02*
X31090476Y-25235771D01*
X31090476Y-25235771D02*
X31090476Y-25473866D01*
X31090476Y-25473866D02*
X31042857Y-25664342D01*
X31042857Y-25664342D02*
X30995238Y-25759580D01*
X30995238Y-25759580D02*
X30947619Y-25807200D01*
X30947619Y-25807200D02*
X30852381Y-25854819D01*
X30852381Y-25854819D02*
X30757143Y-25854819D01*
X30757143Y-25854819D02*
X30661905Y-25807200D01*
X30661905Y-25807200D02*
X30614286Y-25759580D01*
X30614286Y-25759580D02*
X30566667Y-25664342D01*
X30566667Y-25664342D02*
X30519048Y-25473866D01*
X30519048Y-25473866D02*
X30519048Y-25235771D01*
X30519048Y-25235771D02*
X30566667Y-25045295D01*
X30566667Y-25045295D02*
X30614286Y-24950057D01*
X30614286Y-24950057D02*
X30661905Y-24902438D01*
X30661905Y-24902438D02*
X30757143Y-24854819D01*
X32233334Y-24950057D02*
X32280953Y-24902438D01*
X32280953Y-24902438D02*
X32376191Y-24854819D01*
X32376191Y-24854819D02*
X32614286Y-24854819D01*
X32614286Y-24854819D02*
X32709524Y-24902438D01*
X32709524Y-24902438D02*
X32757143Y-24950057D01*
X32757143Y-24950057D02*
X32804762Y-25045295D01*
X32804762Y-25045295D02*
X32804762Y-25140533D01*
X32804762Y-25140533D02*
X32757143Y-25283390D01*
X32757143Y-25283390D02*
X32185715Y-25854819D01*
X32185715Y-25854819D02*
X32804762Y-25854819D01*
X33423810Y-24854819D02*
X33519048Y-24854819D01*
X33519048Y-24854819D02*
X33614286Y-24902438D01*
X33614286Y-24902438D02*
X33661905Y-24950057D01*
X33661905Y-24950057D02*
X33709524Y-25045295D01*
X33709524Y-25045295D02*
X33757143Y-25235771D01*
X33757143Y-25235771D02*
X33757143Y-25473866D01*
X33757143Y-25473866D02*
X33709524Y-25664342D01*
X33709524Y-25664342D02*
X33661905Y-25759580D01*
X33661905Y-25759580D02*
X33614286Y-25807200D01*
X33614286Y-25807200D02*
X33519048Y-25854819D01*
X33519048Y-25854819D02*
X33423810Y-25854819D01*
X33423810Y-25854819D02*
X33328572Y-25807200D01*
X33328572Y-25807200D02*
X33280953Y-25759580D01*
X33280953Y-25759580D02*
X33233334Y-25664342D01*
X33233334Y-25664342D02*
X33185715Y-25473866D01*
X33185715Y-25473866D02*
X33185715Y-25235771D01*
X33185715Y-25235771D02*
X33233334Y-25045295D01*
X33233334Y-25045295D02*
X33280953Y-24950057D01*
X33280953Y-24950057D02*
X33328572Y-24902438D01*
X33328572Y-24902438D02*
X33423810Y-24854819D01*
X34376191Y-24854819D02*
X34471429Y-24854819D01*
X34471429Y-24854819D02*
X34566667Y-24902438D01*
X34566667Y-24902438D02*
X34614286Y-24950057D01*
X34614286Y-24950057D02*
X34661905Y-25045295D01*
X34661905Y-25045295D02*
X34709524Y-25235771D01*
X34709524Y-25235771D02*
X34709524Y-25473866D01*
X34709524Y-25473866D02*
X34661905Y-25664342D01*
X34661905Y-25664342D02*
X34614286Y-25759580D01*
X34614286Y-25759580D02*
X34566667Y-25807200D01*
X34566667Y-25807200D02*
X34471429Y-25854819D01*
X34471429Y-25854819D02*
X34376191Y-25854819D01*
X34376191Y-25854819D02*
X34280953Y-25807200D01*
X34280953Y-25807200D02*
X34233334Y-25759580D01*
X34233334Y-25759580D02*
X34185715Y-25664342D01*
X34185715Y-25664342D02*
X34138096Y-25473866D01*
X34138096Y-25473866D02*
X34138096Y-25235771D01*
X34138096Y-25235771D02*
X34185715Y-25045295D01*
X34185715Y-25045295D02*
X34233334Y-24950057D01*
X34233334Y-24950057D02*
X34280953Y-24902438D01*
X34280953Y-24902438D02*
X34376191Y-24854819D01*
X35328572Y-24854819D02*
X35423810Y-24854819D01*
X35423810Y-24854819D02*
X35519048Y-24902438D01*
X35519048Y-24902438D02*
X35566667Y-24950057D01*
X35566667Y-24950057D02*
X35614286Y-25045295D01*
X35614286Y-25045295D02*
X35661905Y-25235771D01*
X35661905Y-25235771D02*
X35661905Y-25473866D01*
X35661905Y-25473866D02*
X35614286Y-25664342D01*
X35614286Y-25664342D02*
X35566667Y-25759580D01*
X35566667Y-25759580D02*
X35519048Y-25807200D01*
X35519048Y-25807200D02*
X35423810Y-25854819D01*
X35423810Y-25854819D02*
X35328572Y-25854819D01*
X35328572Y-25854819D02*
X35233334Y-25807200D01*
X35233334Y-25807200D02*
X35185715Y-25759580D01*
X35185715Y-25759580D02*
X35138096Y-25664342D01*
X35138096Y-25664342D02*
X35090477Y-25473866D01*
X35090477Y-25473866D02*
X35090477Y-25235771D01*
X35090477Y-25235771D02*
X35138096Y-25045295D01*
X35138096Y-25045295D02*
X35185715Y-24950057D01*
X35185715Y-24950057D02*
X35233334Y-24902438D01*
X35233334Y-24902438D02*
X35328572Y-24854819D01*
X36090477Y-25854819D02*
X36090477Y-25188152D01*
X36090477Y-25283390D02*
X36138096Y-25235771D01*
X36138096Y-25235771D02*
X36233334Y-25188152D01*
X36233334Y-25188152D02*
X36376191Y-25188152D01*
X36376191Y-25188152D02*
X36471429Y-25235771D01*
X36471429Y-25235771D02*
X36519048Y-25331009D01*
X36519048Y-25331009D02*
X36519048Y-25854819D01*
X36519048Y-25331009D02*
X36566667Y-25235771D01*
X36566667Y-25235771D02*
X36661905Y-25188152D01*
X36661905Y-25188152D02*
X36804762Y-25188152D01*
X36804762Y-25188152D02*
X36900001Y-25235771D01*
X36900001Y-25235771D02*
X36947620Y-25331009D01*
X36947620Y-25331009D02*
X36947620Y-25854819D01*
X37376191Y-25569104D02*
X37852381Y-25569104D01*
X37280953Y-25854819D02*
X37614286Y-24854819D01*
X37614286Y-24854819D02*
X37947619Y-25854819D01*
X38280953Y-25854819D02*
X38280953Y-24854819D01*
X38709524Y-25854819D02*
X38709524Y-25331009D01*
X38709524Y-25331009D02*
X38661905Y-25235771D01*
X38661905Y-25235771D02*
X38566667Y-25188152D01*
X38566667Y-25188152D02*
X38423810Y-25188152D01*
X38423810Y-25188152D02*
X38328572Y-25235771D01*
X38328572Y-25235771D02*
X38280953Y-25283390D01*
X23447619Y-27464763D02*
X23447619Y-26464763D01*
X23447619Y-26464763D02*
X23828571Y-26464763D01*
X23828571Y-26464763D02*
X23923809Y-26512382D01*
X23923809Y-26512382D02*
X23971428Y-26560001D01*
X23971428Y-26560001D02*
X24019047Y-26655239D01*
X24019047Y-26655239D02*
X24019047Y-26798096D01*
X24019047Y-26798096D02*
X23971428Y-26893334D01*
X23971428Y-26893334D02*
X23923809Y-26940953D01*
X23923809Y-26940953D02*
X23828571Y-26988572D01*
X23828571Y-26988572D02*
X23447619Y-26988572D01*
X25019047Y-27464763D02*
X24685714Y-26988572D01*
X24447619Y-27464763D02*
X24447619Y-26464763D01*
X24447619Y-26464763D02*
X24828571Y-26464763D01*
X24828571Y-26464763D02*
X24923809Y-26512382D01*
X24923809Y-26512382D02*
X24971428Y-26560001D01*
X24971428Y-26560001D02*
X25019047Y-26655239D01*
X25019047Y-26655239D02*
X25019047Y-26798096D01*
X25019047Y-26798096D02*
X24971428Y-26893334D01*
X24971428Y-26893334D02*
X24923809Y-26940953D01*
X24923809Y-26940953D02*
X24828571Y-26988572D01*
X24828571Y-26988572D02*
X24447619Y-26988572D01*
X25638095Y-26464763D02*
X25828571Y-26464763D01*
X25828571Y-26464763D02*
X25923809Y-26512382D01*
X25923809Y-26512382D02*
X26019047Y-26607620D01*
X26019047Y-26607620D02*
X26066666Y-26798096D01*
X26066666Y-26798096D02*
X26066666Y-27131429D01*
X26066666Y-27131429D02*
X26019047Y-27321905D01*
X26019047Y-27321905D02*
X25923809Y-27417144D01*
X25923809Y-27417144D02*
X25828571Y-27464763D01*
X25828571Y-27464763D02*
X25638095Y-27464763D01*
X25638095Y-27464763D02*
X25542857Y-27417144D01*
X25542857Y-27417144D02*
X25447619Y-27321905D01*
X25447619Y-27321905D02*
X25400000Y-27131429D01*
X25400000Y-27131429D02*
X25400000Y-26798096D01*
X25400000Y-26798096D02*
X25447619Y-26607620D01*
X25447619Y-26607620D02*
X25542857Y-26512382D01*
X25542857Y-26512382D02*
X25638095Y-26464763D01*
X26352381Y-26464763D02*
X26923809Y-26464763D01*
X26638095Y-27464763D02*
X26638095Y-26464763D01*
X27257143Y-26940953D02*
X27590476Y-26940953D01*
X27733333Y-27464763D02*
X27257143Y-27464763D01*
X27257143Y-27464763D02*
X27257143Y-26464763D01*
X27257143Y-26464763D02*
X27733333Y-26464763D01*
X28733333Y-27369524D02*
X28685714Y-27417144D01*
X28685714Y-27417144D02*
X28542857Y-27464763D01*
X28542857Y-27464763D02*
X28447619Y-27464763D01*
X28447619Y-27464763D02*
X28304762Y-27417144D01*
X28304762Y-27417144D02*
X28209524Y-27321905D01*
X28209524Y-27321905D02*
X28161905Y-27226667D01*
X28161905Y-27226667D02*
X28114286Y-27036191D01*
X28114286Y-27036191D02*
X28114286Y-26893334D01*
X28114286Y-26893334D02*
X28161905Y-26702858D01*
X28161905Y-26702858D02*
X28209524Y-26607620D01*
X28209524Y-26607620D02*
X28304762Y-26512382D01*
X28304762Y-26512382D02*
X28447619Y-26464763D01*
X28447619Y-26464763D02*
X28542857Y-26464763D01*
X28542857Y-26464763D02*
X28685714Y-26512382D01*
X28685714Y-26512382D02*
X28733333Y-26560001D01*
X29019048Y-26464763D02*
X29590476Y-26464763D01*
X29304762Y-27464763D02*
X29304762Y-26464763D01*
X29923810Y-26940953D02*
X30257143Y-26940953D01*
X30400000Y-27464763D02*
X29923810Y-27464763D01*
X29923810Y-27464763D02*
X29923810Y-26464763D01*
X29923810Y-26464763D02*
X30400000Y-26464763D01*
X30828572Y-27464763D02*
X30828572Y-26464763D01*
X30828572Y-26464763D02*
X31066667Y-26464763D01*
X31066667Y-26464763D02*
X31209524Y-26512382D01*
X31209524Y-26512382D02*
X31304762Y-26607620D01*
X31304762Y-26607620D02*
X31352381Y-26702858D01*
X31352381Y-26702858D02*
X31400000Y-26893334D01*
X31400000Y-26893334D02*
X31400000Y-27036191D01*
X31400000Y-27036191D02*
X31352381Y-27226667D01*
X31352381Y-27226667D02*
X31304762Y-27321905D01*
X31304762Y-27321905D02*
X31209524Y-27417144D01*
X31209524Y-27417144D02*
X31066667Y-27464763D01*
X31066667Y-27464763D02*
X30828572Y-27464763D01*
X34488095Y-16404819D02*
X34488095Y-17214342D01*
X34488095Y-17214342D02*
X34535714Y-17309580D01*
X34535714Y-17309580D02*
X34583333Y-17357200D01*
X34583333Y-17357200D02*
X34678571Y-17404819D01*
X34678571Y-17404819D02*
X34869047Y-17404819D01*
X34869047Y-17404819D02*
X34964285Y-17357200D01*
X34964285Y-17357200D02*
X35011904Y-17309580D01*
X35011904Y-17309580D02*
X35059523Y-17214342D01*
X35059523Y-17214342D02*
X35059523Y-16404819D01*
X35440476Y-16404819D02*
X36107142Y-16404819D01*
X36107142Y-16404819D02*
X35678571Y-17404819D01*
X30038095Y-11454819D02*
X30038095Y-12264342D01*
X30038095Y-12264342D02*
X30085714Y-12359580D01*
X30085714Y-12359580D02*
X30133333Y-12407200D01*
X30133333Y-12407200D02*
X30228571Y-12454819D01*
X30228571Y-12454819D02*
X30419047Y-12454819D01*
X30419047Y-12454819D02*
X30514285Y-12407200D01*
X30514285Y-12407200D02*
X30561904Y-12359580D01*
X30561904Y-12359580D02*
X30609523Y-12264342D01*
X30609523Y-12264342D02*
X30609523Y-11454819D01*
X31514285Y-11788152D02*
X31514285Y-12454819D01*
X31276190Y-11407200D02*
X31038095Y-12121485D01*
X31038095Y-12121485D02*
X31657142Y-12121485D01*
X44100595Y-11354819D02*
X44100595Y-12164342D01*
X44100595Y-12164342D02*
X44148214Y-12259580D01*
X44148214Y-12259580D02*
X44195833Y-12307200D01*
X44195833Y-12307200D02*
X44291071Y-12354819D01*
X44291071Y-12354819D02*
X44481547Y-12354819D01*
X44481547Y-12354819D02*
X44576785Y-12307200D01*
X44576785Y-12307200D02*
X44624404Y-12259580D01*
X44624404Y-12259580D02*
X44672023Y-12164342D01*
X44672023Y-12164342D02*
X44672023Y-11354819D01*
X45624404Y-11354819D02*
X45148214Y-11354819D01*
X45148214Y-11354819D02*
X45100595Y-11831009D01*
X45100595Y-11831009D02*
X45148214Y-11783390D01*
X45148214Y-11783390D02*
X45243452Y-11735771D01*
X45243452Y-11735771D02*
X45481547Y-11735771D01*
X45481547Y-11735771D02*
X45576785Y-11783390D01*
X45576785Y-11783390D02*
X45624404Y-11831009D01*
X45624404Y-11831009D02*
X45672023Y-11926247D01*
X45672023Y-11926247D02*
X45672023Y-12164342D01*
X45672023Y-12164342D02*
X45624404Y-12259580D01*
X45624404Y-12259580D02*
X45576785Y-12307200D01*
X45576785Y-12307200D02*
X45481547Y-12354819D01*
X45481547Y-12354819D02*
X45243452Y-12354819D01*
X45243452Y-12354819D02*
X45148214Y-12307200D01*
X45148214Y-12307200D02*
X45100595Y-12259580D01*
X40442261Y-13000057D02*
X40347023Y-12952438D01*
X40347023Y-12952438D02*
X40251785Y-12857200D01*
X40251785Y-12857200D02*
X40108928Y-12714342D01*
X40108928Y-12714342D02*
X40013690Y-12666723D01*
X40013690Y-12666723D02*
X39918452Y-12666723D01*
X39966071Y-12904819D02*
X39870833Y-12857200D01*
X39870833Y-12857200D02*
X39775595Y-12761961D01*
X39775595Y-12761961D02*
X39727976Y-12571485D01*
X39727976Y-12571485D02*
X39727976Y-12238152D01*
X39727976Y-12238152D02*
X39775595Y-12047676D01*
X39775595Y-12047676D02*
X39870833Y-11952438D01*
X39870833Y-11952438D02*
X39966071Y-11904819D01*
X39966071Y-11904819D02*
X40156547Y-11904819D01*
X40156547Y-11904819D02*
X40251785Y-11952438D01*
X40251785Y-11952438D02*
X40347023Y-12047676D01*
X40347023Y-12047676D02*
X40394642Y-12238152D01*
X40394642Y-12238152D02*
X40394642Y-12571485D01*
X40394642Y-12571485D02*
X40347023Y-12761961D01*
X40347023Y-12761961D02*
X40251785Y-12857200D01*
X40251785Y-12857200D02*
X40156547Y-12904819D01*
X40156547Y-12904819D02*
X39966071Y-12904819D01*
X40775595Y-12000057D02*
X40823214Y-11952438D01*
X40823214Y-11952438D02*
X40918452Y-11904819D01*
X40918452Y-11904819D02*
X41156547Y-11904819D01*
X41156547Y-11904819D02*
X41251785Y-11952438D01*
X41251785Y-11952438D02*
X41299404Y-12000057D01*
X41299404Y-12000057D02*
X41347023Y-12095295D01*
X41347023Y-12095295D02*
X41347023Y-12190533D01*
X41347023Y-12190533D02*
X41299404Y-12333390D01*
X41299404Y-12333390D02*
X40727976Y-12904819D01*
X40727976Y-12904819D02*
X41347023Y-12904819D01*
X13204761Y-15100057D02*
X13109523Y-15052438D01*
X13109523Y-15052438D02*
X13014285Y-14957200D01*
X13014285Y-14957200D02*
X12871428Y-14814342D01*
X12871428Y-14814342D02*
X12776190Y-14766723D01*
X12776190Y-14766723D02*
X12680952Y-14766723D01*
X12728571Y-15004819D02*
X12633333Y-14957200D01*
X12633333Y-14957200D02*
X12538095Y-14861961D01*
X12538095Y-14861961D02*
X12490476Y-14671485D01*
X12490476Y-14671485D02*
X12490476Y-14338152D01*
X12490476Y-14338152D02*
X12538095Y-14147676D01*
X12538095Y-14147676D02*
X12633333Y-14052438D01*
X12633333Y-14052438D02*
X12728571Y-14004819D01*
X12728571Y-14004819D02*
X12919047Y-14004819D01*
X12919047Y-14004819D02*
X13014285Y-14052438D01*
X13014285Y-14052438D02*
X13109523Y-14147676D01*
X13109523Y-14147676D02*
X13157142Y-14338152D01*
X13157142Y-14338152D02*
X13157142Y-14671485D01*
X13157142Y-14671485D02*
X13109523Y-14861961D01*
X13109523Y-14861961D02*
X13014285Y-14957200D01*
X13014285Y-14957200D02*
X12919047Y-15004819D01*
X12919047Y-15004819D02*
X12728571Y-15004819D01*
X14109523Y-15004819D02*
X13538095Y-15004819D01*
X13823809Y-15004819D02*
X13823809Y-14004819D01*
X13823809Y-14004819D02*
X13728571Y-14147676D01*
X13728571Y-14147676D02*
X13633333Y-14242914D01*
X13633333Y-14242914D02*
X13538095Y-14290533D01*
X27104819Y-16338094D02*
X26104819Y-16338094D01*
X26104819Y-16338094D02*
X26104819Y-16099999D01*
X26104819Y-16099999D02*
X26152438Y-15957142D01*
X26152438Y-15957142D02*
X26247676Y-15861904D01*
X26247676Y-15861904D02*
X26342914Y-15814285D01*
X26342914Y-15814285D02*
X26533390Y-15766666D01*
X26533390Y-15766666D02*
X26676247Y-15766666D01*
X26676247Y-15766666D02*
X26866723Y-15814285D01*
X26866723Y-15814285D02*
X26961961Y-15861904D01*
X26961961Y-15861904D02*
X27057200Y-15957142D01*
X27057200Y-15957142D02*
X27104819Y-16099999D01*
X27104819Y-16099999D02*
X27104819Y-16338094D01*
X26200057Y-15385713D02*
X26152438Y-15338094D01*
X26152438Y-15338094D02*
X26104819Y-15242856D01*
X26104819Y-15242856D02*
X26104819Y-15004761D01*
X26104819Y-15004761D02*
X26152438Y-14909523D01*
X26152438Y-14909523D02*
X26200057Y-14861904D01*
X26200057Y-14861904D02*
X26295295Y-14814285D01*
X26295295Y-14814285D02*
X26390533Y-14814285D01*
X26390533Y-14814285D02*
X26533390Y-14861904D01*
X26533390Y-14861904D02*
X27104819Y-15433332D01*
X27104819Y-15433332D02*
X27104819Y-14814285D01*
X46683333Y-15059580D02*
X46635714Y-15107200D01*
X46635714Y-15107200D02*
X46492857Y-15154819D01*
X46492857Y-15154819D02*
X46397619Y-15154819D01*
X46397619Y-15154819D02*
X46254762Y-15107200D01*
X46254762Y-15107200D02*
X46159524Y-15011961D01*
X46159524Y-15011961D02*
X46111905Y-14916723D01*
X46111905Y-14916723D02*
X46064286Y-14726247D01*
X46064286Y-14726247D02*
X46064286Y-14583390D01*
X46064286Y-14583390D02*
X46111905Y-14392914D01*
X46111905Y-14392914D02*
X46159524Y-14297676D01*
X46159524Y-14297676D02*
X46254762Y-14202438D01*
X46254762Y-14202438D02*
X46397619Y-14154819D01*
X46397619Y-14154819D02*
X46492857Y-14154819D01*
X46492857Y-14154819D02*
X46635714Y-14202438D01*
X46635714Y-14202438D02*
X46683333Y-14250057D01*
X47588095Y-14154819D02*
X47111905Y-14154819D01*
X47111905Y-14154819D02*
X47064286Y-14631009D01*
X47064286Y-14631009D02*
X47111905Y-14583390D01*
X47111905Y-14583390D02*
X47207143Y-14535771D01*
X47207143Y-14535771D02*
X47445238Y-14535771D01*
X47445238Y-14535771D02*
X47540476Y-14583390D01*
X47540476Y-14583390D02*
X47588095Y-14631009D01*
X47588095Y-14631009D02*
X47635714Y-14726247D01*
X47635714Y-14726247D02*
X47635714Y-14964342D01*
X47635714Y-14964342D02*
X47588095Y-15059580D01*
X47588095Y-15059580D02*
X47540476Y-15107200D01*
X47540476Y-15107200D02*
X47445238Y-15154819D01*
X47445238Y-15154819D02*
X47207143Y-15154819D01*
X47207143Y-15154819D02*
X47111905Y-15107200D01*
X47111905Y-15107200D02*
X47064286Y-15059580D01*
X8338095Y-14154819D02*
X8338095Y-14964342D01*
X8338095Y-14964342D02*
X8385714Y-15059580D01*
X8385714Y-15059580D02*
X8433333Y-15107200D01*
X8433333Y-15107200D02*
X8528571Y-15154819D01*
X8528571Y-15154819D02*
X8719047Y-15154819D01*
X8719047Y-15154819D02*
X8814285Y-15107200D01*
X8814285Y-15107200D02*
X8861904Y-15059580D01*
X8861904Y-15059580D02*
X8909523Y-14964342D01*
X8909523Y-14964342D02*
X8909523Y-14154819D01*
X9814285Y-14154819D02*
X9623809Y-14154819D01*
X9623809Y-14154819D02*
X9528571Y-14202438D01*
X9528571Y-14202438D02*
X9480952Y-14250057D01*
X9480952Y-14250057D02*
X9385714Y-14392914D01*
X9385714Y-14392914D02*
X9338095Y-14583390D01*
X9338095Y-14583390D02*
X9338095Y-14964342D01*
X9338095Y-14964342D02*
X9385714Y-15059580D01*
X9385714Y-15059580D02*
X9433333Y-15107200D01*
X9433333Y-15107200D02*
X9528571Y-15154819D01*
X9528571Y-15154819D02*
X9719047Y-15154819D01*
X9719047Y-15154819D02*
X9814285Y-15107200D01*
X9814285Y-15107200D02*
X9861904Y-15059580D01*
X9861904Y-15059580D02*
X9909523Y-14964342D01*
X9909523Y-14964342D02*
X9909523Y-14726247D01*
X9909523Y-14726247D02*
X9861904Y-14631009D01*
X9861904Y-14631009D02*
X9814285Y-14583390D01*
X9814285Y-14583390D02*
X9719047Y-14535771D01*
X9719047Y-14535771D02*
X9528571Y-14535771D01*
X9528571Y-14535771D02*
X9433333Y-14583390D01*
X9433333Y-14583390D02*
X9385714Y-14631009D01*
X9385714Y-14631009D02*
X9338095Y-14726247D01*
X32309580Y-16866666D02*
X32357200Y-16914285D01*
X32357200Y-16914285D02*
X32404819Y-17057142D01*
X32404819Y-17057142D02*
X32404819Y-17152380D01*
X32404819Y-17152380D02*
X32357200Y-17295237D01*
X32357200Y-17295237D02*
X32261961Y-17390475D01*
X32261961Y-17390475D02*
X32166723Y-17438094D01*
X32166723Y-17438094D02*
X31976247Y-17485713D01*
X31976247Y-17485713D02*
X31833390Y-17485713D01*
X31833390Y-17485713D02*
X31642914Y-17438094D01*
X31642914Y-17438094D02*
X31547676Y-17390475D01*
X31547676Y-17390475D02*
X31452438Y-17295237D01*
X31452438Y-17295237D02*
X31404819Y-17152380D01*
X31404819Y-17152380D02*
X31404819Y-17057142D01*
X31404819Y-17057142D02*
X31452438Y-16914285D01*
X31452438Y-16914285D02*
X31500057Y-16866666D01*
X31404819Y-16533332D02*
X31404819Y-15866666D01*
X31404819Y-15866666D02*
X32404819Y-16295237D01*
X8533333Y-18759580D02*
X8485714Y-18807200D01*
X8485714Y-18807200D02*
X8342857Y-18854819D01*
X8342857Y-18854819D02*
X8247619Y-18854819D01*
X8247619Y-18854819D02*
X8104762Y-18807200D01*
X8104762Y-18807200D02*
X8009524Y-18711961D01*
X8009524Y-18711961D02*
X7961905Y-18616723D01*
X7961905Y-18616723D02*
X7914286Y-18426247D01*
X7914286Y-18426247D02*
X7914286Y-18283390D01*
X7914286Y-18283390D02*
X7961905Y-18092914D01*
X7961905Y-18092914D02*
X8009524Y-17997676D01*
X8009524Y-17997676D02*
X8104762Y-17902438D01*
X8104762Y-17902438D02*
X8247619Y-17854819D01*
X8247619Y-17854819D02*
X8342857Y-17854819D01*
X8342857Y-17854819D02*
X8485714Y-17902438D01*
X8485714Y-17902438D02*
X8533333Y-17950057D01*
X9390476Y-17854819D02*
X9200000Y-17854819D01*
X9200000Y-17854819D02*
X9104762Y-17902438D01*
X9104762Y-17902438D02*
X9057143Y-17950057D01*
X9057143Y-17950057D02*
X8961905Y-18092914D01*
X8961905Y-18092914D02*
X8914286Y-18283390D01*
X8914286Y-18283390D02*
X8914286Y-18664342D01*
X8914286Y-18664342D02*
X8961905Y-18759580D01*
X8961905Y-18759580D02*
X9009524Y-18807200D01*
X9009524Y-18807200D02*
X9104762Y-18854819D01*
X9104762Y-18854819D02*
X9295238Y-18854819D01*
X9295238Y-18854819D02*
X9390476Y-18807200D01*
X9390476Y-18807200D02*
X9438095Y-18759580D01*
X9438095Y-18759580D02*
X9485714Y-18664342D01*
X9485714Y-18664342D02*
X9485714Y-18426247D01*
X9485714Y-18426247D02*
X9438095Y-18331009D01*
X9438095Y-18331009D02*
X9390476Y-18283390D01*
X9390476Y-18283390D02*
X9295238Y-18235771D01*
X9295238Y-18235771D02*
X9104762Y-18235771D01*
X9104762Y-18235771D02*
X9009524Y-18283390D01*
X9009524Y-18283390D02*
X8961905Y-18331009D01*
X8961905Y-18331009D02*
X8914286Y-18426247D01*
X19313095Y-15654819D02*
X19313095Y-16464342D01*
X19313095Y-16464342D02*
X19360714Y-16559580D01*
X19360714Y-16559580D02*
X19408333Y-16607200D01*
X19408333Y-16607200D02*
X19503571Y-16654819D01*
X19503571Y-16654819D02*
X19694047Y-16654819D01*
X19694047Y-16654819D02*
X19789285Y-16607200D01*
X19789285Y-16607200D02*
X19836904Y-16559580D01*
X19836904Y-16559580D02*
X19884523Y-16464342D01*
X19884523Y-16464342D02*
X19884523Y-15654819D01*
X20884523Y-16654819D02*
X20313095Y-16654819D01*
X20598809Y-16654819D02*
X20598809Y-15654819D01*
X20598809Y-15654819D02*
X20503571Y-15797676D01*
X20503571Y-15797676D02*
X20408333Y-15892914D01*
X20408333Y-15892914D02*
X20313095Y-15940533D01*
X3066666Y-9854819D02*
X3066666Y-10569104D01*
X3066666Y-10569104D02*
X3019047Y-10711961D01*
X3019047Y-10711961D02*
X2923809Y-10807200D01*
X2923809Y-10807200D02*
X2780952Y-10854819D01*
X2780952Y-10854819D02*
X2685714Y-10854819D01*
X4066666Y-10854819D02*
X3495238Y-10854819D01*
X3780952Y-10854819D02*
X3780952Y-9854819D01*
X3780952Y-9854819D02*
X3685714Y-9997676D01*
X3685714Y-9997676D02*
X3590476Y-10092914D01*
X3590476Y-10092914D02*
X3495238Y-10140533D01*
X23954819Y-13666666D02*
X23478628Y-13999999D01*
X23954819Y-14238094D02*
X22954819Y-14238094D01*
X22954819Y-14238094D02*
X22954819Y-13857142D01*
X22954819Y-13857142D02*
X23002438Y-13761904D01*
X23002438Y-13761904D02*
X23050057Y-13714285D01*
X23050057Y-13714285D02*
X23145295Y-13666666D01*
X23145295Y-13666666D02*
X23288152Y-13666666D01*
X23288152Y-13666666D02*
X23383390Y-13714285D01*
X23383390Y-13714285D02*
X23431009Y-13761904D01*
X23431009Y-13761904D02*
X23478628Y-13857142D01*
X23478628Y-13857142D02*
X23478628Y-14238094D01*
X23954819Y-12714285D02*
X23954819Y-13285713D01*
X23954819Y-12999999D02*
X22954819Y-12999999D01*
X22954819Y-12999999D02*
X23097676Y-13095237D01*
X23097676Y-13095237D02*
X23192914Y-13190475D01*
X23192914Y-13190475D02*
X23240533Y-13285713D01*
X23854819Y-17266666D02*
X23378628Y-17599999D01*
X23854819Y-17838094D02*
X22854819Y-17838094D01*
X22854819Y-17838094D02*
X22854819Y-17457142D01*
X22854819Y-17457142D02*
X22902438Y-17361904D01*
X22902438Y-17361904D02*
X22950057Y-17314285D01*
X22950057Y-17314285D02*
X23045295Y-17266666D01*
X23045295Y-17266666D02*
X23188152Y-17266666D01*
X23188152Y-17266666D02*
X23283390Y-17314285D01*
X23283390Y-17314285D02*
X23331009Y-17361904D01*
X23331009Y-17361904D02*
X23378628Y-17457142D01*
X23378628Y-17457142D02*
X23378628Y-17838094D01*
X23283390Y-16695237D02*
X23235771Y-16790475D01*
X23235771Y-16790475D02*
X23188152Y-16838094D01*
X23188152Y-16838094D02*
X23092914Y-16885713D01*
X23092914Y-16885713D02*
X23045295Y-16885713D01*
X23045295Y-16885713D02*
X22950057Y-16838094D01*
X22950057Y-16838094D02*
X22902438Y-16790475D01*
X22902438Y-16790475D02*
X22854819Y-16695237D01*
X22854819Y-16695237D02*
X22854819Y-16504761D01*
X22854819Y-16504761D02*
X22902438Y-16409523D01*
X22902438Y-16409523D02*
X22950057Y-16361904D01*
X22950057Y-16361904D02*
X23045295Y-16314285D01*
X23045295Y-16314285D02*
X23092914Y-16314285D01*
X23092914Y-16314285D02*
X23188152Y-16361904D01*
X23188152Y-16361904D02*
X23235771Y-16409523D01*
X23235771Y-16409523D02*
X23283390Y-16504761D01*
X23283390Y-16504761D02*
X23283390Y-16695237D01*
X23283390Y-16695237D02*
X23331009Y-16790475D01*
X23331009Y-16790475D02*
X23378628Y-16838094D01*
X23378628Y-16838094D02*
X23473866Y-16885713D01*
X23473866Y-16885713D02*
X23664342Y-16885713D01*
X23664342Y-16885713D02*
X23759580Y-16838094D01*
X23759580Y-16838094D02*
X23807200Y-16790475D01*
X23807200Y-16790475D02*
X23854819Y-16695237D01*
X23854819Y-16695237D02*
X23854819Y-16504761D01*
X23854819Y-16504761D02*
X23807200Y-16409523D01*
X23807200Y-16409523D02*
X23759580Y-16361904D01*
X23759580Y-16361904D02*
X23664342Y-16314285D01*
X23664342Y-16314285D02*
X23473866Y-16314285D01*
X23473866Y-16314285D02*
X23378628Y-16361904D01*
X23378628Y-16361904D02*
X23331009Y-16409523D01*
X23331009Y-16409523D02*
X23283390Y-16504761D01*
X46357142Y-17254819D02*
X46023809Y-16778628D01*
X45785714Y-17254819D02*
X45785714Y-16254819D01*
X45785714Y-16254819D02*
X46166666Y-16254819D01*
X46166666Y-16254819D02*
X46261904Y-16302438D01*
X46261904Y-16302438D02*
X46309523Y-16350057D01*
X46309523Y-16350057D02*
X46357142Y-16445295D01*
X46357142Y-16445295D02*
X46357142Y-16588152D01*
X46357142Y-16588152D02*
X46309523Y-16683390D01*
X46309523Y-16683390D02*
X46261904Y-16731009D01*
X46261904Y-16731009D02*
X46166666Y-16778628D01*
X46166666Y-16778628D02*
X45785714Y-16778628D01*
X47309523Y-17254819D02*
X46738095Y-17254819D01*
X47023809Y-17254819D02*
X47023809Y-16254819D01*
X47023809Y-16254819D02*
X46928571Y-16397676D01*
X46928571Y-16397676D02*
X46833333Y-16492914D01*
X46833333Y-16492914D02*
X46738095Y-16540533D01*
X47642857Y-16254819D02*
X48261904Y-16254819D01*
X48261904Y-16254819D02*
X47928571Y-16635771D01*
X47928571Y-16635771D02*
X48071428Y-16635771D01*
X48071428Y-16635771D02*
X48166666Y-16683390D01*
X48166666Y-16683390D02*
X48214285Y-16731009D01*
X48214285Y-16731009D02*
X48261904Y-16826247D01*
X48261904Y-16826247D02*
X48261904Y-17064342D01*
X48261904Y-17064342D02*
X48214285Y-17159580D01*
X48214285Y-17159580D02*
X48166666Y-17207200D01*
X48166666Y-17207200D02*
X48071428Y-17254819D01*
X48071428Y-17254819D02*
X47785714Y-17254819D01*
X47785714Y-17254819D02*
X47690476Y-17207200D01*
X47690476Y-17207200D02*
X47642857Y-17159580D01*
X41938095Y-15604819D02*
X41938095Y-16414342D01*
X41938095Y-16414342D02*
X41985714Y-16509580D01*
X41985714Y-16509580D02*
X42033333Y-16557200D01*
X42033333Y-16557200D02*
X42128571Y-16604819D01*
X42128571Y-16604819D02*
X42319047Y-16604819D01*
X42319047Y-16604819D02*
X42414285Y-16557200D01*
X42414285Y-16557200D02*
X42461904Y-16509580D01*
X42461904Y-16509580D02*
X42509523Y-16414342D01*
X42509523Y-16414342D02*
X42509523Y-15604819D01*
X42890476Y-15604819D02*
X43509523Y-15604819D01*
X43509523Y-15604819D02*
X43176190Y-15985771D01*
X43176190Y-15985771D02*
X43319047Y-15985771D01*
X43319047Y-15985771D02*
X43414285Y-16033390D01*
X43414285Y-16033390D02*
X43461904Y-16081009D01*
X43461904Y-16081009D02*
X43509523Y-16176247D01*
X43509523Y-16176247D02*
X43509523Y-16414342D01*
X43509523Y-16414342D02*
X43461904Y-16509580D01*
X43461904Y-16509580D02*
X43414285Y-16557200D01*
X43414285Y-16557200D02*
X43319047Y-16604819D01*
X43319047Y-16604819D02*
X43033333Y-16604819D01*
X43033333Y-16604819D02*
X42938095Y-16557200D01*
X42938095Y-16557200D02*
X42890476Y-16509580D01*
X39384580Y-16816666D02*
X39432200Y-16864285D01*
X39432200Y-16864285D02*
X39479819Y-17007142D01*
X39479819Y-17007142D02*
X39479819Y-17102380D01*
X39479819Y-17102380D02*
X39432200Y-17245237D01*
X39432200Y-17245237D02*
X39336961Y-17340475D01*
X39336961Y-17340475D02*
X39241723Y-17388094D01*
X39241723Y-17388094D02*
X39051247Y-17435713D01*
X39051247Y-17435713D02*
X38908390Y-17435713D01*
X38908390Y-17435713D02*
X38717914Y-17388094D01*
X38717914Y-17388094D02*
X38622676Y-17340475D01*
X38622676Y-17340475D02*
X38527438Y-17245237D01*
X38527438Y-17245237D02*
X38479819Y-17102380D01*
X38479819Y-17102380D02*
X38479819Y-17007142D01*
X38479819Y-17007142D02*
X38527438Y-16864285D01*
X38527438Y-16864285D02*
X38575057Y-16816666D01*
X38813152Y-15959523D02*
X39479819Y-15959523D01*
X38432200Y-16197618D02*
X39146485Y-16435713D01*
X39146485Y-16435713D02*
X39146485Y-15816666D01*
X11833333Y-18854819D02*
X11500000Y-18378628D01*
X11261905Y-18854819D02*
X11261905Y-17854819D01*
X11261905Y-17854819D02*
X11642857Y-17854819D01*
X11642857Y-17854819D02*
X11738095Y-17902438D01*
X11738095Y-17902438D02*
X11785714Y-17950057D01*
X11785714Y-17950057D02*
X11833333Y-18045295D01*
X11833333Y-18045295D02*
X11833333Y-18188152D01*
X11833333Y-18188152D02*
X11785714Y-18283390D01*
X11785714Y-18283390D02*
X11738095Y-18331009D01*
X11738095Y-18331009D02*
X11642857Y-18378628D01*
X11642857Y-18378628D02*
X11261905Y-18378628D01*
X12214286Y-17950057D02*
X12261905Y-17902438D01*
X12261905Y-17902438D02*
X12357143Y-17854819D01*
X12357143Y-17854819D02*
X12595238Y-17854819D01*
X12595238Y-17854819D02*
X12690476Y-17902438D01*
X12690476Y-17902438D02*
X12738095Y-17950057D01*
X12738095Y-17950057D02*
X12785714Y-18045295D01*
X12785714Y-18045295D02*
X12785714Y-18140533D01*
X12785714Y-18140533D02*
X12738095Y-18283390D01*
X12738095Y-18283390D02*
X12166667Y-18854819D01*
X12166667Y-18854819D02*
X12785714Y-18854819D01*
X34861905Y-11854819D02*
X34861905Y-10854819D01*
X34861905Y-10854819D02*
X35100000Y-10854819D01*
X35100000Y-10854819D02*
X35242857Y-10902438D01*
X35242857Y-10902438D02*
X35338095Y-10997676D01*
X35338095Y-10997676D02*
X35385714Y-11092914D01*
X35385714Y-11092914D02*
X35433333Y-11283390D01*
X35433333Y-11283390D02*
X35433333Y-11426247D01*
X35433333Y-11426247D02*
X35385714Y-11616723D01*
X35385714Y-11616723D02*
X35338095Y-11711961D01*
X35338095Y-11711961D02*
X35242857Y-11807200D01*
X35242857Y-11807200D02*
X35100000Y-11854819D01*
X35100000Y-11854819D02*
X34861905Y-11854819D01*
X36290476Y-11188152D02*
X36290476Y-11854819D01*
X36052381Y-10807200D02*
X35814286Y-11521485D01*
X35814286Y-11521485D02*
X36433333Y-11521485D01*
X52564285Y-9031009D02*
X52707142Y-9078628D01*
X52707142Y-9078628D02*
X52754761Y-9126247D01*
X52754761Y-9126247D02*
X52802380Y-9221485D01*
X52802380Y-9221485D02*
X52802380Y-9364342D01*
X52802380Y-9364342D02*
X52754761Y-9459580D01*
X52754761Y-9459580D02*
X52707142Y-9507200D01*
X52707142Y-9507200D02*
X52611904Y-9554819D01*
X52611904Y-9554819D02*
X52230952Y-9554819D01*
X52230952Y-9554819D02*
X52230952Y-8554819D01*
X52230952Y-8554819D02*
X52564285Y-8554819D01*
X52564285Y-8554819D02*
X52659523Y-8602438D01*
X52659523Y-8602438D02*
X52707142Y-8650057D01*
X52707142Y-8650057D02*
X52754761Y-8745295D01*
X52754761Y-8745295D02*
X52754761Y-8840533D01*
X52754761Y-8840533D02*
X52707142Y-8935771D01*
X52707142Y-8935771D02*
X52659523Y-8983390D01*
X52659523Y-8983390D02*
X52564285Y-9031009D01*
X52564285Y-9031009D02*
X52230952Y-9031009D01*
X53088095Y-8554819D02*
X53659523Y-8554819D01*
X53373809Y-9554819D02*
X53373809Y-8554819D01*
X54516666Y-9554819D02*
X53945238Y-9554819D01*
X54230952Y-9554819D02*
X54230952Y-8554819D01*
X54230952Y-8554819D02*
X54135714Y-8697676D01*
X54135714Y-8697676D02*
X54040476Y-8792914D01*
X54040476Y-8792914D02*
X53945238Y-8840533D01*
X8633333Y-11954819D02*
X8300000Y-11478628D01*
X8061905Y-11954819D02*
X8061905Y-10954819D01*
X8061905Y-10954819D02*
X8442857Y-10954819D01*
X8442857Y-10954819D02*
X8538095Y-11002438D01*
X8538095Y-11002438D02*
X8585714Y-11050057D01*
X8585714Y-11050057D02*
X8633333Y-11145295D01*
X8633333Y-11145295D02*
X8633333Y-11288152D01*
X8633333Y-11288152D02*
X8585714Y-11383390D01*
X8585714Y-11383390D02*
X8538095Y-11431009D01*
X8538095Y-11431009D02*
X8442857Y-11478628D01*
X8442857Y-11478628D02*
X8061905Y-11478628D01*
X9109524Y-11954819D02*
X9300000Y-11954819D01*
X9300000Y-11954819D02*
X9395238Y-11907200D01*
X9395238Y-11907200D02*
X9442857Y-11859580D01*
X9442857Y-11859580D02*
X9538095Y-11716723D01*
X9538095Y-11716723D02*
X9585714Y-11526247D01*
X9585714Y-11526247D02*
X9585714Y-11145295D01*
X9585714Y-11145295D02*
X9538095Y-11050057D01*
X9538095Y-11050057D02*
X9490476Y-11002438D01*
X9490476Y-11002438D02*
X9395238Y-10954819D01*
X9395238Y-10954819D02*
X9204762Y-10954819D01*
X9204762Y-10954819D02*
X9109524Y-11002438D01*
X9109524Y-11002438D02*
X9061905Y-11050057D01*
X9061905Y-11050057D02*
X9014286Y-11145295D01*
X9014286Y-11145295D02*
X9014286Y-11383390D01*
X9014286Y-11383390D02*
X9061905Y-11478628D01*
X9061905Y-11478628D02*
X9109524Y-11526247D01*
X9109524Y-11526247D02*
X9204762Y-11573866D01*
X9204762Y-11573866D02*
X9395238Y-11573866D01*
X9395238Y-11573866D02*
X9490476Y-11526247D01*
X9490476Y-11526247D02*
X9538095Y-11478628D01*
X9538095Y-11478628D02*
X9585714Y-11383390D01*
X12461905Y-11954819D02*
X12461905Y-10954819D01*
X12461905Y-10954819D02*
X12700000Y-10954819D01*
X12700000Y-10954819D02*
X12842857Y-11002438D01*
X12842857Y-11002438D02*
X12938095Y-11097676D01*
X12938095Y-11097676D02*
X12985714Y-11192914D01*
X12985714Y-11192914D02*
X13033333Y-11383390D01*
X13033333Y-11383390D02*
X13033333Y-11526247D01*
X13033333Y-11526247D02*
X12985714Y-11716723D01*
X12985714Y-11716723D02*
X12938095Y-11811961D01*
X12938095Y-11811961D02*
X12842857Y-11907200D01*
X12842857Y-11907200D02*
X12700000Y-11954819D01*
X12700000Y-11954819D02*
X12461905Y-11954819D01*
X13985714Y-11954819D02*
X13414286Y-11954819D01*
X13700000Y-11954819D02*
X13700000Y-10954819D01*
X13700000Y-10954819D02*
X13604762Y-11097676D01*
X13604762Y-11097676D02*
X13509524Y-11192914D01*
X13509524Y-11192914D02*
X13414286Y-11240533D01*
X17659580Y-12266666D02*
X17707200Y-12314285D01*
X17707200Y-12314285D02*
X17754819Y-12457142D01*
X17754819Y-12457142D02*
X17754819Y-12552380D01*
X17754819Y-12552380D02*
X17707200Y-12695237D01*
X17707200Y-12695237D02*
X17611961Y-12790475D01*
X17611961Y-12790475D02*
X17516723Y-12838094D01*
X17516723Y-12838094D02*
X17326247Y-12885713D01*
X17326247Y-12885713D02*
X17183390Y-12885713D01*
X17183390Y-12885713D02*
X16992914Y-12838094D01*
X16992914Y-12838094D02*
X16897676Y-12790475D01*
X16897676Y-12790475D02*
X16802438Y-12695237D01*
X16802438Y-12695237D02*
X16754819Y-12552380D01*
X16754819Y-12552380D02*
X16754819Y-12457142D01*
X16754819Y-12457142D02*
X16802438Y-12314285D01*
X16802438Y-12314285D02*
X16850057Y-12266666D01*
X17754819Y-11314285D02*
X17754819Y-11885713D01*
X17754819Y-11599999D02*
X16754819Y-11599999D01*
X16754819Y-11599999D02*
X16897676Y-11695237D01*
X16897676Y-11695237D02*
X16992914Y-11790475D01*
X16992914Y-11790475D02*
X17040533Y-11885713D01*
D11*
%TO.C,U7*%
X35250000Y-5440000D02*
X33450000Y-5440000D01*
X35250000Y-5440000D02*
X36050000Y-5440000D01*
X35250000Y-8560000D02*
X34450000Y-8560000D01*
X35250000Y-8560000D02*
X36050000Y-8560000D01*
%TO.C,U4*%
X30562500Y-4810000D02*
X31362500Y-4810000D01*
X30562500Y-4810000D02*
X29762500Y-4810000D01*
X30562500Y-1690000D02*
X31362500Y-1690000D01*
X30562500Y-1690000D02*
X29762500Y-1690000D01*
X32102500Y-5090000D02*
X31622500Y-5090000D01*
X31862500Y-4760000D01*
X32102500Y-5090000D01*
G36*
X32102500Y-5090000D02*
G01*
X31622500Y-5090000D01*
X31862500Y-4760000D01*
X32102500Y-5090000D01*
G37*
%TO.C,U5*%
X45462500Y-1340000D02*
X44662500Y-1340000D01*
X45462500Y-1340000D02*
X46262500Y-1340000D01*
X45462500Y-4460000D02*
X44662500Y-4460000D01*
X45462500Y-4460000D02*
X46262500Y-4460000D01*
X44162500Y-1390000D02*
X43922500Y-1060000D01*
X44402500Y-1060000D01*
X44162500Y-1390000D01*
G36*
X44162500Y-1390000D02*
G01*
X43922500Y-1060000D01*
X44402500Y-1060000D01*
X44162500Y-1390000D01*
G37*
%TO.C,Q2*%
X40762500Y-1690000D02*
X40112500Y-1690000D01*
X40762500Y-1690000D02*
X41412500Y-1690000D01*
X40762500Y-4810000D02*
X40112500Y-4810000D01*
X40762500Y-4810000D02*
X41412500Y-4810000D01*
X39600000Y-1740000D02*
X39360000Y-1410000D01*
X39840000Y-1410000D01*
X39600000Y-1740000D01*
G36*
X39600000Y-1740000D02*
G01*
X39360000Y-1410000D01*
X39840000Y-1410000D01*
X39600000Y-1740000D01*
G37*
%TO.C,Q1*%
X14162500Y-3640000D02*
X13512500Y-3640000D01*
X14162500Y-3640000D02*
X14812500Y-3640000D01*
X14162500Y-6760000D02*
X13512500Y-6760000D01*
X14162500Y-6760000D02*
X14812500Y-6760000D01*
X13000000Y-3690000D02*
X12760000Y-3360000D01*
X13240000Y-3360000D01*
X13000000Y-3690000D01*
G36*
X13000000Y-3690000D02*
G01*
X12760000Y-3360000D01*
X13240000Y-3360000D01*
X13000000Y-3690000D01*
G37*
%TO.C,D2*%
X25000000Y-2090000D02*
X25000000Y-7600000D01*
X28300000Y-2090000D02*
X25000000Y-2090000D01*
X28300000Y-2090000D02*
X28300000Y-7600000D01*
%TO.C,C5*%
X47288748Y-5165000D02*
X47811252Y-5165000D01*
X47288748Y-6635000D02*
X47811252Y-6635000D01*
%TO.C,D3*%
X16400000Y-6990000D02*
X13715000Y-6990000D01*
X13715000Y-8910000D02*
X16400000Y-8910000D01*
X13715000Y-6990000D02*
X13715000Y-8910000D01*
%TO.C,U6*%
X9712500Y-3640000D02*
X7912500Y-3640000D01*
X9712500Y-3640000D02*
X10512500Y-3640000D01*
X9712500Y-6760000D02*
X8912500Y-6760000D01*
X9712500Y-6760000D02*
X10512500Y-6760000D01*
%TO.C,C7*%
X30915000Y-6738748D02*
X30915000Y-7261252D01*
X32385000Y-6738748D02*
X32385000Y-7261252D01*
%TO.C,C6*%
X8288748Y-7215000D02*
X8811252Y-7215000D01*
X8288748Y-8685000D02*
X8811252Y-8685000D01*
%TO.C,U1*%
X18490000Y-6200000D02*
X18490000Y-5400000D01*
X18490000Y-6200000D02*
X18490000Y-8000000D01*
X21610000Y-6200000D02*
X21610000Y-5400000D01*
X21610000Y-6200000D02*
X21610000Y-7000000D01*
D12*
%TO.C,J1*%
X1250000Y-1450000D02*
X1250000Y-8850000D01*
X1250000Y-1450000D02*
X1605000Y-1450000D01*
X1250000Y-8850000D02*
X1605000Y-8850000D01*
X3795000Y-8850000D02*
X5550000Y-8850000D01*
X5550000Y-1450000D02*
X3795000Y-1450000D01*
X5550000Y-1450000D02*
X5550000Y-1530000D01*
X5550000Y-8770000D02*
X5550000Y-8850000D01*
D13*
X6900000Y-3800000D02*
G75*
G02*
X6700000Y-3800000I-100000J0D01*
G01*
X6700000Y-3800000D02*
G75*
G02*
X6900000Y-3800000I100000J0D01*
G01*
D11*
%TO.C,R1*%
X22665000Y-4039564D02*
X22665000Y-3585436D01*
X24135000Y-4039564D02*
X24135000Y-3585436D01*
%TO.C,R8*%
X22665000Y-7527064D02*
X22665000Y-7072936D01*
X24135000Y-7527064D02*
X24135000Y-7072936D01*
%TO.C,R13*%
X47372936Y-7265000D02*
X47827064Y-7265000D01*
X47372936Y-8735000D02*
X47827064Y-8735000D01*
%TO.C,U3*%
X42900000Y-5440000D02*
X42100000Y-5440000D01*
X42900000Y-5440000D02*
X43700000Y-5440000D01*
X42900000Y-8560000D02*
X42100000Y-8560000D01*
X42900000Y-8560000D02*
X44700000Y-8560000D01*
%TO.C,C4*%
X38315000Y-6738748D02*
X38315000Y-7261252D01*
X39785000Y-6738748D02*
X39785000Y-7261252D01*
%TO.C,R2*%
X11772936Y-8685000D02*
X12227064Y-8685000D01*
X11772936Y-7215000D02*
X12227064Y-7215000D01*
%TO.C,D4*%
X33190000Y-2400000D02*
X33190000Y-4400000D01*
X33190000Y-2400000D02*
X37200000Y-2400000D01*
X33190000Y-4400000D02*
X37200000Y-4400000D01*
%TO.C,BT1*%
X50890000Y-2190000D02*
X50890000Y-3240000D01*
X50890000Y-3240000D02*
X49900000Y-3240000D01*
X50890000Y-7410000D02*
X50890000Y-6360000D01*
X52040000Y-2190000D02*
X50890000Y-2190000D01*
X52040000Y-7410000D02*
X50890000Y-7410000D01*
X54010000Y-3360000D02*
X54010000Y-6240000D01*
%TO.C,R9*%
X9135436Y-1515000D02*
X9589564Y-1515000D01*
X9135436Y-2985000D02*
X9589564Y-2985000D01*
%TO.C,D1*%
X16110000Y-1250000D02*
X12100000Y-1250000D01*
X16110000Y-3250000D02*
X12100000Y-3250000D01*
X16110000Y-3250000D02*
X16110000Y-1250000D01*
%TO.C,C1*%
X16515000Y-2938748D02*
X16515000Y-3461252D01*
X17985000Y-2938748D02*
X17985000Y-3461252D01*
%TD*%
M02*
