%TF.GenerationSoftware,KiCad,Pcbnew,7.0.10*%
%TF.CreationDate,2024-01-23T13:34:08+11:00*%
%TF.ProjectId,cphp82001-pcb,63706870-3832-4303-9031-2d7063622e6b,3.1*%
%TF.SameCoordinates,Original*%
%TF.FileFunction,Copper,L1,Top*%
%TF.FilePolarity,Positive*%
%FSLAX46Y46*%
G04 Gerber Fmt 4.6, Leading zero omitted, Abs format (unit mm)*
G04 Created by KiCad (PCBNEW 7.0.10) date 2024-01-23 13:34:08*
%MOMM*%
%LPD*%
G01*
G04 APERTURE LIST*
G04 Aperture macros list*
%AMRoundRect*
0 Rectangle with rounded corners*
0 $1 Rounding radius*
0 $2 $3 $4 $5 $6 $7 $8 $9 X,Y pos of 4 corners*
0 Add a 4 corners polygon primitive as box body*
4,1,4,$2,$3,$4,$5,$6,$7,$8,$9,$2,$3,0*
0 Add four circle primitives for the rounded corners*
1,1,$1+$1,$2,$3*
1,1,$1+$1,$4,$5*
1,1,$1+$1,$6,$7*
1,1,$1+$1,$8,$9*
0 Add four rect primitives between the rounded corners*
20,1,$1+$1,$2,$3,$4,$5,0*
20,1,$1+$1,$4,$5,$6,$7,0*
20,1,$1+$1,$6,$7,$8,$9,0*
20,1,$1+$1,$8,$9,$2,$3,0*%
G04 Aperture macros list end*
%TA.AperFunction,SMDPad,CuDef*%
%ADD10R,1.350000X0.400000*%
%TD*%
%TA.AperFunction,ComponentPad*%
%ADD11O,0.800000X1.600000*%
%TD*%
%TA.AperFunction,ComponentPad*%
%ADD12O,1.550000X0.750000*%
%TD*%
%TA.AperFunction,SMDPad,CuDef*%
%ADD13R,1.550000X1.300000*%
%TD*%
%TA.AperFunction,SMDPad,CuDef*%
%ADD14R,1.550000X1.500000*%
%TD*%
%TA.AperFunction,SMDPad,CuDef*%
%ADD15RoundRect,0.050000X0.250000X-0.500000X0.250000X0.500000X-0.250000X0.500000X-0.250000X-0.500000X0*%
%TD*%
%TA.AperFunction,SMDPad,CuDef*%
%ADD16RoundRect,0.250000X-0.262500X-0.450000X0.262500X-0.450000X0.262500X0.450000X-0.262500X0.450000X0*%
%TD*%
%TA.AperFunction,SMDPad,CuDef*%
%ADD17RoundRect,0.150000X-0.150000X0.587500X-0.150000X-0.587500X0.150000X-0.587500X0.150000X0.587500X0*%
%TD*%
%TA.AperFunction,SMDPad,CuDef*%
%ADD18RoundRect,0.250000X-0.650000X1.000000X-0.650000X-1.000000X0.650000X-1.000000X0.650000X1.000000X0*%
%TD*%
%TA.AperFunction,SMDPad,CuDef*%
%ADD19RoundRect,0.250000X-0.250000X-0.475000X0.250000X-0.475000X0.250000X0.475000X-0.250000X0.475000X0*%
%TD*%
%TA.AperFunction,SMDPad,CuDef*%
%ADD20RoundRect,0.243750X0.243750X0.456250X-0.243750X0.456250X-0.243750X-0.456250X0.243750X-0.456250X0*%
%TD*%
%TA.AperFunction,SMDPad,CuDef*%
%ADD21RoundRect,0.050000X-0.500000X-0.250000X0.500000X-0.250000X0.500000X0.250000X-0.500000X0.250000X0*%
%TD*%
%TA.AperFunction,SMDPad,CuDef*%
%ADD22RoundRect,0.250000X0.450000X-0.262500X0.450000X0.262500X-0.450000X0.262500X-0.450000X-0.262500X0*%
%TD*%
%TA.AperFunction,SMDPad,CuDef*%
%ADD23RoundRect,0.150000X-0.512500X-0.150000X0.512500X-0.150000X0.512500X0.150000X-0.512500X0.150000X0*%
%TD*%
%TA.AperFunction,SMDPad,CuDef*%
%ADD24RoundRect,0.250000X0.250000X0.475000X-0.250000X0.475000X-0.250000X-0.475000X0.250000X-0.475000X0*%
%TD*%
%TA.AperFunction,SMDPad,CuDef*%
%ADD25RoundRect,0.150000X-0.587500X-0.150000X0.587500X-0.150000X0.587500X0.150000X-0.587500X0.150000X0*%
%TD*%
%TA.AperFunction,SMDPad,CuDef*%
%ADD26RoundRect,0.050000X0.500000X0.250000X-0.500000X0.250000X-0.500000X-0.250000X0.500000X-0.250000X0*%
%TD*%
%TA.AperFunction,SMDPad,CuDef*%
%ADD27RoundRect,0.250000X0.262500X0.450000X-0.262500X0.450000X-0.262500X-0.450000X0.262500X-0.450000X0*%
%TD*%
%TA.AperFunction,SMDPad,CuDef*%
%ADD28RoundRect,0.150000X-0.625000X0.150000X-0.625000X-0.150000X0.625000X-0.150000X0.625000X0.150000X0*%
%TD*%
%TA.AperFunction,SMDPad,CuDef*%
%ADD29RoundRect,0.250000X-0.650000X0.350000X-0.650000X-0.350000X0.650000X-0.350000X0.650000X0.350000X0*%
%TD*%
%TA.AperFunction,SMDPad,CuDef*%
%ADD30RoundRect,0.225000X0.225000X0.375000X-0.225000X0.375000X-0.225000X-0.375000X0.225000X-0.375000X0*%
%TD*%
%TA.AperFunction,SMDPad,CuDef*%
%ADD31RoundRect,0.250000X-0.475000X0.250000X-0.475000X-0.250000X0.475000X-0.250000X0.475000X0.250000X0*%
%TD*%
%TA.AperFunction,ViaPad*%
%ADD32C,0.800000*%
%TD*%
%TA.AperFunction,ViaPad*%
%ADD33C,1.200000*%
%TD*%
%TA.AperFunction,Conductor*%
%ADD34C,0.250000*%
%TD*%
%TA.AperFunction,Conductor*%
%ADD35C,0.600000*%
%TD*%
%TA.AperFunction,Conductor*%
%ADD36C,0.400000*%
%TD*%
%TA.AperFunction,Conductor*%
%ADD37C,0.800000*%
%TD*%
G04 APERTURE END LIST*
D10*
%TO.P,J1,1,1*%
%TO.N,/VBUS1*%
X5375000Y-3850000D03*
%TO.P,J1,2,2*%
%TO.N,unconnected-(J1-Pad2)*%
X5375000Y-4500000D03*
%TO.P,J1,3,3*%
%TO.N,unconnected-(J1-Pad3)*%
X5375000Y-5150000D03*
%TO.P,J1,4,4*%
%TO.N,unconnected-(J1-Pad4)*%
X5375000Y-5800000D03*
%TO.P,J1,5,5*%
%TO.N,/GND*%
X5375000Y-6450000D03*
D11*
%TO.P,J1,S1,SHIELD*%
X5400000Y-2650000D03*
%TO.P,J1,S2,SHIELD__1*%
X5400000Y-7650000D03*
D12*
%TO.P,J1,S3,SHIELD__2*%
X2700000Y-1625000D03*
D13*
X2700000Y-2250000D03*
D14*
%TO.P,J1,S4,SHIELD__3*%
X2700000Y-4150000D03*
%TO.P,J1,S5,SHIELD__4*%
X2700000Y-6150000D03*
D13*
%TO.P,J1,S6,SHIELD__5*%
X2700000Y-8050000D03*
D12*
X2700000Y-8675000D03*
%TD*%
D15*
%TO.P,U7,1*%
%TO.N,/PASSG*%
X31050000Y-6900000D03*
%TO.P,U7,2,V-*%
%TO.N,/GND*%
X32000000Y-6900000D03*
%TO.P,U7,3,+*%
%TO.N,Net-(U7-+)*%
X32950000Y-6900000D03*
%TO.P,U7,4,-*%
%TO.N,/VCOMP*%
X32950000Y-4300000D03*
%TO.P,U7,5,Vref*%
%TO.N,Net-(U7-+)*%
X32000000Y-4300000D03*
%TO.P,U7,6,V+*%
%TO.N,/VOUT*%
X31050000Y-4300000D03*
%TD*%
D16*
%TO.P,R6,1*%
%TO.N,/VCOMP*%
X34587500Y-2300000D03*
%TO.P,R6,2*%
%TO.N,/GND*%
X36412500Y-2300000D03*
%TD*%
%TO.P,R3,1*%
%TO.N,/VOUT*%
X31087500Y-2300000D03*
%TO.P,R3,2*%
%TO.N,/VCOMP*%
X32912500Y-2300000D03*
%TD*%
D17*
%TO.P,Q2,1,G*%
%TO.N,/PASSG*%
X29350000Y-3125000D03*
%TO.P,Q2,2,S*%
%TO.N,/VOUT*%
X27450000Y-3125000D03*
%TO.P,Q2,3,D*%
%TO.N,/VCC*%
X28400000Y-5000000D03*
%TD*%
D18*
%TO.P,D2,2,A*%
%TO.N,/GND*%
X24800000Y-7600000D03*
%TO.P,D2,1,K*%
%TO.N,/VOUT*%
X24800000Y-3600000D03*
%TD*%
D19*
%TO.P,C5,2*%
%TO.N,/GND*%
X48400000Y-7800000D03*
%TO.P,C5,1*%
%TO.N,/B+*%
X46500000Y-7800000D03*
%TD*%
D20*
%TO.P,D3,1,K*%
%TO.N,/CHG*%
X16337500Y-7950000D03*
%TO.P,D3,2,A*%
%TO.N,/LCHG*%
X14462500Y-7950000D03*
%TD*%
D21*
%TO.P,U6,1,IN*%
%TO.N,/VBUS1*%
X7625000Y-4250000D03*
%TO.P,U6,2,GND*%
%TO.N,/GND*%
X7625000Y-5200000D03*
%TO.P,U6,3,~{EN}*%
X7625000Y-6150000D03*
%TO.P,U6,4,~{FLAG}*%
%TO.N,unconnected-(U6-~{FLAG}-Pad4)*%
X10225000Y-6150000D03*
%TO.P,U6,5,OUT*%
%TO.N,/VBUS*%
X10225000Y-4250000D03*
%TD*%
D19*
%TO.P,C7,1*%
%TO.N,/VOUT*%
X27500000Y-7600000D03*
%TO.P,C7,2*%
%TO.N,/GND*%
X29400000Y-7600000D03*
%TD*%
%TO.P,C6,1*%
%TO.N,/VBUS1*%
X7600000Y-7950000D03*
%TO.P,C6,2*%
%TO.N,/GND*%
X9500000Y-7950000D03*
%TD*%
D15*
%TO.P,U1,1,TS*%
%TO.N,/TS*%
X18025000Y-7500000D03*
%TO.P,U1,2,VOUT*%
%TO.N,/B+*%
X18975000Y-7500000D03*
%TO.P,U1,3,~{CHG}*%
%TO.N,/CHG*%
X19925000Y-7500000D03*
%TO.P,U1,4,ISET*%
%TO.N,/PROG*%
X19925000Y-4900000D03*
%TO.P,U1,5,GND*%
%TO.N,/GND*%
X18975000Y-4900000D03*
%TO.P,U1,6,VIN*%
%TO.N,/VCC*%
X18025000Y-4900000D03*
%TD*%
D22*
%TO.P,R1,2*%
%TO.N,/PROG*%
X21900000Y-2900000D03*
%TO.P,R1,1*%
%TO.N,/PROG2*%
X21900000Y-4725000D03*
%TD*%
%TO.P,R8,2*%
%TO.N,/PROG2*%
X21900000Y-6387500D03*
%TO.P,R8,1*%
%TO.N,/GND*%
X21900000Y-8212500D03*
%TD*%
%TO.P,R13,1*%
%TO.N,/GND*%
X52900000Y-11500000D03*
%TO.P,R13,2*%
%TO.N,/TS*%
X52900000Y-9675000D03*
%TD*%
D23*
%TO.P,U5,1,GND*%
%TO.N,/GND*%
X46062500Y-1950000D03*
%TO.P,U5,2,~{RESET}*%
%TO.N,/EN*%
X46062500Y-3850000D03*
%TO.P,U5,3,VCC*%
%TO.N,/B+*%
X48337500Y-2900000D03*
%TD*%
D24*
%TO.P,C3,2*%
%TO.N,/GND*%
X39700000Y-7900000D03*
%TO.P,C3,1*%
%TO.N,/VREG*%
X41600000Y-7900000D03*
%TD*%
D25*
%TO.P,Q1,3,D*%
%TO.N,/PROG2*%
X13900000Y-5200000D03*
%TO.P,Q1,2,S*%
%TO.N,/GND*%
X12025000Y-6150000D03*
%TO.P,Q1,1,G*%
%TO.N,/VBUS*%
X12025000Y-4250000D03*
%TD*%
D26*
%TO.P,U3,1,VDD*%
%TO.N,/VREG*%
X37200000Y-6750000D03*
%TO.P,U3,2,GND*%
%TO.N,/GND*%
X37200000Y-5800000D03*
%TO.P,U3,3,EN*%
%TO.N,/EN*%
X37200000Y-4850000D03*
%TO.P,U3,4,NC*%
%TO.N,unconnected-(U3-NC-Pad4)*%
X34600000Y-4850000D03*
%TO.P,U3,5,OUT*%
%TO.N,/VOUT*%
X34600000Y-6750000D03*
%TD*%
D27*
%TO.P,R2,1*%
%TO.N,/LCHG*%
X12912500Y-7950000D03*
%TO.P,R2,2*%
%TO.N,/VCC*%
X11087500Y-7950000D03*
%TD*%
D16*
%TO.P,R5,1*%
%TO.N,/ADJ*%
X41637500Y-2300000D03*
%TO.P,R5,2*%
%TO.N,/GND*%
X43462500Y-2300000D03*
%TD*%
D28*
%TO.P,BT1,1,Pin_1*%
%TO.N,/B+*%
X50675000Y-3800000D03*
%TO.P,BT1,2,Pin_2*%
%TO.N,/TS*%
X50675000Y-4800000D03*
%TO.P,BT1,3,Pin_3*%
%TO.N,/GND*%
X50675000Y-5800000D03*
D29*
%TO.P,BT1,MP*%
%TO.N,N/C*%
X53200000Y-2500000D03*
X53200000Y-7100000D03*
%TD*%
D16*
%TO.P,R4,2*%
%TO.N,/ADJ*%
X40012500Y-2300000D03*
%TO.P,R4,1*%
%TO.N,/VREG*%
X38187500Y-2300000D03*
%TD*%
%TO.P,R11,2*%
%TO.N,/B+*%
X48350000Y-5700000D03*
%TO.P,R11,1*%
%TO.N,/EN*%
X46525000Y-5700000D03*
%TD*%
D26*
%TO.P,U2,5,OUT*%
%TO.N,/VREG*%
X41600000Y-5950000D03*
%TO.P,U2,4,ADJ*%
%TO.N,/ADJ*%
X41600000Y-4050000D03*
%TO.P,U2,3,EN*%
%TO.N,/EN*%
X44200000Y-4050000D03*
%TO.P,U2,2,GND*%
%TO.N,/GND*%
X44200000Y-5000000D03*
%TO.P,U2,1,IN*%
%TO.N,/B+*%
X44200000Y-5950000D03*
%TD*%
D16*
%TO.P,R9,1*%
%TO.N,/GND*%
X8450000Y-2250000D03*
%TO.P,R9,2*%
%TO.N,/VBUS*%
X10275000Y-2250000D03*
%TD*%
D30*
%TO.P,D1,1,K*%
%TO.N,/VCC*%
X15400000Y-2250000D03*
%TO.P,D1,2,A*%
%TO.N,/VBUS*%
X12100000Y-2250000D03*
%TD*%
D31*
%TO.P,C1,1*%
%TO.N,/VCC*%
X16125000Y-4300000D03*
%TO.P,C1,2*%
%TO.N,/GND*%
X16125000Y-6200000D03*
%TD*%
%TO.P,C2,1*%
%TO.N,/ADJ*%
X39750000Y-4100000D03*
%TO.P,C2,2*%
%TO.N,/VREG*%
X39750000Y-6000000D03*
%TD*%
D32*
%TO.N,/GND*%
X17900000Y-3000000D03*
X16800000Y-3000000D03*
X9550000Y-9600000D03*
X11000000Y-5200000D03*
X23250000Y-8900000D03*
X20050000Y-3000000D03*
X19000000Y-3550000D03*
X20050000Y-6150000D03*
X17900000Y-6150000D03*
X19000000Y-6150000D03*
X48400000Y-9300000D03*
X50000000Y-8200000D03*
X53250000Y-5650000D03*
X41500000Y-5000000D03*
X34600000Y-5800000D03*
X31600000Y-5600000D03*
%TO.N,/VOUT*%
X27500000Y-6200000D03*
X30300000Y-4300000D03*
%TO.N,/GND*%
X23250000Y-7500000D03*
X24100000Y-5700000D03*
X25200000Y-5700000D03*
X33000000Y-8250000D03*
X42900000Y-5000000D03*
X42900000Y-6050000D03*
X42900000Y-3950000D03*
X44100000Y-7200000D03*
X42900000Y-7200000D03*
X37300000Y-8100000D03*
X35900000Y-8100000D03*
X35900000Y-6800000D03*
X34600000Y-3700000D03*
X35900000Y-3700000D03*
X35900000Y-4800000D03*
X35900000Y-5800000D03*
%TO.N,/EN*%
X45050000Y-3000000D03*
X37200000Y-3850000D03*
%TO.N,/GND*%
X28500000Y-8750000D03*
X30950000Y-8750000D03*
%TO.N,/TS*%
X52900000Y-8650000D03*
%TO.N,/CHG*%
X16400000Y-9100000D03*
X19925000Y-8600000D03*
%TO.N,/GND*%
X5000000Y-32500000D03*
X5000000Y-22000000D03*
X2500000Y-42000000D03*
X4500000Y-13500000D03*
X51000000Y-15000000D03*
X51000000Y-42000000D03*
X36000000Y-40500000D03*
X20000000Y-40500000D03*
X51000000Y-22000000D03*
X51000000Y-30000000D03*
D33*
%TO.N,/VOUT*%
X30100000Y-10100000D03*
D32*
%TO.N,/PROG2*%
X14000000Y-4350000D03*
X23100000Y-3800000D03*
%TO.N,/TS*%
X18075000Y-9250000D03*
%TD*%
D34*
%TO.N,/PASSG*%
X29350000Y-4900000D02*
X29350000Y-3125000D01*
X31050000Y-6600000D02*
X29350000Y-4900000D01*
X31050000Y-6900000D02*
X31050000Y-6600000D01*
D35*
%TO.N,/VOUT*%
X27450000Y-4150000D02*
X26400000Y-5200000D01*
X27450000Y-3125000D02*
X27450000Y-4150000D01*
D36*
%TO.N,/PROG2*%
X21900000Y-6387500D02*
X21900000Y-4725000D01*
D34*
X22125000Y-4725000D02*
X21900000Y-4725000D01*
X23050000Y-3800000D02*
X22125000Y-4725000D01*
X23100000Y-3800000D02*
X23050000Y-3800000D01*
%TO.N,/PROG*%
X21800000Y-2900000D02*
X21900000Y-2900000D01*
X19925000Y-4775000D02*
X21800000Y-2900000D01*
D35*
%TO.N,/B+*%
X18975000Y-10425000D02*
X18975000Y-7500000D01*
X20750000Y-12200000D02*
X18975000Y-10425000D01*
X41800000Y-12200000D02*
X20750000Y-12200000D01*
X45150000Y-8850000D02*
X41800000Y-12200000D01*
X45150000Y-7800000D02*
X45150000Y-8850000D01*
%TO.N,/VCC*%
X28400000Y-2400000D02*
X28400000Y-5000000D01*
X27800000Y-1800000D02*
X28400000Y-2400000D01*
X15850000Y-1800000D02*
X27800000Y-1800000D01*
X15400000Y-2250000D02*
X15850000Y-1800000D01*
D36*
%TO.N,/VBUS1*%
X8700000Y-4600000D02*
X8700000Y-6700000D01*
X8700000Y-6700000D02*
X7600000Y-7800000D01*
X8350000Y-4250000D02*
X8700000Y-4600000D01*
X5375000Y-3850000D02*
X6350000Y-3850000D01*
X6350000Y-3850000D02*
X6750000Y-4250000D01*
X6750000Y-4250000D02*
X8350000Y-4250000D01*
D37*
%TO.N,/VOUT*%
X27100000Y-10100000D02*
X26400000Y-9400000D01*
X26400000Y-9400000D02*
X26400000Y-7700000D01*
X30100000Y-10100000D02*
X27100000Y-10100000D01*
D34*
%TO.N,/TS*%
X18025000Y-9200000D02*
X18025000Y-7500000D01*
X18075000Y-9250000D02*
X18025000Y-9200000D01*
%TO.N,/CHG*%
X19925000Y-8600000D02*
X19925000Y-7500000D01*
D35*
%TO.N,/B+*%
X46500000Y-7800000D02*
X45150000Y-7800000D01*
X45150000Y-7800000D02*
X45150000Y-6450000D01*
X44650000Y-5950000D02*
X44200000Y-5950000D01*
X45150000Y-6450000D02*
X44650000Y-5950000D01*
X48350000Y-5950000D02*
X46500000Y-7800000D01*
D34*
%TO.N,/TS*%
X51775000Y-5449092D02*
X51125908Y-4800000D01*
X51775000Y-7525000D02*
X51775000Y-5449092D01*
X52900000Y-8650000D02*
X52900000Y-9675000D01*
X52900000Y-8650000D02*
X51775000Y-7525000D01*
%TO.N,/EN*%
X46300000Y-4087500D02*
X46300000Y-5475000D01*
X46062500Y-3850000D02*
X46300000Y-4087500D01*
X45050000Y-3000000D02*
X45050000Y-4000000D01*
X45050000Y-4000000D02*
X45912500Y-4000000D01*
X44250000Y-4000000D02*
X45050000Y-4000000D01*
%TO.N,Net-(U7-+)*%
X32950000Y-5650000D02*
X32950000Y-6900000D01*
X32000000Y-4700000D02*
X32950000Y-5650000D01*
%TO.N,/VOUT*%
X27500000Y-6200000D02*
X27500000Y-7600000D01*
X31050000Y-4300000D02*
X30300000Y-4300000D01*
X31050000Y-4300000D02*
X31050000Y-2337500D01*
%TO.N,/VCOMP*%
X32950000Y-4300000D02*
X32950000Y-2337500D01*
D35*
%TO.N,/VREG*%
X41600000Y-7900000D02*
X41600000Y-6000000D01*
D34*
X38187500Y-3137500D02*
X38187500Y-2300000D01*
X38650000Y-3600000D02*
X38187500Y-3137500D01*
X38650000Y-5100000D02*
X38650000Y-3600000D01*
X39550000Y-6000000D02*
X38650000Y-5100000D01*
D35*
%TO.N,/B+*%
X48350000Y-3800000D02*
X48350000Y-2912500D01*
X50675000Y-3800000D02*
X48350000Y-3800000D01*
X48350000Y-5700000D02*
X48350000Y-3800000D01*
X48350000Y-2912500D02*
X48337500Y-2900000D01*
%TO.N,/VREG*%
X41600000Y-6000000D02*
X39750000Y-6000000D01*
X37200000Y-6750000D02*
X38800000Y-6750000D01*
X38800000Y-6750000D02*
X39550000Y-6000000D01*
%TO.N,/VOUT*%
X34600000Y-9000000D02*
X34600000Y-6750000D01*
X30100000Y-10100000D02*
X33500000Y-10100000D01*
X33500000Y-10100000D02*
X34600000Y-9000000D01*
D34*
%TO.N,/EN*%
X37200000Y-4850000D02*
X37200000Y-3850000D01*
%TO.N,/ADJ*%
X40012500Y-2300000D02*
X40012500Y-3837500D01*
X39750000Y-4100000D02*
X41600000Y-4100000D01*
X41600000Y-4100000D02*
X41600000Y-2337500D01*
%TO.N,/VCOMP*%
X34587500Y-2300000D02*
X32912500Y-2300000D01*
%TO.N,/ADJ*%
X40012500Y-2300000D02*
X41637500Y-2300000D01*
D35*
%TO.N,/VOUT*%
X27450000Y-7600000D02*
X26300000Y-7600000D01*
D37*
X26400000Y-5200000D02*
X24800000Y-3600000D01*
X26400000Y-7500000D02*
X26400000Y-5200000D01*
D34*
%TO.N,/VCC*%
X11975000Y-6925000D02*
X11087500Y-7812500D01*
X14575000Y-6925000D02*
X11975000Y-6925000D01*
X15075000Y-5125000D02*
X15075000Y-6425000D01*
X15900000Y-4300000D02*
X15075000Y-5125000D01*
X15075000Y-6425000D02*
X14575000Y-6925000D01*
%TO.N,/CHG*%
X16400000Y-9100000D02*
X16400000Y-8012500D01*
D36*
%TO.N,/LCHG*%
X12912500Y-7950000D02*
X14462500Y-7950000D01*
D34*
%TO.N,/PROG2*%
X14000000Y-5200000D02*
X14000000Y-4350000D01*
%TD*%
%TA.AperFunction,Conductor*%
%TO.N,/VCC*%
G36*
X15843039Y-1519685D02*
G01*
X15888794Y-1572489D01*
X15900000Y-1624000D01*
X15900000Y-3800000D01*
X18176000Y-3800000D01*
X18243039Y-3819685D01*
X18288794Y-3872489D01*
X18300000Y-3924000D01*
X18300000Y-5076000D01*
X18280315Y-5143039D01*
X18227511Y-5188794D01*
X18176000Y-5200000D01*
X14962000Y-5200000D01*
X14894961Y-5180315D01*
X14849206Y-5127511D01*
X14838000Y-5076000D01*
X14838000Y-5016739D01*
X14828073Y-4948608D01*
X14828073Y-4948607D01*
X14776698Y-4843517D01*
X14776696Y-4843515D01*
X14776696Y-4843514D01*
X14693983Y-4760801D01*
X14669539Y-4748851D01*
X14617957Y-4701723D01*
X14600000Y-4637451D01*
X14600000Y-4401285D01*
X14601061Y-4385099D01*
X14605682Y-4349999D01*
X14605682Y-4349998D01*
X14601061Y-4314899D01*
X14600000Y-4298714D01*
X14600000Y-1624000D01*
X14619685Y-1556961D01*
X14672489Y-1511206D01*
X14724000Y-1500000D01*
X15776000Y-1500000D01*
X15843039Y-1519685D01*
G37*
%TD.AperFunction*%
%TD*%
%TA.AperFunction,Conductor*%
%TO.N,/VBUS*%
G36*
X12315677Y-1519685D02*
G01*
X12336319Y-1536319D01*
X12763681Y-1963681D01*
X12797166Y-2025004D01*
X12800000Y-2051362D01*
X12800000Y-4426000D01*
X12780315Y-4493039D01*
X12727511Y-4538794D01*
X12676000Y-4550000D01*
X9824000Y-4550000D01*
X9756961Y-4530315D01*
X9711206Y-4477511D01*
X9700000Y-4426000D01*
X9700000Y-1624000D01*
X9719685Y-1556961D01*
X9772489Y-1511206D01*
X9824000Y-1500000D01*
X12248638Y-1500000D01*
X12315677Y-1519685D01*
G37*
%TD.AperFunction*%
%TD*%
%TA.AperFunction,Conductor*%
%TO.N,/GND*%
G36*
X12300952Y-501061D02*
G01*
X12406116Y-514906D01*
X12437383Y-523284D01*
X12527808Y-560739D01*
X12555842Y-576924D01*
X12640003Y-641503D01*
X12652198Y-652198D01*
X13353547Y-1353548D01*
X13353554Y-1353554D01*
X13500000Y-1500000D01*
X13707114Y-1500000D01*
X14220500Y-1500000D01*
X14287539Y-1519685D01*
X14333294Y-1572489D01*
X14344500Y-1624000D01*
X14344500Y-3606668D01*
X14324815Y-3673707D01*
X14272011Y-3719462D01*
X14202853Y-3729406D01*
X14190826Y-3727065D01*
X14078986Y-3699500D01*
X14078985Y-3699500D01*
X13921015Y-3699500D01*
X13921014Y-3699500D01*
X13767634Y-3737303D01*
X13627762Y-3810715D01*
X13509516Y-3915471D01*
X13419781Y-4045475D01*
X13419780Y-4045476D01*
X13363762Y-4193181D01*
X13344722Y-4349999D01*
X13344722Y-4350000D01*
X13364667Y-4514264D01*
X13361577Y-4514639D01*
X13359137Y-4570275D01*
X13318822Y-4627341D01*
X13261202Y-4652632D01*
X13180585Y-4665400D01*
X13111292Y-4656445D01*
X13057840Y-4611449D01*
X13037201Y-4544697D01*
X13042212Y-4507990D01*
X13045150Y-4497985D01*
X13055500Y-4426000D01*
X13055500Y-2051362D01*
X13054036Y-2024048D01*
X13051202Y-1997690D01*
X13021413Y-1902556D01*
X12987928Y-1841233D01*
X12944347Y-1783015D01*
X12944342Y-1783010D01*
X12944334Y-1783001D01*
X12516998Y-1355666D01*
X12516985Y-1355653D01*
X12496635Y-1337374D01*
X12496629Y-1337369D01*
X12496620Y-1337361D01*
X12475999Y-1320744D01*
X12475996Y-1320742D01*
X12475993Y-1320740D01*
X12387662Y-1274535D01*
X12387659Y-1274534D01*
X12320624Y-1254850D01*
X12320616Y-1254848D01*
X12248639Y-1244500D01*
X12248638Y-1244500D01*
X9824000Y-1244500D01*
X9823997Y-1244500D01*
X9769687Y-1250338D01*
X9718181Y-1261543D01*
X9718172Y-1261546D01*
X9691807Y-1268779D01*
X9691796Y-1268783D01*
X9605181Y-1318105D01*
X9605173Y-1318111D01*
X9552371Y-1363863D01*
X9520743Y-1396640D01*
X9474534Y-1484977D01*
X9474533Y-1484977D01*
X9454851Y-1552009D01*
X9454848Y-1552021D01*
X9444500Y-1623998D01*
X9444500Y-3865156D01*
X9433935Y-3915240D01*
X9427416Y-3930003D01*
X9427415Y-3930008D01*
X9424500Y-3955131D01*
X9424500Y-4544856D01*
X9424502Y-4544882D01*
X9427413Y-4569987D01*
X9427415Y-4569991D01*
X9472793Y-4672764D01*
X9472794Y-4672765D01*
X9552235Y-4752206D01*
X9655009Y-4797585D01*
X9680135Y-4800500D01*
X9780355Y-4800499D01*
X9798004Y-4801761D01*
X9823998Y-4805499D01*
X9823999Y-4805500D01*
X9824000Y-4805500D01*
X12676000Y-4805500D01*
X12730313Y-4799661D01*
X12777176Y-4789466D01*
X12846867Y-4794450D01*
X12902801Y-4836320D01*
X12927219Y-4901784D01*
X12926008Y-4930029D01*
X12912000Y-5018474D01*
X12912000Y-5381517D01*
X12920174Y-5433127D01*
X12926854Y-5475304D01*
X12984450Y-5588342D01*
X12984452Y-5588344D01*
X12984454Y-5588347D01*
X13074152Y-5678045D01*
X13074154Y-5678046D01*
X13074158Y-5678050D01*
X13187196Y-5735646D01*
X13187198Y-5735647D01*
X13280975Y-5750499D01*
X13280981Y-5750500D01*
X14519018Y-5750499D01*
X14519022Y-5750499D01*
X14556102Y-5744626D01*
X14625395Y-5753580D01*
X14678847Y-5798576D01*
X14699487Y-5865328D01*
X14699500Y-5867099D01*
X14699500Y-6218100D01*
X14679815Y-6285139D01*
X14663181Y-6305781D01*
X14455781Y-6513181D01*
X14394458Y-6546666D01*
X14368100Y-6549500D01*
X12026803Y-6549500D01*
X12001358Y-6546861D01*
X12000428Y-6546666D01*
X11990732Y-6544633D01*
X11990731Y-6544633D01*
X11959323Y-6548548D01*
X11943985Y-6549500D01*
X11943885Y-6549500D01*
X11923381Y-6552920D01*
X11918321Y-6553657D01*
X11866382Y-6560132D01*
X11858842Y-6562377D01*
X11851393Y-6564934D01*
X11851390Y-6564935D01*
X11851386Y-6564936D01*
X11851383Y-6564938D01*
X11805367Y-6589840D01*
X11800812Y-6592185D01*
X11753791Y-6615172D01*
X11747381Y-6619748D01*
X11741174Y-6624579D01*
X11705718Y-6663094D01*
X11702172Y-6666789D01*
X11405780Y-6963181D01*
X11344457Y-6996666D01*
X11318099Y-6999500D01*
X10777129Y-6999500D01*
X10777123Y-6999501D01*
X10717516Y-7005908D01*
X10582671Y-7056202D01*
X10582664Y-7056206D01*
X10467455Y-7142452D01*
X10467452Y-7142455D01*
X10381206Y-7257664D01*
X10381202Y-7257671D01*
X10330908Y-7392517D01*
X10324501Y-7452116D01*
X10324500Y-7452135D01*
X10324500Y-8447870D01*
X10324501Y-8447876D01*
X10330908Y-8507483D01*
X10381202Y-8642328D01*
X10381206Y-8642335D01*
X10467452Y-8757544D01*
X10467455Y-8757547D01*
X10582664Y-8843793D01*
X10582671Y-8843797D01*
X10598391Y-8849660D01*
X10717517Y-8894091D01*
X10777127Y-8900500D01*
X11397872Y-8900499D01*
X11457483Y-8894091D01*
X11592331Y-8843796D01*
X11707546Y-8757546D01*
X11793796Y-8642331D01*
X11844091Y-8507483D01*
X11850500Y-8447873D01*
X11850499Y-7631898D01*
X11870183Y-7564860D01*
X11886818Y-7544218D01*
X11937819Y-7493217D01*
X11999142Y-7459732D01*
X12068834Y-7464716D01*
X12124767Y-7506588D01*
X12149184Y-7572052D01*
X12149500Y-7580898D01*
X12149500Y-8447870D01*
X12149501Y-8447876D01*
X12155908Y-8507483D01*
X12206202Y-8642328D01*
X12206206Y-8642335D01*
X12292452Y-8757544D01*
X12292455Y-8757547D01*
X12407664Y-8843793D01*
X12407671Y-8843797D01*
X12423391Y-8849660D01*
X12542517Y-8894091D01*
X12602127Y-8900500D01*
X13222872Y-8900499D01*
X13282483Y-8894091D01*
X13417331Y-8843796D01*
X13532546Y-8757546D01*
X13599174Y-8668542D01*
X13655105Y-8626672D01*
X13724797Y-8621688D01*
X13786120Y-8655173D01*
X13797706Y-8668543D01*
X13803467Y-8676239D01*
X13865669Y-8759331D01*
X13940665Y-8815472D01*
X13978501Y-8843796D01*
X13979446Y-8844503D01*
X14112609Y-8894171D01*
X14171479Y-8900500D01*
X14753520Y-8900499D01*
X14812391Y-8894171D01*
X14945554Y-8844503D01*
X15059331Y-8759331D01*
X15144503Y-8645554D01*
X15194171Y-8512391D01*
X15196536Y-8490383D01*
X15200499Y-8453537D01*
X15200499Y-8453526D01*
X15200500Y-8453521D01*
X15200500Y-8453517D01*
X15599500Y-8453517D01*
X15599501Y-8453526D01*
X15605828Y-8512391D01*
X15652420Y-8637305D01*
X15655497Y-8645554D01*
X15740669Y-8759331D01*
X15740672Y-8759333D01*
X15746944Y-8765606D01*
X15745427Y-8767122D01*
X15780097Y-8813433D01*
X15785083Y-8883125D01*
X15779859Y-8900739D01*
X15763763Y-8943180D01*
X15763762Y-8943185D01*
X15744722Y-9099999D01*
X15744722Y-9100000D01*
X15763762Y-9256818D01*
X15815965Y-9394463D01*
X15819780Y-9404523D01*
X15909517Y-9534530D01*
X16027760Y-9639283D01*
X16027762Y-9639284D01*
X16167634Y-9712696D01*
X16321014Y-9750500D01*
X16321015Y-9750500D01*
X16478985Y-9750500D01*
X16632365Y-9712696D01*
X16686034Y-9684528D01*
X16772240Y-9639283D01*
X16890483Y-9534530D01*
X16980220Y-9404523D01*
X17036237Y-9256818D01*
X17037065Y-9250000D01*
X17419722Y-9250000D01*
X17438762Y-9406818D01*
X17486358Y-9532317D01*
X17494780Y-9554523D01*
X17584517Y-9684530D01*
X17702760Y-9789283D01*
X17702762Y-9789284D01*
X17842634Y-9862696D01*
X17996014Y-9900500D01*
X17996015Y-9900500D01*
X18153985Y-9900500D01*
X18270825Y-9871702D01*
X18340628Y-9874771D01*
X18397690Y-9915091D01*
X18423895Y-9979861D01*
X18424500Y-9992099D01*
X18424500Y-10413477D01*
X18424428Y-10417709D01*
X18422238Y-10481829D01*
X18431963Y-10521733D01*
X18434334Y-10534208D01*
X18439930Y-10574920D01*
X18447079Y-10591379D01*
X18453819Y-10611420D01*
X18458067Y-10628852D01*
X18458067Y-10628853D01*
X18478206Y-10664671D01*
X18483846Y-10676025D01*
X18495854Y-10703670D01*
X18500221Y-10713723D01*
X18511541Y-10727636D01*
X18523439Y-10745117D01*
X18532234Y-10760760D01*
X18532236Y-10760761D01*
X18561286Y-10789811D01*
X18569784Y-10799226D01*
X18595722Y-10831108D01*
X18610381Y-10841455D01*
X18626552Y-10855077D01*
X20352578Y-12581102D01*
X20355521Y-12584147D01*
X20399317Y-12631041D01*
X20399317Y-12631042D01*
X20399319Y-12631043D01*
X20399320Y-12631044D01*
X20434439Y-12652399D01*
X20444913Y-12659529D01*
X20477658Y-12684361D01*
X20494353Y-12690944D01*
X20513290Y-12700351D01*
X20528618Y-12709672D01*
X20550436Y-12715785D01*
X20568183Y-12720758D01*
X20580213Y-12724803D01*
X20618436Y-12739876D01*
X20636287Y-12741711D01*
X20657052Y-12745657D01*
X20674335Y-12750500D01*
X20715418Y-12750500D01*
X20728098Y-12751150D01*
X20731178Y-12751466D01*
X20768972Y-12755352D01*
X20786656Y-12752303D01*
X20807724Y-12750500D01*
X41788478Y-12750500D01*
X41792710Y-12750572D01*
X41794674Y-12750639D01*
X41856826Y-12752762D01*
X41896755Y-12743030D01*
X41909192Y-12740667D01*
X41949920Y-12735070D01*
X41966383Y-12727918D01*
X41986416Y-12721181D01*
X42003852Y-12716933D01*
X42039695Y-12696778D01*
X42051015Y-12691157D01*
X42088720Y-12674780D01*
X42102632Y-12663460D01*
X42120123Y-12651557D01*
X42135755Y-12642768D01*
X42135753Y-12642768D01*
X42135759Y-12642766D01*
X42164822Y-12613701D01*
X42174229Y-12605212D01*
X42206108Y-12579278D01*
X42216456Y-12564616D01*
X42230074Y-12548449D01*
X43028523Y-11750000D01*
X51700001Y-11750000D01*
X51700001Y-11812486D01*
X51710494Y-11915197D01*
X51765641Y-12081619D01*
X51765643Y-12081624D01*
X51857684Y-12230845D01*
X51981654Y-12354815D01*
X52130875Y-12446856D01*
X52130880Y-12446858D01*
X52297302Y-12502005D01*
X52297309Y-12502006D01*
X52400019Y-12512499D01*
X52649999Y-12512499D01*
X52650000Y-12512498D01*
X52650000Y-11750000D01*
X53150000Y-11750000D01*
X53150000Y-12512499D01*
X53399972Y-12512499D01*
X53399986Y-12512498D01*
X53502697Y-12502005D01*
X53669119Y-12446858D01*
X53669124Y-12446856D01*
X53818345Y-12354815D01*
X53942315Y-12230845D01*
X54034356Y-12081624D01*
X54034358Y-12081619D01*
X54089505Y-11915197D01*
X54089506Y-11915190D01*
X54099999Y-11812486D01*
X54100000Y-11812473D01*
X54100000Y-11750000D01*
X53150000Y-11750000D01*
X52650000Y-11750000D01*
X51700001Y-11750000D01*
X43028523Y-11750000D01*
X45531130Y-9247392D01*
X45534115Y-9244507D01*
X45581044Y-9200680D01*
X45602391Y-9165572D01*
X45609539Y-9155072D01*
X45634359Y-9122345D01*
X45634359Y-9122344D01*
X45634361Y-9122342D01*
X45640945Y-9105643D01*
X45650344Y-9086719D01*
X45659672Y-9071382D01*
X45670758Y-9031813D01*
X45674802Y-9019787D01*
X45689876Y-8981565D01*
X45691710Y-8963715D01*
X45695659Y-8942941D01*
X45700500Y-8925666D01*
X45700500Y-8884574D01*
X45701150Y-8871894D01*
X45701468Y-8868797D01*
X45705351Y-8831029D01*
X45703242Y-8818796D01*
X45702303Y-8813348D01*
X45700500Y-8792281D01*
X45700500Y-8736571D01*
X45720185Y-8669532D01*
X45772989Y-8623777D01*
X45842147Y-8613833D01*
X45898811Y-8637305D01*
X46007664Y-8718793D01*
X46007671Y-8718797D01*
X46023922Y-8724858D01*
X46142517Y-8769091D01*
X46202127Y-8775500D01*
X46797872Y-8775499D01*
X46857483Y-8769091D01*
X46992331Y-8718796D01*
X47107546Y-8632546D01*
X47193796Y-8517331D01*
X47244091Y-8382483D01*
X47250500Y-8322873D01*
X47250499Y-7879385D01*
X47270183Y-7812347D01*
X47286813Y-7791709D01*
X48391705Y-6686817D01*
X48453028Y-6653333D01*
X48479386Y-6650499D01*
X48660371Y-6650499D01*
X48660372Y-6650499D01*
X48719983Y-6644091D01*
X48854831Y-6593796D01*
X48970046Y-6507546D01*
X49056296Y-6392331D01*
X49106591Y-6257483D01*
X49113000Y-6197873D01*
X49113000Y-6050001D01*
X49402704Y-6050001D01*
X49402899Y-6052486D01*
X49448718Y-6210198D01*
X49532314Y-6351552D01*
X49532321Y-6351561D01*
X49648438Y-6467678D01*
X49648447Y-6467685D01*
X49789803Y-6551282D01*
X49789806Y-6551283D01*
X49947504Y-6597099D01*
X49947510Y-6597100D01*
X49984350Y-6599999D01*
X49984366Y-6600000D01*
X50425000Y-6600000D01*
X50425000Y-6050000D01*
X49402705Y-6050000D01*
X49402704Y-6050001D01*
X49113000Y-6050001D01*
X49112999Y-5202128D01*
X49106843Y-5144864D01*
X49106591Y-5142516D01*
X49056297Y-5007671D01*
X49056293Y-5007664D01*
X48970048Y-4892457D01*
X48970046Y-4892454D01*
X48970042Y-4892451D01*
X48970040Y-4892449D01*
X48950187Y-4877586D01*
X48908317Y-4821651D01*
X48900500Y-4778321D01*
X48900500Y-4474500D01*
X48920185Y-4407461D01*
X48972989Y-4361706D01*
X49024500Y-4350500D01*
X49550762Y-4350500D01*
X49617801Y-4370185D01*
X49663556Y-4422989D01*
X49673500Y-4492147D01*
X49666237Y-4515049D01*
X49667369Y-4515417D01*
X49664352Y-4524698D01*
X49649500Y-4618475D01*
X49649500Y-4981517D01*
X49655354Y-5018474D01*
X49658392Y-5037661D01*
X49660091Y-5048384D01*
X49651135Y-5117678D01*
X49625298Y-5155462D01*
X49532321Y-5248438D01*
X49532314Y-5248447D01*
X49448718Y-5389801D01*
X49402899Y-5547513D01*
X49402704Y-5549998D01*
X49402705Y-5550000D01*
X50801000Y-5550000D01*
X50868039Y-5569685D01*
X50913794Y-5622489D01*
X50925000Y-5674000D01*
X50925000Y-6600000D01*
X51275500Y-6600000D01*
X51342539Y-6619685D01*
X51388294Y-6672489D01*
X51399500Y-6724000D01*
X51399500Y-7473196D01*
X51396862Y-7498634D01*
X51395195Y-7506588D01*
X51394633Y-7509270D01*
X51398548Y-7540675D01*
X51399500Y-7556013D01*
X51399500Y-7556116D01*
X51402918Y-7576603D01*
X51403657Y-7581669D01*
X51410134Y-7633627D01*
X51412373Y-7641147D01*
X51414935Y-7648611D01*
X51439827Y-7694608D01*
X51442171Y-7699161D01*
X51465172Y-7746208D01*
X51469742Y-7752609D01*
X51474581Y-7758826D01*
X51513108Y-7794293D01*
X51516780Y-7797817D01*
X52215481Y-8496518D01*
X52248966Y-8557841D01*
X52250896Y-8599143D01*
X52244722Y-8649997D01*
X52244722Y-8650000D01*
X52263762Y-8806814D01*
X52263763Y-8806818D01*
X52266690Y-8814536D01*
X52272054Y-8884199D01*
X52238904Y-8945704D01*
X52210184Y-8967329D01*
X52207671Y-8968701D01*
X52092455Y-9054952D01*
X52092452Y-9054955D01*
X52006206Y-9170164D01*
X52006202Y-9170171D01*
X51955910Y-9305013D01*
X51955909Y-9305017D01*
X51949500Y-9364627D01*
X51949500Y-9364634D01*
X51949500Y-9364635D01*
X51949500Y-9985370D01*
X51949501Y-9985376D01*
X51955908Y-10044983D01*
X52006202Y-10179828D01*
X52006206Y-10179835D01*
X52092452Y-10295044D01*
X52092455Y-10295047D01*
X52153841Y-10341001D01*
X52195712Y-10396935D01*
X52200696Y-10466626D01*
X52167210Y-10527949D01*
X52136910Y-10549164D01*
X52137025Y-10549351D01*
X52133831Y-10551320D01*
X52131936Y-10552648D01*
X52130885Y-10553137D01*
X51981654Y-10645184D01*
X51857684Y-10769154D01*
X51765643Y-10918375D01*
X51765641Y-10918380D01*
X51710494Y-11084802D01*
X51710493Y-11084809D01*
X51700000Y-11187513D01*
X51700000Y-11250000D01*
X54099999Y-11250000D01*
X54099999Y-11187528D01*
X54099998Y-11187513D01*
X54089505Y-11084802D01*
X54034358Y-10918380D01*
X54034356Y-10918375D01*
X53942315Y-10769154D01*
X53818345Y-10645184D01*
X53669121Y-10553142D01*
X53668068Y-10552651D01*
X53667466Y-10552121D01*
X53662975Y-10549351D01*
X53663448Y-10548583D01*
X53615627Y-10506481D01*
X53596473Y-10439288D01*
X53616686Y-10372406D01*
X53646154Y-10341003D01*
X53707546Y-10295046D01*
X53793796Y-10179831D01*
X53844091Y-10044983D01*
X53850500Y-9985373D01*
X53850499Y-9364628D01*
X53845110Y-9314494D01*
X53844091Y-9305016D01*
X53793797Y-9170171D01*
X53793793Y-9170164D01*
X53707547Y-9054955D01*
X53707544Y-9054952D01*
X53592333Y-8968705D01*
X53589828Y-8967337D01*
X53587808Y-8965317D01*
X53585231Y-8963388D01*
X53585508Y-8963017D01*
X53540422Y-8917933D01*
X53525569Y-8849660D01*
X53533312Y-8814530D01*
X53533760Y-8813348D01*
X53536237Y-8806818D01*
X53555278Y-8650000D01*
X53554739Y-8645556D01*
X53536237Y-8493181D01*
X53509576Y-8422883D01*
X53480220Y-8345477D01*
X53390483Y-8215470D01*
X53336125Y-8167313D01*
X53299000Y-8108126D01*
X53299767Y-8038260D01*
X53338184Y-7979900D01*
X53402054Y-7951575D01*
X53418353Y-7950499D01*
X53897871Y-7950499D01*
X53897872Y-7950499D01*
X53957483Y-7944091D01*
X54092331Y-7893796D01*
X54207546Y-7807546D01*
X54293796Y-7692331D01*
X54344091Y-7557483D01*
X54350500Y-7497873D01*
X54350499Y-6702128D01*
X54344091Y-6642517D01*
X54343409Y-6640689D01*
X54293797Y-6507671D01*
X54293793Y-6507664D01*
X54207547Y-6392455D01*
X54207544Y-6392452D01*
X54092335Y-6306206D01*
X54092328Y-6306202D01*
X53957482Y-6255908D01*
X53957483Y-6255908D01*
X53897883Y-6249501D01*
X53897881Y-6249500D01*
X53897873Y-6249500D01*
X53897864Y-6249500D01*
X52502129Y-6249500D01*
X52502123Y-6249501D01*
X52442515Y-6255909D01*
X52317832Y-6302412D01*
X52248141Y-6307396D01*
X52186818Y-6273910D01*
X52153334Y-6212587D01*
X52150500Y-6186230D01*
X52150500Y-5500895D01*
X52153139Y-5475450D01*
X52154283Y-5469993D01*
X52155367Y-5464824D01*
X52151452Y-5433415D01*
X52150500Y-5418077D01*
X52150500Y-5417981D01*
X52150500Y-5417978D01*
X52147075Y-5397461D01*
X52146341Y-5392417D01*
X52144983Y-5381518D01*
X52139866Y-5340466D01*
X52139864Y-5340462D01*
X52137622Y-5332932D01*
X52135065Y-5325487D01*
X52135065Y-5325482D01*
X52110148Y-5279440D01*
X52107828Y-5274932D01*
X52084826Y-5227881D01*
X52084825Y-5227880D01*
X52084825Y-5227879D01*
X52080276Y-5221508D01*
X52075420Y-5215268D01*
X52075419Y-5215266D01*
X52036892Y-5179799D01*
X52033218Y-5176273D01*
X51736818Y-4879873D01*
X51703333Y-4818550D01*
X51700499Y-4792192D01*
X51700499Y-4618482D01*
X51700340Y-4617476D01*
X51685646Y-4524696D01*
X51628050Y-4411658D01*
X51604072Y-4387680D01*
X51570588Y-4326360D01*
X51575572Y-4256668D01*
X51604072Y-4212319D01*
X51628050Y-4188342D01*
X51685646Y-4075304D01*
X51685646Y-4075302D01*
X51685647Y-4075301D01*
X51700499Y-3981524D01*
X51700500Y-3981519D01*
X51700499Y-3618482D01*
X51685646Y-3524696D01*
X51628050Y-3411658D01*
X51628046Y-3411654D01*
X51628045Y-3411652D01*
X51538347Y-3321954D01*
X51538344Y-3321952D01*
X51538342Y-3321950D01*
X51439068Y-3271367D01*
X51425301Y-3264352D01*
X51331524Y-3249500D01*
X51331519Y-3249500D01*
X50750666Y-3249500D01*
X50750665Y-3249500D01*
X49369080Y-3249500D01*
X49302041Y-3229815D01*
X49256286Y-3177011D01*
X49246342Y-3107853D01*
X49246607Y-3106101D01*
X49250499Y-3081523D01*
X49250500Y-3081519D01*
X49250499Y-2897870D01*
X52049500Y-2897870D01*
X52049501Y-2897876D01*
X52055908Y-2957483D01*
X52106202Y-3092328D01*
X52106206Y-3092335D01*
X52192452Y-3207544D01*
X52192455Y-3207547D01*
X52307664Y-3293793D01*
X52307671Y-3293797D01*
X52442517Y-3344091D01*
X52442516Y-3344091D01*
X52449444Y-3344835D01*
X52502127Y-3350500D01*
X53897872Y-3350499D01*
X53957483Y-3344091D01*
X54092331Y-3293796D01*
X54207546Y-3207546D01*
X54293796Y-3092331D01*
X54344091Y-2957483D01*
X54350500Y-2897873D01*
X54350499Y-2102128D01*
X54344091Y-2042517D01*
X54327371Y-1997689D01*
X54293797Y-1907671D01*
X54293793Y-1907664D01*
X54207547Y-1792455D01*
X54207544Y-1792452D01*
X54092335Y-1706206D01*
X54092328Y-1706202D01*
X53957482Y-1655908D01*
X53957483Y-1655908D01*
X53897883Y-1649501D01*
X53897881Y-1649500D01*
X53897873Y-1649500D01*
X53897864Y-1649500D01*
X52502129Y-1649500D01*
X52502123Y-1649501D01*
X52442516Y-1655908D01*
X52307671Y-1706202D01*
X52307664Y-1706206D01*
X52192455Y-1792452D01*
X52192452Y-1792455D01*
X52106206Y-1907664D01*
X52106202Y-1907671D01*
X52055908Y-2042517D01*
X52053573Y-2064240D01*
X52049501Y-2102123D01*
X52049500Y-2102135D01*
X52049500Y-2897870D01*
X49250499Y-2897870D01*
X49250499Y-2718482D01*
X49235646Y-2624696D01*
X49178050Y-2511658D01*
X49178046Y-2511654D01*
X49178045Y-2511652D01*
X49088347Y-2421954D01*
X49088344Y-2421952D01*
X49088342Y-2421950D01*
X48999758Y-2376814D01*
X48975301Y-2364352D01*
X48881524Y-2349500D01*
X48881519Y-2349500D01*
X48372085Y-2349500D01*
X48359406Y-2348850D01*
X48318531Y-2344648D01*
X48318523Y-2344648D01*
X48300841Y-2347697D01*
X48279775Y-2349500D01*
X47793482Y-2349500D01*
X47716416Y-2361706D01*
X47699696Y-2364354D01*
X47586658Y-2421950D01*
X47586657Y-2421951D01*
X47586652Y-2421954D01*
X47496954Y-2511652D01*
X47496951Y-2511657D01*
X47496950Y-2511658D01*
X47487599Y-2530011D01*
X47439352Y-2624698D01*
X47424500Y-2718475D01*
X47424500Y-3081517D01*
X47435129Y-3148629D01*
X47439354Y-3175304D01*
X47496950Y-3288342D01*
X47496952Y-3288344D01*
X47496954Y-3288347D01*
X47586652Y-3378045D01*
X47586654Y-3378046D01*
X47586658Y-3378050D01*
X47697506Y-3434530D01*
X47699698Y-3435647D01*
X47708980Y-3438663D01*
X47708162Y-3441177D01*
X47758019Y-3464803D01*
X47794959Y-3524109D01*
X47799500Y-3557359D01*
X47799500Y-3776944D01*
X47799211Y-3785406D01*
X47795618Y-3837918D01*
X47795619Y-3837920D01*
X47796906Y-3844113D01*
X47799500Y-3869344D01*
X47799500Y-4778321D01*
X47779815Y-4845360D01*
X47749813Y-4877586D01*
X47729959Y-4892449D01*
X47729951Y-4892457D01*
X47643706Y-5007664D01*
X47643702Y-5007671D01*
X47593408Y-5142517D01*
X47588482Y-5188342D01*
X47587001Y-5202123D01*
X47587000Y-5202135D01*
X47587000Y-5883113D01*
X47567315Y-5950152D01*
X47550680Y-5970795D01*
X47499679Y-6021795D01*
X47438356Y-6055279D01*
X47368664Y-6050294D01*
X47312731Y-6008422D01*
X47288315Y-5942958D01*
X47287999Y-5934133D01*
X47287999Y-5202128D01*
X47281843Y-5144864D01*
X47281591Y-5142516D01*
X47231297Y-5007671D01*
X47231293Y-5007664D01*
X47145047Y-4892455D01*
X47145044Y-4892452D01*
X47029835Y-4806206D01*
X47029828Y-4806202D01*
X46894982Y-4755908D01*
X46894983Y-4755908D01*
X46835383Y-4749501D01*
X46835381Y-4749500D01*
X46835373Y-4749500D01*
X46835365Y-4749500D01*
X46799500Y-4749500D01*
X46732461Y-4729815D01*
X46686706Y-4677011D01*
X46675500Y-4625500D01*
X46675500Y-4474271D01*
X46695185Y-4407232D01*
X46743203Y-4363787D01*
X46813342Y-4328050D01*
X46903050Y-4238342D01*
X46960646Y-4125304D01*
X46960646Y-4125302D01*
X46960647Y-4125301D01*
X46975499Y-4031524D01*
X46975500Y-4031519D01*
X46975499Y-3668482D01*
X46960646Y-3574696D01*
X46903050Y-3461658D01*
X46903046Y-3461654D01*
X46903045Y-3461652D01*
X46813347Y-3371954D01*
X46813344Y-3371952D01*
X46813342Y-3371950D01*
X46729033Y-3328992D01*
X46700301Y-3314352D01*
X46606524Y-3299500D01*
X46606519Y-3299500D01*
X45808880Y-3299500D01*
X45741841Y-3279815D01*
X45696086Y-3227011D01*
X45685784Y-3160554D01*
X45705278Y-3000000D01*
X45705278Y-2999999D01*
X45691794Y-2888946D01*
X45703255Y-2820023D01*
X45750159Y-2768237D01*
X45811562Y-2750937D01*
X45812500Y-2750000D01*
X45812500Y-2200000D01*
X46312500Y-2200000D01*
X46312500Y-2750000D01*
X46640634Y-2750000D01*
X46640649Y-2749999D01*
X46677489Y-2747100D01*
X46677495Y-2747099D01*
X46835193Y-2701283D01*
X46835196Y-2701282D01*
X46976552Y-2617685D01*
X46976561Y-2617678D01*
X47092678Y-2501561D01*
X47092685Y-2501552D01*
X47176281Y-2360198D01*
X47222100Y-2202486D01*
X47222295Y-2200001D01*
X47222295Y-2200000D01*
X46312500Y-2200000D01*
X45812500Y-2200000D01*
X44902704Y-2200000D01*
X44902900Y-2202491D01*
X44902900Y-2202492D01*
X44911261Y-2231273D01*
X44911060Y-2301142D01*
X44873116Y-2359811D01*
X44821867Y-2386260D01*
X44817636Y-2387303D01*
X44817634Y-2387303D01*
X44677762Y-2460715D01*
X44626667Y-2505981D01*
X44574589Y-2552118D01*
X44559516Y-2565471D01*
X44469781Y-2695475D01*
X44469780Y-2695476D01*
X44413762Y-2843181D01*
X44394722Y-2999999D01*
X44394722Y-3000000D01*
X44413762Y-3156818D01*
X44469780Y-3304523D01*
X44469783Y-3304528D01*
X44470154Y-3305066D01*
X44470304Y-3305521D01*
X44473267Y-3311167D01*
X44472328Y-3311659D01*
X44492033Y-3371422D01*
X44474564Y-3439072D01*
X44423293Y-3486539D01*
X44368100Y-3499500D01*
X43655143Y-3499500D01*
X43655117Y-3499502D01*
X43630012Y-3502413D01*
X43630008Y-3502415D01*
X43527235Y-3547793D01*
X43447794Y-3627234D01*
X43402415Y-3730006D01*
X43402415Y-3730008D01*
X43399500Y-3755131D01*
X43399500Y-4344856D01*
X43399502Y-4344882D01*
X43402413Y-4369987D01*
X43402415Y-4369991D01*
X43447793Y-4472764D01*
X43447794Y-4472765D01*
X43527235Y-4552206D01*
X43630009Y-4597585D01*
X43655135Y-4600500D01*
X44744864Y-4600499D01*
X44744879Y-4600497D01*
X44744882Y-4600497D01*
X44769987Y-4597586D01*
X44769988Y-4597585D01*
X44769991Y-4597585D01*
X44872765Y-4552206D01*
X44952206Y-4472765D01*
X44960872Y-4453138D01*
X45005954Y-4399765D01*
X45072740Y-4379236D01*
X45080177Y-4379496D01*
X45081431Y-4379392D01*
X45081432Y-4379391D01*
X45081437Y-4379392D01*
X45081825Y-4379293D01*
X45112263Y-4375500D01*
X45375013Y-4375500D01*
X45414637Y-4385013D01*
X45415412Y-4382630D01*
X45424694Y-4385645D01*
X45424696Y-4385646D01*
X45518481Y-4400500D01*
X45800501Y-4400499D01*
X45867539Y-4420183D01*
X45913294Y-4472987D01*
X45924500Y-4524499D01*
X45924500Y-4825071D01*
X45904815Y-4892110D01*
X45899767Y-4899382D01*
X45818704Y-5007668D01*
X45818702Y-5007671D01*
X45768408Y-5142517D01*
X45763482Y-5188342D01*
X45762001Y-5202123D01*
X45762000Y-5202135D01*
X45762000Y-5981044D01*
X45742315Y-6048083D01*
X45689511Y-6093838D01*
X45620353Y-6103782D01*
X45556797Y-6074757D01*
X45541810Y-6059296D01*
X45529281Y-6043895D01*
X45529280Y-6043894D01*
X45529279Y-6043893D01*
X45529278Y-6043892D01*
X45514612Y-6033539D01*
X45498445Y-6019920D01*
X45047405Y-5568880D01*
X45044463Y-5565836D01*
X45000679Y-5518955D01*
X44965575Y-5497608D01*
X44955079Y-5490464D01*
X44951828Y-5487999D01*
X44935280Y-5475450D01*
X44922341Y-5465638D01*
X44922342Y-5465638D01*
X44905642Y-5459052D01*
X44886716Y-5449652D01*
X44871380Y-5440327D01*
X44837422Y-5430812D01*
X44820794Y-5424846D01*
X44769991Y-5402415D01*
X44744868Y-5399500D01*
X44744865Y-5399500D01*
X44725665Y-5399500D01*
X44684582Y-5399500D01*
X44671902Y-5398850D01*
X44631029Y-5394648D01*
X44631024Y-5394648D01*
X44613344Y-5397697D01*
X44592276Y-5399500D01*
X43655143Y-5399500D01*
X43655117Y-5399502D01*
X43630012Y-5402413D01*
X43630008Y-5402415D01*
X43527235Y-5447793D01*
X43447794Y-5527234D01*
X43402415Y-5630006D01*
X43402415Y-5630008D01*
X43399500Y-5655131D01*
X43399500Y-6244856D01*
X43399502Y-6244882D01*
X43402413Y-6269987D01*
X43402415Y-6269991D01*
X43447793Y-6372764D01*
X43447794Y-6372765D01*
X43527235Y-6452206D01*
X43630009Y-6497585D01*
X43655135Y-6500500D01*
X44109892Y-6500499D01*
X44109902Y-6500500D01*
X44124335Y-6500500D01*
X44370613Y-6500500D01*
X44437652Y-6520185D01*
X44458294Y-6536819D01*
X44563181Y-6641706D01*
X44596666Y-6703029D01*
X44599500Y-6729387D01*
X44599500Y-7776944D01*
X44599211Y-7785406D01*
X44595618Y-7837918D01*
X44595619Y-7837920D01*
X44596906Y-7844113D01*
X44599500Y-7869344D01*
X44599500Y-8570613D01*
X44579815Y-8637652D01*
X44563181Y-8658294D01*
X41608294Y-11613181D01*
X41546971Y-11646666D01*
X41520613Y-11649500D01*
X21029386Y-11649500D01*
X20962347Y-11629815D01*
X20941705Y-11613181D01*
X19561819Y-10233294D01*
X19528334Y-10171971D01*
X19525500Y-10145613D01*
X19525500Y-9328955D01*
X19545185Y-9261916D01*
X19597989Y-9216161D01*
X19667147Y-9206217D01*
X19685347Y-9210916D01*
X19685351Y-9210901D01*
X19846014Y-9250500D01*
X19846015Y-9250500D01*
X20003985Y-9250500D01*
X20157365Y-9212696D01*
X20160785Y-9210901D01*
X20297240Y-9139283D01*
X20415483Y-9034530D01*
X20505220Y-8904523D01*
X20561237Y-8756818D01*
X20580278Y-8600000D01*
X20577116Y-8573954D01*
X20561237Y-8443181D01*
X20526087Y-8350500D01*
X20505220Y-8295477D01*
X20463996Y-8235753D01*
X20442113Y-8169398D01*
X20452612Y-8115227D01*
X20472583Y-8069995D01*
X20472585Y-8069991D01*
X20475500Y-8044865D01*
X20475499Y-6955136D01*
X20473533Y-6938181D01*
X20472586Y-6930012D01*
X20472585Y-6930010D01*
X20472585Y-6930009D01*
X20427206Y-6827235D01*
X20347765Y-6747794D01*
X20347763Y-6747793D01*
X20244992Y-6702415D01*
X20219865Y-6699500D01*
X19630143Y-6699500D01*
X19630117Y-6699502D01*
X19605013Y-6702413D01*
X19603618Y-6703029D01*
X19502238Y-6747793D01*
X19500086Y-6748743D01*
X19430807Y-6757814D01*
X19399914Y-6748743D01*
X19397765Y-6747794D01*
X19294991Y-6702415D01*
X19269865Y-6699500D01*
X18680143Y-6699500D01*
X18680117Y-6699502D01*
X18655013Y-6702413D01*
X18653618Y-6703029D01*
X18552238Y-6747793D01*
X18550086Y-6748743D01*
X18480807Y-6757814D01*
X18449914Y-6748743D01*
X18447765Y-6747794D01*
X18344991Y-6702415D01*
X18319865Y-6699500D01*
X17730143Y-6699500D01*
X17730117Y-6699502D01*
X17705012Y-6702413D01*
X17705008Y-6702415D01*
X17602235Y-6747793D01*
X17522794Y-6827234D01*
X17477415Y-6930006D01*
X17477415Y-6930008D01*
X17474500Y-6955131D01*
X17474500Y-8044856D01*
X17474502Y-8044882D01*
X17477413Y-8069987D01*
X17477415Y-8069991D01*
X17522793Y-8172764D01*
X17610360Y-8260331D01*
X17607921Y-8262769D01*
X17639755Y-8301759D01*
X17649500Y-8349944D01*
X17649500Y-8702092D01*
X17629815Y-8769131D01*
X17607728Y-8794906D01*
X17604150Y-8798076D01*
X17584517Y-8815469D01*
X17584515Y-8815472D01*
X17494781Y-8945475D01*
X17494780Y-8945476D01*
X17438762Y-9093181D01*
X17419722Y-9249999D01*
X17419722Y-9250000D01*
X17037065Y-9250000D01*
X17055278Y-9100000D01*
X17052752Y-9079192D01*
X17036237Y-8943181D01*
X16989064Y-8818797D01*
X16980220Y-8795477D01*
X16980219Y-8795475D01*
X16979857Y-8794521D01*
X16974490Y-8724858D01*
X16996533Y-8676239D01*
X17019500Y-8645558D01*
X17019499Y-8645558D01*
X17019503Y-8645554D01*
X17069171Y-8512391D01*
X17071536Y-8490383D01*
X17075499Y-8453537D01*
X17075499Y-8453526D01*
X17075500Y-8453521D01*
X17075499Y-7446480D01*
X17069171Y-7387609D01*
X17065264Y-7377135D01*
X17043446Y-7318640D01*
X17019503Y-7254446D01*
X16934331Y-7140669D01*
X16849443Y-7077123D01*
X16820556Y-7055498D01*
X16820554Y-7055497D01*
X16687391Y-7005829D01*
X16687389Y-7005828D01*
X16687387Y-7005828D01*
X16628529Y-6999500D01*
X16046482Y-6999500D01*
X16046473Y-6999501D01*
X15987608Y-7005828D01*
X15854445Y-7055497D01*
X15740669Y-7140669D01*
X15655498Y-7254443D01*
X15605828Y-7387612D01*
X15599500Y-7446462D01*
X15599500Y-8453517D01*
X15200500Y-8453517D01*
X15200499Y-7446480D01*
X15194171Y-7387609D01*
X15190264Y-7377135D01*
X15168446Y-7318640D01*
X15144503Y-7254446D01*
X15059331Y-7140669D01*
X15059329Y-7140667D01*
X15054016Y-7133570D01*
X15056068Y-7132033D01*
X15029045Y-7082545D01*
X15034029Y-7012853D01*
X15062530Y-6968506D01*
X15133363Y-6897673D01*
X15303892Y-6727144D01*
X15323741Y-6711025D01*
X15332836Y-6705084D01*
X15352272Y-6680110D01*
X15362450Y-6668587D01*
X15362520Y-6668518D01*
X15374607Y-6651586D01*
X15377666Y-6647485D01*
X15395495Y-6624579D01*
X15409809Y-6606189D01*
X15409811Y-6606182D01*
X15413547Y-6599280D01*
X15417003Y-6592207D01*
X15417010Y-6592199D01*
X15431955Y-6541995D01*
X15433483Y-6537224D01*
X15450500Y-6487660D01*
X15450500Y-6487656D01*
X15451790Y-6479924D01*
X15452768Y-6472085D01*
X15450606Y-6419807D01*
X15450500Y-6414683D01*
X15450500Y-5579500D01*
X15470185Y-5512461D01*
X15522989Y-5466706D01*
X15574500Y-5455500D01*
X17390218Y-5455500D01*
X17457257Y-5475185D01*
X17503012Y-5527989D01*
X17503652Y-5529413D01*
X17512741Y-5549998D01*
X17522794Y-5572765D01*
X17602235Y-5652206D01*
X17705009Y-5697585D01*
X17730135Y-5700500D01*
X18319864Y-5700499D01*
X18319879Y-5700497D01*
X18319882Y-5700497D01*
X18344987Y-5697586D01*
X18344988Y-5697585D01*
X18344991Y-5697585D01*
X18447765Y-5652206D01*
X18527206Y-5572765D01*
X18572585Y-5469991D01*
X18575500Y-5444865D01*
X18575499Y-4355136D01*
X18574992Y-4350764D01*
X18572586Y-4330012D01*
X18572584Y-4330008D01*
X18569027Y-4321950D01*
X18566065Y-4315241D01*
X18555500Y-4265157D01*
X18555500Y-3924000D01*
X18549661Y-3869687D01*
X18538455Y-3818176D01*
X18531219Y-3791802D01*
X18531216Y-3791796D01*
X18481894Y-3705181D01*
X18481890Y-3705176D01*
X18481888Y-3705172D01*
X18442047Y-3659193D01*
X18436136Y-3652371D01*
X18408108Y-3625326D01*
X18403359Y-3620743D01*
X18315024Y-3574535D01*
X18315023Y-3574534D01*
X18315022Y-3574534D01*
X18315022Y-3574533D01*
X18247990Y-3554851D01*
X18247978Y-3554848D01*
X18176001Y-3544500D01*
X18176000Y-3544500D01*
X16279500Y-3544500D01*
X16212461Y-3524815D01*
X16166706Y-3472011D01*
X16155500Y-3420500D01*
X16155500Y-2474500D01*
X16175185Y-2407461D01*
X16227989Y-2361706D01*
X16279500Y-2350500D01*
X20844271Y-2350500D01*
X20911310Y-2370185D01*
X20957065Y-2422989D01*
X20967009Y-2492147D01*
X20960453Y-2517832D01*
X20955910Y-2530011D01*
X20955909Y-2530015D01*
X20955909Y-2530017D01*
X20949500Y-2589627D01*
X20949500Y-2589634D01*
X20949500Y-2589635D01*
X20949500Y-3168098D01*
X20929815Y-3235137D01*
X20913181Y-3255779D01*
X20105779Y-4063181D01*
X20044456Y-4096666D01*
X20018098Y-4099500D01*
X19630143Y-4099500D01*
X19630117Y-4099502D01*
X19605012Y-4102413D01*
X19605008Y-4102415D01*
X19502235Y-4147793D01*
X19422794Y-4227234D01*
X19377415Y-4330006D01*
X19377415Y-4330008D01*
X19374500Y-4355131D01*
X19374500Y-5444856D01*
X19374502Y-5444882D01*
X19377413Y-5469987D01*
X19377415Y-5469991D01*
X19422793Y-5572764D01*
X19422794Y-5572765D01*
X19502235Y-5652206D01*
X19605009Y-5697585D01*
X19630135Y-5700500D01*
X20219864Y-5700499D01*
X20219879Y-5700497D01*
X20219882Y-5700497D01*
X20244987Y-5697586D01*
X20244988Y-5697585D01*
X20244991Y-5697585D01*
X20347765Y-5652206D01*
X20427206Y-5572765D01*
X20472585Y-5469991D01*
X20475500Y-5444865D01*
X20475499Y-4806897D01*
X20495183Y-4739859D01*
X20511813Y-4719222D01*
X20737821Y-4493214D01*
X20799142Y-4459731D01*
X20868834Y-4464715D01*
X20924767Y-4506587D01*
X20949184Y-4572051D01*
X20949500Y-4580897D01*
X20949500Y-5035370D01*
X20949501Y-5035376D01*
X20955908Y-5094983D01*
X21006202Y-5229828D01*
X21006206Y-5229835D01*
X21092452Y-5345044D01*
X21092455Y-5345047D01*
X21207664Y-5431293D01*
X21207666Y-5431294D01*
X21207669Y-5431296D01*
X21219600Y-5435746D01*
X21231187Y-5440068D01*
X21287120Y-5481940D01*
X21311537Y-5547404D01*
X21296685Y-5615677D01*
X21247279Y-5665082D01*
X21231187Y-5672432D01*
X21207670Y-5681203D01*
X21207664Y-5681206D01*
X21092455Y-5767452D01*
X21092452Y-5767455D01*
X21006206Y-5882664D01*
X21006202Y-5882671D01*
X20955910Y-6017513D01*
X20955909Y-6017517D01*
X20949500Y-6077127D01*
X20949500Y-6077134D01*
X20949500Y-6077135D01*
X20949500Y-6697870D01*
X20949501Y-6697876D01*
X20955908Y-6757483D01*
X21006202Y-6892328D01*
X21006206Y-6892335D01*
X21092452Y-7007544D01*
X21092455Y-7007547D01*
X21207664Y-7093793D01*
X21207671Y-7093797D01*
X21342517Y-7144091D01*
X21342516Y-7144091D01*
X21349444Y-7144835D01*
X21402127Y-7150500D01*
X22397872Y-7150499D01*
X22457483Y-7144091D01*
X22592331Y-7093796D01*
X22707546Y-7007546D01*
X22793796Y-6892331D01*
X22844091Y-6757483D01*
X22850500Y-6697873D01*
X22850499Y-6077128D01*
X22844091Y-6017517D01*
X22840506Y-6007906D01*
X22793797Y-5882671D01*
X22793793Y-5882664D01*
X22707547Y-5767455D01*
X22707544Y-5767452D01*
X22592335Y-5681206D01*
X22592328Y-5681202D01*
X22568813Y-5672432D01*
X22512879Y-5630561D01*
X22488462Y-5565097D01*
X22503313Y-5496824D01*
X22552718Y-5447418D01*
X22568813Y-5440068D01*
X22592328Y-5431297D01*
X22592327Y-5431297D01*
X22592331Y-5431296D01*
X22707546Y-5345046D01*
X22793796Y-5229831D01*
X22844091Y-5094983D01*
X22850500Y-5035373D01*
X22850499Y-4581897D01*
X22870183Y-4514859D01*
X22886813Y-4494222D01*
X22898976Y-4482059D01*
X22960297Y-4448576D01*
X23016332Y-4449346D01*
X23017071Y-4449528D01*
X23021013Y-4450499D01*
X23021014Y-4450500D01*
X23021015Y-4450500D01*
X23178985Y-4450500D01*
X23332365Y-4412696D01*
X23467876Y-4341573D01*
X23536381Y-4327848D01*
X23601435Y-4353340D01*
X23642380Y-4409955D01*
X23649500Y-4451369D01*
X23649500Y-4647869D01*
X23649501Y-4647876D01*
X23655908Y-4707483D01*
X23706202Y-4842328D01*
X23706206Y-4842335D01*
X23792452Y-4957544D01*
X23792455Y-4957547D01*
X23907664Y-5043793D01*
X23907671Y-5043797D01*
X24042517Y-5094091D01*
X24042516Y-5094091D01*
X24049444Y-5094835D01*
X24102127Y-5100500D01*
X25329191Y-5100499D01*
X25396230Y-5120184D01*
X25416872Y-5136818D01*
X25713181Y-5433127D01*
X25746666Y-5494450D01*
X25749500Y-5520808D01*
X25749500Y-7540920D01*
X25749501Y-7540937D01*
X25749776Y-7543117D01*
X25750462Y-7567098D01*
X25745618Y-7637917D01*
X25745619Y-7637920D01*
X25745619Y-7637921D01*
X25746289Y-7641147D01*
X25746906Y-7644113D01*
X25749500Y-7669344D01*
X25749500Y-9314494D01*
X25747732Y-9330505D01*
X25747974Y-9330528D01*
X25747240Y-9338294D01*
X25749439Y-9408262D01*
X25749500Y-9412157D01*
X25749500Y-9440920D01*
X25749501Y-9440938D01*
X25750053Y-9445311D01*
X25750968Y-9456941D01*
X25752402Y-9502567D01*
X25752403Y-9502570D01*
X25758323Y-9522948D01*
X25762268Y-9541996D01*
X25764928Y-9563054D01*
X25764931Y-9563065D01*
X25781737Y-9605514D01*
X25785520Y-9616563D01*
X25798254Y-9660395D01*
X25798255Y-9660397D01*
X25809060Y-9678666D01*
X25817617Y-9696134D01*
X25823226Y-9710300D01*
X25825432Y-9715872D01*
X25852266Y-9752806D01*
X25858678Y-9762568D01*
X25881919Y-9801865D01*
X25881923Y-9801869D01*
X25896925Y-9816871D01*
X25909563Y-9831669D01*
X25922033Y-9848833D01*
X25922036Y-9848837D01*
X25957213Y-9877937D01*
X25965854Y-9885800D01*
X26579564Y-10499510D01*
X26589635Y-10512080D01*
X26589822Y-10511926D01*
X26594795Y-10517937D01*
X26645832Y-10565864D01*
X26648629Y-10568575D01*
X26668967Y-10588913D01*
X26672450Y-10591615D01*
X26681326Y-10599196D01*
X26694344Y-10611420D01*
X26714607Y-10630448D01*
X26714609Y-10630449D01*
X26733205Y-10640672D01*
X26749470Y-10651357D01*
X26766232Y-10664360D01*
X26766235Y-10664361D01*
X26766236Y-10664362D01*
X26808140Y-10682495D01*
X26818612Y-10687625D01*
X26858632Y-10709627D01*
X26874340Y-10713659D01*
X26879186Y-10714904D01*
X26897598Y-10721207D01*
X26917073Y-10729635D01*
X26962174Y-10736777D01*
X26973589Y-10739142D01*
X27017823Y-10750500D01*
X27039050Y-10750500D01*
X27058447Y-10752026D01*
X27079404Y-10755346D01*
X27124852Y-10751049D01*
X27136520Y-10750500D01*
X29508089Y-10750500D01*
X29575128Y-10770185D01*
X29580976Y-10774182D01*
X29672407Y-10840612D01*
X29835733Y-10913329D01*
X30010609Y-10950500D01*
X30010610Y-10950500D01*
X30189389Y-10950500D01*
X30189391Y-10950500D01*
X30364267Y-10913329D01*
X30527593Y-10840612D01*
X30672230Y-10735526D01*
X30672235Y-10735521D01*
X30711847Y-10691528D01*
X30771334Y-10654879D01*
X30803997Y-10650500D01*
X33488478Y-10650500D01*
X33492710Y-10650572D01*
X33494674Y-10650639D01*
X33556826Y-10652762D01*
X33596755Y-10643030D01*
X33609192Y-10640667D01*
X33649920Y-10635070D01*
X33666383Y-10627918D01*
X33686416Y-10621181D01*
X33703852Y-10616933D01*
X33739695Y-10596778D01*
X33751015Y-10591157D01*
X33788720Y-10574780D01*
X33802632Y-10563460D01*
X33820123Y-10551557D01*
X33835755Y-10542768D01*
X33835753Y-10542768D01*
X33835759Y-10542766D01*
X33864822Y-10513701D01*
X33874229Y-10505212D01*
X33906108Y-10479278D01*
X33916456Y-10464616D01*
X33930074Y-10448449D01*
X34981145Y-9397378D01*
X34984130Y-9394493D01*
X35031044Y-9350680D01*
X35052392Y-9315572D01*
X35059525Y-9305091D01*
X35084361Y-9272342D01*
X35090943Y-9255648D01*
X35100344Y-9236719D01*
X35109672Y-9221382D01*
X35120760Y-9181805D01*
X35124800Y-9169792D01*
X35139876Y-9131564D01*
X35141711Y-9113716D01*
X35145658Y-9092944D01*
X35150500Y-9075665D01*
X35150500Y-9034581D01*
X35151150Y-9021901D01*
X35151375Y-9019703D01*
X35155352Y-8981028D01*
X35152303Y-8963343D01*
X35150500Y-8942275D01*
X35150500Y-7386989D01*
X35170185Y-7319950D01*
X35222989Y-7274195D01*
X35224295Y-7273607D01*
X35272765Y-7252206D01*
X35352206Y-7172765D01*
X35397585Y-7069991D01*
X35400500Y-7044865D01*
X35400499Y-6455136D01*
X35399310Y-6444882D01*
X35397586Y-6430012D01*
X35397585Y-6430010D01*
X35397585Y-6430009D01*
X35352206Y-6327235D01*
X35272765Y-6247794D01*
X35245977Y-6235966D01*
X35169992Y-6202415D01*
X35144868Y-6199500D01*
X35144865Y-6199500D01*
X34623060Y-6199500D01*
X34614598Y-6199211D01*
X34562083Y-6195619D01*
X34562075Y-6195619D01*
X34555879Y-6196907D01*
X34530655Y-6199500D01*
X34055143Y-6199500D01*
X34055117Y-6199502D01*
X34030012Y-6202413D01*
X34030008Y-6202415D01*
X33927235Y-6247793D01*
X33847794Y-6327234D01*
X33802415Y-6430006D01*
X33802415Y-6430008D01*
X33799500Y-6455131D01*
X33799500Y-7044856D01*
X33799502Y-7044882D01*
X33802413Y-7069987D01*
X33802415Y-7069991D01*
X33847793Y-7172764D01*
X33847794Y-7172765D01*
X33927235Y-7252206D01*
X33975588Y-7273556D01*
X34028962Y-7318640D01*
X34049490Y-7385426D01*
X34049500Y-7386989D01*
X34049500Y-8720613D01*
X34029815Y-8787652D01*
X34013181Y-8808294D01*
X33308294Y-9513181D01*
X33246971Y-9546666D01*
X33220613Y-9549500D01*
X30803997Y-9549500D01*
X30736958Y-9529815D01*
X30711847Y-9508472D01*
X30672235Y-9464478D01*
X30672232Y-9464476D01*
X30672231Y-9464475D01*
X30672230Y-9464474D01*
X30527593Y-9359388D01*
X30364267Y-9286671D01*
X30364265Y-9286670D01*
X30236594Y-9259533D01*
X30189391Y-9249500D01*
X30010609Y-9249500D01*
X29981647Y-9255656D01*
X29835733Y-9286670D01*
X29835728Y-9286672D01*
X29672408Y-9359388D01*
X29672403Y-9359390D01*
X29580974Y-9425818D01*
X29515168Y-9449298D01*
X29508089Y-9449500D01*
X27420808Y-9449500D01*
X27353769Y-9429815D01*
X27333127Y-9413181D01*
X27086819Y-9166873D01*
X27053334Y-9105550D01*
X27050500Y-9079192D01*
X27050500Y-8697243D01*
X27070185Y-8630204D01*
X27122989Y-8584449D01*
X27187755Y-8573954D01*
X27202127Y-8575500D01*
X27797872Y-8575499D01*
X27857483Y-8569091D01*
X27992331Y-8518796D01*
X28107546Y-8432546D01*
X28193796Y-8317331D01*
X28244091Y-8182483D01*
X28250500Y-8122873D01*
X28250499Y-7077128D01*
X28244091Y-7017517D01*
X28242351Y-7012853D01*
X28193797Y-6882671D01*
X28193793Y-6882664D01*
X28107547Y-6767455D01*
X28107544Y-6767452D01*
X28065392Y-6735897D01*
X28023521Y-6679964D01*
X28018537Y-6610272D01*
X28037653Y-6566191D01*
X28078047Y-6507671D01*
X28080218Y-6504526D01*
X28080218Y-6504525D01*
X28080220Y-6504523D01*
X28136237Y-6356818D01*
X28155278Y-6200000D01*
X28146407Y-6126943D01*
X28157867Y-6058023D01*
X28204771Y-6006236D01*
X28269499Y-5987999D01*
X28581518Y-5987999D01*
X28675304Y-5973146D01*
X28788342Y-5915550D01*
X28878050Y-5825842D01*
X28935646Y-5712804D01*
X28935646Y-5712802D01*
X28935647Y-5712801D01*
X28950500Y-5619024D01*
X28950500Y-5330899D01*
X28970185Y-5263860D01*
X29022989Y-5218105D01*
X29092147Y-5208161D01*
X29155703Y-5237186D01*
X29162181Y-5243218D01*
X30463181Y-6544218D01*
X30496666Y-6605541D01*
X30499500Y-6631899D01*
X30499500Y-7444856D01*
X30499502Y-7444882D01*
X30502413Y-7469987D01*
X30502415Y-7469991D01*
X30547793Y-7572764D01*
X30547794Y-7572765D01*
X30627235Y-7652206D01*
X30730009Y-7697585D01*
X30755135Y-7700500D01*
X31344864Y-7700499D01*
X31344879Y-7700497D01*
X31344882Y-7700497D01*
X31369987Y-7697586D01*
X31369988Y-7697585D01*
X31369991Y-7697585D01*
X31472765Y-7652206D01*
X31552206Y-7572765D01*
X31597585Y-7469991D01*
X31600500Y-7444865D01*
X31600499Y-6355136D01*
X31600497Y-6355117D01*
X31597586Y-6330012D01*
X31597585Y-6330010D01*
X31597585Y-6330009D01*
X31552206Y-6227235D01*
X31472765Y-6147794D01*
X31454364Y-6139669D01*
X31369992Y-6102415D01*
X31344868Y-6099500D01*
X31344865Y-6099500D01*
X31131899Y-6099500D01*
X31064860Y-6079815D01*
X31044218Y-6063181D01*
X30143219Y-5162181D01*
X30109734Y-5100858D01*
X30114718Y-5031166D01*
X30156590Y-4975233D01*
X30222054Y-4950816D01*
X30230900Y-4950500D01*
X30378984Y-4950500D01*
X30378985Y-4950500D01*
X30428647Y-4938259D01*
X30498449Y-4941328D01*
X30546004Y-4970975D01*
X30547794Y-4972765D01*
X30627235Y-5052206D01*
X30730009Y-5097585D01*
X30755135Y-5100500D01*
X31344864Y-5100499D01*
X31344879Y-5100497D01*
X31344882Y-5100497D01*
X31369987Y-5097586D01*
X31369987Y-5097585D01*
X31369991Y-5097585D01*
X31472765Y-5052206D01*
X31472766Y-5052204D01*
X31474912Y-5051257D01*
X31544190Y-5042185D01*
X31575085Y-5051257D01*
X31680004Y-5097583D01*
X31680009Y-5097585D01*
X31705135Y-5100500D01*
X31818100Y-5100499D01*
X31885139Y-5120183D01*
X31905781Y-5136818D01*
X32538181Y-5769218D01*
X32571666Y-5830541D01*
X32574500Y-5856899D01*
X32574500Y-6050054D01*
X32554815Y-6117093D01*
X32534111Y-6138420D01*
X32535360Y-6139669D01*
X32447793Y-6227236D01*
X32402415Y-6330006D01*
X32402415Y-6330008D01*
X32399500Y-6355131D01*
X32399500Y-7444856D01*
X32399502Y-7444882D01*
X32402413Y-7469987D01*
X32402415Y-7469991D01*
X32447793Y-7572764D01*
X32447794Y-7572765D01*
X32527235Y-7652206D01*
X32630009Y-7697585D01*
X32655135Y-7700500D01*
X33244864Y-7700499D01*
X33244879Y-7700497D01*
X33244882Y-7700497D01*
X33269987Y-7697586D01*
X33269988Y-7697585D01*
X33269991Y-7697585D01*
X33372765Y-7652206D01*
X33452206Y-7572765D01*
X33497585Y-7469991D01*
X33500500Y-7444865D01*
X33500499Y-6355136D01*
X33500497Y-6355117D01*
X33497586Y-6330012D01*
X33497585Y-6330010D01*
X33497585Y-6330009D01*
X33452206Y-6227235D01*
X33372765Y-6147794D01*
X33372764Y-6147793D01*
X33364640Y-6139669D01*
X33367075Y-6137233D01*
X33335230Y-6098203D01*
X33325500Y-6050054D01*
X33325500Y-5701804D01*
X33328139Y-5676359D01*
X33328962Y-5672432D01*
X33330367Y-5665732D01*
X33326452Y-5634322D01*
X33325500Y-5618985D01*
X33325500Y-5618889D01*
X33325500Y-5618886D01*
X33322075Y-5598369D01*
X33321341Y-5593325D01*
X33320591Y-5587304D01*
X33314866Y-5541374D01*
X33314864Y-5541370D01*
X33312622Y-5533840D01*
X33310065Y-5526395D01*
X33310065Y-5526390D01*
X33285148Y-5480348D01*
X33282828Y-5475840D01*
X33259826Y-5428789D01*
X33259825Y-5428788D01*
X33259825Y-5428787D01*
X33255276Y-5422416D01*
X33250420Y-5416176D01*
X33250419Y-5416174D01*
X33211892Y-5380707D01*
X33208218Y-5377181D01*
X33143217Y-5312180D01*
X33109732Y-5250857D01*
X33114716Y-5181165D01*
X33141897Y-5144856D01*
X33799500Y-5144856D01*
X33799502Y-5144882D01*
X33802413Y-5169987D01*
X33802415Y-5169991D01*
X33847793Y-5272764D01*
X33847794Y-5272765D01*
X33927235Y-5352206D01*
X34030009Y-5397585D01*
X34055135Y-5400500D01*
X35144864Y-5400499D01*
X35144879Y-5400497D01*
X35144882Y-5400497D01*
X35169987Y-5397586D01*
X35169988Y-5397585D01*
X35169991Y-5397585D01*
X35272765Y-5352206D01*
X35352206Y-5272765D01*
X35397585Y-5169991D01*
X35400500Y-5144865D01*
X35400499Y-4555136D01*
X35400159Y-4552205D01*
X35397586Y-4530012D01*
X35397585Y-4530010D01*
X35397585Y-4530009D01*
X35352206Y-4427235D01*
X35272765Y-4347794D01*
X35258678Y-4341574D01*
X35169992Y-4302415D01*
X35144865Y-4299500D01*
X34055143Y-4299500D01*
X34055117Y-4299502D01*
X34030012Y-4302413D01*
X34030008Y-4302415D01*
X33927235Y-4347793D01*
X33847794Y-4427234D01*
X33802415Y-4530006D01*
X33802415Y-4530008D01*
X33799500Y-4555131D01*
X33799500Y-5144856D01*
X33141897Y-5144856D01*
X33156588Y-5125232D01*
X33222052Y-5100815D01*
X33230898Y-5100499D01*
X33244856Y-5100499D01*
X33244864Y-5100499D01*
X33244879Y-5100497D01*
X33244882Y-5100497D01*
X33269987Y-5097586D01*
X33269988Y-5097585D01*
X33269991Y-5097585D01*
X33372765Y-5052206D01*
X33452206Y-4972765D01*
X33497585Y-4869991D01*
X33500500Y-4844865D01*
X33500499Y-3755136D01*
X33500497Y-3755117D01*
X33497586Y-3730012D01*
X33497585Y-3730010D01*
X33497585Y-3730009D01*
X33452206Y-3627235D01*
X33372765Y-3547794D01*
X33372764Y-3547793D01*
X33364640Y-3539669D01*
X33367075Y-3537233D01*
X33335230Y-3498203D01*
X33325500Y-3450054D01*
X33325500Y-3314141D01*
X33345185Y-3247102D01*
X33397989Y-3201347D01*
X33406149Y-3197966D01*
X33417331Y-3193796D01*
X33532546Y-3107546D01*
X33618796Y-2992331D01*
X33618798Y-2992326D01*
X33633818Y-2952056D01*
X33675688Y-2896122D01*
X33741153Y-2871704D01*
X33809426Y-2886555D01*
X33858832Y-2935960D01*
X33866182Y-2952056D01*
X33881201Y-2992326D01*
X33881206Y-2992335D01*
X33967452Y-3107544D01*
X33967455Y-3107547D01*
X34082664Y-3193793D01*
X34082671Y-3193797D01*
X34093825Y-3197957D01*
X34217517Y-3244091D01*
X34277127Y-3250500D01*
X34897872Y-3250499D01*
X34957483Y-3244091D01*
X35092331Y-3193796D01*
X35207546Y-3107546D01*
X35293796Y-2992331D01*
X35344091Y-2857483D01*
X35350500Y-2797873D01*
X35350499Y-1802128D01*
X35344091Y-1742517D01*
X35330548Y-1706206D01*
X35316050Y-1667332D01*
X35311066Y-1597641D01*
X35344552Y-1536318D01*
X35405875Y-1502834D01*
X35432232Y-1500000D01*
X37342768Y-1500000D01*
X37409807Y-1519685D01*
X37455562Y-1572489D01*
X37465506Y-1641647D01*
X37458950Y-1667332D01*
X37430909Y-1742514D01*
X37430908Y-1742516D01*
X37426554Y-1783019D01*
X37424501Y-1802123D01*
X37424500Y-1802135D01*
X37424500Y-2797870D01*
X37424501Y-2797876D01*
X37430908Y-2857483D01*
X37481202Y-2992328D01*
X37481203Y-2992330D01*
X37509222Y-3029758D01*
X37533639Y-3095222D01*
X37518788Y-3163495D01*
X37469383Y-3212901D01*
X37401110Y-3227753D01*
X37380281Y-3224466D01*
X37278986Y-3199500D01*
X37278985Y-3199500D01*
X37121015Y-3199500D01*
X37121014Y-3199500D01*
X36967634Y-3237303D01*
X36827762Y-3310715D01*
X36709516Y-3415471D01*
X36619781Y-3545475D01*
X36619780Y-3545476D01*
X36563762Y-3693181D01*
X36544722Y-3849999D01*
X36544722Y-3850000D01*
X36563762Y-4006818D01*
X36617228Y-4147793D01*
X36619780Y-4154523D01*
X36619782Y-4154526D01*
X36623067Y-4160784D01*
X36636792Y-4229293D01*
X36611299Y-4294346D01*
X36563358Y-4331844D01*
X36546511Y-4339283D01*
X36527238Y-4347793D01*
X36527233Y-4347795D01*
X36447794Y-4427234D01*
X36402415Y-4530006D01*
X36402415Y-4530008D01*
X36399500Y-4555131D01*
X36399500Y-5144856D01*
X36399502Y-5144882D01*
X36402413Y-5169987D01*
X36402415Y-5169991D01*
X36447793Y-5272764D01*
X36447794Y-5272765D01*
X36527235Y-5352206D01*
X36630009Y-5397585D01*
X36655135Y-5400500D01*
X37744864Y-5400499D01*
X37744879Y-5400497D01*
X37744882Y-5400497D01*
X37769987Y-5397586D01*
X37769988Y-5397585D01*
X37769991Y-5397585D01*
X37872765Y-5352206D01*
X37952206Y-5272765D01*
X37997585Y-5169991D01*
X38000500Y-5144865D01*
X38000499Y-4555136D01*
X38000159Y-4552205D01*
X37997586Y-4530012D01*
X37997585Y-4530010D01*
X37997585Y-4530009D01*
X37952206Y-4427235D01*
X37872765Y-4347794D01*
X37836642Y-4331844D01*
X37783266Y-4286757D01*
X37762740Y-4219970D01*
X37776933Y-4160784D01*
X37780213Y-4154532D01*
X37780220Y-4154523D01*
X37836237Y-4006818D01*
X37855278Y-3850000D01*
X37854594Y-3844370D01*
X37836237Y-3693182D01*
X37835921Y-3692349D01*
X37811411Y-3627723D01*
X37806045Y-3558061D01*
X37839192Y-3496555D01*
X37900330Y-3462734D01*
X37970048Y-3467335D01*
X38015035Y-3496072D01*
X38238181Y-3719218D01*
X38271666Y-3780541D01*
X38274500Y-3806899D01*
X38274500Y-5048196D01*
X38271862Y-5073634D01*
X38271513Y-5075304D01*
X38269633Y-5084270D01*
X38273548Y-5115675D01*
X38274500Y-5131013D01*
X38274500Y-5131116D01*
X38277918Y-5151603D01*
X38278657Y-5156669D01*
X38285134Y-5208627D01*
X38287373Y-5216147D01*
X38289935Y-5223611D01*
X38314827Y-5269608D01*
X38317171Y-5274161D01*
X38340172Y-5321208D01*
X38344742Y-5327609D01*
X38349581Y-5333826D01*
X38388108Y-5369293D01*
X38391780Y-5372817D01*
X38738181Y-5719218D01*
X38771666Y-5780541D01*
X38774500Y-5806899D01*
X38774500Y-5945612D01*
X38754815Y-6012651D01*
X38738185Y-6033288D01*
X38608292Y-6163182D01*
X38546972Y-6196666D01*
X38520613Y-6199500D01*
X36655143Y-6199500D01*
X36655117Y-6199502D01*
X36630012Y-6202413D01*
X36630008Y-6202415D01*
X36527235Y-6247793D01*
X36447794Y-6327234D01*
X36402415Y-6430006D01*
X36402415Y-6430008D01*
X36399500Y-6455131D01*
X36399500Y-7044856D01*
X36399502Y-7044882D01*
X36402413Y-7069987D01*
X36402415Y-7069991D01*
X36447793Y-7172764D01*
X36447794Y-7172765D01*
X36527235Y-7252206D01*
X36630009Y-7297585D01*
X36655135Y-7300500D01*
X37109892Y-7300499D01*
X37109902Y-7300500D01*
X37124335Y-7300500D01*
X38788478Y-7300500D01*
X38792710Y-7300572D01*
X38794674Y-7300639D01*
X38856826Y-7302762D01*
X38896755Y-7293030D01*
X38909192Y-7290667D01*
X38949920Y-7285070D01*
X38966383Y-7277918D01*
X38986416Y-7271181D01*
X39003852Y-7266933D01*
X39039695Y-7246778D01*
X39051015Y-7241157D01*
X39088720Y-7224780D01*
X39102632Y-7213460D01*
X39120123Y-7201557D01*
X39135755Y-7192768D01*
X39135753Y-7192768D01*
X39135759Y-7192766D01*
X39164822Y-7163701D01*
X39174229Y-7155212D01*
X39206108Y-7129278D01*
X39216456Y-7114616D01*
X39230074Y-7098449D01*
X39541705Y-6786817D01*
X39603028Y-6753333D01*
X39629386Y-6750499D01*
X40272871Y-6750499D01*
X40272872Y-6750499D01*
X40332483Y-6744091D01*
X40467331Y-6693796D01*
X40582546Y-6607546D01*
X40588052Y-6600191D01*
X40643985Y-6558319D01*
X40687320Y-6550500D01*
X40925500Y-6550500D01*
X40992539Y-6570185D01*
X41038294Y-6622989D01*
X41049500Y-6674500D01*
X41049500Y-6962679D01*
X41029815Y-7029718D01*
X40999813Y-7061944D01*
X40992459Y-7067449D01*
X40992451Y-7067457D01*
X40906206Y-7182664D01*
X40906202Y-7182671D01*
X40855908Y-7317517D01*
X40850533Y-7367517D01*
X40849501Y-7377123D01*
X40849500Y-7377135D01*
X40849500Y-8422870D01*
X40849501Y-8422876D01*
X40855908Y-8482483D01*
X40906202Y-8617328D01*
X40906206Y-8617335D01*
X40992452Y-8732544D01*
X40992455Y-8732547D01*
X41107664Y-8818793D01*
X41107671Y-8818797D01*
X41140451Y-8831023D01*
X41242517Y-8869091D01*
X41302127Y-8875500D01*
X41897872Y-8875499D01*
X41957483Y-8869091D01*
X42092331Y-8818796D01*
X42207546Y-8732546D01*
X42293796Y-8617331D01*
X42344091Y-8482483D01*
X42350500Y-8422873D01*
X42350499Y-7377128D01*
X42344091Y-7317517D01*
X42338587Y-7302761D01*
X42293797Y-7182671D01*
X42293793Y-7182664D01*
X42214784Y-7077123D01*
X42207546Y-7067454D01*
X42207542Y-7067451D01*
X42207540Y-7067449D01*
X42200187Y-7061944D01*
X42158317Y-7006009D01*
X42150500Y-6962679D01*
X42150500Y-6586989D01*
X42170185Y-6519950D01*
X42222989Y-6474195D01*
X42224295Y-6473607D01*
X42272765Y-6452206D01*
X42352206Y-6372765D01*
X42397585Y-6269991D01*
X42400500Y-6244865D01*
X42400499Y-5655136D01*
X42399648Y-5647794D01*
X42397586Y-5630012D01*
X42397585Y-5630010D01*
X42397585Y-5630009D01*
X42352206Y-5527235D01*
X42272765Y-5447794D01*
X42240200Y-5433415D01*
X42169992Y-5402415D01*
X42144865Y-5399500D01*
X41055143Y-5399500D01*
X41055117Y-5399502D01*
X41030012Y-5402413D01*
X41030008Y-5402414D01*
X40947301Y-5438934D01*
X40897215Y-5449500D01*
X40687320Y-5449500D01*
X40620281Y-5429815D01*
X40588052Y-5399809D01*
X40582548Y-5392457D01*
X40582546Y-5392454D01*
X40579002Y-5389801D01*
X40467335Y-5306206D01*
X40467328Y-5306202D01*
X40332482Y-5255908D01*
X40332483Y-5255908D01*
X40272883Y-5249501D01*
X40272881Y-5249500D01*
X40272873Y-5249500D01*
X40272865Y-5249500D01*
X39381900Y-5249500D01*
X39314861Y-5229815D01*
X39294219Y-5213181D01*
X39143218Y-5062180D01*
X39109733Y-5000857D01*
X39114717Y-4931165D01*
X39156589Y-4875232D01*
X39222053Y-4850815D01*
X39230871Y-4850499D01*
X40272872Y-4850499D01*
X40332483Y-4844091D01*
X40467331Y-4793796D01*
X40582546Y-4707546D01*
X40668796Y-4592331D01*
X40682285Y-4556166D01*
X40724157Y-4500233D01*
X40789621Y-4475816D01*
X40798467Y-4475500D01*
X40799167Y-4475500D01*
X40866206Y-4495185D01*
X40886848Y-4511819D01*
X40927235Y-4552206D01*
X41030009Y-4597585D01*
X41055135Y-4600500D01*
X42144864Y-4600499D01*
X42144879Y-4600497D01*
X42144882Y-4600497D01*
X42169987Y-4597586D01*
X42169988Y-4597585D01*
X42169991Y-4597585D01*
X42272765Y-4552206D01*
X42352206Y-4472765D01*
X42397585Y-4369991D01*
X42400500Y-4344865D01*
X42400499Y-3755136D01*
X42400497Y-3755117D01*
X42397586Y-3730012D01*
X42397585Y-3730010D01*
X42397585Y-3730009D01*
X42352206Y-3627235D01*
X42272765Y-3547794D01*
X42270958Y-3546996D01*
X42169992Y-3502415D01*
X42144868Y-3499500D01*
X42144865Y-3499500D01*
X42099500Y-3499500D01*
X42032461Y-3479815D01*
X41986706Y-3427011D01*
X41975500Y-3375500D01*
X41975500Y-3342115D01*
X41995185Y-3275076D01*
X42047989Y-3229321D01*
X42056167Y-3225933D01*
X42097888Y-3210372D01*
X42142331Y-3193796D01*
X42257546Y-3107546D01*
X42343796Y-2992331D01*
X42394091Y-2857483D01*
X42400500Y-2797873D01*
X42400499Y-1802128D01*
X42394091Y-1742517D01*
X42380548Y-1706206D01*
X42378233Y-1699998D01*
X44902704Y-1699998D01*
X44902705Y-1700000D01*
X45812500Y-1700000D01*
X45812500Y-1150000D01*
X46312500Y-1150000D01*
X46312500Y-1700000D01*
X47222295Y-1700000D01*
X47222295Y-1699998D01*
X47222100Y-1697513D01*
X47176281Y-1539801D01*
X47092685Y-1398447D01*
X47092678Y-1398438D01*
X46976561Y-1282321D01*
X46976552Y-1282314D01*
X46835196Y-1198717D01*
X46835193Y-1198716D01*
X46677495Y-1152900D01*
X46677489Y-1152899D01*
X46640649Y-1150000D01*
X46312500Y-1150000D01*
X45812500Y-1150000D01*
X45484350Y-1150000D01*
X45447510Y-1152899D01*
X45447504Y-1152900D01*
X45289806Y-1198716D01*
X45289803Y-1198717D01*
X45148447Y-1282314D01*
X45148438Y-1282321D01*
X45032321Y-1398438D01*
X45032314Y-1398447D01*
X44948718Y-1539801D01*
X44902899Y-1697513D01*
X44902704Y-1699998D01*
X42378233Y-1699998D01*
X42366050Y-1667332D01*
X42361066Y-1597641D01*
X42394552Y-1536318D01*
X42455875Y-1502834D01*
X42482232Y-1500000D01*
X43292886Y-1500000D01*
X43292893Y-1500000D01*
X43500000Y-1500000D01*
X44347809Y-652190D01*
X44359996Y-641503D01*
X44444157Y-576924D01*
X44472191Y-560739D01*
X44562616Y-523284D01*
X44593882Y-514906D01*
X44699048Y-501061D01*
X44715233Y-500000D01*
X54991874Y-500000D01*
X55008059Y-501061D01*
X55113223Y-514906D01*
X55144491Y-523284D01*
X55234918Y-560740D01*
X55262952Y-576925D01*
X55340602Y-636509D01*
X55363491Y-659398D01*
X55423074Y-737048D01*
X55439259Y-765081D01*
X55476715Y-855508D01*
X55485093Y-886775D01*
X55498939Y-991939D01*
X55500000Y-1008125D01*
X55500000Y-9284767D01*
X55498939Y-9300953D01*
X55485093Y-9406117D01*
X55476715Y-9437383D01*
X55439260Y-9527808D01*
X55423075Y-9555842D01*
X55358496Y-9640003D01*
X55347801Y-9652198D01*
X54646451Y-10353547D01*
X54646445Y-10353554D01*
X54646441Y-10353558D01*
X54500000Y-10500000D01*
X54500000Y-34500000D01*
X54646445Y-34646445D01*
X54646451Y-34646452D01*
X55347801Y-35347801D01*
X55358496Y-35359996D01*
X55423075Y-35444157D01*
X55439260Y-35472191D01*
X55476715Y-35562616D01*
X55485093Y-35593882D01*
X55498939Y-35699046D01*
X55500000Y-35715232D01*
X55500000Y-42991874D01*
X55498939Y-43008060D01*
X55485093Y-43113224D01*
X55476715Y-43144491D01*
X55439259Y-43234918D01*
X55423074Y-43262951D01*
X55363491Y-43340601D01*
X55340601Y-43363491D01*
X55262951Y-43423074D01*
X55234918Y-43439259D01*
X55144491Y-43476715D01*
X55113224Y-43485093D01*
X55019398Y-43497446D01*
X55008058Y-43498939D01*
X54991874Y-43500000D01*
X44715233Y-43500000D01*
X44699048Y-43498939D01*
X44686024Y-43497224D01*
X44593882Y-43485093D01*
X44562616Y-43476715D01*
X44472191Y-43439260D01*
X44444157Y-43423075D01*
X44359996Y-43358496D01*
X44347801Y-43347801D01*
X43646452Y-42646451D01*
X43646445Y-42646445D01*
X43500000Y-42500000D01*
X43292893Y-42500000D01*
X43292886Y-42500000D01*
X13707114Y-42500000D01*
X13707107Y-42500000D01*
X13500000Y-42500000D01*
X13353558Y-42646441D01*
X13353554Y-42646445D01*
X13353547Y-42646451D01*
X12652198Y-43347801D01*
X12640003Y-43358496D01*
X12555842Y-43423075D01*
X12527808Y-43439260D01*
X12437383Y-43476715D01*
X12406117Y-43485093D01*
X12312291Y-43497446D01*
X12300951Y-43498939D01*
X12284767Y-43500000D01*
X1008126Y-43500000D01*
X991941Y-43498939D01*
X978917Y-43497224D01*
X886775Y-43485093D01*
X855508Y-43476715D01*
X765081Y-43439259D01*
X737048Y-43423074D01*
X659398Y-43363491D01*
X636508Y-43340601D01*
X576925Y-43262951D01*
X560740Y-43234918D01*
X523284Y-43144491D01*
X514906Y-43113223D01*
X501061Y-43008059D01*
X500000Y-42991874D01*
X500000Y-35715232D01*
X501061Y-35699047D01*
X514906Y-35593883D01*
X523284Y-35562616D01*
X560739Y-35472191D01*
X576924Y-35444157D01*
X641503Y-35359996D01*
X652190Y-35347809D01*
X1353553Y-34646447D01*
X1500000Y-34500000D01*
X1500000Y-10500000D01*
X1500000Y-6650000D01*
X4200000Y-6650000D01*
X4200000Y-6697844D01*
X4206401Y-6757372D01*
X4206403Y-6757379D01*
X4256645Y-6892086D01*
X4256649Y-6892093D01*
X4342809Y-7007187D01*
X4342812Y-7007190D01*
X4457906Y-7093350D01*
X4457913Y-7093354D01*
X4592620Y-7143596D01*
X4592627Y-7143598D01*
X4652155Y-7149999D01*
X4652172Y-7150000D01*
X5175000Y-7150000D01*
X5175000Y-6650000D01*
X5575000Y-6650000D01*
X5575000Y-7150000D01*
X6097828Y-7150000D01*
X6097844Y-7149999D01*
X6157372Y-7143598D01*
X6157379Y-7143596D01*
X6292086Y-7093354D01*
X6292093Y-7093350D01*
X6407187Y-7007190D01*
X6407190Y-7007187D01*
X6493350Y-6892093D01*
X6493354Y-6892086D01*
X6543596Y-6757379D01*
X6543598Y-6757372D01*
X6549999Y-6697844D01*
X6550000Y-6697827D01*
X6550000Y-6650000D01*
X5575000Y-6650000D01*
X5175000Y-6650000D01*
X4200000Y-6650000D01*
X1500000Y-6650000D01*
X1500000Y-6250000D01*
X4200000Y-6250000D01*
X4664158Y-6250000D01*
X4674336Y-6250500D01*
X4675326Y-6250500D01*
X6075664Y-6250500D01*
X6085842Y-6250000D01*
X6550000Y-6250000D01*
X6550000Y-6202172D01*
X6549999Y-6202155D01*
X6543598Y-6142627D01*
X6543596Y-6142620D01*
X6493354Y-6007913D01*
X6493350Y-6007906D01*
X6407191Y-5892814D01*
X6407185Y-5892807D01*
X6350188Y-5850139D01*
X6308318Y-5794205D01*
X6300500Y-5750873D01*
X6300500Y-5575323D01*
X6285356Y-5499192D01*
X6285356Y-5450808D01*
X6300500Y-5374676D01*
X6300500Y-4925323D01*
X6285356Y-4849192D01*
X6285356Y-4800808D01*
X6300500Y-4724676D01*
X6300500Y-4723791D01*
X6300631Y-4723344D01*
X6301097Y-4718614D01*
X6301994Y-4718702D01*
X6320185Y-4656752D01*
X6372989Y-4610997D01*
X6442147Y-4601053D01*
X6498132Y-4624020D01*
X6532658Y-4649501D01*
X6537120Y-4652794D01*
X6544672Y-4656785D01*
X6552322Y-4660468D01*
X6552327Y-4660472D01*
X6605947Y-4677011D01*
X6606965Y-4677325D01*
X6611353Y-4678769D01*
X6665300Y-4697646D01*
X6673688Y-4699232D01*
X6682095Y-4700500D01*
X6682098Y-4700500D01*
X6739261Y-4700500D01*
X6743898Y-4700587D01*
X6801009Y-4702724D01*
X6801009Y-4702723D01*
X6801010Y-4702724D01*
X6801010Y-4702723D01*
X6810243Y-4701684D01*
X6810336Y-4702513D01*
X6825636Y-4700500D01*
X6849167Y-4700500D01*
X6916206Y-4720185D01*
X6936848Y-4736819D01*
X6952235Y-4752206D01*
X7055009Y-4797585D01*
X7080135Y-4800500D01*
X8125500Y-4800499D01*
X8192539Y-4820183D01*
X8238294Y-4872987D01*
X8249500Y-4924499D01*
X8249500Y-6462034D01*
X8229815Y-6529073D01*
X8213181Y-6549715D01*
X7824714Y-6938181D01*
X7763391Y-6971666D01*
X7737033Y-6974500D01*
X7302129Y-6974500D01*
X7302123Y-6974501D01*
X7242516Y-6980908D01*
X7107671Y-7031202D01*
X7107664Y-7031206D01*
X6992455Y-7117452D01*
X6992452Y-7117455D01*
X6906206Y-7232664D01*
X6906202Y-7232671D01*
X6855908Y-7367517D01*
X6849501Y-7427116D01*
X6849500Y-7427135D01*
X6849500Y-8472870D01*
X6849501Y-8472876D01*
X6855908Y-8532483D01*
X6906202Y-8667328D01*
X6906206Y-8667335D01*
X6992452Y-8782544D01*
X6992455Y-8782547D01*
X7107664Y-8868793D01*
X7107671Y-8868797D01*
X7146087Y-8883125D01*
X7242517Y-8919091D01*
X7302127Y-8925500D01*
X7897872Y-8925499D01*
X7957483Y-8919091D01*
X8092331Y-8868796D01*
X8207546Y-8782546D01*
X8293796Y-8667331D01*
X8344091Y-8532483D01*
X8350500Y-8472873D01*
X8350499Y-7737964D01*
X8370183Y-7670926D01*
X8386814Y-7650288D01*
X8995744Y-7041357D01*
X9006093Y-7032109D01*
X9033970Y-7009879D01*
X9066198Y-6962607D01*
X9068812Y-6958923D01*
X9102793Y-6912882D01*
X9102793Y-6912879D01*
X9102795Y-6912878D01*
X9106787Y-6905324D01*
X9110471Y-6897675D01*
X9112118Y-6892335D01*
X9127330Y-6843014D01*
X9128762Y-6838662D01*
X9147646Y-6784699D01*
X9147646Y-6784696D01*
X9149232Y-6776311D01*
X9150500Y-6767904D01*
X9150500Y-6710738D01*
X9150587Y-6706100D01*
X9152724Y-6648992D01*
X9151684Y-6639761D01*
X9152513Y-6639667D01*
X9150500Y-6624366D01*
X9150500Y-6444856D01*
X9424500Y-6444856D01*
X9424502Y-6444882D01*
X9427413Y-6469987D01*
X9427415Y-6469991D01*
X9472793Y-6572764D01*
X9472794Y-6572765D01*
X9552235Y-6652206D01*
X9655009Y-6697585D01*
X9680135Y-6700500D01*
X10769864Y-6700499D01*
X10769879Y-6700497D01*
X10769882Y-6700497D01*
X10794987Y-6697586D01*
X10794988Y-6697585D01*
X10794991Y-6697585D01*
X10897765Y-6652206D01*
X10977206Y-6572765D01*
X11022585Y-6469991D01*
X11025500Y-6444865D01*
X11025499Y-5855136D01*
X11025497Y-5855117D01*
X11022586Y-5830012D01*
X11022585Y-5830010D01*
X11022585Y-5830009D01*
X10977206Y-5727235D01*
X10897765Y-5647794D01*
X10858736Y-5630561D01*
X10794992Y-5602415D01*
X10769865Y-5599500D01*
X9680143Y-5599500D01*
X9680117Y-5599502D01*
X9655012Y-5602413D01*
X9655008Y-5602415D01*
X9552235Y-5647793D01*
X9472794Y-5727234D01*
X9427415Y-5830006D01*
X9427415Y-5830008D01*
X9424500Y-5855131D01*
X9424500Y-6444856D01*
X9150500Y-6444856D01*
X9150500Y-4632261D01*
X9151280Y-4618376D01*
X9151382Y-4617476D01*
X9155270Y-4582965D01*
X9144637Y-4526770D01*
X9143864Y-4522217D01*
X9142722Y-4514639D01*
X9135348Y-4465713D01*
X9135347Y-4465711D01*
X9135347Y-4465709D01*
X9132831Y-4457552D01*
X9130024Y-4449528D01*
X9103306Y-4398977D01*
X9101215Y-4394835D01*
X9082097Y-4355136D01*
X9076425Y-4343358D01*
X9076424Y-4343357D01*
X9076424Y-4343356D01*
X9071642Y-4336342D01*
X9066567Y-4329466D01*
X9066566Y-4329463D01*
X9026165Y-4289062D01*
X9022947Y-4285721D01*
X8984060Y-4243809D01*
X8976792Y-4238014D01*
X8977312Y-4237361D01*
X8965067Y-4227964D01*
X8691368Y-3954265D01*
X8682102Y-3943897D01*
X8659879Y-3916030D01*
X8659878Y-3916029D01*
X8659877Y-3916028D01*
X8620983Y-3889511D01*
X8612633Y-3883818D01*
X8608869Y-3881147D01*
X8562886Y-3847209D01*
X8555297Y-3843198D01*
X8547675Y-3839528D01*
X8493049Y-3822679D01*
X8488644Y-3821230D01*
X8434695Y-3802352D01*
X8426326Y-3800768D01*
X8417904Y-3799500D01*
X8417902Y-3799500D01*
X8400833Y-3799500D01*
X8333794Y-3779815D01*
X8313152Y-3763181D01*
X8297765Y-3747794D01*
X8194992Y-3702415D01*
X8169865Y-3699500D01*
X7080143Y-3699500D01*
X7080117Y-3699502D01*
X7055012Y-3702413D01*
X7055010Y-3702414D01*
X6983225Y-3734110D01*
X6913947Y-3743181D01*
X6850762Y-3713357D01*
X6845459Y-3708356D01*
X6691368Y-3554265D01*
X6682102Y-3543897D01*
X6677735Y-3538421D01*
X6659879Y-3516030D01*
X6659878Y-3516029D01*
X6659877Y-3516028D01*
X6630606Y-3496072D01*
X6612633Y-3483818D01*
X6608869Y-3481147D01*
X6562886Y-3447209D01*
X6555297Y-3443198D01*
X6547675Y-3439528D01*
X6493049Y-3422679D01*
X6488644Y-3421230D01*
X6434695Y-3402352D01*
X6426326Y-3400768D01*
X6417904Y-3399500D01*
X6417902Y-3399500D01*
X6360738Y-3399500D01*
X6356101Y-3399413D01*
X6354085Y-3399337D01*
X6298989Y-3397275D01*
X6289756Y-3398316D01*
X6289662Y-3397486D01*
X6274364Y-3399500D01*
X4675323Y-3399500D01*
X4602264Y-3414032D01*
X4602260Y-3414033D01*
X4519399Y-3469399D01*
X4464033Y-3552260D01*
X4464032Y-3552264D01*
X4449500Y-3625321D01*
X4449500Y-3625326D01*
X4449500Y-4074674D01*
X4452957Y-4092057D01*
X4464644Y-4150810D01*
X4464644Y-4199190D01*
X4455770Y-4243806D01*
X4449500Y-4275326D01*
X4449500Y-4724674D01*
X4450523Y-4729815D01*
X4464644Y-4800810D01*
X4464644Y-4849190D01*
X4449625Y-4924696D01*
X4449500Y-4925326D01*
X4449500Y-5374674D01*
X4452509Y-5389801D01*
X4464644Y-5450810D01*
X4464644Y-5499190D01*
X4449500Y-5575326D01*
X4449500Y-5750873D01*
X4429815Y-5817912D01*
X4399812Y-5850139D01*
X4342814Y-5892807D01*
X4342808Y-5892814D01*
X4256649Y-6007906D01*
X4256645Y-6007913D01*
X4206403Y-6142620D01*
X4206401Y-6142627D01*
X4200000Y-6202155D01*
X4200000Y-6250000D01*
X1500000Y-6250000D01*
X1500000Y-1008125D01*
X1501061Y-991940D01*
X1514906Y-886776D01*
X1523284Y-855508D01*
X1560740Y-765081D01*
X1576923Y-737050D01*
X1636513Y-659392D01*
X1659392Y-636513D01*
X1737050Y-576923D01*
X1765079Y-560740D01*
X1855509Y-523283D01*
X1886775Y-514906D01*
X1991941Y-501061D01*
X2008126Y-500000D01*
X12284767Y-500000D01*
X12300952Y-501061D01*
G37*
%TD.AperFunction*%
%TD*%
M02*
