%TF.GenerationSoftware,KiCad,Pcbnew,7.0.8*%
%TF.CreationDate,2024-01-10T16:11:44+11:00*%
%TF.ProjectId,cphp82001-pcb,63706870-3832-4303-9031-2d7063622e6b,2.2*%
%TF.SameCoordinates,Original*%
%TF.FileFunction,Legend,Bot*%
%TF.FilePolarity,Positive*%
%FSLAX46Y46*%
G04 Gerber Fmt 4.6, Leading zero omitted, Abs format (unit mm)*
G04 Created by KiCad (PCBNEW 7.0.8) date 2024-01-10 16:11:44*
%MOMM*%
%LPD*%
G01*
G04 APERTURE LIST*
%ADD10C,0.150000*%
%ADD11C,0.120000*%
%ADD12C,0.250000*%
%ADD13C,1.000000*%
%ADD14C,0.010000*%
G04 APERTURE END LIST*
D10*
X30000000Y-17500000D02*
X44500000Y-17500000D01*
X44500000Y-20500000D01*
X30000000Y-20500000D01*
X30000000Y-17500000D01*
G36*
X30000000Y-17500000D02*
G01*
X44500000Y-17500000D01*
X44500000Y-20500000D01*
X30000000Y-20500000D01*
X30000000Y-17500000D01*
G37*
D11*
X43773433Y-16803664D02*
X43811529Y-16841760D01*
X43811529Y-16841760D02*
X43925814Y-16879855D01*
X43925814Y-16879855D02*
X44002005Y-16879855D01*
X44002005Y-16879855D02*
X44116291Y-16841760D01*
X44116291Y-16841760D02*
X44192481Y-16765569D01*
X44192481Y-16765569D02*
X44230576Y-16689379D01*
X44230576Y-16689379D02*
X44268672Y-16536998D01*
X44268672Y-16536998D02*
X44268672Y-16422712D01*
X44268672Y-16422712D02*
X44230576Y-16270331D01*
X44230576Y-16270331D02*
X44192481Y-16194140D01*
X44192481Y-16194140D02*
X44116291Y-16117950D01*
X44116291Y-16117950D02*
X44002005Y-16079855D01*
X44002005Y-16079855D02*
X43925814Y-16079855D01*
X43925814Y-16079855D02*
X43811529Y-16117950D01*
X43811529Y-16117950D02*
X43773433Y-16156045D01*
X43430576Y-16879855D02*
X43430576Y-16079855D01*
X43430576Y-16079855D02*
X43125814Y-16079855D01*
X43125814Y-16079855D02*
X43049624Y-16117950D01*
X43049624Y-16117950D02*
X43011529Y-16156045D01*
X43011529Y-16156045D02*
X42973433Y-16232236D01*
X42973433Y-16232236D02*
X42973433Y-16346521D01*
X42973433Y-16346521D02*
X43011529Y-16422712D01*
X43011529Y-16422712D02*
X43049624Y-16460807D01*
X43049624Y-16460807D02*
X43125814Y-16498902D01*
X43125814Y-16498902D02*
X43430576Y-16498902D01*
X42630576Y-16879855D02*
X42630576Y-16079855D01*
X42630576Y-16460807D02*
X42173433Y-16460807D01*
X42173433Y-16879855D02*
X42173433Y-16079855D01*
X41792481Y-16879855D02*
X41792481Y-16079855D01*
X41792481Y-16079855D02*
X41487719Y-16079855D01*
X41487719Y-16079855D02*
X41411529Y-16117950D01*
X41411529Y-16117950D02*
X41373434Y-16156045D01*
X41373434Y-16156045D02*
X41335338Y-16232236D01*
X41335338Y-16232236D02*
X41335338Y-16346521D01*
X41335338Y-16346521D02*
X41373434Y-16422712D01*
X41373434Y-16422712D02*
X41411529Y-16460807D01*
X41411529Y-16460807D02*
X41487719Y-16498902D01*
X41487719Y-16498902D02*
X41792481Y-16498902D01*
X40878196Y-16422712D02*
X40954386Y-16384617D01*
X40954386Y-16384617D02*
X40992481Y-16346521D01*
X40992481Y-16346521D02*
X41030577Y-16270331D01*
X41030577Y-16270331D02*
X41030577Y-16232236D01*
X41030577Y-16232236D02*
X40992481Y-16156045D01*
X40992481Y-16156045D02*
X40954386Y-16117950D01*
X40954386Y-16117950D02*
X40878196Y-16079855D01*
X40878196Y-16079855D02*
X40725815Y-16079855D01*
X40725815Y-16079855D02*
X40649624Y-16117950D01*
X40649624Y-16117950D02*
X40611529Y-16156045D01*
X40611529Y-16156045D02*
X40573434Y-16232236D01*
X40573434Y-16232236D02*
X40573434Y-16270331D01*
X40573434Y-16270331D02*
X40611529Y-16346521D01*
X40611529Y-16346521D02*
X40649624Y-16384617D01*
X40649624Y-16384617D02*
X40725815Y-16422712D01*
X40725815Y-16422712D02*
X40878196Y-16422712D01*
X40878196Y-16422712D02*
X40954386Y-16460807D01*
X40954386Y-16460807D02*
X40992481Y-16498902D01*
X40992481Y-16498902D02*
X41030577Y-16575093D01*
X41030577Y-16575093D02*
X41030577Y-16727474D01*
X41030577Y-16727474D02*
X40992481Y-16803664D01*
X40992481Y-16803664D02*
X40954386Y-16841760D01*
X40954386Y-16841760D02*
X40878196Y-16879855D01*
X40878196Y-16879855D02*
X40725815Y-16879855D01*
X40725815Y-16879855D02*
X40649624Y-16841760D01*
X40649624Y-16841760D02*
X40611529Y-16803664D01*
X40611529Y-16803664D02*
X40573434Y-16727474D01*
X40573434Y-16727474D02*
X40573434Y-16575093D01*
X40573434Y-16575093D02*
X40611529Y-16498902D01*
X40611529Y-16498902D02*
X40649624Y-16460807D01*
X40649624Y-16460807D02*
X40725815Y-16422712D01*
X40268672Y-16156045D02*
X40230576Y-16117950D01*
X40230576Y-16117950D02*
X40154386Y-16079855D01*
X40154386Y-16079855D02*
X39963910Y-16079855D01*
X39963910Y-16079855D02*
X39887719Y-16117950D01*
X39887719Y-16117950D02*
X39849624Y-16156045D01*
X39849624Y-16156045D02*
X39811529Y-16232236D01*
X39811529Y-16232236D02*
X39811529Y-16308426D01*
X39811529Y-16308426D02*
X39849624Y-16422712D01*
X39849624Y-16422712D02*
X40306767Y-16879855D01*
X40306767Y-16879855D02*
X39811529Y-16879855D01*
X39316290Y-16079855D02*
X39240100Y-16079855D01*
X39240100Y-16079855D02*
X39163909Y-16117950D01*
X39163909Y-16117950D02*
X39125814Y-16156045D01*
X39125814Y-16156045D02*
X39087719Y-16232236D01*
X39087719Y-16232236D02*
X39049624Y-16384617D01*
X39049624Y-16384617D02*
X39049624Y-16575093D01*
X39049624Y-16575093D02*
X39087719Y-16727474D01*
X39087719Y-16727474D02*
X39125814Y-16803664D01*
X39125814Y-16803664D02*
X39163909Y-16841760D01*
X39163909Y-16841760D02*
X39240100Y-16879855D01*
X39240100Y-16879855D02*
X39316290Y-16879855D01*
X39316290Y-16879855D02*
X39392481Y-16841760D01*
X39392481Y-16841760D02*
X39430576Y-16803664D01*
X39430576Y-16803664D02*
X39468671Y-16727474D01*
X39468671Y-16727474D02*
X39506767Y-16575093D01*
X39506767Y-16575093D02*
X39506767Y-16384617D01*
X39506767Y-16384617D02*
X39468671Y-16232236D01*
X39468671Y-16232236D02*
X39430576Y-16156045D01*
X39430576Y-16156045D02*
X39392481Y-16117950D01*
X39392481Y-16117950D02*
X39316290Y-16079855D01*
X38554385Y-16079855D02*
X38478195Y-16079855D01*
X38478195Y-16079855D02*
X38402004Y-16117950D01*
X38402004Y-16117950D02*
X38363909Y-16156045D01*
X38363909Y-16156045D02*
X38325814Y-16232236D01*
X38325814Y-16232236D02*
X38287719Y-16384617D01*
X38287719Y-16384617D02*
X38287719Y-16575093D01*
X38287719Y-16575093D02*
X38325814Y-16727474D01*
X38325814Y-16727474D02*
X38363909Y-16803664D01*
X38363909Y-16803664D02*
X38402004Y-16841760D01*
X38402004Y-16841760D02*
X38478195Y-16879855D01*
X38478195Y-16879855D02*
X38554385Y-16879855D01*
X38554385Y-16879855D02*
X38630576Y-16841760D01*
X38630576Y-16841760D02*
X38668671Y-16803664D01*
X38668671Y-16803664D02*
X38706766Y-16727474D01*
X38706766Y-16727474D02*
X38744862Y-16575093D01*
X38744862Y-16575093D02*
X38744862Y-16384617D01*
X38744862Y-16384617D02*
X38706766Y-16232236D01*
X38706766Y-16232236D02*
X38668671Y-16156045D01*
X38668671Y-16156045D02*
X38630576Y-16117950D01*
X38630576Y-16117950D02*
X38554385Y-16079855D01*
X37525814Y-16879855D02*
X37982957Y-16879855D01*
X37754385Y-16879855D02*
X37754385Y-16079855D01*
X37754385Y-16079855D02*
X37830576Y-16194140D01*
X37830576Y-16194140D02*
X37906766Y-16270331D01*
X37906766Y-16270331D02*
X37982957Y-16308426D01*
X36687718Y-16079855D02*
X36421051Y-16879855D01*
X36421051Y-16879855D02*
X36154385Y-16079855D01*
X35963909Y-16079855D02*
X35468671Y-16079855D01*
X35468671Y-16079855D02*
X35735337Y-16384617D01*
X35735337Y-16384617D02*
X35621052Y-16384617D01*
X35621052Y-16384617D02*
X35544861Y-16422712D01*
X35544861Y-16422712D02*
X35506766Y-16460807D01*
X35506766Y-16460807D02*
X35468671Y-16536998D01*
X35468671Y-16536998D02*
X35468671Y-16727474D01*
X35468671Y-16727474D02*
X35506766Y-16803664D01*
X35506766Y-16803664D02*
X35544861Y-16841760D01*
X35544861Y-16841760D02*
X35621052Y-16879855D01*
X35621052Y-16879855D02*
X35849623Y-16879855D01*
X35849623Y-16879855D02*
X35925814Y-16841760D01*
X35925814Y-16841760D02*
X35963909Y-16803664D01*
X43849624Y-21231855D02*
X44230576Y-21231855D01*
X44230576Y-21231855D02*
X44268672Y-21612807D01*
X44268672Y-21612807D02*
X44230576Y-21574712D01*
X44230576Y-21574712D02*
X44154386Y-21536617D01*
X44154386Y-21536617D02*
X43963910Y-21536617D01*
X43963910Y-21536617D02*
X43887719Y-21574712D01*
X43887719Y-21574712D02*
X43849624Y-21612807D01*
X43849624Y-21612807D02*
X43811529Y-21688998D01*
X43811529Y-21688998D02*
X43811529Y-21879474D01*
X43811529Y-21879474D02*
X43849624Y-21955664D01*
X43849624Y-21955664D02*
X43887719Y-21993760D01*
X43887719Y-21993760D02*
X43963910Y-22031855D01*
X43963910Y-22031855D02*
X44154386Y-22031855D01*
X44154386Y-22031855D02*
X44230576Y-21993760D01*
X44230576Y-21993760D02*
X44268672Y-21955664D01*
X43582957Y-21231855D02*
X43316290Y-22031855D01*
X43316290Y-22031855D02*
X43049624Y-21231855D01*
X42173433Y-22031855D02*
X42173433Y-21231855D01*
X42173433Y-21231855D02*
X41982957Y-21231855D01*
X41982957Y-21231855D02*
X41868671Y-21269950D01*
X41868671Y-21269950D02*
X41792481Y-21346140D01*
X41792481Y-21346140D02*
X41754386Y-21422331D01*
X41754386Y-21422331D02*
X41716290Y-21574712D01*
X41716290Y-21574712D02*
X41716290Y-21688998D01*
X41716290Y-21688998D02*
X41754386Y-21841379D01*
X41754386Y-21841379D02*
X41792481Y-21917569D01*
X41792481Y-21917569D02*
X41868671Y-21993760D01*
X41868671Y-21993760D02*
X41982957Y-22031855D01*
X41982957Y-22031855D02*
X42173433Y-22031855D01*
X40916290Y-21955664D02*
X40954386Y-21993760D01*
X40954386Y-21993760D02*
X41068671Y-22031855D01*
X41068671Y-22031855D02*
X41144862Y-22031855D01*
X41144862Y-22031855D02*
X41259148Y-21993760D01*
X41259148Y-21993760D02*
X41335338Y-21917569D01*
X41335338Y-21917569D02*
X41373433Y-21841379D01*
X41373433Y-21841379D02*
X41411529Y-21688998D01*
X41411529Y-21688998D02*
X41411529Y-21574712D01*
X41411529Y-21574712D02*
X41373433Y-21422331D01*
X41373433Y-21422331D02*
X41335338Y-21346140D01*
X41335338Y-21346140D02*
X41259148Y-21269950D01*
X41259148Y-21269950D02*
X41144862Y-21231855D01*
X41144862Y-21231855D02*
X41068671Y-21231855D01*
X41068671Y-21231855D02*
X40954386Y-21269950D01*
X40954386Y-21269950D02*
X40916290Y-21308045D01*
X39621052Y-21498521D02*
X39621052Y-22031855D01*
X39811528Y-21193760D02*
X40002005Y-21765188D01*
X40002005Y-21765188D02*
X39506766Y-21765188D01*
X39049623Y-21231855D02*
X38973433Y-21231855D01*
X38973433Y-21231855D02*
X38897242Y-21269950D01*
X38897242Y-21269950D02*
X38859147Y-21308045D01*
X38859147Y-21308045D02*
X38821052Y-21384236D01*
X38821052Y-21384236D02*
X38782957Y-21536617D01*
X38782957Y-21536617D02*
X38782957Y-21727093D01*
X38782957Y-21727093D02*
X38821052Y-21879474D01*
X38821052Y-21879474D02*
X38859147Y-21955664D01*
X38859147Y-21955664D02*
X38897242Y-21993760D01*
X38897242Y-21993760D02*
X38973433Y-22031855D01*
X38973433Y-22031855D02*
X39049623Y-22031855D01*
X39049623Y-22031855D02*
X39125814Y-21993760D01*
X39125814Y-21993760D02*
X39163909Y-21955664D01*
X39163909Y-21955664D02*
X39202004Y-21879474D01*
X39202004Y-21879474D02*
X39240100Y-21727093D01*
X39240100Y-21727093D02*
X39240100Y-21536617D01*
X39240100Y-21536617D02*
X39202004Y-21384236D01*
X39202004Y-21384236D02*
X39163909Y-21308045D01*
X39163909Y-21308045D02*
X39125814Y-21269950D01*
X39125814Y-21269950D02*
X39049623Y-21231855D01*
X38287718Y-21231855D02*
X38211528Y-21231855D01*
X38211528Y-21231855D02*
X38135337Y-21269950D01*
X38135337Y-21269950D02*
X38097242Y-21308045D01*
X38097242Y-21308045D02*
X38059147Y-21384236D01*
X38059147Y-21384236D02*
X38021052Y-21536617D01*
X38021052Y-21536617D02*
X38021052Y-21727093D01*
X38021052Y-21727093D02*
X38059147Y-21879474D01*
X38059147Y-21879474D02*
X38097242Y-21955664D01*
X38097242Y-21955664D02*
X38135337Y-21993760D01*
X38135337Y-21993760D02*
X38211528Y-22031855D01*
X38211528Y-22031855D02*
X38287718Y-22031855D01*
X38287718Y-22031855D02*
X38363909Y-21993760D01*
X38363909Y-21993760D02*
X38402004Y-21955664D01*
X38402004Y-21955664D02*
X38440099Y-21879474D01*
X38440099Y-21879474D02*
X38478195Y-21727093D01*
X38478195Y-21727093D02*
X38478195Y-21536617D01*
X38478195Y-21536617D02*
X38440099Y-21384236D01*
X38440099Y-21384236D02*
X38402004Y-21308045D01*
X38402004Y-21308045D02*
X38363909Y-21269950D01*
X38363909Y-21269950D02*
X38287718Y-21231855D01*
X37678194Y-22031855D02*
X37678194Y-21498521D01*
X37678194Y-21574712D02*
X37640099Y-21536617D01*
X37640099Y-21536617D02*
X37563909Y-21498521D01*
X37563909Y-21498521D02*
X37449623Y-21498521D01*
X37449623Y-21498521D02*
X37373432Y-21536617D01*
X37373432Y-21536617D02*
X37335337Y-21612807D01*
X37335337Y-21612807D02*
X37335337Y-22031855D01*
X37335337Y-21612807D02*
X37297242Y-21536617D01*
X37297242Y-21536617D02*
X37221051Y-21498521D01*
X37221051Y-21498521D02*
X37106766Y-21498521D01*
X37106766Y-21498521D02*
X37030575Y-21536617D01*
X37030575Y-21536617D02*
X36992480Y-21612807D01*
X36992480Y-21612807D02*
X36992480Y-22031855D01*
X36649623Y-21803283D02*
X36268670Y-21803283D01*
X36725813Y-22031855D02*
X36459146Y-21231855D01*
X36459146Y-21231855D02*
X36192480Y-22031855D01*
X43849624Y-22519855D02*
X44230576Y-22519855D01*
X44230576Y-22519855D02*
X44268672Y-22900807D01*
X44268672Y-22900807D02*
X44230576Y-22862712D01*
X44230576Y-22862712D02*
X44154386Y-22824617D01*
X44154386Y-22824617D02*
X43963910Y-22824617D01*
X43963910Y-22824617D02*
X43887719Y-22862712D01*
X43887719Y-22862712D02*
X43849624Y-22900807D01*
X43849624Y-22900807D02*
X43811529Y-22976998D01*
X43811529Y-22976998D02*
X43811529Y-23167474D01*
X43811529Y-23167474D02*
X43849624Y-23243664D01*
X43849624Y-23243664D02*
X43887719Y-23281760D01*
X43887719Y-23281760D02*
X43963910Y-23319855D01*
X43963910Y-23319855D02*
X44154386Y-23319855D01*
X44154386Y-23319855D02*
X44230576Y-23281760D01*
X44230576Y-23281760D02*
X44268672Y-23243664D01*
X43316290Y-22519855D02*
X43240100Y-22519855D01*
X43240100Y-22519855D02*
X43163909Y-22557950D01*
X43163909Y-22557950D02*
X43125814Y-22596045D01*
X43125814Y-22596045D02*
X43087719Y-22672236D01*
X43087719Y-22672236D02*
X43049624Y-22824617D01*
X43049624Y-22824617D02*
X43049624Y-23015093D01*
X43049624Y-23015093D02*
X43087719Y-23167474D01*
X43087719Y-23167474D02*
X43125814Y-23243664D01*
X43125814Y-23243664D02*
X43163909Y-23281760D01*
X43163909Y-23281760D02*
X43240100Y-23319855D01*
X43240100Y-23319855D02*
X43316290Y-23319855D01*
X43316290Y-23319855D02*
X43392481Y-23281760D01*
X43392481Y-23281760D02*
X43430576Y-23243664D01*
X43430576Y-23243664D02*
X43468671Y-23167474D01*
X43468671Y-23167474D02*
X43506767Y-23015093D01*
X43506767Y-23015093D02*
X43506767Y-22824617D01*
X43506767Y-22824617D02*
X43468671Y-22672236D01*
X43468671Y-22672236D02*
X43430576Y-22596045D01*
X43430576Y-22596045D02*
X43392481Y-22557950D01*
X43392481Y-22557950D02*
X43316290Y-22519855D01*
X42706766Y-23319855D02*
X42706766Y-22786521D01*
X42706766Y-22862712D02*
X42668671Y-22824617D01*
X42668671Y-22824617D02*
X42592481Y-22786521D01*
X42592481Y-22786521D02*
X42478195Y-22786521D01*
X42478195Y-22786521D02*
X42402004Y-22824617D01*
X42402004Y-22824617D02*
X42363909Y-22900807D01*
X42363909Y-22900807D02*
X42363909Y-23319855D01*
X42363909Y-22900807D02*
X42325814Y-22824617D01*
X42325814Y-22824617D02*
X42249623Y-22786521D01*
X42249623Y-22786521D02*
X42135338Y-22786521D01*
X42135338Y-22786521D02*
X42059147Y-22824617D01*
X42059147Y-22824617D02*
X42021052Y-22900807D01*
X42021052Y-22900807D02*
X42021052Y-23319855D01*
X41678195Y-23091283D02*
X41297242Y-23091283D01*
X41754385Y-23319855D02*
X41487718Y-22519855D01*
X41487718Y-22519855D02*
X41221052Y-23319855D01*
X40344861Y-23319855D02*
X40344861Y-22519855D01*
X40344861Y-22519855D02*
X40154385Y-22519855D01*
X40154385Y-22519855D02*
X40040099Y-22557950D01*
X40040099Y-22557950D02*
X39963909Y-22634140D01*
X39963909Y-22634140D02*
X39925814Y-22710331D01*
X39925814Y-22710331D02*
X39887718Y-22862712D01*
X39887718Y-22862712D02*
X39887718Y-22976998D01*
X39887718Y-22976998D02*
X39925814Y-23129379D01*
X39925814Y-23129379D02*
X39963909Y-23205569D01*
X39963909Y-23205569D02*
X40040099Y-23281760D01*
X40040099Y-23281760D02*
X40154385Y-23319855D01*
X40154385Y-23319855D02*
X40344861Y-23319855D01*
X39087718Y-23243664D02*
X39125814Y-23281760D01*
X39125814Y-23281760D02*
X39240099Y-23319855D01*
X39240099Y-23319855D02*
X39316290Y-23319855D01*
X39316290Y-23319855D02*
X39430576Y-23281760D01*
X39430576Y-23281760D02*
X39506766Y-23205569D01*
X39506766Y-23205569D02*
X39544861Y-23129379D01*
X39544861Y-23129379D02*
X39582957Y-22976998D01*
X39582957Y-22976998D02*
X39582957Y-22862712D01*
X39582957Y-22862712D02*
X39544861Y-22710331D01*
X39544861Y-22710331D02*
X39506766Y-22634140D01*
X39506766Y-22634140D02*
X39430576Y-22557950D01*
X39430576Y-22557950D02*
X39316290Y-22519855D01*
X39316290Y-22519855D02*
X39240099Y-22519855D01*
X39240099Y-22519855D02*
X39125814Y-22557950D01*
X39125814Y-22557950D02*
X39087718Y-22596045D01*
X37678194Y-23243664D02*
X37716290Y-23281760D01*
X37716290Y-23281760D02*
X37830575Y-23319855D01*
X37830575Y-23319855D02*
X37906766Y-23319855D01*
X37906766Y-23319855D02*
X38021052Y-23281760D01*
X38021052Y-23281760D02*
X38097242Y-23205569D01*
X38097242Y-23205569D02*
X38135337Y-23129379D01*
X38135337Y-23129379D02*
X38173433Y-22976998D01*
X38173433Y-22976998D02*
X38173433Y-22862712D01*
X38173433Y-22862712D02*
X38135337Y-22710331D01*
X38135337Y-22710331D02*
X38097242Y-22634140D01*
X38097242Y-22634140D02*
X38021052Y-22557950D01*
X38021052Y-22557950D02*
X37906766Y-22519855D01*
X37906766Y-22519855D02*
X37830575Y-22519855D01*
X37830575Y-22519855D02*
X37716290Y-22557950D01*
X37716290Y-22557950D02*
X37678194Y-22596045D01*
X36878194Y-23243664D02*
X36916290Y-23281760D01*
X36916290Y-23281760D02*
X37030575Y-23319855D01*
X37030575Y-23319855D02*
X37106766Y-23319855D01*
X37106766Y-23319855D02*
X37221052Y-23281760D01*
X37221052Y-23281760D02*
X37297242Y-23205569D01*
X37297242Y-23205569D02*
X37335337Y-23129379D01*
X37335337Y-23129379D02*
X37373433Y-22976998D01*
X37373433Y-22976998D02*
X37373433Y-22862712D01*
X37373433Y-22862712D02*
X37335337Y-22710331D01*
X37335337Y-22710331D02*
X37297242Y-22634140D01*
X37297242Y-22634140D02*
X37221052Y-22557950D01*
X37221052Y-22557950D02*
X37106766Y-22519855D01*
X37106766Y-22519855D02*
X37030575Y-22519855D01*
X37030575Y-22519855D02*
X36916290Y-22557950D01*
X36916290Y-22557950D02*
X36878194Y-22596045D01*
X35697242Y-23624617D02*
X35735337Y-23586521D01*
X35735337Y-23586521D02*
X35811528Y-23472236D01*
X35811528Y-23472236D02*
X35849623Y-23396045D01*
X35849623Y-23396045D02*
X35887718Y-23281760D01*
X35887718Y-23281760D02*
X35925813Y-23091283D01*
X35925813Y-23091283D02*
X35925813Y-22938902D01*
X35925813Y-22938902D02*
X35887718Y-22748426D01*
X35887718Y-22748426D02*
X35849623Y-22634140D01*
X35849623Y-22634140D02*
X35811528Y-22557950D01*
X35811528Y-22557950D02*
X35735337Y-22443664D01*
X35735337Y-22443664D02*
X35697242Y-22405569D01*
X34973433Y-23319855D02*
X35430576Y-23319855D01*
X35202004Y-23319855D02*
X35202004Y-22519855D01*
X35202004Y-22519855D02*
X35278195Y-22634140D01*
X35278195Y-22634140D02*
X35354385Y-22710331D01*
X35354385Y-22710331D02*
X35430576Y-22748426D01*
X34287718Y-22519855D02*
X34440099Y-22519855D01*
X34440099Y-22519855D02*
X34516290Y-22557950D01*
X34516290Y-22557950D02*
X34554385Y-22596045D01*
X34554385Y-22596045D02*
X34630575Y-22710331D01*
X34630575Y-22710331D02*
X34668671Y-22862712D01*
X34668671Y-22862712D02*
X34668671Y-23167474D01*
X34668671Y-23167474D02*
X34630575Y-23243664D01*
X34630575Y-23243664D02*
X34592480Y-23281760D01*
X34592480Y-23281760D02*
X34516290Y-23319855D01*
X34516290Y-23319855D02*
X34363909Y-23319855D01*
X34363909Y-23319855D02*
X34287718Y-23281760D01*
X34287718Y-23281760D02*
X34249623Y-23243664D01*
X34249623Y-23243664D02*
X34211528Y-23167474D01*
X34211528Y-23167474D02*
X34211528Y-22976998D01*
X34211528Y-22976998D02*
X34249623Y-22900807D01*
X34249623Y-22900807D02*
X34287718Y-22862712D01*
X34287718Y-22862712D02*
X34363909Y-22824617D01*
X34363909Y-22824617D02*
X34516290Y-22824617D01*
X34516290Y-22824617D02*
X34592480Y-22862712D01*
X34592480Y-22862712D02*
X34630575Y-22900807D01*
X34630575Y-22900807D02*
X34668671Y-22976998D01*
X33982956Y-22519855D02*
X33716289Y-23319855D01*
X33716289Y-23319855D02*
X33449623Y-22519855D01*
X32573432Y-23319855D02*
X32573432Y-22519855D01*
X32573432Y-22519855D02*
X32306766Y-23091283D01*
X32306766Y-23091283D02*
X32040099Y-22519855D01*
X32040099Y-22519855D02*
X32040099Y-23319855D01*
X31697242Y-23091283D02*
X31316289Y-23091283D01*
X31773432Y-23319855D02*
X31506765Y-22519855D01*
X31506765Y-22519855D02*
X31240099Y-23319855D01*
X31049623Y-22519855D02*
X30516289Y-23319855D01*
X30516289Y-22519855D02*
X31049623Y-23319855D01*
X30287718Y-23624617D02*
X30249623Y-23586521D01*
X30249623Y-23586521D02*
X30173432Y-23472236D01*
X30173432Y-23472236D02*
X30135337Y-23396045D01*
X30135337Y-23396045D02*
X30097242Y-23281760D01*
X30097242Y-23281760D02*
X30059146Y-23091283D01*
X30059146Y-23091283D02*
X30059146Y-22938902D01*
X30059146Y-22938902D02*
X30097242Y-22748426D01*
X30097242Y-22748426D02*
X30135337Y-22634140D01*
X30135337Y-22634140D02*
X30173432Y-22557950D01*
X30173432Y-22557950D02*
X30249623Y-22443664D01*
X30249623Y-22443664D02*
X30287718Y-22405569D01*
X44306767Y-23807855D02*
X43811529Y-23807855D01*
X43811529Y-23807855D02*
X44078195Y-24112617D01*
X44078195Y-24112617D02*
X43963910Y-24112617D01*
X43963910Y-24112617D02*
X43887719Y-24150712D01*
X43887719Y-24150712D02*
X43849624Y-24188807D01*
X43849624Y-24188807D02*
X43811529Y-24264998D01*
X43811529Y-24264998D02*
X43811529Y-24455474D01*
X43811529Y-24455474D02*
X43849624Y-24531664D01*
X43849624Y-24531664D02*
X43887719Y-24569760D01*
X43887719Y-24569760D02*
X43963910Y-24607855D01*
X43963910Y-24607855D02*
X44192481Y-24607855D01*
X44192481Y-24607855D02*
X44268672Y-24569760D01*
X44268672Y-24569760D02*
X44306767Y-24531664D01*
X43468671Y-24531664D02*
X43430576Y-24569760D01*
X43430576Y-24569760D02*
X43468671Y-24607855D01*
X43468671Y-24607855D02*
X43506767Y-24569760D01*
X43506767Y-24569760D02*
X43468671Y-24531664D01*
X43468671Y-24531664D02*
X43468671Y-24607855D01*
X43163910Y-23807855D02*
X42630576Y-23807855D01*
X42630576Y-23807855D02*
X42973434Y-24607855D01*
X42440100Y-23807855D02*
X42173433Y-24607855D01*
X42173433Y-24607855D02*
X41906767Y-23807855D01*
X41030576Y-24607855D02*
X41030576Y-23807855D01*
X41030576Y-23807855D02*
X40840100Y-23807855D01*
X40840100Y-23807855D02*
X40725814Y-23845950D01*
X40725814Y-23845950D02*
X40649624Y-23922140D01*
X40649624Y-23922140D02*
X40611529Y-23998331D01*
X40611529Y-23998331D02*
X40573433Y-24150712D01*
X40573433Y-24150712D02*
X40573433Y-24264998D01*
X40573433Y-24264998D02*
X40611529Y-24417379D01*
X40611529Y-24417379D02*
X40649624Y-24493569D01*
X40649624Y-24493569D02*
X40725814Y-24569760D01*
X40725814Y-24569760D02*
X40840100Y-24607855D01*
X40840100Y-24607855D02*
X41030576Y-24607855D01*
X39773433Y-24531664D02*
X39811529Y-24569760D01*
X39811529Y-24569760D02*
X39925814Y-24607855D01*
X39925814Y-24607855D02*
X40002005Y-24607855D01*
X40002005Y-24607855D02*
X40116291Y-24569760D01*
X40116291Y-24569760D02*
X40192481Y-24493569D01*
X40192481Y-24493569D02*
X40230576Y-24417379D01*
X40230576Y-24417379D02*
X40268672Y-24264998D01*
X40268672Y-24264998D02*
X40268672Y-24150712D01*
X40268672Y-24150712D02*
X40230576Y-23998331D01*
X40230576Y-23998331D02*
X40192481Y-23922140D01*
X40192481Y-23922140D02*
X40116291Y-23845950D01*
X40116291Y-23845950D02*
X40002005Y-23807855D01*
X40002005Y-23807855D02*
X39925814Y-23807855D01*
X39925814Y-23807855D02*
X39811529Y-23845950D01*
X39811529Y-23845950D02*
X39773433Y-23884045D01*
X38478195Y-24074521D02*
X38478195Y-24607855D01*
X38668671Y-23769760D02*
X38859148Y-24341188D01*
X38859148Y-24341188D02*
X38363909Y-24341188D01*
X37906766Y-23807855D02*
X37830576Y-23807855D01*
X37830576Y-23807855D02*
X37754385Y-23845950D01*
X37754385Y-23845950D02*
X37716290Y-23884045D01*
X37716290Y-23884045D02*
X37678195Y-23960236D01*
X37678195Y-23960236D02*
X37640100Y-24112617D01*
X37640100Y-24112617D02*
X37640100Y-24303093D01*
X37640100Y-24303093D02*
X37678195Y-24455474D01*
X37678195Y-24455474D02*
X37716290Y-24531664D01*
X37716290Y-24531664D02*
X37754385Y-24569760D01*
X37754385Y-24569760D02*
X37830576Y-24607855D01*
X37830576Y-24607855D02*
X37906766Y-24607855D01*
X37906766Y-24607855D02*
X37982957Y-24569760D01*
X37982957Y-24569760D02*
X38021052Y-24531664D01*
X38021052Y-24531664D02*
X38059147Y-24455474D01*
X38059147Y-24455474D02*
X38097243Y-24303093D01*
X38097243Y-24303093D02*
X38097243Y-24112617D01*
X38097243Y-24112617D02*
X38059147Y-23960236D01*
X38059147Y-23960236D02*
X38021052Y-23884045D01*
X38021052Y-23884045D02*
X37982957Y-23845950D01*
X37982957Y-23845950D02*
X37906766Y-23807855D01*
X37144861Y-23807855D02*
X37068671Y-23807855D01*
X37068671Y-23807855D02*
X36992480Y-23845950D01*
X36992480Y-23845950D02*
X36954385Y-23884045D01*
X36954385Y-23884045D02*
X36916290Y-23960236D01*
X36916290Y-23960236D02*
X36878195Y-24112617D01*
X36878195Y-24112617D02*
X36878195Y-24303093D01*
X36878195Y-24303093D02*
X36916290Y-24455474D01*
X36916290Y-24455474D02*
X36954385Y-24531664D01*
X36954385Y-24531664D02*
X36992480Y-24569760D01*
X36992480Y-24569760D02*
X37068671Y-24607855D01*
X37068671Y-24607855D02*
X37144861Y-24607855D01*
X37144861Y-24607855D02*
X37221052Y-24569760D01*
X37221052Y-24569760D02*
X37259147Y-24531664D01*
X37259147Y-24531664D02*
X37297242Y-24455474D01*
X37297242Y-24455474D02*
X37335338Y-24303093D01*
X37335338Y-24303093D02*
X37335338Y-24112617D01*
X37335338Y-24112617D02*
X37297242Y-23960236D01*
X37297242Y-23960236D02*
X37259147Y-23884045D01*
X37259147Y-23884045D02*
X37221052Y-23845950D01*
X37221052Y-23845950D02*
X37144861Y-23807855D01*
X36535337Y-24607855D02*
X36535337Y-24074521D01*
X36535337Y-24150712D02*
X36497242Y-24112617D01*
X36497242Y-24112617D02*
X36421052Y-24074521D01*
X36421052Y-24074521D02*
X36306766Y-24074521D01*
X36306766Y-24074521D02*
X36230575Y-24112617D01*
X36230575Y-24112617D02*
X36192480Y-24188807D01*
X36192480Y-24188807D02*
X36192480Y-24607855D01*
X36192480Y-24188807D02*
X36154385Y-24112617D01*
X36154385Y-24112617D02*
X36078194Y-24074521D01*
X36078194Y-24074521D02*
X35963909Y-24074521D01*
X35963909Y-24074521D02*
X35887718Y-24112617D01*
X35887718Y-24112617D02*
X35849623Y-24188807D01*
X35849623Y-24188807D02*
X35849623Y-24607855D01*
X35506766Y-24379283D02*
X35125813Y-24379283D01*
X35582956Y-24607855D02*
X35316289Y-23807855D01*
X35316289Y-23807855D02*
X35049623Y-24607855D01*
X44306767Y-25095855D02*
X43811529Y-25095855D01*
X43811529Y-25095855D02*
X44078195Y-25400617D01*
X44078195Y-25400617D02*
X43963910Y-25400617D01*
X43963910Y-25400617D02*
X43887719Y-25438712D01*
X43887719Y-25438712D02*
X43849624Y-25476807D01*
X43849624Y-25476807D02*
X43811529Y-25552998D01*
X43811529Y-25552998D02*
X43811529Y-25743474D01*
X43811529Y-25743474D02*
X43849624Y-25819664D01*
X43849624Y-25819664D02*
X43887719Y-25857760D01*
X43887719Y-25857760D02*
X43963910Y-25895855D01*
X43963910Y-25895855D02*
X44192481Y-25895855D01*
X44192481Y-25895855D02*
X44268672Y-25857760D01*
X44268672Y-25857760D02*
X44306767Y-25819664D01*
X43468671Y-25819664D02*
X43430576Y-25857760D01*
X43430576Y-25857760D02*
X43468671Y-25895855D01*
X43468671Y-25895855D02*
X43506767Y-25857760D01*
X43506767Y-25857760D02*
X43468671Y-25819664D01*
X43468671Y-25819664D02*
X43468671Y-25895855D01*
X43163910Y-25095855D02*
X42630576Y-25095855D01*
X42630576Y-25095855D02*
X42973434Y-25895855D01*
X42440100Y-25095855D02*
X42173433Y-25895855D01*
X42173433Y-25895855D02*
X41906767Y-25095855D01*
X41068672Y-25172045D02*
X41030576Y-25133950D01*
X41030576Y-25133950D02*
X40954386Y-25095855D01*
X40954386Y-25095855D02*
X40763910Y-25095855D01*
X40763910Y-25095855D02*
X40687719Y-25133950D01*
X40687719Y-25133950D02*
X40649624Y-25172045D01*
X40649624Y-25172045D02*
X40611529Y-25248236D01*
X40611529Y-25248236D02*
X40611529Y-25324426D01*
X40611529Y-25324426D02*
X40649624Y-25438712D01*
X40649624Y-25438712D02*
X41106767Y-25895855D01*
X41106767Y-25895855D02*
X40611529Y-25895855D01*
X40116290Y-25095855D02*
X40040100Y-25095855D01*
X40040100Y-25095855D02*
X39963909Y-25133950D01*
X39963909Y-25133950D02*
X39925814Y-25172045D01*
X39925814Y-25172045D02*
X39887719Y-25248236D01*
X39887719Y-25248236D02*
X39849624Y-25400617D01*
X39849624Y-25400617D02*
X39849624Y-25591093D01*
X39849624Y-25591093D02*
X39887719Y-25743474D01*
X39887719Y-25743474D02*
X39925814Y-25819664D01*
X39925814Y-25819664D02*
X39963909Y-25857760D01*
X39963909Y-25857760D02*
X40040100Y-25895855D01*
X40040100Y-25895855D02*
X40116290Y-25895855D01*
X40116290Y-25895855D02*
X40192481Y-25857760D01*
X40192481Y-25857760D02*
X40230576Y-25819664D01*
X40230576Y-25819664D02*
X40268671Y-25743474D01*
X40268671Y-25743474D02*
X40306767Y-25591093D01*
X40306767Y-25591093D02*
X40306767Y-25400617D01*
X40306767Y-25400617D02*
X40268671Y-25248236D01*
X40268671Y-25248236D02*
X40230576Y-25172045D01*
X40230576Y-25172045D02*
X40192481Y-25133950D01*
X40192481Y-25133950D02*
X40116290Y-25095855D01*
X39354385Y-25095855D02*
X39278195Y-25095855D01*
X39278195Y-25095855D02*
X39202004Y-25133950D01*
X39202004Y-25133950D02*
X39163909Y-25172045D01*
X39163909Y-25172045D02*
X39125814Y-25248236D01*
X39125814Y-25248236D02*
X39087719Y-25400617D01*
X39087719Y-25400617D02*
X39087719Y-25591093D01*
X39087719Y-25591093D02*
X39125814Y-25743474D01*
X39125814Y-25743474D02*
X39163909Y-25819664D01*
X39163909Y-25819664D02*
X39202004Y-25857760D01*
X39202004Y-25857760D02*
X39278195Y-25895855D01*
X39278195Y-25895855D02*
X39354385Y-25895855D01*
X39354385Y-25895855D02*
X39430576Y-25857760D01*
X39430576Y-25857760D02*
X39468671Y-25819664D01*
X39468671Y-25819664D02*
X39506766Y-25743474D01*
X39506766Y-25743474D02*
X39544862Y-25591093D01*
X39544862Y-25591093D02*
X39544862Y-25400617D01*
X39544862Y-25400617D02*
X39506766Y-25248236D01*
X39506766Y-25248236D02*
X39468671Y-25172045D01*
X39468671Y-25172045D02*
X39430576Y-25133950D01*
X39430576Y-25133950D02*
X39354385Y-25095855D01*
X38592480Y-25095855D02*
X38516290Y-25095855D01*
X38516290Y-25095855D02*
X38440099Y-25133950D01*
X38440099Y-25133950D02*
X38402004Y-25172045D01*
X38402004Y-25172045D02*
X38363909Y-25248236D01*
X38363909Y-25248236D02*
X38325814Y-25400617D01*
X38325814Y-25400617D02*
X38325814Y-25591093D01*
X38325814Y-25591093D02*
X38363909Y-25743474D01*
X38363909Y-25743474D02*
X38402004Y-25819664D01*
X38402004Y-25819664D02*
X38440099Y-25857760D01*
X38440099Y-25857760D02*
X38516290Y-25895855D01*
X38516290Y-25895855D02*
X38592480Y-25895855D01*
X38592480Y-25895855D02*
X38668671Y-25857760D01*
X38668671Y-25857760D02*
X38706766Y-25819664D01*
X38706766Y-25819664D02*
X38744861Y-25743474D01*
X38744861Y-25743474D02*
X38782957Y-25591093D01*
X38782957Y-25591093D02*
X38782957Y-25400617D01*
X38782957Y-25400617D02*
X38744861Y-25248236D01*
X38744861Y-25248236D02*
X38706766Y-25172045D01*
X38706766Y-25172045D02*
X38668671Y-25133950D01*
X38668671Y-25133950D02*
X38592480Y-25095855D01*
X37982956Y-25895855D02*
X37982956Y-25362521D01*
X37982956Y-25438712D02*
X37944861Y-25400617D01*
X37944861Y-25400617D02*
X37868671Y-25362521D01*
X37868671Y-25362521D02*
X37754385Y-25362521D01*
X37754385Y-25362521D02*
X37678194Y-25400617D01*
X37678194Y-25400617D02*
X37640099Y-25476807D01*
X37640099Y-25476807D02*
X37640099Y-25895855D01*
X37640099Y-25476807D02*
X37602004Y-25400617D01*
X37602004Y-25400617D02*
X37525813Y-25362521D01*
X37525813Y-25362521D02*
X37411528Y-25362521D01*
X37411528Y-25362521D02*
X37335337Y-25400617D01*
X37335337Y-25400617D02*
X37297242Y-25476807D01*
X37297242Y-25476807D02*
X37297242Y-25895855D01*
X36954385Y-25667283D02*
X36573432Y-25667283D01*
X37030575Y-25895855D02*
X36763908Y-25095855D01*
X36763908Y-25095855D02*
X36497242Y-25895855D01*
X36230575Y-25895855D02*
X36230575Y-25095855D01*
X35887718Y-25895855D02*
X35887718Y-25476807D01*
X35887718Y-25476807D02*
X35925813Y-25400617D01*
X35925813Y-25400617D02*
X36002004Y-25362521D01*
X36002004Y-25362521D02*
X36116290Y-25362521D01*
X36116290Y-25362521D02*
X36192480Y-25400617D01*
X36192480Y-25400617D02*
X36230575Y-25438712D01*
X34516289Y-25895855D02*
X34897241Y-25895855D01*
X34897241Y-25895855D02*
X34897241Y-25095855D01*
X34249622Y-25895855D02*
X34249622Y-25362521D01*
X34249622Y-25095855D02*
X34287718Y-25133950D01*
X34287718Y-25133950D02*
X34249622Y-25172045D01*
X34249622Y-25172045D02*
X34211527Y-25133950D01*
X34211527Y-25133950D02*
X34249622Y-25095855D01*
X34249622Y-25095855D02*
X34249622Y-25172045D01*
X33868670Y-25895855D02*
X33868670Y-25095855D01*
X33868670Y-25095855D02*
X33563908Y-25095855D01*
X33563908Y-25095855D02*
X33487718Y-25133950D01*
X33487718Y-25133950D02*
X33449623Y-25172045D01*
X33449623Y-25172045D02*
X33411527Y-25248236D01*
X33411527Y-25248236D02*
X33411527Y-25362521D01*
X33411527Y-25362521D02*
X33449623Y-25438712D01*
X33449623Y-25438712D02*
X33487718Y-25476807D01*
X33487718Y-25476807D02*
X33563908Y-25514902D01*
X33563908Y-25514902D02*
X33868670Y-25514902D01*
X32954385Y-25895855D02*
X33030575Y-25857760D01*
X33030575Y-25857760D02*
X33068670Y-25819664D01*
X33068670Y-25819664D02*
X33106766Y-25743474D01*
X33106766Y-25743474D02*
X33106766Y-25514902D01*
X33106766Y-25514902D02*
X33068670Y-25438712D01*
X33068670Y-25438712D02*
X33030575Y-25400617D01*
X33030575Y-25400617D02*
X32954385Y-25362521D01*
X32954385Y-25362521D02*
X32840099Y-25362521D01*
X32840099Y-25362521D02*
X32763908Y-25400617D01*
X32763908Y-25400617D02*
X32725813Y-25438712D01*
X32725813Y-25438712D02*
X32687718Y-25514902D01*
X32687718Y-25514902D02*
X32687718Y-25743474D01*
X32687718Y-25743474D02*
X32725813Y-25819664D01*
X32725813Y-25819664D02*
X32763908Y-25857760D01*
X32763908Y-25857760D02*
X32840099Y-25895855D01*
X32840099Y-25895855D02*
X32954385Y-25895855D01*
D12*
X47421241Y-12538071D02*
X47492669Y-12609500D01*
X47492669Y-12609500D02*
X47706955Y-12680928D01*
X47706955Y-12680928D02*
X47849812Y-12680928D01*
X47849812Y-12680928D02*
X48064098Y-12609500D01*
X48064098Y-12609500D02*
X48206955Y-12466642D01*
X48206955Y-12466642D02*
X48278384Y-12323785D01*
X48278384Y-12323785D02*
X48349812Y-12038071D01*
X48349812Y-12038071D02*
X48349812Y-11823785D01*
X48349812Y-11823785D02*
X48278384Y-11538071D01*
X48278384Y-11538071D02*
X48206955Y-11395214D01*
X48206955Y-11395214D02*
X48064098Y-11252357D01*
X48064098Y-11252357D02*
X47849812Y-11180928D01*
X47849812Y-11180928D02*
X47706955Y-11180928D01*
X47706955Y-11180928D02*
X47492669Y-11252357D01*
X47492669Y-11252357D02*
X47421241Y-11323785D01*
X46849812Y-12252357D02*
X46135527Y-12252357D01*
X46992669Y-12680928D02*
X46492669Y-11180928D01*
X46492669Y-11180928D02*
X45992669Y-12680928D01*
X44778384Y-12680928D02*
X45492670Y-12680928D01*
X45492670Y-12680928D02*
X45492670Y-11180928D01*
X43421241Y-12538071D02*
X43492669Y-12609500D01*
X43492669Y-12609500D02*
X43706955Y-12680928D01*
X43706955Y-12680928D02*
X43849812Y-12680928D01*
X43849812Y-12680928D02*
X44064098Y-12609500D01*
X44064098Y-12609500D02*
X44206955Y-12466642D01*
X44206955Y-12466642D02*
X44278384Y-12323785D01*
X44278384Y-12323785D02*
X44349812Y-12038071D01*
X44349812Y-12038071D02*
X44349812Y-11823785D01*
X44349812Y-11823785D02*
X44278384Y-11538071D01*
X44278384Y-11538071D02*
X44206955Y-11395214D01*
X44206955Y-11395214D02*
X44064098Y-11252357D01*
X44064098Y-11252357D02*
X43849812Y-11180928D01*
X43849812Y-11180928D02*
X43706955Y-11180928D01*
X43706955Y-11180928D02*
X43492669Y-11252357D01*
X43492669Y-11252357D02*
X43421241Y-11323785D01*
X42778384Y-12680928D02*
X42778384Y-11180928D01*
X42778384Y-11180928D02*
X42206955Y-11180928D01*
X42206955Y-11180928D02*
X42064098Y-11252357D01*
X42064098Y-11252357D02*
X41992669Y-11323785D01*
X41992669Y-11323785D02*
X41921241Y-11466642D01*
X41921241Y-11466642D02*
X41921241Y-11680928D01*
X41921241Y-11680928D02*
X41992669Y-11823785D01*
X41992669Y-11823785D02*
X42064098Y-11895214D01*
X42064098Y-11895214D02*
X42206955Y-11966642D01*
X42206955Y-11966642D02*
X42778384Y-11966642D01*
X41349812Y-12609500D02*
X41135527Y-12680928D01*
X41135527Y-12680928D02*
X40778384Y-12680928D01*
X40778384Y-12680928D02*
X40635527Y-12609500D01*
X40635527Y-12609500D02*
X40564098Y-12538071D01*
X40564098Y-12538071D02*
X40492669Y-12395214D01*
X40492669Y-12395214D02*
X40492669Y-12252357D01*
X40492669Y-12252357D02*
X40564098Y-12109500D01*
X40564098Y-12109500D02*
X40635527Y-12038071D01*
X40635527Y-12038071D02*
X40778384Y-11966642D01*
X40778384Y-11966642D02*
X41064098Y-11895214D01*
X41064098Y-11895214D02*
X41206955Y-11823785D01*
X41206955Y-11823785D02*
X41278384Y-11752357D01*
X41278384Y-11752357D02*
X41349812Y-11609500D01*
X41349812Y-11609500D02*
X41349812Y-11466642D01*
X41349812Y-11466642D02*
X41278384Y-11323785D01*
X41278384Y-11323785D02*
X41206955Y-11252357D01*
X41206955Y-11252357D02*
X41064098Y-11180928D01*
X41064098Y-11180928D02*
X40706955Y-11180928D01*
X40706955Y-11180928D02*
X40492669Y-11252357D01*
X39849813Y-11180928D02*
X39849813Y-12395214D01*
X39849813Y-12395214D02*
X39778384Y-12538071D01*
X39778384Y-12538071D02*
X39706956Y-12609500D01*
X39706956Y-12609500D02*
X39564098Y-12680928D01*
X39564098Y-12680928D02*
X39278384Y-12680928D01*
X39278384Y-12680928D02*
X39135527Y-12609500D01*
X39135527Y-12609500D02*
X39064098Y-12538071D01*
X39064098Y-12538071D02*
X38992670Y-12395214D01*
X38992670Y-12395214D02*
X38992670Y-11180928D01*
X38278384Y-12538071D02*
X38206955Y-12609500D01*
X38206955Y-12609500D02*
X38278384Y-12680928D01*
X38278384Y-12680928D02*
X38349812Y-12609500D01*
X38349812Y-12609500D02*
X38278384Y-12538071D01*
X38278384Y-12538071D02*
X38278384Y-12680928D01*
X36706955Y-12538071D02*
X36778383Y-12609500D01*
X36778383Y-12609500D02*
X36992669Y-12680928D01*
X36992669Y-12680928D02*
X37135526Y-12680928D01*
X37135526Y-12680928D02*
X37349812Y-12609500D01*
X37349812Y-12609500D02*
X37492669Y-12466642D01*
X37492669Y-12466642D02*
X37564098Y-12323785D01*
X37564098Y-12323785D02*
X37635526Y-12038071D01*
X37635526Y-12038071D02*
X37635526Y-11823785D01*
X37635526Y-11823785D02*
X37564098Y-11538071D01*
X37564098Y-11538071D02*
X37492669Y-11395214D01*
X37492669Y-11395214D02*
X37349812Y-11252357D01*
X37349812Y-11252357D02*
X37135526Y-11180928D01*
X37135526Y-11180928D02*
X36992669Y-11180928D01*
X36992669Y-11180928D02*
X36778383Y-11252357D01*
X36778383Y-11252357D02*
X36706955Y-11323785D01*
X35778383Y-11180928D02*
X35492669Y-11180928D01*
X35492669Y-11180928D02*
X35349812Y-11252357D01*
X35349812Y-11252357D02*
X35206955Y-11395214D01*
X35206955Y-11395214D02*
X35135526Y-11680928D01*
X35135526Y-11680928D02*
X35135526Y-12180928D01*
X35135526Y-12180928D02*
X35206955Y-12466642D01*
X35206955Y-12466642D02*
X35349812Y-12609500D01*
X35349812Y-12609500D02*
X35492669Y-12680928D01*
X35492669Y-12680928D02*
X35778383Y-12680928D01*
X35778383Y-12680928D02*
X35921241Y-12609500D01*
X35921241Y-12609500D02*
X36064098Y-12466642D01*
X36064098Y-12466642D02*
X36135526Y-12180928D01*
X36135526Y-12180928D02*
X36135526Y-11680928D01*
X36135526Y-11680928D02*
X36064098Y-11395214D01*
X36064098Y-11395214D02*
X35921241Y-11252357D01*
X35921241Y-11252357D02*
X35778383Y-11180928D01*
X34492669Y-12680928D02*
X34492669Y-11180928D01*
X34492669Y-11180928D02*
X33992669Y-12252357D01*
X33992669Y-12252357D02*
X33492669Y-11180928D01*
X33492669Y-11180928D02*
X33492669Y-12680928D01*
X32778383Y-12538071D02*
X32706954Y-12609500D01*
X32706954Y-12609500D02*
X32778383Y-12680928D01*
X32778383Y-12680928D02*
X32849811Y-12609500D01*
X32849811Y-12609500D02*
X32778383Y-12538071D01*
X32778383Y-12538071D02*
X32778383Y-12680928D01*
X32135525Y-12252357D02*
X31421240Y-12252357D01*
X32278382Y-12680928D02*
X31778382Y-11180928D01*
X31778382Y-11180928D02*
X31278382Y-12680928D01*
X30778383Y-11180928D02*
X30778383Y-12395214D01*
X30778383Y-12395214D02*
X30706954Y-12538071D01*
X30706954Y-12538071D02*
X30635526Y-12609500D01*
X30635526Y-12609500D02*
X30492668Y-12680928D01*
X30492668Y-12680928D02*
X30206954Y-12680928D01*
X30206954Y-12680928D02*
X30064097Y-12609500D01*
X30064097Y-12609500D02*
X29992668Y-12538071D01*
X29992668Y-12538071D02*
X29921240Y-12395214D01*
X29921240Y-12395214D02*
X29921240Y-11180928D01*
D13*
X9404761Y-14356333D02*
X5595238Y-14356333D01*
D11*
X52730576Y-16831855D02*
X52730576Y-16031855D01*
X52730576Y-16031855D02*
X52463910Y-16603283D01*
X52463910Y-16603283D02*
X52197243Y-16031855D01*
X52197243Y-16031855D02*
X52197243Y-16831855D01*
X51663909Y-16031855D02*
X51511528Y-16031855D01*
X51511528Y-16031855D02*
X51435338Y-16069950D01*
X51435338Y-16069950D02*
X51359147Y-16146140D01*
X51359147Y-16146140D02*
X51321052Y-16298521D01*
X51321052Y-16298521D02*
X51321052Y-16565188D01*
X51321052Y-16565188D02*
X51359147Y-16717569D01*
X51359147Y-16717569D02*
X51435338Y-16793760D01*
X51435338Y-16793760D02*
X51511528Y-16831855D01*
X51511528Y-16831855D02*
X51663909Y-16831855D01*
X51663909Y-16831855D02*
X51740100Y-16793760D01*
X51740100Y-16793760D02*
X51816290Y-16717569D01*
X51816290Y-16717569D02*
X51854386Y-16565188D01*
X51854386Y-16565188D02*
X51854386Y-16298521D01*
X51854386Y-16298521D02*
X51816290Y-16146140D01*
X51816290Y-16146140D02*
X51740100Y-16069950D01*
X51740100Y-16069950D02*
X51663909Y-16031855D01*
X50978195Y-16831855D02*
X50978195Y-16031855D01*
X50978195Y-16031855D02*
X50787719Y-16031855D01*
X50787719Y-16031855D02*
X50673433Y-16069950D01*
X50673433Y-16069950D02*
X50597243Y-16146140D01*
X50597243Y-16146140D02*
X50559148Y-16222331D01*
X50559148Y-16222331D02*
X50521052Y-16374712D01*
X50521052Y-16374712D02*
X50521052Y-16488998D01*
X50521052Y-16488998D02*
X50559148Y-16641379D01*
X50559148Y-16641379D02*
X50597243Y-16717569D01*
X50597243Y-16717569D02*
X50673433Y-16793760D01*
X50673433Y-16793760D02*
X50787719Y-16831855D01*
X50787719Y-16831855D02*
X50978195Y-16831855D01*
X50178195Y-16412807D02*
X49911529Y-16412807D01*
X49797243Y-16831855D02*
X50178195Y-16831855D01*
X50178195Y-16831855D02*
X50178195Y-16031855D01*
X50178195Y-16031855D02*
X49797243Y-16031855D01*
X49073433Y-16831855D02*
X49454385Y-16831855D01*
X49454385Y-16831855D02*
X49454385Y-16031855D01*
X48806766Y-16755664D02*
X48768671Y-16793760D01*
X48768671Y-16793760D02*
X48806766Y-16831855D01*
X48806766Y-16831855D02*
X48844862Y-16793760D01*
X48844862Y-16793760D02*
X48806766Y-16755664D01*
X48806766Y-16755664D02*
X48806766Y-16831855D01*
X48806766Y-16336617D02*
X48768671Y-16374712D01*
X48768671Y-16374712D02*
X48806766Y-16412807D01*
X48806766Y-16412807D02*
X48844862Y-16374712D01*
X48844862Y-16374712D02*
X48806766Y-16336617D01*
X48806766Y-16336617D02*
X48806766Y-16412807D01*
X52768672Y-19369760D02*
X52654386Y-19407855D01*
X52654386Y-19407855D02*
X52463910Y-19407855D01*
X52463910Y-19407855D02*
X52387719Y-19369760D01*
X52387719Y-19369760D02*
X52349624Y-19331664D01*
X52349624Y-19331664D02*
X52311529Y-19255474D01*
X52311529Y-19255474D02*
X52311529Y-19179283D01*
X52311529Y-19179283D02*
X52349624Y-19103093D01*
X52349624Y-19103093D02*
X52387719Y-19064998D01*
X52387719Y-19064998D02*
X52463910Y-19026902D01*
X52463910Y-19026902D02*
X52616291Y-18988807D01*
X52616291Y-18988807D02*
X52692481Y-18950712D01*
X52692481Y-18950712D02*
X52730576Y-18912617D01*
X52730576Y-18912617D02*
X52768672Y-18836426D01*
X52768672Y-18836426D02*
X52768672Y-18760236D01*
X52768672Y-18760236D02*
X52730576Y-18684045D01*
X52730576Y-18684045D02*
X52692481Y-18645950D01*
X52692481Y-18645950D02*
X52616291Y-18607855D01*
X52616291Y-18607855D02*
X52425814Y-18607855D01*
X52425814Y-18607855D02*
X52311529Y-18645950D01*
X51968671Y-18988807D02*
X51702005Y-18988807D01*
X51587719Y-19407855D02*
X51968671Y-19407855D01*
X51968671Y-19407855D02*
X51968671Y-18607855D01*
X51968671Y-18607855D02*
X51587719Y-18607855D01*
X50787718Y-19407855D02*
X51054385Y-19026902D01*
X51244861Y-19407855D02*
X51244861Y-18607855D01*
X51244861Y-18607855D02*
X50940099Y-18607855D01*
X50940099Y-18607855D02*
X50863909Y-18645950D01*
X50863909Y-18645950D02*
X50825814Y-18684045D01*
X50825814Y-18684045D02*
X50787718Y-18760236D01*
X50787718Y-18760236D02*
X50787718Y-18874521D01*
X50787718Y-18874521D02*
X50825814Y-18950712D01*
X50825814Y-18950712D02*
X50863909Y-18988807D01*
X50863909Y-18988807D02*
X50940099Y-19026902D01*
X50940099Y-19026902D02*
X51244861Y-19026902D01*
X50444861Y-19407855D02*
X50444861Y-18607855D01*
X50102005Y-19179283D02*
X49721052Y-19179283D01*
X50178195Y-19407855D02*
X49911528Y-18607855D01*
X49911528Y-18607855D02*
X49644862Y-19407855D01*
X48997243Y-19407855D02*
X49378195Y-19407855D01*
X49378195Y-19407855D02*
X49378195Y-18607855D01*
X48730576Y-19331664D02*
X48692481Y-19369760D01*
X48692481Y-19369760D02*
X48730576Y-19407855D01*
X48730576Y-19407855D02*
X48768672Y-19369760D01*
X48768672Y-19369760D02*
X48730576Y-19331664D01*
X48730576Y-19331664D02*
X48730576Y-19407855D01*
X48730576Y-18912617D02*
X48692481Y-18950712D01*
X48692481Y-18950712D02*
X48730576Y-18988807D01*
X48730576Y-18988807D02*
X48768672Y-18950712D01*
X48768672Y-18950712D02*
X48730576Y-18912617D01*
X48730576Y-18912617D02*
X48730576Y-18988807D01*
X52730576Y-21183855D02*
X52730576Y-21831474D01*
X52730576Y-21831474D02*
X52692481Y-21907664D01*
X52692481Y-21907664D02*
X52654386Y-21945760D01*
X52654386Y-21945760D02*
X52578195Y-21983855D01*
X52578195Y-21983855D02*
X52425814Y-21983855D01*
X52425814Y-21983855D02*
X52349624Y-21945760D01*
X52349624Y-21945760D02*
X52311529Y-21907664D01*
X52311529Y-21907664D02*
X52273433Y-21831474D01*
X52273433Y-21831474D02*
X52273433Y-21183855D01*
X51930577Y-21945760D02*
X51816291Y-21983855D01*
X51816291Y-21983855D02*
X51625815Y-21983855D01*
X51625815Y-21983855D02*
X51549624Y-21945760D01*
X51549624Y-21945760D02*
X51511529Y-21907664D01*
X51511529Y-21907664D02*
X51473434Y-21831474D01*
X51473434Y-21831474D02*
X51473434Y-21755283D01*
X51473434Y-21755283D02*
X51511529Y-21679093D01*
X51511529Y-21679093D02*
X51549624Y-21640998D01*
X51549624Y-21640998D02*
X51625815Y-21602902D01*
X51625815Y-21602902D02*
X51778196Y-21564807D01*
X51778196Y-21564807D02*
X51854386Y-21526712D01*
X51854386Y-21526712D02*
X51892481Y-21488617D01*
X51892481Y-21488617D02*
X51930577Y-21412426D01*
X51930577Y-21412426D02*
X51930577Y-21336236D01*
X51930577Y-21336236D02*
X51892481Y-21260045D01*
X51892481Y-21260045D02*
X51854386Y-21221950D01*
X51854386Y-21221950D02*
X51778196Y-21183855D01*
X51778196Y-21183855D02*
X51587719Y-21183855D01*
X51587719Y-21183855D02*
X51473434Y-21221950D01*
X50863910Y-21564807D02*
X50749624Y-21602902D01*
X50749624Y-21602902D02*
X50711529Y-21640998D01*
X50711529Y-21640998D02*
X50673433Y-21717188D01*
X50673433Y-21717188D02*
X50673433Y-21831474D01*
X50673433Y-21831474D02*
X50711529Y-21907664D01*
X50711529Y-21907664D02*
X50749624Y-21945760D01*
X50749624Y-21945760D02*
X50825814Y-21983855D01*
X50825814Y-21983855D02*
X51130576Y-21983855D01*
X51130576Y-21983855D02*
X51130576Y-21183855D01*
X51130576Y-21183855D02*
X50863910Y-21183855D01*
X50863910Y-21183855D02*
X50787719Y-21221950D01*
X50787719Y-21221950D02*
X50749624Y-21260045D01*
X50749624Y-21260045D02*
X50711529Y-21336236D01*
X50711529Y-21336236D02*
X50711529Y-21412426D01*
X50711529Y-21412426D02*
X50749624Y-21488617D01*
X50749624Y-21488617D02*
X50787719Y-21526712D01*
X50787719Y-21526712D02*
X50863910Y-21564807D01*
X50863910Y-21564807D02*
X51130576Y-21564807D01*
X49721052Y-21983855D02*
X49721052Y-21183855D01*
X49340100Y-21983855D02*
X49340100Y-21183855D01*
X49340100Y-21183855D02*
X48882957Y-21983855D01*
X48882957Y-21983855D02*
X48882957Y-21183855D01*
X48502005Y-21983855D02*
X48502005Y-21183855D01*
X48502005Y-21183855D02*
X48197243Y-21183855D01*
X48197243Y-21183855D02*
X48121053Y-21221950D01*
X48121053Y-21221950D02*
X48082958Y-21260045D01*
X48082958Y-21260045D02*
X48044862Y-21336236D01*
X48044862Y-21336236D02*
X48044862Y-21450521D01*
X48044862Y-21450521D02*
X48082958Y-21526712D01*
X48082958Y-21526712D02*
X48121053Y-21564807D01*
X48121053Y-21564807D02*
X48197243Y-21602902D01*
X48197243Y-21602902D02*
X48502005Y-21602902D01*
X47702005Y-21183855D02*
X47702005Y-21831474D01*
X47702005Y-21831474D02*
X47663910Y-21907664D01*
X47663910Y-21907664D02*
X47625815Y-21945760D01*
X47625815Y-21945760D02*
X47549624Y-21983855D01*
X47549624Y-21983855D02*
X47397243Y-21983855D01*
X47397243Y-21983855D02*
X47321053Y-21945760D01*
X47321053Y-21945760D02*
X47282958Y-21907664D01*
X47282958Y-21907664D02*
X47244862Y-21831474D01*
X47244862Y-21831474D02*
X47244862Y-21183855D01*
X46978196Y-21183855D02*
X46521053Y-21183855D01*
X46749625Y-21983855D02*
X46749625Y-21183855D01*
X46254386Y-21907664D02*
X46216291Y-21945760D01*
X46216291Y-21945760D02*
X46254386Y-21983855D01*
X46254386Y-21983855D02*
X46292482Y-21945760D01*
X46292482Y-21945760D02*
X46254386Y-21907664D01*
X46254386Y-21907664D02*
X46254386Y-21983855D01*
X46254386Y-21488617D02*
X46216291Y-21526712D01*
X46216291Y-21526712D02*
X46254386Y-21564807D01*
X46254386Y-21564807D02*
X46292482Y-21526712D01*
X46292482Y-21526712D02*
X46254386Y-21488617D01*
X46254386Y-21488617D02*
X46254386Y-21564807D01*
X52730576Y-23271855D02*
X52730576Y-22471855D01*
X52730576Y-22471855D02*
X52425814Y-22471855D01*
X52425814Y-22471855D02*
X52349624Y-22509950D01*
X52349624Y-22509950D02*
X52311529Y-22548045D01*
X52311529Y-22548045D02*
X52273433Y-22624236D01*
X52273433Y-22624236D02*
X52273433Y-22738521D01*
X52273433Y-22738521D02*
X52311529Y-22814712D01*
X52311529Y-22814712D02*
X52349624Y-22852807D01*
X52349624Y-22852807D02*
X52425814Y-22890902D01*
X52425814Y-22890902D02*
X52730576Y-22890902D01*
X51968672Y-23043283D02*
X51587719Y-23043283D01*
X52044862Y-23271855D02*
X51778195Y-22471855D01*
X51778195Y-22471855D02*
X51511529Y-23271855D01*
X51244862Y-23271855D02*
X51244862Y-22471855D01*
X51244862Y-22471855D02*
X51054386Y-22471855D01*
X51054386Y-22471855D02*
X50940100Y-22509950D01*
X50940100Y-22509950D02*
X50863910Y-22586140D01*
X50863910Y-22586140D02*
X50825815Y-22662331D01*
X50825815Y-22662331D02*
X50787719Y-22814712D01*
X50787719Y-22814712D02*
X50787719Y-22928998D01*
X50787719Y-22928998D02*
X50825815Y-23081379D01*
X50825815Y-23081379D02*
X50863910Y-23157569D01*
X50863910Y-23157569D02*
X50940100Y-23233760D01*
X50940100Y-23233760D02*
X51054386Y-23271855D01*
X51054386Y-23271855D02*
X51244862Y-23271855D01*
X49835338Y-23271855D02*
X49835338Y-22471855D01*
X49454386Y-23271855D02*
X49454386Y-22471855D01*
X49454386Y-22471855D02*
X48997243Y-23271855D01*
X48997243Y-23271855D02*
X48997243Y-22471855D01*
X48616291Y-23271855D02*
X48616291Y-22471855D01*
X48616291Y-22471855D02*
X48311529Y-22471855D01*
X48311529Y-22471855D02*
X48235339Y-22509950D01*
X48235339Y-22509950D02*
X48197244Y-22548045D01*
X48197244Y-22548045D02*
X48159148Y-22624236D01*
X48159148Y-22624236D02*
X48159148Y-22738521D01*
X48159148Y-22738521D02*
X48197244Y-22814712D01*
X48197244Y-22814712D02*
X48235339Y-22852807D01*
X48235339Y-22852807D02*
X48311529Y-22890902D01*
X48311529Y-22890902D02*
X48616291Y-22890902D01*
X47816291Y-22471855D02*
X47816291Y-23119474D01*
X47816291Y-23119474D02*
X47778196Y-23195664D01*
X47778196Y-23195664D02*
X47740101Y-23233760D01*
X47740101Y-23233760D02*
X47663910Y-23271855D01*
X47663910Y-23271855D02*
X47511529Y-23271855D01*
X47511529Y-23271855D02*
X47435339Y-23233760D01*
X47435339Y-23233760D02*
X47397244Y-23195664D01*
X47397244Y-23195664D02*
X47359148Y-23119474D01*
X47359148Y-23119474D02*
X47359148Y-22471855D01*
X47092482Y-22471855D02*
X46635339Y-22471855D01*
X46863911Y-23271855D02*
X46863911Y-22471855D01*
X46368672Y-23195664D02*
X46330577Y-23233760D01*
X46330577Y-23233760D02*
X46368672Y-23271855D01*
X46368672Y-23271855D02*
X46406768Y-23233760D01*
X46406768Y-23233760D02*
X46368672Y-23195664D01*
X46368672Y-23195664D02*
X46368672Y-23271855D01*
X46368672Y-22776617D02*
X46330577Y-22814712D01*
X46330577Y-22814712D02*
X46368672Y-22852807D01*
X46368672Y-22852807D02*
X46406768Y-22814712D01*
X46406768Y-22814712D02*
X46368672Y-22776617D01*
X46368672Y-22776617D02*
X46368672Y-22852807D01*
X52730576Y-24559855D02*
X52730576Y-23759855D01*
X52730576Y-23759855D02*
X52425814Y-23759855D01*
X52425814Y-23759855D02*
X52349624Y-23797950D01*
X52349624Y-23797950D02*
X52311529Y-23836045D01*
X52311529Y-23836045D02*
X52273433Y-23912236D01*
X52273433Y-23912236D02*
X52273433Y-24026521D01*
X52273433Y-24026521D02*
X52311529Y-24102712D01*
X52311529Y-24102712D02*
X52349624Y-24140807D01*
X52349624Y-24140807D02*
X52425814Y-24178902D01*
X52425814Y-24178902D02*
X52730576Y-24178902D01*
X51968672Y-24331283D02*
X51587719Y-24331283D01*
X52044862Y-24559855D02*
X51778195Y-23759855D01*
X51778195Y-23759855D02*
X51511529Y-24559855D01*
X51244862Y-24559855D02*
X51244862Y-23759855D01*
X51244862Y-23759855D02*
X51054386Y-23759855D01*
X51054386Y-23759855D02*
X50940100Y-23797950D01*
X50940100Y-23797950D02*
X50863910Y-23874140D01*
X50863910Y-23874140D02*
X50825815Y-23950331D01*
X50825815Y-23950331D02*
X50787719Y-24102712D01*
X50787719Y-24102712D02*
X50787719Y-24216998D01*
X50787719Y-24216998D02*
X50825815Y-24369379D01*
X50825815Y-24369379D02*
X50863910Y-24445569D01*
X50863910Y-24445569D02*
X50940100Y-24521760D01*
X50940100Y-24521760D02*
X51054386Y-24559855D01*
X51054386Y-24559855D02*
X51244862Y-24559855D01*
X49682957Y-23759855D02*
X49530576Y-23759855D01*
X49530576Y-23759855D02*
X49454386Y-23797950D01*
X49454386Y-23797950D02*
X49378195Y-23874140D01*
X49378195Y-23874140D02*
X49340100Y-24026521D01*
X49340100Y-24026521D02*
X49340100Y-24293188D01*
X49340100Y-24293188D02*
X49378195Y-24445569D01*
X49378195Y-24445569D02*
X49454386Y-24521760D01*
X49454386Y-24521760D02*
X49530576Y-24559855D01*
X49530576Y-24559855D02*
X49682957Y-24559855D01*
X49682957Y-24559855D02*
X49759148Y-24521760D01*
X49759148Y-24521760D02*
X49835338Y-24445569D01*
X49835338Y-24445569D02*
X49873434Y-24293188D01*
X49873434Y-24293188D02*
X49873434Y-24026521D01*
X49873434Y-24026521D02*
X49835338Y-23874140D01*
X49835338Y-23874140D02*
X49759148Y-23797950D01*
X49759148Y-23797950D02*
X49682957Y-23759855D01*
X48997243Y-23759855D02*
X48997243Y-24407474D01*
X48997243Y-24407474D02*
X48959148Y-24483664D01*
X48959148Y-24483664D02*
X48921053Y-24521760D01*
X48921053Y-24521760D02*
X48844862Y-24559855D01*
X48844862Y-24559855D02*
X48692481Y-24559855D01*
X48692481Y-24559855D02*
X48616291Y-24521760D01*
X48616291Y-24521760D02*
X48578196Y-24483664D01*
X48578196Y-24483664D02*
X48540100Y-24407474D01*
X48540100Y-24407474D02*
X48540100Y-23759855D01*
X48273434Y-23759855D02*
X47816291Y-23759855D01*
X48044863Y-24559855D02*
X48044863Y-23759855D01*
X47549624Y-24559855D02*
X47549624Y-23759855D01*
X47549624Y-23759855D02*
X47244862Y-23759855D01*
X47244862Y-23759855D02*
X47168672Y-23797950D01*
X47168672Y-23797950D02*
X47130577Y-23836045D01*
X47130577Y-23836045D02*
X47092481Y-23912236D01*
X47092481Y-23912236D02*
X47092481Y-24026521D01*
X47092481Y-24026521D02*
X47130577Y-24102712D01*
X47130577Y-24102712D02*
X47168672Y-24140807D01*
X47168672Y-24140807D02*
X47244862Y-24178902D01*
X47244862Y-24178902D02*
X47549624Y-24178902D01*
X46749624Y-23759855D02*
X46749624Y-24407474D01*
X46749624Y-24407474D02*
X46711529Y-24483664D01*
X46711529Y-24483664D02*
X46673434Y-24521760D01*
X46673434Y-24521760D02*
X46597243Y-24559855D01*
X46597243Y-24559855D02*
X46444862Y-24559855D01*
X46444862Y-24559855D02*
X46368672Y-24521760D01*
X46368672Y-24521760D02*
X46330577Y-24483664D01*
X46330577Y-24483664D02*
X46292481Y-24407474D01*
X46292481Y-24407474D02*
X46292481Y-23759855D01*
X46025815Y-23759855D02*
X45568672Y-23759855D01*
X45797244Y-24559855D02*
X45797244Y-23759855D01*
X45302005Y-24483664D02*
X45263910Y-24521760D01*
X45263910Y-24521760D02*
X45302005Y-24559855D01*
X45302005Y-24559855D02*
X45340101Y-24521760D01*
X45340101Y-24521760D02*
X45302005Y-24483664D01*
X45302005Y-24483664D02*
X45302005Y-24559855D01*
X45302005Y-24064617D02*
X45263910Y-24102712D01*
X45263910Y-24102712D02*
X45302005Y-24140807D01*
X45302005Y-24140807D02*
X45340101Y-24102712D01*
X45340101Y-24102712D02*
X45302005Y-24064617D01*
X45302005Y-24064617D02*
X45302005Y-24140807D01*
X52463910Y-25428807D02*
X52349624Y-25466902D01*
X52349624Y-25466902D02*
X52311529Y-25504998D01*
X52311529Y-25504998D02*
X52273433Y-25581188D01*
X52273433Y-25581188D02*
X52273433Y-25695474D01*
X52273433Y-25695474D02*
X52311529Y-25771664D01*
X52311529Y-25771664D02*
X52349624Y-25809760D01*
X52349624Y-25809760D02*
X52425814Y-25847855D01*
X52425814Y-25847855D02*
X52730576Y-25847855D01*
X52730576Y-25847855D02*
X52730576Y-25047855D01*
X52730576Y-25047855D02*
X52463910Y-25047855D01*
X52463910Y-25047855D02*
X52387719Y-25085950D01*
X52387719Y-25085950D02*
X52349624Y-25124045D01*
X52349624Y-25124045D02*
X52311529Y-25200236D01*
X52311529Y-25200236D02*
X52311529Y-25276426D01*
X52311529Y-25276426D02*
X52349624Y-25352617D01*
X52349624Y-25352617D02*
X52387719Y-25390712D01*
X52387719Y-25390712D02*
X52463910Y-25428807D01*
X52463910Y-25428807D02*
X52730576Y-25428807D01*
X51968672Y-25619283D02*
X51587719Y-25619283D01*
X52044862Y-25847855D02*
X51778195Y-25047855D01*
X51778195Y-25047855D02*
X51511529Y-25847855D01*
X51359148Y-25047855D02*
X50902005Y-25047855D01*
X51130577Y-25847855D02*
X51130577Y-25047855D01*
X50749624Y-25047855D02*
X50292481Y-25047855D01*
X50521053Y-25847855D02*
X50521053Y-25047855D01*
X50025814Y-25428807D02*
X49759148Y-25428807D01*
X49644862Y-25847855D02*
X50025814Y-25847855D01*
X50025814Y-25847855D02*
X50025814Y-25047855D01*
X50025814Y-25047855D02*
X49644862Y-25047855D01*
X48844861Y-25847855D02*
X49111528Y-25466902D01*
X49302004Y-25847855D02*
X49302004Y-25047855D01*
X49302004Y-25047855D02*
X48997242Y-25047855D01*
X48997242Y-25047855D02*
X48921052Y-25085950D01*
X48921052Y-25085950D02*
X48882957Y-25124045D01*
X48882957Y-25124045D02*
X48844861Y-25200236D01*
X48844861Y-25200236D02*
X48844861Y-25314521D01*
X48844861Y-25314521D02*
X48882957Y-25390712D01*
X48882957Y-25390712D02*
X48921052Y-25428807D01*
X48921052Y-25428807D02*
X48997242Y-25466902D01*
X48997242Y-25466902D02*
X49302004Y-25466902D01*
X48349623Y-25466902D02*
X48349623Y-25847855D01*
X48616290Y-25047855D02*
X48349623Y-25466902D01*
X48349623Y-25466902D02*
X48082957Y-25047855D01*
X47816290Y-25771664D02*
X47778195Y-25809760D01*
X47778195Y-25809760D02*
X47816290Y-25847855D01*
X47816290Y-25847855D02*
X47854386Y-25809760D01*
X47854386Y-25809760D02*
X47816290Y-25771664D01*
X47816290Y-25771664D02*
X47816290Y-25847855D01*
X47816290Y-25352617D02*
X47778195Y-25390712D01*
X47778195Y-25390712D02*
X47816290Y-25428807D01*
X47816290Y-25428807D02*
X47854386Y-25390712D01*
X47854386Y-25390712D02*
X47816290Y-25352617D01*
X47816290Y-25352617D02*
X47816290Y-25428807D01*
X52273433Y-28423855D02*
X52540100Y-28042902D01*
X52730576Y-28423855D02*
X52730576Y-27623855D01*
X52730576Y-27623855D02*
X52425814Y-27623855D01*
X52425814Y-27623855D02*
X52349624Y-27661950D01*
X52349624Y-27661950D02*
X52311529Y-27700045D01*
X52311529Y-27700045D02*
X52273433Y-27776236D01*
X52273433Y-27776236D02*
X52273433Y-27890521D01*
X52273433Y-27890521D02*
X52311529Y-27966712D01*
X52311529Y-27966712D02*
X52349624Y-28004807D01*
X52349624Y-28004807D02*
X52425814Y-28042902D01*
X52425814Y-28042902D02*
X52730576Y-28042902D01*
X51930576Y-28004807D02*
X51663910Y-28004807D01*
X51549624Y-28423855D02*
X51930576Y-28423855D01*
X51930576Y-28423855D02*
X51930576Y-27623855D01*
X51930576Y-27623855D02*
X51549624Y-27623855D01*
X51244862Y-28195283D02*
X50863909Y-28195283D01*
X51321052Y-28423855D02*
X51054385Y-27623855D01*
X51054385Y-27623855D02*
X50787719Y-28423855D01*
X50521052Y-28423855D02*
X50521052Y-27623855D01*
X50521052Y-27623855D02*
X50330576Y-27623855D01*
X50330576Y-27623855D02*
X50216290Y-27661950D01*
X50216290Y-27661950D02*
X50140100Y-27738140D01*
X50140100Y-27738140D02*
X50102005Y-27814331D01*
X50102005Y-27814331D02*
X50063909Y-27966712D01*
X50063909Y-27966712D02*
X50063909Y-28080998D01*
X50063909Y-28080998D02*
X50102005Y-28233379D01*
X50102005Y-28233379D02*
X50140100Y-28309569D01*
X50140100Y-28309569D02*
X50216290Y-28385760D01*
X50216290Y-28385760D02*
X50330576Y-28423855D01*
X50330576Y-28423855D02*
X50521052Y-28423855D01*
X49111528Y-28423855D02*
X49111528Y-27623855D01*
X49111528Y-27623855D02*
X48844862Y-28195283D01*
X48844862Y-28195283D02*
X48578195Y-27623855D01*
X48578195Y-27623855D02*
X48578195Y-28423855D01*
X48235338Y-28195283D02*
X47854385Y-28195283D01*
X48311528Y-28423855D02*
X48044861Y-27623855D01*
X48044861Y-27623855D02*
X47778195Y-28423855D01*
X47511528Y-28423855D02*
X47511528Y-27623855D01*
X47511528Y-27623855D02*
X47054385Y-28423855D01*
X47054385Y-28423855D02*
X47054385Y-27623855D01*
X46673433Y-27623855D02*
X46673433Y-28271474D01*
X46673433Y-28271474D02*
X46635338Y-28347664D01*
X46635338Y-28347664D02*
X46597243Y-28385760D01*
X46597243Y-28385760D02*
X46521052Y-28423855D01*
X46521052Y-28423855D02*
X46368671Y-28423855D01*
X46368671Y-28423855D02*
X46292481Y-28385760D01*
X46292481Y-28385760D02*
X46254386Y-28347664D01*
X46254386Y-28347664D02*
X46216290Y-28271474D01*
X46216290Y-28271474D02*
X46216290Y-27623855D01*
X45873434Y-28195283D02*
X45492481Y-28195283D01*
X45949624Y-28423855D02*
X45682957Y-27623855D01*
X45682957Y-27623855D02*
X45416291Y-28423855D01*
X44768672Y-28423855D02*
X45149624Y-28423855D01*
X45149624Y-28423855D02*
X45149624Y-27623855D01*
X43625815Y-28004807D02*
X43511529Y-28042902D01*
X43511529Y-28042902D02*
X43473434Y-28080998D01*
X43473434Y-28080998D02*
X43435338Y-28157188D01*
X43435338Y-28157188D02*
X43435338Y-28271474D01*
X43435338Y-28271474D02*
X43473434Y-28347664D01*
X43473434Y-28347664D02*
X43511529Y-28385760D01*
X43511529Y-28385760D02*
X43587719Y-28423855D01*
X43587719Y-28423855D02*
X43892481Y-28423855D01*
X43892481Y-28423855D02*
X43892481Y-27623855D01*
X43892481Y-27623855D02*
X43625815Y-27623855D01*
X43625815Y-27623855D02*
X43549624Y-27661950D01*
X43549624Y-27661950D02*
X43511529Y-27700045D01*
X43511529Y-27700045D02*
X43473434Y-27776236D01*
X43473434Y-27776236D02*
X43473434Y-27852426D01*
X43473434Y-27852426D02*
X43511529Y-27928617D01*
X43511529Y-27928617D02*
X43549624Y-27966712D01*
X43549624Y-27966712D02*
X43625815Y-28004807D01*
X43625815Y-28004807D02*
X43892481Y-28004807D01*
X43092481Y-28004807D02*
X42825815Y-28004807D01*
X42711529Y-28423855D02*
X43092481Y-28423855D01*
X43092481Y-28423855D02*
X43092481Y-27623855D01*
X43092481Y-27623855D02*
X42711529Y-27623855D01*
X42102005Y-28004807D02*
X42368671Y-28004807D01*
X42368671Y-28423855D02*
X42368671Y-27623855D01*
X42368671Y-27623855D02*
X41987719Y-27623855D01*
X41530576Y-27623855D02*
X41378195Y-27623855D01*
X41378195Y-27623855D02*
X41302005Y-27661950D01*
X41302005Y-27661950D02*
X41225814Y-27738140D01*
X41225814Y-27738140D02*
X41187719Y-27890521D01*
X41187719Y-27890521D02*
X41187719Y-28157188D01*
X41187719Y-28157188D02*
X41225814Y-28309569D01*
X41225814Y-28309569D02*
X41302005Y-28385760D01*
X41302005Y-28385760D02*
X41378195Y-28423855D01*
X41378195Y-28423855D02*
X41530576Y-28423855D01*
X41530576Y-28423855D02*
X41606767Y-28385760D01*
X41606767Y-28385760D02*
X41682957Y-28309569D01*
X41682957Y-28309569D02*
X41721053Y-28157188D01*
X41721053Y-28157188D02*
X41721053Y-27890521D01*
X41721053Y-27890521D02*
X41682957Y-27738140D01*
X41682957Y-27738140D02*
X41606767Y-27661950D01*
X41606767Y-27661950D02*
X41530576Y-27623855D01*
X40387719Y-28423855D02*
X40654386Y-28042902D01*
X40844862Y-28423855D02*
X40844862Y-27623855D01*
X40844862Y-27623855D02*
X40540100Y-27623855D01*
X40540100Y-27623855D02*
X40463910Y-27661950D01*
X40463910Y-27661950D02*
X40425815Y-27700045D01*
X40425815Y-27700045D02*
X40387719Y-27776236D01*
X40387719Y-27776236D02*
X40387719Y-27890521D01*
X40387719Y-27890521D02*
X40425815Y-27966712D01*
X40425815Y-27966712D02*
X40463910Y-28004807D01*
X40463910Y-28004807D02*
X40540100Y-28042902D01*
X40540100Y-28042902D02*
X40844862Y-28042902D01*
X40044862Y-28004807D02*
X39778196Y-28004807D01*
X39663910Y-28423855D02*
X40044862Y-28423855D01*
X40044862Y-28423855D02*
X40044862Y-27623855D01*
X40044862Y-27623855D02*
X39663910Y-27623855D01*
X38711528Y-27623855D02*
X38711528Y-28271474D01*
X38711528Y-28271474D02*
X38673433Y-28347664D01*
X38673433Y-28347664D02*
X38635338Y-28385760D01*
X38635338Y-28385760D02*
X38559147Y-28423855D01*
X38559147Y-28423855D02*
X38406766Y-28423855D01*
X38406766Y-28423855D02*
X38330576Y-28385760D01*
X38330576Y-28385760D02*
X38292481Y-28347664D01*
X38292481Y-28347664D02*
X38254385Y-28271474D01*
X38254385Y-28271474D02*
X38254385Y-27623855D01*
X37911529Y-28385760D02*
X37797243Y-28423855D01*
X37797243Y-28423855D02*
X37606767Y-28423855D01*
X37606767Y-28423855D02*
X37530576Y-28385760D01*
X37530576Y-28385760D02*
X37492481Y-28347664D01*
X37492481Y-28347664D02*
X37454386Y-28271474D01*
X37454386Y-28271474D02*
X37454386Y-28195283D01*
X37454386Y-28195283D02*
X37492481Y-28119093D01*
X37492481Y-28119093D02*
X37530576Y-28080998D01*
X37530576Y-28080998D02*
X37606767Y-28042902D01*
X37606767Y-28042902D02*
X37759148Y-28004807D01*
X37759148Y-28004807D02*
X37835338Y-27966712D01*
X37835338Y-27966712D02*
X37873433Y-27928617D01*
X37873433Y-27928617D02*
X37911529Y-27852426D01*
X37911529Y-27852426D02*
X37911529Y-27776236D01*
X37911529Y-27776236D02*
X37873433Y-27700045D01*
X37873433Y-27700045D02*
X37835338Y-27661950D01*
X37835338Y-27661950D02*
X37759148Y-27623855D01*
X37759148Y-27623855D02*
X37568671Y-27623855D01*
X37568671Y-27623855D02*
X37454386Y-27661950D01*
X37111528Y-28423855D02*
X37111528Y-27623855D01*
X36730576Y-28423855D02*
X36730576Y-27623855D01*
X36730576Y-27623855D02*
X36273433Y-28423855D01*
X36273433Y-28423855D02*
X36273433Y-27623855D01*
X35473434Y-27661950D02*
X35549624Y-27623855D01*
X35549624Y-27623855D02*
X35663910Y-27623855D01*
X35663910Y-27623855D02*
X35778196Y-27661950D01*
X35778196Y-27661950D02*
X35854386Y-27738140D01*
X35854386Y-27738140D02*
X35892481Y-27814331D01*
X35892481Y-27814331D02*
X35930577Y-27966712D01*
X35930577Y-27966712D02*
X35930577Y-28080998D01*
X35930577Y-28080998D02*
X35892481Y-28233379D01*
X35892481Y-28233379D02*
X35854386Y-28309569D01*
X35854386Y-28309569D02*
X35778196Y-28385760D01*
X35778196Y-28385760D02*
X35663910Y-28423855D01*
X35663910Y-28423855D02*
X35587719Y-28423855D01*
X35587719Y-28423855D02*
X35473434Y-28385760D01*
X35473434Y-28385760D02*
X35435338Y-28347664D01*
X35435338Y-28347664D02*
X35435338Y-28080998D01*
X35435338Y-28080998D02*
X35587719Y-28080998D01*
X52730576Y-29711855D02*
X52730576Y-28911855D01*
X52730576Y-28911855D02*
X52540100Y-28911855D01*
X52540100Y-28911855D02*
X52425814Y-28949950D01*
X52425814Y-28949950D02*
X52349624Y-29026140D01*
X52349624Y-29026140D02*
X52311529Y-29102331D01*
X52311529Y-29102331D02*
X52273433Y-29254712D01*
X52273433Y-29254712D02*
X52273433Y-29368998D01*
X52273433Y-29368998D02*
X52311529Y-29521379D01*
X52311529Y-29521379D02*
X52349624Y-29597569D01*
X52349624Y-29597569D02*
X52425814Y-29673760D01*
X52425814Y-29673760D02*
X52540100Y-29711855D01*
X52540100Y-29711855D02*
X52730576Y-29711855D01*
X51778195Y-28911855D02*
X51625814Y-28911855D01*
X51625814Y-28911855D02*
X51549624Y-28949950D01*
X51549624Y-28949950D02*
X51473433Y-29026140D01*
X51473433Y-29026140D02*
X51435338Y-29178521D01*
X51435338Y-29178521D02*
X51435338Y-29445188D01*
X51435338Y-29445188D02*
X51473433Y-29597569D01*
X51473433Y-29597569D02*
X51549624Y-29673760D01*
X51549624Y-29673760D02*
X51625814Y-29711855D01*
X51625814Y-29711855D02*
X51778195Y-29711855D01*
X51778195Y-29711855D02*
X51854386Y-29673760D01*
X51854386Y-29673760D02*
X51930576Y-29597569D01*
X51930576Y-29597569D02*
X51968672Y-29445188D01*
X51968672Y-29445188D02*
X51968672Y-29178521D01*
X51968672Y-29178521D02*
X51930576Y-29026140D01*
X51930576Y-29026140D02*
X51854386Y-28949950D01*
X51854386Y-28949950D02*
X51778195Y-28911855D01*
X50482957Y-29711855D02*
X50482957Y-28911855D01*
X50482957Y-28911855D02*
X50025814Y-29711855D01*
X50025814Y-29711855D02*
X50025814Y-28911855D01*
X49492481Y-28911855D02*
X49340100Y-28911855D01*
X49340100Y-28911855D02*
X49263910Y-28949950D01*
X49263910Y-28949950D02*
X49187719Y-29026140D01*
X49187719Y-29026140D02*
X49149624Y-29178521D01*
X49149624Y-29178521D02*
X49149624Y-29445188D01*
X49149624Y-29445188D02*
X49187719Y-29597569D01*
X49187719Y-29597569D02*
X49263910Y-29673760D01*
X49263910Y-29673760D02*
X49340100Y-29711855D01*
X49340100Y-29711855D02*
X49492481Y-29711855D01*
X49492481Y-29711855D02*
X49568672Y-29673760D01*
X49568672Y-29673760D02*
X49644862Y-29597569D01*
X49644862Y-29597569D02*
X49682958Y-29445188D01*
X49682958Y-29445188D02*
X49682958Y-29178521D01*
X49682958Y-29178521D02*
X49644862Y-29026140D01*
X49644862Y-29026140D02*
X49568672Y-28949950D01*
X49568672Y-28949950D02*
X49492481Y-28911855D01*
X48921053Y-28911855D02*
X48463910Y-28911855D01*
X48692482Y-29711855D02*
X48692482Y-28911855D01*
X47625815Y-29673760D02*
X47511529Y-29711855D01*
X47511529Y-29711855D02*
X47321053Y-29711855D01*
X47321053Y-29711855D02*
X47244862Y-29673760D01*
X47244862Y-29673760D02*
X47206767Y-29635664D01*
X47206767Y-29635664D02*
X47168672Y-29559474D01*
X47168672Y-29559474D02*
X47168672Y-29483283D01*
X47168672Y-29483283D02*
X47206767Y-29407093D01*
X47206767Y-29407093D02*
X47244862Y-29368998D01*
X47244862Y-29368998D02*
X47321053Y-29330902D01*
X47321053Y-29330902D02*
X47473434Y-29292807D01*
X47473434Y-29292807D02*
X47549624Y-29254712D01*
X47549624Y-29254712D02*
X47587719Y-29216617D01*
X47587719Y-29216617D02*
X47625815Y-29140426D01*
X47625815Y-29140426D02*
X47625815Y-29064236D01*
X47625815Y-29064236D02*
X47587719Y-28988045D01*
X47587719Y-28988045D02*
X47549624Y-28949950D01*
X47549624Y-28949950D02*
X47473434Y-28911855D01*
X47473434Y-28911855D02*
X47282957Y-28911855D01*
X47282957Y-28911855D02*
X47168672Y-28949950D01*
X46825814Y-29711855D02*
X46825814Y-28911855D01*
X46825814Y-29292807D02*
X46368671Y-29292807D01*
X46368671Y-29711855D02*
X46368671Y-28911855D01*
X45835338Y-28911855D02*
X45682957Y-28911855D01*
X45682957Y-28911855D02*
X45606767Y-28949950D01*
X45606767Y-28949950D02*
X45530576Y-29026140D01*
X45530576Y-29026140D02*
X45492481Y-29178521D01*
X45492481Y-29178521D02*
X45492481Y-29445188D01*
X45492481Y-29445188D02*
X45530576Y-29597569D01*
X45530576Y-29597569D02*
X45606767Y-29673760D01*
X45606767Y-29673760D02*
X45682957Y-29711855D01*
X45682957Y-29711855D02*
X45835338Y-29711855D01*
X45835338Y-29711855D02*
X45911529Y-29673760D01*
X45911529Y-29673760D02*
X45987719Y-29597569D01*
X45987719Y-29597569D02*
X46025815Y-29445188D01*
X46025815Y-29445188D02*
X46025815Y-29178521D01*
X46025815Y-29178521D02*
X45987719Y-29026140D01*
X45987719Y-29026140D02*
X45911529Y-28949950D01*
X45911529Y-28949950D02*
X45835338Y-28911855D01*
X44692481Y-29711855D02*
X44959148Y-29330902D01*
X45149624Y-29711855D02*
X45149624Y-28911855D01*
X45149624Y-28911855D02*
X44844862Y-28911855D01*
X44844862Y-28911855D02*
X44768672Y-28949950D01*
X44768672Y-28949950D02*
X44730577Y-28988045D01*
X44730577Y-28988045D02*
X44692481Y-29064236D01*
X44692481Y-29064236D02*
X44692481Y-29178521D01*
X44692481Y-29178521D02*
X44730577Y-29254712D01*
X44730577Y-29254712D02*
X44768672Y-29292807D01*
X44768672Y-29292807D02*
X44844862Y-29330902D01*
X44844862Y-29330902D02*
X45149624Y-29330902D01*
X44463910Y-28911855D02*
X44006767Y-28911855D01*
X44235339Y-29711855D02*
X44235339Y-28911855D01*
X42673433Y-29635664D02*
X42711529Y-29673760D01*
X42711529Y-29673760D02*
X42825814Y-29711855D01*
X42825814Y-29711855D02*
X42902005Y-29711855D01*
X42902005Y-29711855D02*
X43016291Y-29673760D01*
X43016291Y-29673760D02*
X43092481Y-29597569D01*
X43092481Y-29597569D02*
X43130576Y-29521379D01*
X43130576Y-29521379D02*
X43168672Y-29368998D01*
X43168672Y-29368998D02*
X43168672Y-29254712D01*
X43168672Y-29254712D02*
X43130576Y-29102331D01*
X43130576Y-29102331D02*
X43092481Y-29026140D01*
X43092481Y-29026140D02*
X43016291Y-28949950D01*
X43016291Y-28949950D02*
X42902005Y-28911855D01*
X42902005Y-28911855D02*
X42825814Y-28911855D01*
X42825814Y-28911855D02*
X42711529Y-28949950D01*
X42711529Y-28949950D02*
X42673433Y-28988045D01*
X42330576Y-29711855D02*
X42330576Y-28911855D01*
X41492481Y-29711855D02*
X41759148Y-29330902D01*
X41949624Y-29711855D02*
X41949624Y-28911855D01*
X41949624Y-28911855D02*
X41644862Y-28911855D01*
X41644862Y-28911855D02*
X41568672Y-28949950D01*
X41568672Y-28949950D02*
X41530577Y-28988045D01*
X41530577Y-28988045D02*
X41492481Y-29064236D01*
X41492481Y-29064236D02*
X41492481Y-29178521D01*
X41492481Y-29178521D02*
X41530577Y-29254712D01*
X41530577Y-29254712D02*
X41568672Y-29292807D01*
X41568672Y-29292807D02*
X41644862Y-29330902D01*
X41644862Y-29330902D02*
X41949624Y-29330902D01*
X40692481Y-29635664D02*
X40730577Y-29673760D01*
X40730577Y-29673760D02*
X40844862Y-29711855D01*
X40844862Y-29711855D02*
X40921053Y-29711855D01*
X40921053Y-29711855D02*
X41035339Y-29673760D01*
X41035339Y-29673760D02*
X41111529Y-29597569D01*
X41111529Y-29597569D02*
X41149624Y-29521379D01*
X41149624Y-29521379D02*
X41187720Y-29368998D01*
X41187720Y-29368998D02*
X41187720Y-29254712D01*
X41187720Y-29254712D02*
X41149624Y-29102331D01*
X41149624Y-29102331D02*
X41111529Y-29026140D01*
X41111529Y-29026140D02*
X41035339Y-28949950D01*
X41035339Y-28949950D02*
X40921053Y-28911855D01*
X40921053Y-28911855D02*
X40844862Y-28911855D01*
X40844862Y-28911855D02*
X40730577Y-28949950D01*
X40730577Y-28949950D02*
X40692481Y-28988045D01*
X40349624Y-28911855D02*
X40349624Y-29559474D01*
X40349624Y-29559474D02*
X40311529Y-29635664D01*
X40311529Y-29635664D02*
X40273434Y-29673760D01*
X40273434Y-29673760D02*
X40197243Y-29711855D01*
X40197243Y-29711855D02*
X40044862Y-29711855D01*
X40044862Y-29711855D02*
X39968672Y-29673760D01*
X39968672Y-29673760D02*
X39930577Y-29635664D01*
X39930577Y-29635664D02*
X39892481Y-29559474D01*
X39892481Y-29559474D02*
X39892481Y-28911855D01*
X39511529Y-29711855D02*
X39511529Y-28911855D01*
X39244863Y-28911855D02*
X38787720Y-28911855D01*
X39016292Y-29711855D02*
X39016292Y-28911855D01*
X52730576Y-30999855D02*
X52730576Y-30199855D01*
X52730576Y-30199855D02*
X52540100Y-30199855D01*
X52540100Y-30199855D02*
X52425814Y-30237950D01*
X52425814Y-30237950D02*
X52349624Y-30314140D01*
X52349624Y-30314140D02*
X52311529Y-30390331D01*
X52311529Y-30390331D02*
X52273433Y-30542712D01*
X52273433Y-30542712D02*
X52273433Y-30656998D01*
X52273433Y-30656998D02*
X52311529Y-30809379D01*
X52311529Y-30809379D02*
X52349624Y-30885569D01*
X52349624Y-30885569D02*
X52425814Y-30961760D01*
X52425814Y-30961760D02*
X52540100Y-30999855D01*
X52540100Y-30999855D02*
X52730576Y-30999855D01*
X51778195Y-30199855D02*
X51625814Y-30199855D01*
X51625814Y-30199855D02*
X51549624Y-30237950D01*
X51549624Y-30237950D02*
X51473433Y-30314140D01*
X51473433Y-30314140D02*
X51435338Y-30466521D01*
X51435338Y-30466521D02*
X51435338Y-30733188D01*
X51435338Y-30733188D02*
X51473433Y-30885569D01*
X51473433Y-30885569D02*
X51549624Y-30961760D01*
X51549624Y-30961760D02*
X51625814Y-30999855D01*
X51625814Y-30999855D02*
X51778195Y-30999855D01*
X51778195Y-30999855D02*
X51854386Y-30961760D01*
X51854386Y-30961760D02*
X51930576Y-30885569D01*
X51930576Y-30885569D02*
X51968672Y-30733188D01*
X51968672Y-30733188D02*
X51968672Y-30466521D01*
X51968672Y-30466521D02*
X51930576Y-30314140D01*
X51930576Y-30314140D02*
X51854386Y-30237950D01*
X51854386Y-30237950D02*
X51778195Y-30199855D01*
X50482957Y-30999855D02*
X50482957Y-30199855D01*
X50482957Y-30199855D02*
X50025814Y-30999855D01*
X50025814Y-30999855D02*
X50025814Y-30199855D01*
X49492481Y-30199855D02*
X49340100Y-30199855D01*
X49340100Y-30199855D02*
X49263910Y-30237950D01*
X49263910Y-30237950D02*
X49187719Y-30314140D01*
X49187719Y-30314140D02*
X49149624Y-30466521D01*
X49149624Y-30466521D02*
X49149624Y-30733188D01*
X49149624Y-30733188D02*
X49187719Y-30885569D01*
X49187719Y-30885569D02*
X49263910Y-30961760D01*
X49263910Y-30961760D02*
X49340100Y-30999855D01*
X49340100Y-30999855D02*
X49492481Y-30999855D01*
X49492481Y-30999855D02*
X49568672Y-30961760D01*
X49568672Y-30961760D02*
X49644862Y-30885569D01*
X49644862Y-30885569D02*
X49682958Y-30733188D01*
X49682958Y-30733188D02*
X49682958Y-30466521D01*
X49682958Y-30466521D02*
X49644862Y-30314140D01*
X49644862Y-30314140D02*
X49568672Y-30237950D01*
X49568672Y-30237950D02*
X49492481Y-30199855D01*
X48921053Y-30199855D02*
X48463910Y-30199855D01*
X48692482Y-30999855D02*
X48692482Y-30199855D01*
X47321053Y-30580807D02*
X47206767Y-30618902D01*
X47206767Y-30618902D02*
X47168672Y-30656998D01*
X47168672Y-30656998D02*
X47130576Y-30733188D01*
X47130576Y-30733188D02*
X47130576Y-30847474D01*
X47130576Y-30847474D02*
X47168672Y-30923664D01*
X47168672Y-30923664D02*
X47206767Y-30961760D01*
X47206767Y-30961760D02*
X47282957Y-30999855D01*
X47282957Y-30999855D02*
X47587719Y-30999855D01*
X47587719Y-30999855D02*
X47587719Y-30199855D01*
X47587719Y-30199855D02*
X47321053Y-30199855D01*
X47321053Y-30199855D02*
X47244862Y-30237950D01*
X47244862Y-30237950D02*
X47206767Y-30276045D01*
X47206767Y-30276045D02*
X47168672Y-30352236D01*
X47168672Y-30352236D02*
X47168672Y-30428426D01*
X47168672Y-30428426D02*
X47206767Y-30504617D01*
X47206767Y-30504617D02*
X47244862Y-30542712D01*
X47244862Y-30542712D02*
X47321053Y-30580807D01*
X47321053Y-30580807D02*
X47587719Y-30580807D01*
X46787719Y-30199855D02*
X46787719Y-30847474D01*
X46787719Y-30847474D02*
X46749624Y-30923664D01*
X46749624Y-30923664D02*
X46711529Y-30961760D01*
X46711529Y-30961760D02*
X46635338Y-30999855D01*
X46635338Y-30999855D02*
X46482957Y-30999855D01*
X46482957Y-30999855D02*
X46406767Y-30961760D01*
X46406767Y-30961760D02*
X46368672Y-30923664D01*
X46368672Y-30923664D02*
X46330576Y-30847474D01*
X46330576Y-30847474D02*
X46330576Y-30199855D01*
X45492481Y-30999855D02*
X45759148Y-30618902D01*
X45949624Y-30999855D02*
X45949624Y-30199855D01*
X45949624Y-30199855D02*
X45644862Y-30199855D01*
X45644862Y-30199855D02*
X45568672Y-30237950D01*
X45568672Y-30237950D02*
X45530577Y-30276045D01*
X45530577Y-30276045D02*
X45492481Y-30352236D01*
X45492481Y-30352236D02*
X45492481Y-30466521D01*
X45492481Y-30466521D02*
X45530577Y-30542712D01*
X45530577Y-30542712D02*
X45568672Y-30580807D01*
X45568672Y-30580807D02*
X45644862Y-30618902D01*
X45644862Y-30618902D02*
X45949624Y-30618902D01*
X45149624Y-30999855D02*
X45149624Y-30199855D01*
X45149624Y-30199855D02*
X44692481Y-30999855D01*
X44692481Y-30999855D02*
X44692481Y-30199855D01*
D13*
X9404761Y-29856333D02*
X5595238Y-29856333D01*
X7499999Y-31761095D02*
X7499999Y-27951571D01*
%TO.C,REF\u002A\u002A*%
D14*
X52272971Y-40017822D02*
X48752178Y-40017822D01*
X48752178Y-39150198D01*
X52272971Y-39150198D01*
X52272971Y-40017822D01*
G36*
X52272971Y-40017822D02*
G01*
X48752178Y-40017822D01*
X48752178Y-39150198D01*
X52272971Y-39150198D01*
X52272971Y-40017822D01*
G37*
X51241894Y-34475718D02*
X51242388Y-34488668D01*
X51248819Y-34510411D01*
X51267123Y-34528851D01*
X51302830Y-34550801D01*
X51334174Y-34570854D01*
X51381893Y-34609356D01*
X51425138Y-34652579D01*
X51458219Y-34694627D01*
X51475442Y-34729604D01*
X51479662Y-34743081D01*
X51487480Y-34752334D01*
X51490116Y-34755454D01*
X51511662Y-34760696D01*
X51551314Y-34761782D01*
X51619109Y-34761782D01*
X51619109Y-34874951D01*
X51459577Y-34874951D01*
X51444682Y-35052732D01*
X51442682Y-35077037D01*
X51438023Y-35137880D01*
X51434731Y-35187389D01*
X51433092Y-35220992D01*
X51433390Y-35234116D01*
X51437724Y-35230343D01*
X51457496Y-35210676D01*
X51491679Y-35175818D01*
X51538541Y-35127576D01*
X51596354Y-35067757D01*
X51663387Y-34998167D01*
X51737912Y-34920615D01*
X51818197Y-34836907D01*
X51902513Y-34748849D01*
X51989130Y-34658250D01*
X52076319Y-34566915D01*
X52162349Y-34476653D01*
X52245492Y-34389269D01*
X52324016Y-34306572D01*
X52396192Y-34230368D01*
X52460291Y-34162463D01*
X52514583Y-34104666D01*
X52611592Y-34001040D01*
X52612034Y-34089315D01*
X52612475Y-34177589D01*
X52011938Y-34809158D01*
X51411401Y-35440726D01*
X51399396Y-35584674D01*
X51351365Y-36160635D01*
X51342876Y-36262791D01*
X51332343Y-36390612D01*
X51322621Y-36509767D01*
X51313898Y-36617914D01*
X51306358Y-36712713D01*
X51300187Y-36791819D01*
X51295573Y-36852892D01*
X51292700Y-36893590D01*
X51291754Y-36911570D01*
X51294251Y-36919808D01*
X51305471Y-36937599D01*
X51326751Y-36964411D01*
X51337021Y-36976129D01*
X51359225Y-37001466D01*
X51404023Y-37049986D01*
X51462281Y-37111192D01*
X51535129Y-37186307D01*
X51623703Y-37276550D01*
X51729134Y-37383145D01*
X51798492Y-37453093D01*
X51895179Y-37550658D01*
X51991526Y-37647941D01*
X52084638Y-37742014D01*
X52171618Y-37829950D01*
X52249569Y-37908820D01*
X52315596Y-37975699D01*
X52366802Y-38027658D01*
X52567514Y-38231620D01*
X52531058Y-38269671D01*
X52522460Y-38278245D01*
X52497095Y-38299297D01*
X52479695Y-38307723D01*
X52466071Y-38300530D01*
X52440743Y-38278944D01*
X52410379Y-38247995D01*
X52391896Y-38228448D01*
X52357427Y-38192752D01*
X52308712Y-38142684D01*
X52247469Y-38080001D01*
X52175420Y-38006457D01*
X52094285Y-37923810D01*
X52005784Y-37833815D01*
X51911637Y-37738228D01*
X51813565Y-37638805D01*
X51271161Y-37089343D01*
X51249066Y-37374746D01*
X51244250Y-37435662D01*
X51237216Y-37517548D01*
X51230872Y-37579569D01*
X51224748Y-37624987D01*
X51218373Y-37657062D01*
X51211277Y-37679052D01*
X51202991Y-37694219D01*
X51191393Y-37715416D01*
X51181850Y-37754386D01*
X51179010Y-37810531D01*
X51179010Y-37892773D01*
X50952674Y-37892773D01*
X50952674Y-37716733D01*
X50107082Y-37716733D01*
X50058203Y-37772262D01*
X50044836Y-37786722D01*
X49972388Y-37844813D01*
X49890532Y-37880576D01*
X49801900Y-37892773D01*
X49723692Y-37886306D01*
X49635233Y-37859047D01*
X49559507Y-37810328D01*
X49544748Y-37796403D01*
X49507864Y-37751328D01*
X49475503Y-37698819D01*
X49452297Y-37647061D01*
X49442879Y-37604239D01*
X49442697Y-37598023D01*
X49441342Y-37575246D01*
X49437800Y-37559513D01*
X49430390Y-37552068D01*
X49417431Y-37554156D01*
X49397243Y-37567020D01*
X49368145Y-37591905D01*
X49328456Y-37630053D01*
X49276496Y-37682710D01*
X49210584Y-37751119D01*
X49129040Y-37836524D01*
X49085604Y-37882112D01*
X49013000Y-37958441D01*
X48944309Y-38030808D01*
X48882223Y-38096366D01*
X48829434Y-38152274D01*
X48788634Y-38195686D01*
X48762515Y-38223758D01*
X48691119Y-38301436D01*
X48602863Y-38213416D01*
X49148690Y-37641287D01*
X49183105Y-37605188D01*
X49305546Y-37476272D01*
X49410651Y-37364754D01*
X49498736Y-37270288D01*
X49570116Y-37192529D01*
X49620588Y-37136174D01*
X49827247Y-37136174D01*
X49828872Y-37149434D01*
X49829156Y-37150819D01*
X49842698Y-37182228D01*
X49869748Y-37196863D01*
X49953129Y-37228063D01*
X50027418Y-37280038D01*
X50085846Y-37348791D01*
X50125890Y-37431315D01*
X50145026Y-37524606D01*
X50151364Y-37603565D01*
X51100838Y-37603565D01*
X51107458Y-37575273D01*
X51108629Y-37568329D01*
X51112268Y-37537281D01*
X51117234Y-37487081D01*
X51123157Y-37421727D01*
X51129669Y-37345219D01*
X51136401Y-37261555D01*
X51158724Y-36976129D01*
X50857826Y-36670565D01*
X50802636Y-36614704D01*
X50735109Y-36546888D01*
X50674529Y-36486643D01*
X50623021Y-36436052D01*
X50582710Y-36397200D01*
X50555722Y-36372170D01*
X50544182Y-36363046D01*
X50536444Y-36367405D01*
X50513395Y-36387241D01*
X50478709Y-36420375D01*
X50435487Y-36463820D01*
X50386832Y-36514587D01*
X50374140Y-36528051D01*
X50317229Y-36588275D01*
X50249414Y-36659864D01*
X50175800Y-36737437D01*
X50101493Y-36815611D01*
X50031599Y-36889005D01*
X50027401Y-36893409D01*
X49962420Y-36961785D01*
X49912836Y-37014732D01*
X49876688Y-37054767D01*
X49852016Y-37084411D01*
X49836858Y-37106181D01*
X49829256Y-37122595D01*
X49827247Y-37136174D01*
X49620588Y-37136174D01*
X49625105Y-37131131D01*
X49664019Y-37085748D01*
X49687173Y-37056035D01*
X49694882Y-37041644D01*
X49694883Y-37041559D01*
X49693825Y-37023624D01*
X49690737Y-36983421D01*
X49685858Y-36923687D01*
X49679432Y-36847158D01*
X49671700Y-36756569D01*
X49662905Y-36654657D01*
X49653287Y-36544159D01*
X49643091Y-36427811D01*
X49632556Y-36308348D01*
X49621926Y-36188507D01*
X49611442Y-36071025D01*
X49601346Y-35958637D01*
X49591881Y-35854081D01*
X49583288Y-35760091D01*
X49575809Y-35679405D01*
X49569687Y-35614759D01*
X49565162Y-35568888D01*
X49562478Y-35544530D01*
X49557067Y-35503732D01*
X49686253Y-35503732D01*
X49687908Y-35534653D01*
X49691549Y-35586653D01*
X49696995Y-35657487D01*
X49704063Y-35744911D01*
X49712570Y-35846681D01*
X49722335Y-35960552D01*
X49733174Y-36084279D01*
X49744907Y-36215618D01*
X49754079Y-36316908D01*
X49765566Y-36442526D01*
X49776322Y-36558762D01*
X49786131Y-36663380D01*
X49794781Y-36754140D01*
X49802057Y-36828804D01*
X49807746Y-36885134D01*
X49811634Y-36920891D01*
X49813506Y-36933837D01*
X49819188Y-36929826D01*
X49840020Y-36910138D01*
X49873872Y-36876322D01*
X49918412Y-36830837D01*
X49971310Y-36776146D01*
X50030236Y-36714710D01*
X50092858Y-36648990D01*
X50156848Y-36581449D01*
X50219874Y-36514547D01*
X50279606Y-36450746D01*
X50333713Y-36392507D01*
X50379865Y-36342292D01*
X50415733Y-36302563D01*
X50438984Y-36275780D01*
X50445778Y-36266477D01*
X50627601Y-36266477D01*
X50903305Y-36541968D01*
X50970726Y-36609224D01*
X51034267Y-36672162D01*
X51083490Y-36720100D01*
X51120196Y-36754594D01*
X51146190Y-36777199D01*
X51163276Y-36789471D01*
X51173256Y-36792966D01*
X51177935Y-36789238D01*
X51179116Y-36779844D01*
X51179873Y-36764749D01*
X51182601Y-36725883D01*
X51187108Y-36666895D01*
X51193179Y-36590473D01*
X51200596Y-36499305D01*
X51209142Y-36396080D01*
X51218602Y-36283483D01*
X51228758Y-36164205D01*
X51237723Y-36059077D01*
X51247066Y-35948351D01*
X51255443Y-35847814D01*
X51262653Y-35759943D01*
X51268496Y-35687215D01*
X51272769Y-35632110D01*
X51275273Y-35597104D01*
X51275805Y-35584674D01*
X51275384Y-35584908D01*
X51263509Y-35596350D01*
X51237130Y-35623198D01*
X51198570Y-35663018D01*
X51150153Y-35713372D01*
X51094203Y-35771828D01*
X51033042Y-35835948D01*
X50968995Y-35903298D01*
X50904385Y-35971443D01*
X50841535Y-36037948D01*
X50782768Y-36100377D01*
X50730409Y-36156295D01*
X50629533Y-36264406D01*
X50627601Y-36266477D01*
X50445778Y-36266477D01*
X50447290Y-36264406D01*
X50439148Y-36253383D01*
X50415478Y-36226999D01*
X50378478Y-36187527D01*
X50330350Y-36137191D01*
X50273296Y-36078217D01*
X50209520Y-36012830D01*
X50141222Y-35943255D01*
X50070605Y-35871716D01*
X49999871Y-35800438D01*
X49931222Y-35731647D01*
X49866861Y-35667566D01*
X49808989Y-35610422D01*
X49759810Y-35562439D01*
X49721524Y-35525841D01*
X49696334Y-35502854D01*
X49686442Y-35495703D01*
X49686253Y-35503732D01*
X49557067Y-35503732D01*
X49555390Y-35491089D01*
X49280297Y-35491089D01*
X49280140Y-35390495D01*
X49380891Y-35390495D01*
X49462624Y-35390495D01*
X49469895Y-35390489D01*
X49510950Y-35389613D01*
X49533277Y-35385867D01*
X49542529Y-35377270D01*
X49544357Y-35361840D01*
X49536306Y-35339159D01*
X49508730Y-35301428D01*
X49462624Y-35252179D01*
X49380891Y-35171172D01*
X49380891Y-35390495D01*
X49280140Y-35390495D01*
X49279968Y-35280471D01*
X49279639Y-35069852D01*
X48827914Y-34610891D01*
X48376189Y-34151931D01*
X48375570Y-34064848D01*
X48374951Y-33977767D01*
X48916769Y-34526952D01*
X48969137Y-34579998D01*
X49077803Y-34689772D01*
X49170709Y-34783114D01*
X49249055Y-34861173D01*
X49314043Y-34925097D01*
X49366872Y-34976035D01*
X49408743Y-35015135D01*
X49440855Y-35043548D01*
X49464410Y-35062420D01*
X49480608Y-35072901D01*
X49490649Y-35076139D01*
X49507579Y-35075158D01*
X49517084Y-35067996D01*
X49518723Y-35048401D01*
X49514782Y-35010124D01*
X49512065Y-34986025D01*
X49508284Y-34945744D01*
X49506760Y-34918961D01*
X49506015Y-34909728D01*
X49498746Y-34899839D01*
X49478668Y-34896562D01*
X49439689Y-34897992D01*
X49429737Y-34898553D01*
X49389898Y-34897921D01*
X49361560Y-34889167D01*
X49341586Y-34874951D01*
X49624852Y-34874951D01*
X49629013Y-34922104D01*
X49630935Y-34943498D01*
X49636924Y-35001909D01*
X49642826Y-35040381D01*
X49649727Y-35062912D01*
X49658712Y-35073498D01*
X49670870Y-35076139D01*
X49681801Y-35077937D01*
X49689050Y-35086530D01*
X49693100Y-35106505D01*
X49694863Y-35142450D01*
X49695248Y-35198952D01*
X49695248Y-35321766D01*
X49735447Y-35361840D01*
X49833565Y-35459654D01*
X49971881Y-35597542D01*
X49971881Y-35491089D01*
X50726337Y-35491089D01*
X50726337Y-35730000D01*
X50107831Y-35730000D01*
X50317592Y-35946906D01*
X50357770Y-35988334D01*
X50413328Y-36045200D01*
X50461570Y-36094082D01*
X50499971Y-36132441D01*
X50526003Y-36157741D01*
X50537140Y-36167442D01*
X50541373Y-36164767D01*
X50561224Y-36146782D01*
X50595451Y-36113481D01*
X50642227Y-36066712D01*
X50699724Y-36008325D01*
X50766112Y-35940169D01*
X50839564Y-35864094D01*
X50918251Y-35781950D01*
X50997341Y-35698943D01*
X51074871Y-35617136D01*
X51137746Y-35550083D01*
X51187502Y-35496007D01*
X51225678Y-35453129D01*
X51253811Y-35419673D01*
X51273440Y-35393861D01*
X51286101Y-35373914D01*
X51293334Y-35358056D01*
X51296675Y-35344509D01*
X51297561Y-35337910D01*
X51301488Y-35301548D01*
X51306459Y-35248018D01*
X51311927Y-35183421D01*
X51317344Y-35113862D01*
X51319181Y-35089635D01*
X51324488Y-35024178D01*
X51329548Y-34967717D01*
X51333863Y-34925618D01*
X51336934Y-34903243D01*
X51342955Y-34874951D01*
X49624852Y-34874951D01*
X49341586Y-34874951D01*
X49333630Y-34869289D01*
X49328820Y-34865104D01*
X49289482Y-34814427D01*
X49273903Y-34761782D01*
X49614698Y-34761782D01*
X51029221Y-34761782D01*
X51241881Y-34761782D01*
X51298908Y-34761782D01*
X51315993Y-34761662D01*
X51341308Y-34759462D01*
X51348616Y-34752334D01*
X51342943Y-34737508D01*
X51341267Y-34734682D01*
X51322448Y-34712944D01*
X51295183Y-34688820D01*
X51267987Y-34669254D01*
X51249371Y-34661188D01*
X51247697Y-34662463D01*
X51243544Y-34679976D01*
X51241881Y-34711485D01*
X51241881Y-34761782D01*
X51029221Y-34761782D01*
X51025526Y-34671095D01*
X51021832Y-34580407D01*
X50946386Y-34565252D01*
X50908551Y-34558379D01*
X50845368Y-34548756D01*
X50786065Y-34541496D01*
X50701188Y-34532893D01*
X50701188Y-34636040D01*
X50122773Y-34636040D01*
X50122773Y-34545122D01*
X50050471Y-34553753D01*
X49939998Y-34572249D01*
X49828816Y-34605691D01*
X49736850Y-34652324D01*
X49662542Y-34712786D01*
X49614698Y-34761782D01*
X49273903Y-34761782D01*
X49272172Y-34755934D01*
X49277474Y-34694575D01*
X49305975Y-34635297D01*
X49308733Y-34631606D01*
X49346822Y-34599851D01*
X49396476Y-34581067D01*
X49450002Y-34576071D01*
X49499707Y-34585678D01*
X49537900Y-34610704D01*
X49550831Y-34623480D01*
X49563428Y-34626576D01*
X49581467Y-34616998D01*
X49611928Y-34593082D01*
X49621274Y-34585731D01*
X49693430Y-34539339D01*
X49701497Y-34535446D01*
X50223367Y-34535446D01*
X50600594Y-34535446D01*
X50600594Y-34472575D01*
X50223367Y-34472575D01*
X50223367Y-34535446D01*
X49701497Y-34535446D01*
X49778915Y-34498084D01*
X49869767Y-34464936D01*
X49958027Y-34442868D01*
X50035736Y-34434852D01*
X50043991Y-34434788D01*
X50089879Y-34430321D01*
X50115079Y-34417795D01*
X50122773Y-34395784D01*
X50123676Y-34388849D01*
X50128615Y-34382885D01*
X50140611Y-34378519D01*
X50162680Y-34375503D01*
X50197836Y-34373590D01*
X50249094Y-34372530D01*
X50319471Y-34372077D01*
X50411980Y-34371980D01*
X50498660Y-34372150D01*
X50572332Y-34372834D01*
X50626265Y-34374215D01*
X50663288Y-34376470D01*
X50686230Y-34379778D01*
X50697920Y-34384320D01*
X50701188Y-34390272D01*
X50711937Y-34404888D01*
X50742055Y-34414215D01*
X50753582Y-34415847D01*
X50792886Y-34421591D01*
X50845188Y-34429378D01*
X50902376Y-34438003D01*
X50933916Y-34442393D01*
X50980074Y-34447148D01*
X51012641Y-34448295D01*
X51026023Y-34445495D01*
X51028308Y-34443671D01*
X51049405Y-34439165D01*
X51087355Y-34436029D01*
X51136048Y-34434852D01*
X51241881Y-34434852D01*
X51241894Y-34472575D01*
X51241894Y-34475718D01*
G36*
X51241894Y-34475718D02*
G01*
X51242388Y-34488668D01*
X51248819Y-34510411D01*
X51267123Y-34528851D01*
X51302830Y-34550801D01*
X51334174Y-34570854D01*
X51381893Y-34609356D01*
X51425138Y-34652579D01*
X51458219Y-34694627D01*
X51475442Y-34729604D01*
X51479662Y-34743081D01*
X51487480Y-34752334D01*
X51490116Y-34755454D01*
X51511662Y-34760696D01*
X51551314Y-34761782D01*
X51619109Y-34761782D01*
X51619109Y-34874951D01*
X51459577Y-34874951D01*
X51444682Y-35052732D01*
X51442682Y-35077037D01*
X51438023Y-35137880D01*
X51434731Y-35187389D01*
X51433092Y-35220992D01*
X51433390Y-35234116D01*
X51437724Y-35230343D01*
X51457496Y-35210676D01*
X51491679Y-35175818D01*
X51538541Y-35127576D01*
X51596354Y-35067757D01*
X51663387Y-34998167D01*
X51737912Y-34920615D01*
X51818197Y-34836907D01*
X51902513Y-34748849D01*
X51989130Y-34658250D01*
X52076319Y-34566915D01*
X52162349Y-34476653D01*
X52245492Y-34389269D01*
X52324016Y-34306572D01*
X52396192Y-34230368D01*
X52460291Y-34162463D01*
X52514583Y-34104666D01*
X52611592Y-34001040D01*
X52612034Y-34089315D01*
X52612475Y-34177589D01*
X52011938Y-34809158D01*
X51411401Y-35440726D01*
X51399396Y-35584674D01*
X51351365Y-36160635D01*
X51342876Y-36262791D01*
X51332343Y-36390612D01*
X51322621Y-36509767D01*
X51313898Y-36617914D01*
X51306358Y-36712713D01*
X51300187Y-36791819D01*
X51295573Y-36852892D01*
X51292700Y-36893590D01*
X51291754Y-36911570D01*
X51294251Y-36919808D01*
X51305471Y-36937599D01*
X51326751Y-36964411D01*
X51337021Y-36976129D01*
X51359225Y-37001466D01*
X51404023Y-37049986D01*
X51462281Y-37111192D01*
X51535129Y-37186307D01*
X51623703Y-37276550D01*
X51729134Y-37383145D01*
X51798492Y-37453093D01*
X51895179Y-37550658D01*
X51991526Y-37647941D01*
X52084638Y-37742014D01*
X52171618Y-37829950D01*
X52249569Y-37908820D01*
X52315596Y-37975699D01*
X52366802Y-38027658D01*
X52567514Y-38231620D01*
X52531058Y-38269671D01*
X52522460Y-38278245D01*
X52497095Y-38299297D01*
X52479695Y-38307723D01*
X52466071Y-38300530D01*
X52440743Y-38278944D01*
X52410379Y-38247995D01*
X52391896Y-38228448D01*
X52357427Y-38192752D01*
X52308712Y-38142684D01*
X52247469Y-38080001D01*
X52175420Y-38006457D01*
X52094285Y-37923810D01*
X52005784Y-37833815D01*
X51911637Y-37738228D01*
X51813565Y-37638805D01*
X51271161Y-37089343D01*
X51249066Y-37374746D01*
X51244250Y-37435662D01*
X51237216Y-37517548D01*
X51230872Y-37579569D01*
X51224748Y-37624987D01*
X51218373Y-37657062D01*
X51211277Y-37679052D01*
X51202991Y-37694219D01*
X51191393Y-37715416D01*
X51181850Y-37754386D01*
X51179010Y-37810531D01*
X51179010Y-37892773D01*
X50952674Y-37892773D01*
X50952674Y-37716733D01*
X50107082Y-37716733D01*
X50058203Y-37772262D01*
X50044836Y-37786722D01*
X49972388Y-37844813D01*
X49890532Y-37880576D01*
X49801900Y-37892773D01*
X49723692Y-37886306D01*
X49635233Y-37859047D01*
X49559507Y-37810328D01*
X49544748Y-37796403D01*
X49507864Y-37751328D01*
X49475503Y-37698819D01*
X49452297Y-37647061D01*
X49442879Y-37604239D01*
X49442697Y-37598023D01*
X49441342Y-37575246D01*
X49437800Y-37559513D01*
X49430390Y-37552068D01*
X49417431Y-37554156D01*
X49397243Y-37567020D01*
X49368145Y-37591905D01*
X49328456Y-37630053D01*
X49276496Y-37682710D01*
X49210584Y-37751119D01*
X49129040Y-37836524D01*
X49085604Y-37882112D01*
X49013000Y-37958441D01*
X48944309Y-38030808D01*
X48882223Y-38096366D01*
X48829434Y-38152274D01*
X48788634Y-38195686D01*
X48762515Y-38223758D01*
X48691119Y-38301436D01*
X48602863Y-38213416D01*
X49148690Y-37641287D01*
X49183105Y-37605188D01*
X49305546Y-37476272D01*
X49410651Y-37364754D01*
X49498736Y-37270288D01*
X49570116Y-37192529D01*
X49620588Y-37136174D01*
X49827247Y-37136174D01*
X49828872Y-37149434D01*
X49829156Y-37150819D01*
X49842698Y-37182228D01*
X49869748Y-37196863D01*
X49953129Y-37228063D01*
X50027418Y-37280038D01*
X50085846Y-37348791D01*
X50125890Y-37431315D01*
X50145026Y-37524606D01*
X50151364Y-37603565D01*
X51100838Y-37603565D01*
X51107458Y-37575273D01*
X51108629Y-37568329D01*
X51112268Y-37537281D01*
X51117234Y-37487081D01*
X51123157Y-37421727D01*
X51129669Y-37345219D01*
X51136401Y-37261555D01*
X51158724Y-36976129D01*
X50857826Y-36670565D01*
X50802636Y-36614704D01*
X50735109Y-36546888D01*
X50674529Y-36486643D01*
X50623021Y-36436052D01*
X50582710Y-36397200D01*
X50555722Y-36372170D01*
X50544182Y-36363046D01*
X50536444Y-36367405D01*
X50513395Y-36387241D01*
X50478709Y-36420375D01*
X50435487Y-36463820D01*
X50386832Y-36514587D01*
X50374140Y-36528051D01*
X50317229Y-36588275D01*
X50249414Y-36659864D01*
X50175800Y-36737437D01*
X50101493Y-36815611D01*
X50031599Y-36889005D01*
X50027401Y-36893409D01*
X49962420Y-36961785D01*
X49912836Y-37014732D01*
X49876688Y-37054767D01*
X49852016Y-37084411D01*
X49836858Y-37106181D01*
X49829256Y-37122595D01*
X49827247Y-37136174D01*
X49620588Y-37136174D01*
X49625105Y-37131131D01*
X49664019Y-37085748D01*
X49687173Y-37056035D01*
X49694882Y-37041644D01*
X49694883Y-37041559D01*
X49693825Y-37023624D01*
X49690737Y-36983421D01*
X49685858Y-36923687D01*
X49679432Y-36847158D01*
X49671700Y-36756569D01*
X49662905Y-36654657D01*
X49653287Y-36544159D01*
X49643091Y-36427811D01*
X49632556Y-36308348D01*
X49621926Y-36188507D01*
X49611442Y-36071025D01*
X49601346Y-35958637D01*
X49591881Y-35854081D01*
X49583288Y-35760091D01*
X49575809Y-35679405D01*
X49569687Y-35614759D01*
X49565162Y-35568888D01*
X49562478Y-35544530D01*
X49557067Y-35503732D01*
X49686253Y-35503732D01*
X49687908Y-35534653D01*
X49691549Y-35586653D01*
X49696995Y-35657487D01*
X49704063Y-35744911D01*
X49712570Y-35846681D01*
X49722335Y-35960552D01*
X49733174Y-36084279D01*
X49744907Y-36215618D01*
X49754079Y-36316908D01*
X49765566Y-36442526D01*
X49776322Y-36558762D01*
X49786131Y-36663380D01*
X49794781Y-36754140D01*
X49802057Y-36828804D01*
X49807746Y-36885134D01*
X49811634Y-36920891D01*
X49813506Y-36933837D01*
X49819188Y-36929826D01*
X49840020Y-36910138D01*
X49873872Y-36876322D01*
X49918412Y-36830837D01*
X49971310Y-36776146D01*
X50030236Y-36714710D01*
X50092858Y-36648990D01*
X50156848Y-36581449D01*
X50219874Y-36514547D01*
X50279606Y-36450746D01*
X50333713Y-36392507D01*
X50379865Y-36342292D01*
X50415733Y-36302563D01*
X50438984Y-36275780D01*
X50445778Y-36266477D01*
X50627601Y-36266477D01*
X50903305Y-36541968D01*
X50970726Y-36609224D01*
X51034267Y-36672162D01*
X51083490Y-36720100D01*
X51120196Y-36754594D01*
X51146190Y-36777199D01*
X51163276Y-36789471D01*
X51173256Y-36792966D01*
X51177935Y-36789238D01*
X51179116Y-36779844D01*
X51179873Y-36764749D01*
X51182601Y-36725883D01*
X51187108Y-36666895D01*
X51193179Y-36590473D01*
X51200596Y-36499305D01*
X51209142Y-36396080D01*
X51218602Y-36283483D01*
X51228758Y-36164205D01*
X51237723Y-36059077D01*
X51247066Y-35948351D01*
X51255443Y-35847814D01*
X51262653Y-35759943D01*
X51268496Y-35687215D01*
X51272769Y-35632110D01*
X51275273Y-35597104D01*
X51275805Y-35584674D01*
X51275384Y-35584908D01*
X51263509Y-35596350D01*
X51237130Y-35623198D01*
X51198570Y-35663018D01*
X51150153Y-35713372D01*
X51094203Y-35771828D01*
X51033042Y-35835948D01*
X50968995Y-35903298D01*
X50904385Y-35971443D01*
X50841535Y-36037948D01*
X50782768Y-36100377D01*
X50730409Y-36156295D01*
X50629533Y-36264406D01*
X50627601Y-36266477D01*
X50445778Y-36266477D01*
X50447290Y-36264406D01*
X50439148Y-36253383D01*
X50415478Y-36226999D01*
X50378478Y-36187527D01*
X50330350Y-36137191D01*
X50273296Y-36078217D01*
X50209520Y-36012830D01*
X50141222Y-35943255D01*
X50070605Y-35871716D01*
X49999871Y-35800438D01*
X49931222Y-35731647D01*
X49866861Y-35667566D01*
X49808989Y-35610422D01*
X49759810Y-35562439D01*
X49721524Y-35525841D01*
X49696334Y-35502854D01*
X49686442Y-35495703D01*
X49686253Y-35503732D01*
X49557067Y-35503732D01*
X49555390Y-35491089D01*
X49280297Y-35491089D01*
X49280140Y-35390495D01*
X49380891Y-35390495D01*
X49462624Y-35390495D01*
X49469895Y-35390489D01*
X49510950Y-35389613D01*
X49533277Y-35385867D01*
X49542529Y-35377270D01*
X49544357Y-35361840D01*
X49536306Y-35339159D01*
X49508730Y-35301428D01*
X49462624Y-35252179D01*
X49380891Y-35171172D01*
X49380891Y-35390495D01*
X49280140Y-35390495D01*
X49279968Y-35280471D01*
X49279639Y-35069852D01*
X48827914Y-34610891D01*
X48376189Y-34151931D01*
X48375570Y-34064848D01*
X48374951Y-33977767D01*
X48916769Y-34526952D01*
X48969137Y-34579998D01*
X49077803Y-34689772D01*
X49170709Y-34783114D01*
X49249055Y-34861173D01*
X49314043Y-34925097D01*
X49366872Y-34976035D01*
X49408743Y-35015135D01*
X49440855Y-35043548D01*
X49464410Y-35062420D01*
X49480608Y-35072901D01*
X49490649Y-35076139D01*
X49507579Y-35075158D01*
X49517084Y-35067996D01*
X49518723Y-35048401D01*
X49514782Y-35010124D01*
X49512065Y-34986025D01*
X49508284Y-34945744D01*
X49506760Y-34918961D01*
X49506015Y-34909728D01*
X49498746Y-34899839D01*
X49478668Y-34896562D01*
X49439689Y-34897992D01*
X49429737Y-34898553D01*
X49389898Y-34897921D01*
X49361560Y-34889167D01*
X49341586Y-34874951D01*
X49624852Y-34874951D01*
X49629013Y-34922104D01*
X49630935Y-34943498D01*
X49636924Y-35001909D01*
X49642826Y-35040381D01*
X49649727Y-35062912D01*
X49658712Y-35073498D01*
X49670870Y-35076139D01*
X49681801Y-35077937D01*
X49689050Y-35086530D01*
X49693100Y-35106505D01*
X49694863Y-35142450D01*
X49695248Y-35198952D01*
X49695248Y-35321766D01*
X49735447Y-35361840D01*
X49833565Y-35459654D01*
X49971881Y-35597542D01*
X49971881Y-35491089D01*
X50726337Y-35491089D01*
X50726337Y-35730000D01*
X50107831Y-35730000D01*
X50317592Y-35946906D01*
X50357770Y-35988334D01*
X50413328Y-36045200D01*
X50461570Y-36094082D01*
X50499971Y-36132441D01*
X50526003Y-36157741D01*
X50537140Y-36167442D01*
X50541373Y-36164767D01*
X50561224Y-36146782D01*
X50595451Y-36113481D01*
X50642227Y-36066712D01*
X50699724Y-36008325D01*
X50766112Y-35940169D01*
X50839564Y-35864094D01*
X50918251Y-35781950D01*
X50997341Y-35698943D01*
X51074871Y-35617136D01*
X51137746Y-35550083D01*
X51187502Y-35496007D01*
X51225678Y-35453129D01*
X51253811Y-35419673D01*
X51273440Y-35393861D01*
X51286101Y-35373914D01*
X51293334Y-35358056D01*
X51296675Y-35344509D01*
X51297561Y-35337910D01*
X51301488Y-35301548D01*
X51306459Y-35248018D01*
X51311927Y-35183421D01*
X51317344Y-35113862D01*
X51319181Y-35089635D01*
X51324488Y-35024178D01*
X51329548Y-34967717D01*
X51333863Y-34925618D01*
X51336934Y-34903243D01*
X51342955Y-34874951D01*
X49624852Y-34874951D01*
X49341586Y-34874951D01*
X49333630Y-34869289D01*
X49328820Y-34865104D01*
X49289482Y-34814427D01*
X49273903Y-34761782D01*
X49614698Y-34761782D01*
X51029221Y-34761782D01*
X51241881Y-34761782D01*
X51298908Y-34761782D01*
X51315993Y-34761662D01*
X51341308Y-34759462D01*
X51348616Y-34752334D01*
X51342943Y-34737508D01*
X51341267Y-34734682D01*
X51322448Y-34712944D01*
X51295183Y-34688820D01*
X51267987Y-34669254D01*
X51249371Y-34661188D01*
X51247697Y-34662463D01*
X51243544Y-34679976D01*
X51241881Y-34711485D01*
X51241881Y-34761782D01*
X51029221Y-34761782D01*
X51025526Y-34671095D01*
X51021832Y-34580407D01*
X50946386Y-34565252D01*
X50908551Y-34558379D01*
X50845368Y-34548756D01*
X50786065Y-34541496D01*
X50701188Y-34532893D01*
X50701188Y-34636040D01*
X50122773Y-34636040D01*
X50122773Y-34545122D01*
X50050471Y-34553753D01*
X49939998Y-34572249D01*
X49828816Y-34605691D01*
X49736850Y-34652324D01*
X49662542Y-34712786D01*
X49614698Y-34761782D01*
X49273903Y-34761782D01*
X49272172Y-34755934D01*
X49277474Y-34694575D01*
X49305975Y-34635297D01*
X49308733Y-34631606D01*
X49346822Y-34599851D01*
X49396476Y-34581067D01*
X49450002Y-34576071D01*
X49499707Y-34585678D01*
X49537900Y-34610704D01*
X49550831Y-34623480D01*
X49563428Y-34626576D01*
X49581467Y-34616998D01*
X49611928Y-34593082D01*
X49621274Y-34585731D01*
X49693430Y-34539339D01*
X49701497Y-34535446D01*
X50223367Y-34535446D01*
X50600594Y-34535446D01*
X50600594Y-34472575D01*
X50223367Y-34472575D01*
X50223367Y-34535446D01*
X49701497Y-34535446D01*
X49778915Y-34498084D01*
X49869767Y-34464936D01*
X49958027Y-34442868D01*
X50035736Y-34434852D01*
X50043991Y-34434788D01*
X50089879Y-34430321D01*
X50115079Y-34417795D01*
X50122773Y-34395784D01*
X50123676Y-34388849D01*
X50128615Y-34382885D01*
X50140611Y-34378519D01*
X50162680Y-34375503D01*
X50197836Y-34373590D01*
X50249094Y-34372530D01*
X50319471Y-34372077D01*
X50411980Y-34371980D01*
X50498660Y-34372150D01*
X50572332Y-34372834D01*
X50626265Y-34374215D01*
X50663288Y-34376470D01*
X50686230Y-34379778D01*
X50697920Y-34384320D01*
X50701188Y-34390272D01*
X50711937Y-34404888D01*
X50742055Y-34414215D01*
X50753582Y-34415847D01*
X50792886Y-34421591D01*
X50845188Y-34429378D01*
X50902376Y-34438003D01*
X50933916Y-34442393D01*
X50980074Y-34447148D01*
X51012641Y-34448295D01*
X51026023Y-34445495D01*
X51028308Y-34443671D01*
X51049405Y-34439165D01*
X51087355Y-34436029D01*
X51136048Y-34434852D01*
X51241881Y-34434852D01*
X51241894Y-34472575D01*
X51241894Y-34475718D01*
G37*
D11*
%TO.C,J3*%
X12800000Y-10300000D02*
X28200000Y-10300000D01*
X28200000Y-10300000D02*
X28200000Y-18700000D01*
X28200000Y-18700000D02*
X12800000Y-18700000D01*
X12800000Y-18700000D02*
X12800000Y-10300000D01*
%TO.C,REF\u002A\u002A*%
G36*
X51697415Y-13680012D02*
G01*
X51716315Y-13685393D01*
X51731001Y-13697205D01*
X51739714Y-13714158D01*
X51740388Y-13717751D01*
X51741566Y-13731303D01*
X51742457Y-13753171D01*
X51743062Y-13783418D01*
X51743382Y-13822108D01*
X51743419Y-13869303D01*
X51743173Y-13925066D01*
X51742980Y-13953854D01*
X51742658Y-13995242D01*
X51742303Y-14029256D01*
X51741880Y-14056682D01*
X51741356Y-14078310D01*
X51740694Y-14094926D01*
X51739861Y-14107319D01*
X51738821Y-14116275D01*
X51737540Y-14122585D01*
X51735984Y-14127033D01*
X51734116Y-14130410D01*
X51725951Y-14139824D01*
X51716843Y-14146133D01*
X51715205Y-14146520D01*
X51705524Y-14147455D01*
X51688803Y-14148306D01*
X51666185Y-14149041D01*
X51638813Y-14149627D01*
X51607830Y-14150030D01*
X51574378Y-14150219D01*
X51559758Y-14150242D01*
X51521874Y-14150180D01*
X51491457Y-14149841D01*
X51467634Y-14149120D01*
X51449532Y-14147913D01*
X51436277Y-14146112D01*
X51426996Y-14143612D01*
X51420815Y-14140309D01*
X51416861Y-14136096D01*
X51414261Y-14130867D01*
X51412520Y-14124499D01*
X51412047Y-14108369D01*
X51416024Y-14094117D01*
X51416401Y-14093423D01*
X51420601Y-14087212D01*
X51426217Y-14082373D01*
X51434279Y-14078739D01*
X51445820Y-14076141D01*
X51461870Y-14074412D01*
X51483461Y-14073385D01*
X51511623Y-14072892D01*
X51547389Y-14072764D01*
X51649082Y-14072764D01*
X51649082Y-13890966D01*
X51649082Y-13709167D01*
X51663765Y-13694485D01*
X51668153Y-13690326D01*
X51680328Y-13682181D01*
X51692913Y-13679819D01*
X51697415Y-13680012D01*
G37*
G36*
X50902024Y-13924284D02*
G01*
X50902024Y-14129765D01*
X50887342Y-14144448D01*
X50871448Y-14155953D01*
X50854315Y-14159214D01*
X50835354Y-14154146D01*
X50834154Y-14153590D01*
X50825768Y-14148855D01*
X50819459Y-14142803D01*
X50814905Y-14134214D01*
X50811780Y-14121868D01*
X50809762Y-14104546D01*
X50808527Y-14081028D01*
X50807752Y-14050094D01*
X50806322Y-13973444D01*
X50768887Y-13973370D01*
X50740710Y-13972845D01*
X50693339Y-13969214D01*
X50653413Y-13961934D01*
X50620579Y-13950770D01*
X50594483Y-13935487D01*
X50574772Y-13915852D01*
X50561093Y-13891631D01*
X50553093Y-13862589D01*
X50550610Y-13830928D01*
X50647246Y-13830928D01*
X50647565Y-13839533D01*
X50652320Y-13860275D01*
X50663421Y-13875999D01*
X50681698Y-13888085D01*
X50687490Y-13890675D01*
X50698414Y-13894220D01*
X50711786Y-13896628D01*
X50729669Y-13898219D01*
X50754123Y-13899310D01*
X50807022Y-13901077D01*
X50807022Y-13828648D01*
X50807022Y-13756219D01*
X50753203Y-13758762D01*
X50730517Y-13760241D01*
X50701586Y-13764111D01*
X50679792Y-13770385D01*
X50664297Y-13779634D01*
X50654267Y-13792427D01*
X50648862Y-13809335D01*
X50647246Y-13830928D01*
X50550610Y-13830928D01*
X50550419Y-13828493D01*
X50550446Y-13817348D01*
X50551146Y-13800739D01*
X50553245Y-13787928D01*
X50557395Y-13775732D01*
X50564247Y-13760970D01*
X50571300Y-13747950D01*
X50585744Y-13728721D01*
X50604196Y-13713476D01*
X50628966Y-13700040D01*
X50631484Y-13698897D01*
X50637990Y-13696286D01*
X50645020Y-13694287D01*
X50653733Y-13692820D01*
X50665288Y-13691803D01*
X50680843Y-13691154D01*
X50701559Y-13690791D01*
X50728593Y-13690633D01*
X50763105Y-13690598D01*
X50876805Y-13690598D01*
X50889414Y-13704701D01*
X50902024Y-13718803D01*
X50902024Y-13756219D01*
X50902024Y-13924284D01*
G37*
G36*
X50654036Y-12349887D02*
G01*
X50690043Y-12350041D01*
X50719667Y-12350387D01*
X50743679Y-12350997D01*
X50762853Y-12351940D01*
X50777959Y-12353287D01*
X50789771Y-12355108D01*
X50799059Y-12357475D01*
X50806596Y-12360456D01*
X50813155Y-12364124D01*
X50819506Y-12368548D01*
X50826423Y-12373799D01*
X50833237Y-12380182D01*
X50844871Y-12395289D01*
X50855573Y-12413873D01*
X50869637Y-12442440D01*
X50869637Y-12623898D01*
X50869637Y-12805355D01*
X50857502Y-12830071D01*
X50853528Y-12837517D01*
X50835872Y-12861342D01*
X50814037Y-12879921D01*
X50789881Y-12891565D01*
X50782483Y-12892786D01*
X50766927Y-12894031D01*
X50744773Y-12895127D01*
X50717101Y-12896071D01*
X50684992Y-12896856D01*
X50649526Y-12897479D01*
X50611783Y-12897933D01*
X50572846Y-12898214D01*
X50533792Y-12898318D01*
X50495705Y-12898237D01*
X50459663Y-12897969D01*
X50426747Y-12897507D01*
X50398039Y-12896847D01*
X50374618Y-12895984D01*
X50357565Y-12894912D01*
X50347960Y-12893627D01*
X50340507Y-12891430D01*
X50314667Y-12878255D01*
X50292653Y-12857743D01*
X50275185Y-12830519D01*
X50260762Y-12801224D01*
X50260762Y-12624082D01*
X50260774Y-12587552D01*
X50260889Y-12546551D01*
X50261231Y-12512662D01*
X50261924Y-12485021D01*
X50263090Y-12462763D01*
X50264854Y-12445022D01*
X50267339Y-12430934D01*
X50270668Y-12419634D01*
X50274966Y-12410256D01*
X50280355Y-12401935D01*
X50286959Y-12393807D01*
X50294901Y-12385006D01*
X50297328Y-12382350D01*
X50303907Y-12375197D01*
X50310036Y-12369183D01*
X50316470Y-12364207D01*
X50323968Y-12360172D01*
X50333287Y-12356979D01*
X50345183Y-12354528D01*
X50360416Y-12352721D01*
X50379740Y-12351460D01*
X50403915Y-12350645D01*
X50433697Y-12350178D01*
X50469843Y-12349959D01*
X50513111Y-12349891D01*
X50564259Y-12349874D01*
X50610874Y-12349856D01*
X50654036Y-12349887D01*
G37*
G36*
X50574872Y-11525917D02*
G01*
X50787590Y-11527151D01*
X50807646Y-11538941D01*
X50820910Y-11547795D01*
X50843394Y-11569907D01*
X50860604Y-11598402D01*
X50862260Y-11602103D01*
X50864190Y-11607285D01*
X50865751Y-11613350D01*
X50866982Y-11621160D01*
X50867921Y-11631576D01*
X50868609Y-11645459D01*
X50869083Y-11663672D01*
X50869384Y-11687075D01*
X50869551Y-11716530D01*
X50869622Y-11752898D01*
X50869637Y-11797042D01*
X50869636Y-11808613D01*
X50869598Y-11851061D01*
X50869482Y-11885954D01*
X50869250Y-11914164D01*
X50868867Y-11936560D01*
X50868299Y-11954012D01*
X50867508Y-11967392D01*
X50866459Y-11977569D01*
X50865116Y-11985413D01*
X50863444Y-11991796D01*
X50861407Y-11997588D01*
X50852687Y-12014888D01*
X50837353Y-12035627D01*
X50819167Y-12053338D01*
X50800545Y-12065331D01*
X50799703Y-12065708D01*
X50795160Y-12067448D01*
X50789637Y-12068899D01*
X50782369Y-12070087D01*
X50772591Y-12071038D01*
X50759535Y-12071779D01*
X50742438Y-12072337D01*
X50720533Y-12072737D01*
X50693054Y-12073006D01*
X50659235Y-12073170D01*
X50618312Y-12073257D01*
X50569518Y-12073292D01*
X50519144Y-12073231D01*
X50468595Y-12072971D01*
X50426092Y-12072508D01*
X50391754Y-12071845D01*
X50365698Y-12070985D01*
X50348041Y-12069929D01*
X50338901Y-12068680D01*
X50327764Y-12064012D01*
X50310114Y-12051623D01*
X50293067Y-12034653D01*
X50278671Y-12015244D01*
X50268979Y-11995544D01*
X50268885Y-11995272D01*
X50266843Y-11988801D01*
X50265173Y-11981736D01*
X50263838Y-11973184D01*
X50262800Y-11962250D01*
X50262024Y-11948042D01*
X50261471Y-11929665D01*
X50261106Y-11906226D01*
X50260890Y-11876832D01*
X50260788Y-11840588D01*
X50260762Y-11796602D01*
X50260762Y-11621273D01*
X50275876Y-11591676D01*
X50279195Y-11585490D01*
X50297819Y-11559367D01*
X50319998Y-11540440D01*
X50345106Y-11529273D01*
X50351954Y-11528271D01*
X50368156Y-11527257D01*
X50392845Y-11526490D01*
X50425941Y-11525972D01*
X50467365Y-11525702D01*
X50517035Y-11525684D01*
X50574872Y-11525917D01*
G37*
G36*
X52503451Y-13681243D02*
G01*
X52542735Y-13688309D01*
X52580131Y-13702104D01*
X52614415Y-13722587D01*
X52644362Y-13749719D01*
X52659309Y-13768585D01*
X52678849Y-13803022D01*
X52692497Y-13840964D01*
X52700377Y-13881221D01*
X52702615Y-13922603D01*
X52699336Y-13963921D01*
X52690665Y-14003985D01*
X52676727Y-14041605D01*
X52657647Y-14075592D01*
X52633552Y-14104756D01*
X52604564Y-14127907D01*
X52583541Y-14139016D01*
X52556290Y-14149526D01*
X52530007Y-14156146D01*
X52515426Y-14157705D01*
X52493401Y-14158458D01*
X52469457Y-14158102D01*
X52447096Y-14156700D01*
X52429820Y-14154317D01*
X52410795Y-14149214D01*
X52378597Y-14135259D01*
X52349893Y-14116085D01*
X52325711Y-14092767D01*
X52307079Y-14066381D01*
X52295026Y-14038001D01*
X52290579Y-14008704D01*
X52290574Y-14003467D01*
X52291609Y-13991016D01*
X52295172Y-13982730D01*
X52302460Y-13975237D01*
X52311235Y-13969392D01*
X52327411Y-13964775D01*
X52343283Y-13966473D01*
X52356098Y-13974524D01*
X52362184Y-13982973D01*
X52370090Y-13996651D01*
X52377873Y-14012309D01*
X52387082Y-14030050D01*
X52405132Y-14053853D01*
X52426910Y-14070195D01*
X52453185Y-14079579D01*
X52484726Y-14082512D01*
X52513908Y-14079648D01*
X52541839Y-14069873D01*
X52564786Y-14053110D01*
X52582797Y-14029310D01*
X52595922Y-13998423D01*
X52604209Y-13960399D01*
X52606286Y-13939966D01*
X52605986Y-13902052D01*
X52600548Y-13865960D01*
X52590372Y-13833204D01*
X52575862Y-13805301D01*
X52557417Y-13783763D01*
X52548463Y-13776611D01*
X52526448Y-13764768D01*
X52500878Y-13758820D01*
X52469957Y-13758242D01*
X52450224Y-13760654D01*
X52431112Y-13766996D01*
X52414160Y-13778223D01*
X52397755Y-13795442D01*
X52380280Y-13819762D01*
X52373855Y-13829478D01*
X52363604Y-13844176D01*
X52355683Y-13853430D01*
X52348589Y-13858498D01*
X52340821Y-13860637D01*
X52330877Y-13861104D01*
X52316140Y-13858666D01*
X52303507Y-13850211D01*
X52295743Y-13836870D01*
X52292854Y-13819856D01*
X52294848Y-13800383D01*
X52301730Y-13779664D01*
X52313509Y-13758913D01*
X52330190Y-13739342D01*
X52351917Y-13721083D01*
X52386511Y-13700827D01*
X52424115Y-13687462D01*
X52463503Y-13680948D01*
X52503451Y-13681243D01*
G37*
G36*
X51232329Y-13685853D02*
G01*
X51270837Y-13699040D01*
X51306184Y-13719314D01*
X51337223Y-13746479D01*
X51356757Y-13769921D01*
X51375841Y-13801342D01*
X51388839Y-13835779D01*
X51396263Y-13874673D01*
X51398623Y-13919466D01*
X51398024Y-13942174D01*
X51392410Y-13987658D01*
X51380635Y-14027957D01*
X51362394Y-14063960D01*
X51337378Y-14096557D01*
X51336269Y-14097763D01*
X51309731Y-14122129D01*
X51280974Y-14139463D01*
X51247484Y-14151295D01*
X51231135Y-14154909D01*
X51190651Y-14158990D01*
X51149536Y-14156986D01*
X51110243Y-14149121D01*
X51075225Y-14135618D01*
X51070161Y-14132912D01*
X51047756Y-14117394D01*
X51028035Y-14098169D01*
X51011599Y-14076508D01*
X50999050Y-14053683D01*
X50990991Y-14030967D01*
X50988024Y-14009632D01*
X50990751Y-13990950D01*
X50999773Y-13976192D01*
X51000060Y-13975909D01*
X51014842Y-13967015D01*
X51032369Y-13964697D01*
X51049364Y-13969404D01*
X51050235Y-13969974D01*
X51056514Y-13977183D01*
X51064309Y-13989641D01*
X51072138Y-14005030D01*
X51074583Y-14010261D01*
X51090467Y-14038516D01*
X51107921Y-14059066D01*
X51128070Y-14072716D01*
X51152040Y-14080267D01*
X51180960Y-14082521D01*
X51188905Y-14082299D01*
X51220538Y-14076957D01*
X51247254Y-14064642D01*
X51268922Y-14045544D01*
X51285411Y-14019857D01*
X51296588Y-13987770D01*
X51302324Y-13949477D01*
X51302485Y-13905169D01*
X51299781Y-13877281D01*
X51292346Y-13843970D01*
X51280262Y-13816241D01*
X51263095Y-13792856D01*
X51247387Y-13777880D01*
X51228152Y-13765993D01*
X51205987Y-13759601D01*
X51178392Y-13757667D01*
X51177431Y-13757667D01*
X51152250Y-13759514D01*
X51131319Y-13765606D01*
X51112982Y-13776957D01*
X51095583Y-13794582D01*
X51077465Y-13819495D01*
X51070637Y-13829556D01*
X51060291Y-13843656D01*
X51051805Y-13853866D01*
X51046540Y-13858469D01*
X51034143Y-13861241D01*
X51016973Y-13858935D01*
X51002358Y-13850336D01*
X50992207Y-13836730D01*
X50988431Y-13819399D01*
X50989072Y-13810485D01*
X50996022Y-13786575D01*
X51009689Y-13762375D01*
X51028925Y-13739355D01*
X51052579Y-13718988D01*
X51079503Y-13702745D01*
X51109295Y-13690752D01*
X51150412Y-13681515D01*
X51191805Y-13679946D01*
X51232329Y-13685853D01*
G37*
G36*
X50007221Y-13683271D02*
G01*
X50023690Y-13694485D01*
X50038372Y-13709167D01*
X50038372Y-13855830D01*
X50038317Y-13879389D01*
X50038033Y-13914233D01*
X50037534Y-13946488D01*
X50036853Y-13974946D01*
X50036020Y-13998397D01*
X50035065Y-14015631D01*
X50034020Y-14025438D01*
X50032557Y-14032530D01*
X50020677Y-14068701D01*
X50002593Y-14098888D01*
X49978400Y-14122996D01*
X49948191Y-14140926D01*
X49912058Y-14152581D01*
X49893086Y-14155656D01*
X49865063Y-14157976D01*
X49835080Y-14158638D01*
X49806606Y-14157582D01*
X49783104Y-14154751D01*
X49772099Y-14152262D01*
X49740523Y-14140452D01*
X49711920Y-14123008D01*
X49688114Y-14101204D01*
X49670929Y-14076317D01*
X49667654Y-14069638D01*
X49662765Y-14058036D01*
X49658835Y-14045629D01*
X49655774Y-14031438D01*
X49653491Y-14014486D01*
X49651899Y-13993793D01*
X49650908Y-13968382D01*
X49650429Y-13937273D01*
X49650372Y-13899488D01*
X49650648Y-13854049D01*
X49651888Y-13704995D01*
X49665990Y-13692399D01*
X49674209Y-13686336D01*
X49691838Y-13680106D01*
X49709447Y-13681502D01*
X49725176Y-13690174D01*
X49737167Y-13705772D01*
X49738475Y-13708630D01*
X49740328Y-13714241D01*
X49741779Y-13721687D01*
X49742876Y-13731939D01*
X49743667Y-13745970D01*
X49744200Y-13764750D01*
X49744521Y-13789252D01*
X49744680Y-13820447D01*
X49744723Y-13859306D01*
X49744771Y-13891247D01*
X49745052Y-13928798D01*
X49745696Y-13959354D01*
X49746832Y-13983867D01*
X49748585Y-14003292D01*
X49751082Y-14018582D01*
X49754449Y-14030689D01*
X49758814Y-14040567D01*
X49764302Y-14049169D01*
X49771041Y-14057448D01*
X49781605Y-14067393D01*
X49798364Y-14076509D01*
X49819763Y-14081420D01*
X49847517Y-14082692D01*
X49875662Y-14080186D01*
X49898961Y-14072617D01*
X49916832Y-14059501D01*
X49930246Y-14040341D01*
X49941211Y-14019052D01*
X49943370Y-13865621D01*
X49943451Y-13859938D01*
X49944057Y-13820030D01*
X49944659Y-13787756D01*
X49945307Y-13762229D01*
X49946056Y-13742559D01*
X49946957Y-13727858D01*
X49948064Y-13717239D01*
X49949430Y-13709811D01*
X49951106Y-13704688D01*
X49953147Y-13700980D01*
X49956965Y-13695988D01*
X49972045Y-13684189D01*
X49989402Y-13679895D01*
X50007221Y-13683271D01*
G37*
G36*
X52197248Y-13998133D02*
G01*
X52207783Y-14025163D01*
X52216339Y-14047206D01*
X52223110Y-14064760D01*
X52228290Y-14078320D01*
X52232071Y-14088383D01*
X52234646Y-14095447D01*
X52236210Y-14100007D01*
X52238698Y-14117802D01*
X52233481Y-14135487D01*
X52220085Y-14150639D01*
X52211737Y-14155605D01*
X52195205Y-14159293D01*
X52178760Y-14156836D01*
X52165520Y-14148363D01*
X52160833Y-14141519D01*
X52153613Y-14127851D01*
X52145410Y-14109996D01*
X52137250Y-14090067D01*
X52118958Y-14042537D01*
X52025093Y-14042537D01*
X51931227Y-14042537D01*
X51912651Y-14090137D01*
X51909704Y-14097564D01*
X51898729Y-14122354D01*
X51888460Y-14139921D01*
X51878052Y-14151249D01*
X51866659Y-14157324D01*
X51853437Y-14159130D01*
X51846536Y-14158603D01*
X51835214Y-14154188D01*
X51822992Y-14143899D01*
X51819103Y-14139928D01*
X51811861Y-14130849D01*
X51809265Y-14122263D01*
X51809846Y-14110433D01*
X51809967Y-14109683D01*
X51812518Y-14100899D01*
X51817933Y-14085304D01*
X51825813Y-14063887D01*
X51835764Y-14037637D01*
X51847387Y-14007544D01*
X51860286Y-13974596D01*
X51863775Y-13965781D01*
X51959997Y-13965781D01*
X51961346Y-13966450D01*
X51969672Y-13967510D01*
X51984327Y-13968359D01*
X52003842Y-13968922D01*
X52026746Y-13969126D01*
X52093496Y-13969126D01*
X52073825Y-13914068D01*
X52065586Y-13890962D01*
X52056312Y-13864871D01*
X52047675Y-13840497D01*
X52040814Y-13821047D01*
X52038093Y-13813520D01*
X52031845Y-13798200D01*
X52027119Y-13789690D01*
X52024303Y-13788749D01*
X52022083Y-13793890D01*
X52017473Y-13805733D01*
X52011088Y-13822671D01*
X52003460Y-13843240D01*
X51995123Y-13865974D01*
X51986608Y-13889407D01*
X51978448Y-13912075D01*
X51971174Y-13932512D01*
X51965319Y-13949252D01*
X51961416Y-13960830D01*
X51959997Y-13965781D01*
X51863775Y-13965781D01*
X51874065Y-13939783D01*
X51888327Y-13904093D01*
X51902674Y-13868515D01*
X51916711Y-13834040D01*
X51930040Y-13801655D01*
X51942265Y-13772350D01*
X51952989Y-13747115D01*
X51961815Y-13726937D01*
X51968346Y-13712806D01*
X51972187Y-13705712D01*
X51976160Y-13700920D01*
X51992984Y-13688459D01*
X52013551Y-13681436D01*
X52035130Y-13680495D01*
X52054990Y-13686276D01*
X52058611Y-13688329D01*
X52070412Y-13698103D01*
X52081498Y-13712829D01*
X52092643Y-13733685D01*
X52104618Y-13761850D01*
X52108136Y-13770808D01*
X52131461Y-13830219D01*
X52151842Y-13882160D01*
X52169471Y-13927128D01*
X52184542Y-13965621D01*
X52185912Y-13969126D01*
X52197248Y-13998133D01*
G37*
G36*
X50333247Y-13681223D02*
G01*
X50368538Y-13687450D01*
X50401019Y-13698330D01*
X50429075Y-13713644D01*
X50451090Y-13733172D01*
X50454359Y-13737183D01*
X50469060Y-13762484D01*
X50476946Y-13790467D01*
X50478113Y-13819423D01*
X50472652Y-13847645D01*
X50460658Y-13873424D01*
X50442224Y-13895053D01*
X50438691Y-13898065D01*
X50423485Y-13909082D01*
X50405440Y-13918963D01*
X50383132Y-13928325D01*
X50355138Y-13937784D01*
X50320034Y-13947956D01*
X50314218Y-13949558D01*
X50286192Y-13957590D01*
X50265035Y-13964424D01*
X50249429Y-13970652D01*
X50238053Y-13976868D01*
X50229587Y-13983664D01*
X50222709Y-13991632D01*
X50217390Y-14001785D01*
X50213946Y-14020021D01*
X50215703Y-14038866D01*
X50222664Y-14054577D01*
X50226531Y-14059261D01*
X50244753Y-14073584D01*
X50267858Y-14083393D01*
X50293748Y-14088430D01*
X50320328Y-14088437D01*
X50345500Y-14083157D01*
X50367168Y-14072331D01*
X50368130Y-14071596D01*
X50376774Y-14062143D01*
X50386876Y-14047338D01*
X50396827Y-14029503D01*
X50399707Y-14023941D01*
X50408734Y-14008244D01*
X50417184Y-13995792D01*
X50423542Y-13988884D01*
X50426363Y-13987078D01*
X50442858Y-13982012D01*
X50459862Y-13984827D01*
X50475427Y-13995282D01*
X50480819Y-14000942D01*
X50485765Y-14008516D01*
X50487223Y-14017493D01*
X50486259Y-14031436D01*
X50481383Y-14055045D01*
X50468088Y-14083182D01*
X50446561Y-14109583D01*
X50426190Y-14127014D01*
X50399605Y-14141979D01*
X50367595Y-14152402D01*
X50359934Y-14154023D01*
X50333729Y-14157335D01*
X50304111Y-14158617D01*
X50274790Y-14157793D01*
X50249476Y-14154789D01*
X50245320Y-14153955D01*
X50213883Y-14143942D01*
X50184797Y-14128459D01*
X50159627Y-14108704D01*
X50139937Y-14085876D01*
X50127293Y-14061174D01*
X50122696Y-14040789D01*
X50120681Y-14015340D01*
X50121607Y-13989745D01*
X50125552Y-13968108D01*
X50126027Y-13966612D01*
X50135594Y-13947968D01*
X50151039Y-13928946D01*
X50170249Y-13911783D01*
X50191114Y-13898715D01*
X50191220Y-13898663D01*
X50204931Y-13892890D01*
X50224406Y-13885880D01*
X50247066Y-13878512D01*
X50270333Y-13871667D01*
X50271763Y-13871271D01*
X50294327Y-13864886D01*
X50315512Y-13858679D01*
X50332999Y-13853339D01*
X50344468Y-13849560D01*
X50362360Y-13841324D01*
X50378902Y-13828295D01*
X50388171Y-13813603D01*
X50390520Y-13798293D01*
X50386297Y-13783407D01*
X50375854Y-13769991D01*
X50359541Y-13759086D01*
X50337708Y-13751738D01*
X50310706Y-13748990D01*
X50286087Y-13750776D01*
X50264786Y-13757613D01*
X50247527Y-13770495D01*
X50232479Y-13790392D01*
X50229931Y-13794530D01*
X50218223Y-13812745D01*
X50209100Y-13824796D01*
X50201287Y-13831900D01*
X50193508Y-13835270D01*
X50184488Y-13836124D01*
X50167351Y-13833938D01*
X50153207Y-13825726D01*
X50143559Y-13810715D01*
X50140084Y-13797562D01*
X50141291Y-13776568D01*
X50149517Y-13755092D01*
X50164025Y-13734380D01*
X50184080Y-13715676D01*
X50208943Y-13700227D01*
X50226686Y-13692662D01*
X50260705Y-13683609D01*
X50296765Y-13679870D01*
X50333247Y-13681223D01*
G37*
G36*
X52701820Y-10249625D02*
G01*
X52701972Y-10300942D01*
X52702107Y-10357396D01*
X52702225Y-10419235D01*
X52702328Y-10486711D01*
X52702416Y-10560072D01*
X52702491Y-10639569D01*
X52702554Y-10725452D01*
X52702605Y-10817971D01*
X52702647Y-10917376D01*
X52702679Y-11023918D01*
X52702703Y-11137845D01*
X52702720Y-11259409D01*
X52702730Y-11388860D01*
X52702736Y-11526446D01*
X52702737Y-11581988D01*
X52702738Y-11672420D01*
X52702738Y-11732328D01*
X52702737Y-11874375D01*
X52702734Y-12008141D01*
X52702728Y-12133877D01*
X52702720Y-12222390D01*
X52702717Y-12251836D01*
X52702700Y-12362270D01*
X52702677Y-12465431D01*
X52702645Y-12561573D01*
X52702603Y-12650947D01*
X52702551Y-12733806D01*
X52702537Y-12751081D01*
X52702487Y-12810402D01*
X52702410Y-12880988D01*
X52702318Y-12945815D01*
X52702211Y-13005137D01*
X52702087Y-13059206D01*
X52701944Y-13108274D01*
X52701782Y-13152593D01*
X52701600Y-13192416D01*
X52701395Y-13227996D01*
X52701168Y-13259584D01*
X52700916Y-13287434D01*
X52700639Y-13311797D01*
X52700335Y-13332926D01*
X52700002Y-13351073D01*
X52699641Y-13366491D01*
X52699249Y-13379432D01*
X52698825Y-13390148D01*
X52698368Y-13398892D01*
X52697877Y-13405917D01*
X52697350Y-13411474D01*
X52696787Y-13415816D01*
X52696186Y-13419196D01*
X52695546Y-13421865D01*
X52694865Y-13424077D01*
X52694142Y-13426083D01*
X52689971Y-13435524D01*
X52674312Y-13458823D01*
X52653311Y-13479067D01*
X52629327Y-13493793D01*
X52628380Y-13494217D01*
X52626485Y-13494998D01*
X52624274Y-13495729D01*
X52621472Y-13496411D01*
X52617799Y-13497046D01*
X52612978Y-13497636D01*
X52606733Y-13498182D01*
X52598786Y-13498687D01*
X52588859Y-13499151D01*
X52576676Y-13499576D01*
X52561958Y-13499965D01*
X52544428Y-13500318D01*
X52523810Y-13500638D01*
X52499825Y-13500926D01*
X52472196Y-13501183D01*
X52440646Y-13501413D01*
X52404898Y-13501615D01*
X52364673Y-13501792D01*
X52319696Y-13501946D01*
X52269687Y-13502077D01*
X52214371Y-13502189D01*
X52153469Y-13502282D01*
X52086705Y-13502358D01*
X52013800Y-13502419D01*
X51934478Y-13502467D01*
X51848461Y-13502503D01*
X51755472Y-13502529D01*
X51655233Y-13502546D01*
X51547467Y-13502557D01*
X51431896Y-13502562D01*
X51308244Y-13502564D01*
X51176233Y-13502565D01*
X51106891Y-13502564D01*
X50979238Y-13502563D01*
X50859801Y-13502560D01*
X50748302Y-13502552D01*
X50644464Y-13502538D01*
X50548009Y-13502517D01*
X50458661Y-13502486D01*
X50376141Y-13502444D01*
X50300173Y-13502390D01*
X50230479Y-13502321D01*
X50166782Y-13502236D01*
X50108804Y-13502134D01*
X50056267Y-13502012D01*
X50008896Y-13501869D01*
X49966411Y-13501703D01*
X49928537Y-13501513D01*
X49894995Y-13501297D01*
X49865507Y-13501054D01*
X49839798Y-13500781D01*
X49817589Y-13500476D01*
X49798603Y-13500140D01*
X49782562Y-13499768D01*
X49769190Y-13499361D01*
X49758208Y-13498916D01*
X49749340Y-13498431D01*
X49742308Y-13497905D01*
X49736834Y-13497336D01*
X49732642Y-13496723D01*
X49729454Y-13496064D01*
X49726992Y-13495357D01*
X49724980Y-13494601D01*
X49723139Y-13493793D01*
X49713522Y-13488830D01*
X49690427Y-13471644D01*
X49671241Y-13449907D01*
X49658324Y-13426083D01*
X49658026Y-13425280D01*
X49657321Y-13423221D01*
X49656656Y-13420854D01*
X49656032Y-13417928D01*
X49655446Y-13414189D01*
X49654898Y-13409385D01*
X49654386Y-13403264D01*
X49653909Y-13395574D01*
X49653466Y-13386062D01*
X49653055Y-13374476D01*
X49652675Y-13360563D01*
X49652326Y-13344071D01*
X49652005Y-13324747D01*
X49651712Y-13302339D01*
X49651445Y-13276596D01*
X49651203Y-13247263D01*
X49650985Y-13214090D01*
X49650790Y-13176823D01*
X49650616Y-13135210D01*
X49650462Y-13088999D01*
X49650327Y-13037938D01*
X49650210Y-12981773D01*
X49650109Y-12920253D01*
X49650023Y-12853125D01*
X49649951Y-12780137D01*
X49649892Y-12701036D01*
X49649845Y-12615571D01*
X49649807Y-12523488D01*
X49649779Y-12424535D01*
X49649758Y-12318460D01*
X49649744Y-12205011D01*
X49649744Y-12202414D01*
X50107160Y-12202414D01*
X50107182Y-12276718D01*
X50107241Y-12350641D01*
X50107337Y-12423667D01*
X50107469Y-12495279D01*
X50107638Y-12564963D01*
X50107843Y-12632202D01*
X50108084Y-12696480D01*
X50108362Y-12757282D01*
X50108676Y-12814090D01*
X50109026Y-12866390D01*
X50109412Y-12913665D01*
X50109833Y-12955400D01*
X50110291Y-12991077D01*
X50110784Y-13020183D01*
X50111312Y-13042199D01*
X50111876Y-13056611D01*
X50112476Y-13062903D01*
X50114106Y-13067722D01*
X50126894Y-13090075D01*
X50146899Y-13109627D01*
X50173044Y-13125274D01*
X50200307Y-13137861D01*
X50550085Y-13138497D01*
X50571377Y-13138529D01*
X50625405Y-13138556D01*
X50677063Y-13138503D01*
X50725654Y-13138375D01*
X50770483Y-13138178D01*
X50810854Y-13137917D01*
X50846069Y-13137596D01*
X50875434Y-13137220D01*
X50898250Y-13136795D01*
X50913823Y-13136326D01*
X50921456Y-13135818D01*
X50951132Y-13128183D01*
X50978287Y-13114501D01*
X50999955Y-13095869D01*
X51014881Y-13073124D01*
X51015798Y-13070855D01*
X51016664Y-13067935D01*
X51017455Y-13064058D01*
X51018174Y-13058858D01*
X51018825Y-13051970D01*
X51019411Y-13043028D01*
X51019936Y-13031666D01*
X51020403Y-13017519D01*
X51020815Y-13000221D01*
X51021176Y-12979406D01*
X51021490Y-12954708D01*
X51021758Y-12925762D01*
X51021986Y-12892203D01*
X51022176Y-12853663D01*
X51022331Y-12809779D01*
X51022450Y-12762607D01*
X51360581Y-12762607D01*
X51366897Y-12790973D01*
X51380037Y-12817245D01*
X51399828Y-12840153D01*
X51426097Y-12858427D01*
X51448283Y-12870129D01*
X51811017Y-12871069D01*
X51853499Y-12871171D01*
X51914847Y-12871279D01*
X51968404Y-12871314D01*
X52014692Y-12871268D01*
X52054233Y-12871135D01*
X52087546Y-12870907D01*
X52115153Y-12870579D01*
X52137576Y-12870143D01*
X52155334Y-12869593D01*
X52168950Y-12868921D01*
X52178943Y-12868121D01*
X52185836Y-12867186D01*
X52190149Y-12866110D01*
X52216349Y-12853289D01*
X52240644Y-12833492D01*
X52259183Y-12809006D01*
X52271018Y-12781109D01*
X52275206Y-12751081D01*
X52275175Y-12748026D01*
X52270549Y-12717817D01*
X52257905Y-12690248D01*
X52237005Y-12664783D01*
X52235094Y-12662896D01*
X52229063Y-12656831D01*
X52223565Y-12651518D01*
X52218027Y-12646907D01*
X52211875Y-12642948D01*
X52204537Y-12639593D01*
X52195439Y-12636790D01*
X52184009Y-12634492D01*
X52169673Y-12632647D01*
X52151858Y-12631208D01*
X52129991Y-12630123D01*
X52103500Y-12629344D01*
X52071810Y-12628820D01*
X52034350Y-12628503D01*
X51990545Y-12628343D01*
X51939823Y-12628290D01*
X51881611Y-12628294D01*
X51815335Y-12628307D01*
X51749291Y-12628300D01*
X51691206Y-12628310D01*
X51640615Y-12628382D01*
X51596946Y-12628559D01*
X51559628Y-12628886D01*
X51528088Y-12629409D01*
X51501756Y-12630171D01*
X51480059Y-12631217D01*
X51462426Y-12632592D01*
X51448284Y-12634340D01*
X51437063Y-12636507D01*
X51428191Y-12639136D01*
X51421096Y-12642272D01*
X51415206Y-12645960D01*
X51409949Y-12650244D01*
X51404755Y-12655169D01*
X51399050Y-12660780D01*
X51384318Y-12677640D01*
X51369118Y-12704671D01*
X51361263Y-12733416D01*
X51360581Y-12762607D01*
X51022450Y-12762607D01*
X51022456Y-12760184D01*
X51022553Y-12704512D01*
X51022626Y-12642397D01*
X51022678Y-12573475D01*
X51022712Y-12497378D01*
X51022733Y-12413743D01*
X51022743Y-12322202D01*
X51022745Y-12222390D01*
X51022745Y-12206771D01*
X51022742Y-12108275D01*
X51022732Y-12017995D01*
X51022711Y-11935563D01*
X51022676Y-11860615D01*
X51022623Y-11792784D01*
X51022549Y-11731705D01*
X51022451Y-11677011D01*
X51022324Y-11628336D01*
X51022174Y-11587127D01*
X51329583Y-11587127D01*
X51334277Y-11616730D01*
X51346504Y-11644880D01*
X51366258Y-11670238D01*
X51371205Y-11675106D01*
X51381015Y-11683918D01*
X51390839Y-11690902D01*
X51401756Y-11696270D01*
X51414844Y-11700233D01*
X51431179Y-11703001D01*
X51451839Y-11704787D01*
X51477902Y-11705801D01*
X51510445Y-11706254D01*
X51550546Y-11706358D01*
X51666355Y-11706358D01*
X51666450Y-11828349D01*
X51666454Y-11832814D01*
X51666542Y-11868187D01*
X51666768Y-11896123D01*
X51667195Y-11917698D01*
X51667885Y-11933991D01*
X51668900Y-11946079D01*
X51670302Y-11955041D01*
X51672154Y-11961954D01*
X51674519Y-11967895D01*
X51686401Y-11988411D01*
X51707115Y-12011444D01*
X51731804Y-12028411D01*
X51736381Y-12030606D01*
X51765737Y-12039647D01*
X51796161Y-12041259D01*
X51825246Y-12035265D01*
X51830205Y-12033411D01*
X51856649Y-12019543D01*
X51877401Y-12000338D01*
X51894144Y-11974306D01*
X51908178Y-11946841D01*
X51908178Y-11826843D01*
X51908178Y-11706845D01*
X52032328Y-11705522D01*
X52062232Y-11705186D01*
X52092183Y-11704760D01*
X52115435Y-11704244D01*
X52133061Y-11703556D01*
X52146129Y-11702616D01*
X52155712Y-11701341D01*
X52162880Y-11699649D01*
X52168704Y-11697459D01*
X52174254Y-11694690D01*
X52186637Y-11687322D01*
X52211885Y-11666127D01*
X52230177Y-11640884D01*
X52241095Y-11612526D01*
X52244221Y-11581988D01*
X52239135Y-11550201D01*
X52234045Y-11536797D01*
X52219616Y-11512970D01*
X52200364Y-11491830D01*
X52178623Y-11476231D01*
X52174203Y-11473988D01*
X52168450Y-11471672D01*
X52161520Y-11469855D01*
X52152349Y-11468449D01*
X52139870Y-11467367D01*
X52123018Y-11466521D01*
X52100727Y-11465826D01*
X52071932Y-11465193D01*
X52035567Y-11464536D01*
X51910337Y-11462377D01*
X51908178Y-11339306D01*
X51907751Y-11315882D01*
X51906962Y-11281455D01*
X51905933Y-11253965D01*
X51904456Y-11232331D01*
X51902322Y-11215476D01*
X51899322Y-11202321D01*
X51895249Y-11191788D01*
X51889893Y-11182797D01*
X51883047Y-11174271D01*
X51874501Y-11165131D01*
X51868615Y-11159315D01*
X51846901Y-11142963D01*
X51822654Y-11133120D01*
X51793387Y-11128667D01*
X51788829Y-11128395D01*
X51770763Y-11128266D01*
X51756641Y-11130482D01*
X51742719Y-11135552D01*
X51742594Y-11135608D01*
X51716301Y-11149891D01*
X51696488Y-11167165D01*
X51681086Y-11189228D01*
X51668515Y-11211918D01*
X51666355Y-11337147D01*
X51664196Y-11462377D01*
X51538967Y-11464536D01*
X51511891Y-11465023D01*
X51478136Y-11465797D01*
X51451239Y-11466813D01*
X51430135Y-11468274D01*
X51413760Y-11470385D01*
X51401052Y-11473351D01*
X51390945Y-11477375D01*
X51382378Y-11482662D01*
X51374285Y-11489417D01*
X51365603Y-11497844D01*
X51360743Y-11502975D01*
X51342811Y-11528911D01*
X51332425Y-11557408D01*
X51329583Y-11587127D01*
X51022174Y-11587127D01*
X51022167Y-11585315D01*
X51021974Y-11547581D01*
X51021743Y-11514769D01*
X51021471Y-11486513D01*
X51021153Y-11462446D01*
X51020786Y-11442203D01*
X51020368Y-11425417D01*
X51019894Y-11411724D01*
X51019361Y-11400755D01*
X51018765Y-11392147D01*
X51018104Y-11385533D01*
X51017373Y-11380546D01*
X51016570Y-11376821D01*
X51015690Y-11373992D01*
X51014731Y-11371693D01*
X51003133Y-11353019D01*
X50982350Y-11332750D01*
X50956002Y-11317163D01*
X50954731Y-11316603D01*
X50944353Y-11312695D01*
X50932913Y-11309906D01*
X50918520Y-11307973D01*
X50899277Y-11306631D01*
X50873293Y-11305615D01*
X50812175Y-11303698D01*
X50810560Y-11229739D01*
X50809901Y-11204151D01*
X50808988Y-11182357D01*
X50807721Y-11166242D01*
X50805923Y-11154243D01*
X50803418Y-11144799D01*
X50800030Y-11136348D01*
X50799314Y-11134806D01*
X50784804Y-11110254D01*
X50766247Y-11091472D01*
X50741385Y-11076143D01*
X50714959Y-11062938D01*
X50565589Y-11062980D01*
X50561388Y-11062981D01*
X50522307Y-11063008D01*
X50490793Y-11063102D01*
X50465873Y-11063320D01*
X50446572Y-11063723D01*
X50431916Y-11064368D01*
X50420929Y-11065315D01*
X50412637Y-11066620D01*
X50406066Y-11068344D01*
X50400241Y-11070545D01*
X50394187Y-11073281D01*
X50373074Y-11085652D01*
X50350308Y-11106178D01*
X50333899Y-11130288D01*
X50333596Y-11130907D01*
X50330584Y-11138257D01*
X50328346Y-11147055D01*
X50326734Y-11158739D01*
X50325603Y-11174745D01*
X50324805Y-11196513D01*
X50324194Y-11225479D01*
X50322853Y-11303813D01*
X50261580Y-11305843D01*
X50235884Y-11306981D01*
X50211336Y-11308984D01*
X50192806Y-11311826D01*
X50178867Y-11315675D01*
X50170682Y-11319225D01*
X50151665Y-11331279D01*
X50134082Y-11347025D01*
X50120169Y-11364276D01*
X50112165Y-11380845D01*
X50111887Y-11382761D01*
X50111307Y-11392990D01*
X50110766Y-11411093D01*
X50110263Y-11436555D01*
X50109798Y-11468860D01*
X50109372Y-11507491D01*
X50108983Y-11551932D01*
X50108632Y-11601668D01*
X50108319Y-11656183D01*
X50108043Y-11714960D01*
X50107805Y-11777484D01*
X50107604Y-11843239D01*
X50107441Y-11911708D01*
X50107315Y-11982376D01*
X50107227Y-12054728D01*
X50107175Y-12128245D01*
X50107160Y-12202414D01*
X49649744Y-12202414D01*
X49649736Y-12083934D01*
X49649731Y-11954979D01*
X49649729Y-11817891D01*
X49649728Y-11672420D01*
X49649728Y-11656584D01*
X49649731Y-11511509D01*
X49649737Y-11374794D01*
X49649748Y-11246189D01*
X49649766Y-11125445D01*
X49649790Y-11012310D01*
X49649823Y-10906534D01*
X49649866Y-10807869D01*
X49649918Y-10716063D01*
X49649982Y-10630867D01*
X49650059Y-10552030D01*
X49650149Y-10479303D01*
X49650253Y-10412436D01*
X49650373Y-10351178D01*
X49650509Y-10295279D01*
X49650663Y-10244489D01*
X49650673Y-10241758D01*
X49956017Y-10241758D01*
X49957251Y-10456947D01*
X49957271Y-10460524D01*
X49957556Y-10508603D01*
X49957833Y-10548865D01*
X49958140Y-10582074D01*
X49958510Y-10608996D01*
X49958979Y-10630398D01*
X49959584Y-10647044D01*
X49960358Y-10659702D01*
X49961338Y-10669137D01*
X49962558Y-10676114D01*
X49964055Y-10681400D01*
X49965864Y-10685761D01*
X49968020Y-10689962D01*
X49977888Y-10704670D01*
X49995778Y-10723430D01*
X50016548Y-10739240D01*
X50037221Y-10749540D01*
X50039725Y-10750214D01*
X50043557Y-10750876D01*
X50048912Y-10751488D01*
X50056099Y-10752053D01*
X50065428Y-10752572D01*
X50077208Y-10753047D01*
X50091749Y-10753479D01*
X50109360Y-10753871D01*
X50130349Y-10754223D01*
X50155027Y-10754539D01*
X50183702Y-10754819D01*
X50216684Y-10755065D01*
X50254282Y-10755280D01*
X50296805Y-10755464D01*
X50344563Y-10755620D01*
X50397865Y-10755749D01*
X50457020Y-10755853D01*
X50522337Y-10755934D01*
X50594126Y-10755994D01*
X50672695Y-10756034D01*
X50758355Y-10756056D01*
X50851415Y-10756062D01*
X50952183Y-10756054D01*
X51060969Y-10756033D01*
X51178082Y-10756001D01*
X51184236Y-10755999D01*
X51301520Y-10755958D01*
X51410487Y-10755910D01*
X51511439Y-10755852D01*
X51604679Y-10755783D01*
X51690511Y-10755700D01*
X51769237Y-10755603D01*
X51841162Y-10755490D01*
X51906588Y-10755357D01*
X51965819Y-10755205D01*
X52019158Y-10755030D01*
X52066907Y-10754832D01*
X52109371Y-10754608D01*
X52146852Y-10754357D01*
X52179654Y-10754076D01*
X52208079Y-10753765D01*
X52232432Y-10753420D01*
X52253015Y-10753041D01*
X52270131Y-10752626D01*
X52284084Y-10752173D01*
X52295177Y-10751679D01*
X52303713Y-10751144D01*
X52309996Y-10750565D01*
X52314328Y-10749941D01*
X52317012Y-10749270D01*
X52334240Y-10740613D01*
X52353938Y-10725878D01*
X52371641Y-10708144D01*
X52384447Y-10689962D01*
X52384605Y-10689665D01*
X52386736Y-10685478D01*
X52388522Y-10681078D01*
X52389999Y-10675701D01*
X52391202Y-10668581D01*
X52392167Y-10658951D01*
X52392929Y-10646046D01*
X52393523Y-10629100D01*
X52393984Y-10607347D01*
X52394349Y-10580021D01*
X52394652Y-10546356D01*
X52394929Y-10505587D01*
X52395216Y-10456947D01*
X52396449Y-10241758D01*
X52386176Y-10219442D01*
X52374628Y-10199206D01*
X52352872Y-10175501D01*
X52324890Y-10157776D01*
X52303299Y-10147551D01*
X51176233Y-10147551D01*
X50049167Y-10147551D01*
X50027486Y-10157648D01*
X50006911Y-10169570D01*
X49983521Y-10191446D01*
X49966245Y-10219416D01*
X49956017Y-10241758D01*
X49650673Y-10241758D01*
X49650835Y-10198559D01*
X49651028Y-10157238D01*
X49651240Y-10120276D01*
X49651475Y-10087423D01*
X49651732Y-10058429D01*
X49652013Y-10033044D01*
X49652319Y-10011018D01*
X49652650Y-9992101D01*
X49653009Y-9976042D01*
X49653395Y-9962593D01*
X49653810Y-9951502D01*
X49654255Y-9942519D01*
X49654732Y-9935395D01*
X49655240Y-9929880D01*
X49655781Y-9925723D01*
X49656357Y-9922675D01*
X49656967Y-9920485D01*
X49658272Y-9916979D01*
X49670245Y-9895817D01*
X49687735Y-9875631D01*
X49708261Y-9858901D01*
X49729343Y-9848109D01*
X49729524Y-9848048D01*
X49731970Y-9847381D01*
X49735319Y-9846757D01*
X49739847Y-9846173D01*
X49745829Y-9845629D01*
X49753544Y-9845123D01*
X49763266Y-9844654D01*
X49775271Y-9844221D01*
X49789837Y-9843822D01*
X49807239Y-9843455D01*
X49827753Y-9843120D01*
X49851656Y-9842815D01*
X49879223Y-9842538D01*
X49910732Y-9842289D01*
X49946458Y-9842065D01*
X49986677Y-9841866D01*
X50031666Y-9841690D01*
X50081701Y-9841536D01*
X50137058Y-9841402D01*
X50198013Y-9841286D01*
X50264842Y-9841189D01*
X50337823Y-9841107D01*
X50417230Y-9841040D01*
X50503340Y-9840987D01*
X50596429Y-9840946D01*
X50696774Y-9840915D01*
X50804651Y-9840893D01*
X50920335Y-9840880D01*
X51044104Y-9840873D01*
X51176233Y-9840871D01*
X51188216Y-9840871D01*
X51319597Y-9840873D01*
X51442642Y-9840881D01*
X51557628Y-9840895D01*
X51664830Y-9840917D01*
X51764525Y-9840949D01*
X51856988Y-9840991D01*
X51942497Y-9841046D01*
X52021327Y-9841114D01*
X52093754Y-9841197D01*
X52160055Y-9841296D01*
X52220506Y-9841413D01*
X52275383Y-9841549D01*
X52324962Y-9841705D01*
X52369520Y-9841883D01*
X52409332Y-9842084D01*
X52444675Y-9842310D01*
X52475826Y-9842562D01*
X52503059Y-9842841D01*
X52526652Y-9843148D01*
X52546881Y-9843486D01*
X52564022Y-9843856D01*
X52578351Y-9844258D01*
X52590145Y-9844694D01*
X52599679Y-9845166D01*
X52607229Y-9845675D01*
X52613073Y-9846223D01*
X52617486Y-9846810D01*
X52620744Y-9847438D01*
X52623124Y-9848109D01*
X52626629Y-9849414D01*
X52647791Y-9861387D01*
X52667977Y-9878877D01*
X52684707Y-9899403D01*
X52695499Y-9920485D01*
X52695565Y-9920683D01*
X52696172Y-9922952D01*
X52696744Y-9926106D01*
X52697281Y-9930395D01*
X52697786Y-9936068D01*
X52698259Y-9943377D01*
X52698701Y-9952570D01*
X52699113Y-9963899D01*
X52699497Y-9977612D01*
X52699852Y-9993961D01*
X52700181Y-10013195D01*
X52700484Y-10035565D01*
X52700762Y-10061319D01*
X52701017Y-10090709D01*
X52701249Y-10123985D01*
X52701460Y-10161396D01*
X52701650Y-10203192D01*
X52701791Y-10241758D01*
X52701820Y-10249625D01*
G37*
%TO.C,J2*%
X12800000Y-25300000D02*
X28200000Y-25300000D01*
X28200000Y-25300000D02*
X28200000Y-33700000D01*
X28200000Y-33700000D02*
X12800000Y-33700000D01*
X12800000Y-33700000D02*
X12800000Y-25300000D01*
%TD*%
M02*
