%TF.GenerationSoftware,KiCad,Pcbnew,8.0.5*%
%TF.CreationDate,2024-10-15T13:19:13+11:00*%
%TF.ProjectId,cphp82001-pcb,63706870-3832-4303-9031-2d7063622e6b,4.0*%
%TF.SameCoordinates,Original*%
%TF.FileFunction,Copper,L2,Bot*%
%TF.FilePolarity,Positive*%
%FSLAX46Y46*%
G04 Gerber Fmt 4.6, Leading zero omitted, Abs format (unit mm)*
G04 Created by KiCad (PCBNEW 8.0.5) date 2024-10-15 13:19:13*
%MOMM*%
%LPD*%
G01*
G04 APERTURE LIST*
G04 Aperture macros list*
%AMRoundRect*
0 Rectangle with rounded corners*
0 $1 Rounding radius*
0 $2 $3 $4 $5 $6 $7 $8 $9 X,Y pos of 4 corners*
0 Add a 4 corners polygon primitive as box body*
4,1,4,$2,$3,$4,$5,$6,$7,$8,$9,$2,$3,0*
0 Add four circle primitives for the rounded corners*
1,1,$1+$1,$2,$3*
1,1,$1+$1,$4,$5*
1,1,$1+$1,$6,$7*
1,1,$1+$1,$8,$9*
0 Add four rect primitives between the rounded corners*
20,1,$1+$1,$2,$3,$4,$5,0*
20,1,$1+$1,$4,$5,$6,$7,0*
20,1,$1+$1,$6,$7,$8,$9,0*
20,1,$1+$1,$8,$9,$2,$3,0*%
G04 Aperture macros list end*
%TA.AperFunction,ComponentPad*%
%ADD10O,0.800000X1.600000*%
%TD*%
%TA.AperFunction,ComponentPad*%
%ADD11O,1.550000X0.750000*%
%TD*%
%TA.AperFunction,SMDPad,CuDef*%
%ADD12RoundRect,0.800000X-6.700000X3.200000X-6.700000X-3.200000X6.700000X-3.200000X6.700000X3.200000X0*%
%TD*%
%TA.AperFunction,ViaPad*%
%ADD13C,0.800000*%
%TD*%
%TA.AperFunction,ViaPad*%
%ADD14C,1.200000*%
%TD*%
%TA.AperFunction,Conductor*%
%ADD15C,0.250000*%
%TD*%
%TA.AperFunction,Conductor*%
%ADD16C,0.800000*%
%TD*%
G04 APERTURE END LIST*
D10*
%TO.P,J1,S1,SHIELD*%
%TO.N,/GND*%
X5400000Y-2650000D03*
%TO.P,J1,S2,SHIELD__1*%
X5400000Y-7650000D03*
D11*
%TO.P,J1,S3,SHIELD__2*%
X2700000Y-1625000D03*
%TO.P,J1,S6,SHIELD__5*%
X2700000Y-8675000D03*
%TD*%
D12*
%TO.P,J3,1,Pin_1*%
%TO.N,/GND*%
X20500000Y-14500000D03*
%TD*%
%TO.P,J2,1,Pin_1*%
%TO.N,/VOUTF*%
X20500000Y-29500000D03*
%TD*%
D13*
%TO.N,/GND*%
X37700000Y-9000000D03*
X47000000Y-1400000D03*
X28500000Y-7600000D03*
X11000000Y-5200000D03*
X7250000Y-2250000D03*
%TO.N,/PROG2*%
X24600000Y-6400000D03*
X15100000Y-6100000D03*
%TO.N,/CHG*%
X21800000Y-9600000D03*
X11100000Y-9600000D03*
%TO.N,/GND*%
X5000000Y-32500000D03*
X5000000Y-22000000D03*
X18700000Y-6150000D03*
X50100000Y-6900000D03*
X20050000Y-6150000D03*
X2500000Y-42000000D03*
X5000000Y-13500000D03*
X20300000Y-3550000D03*
X51000000Y-15000000D03*
X9550000Y-9600000D03*
X51000000Y-42000000D03*
X21400000Y-2900000D03*
X36000000Y-40500000D03*
X20000000Y-40500000D03*
X50150000Y-2550000D03*
X51000000Y-22000000D03*
X51000000Y-30000000D03*
X47400000Y-9400000D03*
X21400000Y-6150000D03*
D14*
%TO.N,/VOUTF*%
X30000000Y-10200000D03*
%TD*%
D15*
%TO.N,/PROG2*%
X22700000Y-8300000D02*
X24600000Y-6400000D01*
X17300000Y-8300000D02*
X22700000Y-8300000D01*
X15100000Y-6100000D02*
X17300000Y-8300000D01*
%TO.N,/CHG*%
X21800000Y-9600000D02*
X11100000Y-9600000D01*
D16*
%TO.N,/GND*%
X12000000Y-14500000D02*
X20500000Y-14500000D01*
X20500000Y-14500000D02*
X20500000Y-19500000D01*
%TO.N,/VOUTF*%
X20500000Y-29500000D02*
X28900000Y-29500000D01*
X30000000Y-28400000D02*
X30000000Y-10200000D01*
X28900000Y-29500000D02*
X29100000Y-29300000D01*
X29100000Y-29300000D02*
X30000000Y-28400000D01*
%TD*%
%TA.AperFunction,Conductor*%
%TO.N,/GND*%
G36*
X12300952Y-501061D02*
G01*
X12406116Y-514906D01*
X12437383Y-523284D01*
X12527808Y-560739D01*
X12555842Y-576924D01*
X12640003Y-641503D01*
X12652198Y-652198D01*
X13353547Y-1353548D01*
X13353554Y-1353554D01*
X13500000Y-1500000D01*
X43292886Y-1500000D01*
X43292893Y-1500000D01*
X43500000Y-1500000D01*
X44347809Y-652190D01*
X44359996Y-641503D01*
X44444157Y-576924D01*
X44472191Y-560739D01*
X44562616Y-523284D01*
X44593882Y-514906D01*
X44699048Y-501061D01*
X44715233Y-500000D01*
X54991874Y-500000D01*
X55008059Y-501061D01*
X55113223Y-514906D01*
X55144491Y-523284D01*
X55234918Y-560740D01*
X55262952Y-576925D01*
X55340602Y-636509D01*
X55363491Y-659398D01*
X55423074Y-737048D01*
X55439259Y-765081D01*
X55476715Y-855508D01*
X55485093Y-886775D01*
X55498939Y-991939D01*
X55500000Y-1008125D01*
X55500000Y-9284767D01*
X55498939Y-9300953D01*
X55485093Y-9406117D01*
X55476715Y-9437383D01*
X55439260Y-9527808D01*
X55423075Y-9555842D01*
X55358496Y-9640003D01*
X55347801Y-9652198D01*
X54646451Y-10353547D01*
X54646445Y-10353554D01*
X54646441Y-10353558D01*
X54500000Y-10500000D01*
X54500000Y-34500000D01*
X54646445Y-34646445D01*
X54646451Y-34646452D01*
X55347801Y-35347801D01*
X55358496Y-35359996D01*
X55423075Y-35444157D01*
X55439260Y-35472191D01*
X55476715Y-35562616D01*
X55485093Y-35593882D01*
X55498939Y-35699046D01*
X55500000Y-35715232D01*
X55500000Y-42991874D01*
X55498939Y-43008060D01*
X55485093Y-43113224D01*
X55476715Y-43144491D01*
X55439259Y-43234918D01*
X55423074Y-43262951D01*
X55363491Y-43340601D01*
X55340601Y-43363491D01*
X55262951Y-43423074D01*
X55234918Y-43439259D01*
X55144491Y-43476715D01*
X55113224Y-43485093D01*
X55019398Y-43497446D01*
X55008058Y-43498939D01*
X54991874Y-43500000D01*
X44715233Y-43500000D01*
X44699048Y-43498939D01*
X44686024Y-43497224D01*
X44593882Y-43485093D01*
X44562616Y-43476715D01*
X44472191Y-43439260D01*
X44444157Y-43423075D01*
X44359996Y-43358496D01*
X44347801Y-43347801D01*
X43646452Y-42646451D01*
X43646445Y-42646445D01*
X43500000Y-42500000D01*
X43292893Y-42500000D01*
X43292886Y-42500000D01*
X13707114Y-42500000D01*
X13707107Y-42500000D01*
X13500000Y-42500000D01*
X13353558Y-42646441D01*
X13353554Y-42646445D01*
X13353547Y-42646451D01*
X12652198Y-43347801D01*
X12640003Y-43358496D01*
X12555842Y-43423075D01*
X12527808Y-43439260D01*
X12437383Y-43476715D01*
X12406117Y-43485093D01*
X12312291Y-43497446D01*
X12300951Y-43498939D01*
X12284767Y-43500000D01*
X1008126Y-43500000D01*
X991941Y-43498939D01*
X978917Y-43497224D01*
X886775Y-43485093D01*
X855508Y-43476715D01*
X765081Y-43439259D01*
X737048Y-43423074D01*
X659398Y-43363491D01*
X636508Y-43340601D01*
X576925Y-43262951D01*
X560740Y-43234918D01*
X523284Y-43144491D01*
X514906Y-43113223D01*
X501061Y-43008059D01*
X500000Y-42991874D01*
X500000Y-35715232D01*
X501061Y-35699047D01*
X514906Y-35593883D01*
X523284Y-35562616D01*
X560739Y-35472191D01*
X576924Y-35444157D01*
X641503Y-35359996D01*
X652190Y-35347809D01*
X1353553Y-34646447D01*
X1500000Y-34500000D01*
X1500000Y-26243214D01*
X12499500Y-26243214D01*
X12499500Y-32756785D01*
X12514364Y-32926687D01*
X12514366Y-32926697D01*
X12573258Y-33146488D01*
X12573261Y-33146497D01*
X12669431Y-33352732D01*
X12669432Y-33352734D01*
X12799954Y-33539141D01*
X12960858Y-33700045D01*
X12960861Y-33700047D01*
X13147266Y-33830568D01*
X13353504Y-33926739D01*
X13573308Y-33985635D01*
X13743214Y-34000499D01*
X13743215Y-34000500D01*
X13743216Y-34000500D01*
X27256785Y-34000500D01*
X27256785Y-34000499D01*
X27426692Y-33985635D01*
X27646496Y-33926739D01*
X27852734Y-33830568D01*
X28039139Y-33700047D01*
X28200047Y-33539139D01*
X28330568Y-33352734D01*
X28426739Y-33146496D01*
X28485635Y-32926692D01*
X28500500Y-32756784D01*
X28500500Y-30224500D01*
X28520185Y-30157461D01*
X28572989Y-30111706D01*
X28624500Y-30100500D01*
X28813331Y-30100500D01*
X28813347Y-30100501D01*
X28820943Y-30100501D01*
X28979054Y-30100501D01*
X28979057Y-30100501D01*
X29131785Y-30059577D01*
X29181904Y-30030639D01*
X29268716Y-29980520D01*
X29380520Y-29868716D01*
X29380520Y-29868714D01*
X29580520Y-29668716D01*
X29580520Y-29668714D01*
X29590725Y-29658510D01*
X29590729Y-29658505D01*
X30368713Y-28880521D01*
X30368716Y-28880520D01*
X30480520Y-28768716D01*
X30530639Y-28681904D01*
X30559577Y-28631785D01*
X30600500Y-28479058D01*
X30600500Y-28320943D01*
X30600500Y-18124000D01*
X30620185Y-18056961D01*
X30672989Y-18011206D01*
X30724500Y-18000000D01*
X40000000Y-18000000D01*
X40500000Y-17500000D01*
X40500000Y-11500000D01*
X40000000Y-11000000D01*
X30724500Y-11000000D01*
X30657461Y-10980315D01*
X30611706Y-10927511D01*
X30600500Y-10876000D01*
X30600500Y-10782412D01*
X30620185Y-10715373D01*
X30627555Y-10705097D01*
X30629810Y-10702267D01*
X30629816Y-10702262D01*
X30725789Y-10549522D01*
X30785368Y-10379255D01*
X30786799Y-10366557D01*
X30805565Y-10200003D01*
X30805565Y-10199996D01*
X30785369Y-10020750D01*
X30785368Y-10020745D01*
X30758928Y-9945185D01*
X30725789Y-9850478D01*
X30629816Y-9697738D01*
X30502262Y-9570184D01*
X30434821Y-9527808D01*
X30349523Y-9474211D01*
X30179254Y-9414631D01*
X30179249Y-9414630D01*
X30000004Y-9394435D01*
X29999996Y-9394435D01*
X29820750Y-9414630D01*
X29820745Y-9414631D01*
X29650476Y-9474211D01*
X29497737Y-9570184D01*
X29370184Y-9697737D01*
X29274211Y-9850476D01*
X29214631Y-10020745D01*
X29214630Y-10020750D01*
X29194435Y-10199996D01*
X29194435Y-10200003D01*
X29214630Y-10379249D01*
X29214631Y-10379254D01*
X29274211Y-10549523D01*
X29370185Y-10702263D01*
X29372445Y-10705097D01*
X29373334Y-10707275D01*
X29373889Y-10708158D01*
X29373734Y-10708255D01*
X29398855Y-10769783D01*
X29399500Y-10782412D01*
X29399500Y-28099902D01*
X29379815Y-28166941D01*
X29363181Y-28187583D01*
X28712181Y-28838583D01*
X28650858Y-28872068D01*
X28581166Y-28867084D01*
X28525233Y-28825212D01*
X28500816Y-28759748D01*
X28500500Y-28750902D01*
X28500500Y-26243215D01*
X28500499Y-26243214D01*
X28485635Y-26073308D01*
X28426739Y-25853504D01*
X28330568Y-25647266D01*
X28200047Y-25460861D01*
X28200045Y-25460858D01*
X28039141Y-25299954D01*
X27852734Y-25169432D01*
X27852732Y-25169431D01*
X27646497Y-25073261D01*
X27646488Y-25073258D01*
X27426697Y-25014366D01*
X27426687Y-25014364D01*
X27256785Y-24999500D01*
X27256784Y-24999500D01*
X13743216Y-24999500D01*
X13743215Y-24999500D01*
X13573312Y-25014364D01*
X13573302Y-25014366D01*
X13353511Y-25073258D01*
X13353502Y-25073261D01*
X13147267Y-25169431D01*
X13147265Y-25169432D01*
X12960858Y-25299954D01*
X12799954Y-25460858D01*
X12669432Y-25647265D01*
X12669431Y-25647267D01*
X12573261Y-25853502D01*
X12573258Y-25853511D01*
X12514366Y-26073302D01*
X12514364Y-26073312D01*
X12499500Y-26243214D01*
X1500000Y-26243214D01*
X1500000Y-10500000D01*
X1500000Y-9599998D01*
X10494318Y-9599998D01*
X10494318Y-9600001D01*
X10514955Y-9756760D01*
X10514956Y-9756762D01*
X10553774Y-9850478D01*
X10575464Y-9902841D01*
X10671718Y-10028282D01*
X10797159Y-10124536D01*
X10943238Y-10185044D01*
X11021619Y-10195363D01*
X11099999Y-10205682D01*
X11100000Y-10205682D01*
X11100001Y-10205682D01*
X11152254Y-10198802D01*
X11256762Y-10185044D01*
X11402841Y-10124536D01*
X11528282Y-10028282D01*
X11569923Y-9974013D01*
X11626351Y-9932811D01*
X11668299Y-9925500D01*
X21231701Y-9925500D01*
X21298740Y-9945185D01*
X21330076Y-9974013D01*
X21371718Y-10028282D01*
X21436022Y-10077624D01*
X21477225Y-10134052D01*
X21481380Y-10203798D01*
X21447168Y-10264718D01*
X21385450Y-10297471D01*
X21360536Y-10300000D01*
X13741999Y-10300000D01*
X13622674Y-10310608D01*
X13622671Y-10310609D01*
X13427138Y-10366557D01*
X13246870Y-10460721D01*
X13089246Y-10589246D01*
X12960721Y-10746870D01*
X12866557Y-10927138D01*
X12810609Y-11122671D01*
X12810608Y-11122674D01*
X12800000Y-11241999D01*
X12800000Y-17758000D01*
X12810608Y-17877325D01*
X12810609Y-17877328D01*
X12866557Y-18072861D01*
X12960721Y-18253129D01*
X13089246Y-18410753D01*
X13246870Y-18539278D01*
X13427138Y-18633442D01*
X13622671Y-18689390D01*
X13622674Y-18689391D01*
X13741999Y-18699999D01*
X13742002Y-18700000D01*
X27257998Y-18700000D01*
X27258000Y-18699999D01*
X27377325Y-18689391D01*
X27377328Y-18689390D01*
X27572861Y-18633442D01*
X27753129Y-18539278D01*
X27910753Y-18410753D01*
X28039278Y-18253129D01*
X28133442Y-18072861D01*
X28189390Y-17877328D01*
X28189391Y-17877325D01*
X28199999Y-17758000D01*
X28200000Y-17757998D01*
X28200000Y-11242002D01*
X28199999Y-11241999D01*
X28189391Y-11122674D01*
X28189390Y-11122671D01*
X28133442Y-10927138D01*
X28039278Y-10746870D01*
X27910753Y-10589246D01*
X27753129Y-10460721D01*
X27572861Y-10366557D01*
X27377328Y-10310609D01*
X27377325Y-10310608D01*
X27258000Y-10300000D01*
X22239464Y-10300000D01*
X22172425Y-10280315D01*
X22126670Y-10227511D01*
X22116726Y-10158353D01*
X22145751Y-10094797D01*
X22163978Y-10077624D01*
X22228282Y-10028282D01*
X22324536Y-9902841D01*
X22385044Y-9756762D01*
X22405682Y-9600000D01*
X22385044Y-9443238D01*
X22324536Y-9297159D01*
X22228282Y-9171718D01*
X22102841Y-9075464D01*
X21956762Y-9014956D01*
X21956760Y-9014955D01*
X21800001Y-8994318D01*
X21799999Y-8994318D01*
X21643239Y-9014955D01*
X21643237Y-9014956D01*
X21497160Y-9075463D01*
X21371716Y-9171719D01*
X21330077Y-9225986D01*
X21273649Y-9267189D01*
X21231701Y-9274500D01*
X11668299Y-9274500D01*
X11601260Y-9254815D01*
X11569923Y-9225986D01*
X11528283Y-9171719D01*
X11480576Y-9135112D01*
X11402841Y-9075464D01*
X11256762Y-9014956D01*
X11256760Y-9014955D01*
X11100001Y-8994318D01*
X11099999Y-8994318D01*
X10943239Y-9014955D01*
X10943237Y-9014956D01*
X10797160Y-9075463D01*
X10671718Y-9171718D01*
X10575463Y-9297160D01*
X10514956Y-9443237D01*
X10514955Y-9443239D01*
X10494318Y-9599998D01*
X1500000Y-9599998D01*
X1500000Y-8852861D01*
X1519685Y-8785822D01*
X1572489Y-8740067D01*
X1641647Y-8730123D01*
X1705203Y-8759148D01*
X1742977Y-8817926D01*
X1743775Y-8820768D01*
X1764185Y-8896941D01*
X1764186Y-8896944D01*
X1839883Y-9028054D01*
X1839887Y-9028060D01*
X1946939Y-9135112D01*
X1946945Y-9135116D01*
X2078055Y-9210813D01*
X2078058Y-9210814D01*
X2224300Y-9249999D01*
X2224302Y-9250000D01*
X3175698Y-9250000D01*
X3175699Y-9249999D01*
X3321941Y-9210814D01*
X3321944Y-9210813D01*
X3453054Y-9135116D01*
X3453060Y-9135112D01*
X3560112Y-9028060D01*
X3560116Y-9028054D01*
X3635813Y-8896944D01*
X3635814Y-8896941D01*
X3674999Y-8750699D01*
X3675000Y-8750698D01*
X3675000Y-8599302D01*
X3674999Y-8599300D01*
X3635814Y-8453058D01*
X3635813Y-8453055D01*
X3560116Y-8321945D01*
X3560112Y-8321939D01*
X3453060Y-8214887D01*
X3453054Y-8214883D01*
X3321944Y-8139186D01*
X3321941Y-8139185D01*
X3175699Y-8100000D01*
X2224300Y-8100000D01*
X2078058Y-8139185D01*
X2078055Y-8139186D01*
X1946945Y-8214883D01*
X1946939Y-8214887D01*
X1839887Y-8321939D01*
X1839883Y-8321945D01*
X1764186Y-8453055D01*
X1764185Y-8453058D01*
X1743775Y-8529231D01*
X1707410Y-8588892D01*
X1644563Y-8619421D01*
X1575188Y-8611126D01*
X1521310Y-8566641D01*
X1500035Y-8500089D01*
X1500000Y-8497138D01*
X1500000Y-7171009D01*
X4800000Y-7171009D01*
X4800000Y-8128990D01*
X4840889Y-8281591D01*
X4919881Y-8418407D01*
X4919883Y-8418410D01*
X5031589Y-8530116D01*
X5031592Y-8530118D01*
X5168408Y-8609110D01*
X5321009Y-8649999D01*
X5321011Y-8650000D01*
X5478989Y-8650000D01*
X5478990Y-8649999D01*
X5631591Y-8609110D01*
X5768407Y-8530118D01*
X5768410Y-8530116D01*
X5880116Y-8418410D01*
X5880118Y-8418407D01*
X5959110Y-8281591D01*
X5999999Y-8128990D01*
X6000000Y-8128989D01*
X6000000Y-7171011D01*
X5999999Y-7171009D01*
X5959110Y-7018408D01*
X5880118Y-6881592D01*
X5880116Y-6881589D01*
X5768410Y-6769883D01*
X5768407Y-6769881D01*
X5631591Y-6690889D01*
X5478990Y-6650000D01*
X5321009Y-6650000D01*
X5168408Y-6690889D01*
X5031592Y-6769881D01*
X5031589Y-6769883D01*
X4919883Y-6881589D01*
X4919881Y-6881592D01*
X4840889Y-7018408D01*
X4800000Y-7171009D01*
X1500000Y-7171009D01*
X1500000Y-6099998D01*
X14494318Y-6099998D01*
X14494318Y-6100001D01*
X14514955Y-6256760D01*
X14514956Y-6256762D01*
X14574287Y-6400001D01*
X14575464Y-6402841D01*
X14671718Y-6528282D01*
X14797159Y-6624536D01*
X14943238Y-6685044D01*
X15021619Y-6695363D01*
X15099999Y-6705682D01*
X15100000Y-6705682D01*
X15100001Y-6705682D01*
X15135708Y-6700980D01*
X15167818Y-6696753D01*
X15236853Y-6707518D01*
X15271685Y-6732011D01*
X17035194Y-8495520D01*
X17035204Y-8495531D01*
X17039534Y-8499861D01*
X17039535Y-8499862D01*
X17100138Y-8560465D01*
X17137250Y-8581891D01*
X17137252Y-8581893D01*
X17165428Y-8598160D01*
X17174361Y-8603318D01*
X17257147Y-8625500D01*
X17257149Y-8625500D01*
X22742851Y-8625500D01*
X22742853Y-8625500D01*
X22825639Y-8603318D01*
X22899862Y-8560465D01*
X24428315Y-7032009D01*
X24489636Y-6998526D01*
X24532180Y-6996753D01*
X24599999Y-7005682D01*
X24600000Y-7005682D01*
X24600001Y-7005682D01*
X24652254Y-6998802D01*
X24756762Y-6985044D01*
X24902841Y-6924536D01*
X25028282Y-6828282D01*
X25124536Y-6702841D01*
X25185044Y-6556762D01*
X25205682Y-6400000D01*
X25185044Y-6243238D01*
X25124536Y-6097159D01*
X25028282Y-5971718D01*
X24902841Y-5875464D01*
X24756762Y-5814956D01*
X24756760Y-5814955D01*
X24600001Y-5794318D01*
X24599999Y-5794318D01*
X24443239Y-5814955D01*
X24443237Y-5814956D01*
X24297160Y-5875463D01*
X24171718Y-5971718D01*
X24075463Y-6097160D01*
X24014956Y-6243237D01*
X24014955Y-6243239D01*
X23994318Y-6399998D01*
X23994318Y-6400001D01*
X24003246Y-6467818D01*
X23992480Y-6536853D01*
X23967988Y-6571684D01*
X22601492Y-7938181D01*
X22540169Y-7971666D01*
X22513811Y-7974500D01*
X17486188Y-7974500D01*
X17419149Y-7954815D01*
X17398507Y-7938181D01*
X15732011Y-6271685D01*
X15698526Y-6210362D01*
X15696753Y-6167818D01*
X15705682Y-6100000D01*
X15705682Y-6099998D01*
X15685044Y-5943239D01*
X15685044Y-5943238D01*
X15624536Y-5797159D01*
X15528282Y-5671718D01*
X15402841Y-5575464D01*
X15256762Y-5514956D01*
X15256760Y-5514955D01*
X15100001Y-5494318D01*
X15099999Y-5494318D01*
X14943239Y-5514955D01*
X14943237Y-5514956D01*
X14797160Y-5575463D01*
X14671718Y-5671718D01*
X14575463Y-5797160D01*
X14514956Y-5943237D01*
X14514955Y-5943239D01*
X14494318Y-6099998D01*
X1500000Y-6099998D01*
X1500000Y-1802861D01*
X1519685Y-1735822D01*
X1572489Y-1690067D01*
X1641647Y-1680123D01*
X1705203Y-1709148D01*
X1742977Y-1767926D01*
X1743775Y-1770768D01*
X1764185Y-1846941D01*
X1764186Y-1846944D01*
X1839883Y-1978054D01*
X1839887Y-1978060D01*
X1946939Y-2085112D01*
X1946945Y-2085116D01*
X2078055Y-2160813D01*
X2078058Y-2160814D01*
X2224300Y-2199999D01*
X2224302Y-2200000D01*
X3175698Y-2200000D01*
X3175699Y-2199999D01*
X3283892Y-2171009D01*
X4800000Y-2171009D01*
X4800000Y-3128990D01*
X4840889Y-3281591D01*
X4919881Y-3418407D01*
X4919883Y-3418410D01*
X5031589Y-3530116D01*
X5031592Y-3530118D01*
X5168408Y-3609110D01*
X5321009Y-3649999D01*
X5321011Y-3650000D01*
X5478989Y-3650000D01*
X5478990Y-3649999D01*
X5631591Y-3609110D01*
X5768407Y-3530118D01*
X5768410Y-3530116D01*
X5880116Y-3418410D01*
X5880118Y-3418407D01*
X5959110Y-3281591D01*
X5999999Y-3128990D01*
X6000000Y-3128989D01*
X6000000Y-2171011D01*
X5999999Y-2171009D01*
X5959110Y-2018408D01*
X5880118Y-1881592D01*
X5880116Y-1881589D01*
X5768410Y-1769883D01*
X5768407Y-1769881D01*
X5631591Y-1690889D01*
X5478990Y-1650000D01*
X5321009Y-1650000D01*
X5168408Y-1690889D01*
X5031592Y-1769881D01*
X5031589Y-1769883D01*
X4919883Y-1881589D01*
X4919881Y-1881592D01*
X4840889Y-2018408D01*
X4800000Y-2171009D01*
X3283892Y-2171009D01*
X3321941Y-2160814D01*
X3321944Y-2160813D01*
X3453054Y-2085116D01*
X3453060Y-2085112D01*
X3560112Y-1978060D01*
X3560116Y-1978054D01*
X3635813Y-1846944D01*
X3635814Y-1846941D01*
X3674999Y-1700699D01*
X3675000Y-1700698D01*
X3675000Y-1549302D01*
X3674999Y-1549300D01*
X3635814Y-1403058D01*
X3635813Y-1403055D01*
X3560116Y-1271945D01*
X3560112Y-1271939D01*
X3453060Y-1164887D01*
X3453054Y-1164883D01*
X3321944Y-1089186D01*
X3321941Y-1089185D01*
X3175699Y-1050000D01*
X2224300Y-1050000D01*
X2078058Y-1089185D01*
X2078055Y-1089186D01*
X1946945Y-1164883D01*
X1946939Y-1164887D01*
X1839887Y-1271939D01*
X1839883Y-1271945D01*
X1764186Y-1403055D01*
X1764185Y-1403058D01*
X1743775Y-1479231D01*
X1707410Y-1538892D01*
X1644563Y-1569421D01*
X1575188Y-1561126D01*
X1521310Y-1516641D01*
X1500035Y-1450089D01*
X1500000Y-1447138D01*
X1500000Y-1008125D01*
X1501061Y-991940D01*
X1514906Y-886776D01*
X1523284Y-855508D01*
X1560740Y-765081D01*
X1576923Y-737050D01*
X1636513Y-659392D01*
X1659392Y-636513D01*
X1737050Y-576923D01*
X1765079Y-560740D01*
X1855509Y-523283D01*
X1886775Y-514906D01*
X1991941Y-501061D01*
X2008126Y-500000D01*
X12284767Y-500000D01*
X12300952Y-501061D01*
G37*
%TD.AperFunction*%
%TD*%
M02*
