%TF.GenerationSoftware,KiCad,Pcbnew,7.0.10*%
%TF.CreationDate,2024-01-22T13:55:38+11:00*%
%TF.ProjectId,cphp82001-pcb,63706870-3832-4303-9031-2d7063622e6b,3.1*%
%TF.SameCoordinates,Original*%
%TF.FileFunction,Legend,Top*%
%TF.FilePolarity,Positive*%
%FSLAX46Y46*%
G04 Gerber Fmt 4.6, Leading zero omitted, Abs format (unit mm)*
G04 Created by KiCad (PCBNEW 7.0.10) date 2024-01-22 13:55:38*
%MOMM*%
%LPD*%
G01*
G04 APERTURE LIST*
%ADD10C,0.150000*%
%ADD11C,0.120000*%
G04 APERTURE END LIST*
D10*
X49970112Y-1346009D02*
X50112969Y-1393628D01*
X50112969Y-1393628D02*
X50160588Y-1441247D01*
X50160588Y-1441247D02*
X50208207Y-1536485D01*
X50208207Y-1536485D02*
X50208207Y-1679342D01*
X50208207Y-1679342D02*
X50160588Y-1774580D01*
X50160588Y-1774580D02*
X50112969Y-1822200D01*
X50112969Y-1822200D02*
X50017731Y-1869819D01*
X50017731Y-1869819D02*
X49636779Y-1869819D01*
X49636779Y-1869819D02*
X49636779Y-869819D01*
X49636779Y-869819D02*
X49970112Y-869819D01*
X49970112Y-869819D02*
X50065350Y-917438D01*
X50065350Y-917438D02*
X50112969Y-965057D01*
X50112969Y-965057D02*
X50160588Y-1060295D01*
X50160588Y-1060295D02*
X50160588Y-1155533D01*
X50160588Y-1155533D02*
X50112969Y-1250771D01*
X50112969Y-1250771D02*
X50065350Y-1298390D01*
X50065350Y-1298390D02*
X49970112Y-1346009D01*
X49970112Y-1346009D02*
X49636779Y-1346009D01*
X50589160Y-1584104D02*
X51065350Y-1584104D01*
X50493922Y-1869819D02*
X50827255Y-869819D01*
X50827255Y-869819D02*
X51160588Y-1869819D01*
X51351065Y-869819D02*
X51922493Y-869819D01*
X51636779Y-1869819D02*
X51636779Y-869819D01*
X21500000Y-16300000D02*
X24500000Y-16300000D01*
X24500000Y-18300000D01*
X21500000Y-18300000D01*
X21500000Y-16300000D01*
X38000000Y-11400000D02*
X41600000Y-11400000D01*
X41600000Y-14400000D01*
X38000000Y-14400000D01*
X38000000Y-11400000D01*
X41100000Y-13700000D02*
X41100000Y-14100000D01*
X17500000Y-14200000D02*
X20900000Y-14200000D01*
X20900000Y-18200000D01*
X17500000Y-18200000D01*
X17500000Y-14200000D01*
X7475000Y-10750000D02*
X10475000Y-10750000D01*
X10475000Y-12750000D01*
X7475000Y-12750000D01*
X7475000Y-10750000D01*
X33500000Y-11400000D02*
X35300000Y-11400000D01*
X35300000Y-14400000D01*
X33500000Y-14400000D01*
X33500000Y-11400000D01*
X13600000Y-43000000D02*
X4600000Y-43000000D01*
X25000000Y-14400000D02*
X27000000Y-14400000D01*
X27000000Y-17400000D01*
X25000000Y-17400000D01*
X25000000Y-14400000D01*
X11000000Y-10700000D02*
X16000000Y-10700000D01*
X16000000Y-12800000D01*
X11000000Y-12800000D01*
X11000000Y-10700000D01*
X29500000Y-11400000D02*
X33100000Y-11400000D01*
X33100000Y-14400000D01*
X29500000Y-14400000D01*
X29500000Y-11400000D01*
X27200000Y-14400000D02*
X29200000Y-14400000D01*
X29200000Y-17400000D01*
X27200000Y-17400000D01*
X27200000Y-14400000D01*
X34000000Y-15200000D02*
X37000000Y-15200000D01*
X37000000Y-17000000D01*
X34000000Y-17000000D01*
X34000000Y-15200000D01*
X32700000Y-13700000D02*
X32700000Y-14100000D01*
X43200000Y-15200000D02*
X46500000Y-15200000D01*
X46500000Y-13400000D01*
X43200000Y-13400000D01*
X43200000Y-15200000D01*
X11600000Y-13200000D02*
X14800000Y-13200000D01*
X14800000Y-16500000D01*
X11600000Y-16500000D01*
X11600000Y-13200000D01*
X34200000Y-9300000D02*
X37200000Y-9300000D01*
X37200000Y-11100000D01*
X34200000Y-11100000D01*
X34200000Y-9300000D01*
X46900000Y-12900000D02*
X48700000Y-12900000D01*
X48700000Y-9900000D01*
X46900000Y-9900000D01*
X46900000Y-12900000D01*
X1600000Y-9800000D02*
X1600000Y-43800000D01*
X7475000Y-13200000D02*
X11075000Y-13200000D01*
X11075000Y-16800000D01*
X7475000Y-16800000D01*
X7475000Y-13200000D01*
X51600000Y-43000000D02*
X51600000Y-9000000D01*
X17900000Y-17500000D02*
X17900000Y-17900000D01*
X51600000Y-9000000D02*
X7000000Y-9000000D01*
X7900000Y-13600000D02*
X7900000Y-14000000D01*
X51600000Y-43000000D02*
X44000000Y-43000000D01*
X43500000Y-10400000D02*
X43800000Y-10400000D01*
X7525000Y-17400000D02*
X10525000Y-17400000D01*
X10525000Y-19400000D01*
X7525000Y-19400000D01*
X7525000Y-17400000D01*
X37500000Y-15200000D02*
X40500000Y-15200000D01*
X40500000Y-17000000D01*
X37500000Y-17000000D01*
X37500000Y-15200000D01*
X43100000Y-9850000D02*
X46500000Y-9850000D01*
X46500000Y-12950000D01*
X43100000Y-12950000D01*
X43100000Y-9850000D01*
X11400000Y-17400000D02*
X14400000Y-17400000D01*
X14400000Y-19400000D01*
X11400000Y-19400000D01*
X11400000Y-17400000D01*
X21500000Y-14100000D02*
X24500000Y-14100000D01*
X24500000Y-16100000D01*
X21500000Y-16100000D01*
X21500000Y-14100000D01*
X35800000Y-11400000D02*
X37600000Y-11400000D01*
X37600000Y-14400000D01*
X35800000Y-14400000D01*
X35800000Y-11400000D01*
X15100000Y-13400000D02*
X17100000Y-13400000D01*
X17100000Y-16400000D01*
X15100000Y-16400000D01*
X15100000Y-13400000D01*
X15400000Y-10800000D02*
X15400000Y-12800000D01*
X46850000Y-13400000D02*
X48650000Y-13400000D01*
X48650000Y-16400000D01*
X46850000Y-16400000D01*
X46850000Y-13400000D01*
X21600000Y-10500000D02*
X21600000Y-13700000D01*
X29600000Y-15100000D02*
X33500000Y-15100000D01*
X33500000Y-17100000D01*
X29600000Y-17100000D01*
X29600000Y-15100000D01*
X1600000Y-43000000D02*
X13000000Y-43000000D01*
X20800000Y-10500000D02*
X27800000Y-10500000D01*
X27800000Y-13700000D01*
X20800000Y-13700000D01*
X20800000Y-10500000D01*
X54419048Y-5973866D02*
X55180953Y-5973866D01*
X28574580Y-16453696D02*
X28622200Y-16491792D01*
X28622200Y-16491792D02*
X28669819Y-16606077D01*
X28669819Y-16606077D02*
X28669819Y-16682268D01*
X28669819Y-16682268D02*
X28622200Y-16796554D01*
X28622200Y-16796554D02*
X28526961Y-16872744D01*
X28526961Y-16872744D02*
X28431723Y-16910839D01*
X28431723Y-16910839D02*
X28241247Y-16948935D01*
X28241247Y-16948935D02*
X28098390Y-16948935D01*
X28098390Y-16948935D02*
X27907914Y-16910839D01*
X27907914Y-16910839D02*
X27812676Y-16872744D01*
X27812676Y-16872744D02*
X27717438Y-16796554D01*
X27717438Y-16796554D02*
X27669819Y-16682268D01*
X27669819Y-16682268D02*
X27669819Y-16606077D01*
X27669819Y-16606077D02*
X27717438Y-16491792D01*
X27717438Y-16491792D02*
X27765057Y-16453696D01*
X28669819Y-16110839D02*
X27669819Y-16110839D01*
X28146009Y-16110839D02*
X28146009Y-15653696D01*
X28669819Y-15653696D02*
X27669819Y-15653696D01*
X27717438Y-14853697D02*
X27669819Y-14929887D01*
X27669819Y-14929887D02*
X27669819Y-15044173D01*
X27669819Y-15044173D02*
X27717438Y-15158459D01*
X27717438Y-15158459D02*
X27812676Y-15234649D01*
X27812676Y-15234649D02*
X27907914Y-15272744D01*
X27907914Y-15272744D02*
X28098390Y-15310840D01*
X28098390Y-15310840D02*
X28241247Y-15310840D01*
X28241247Y-15310840D02*
X28431723Y-15272744D01*
X28431723Y-15272744D02*
X28526961Y-15234649D01*
X28526961Y-15234649D02*
X28622200Y-15158459D01*
X28622200Y-15158459D02*
X28669819Y-15044173D01*
X28669819Y-15044173D02*
X28669819Y-14967982D01*
X28669819Y-14967982D02*
X28622200Y-14853697D01*
X28622200Y-14853697D02*
X28574580Y-14815601D01*
X28574580Y-14815601D02*
X28241247Y-14815601D01*
X28241247Y-14815601D02*
X28241247Y-14967982D01*
X54419048Y-3473866D02*
X55180953Y-3473866D01*
X54800000Y-3854819D02*
X54800000Y-3092914D01*
X54571428Y-4362295D02*
X55028571Y-4362295D01*
X54799999Y-5162295D02*
X54799999Y-4362295D01*
X24899999Y-23721009D02*
X25042856Y-23768628D01*
X25042856Y-23768628D02*
X25090475Y-23816247D01*
X25090475Y-23816247D02*
X25138094Y-23911485D01*
X25138094Y-23911485D02*
X25138094Y-24054342D01*
X25138094Y-24054342D02*
X25090475Y-24149580D01*
X25090475Y-24149580D02*
X25042856Y-24197200D01*
X25042856Y-24197200D02*
X24947618Y-24244819D01*
X24947618Y-24244819D02*
X24566666Y-24244819D01*
X24566666Y-24244819D02*
X24566666Y-23244819D01*
X24566666Y-23244819D02*
X24899999Y-23244819D01*
X24899999Y-23244819D02*
X24995237Y-23292438D01*
X24995237Y-23292438D02*
X25042856Y-23340057D01*
X25042856Y-23340057D02*
X25090475Y-23435295D01*
X25090475Y-23435295D02*
X25090475Y-23530533D01*
X25090475Y-23530533D02*
X25042856Y-23625771D01*
X25042856Y-23625771D02*
X24995237Y-23673390D01*
X24995237Y-23673390D02*
X24899999Y-23721009D01*
X24899999Y-23721009D02*
X24566666Y-23721009D01*
X25519047Y-23959104D02*
X25995237Y-23959104D01*
X25423809Y-24244819D02*
X25757142Y-23244819D01*
X25757142Y-23244819D02*
X26090475Y-24244819D01*
X26280952Y-23244819D02*
X26852380Y-23244819D01*
X26566666Y-24244819D02*
X26566666Y-23244819D01*
X27042857Y-23244819D02*
X27614285Y-23244819D01*
X27328571Y-24244819D02*
X27328571Y-23244819D01*
X27947619Y-23721009D02*
X28280952Y-23721009D01*
X28423809Y-24244819D02*
X27947619Y-24244819D01*
X27947619Y-24244819D02*
X27947619Y-23244819D01*
X27947619Y-23244819D02*
X28423809Y-23244819D01*
X29423809Y-24244819D02*
X29090476Y-23768628D01*
X28852381Y-24244819D02*
X28852381Y-23244819D01*
X28852381Y-23244819D02*
X29233333Y-23244819D01*
X29233333Y-23244819D02*
X29328571Y-23292438D01*
X29328571Y-23292438D02*
X29376190Y-23340057D01*
X29376190Y-23340057D02*
X29423809Y-23435295D01*
X29423809Y-23435295D02*
X29423809Y-23578152D01*
X29423809Y-23578152D02*
X29376190Y-23673390D01*
X29376190Y-23673390D02*
X29328571Y-23721009D01*
X29328571Y-23721009D02*
X29233333Y-23768628D01*
X29233333Y-23768628D02*
X28852381Y-23768628D01*
X30042857Y-23768628D02*
X30042857Y-24244819D01*
X29709524Y-23244819D02*
X30042857Y-23768628D01*
X30042857Y-23768628D02*
X30376190Y-23244819D01*
X16566666Y-25854819D02*
X16090476Y-25854819D01*
X16090476Y-25854819D02*
X16090476Y-24854819D01*
X16900000Y-25854819D02*
X16900000Y-24854819D01*
X17376190Y-25854819D02*
X17376190Y-24854819D01*
X17376190Y-24854819D02*
X17757142Y-24854819D01*
X17757142Y-24854819D02*
X17852380Y-24902438D01*
X17852380Y-24902438D02*
X17899999Y-24950057D01*
X17899999Y-24950057D02*
X17947618Y-25045295D01*
X17947618Y-25045295D02*
X17947618Y-25188152D01*
X17947618Y-25188152D02*
X17899999Y-25283390D01*
X17899999Y-25283390D02*
X17852380Y-25331009D01*
X17852380Y-25331009D02*
X17757142Y-25378628D01*
X17757142Y-25378628D02*
X17376190Y-25378628D01*
X18566666Y-24854819D02*
X18757142Y-24854819D01*
X18757142Y-24854819D02*
X18852380Y-24902438D01*
X18852380Y-24902438D02*
X18947618Y-24997676D01*
X18947618Y-24997676D02*
X18995237Y-25188152D01*
X18995237Y-25188152D02*
X18995237Y-25521485D01*
X18995237Y-25521485D02*
X18947618Y-25711961D01*
X18947618Y-25711961D02*
X18852380Y-25807200D01*
X18852380Y-25807200D02*
X18757142Y-25854819D01*
X18757142Y-25854819D02*
X18566666Y-25854819D01*
X18566666Y-25854819D02*
X18471428Y-25807200D01*
X18471428Y-25807200D02*
X18376190Y-25711961D01*
X18376190Y-25711961D02*
X18328571Y-25521485D01*
X18328571Y-25521485D02*
X18328571Y-25188152D01*
X18328571Y-25188152D02*
X18376190Y-24997676D01*
X18376190Y-24997676D02*
X18471428Y-24902438D01*
X18471428Y-24902438D02*
X18566666Y-24854819D01*
X20090476Y-24854819D02*
X20709523Y-24854819D01*
X20709523Y-24854819D02*
X20376190Y-25235771D01*
X20376190Y-25235771D02*
X20519047Y-25235771D01*
X20519047Y-25235771D02*
X20614285Y-25283390D01*
X20614285Y-25283390D02*
X20661904Y-25331009D01*
X20661904Y-25331009D02*
X20709523Y-25426247D01*
X20709523Y-25426247D02*
X20709523Y-25664342D01*
X20709523Y-25664342D02*
X20661904Y-25759580D01*
X20661904Y-25759580D02*
X20614285Y-25807200D01*
X20614285Y-25807200D02*
X20519047Y-25854819D01*
X20519047Y-25854819D02*
X20233333Y-25854819D01*
X20233333Y-25854819D02*
X20138095Y-25807200D01*
X20138095Y-25807200D02*
X20090476Y-25759580D01*
X21138095Y-25759580D02*
X21185714Y-25807200D01*
X21185714Y-25807200D02*
X21138095Y-25854819D01*
X21138095Y-25854819D02*
X21090476Y-25807200D01*
X21090476Y-25807200D02*
X21138095Y-25759580D01*
X21138095Y-25759580D02*
X21138095Y-25854819D01*
X21519047Y-24854819D02*
X22185713Y-24854819D01*
X22185713Y-24854819D02*
X21757142Y-25854819D01*
X22423809Y-24854819D02*
X22757142Y-25854819D01*
X22757142Y-25854819D02*
X23090475Y-24854819D01*
X24709523Y-25854819D02*
X24138095Y-25854819D01*
X24423809Y-25854819D02*
X24423809Y-24854819D01*
X24423809Y-24854819D02*
X24328571Y-24997676D01*
X24328571Y-24997676D02*
X24233333Y-25092914D01*
X24233333Y-25092914D02*
X24138095Y-25140533D01*
X25328571Y-24854819D02*
X25423809Y-24854819D01*
X25423809Y-24854819D02*
X25519047Y-24902438D01*
X25519047Y-24902438D02*
X25566666Y-24950057D01*
X25566666Y-24950057D02*
X25614285Y-25045295D01*
X25614285Y-25045295D02*
X25661904Y-25235771D01*
X25661904Y-25235771D02*
X25661904Y-25473866D01*
X25661904Y-25473866D02*
X25614285Y-25664342D01*
X25614285Y-25664342D02*
X25566666Y-25759580D01*
X25566666Y-25759580D02*
X25519047Y-25807200D01*
X25519047Y-25807200D02*
X25423809Y-25854819D01*
X25423809Y-25854819D02*
X25328571Y-25854819D01*
X25328571Y-25854819D02*
X25233333Y-25807200D01*
X25233333Y-25807200D02*
X25185714Y-25759580D01*
X25185714Y-25759580D02*
X25138095Y-25664342D01*
X25138095Y-25664342D02*
X25090476Y-25473866D01*
X25090476Y-25473866D02*
X25090476Y-25235771D01*
X25090476Y-25235771D02*
X25138095Y-25045295D01*
X25138095Y-25045295D02*
X25185714Y-24950057D01*
X25185714Y-24950057D02*
X25233333Y-24902438D01*
X25233333Y-24902438D02*
X25328571Y-24854819D01*
X25995238Y-25854819D02*
X26519047Y-25188152D01*
X25995238Y-25188152D02*
X26519047Y-25854819D01*
X26804762Y-24854819D02*
X27423809Y-24854819D01*
X27423809Y-24854819D02*
X27090476Y-25235771D01*
X27090476Y-25235771D02*
X27233333Y-25235771D01*
X27233333Y-25235771D02*
X27328571Y-25283390D01*
X27328571Y-25283390D02*
X27376190Y-25331009D01*
X27376190Y-25331009D02*
X27423809Y-25426247D01*
X27423809Y-25426247D02*
X27423809Y-25664342D01*
X27423809Y-25664342D02*
X27376190Y-25759580D01*
X27376190Y-25759580D02*
X27328571Y-25807200D01*
X27328571Y-25807200D02*
X27233333Y-25854819D01*
X27233333Y-25854819D02*
X26947619Y-25854819D01*
X26947619Y-25854819D02*
X26852381Y-25807200D01*
X26852381Y-25807200D02*
X26804762Y-25759580D01*
X28280952Y-25188152D02*
X28280952Y-25854819D01*
X28042857Y-24807200D02*
X27804762Y-25521485D01*
X27804762Y-25521485D02*
X28423809Y-25521485D01*
X28709524Y-25854819D02*
X29233333Y-25188152D01*
X28709524Y-25188152D02*
X29233333Y-25854819D01*
X30090476Y-24854819D02*
X29614286Y-24854819D01*
X29614286Y-24854819D02*
X29566667Y-25331009D01*
X29566667Y-25331009D02*
X29614286Y-25283390D01*
X29614286Y-25283390D02*
X29709524Y-25235771D01*
X29709524Y-25235771D02*
X29947619Y-25235771D01*
X29947619Y-25235771D02*
X30042857Y-25283390D01*
X30042857Y-25283390D02*
X30090476Y-25331009D01*
X30090476Y-25331009D02*
X30138095Y-25426247D01*
X30138095Y-25426247D02*
X30138095Y-25664342D01*
X30138095Y-25664342D02*
X30090476Y-25759580D01*
X30090476Y-25759580D02*
X30042857Y-25807200D01*
X30042857Y-25807200D02*
X29947619Y-25854819D01*
X29947619Y-25854819D02*
X29709524Y-25854819D01*
X29709524Y-25854819D02*
X29614286Y-25807200D01*
X29614286Y-25807200D02*
X29566667Y-25759580D01*
X30757143Y-24854819D02*
X30852381Y-24854819D01*
X30852381Y-24854819D02*
X30947619Y-24902438D01*
X30947619Y-24902438D02*
X30995238Y-24950057D01*
X30995238Y-24950057D02*
X31042857Y-25045295D01*
X31042857Y-25045295D02*
X31090476Y-25235771D01*
X31090476Y-25235771D02*
X31090476Y-25473866D01*
X31090476Y-25473866D02*
X31042857Y-25664342D01*
X31042857Y-25664342D02*
X30995238Y-25759580D01*
X30995238Y-25759580D02*
X30947619Y-25807200D01*
X30947619Y-25807200D02*
X30852381Y-25854819D01*
X30852381Y-25854819D02*
X30757143Y-25854819D01*
X30757143Y-25854819D02*
X30661905Y-25807200D01*
X30661905Y-25807200D02*
X30614286Y-25759580D01*
X30614286Y-25759580D02*
X30566667Y-25664342D01*
X30566667Y-25664342D02*
X30519048Y-25473866D01*
X30519048Y-25473866D02*
X30519048Y-25235771D01*
X30519048Y-25235771D02*
X30566667Y-25045295D01*
X30566667Y-25045295D02*
X30614286Y-24950057D01*
X30614286Y-24950057D02*
X30661905Y-24902438D01*
X30661905Y-24902438D02*
X30757143Y-24854819D01*
X32233334Y-24950057D02*
X32280953Y-24902438D01*
X32280953Y-24902438D02*
X32376191Y-24854819D01*
X32376191Y-24854819D02*
X32614286Y-24854819D01*
X32614286Y-24854819D02*
X32709524Y-24902438D01*
X32709524Y-24902438D02*
X32757143Y-24950057D01*
X32757143Y-24950057D02*
X32804762Y-25045295D01*
X32804762Y-25045295D02*
X32804762Y-25140533D01*
X32804762Y-25140533D02*
X32757143Y-25283390D01*
X32757143Y-25283390D02*
X32185715Y-25854819D01*
X32185715Y-25854819D02*
X32804762Y-25854819D01*
X33423810Y-24854819D02*
X33519048Y-24854819D01*
X33519048Y-24854819D02*
X33614286Y-24902438D01*
X33614286Y-24902438D02*
X33661905Y-24950057D01*
X33661905Y-24950057D02*
X33709524Y-25045295D01*
X33709524Y-25045295D02*
X33757143Y-25235771D01*
X33757143Y-25235771D02*
X33757143Y-25473866D01*
X33757143Y-25473866D02*
X33709524Y-25664342D01*
X33709524Y-25664342D02*
X33661905Y-25759580D01*
X33661905Y-25759580D02*
X33614286Y-25807200D01*
X33614286Y-25807200D02*
X33519048Y-25854819D01*
X33519048Y-25854819D02*
X33423810Y-25854819D01*
X33423810Y-25854819D02*
X33328572Y-25807200D01*
X33328572Y-25807200D02*
X33280953Y-25759580D01*
X33280953Y-25759580D02*
X33233334Y-25664342D01*
X33233334Y-25664342D02*
X33185715Y-25473866D01*
X33185715Y-25473866D02*
X33185715Y-25235771D01*
X33185715Y-25235771D02*
X33233334Y-25045295D01*
X33233334Y-25045295D02*
X33280953Y-24950057D01*
X33280953Y-24950057D02*
X33328572Y-24902438D01*
X33328572Y-24902438D02*
X33423810Y-24854819D01*
X34376191Y-24854819D02*
X34471429Y-24854819D01*
X34471429Y-24854819D02*
X34566667Y-24902438D01*
X34566667Y-24902438D02*
X34614286Y-24950057D01*
X34614286Y-24950057D02*
X34661905Y-25045295D01*
X34661905Y-25045295D02*
X34709524Y-25235771D01*
X34709524Y-25235771D02*
X34709524Y-25473866D01*
X34709524Y-25473866D02*
X34661905Y-25664342D01*
X34661905Y-25664342D02*
X34614286Y-25759580D01*
X34614286Y-25759580D02*
X34566667Y-25807200D01*
X34566667Y-25807200D02*
X34471429Y-25854819D01*
X34471429Y-25854819D02*
X34376191Y-25854819D01*
X34376191Y-25854819D02*
X34280953Y-25807200D01*
X34280953Y-25807200D02*
X34233334Y-25759580D01*
X34233334Y-25759580D02*
X34185715Y-25664342D01*
X34185715Y-25664342D02*
X34138096Y-25473866D01*
X34138096Y-25473866D02*
X34138096Y-25235771D01*
X34138096Y-25235771D02*
X34185715Y-25045295D01*
X34185715Y-25045295D02*
X34233334Y-24950057D01*
X34233334Y-24950057D02*
X34280953Y-24902438D01*
X34280953Y-24902438D02*
X34376191Y-24854819D01*
X35328572Y-24854819D02*
X35423810Y-24854819D01*
X35423810Y-24854819D02*
X35519048Y-24902438D01*
X35519048Y-24902438D02*
X35566667Y-24950057D01*
X35566667Y-24950057D02*
X35614286Y-25045295D01*
X35614286Y-25045295D02*
X35661905Y-25235771D01*
X35661905Y-25235771D02*
X35661905Y-25473866D01*
X35661905Y-25473866D02*
X35614286Y-25664342D01*
X35614286Y-25664342D02*
X35566667Y-25759580D01*
X35566667Y-25759580D02*
X35519048Y-25807200D01*
X35519048Y-25807200D02*
X35423810Y-25854819D01*
X35423810Y-25854819D02*
X35328572Y-25854819D01*
X35328572Y-25854819D02*
X35233334Y-25807200D01*
X35233334Y-25807200D02*
X35185715Y-25759580D01*
X35185715Y-25759580D02*
X35138096Y-25664342D01*
X35138096Y-25664342D02*
X35090477Y-25473866D01*
X35090477Y-25473866D02*
X35090477Y-25235771D01*
X35090477Y-25235771D02*
X35138096Y-25045295D01*
X35138096Y-25045295D02*
X35185715Y-24950057D01*
X35185715Y-24950057D02*
X35233334Y-24902438D01*
X35233334Y-24902438D02*
X35328572Y-24854819D01*
X36090477Y-25854819D02*
X36090477Y-25188152D01*
X36090477Y-25283390D02*
X36138096Y-25235771D01*
X36138096Y-25235771D02*
X36233334Y-25188152D01*
X36233334Y-25188152D02*
X36376191Y-25188152D01*
X36376191Y-25188152D02*
X36471429Y-25235771D01*
X36471429Y-25235771D02*
X36519048Y-25331009D01*
X36519048Y-25331009D02*
X36519048Y-25854819D01*
X36519048Y-25331009D02*
X36566667Y-25235771D01*
X36566667Y-25235771D02*
X36661905Y-25188152D01*
X36661905Y-25188152D02*
X36804762Y-25188152D01*
X36804762Y-25188152D02*
X36900001Y-25235771D01*
X36900001Y-25235771D02*
X36947620Y-25331009D01*
X36947620Y-25331009D02*
X36947620Y-25854819D01*
X37376191Y-25569104D02*
X37852381Y-25569104D01*
X37280953Y-25854819D02*
X37614286Y-24854819D01*
X37614286Y-24854819D02*
X37947619Y-25854819D01*
X38280953Y-25854819D02*
X38280953Y-24854819D01*
X38709524Y-25854819D02*
X38709524Y-25331009D01*
X38709524Y-25331009D02*
X38661905Y-25235771D01*
X38661905Y-25235771D02*
X38566667Y-25188152D01*
X38566667Y-25188152D02*
X38423810Y-25188152D01*
X38423810Y-25188152D02*
X38328572Y-25235771D01*
X38328572Y-25235771D02*
X38280953Y-25283390D01*
X7042856Y-27464819D02*
X7042856Y-26464819D01*
X7042856Y-26464819D02*
X7423808Y-26464819D01*
X7423808Y-26464819D02*
X7519046Y-26512438D01*
X7519046Y-26512438D02*
X7566665Y-26560057D01*
X7566665Y-26560057D02*
X7614284Y-26655295D01*
X7614284Y-26655295D02*
X7614284Y-26798152D01*
X7614284Y-26798152D02*
X7566665Y-26893390D01*
X7566665Y-26893390D02*
X7519046Y-26941009D01*
X7519046Y-26941009D02*
X7423808Y-26988628D01*
X7423808Y-26988628D02*
X7042856Y-26988628D01*
X8614284Y-27464819D02*
X8280951Y-26988628D01*
X8042856Y-27464819D02*
X8042856Y-26464819D01*
X8042856Y-26464819D02*
X8423808Y-26464819D01*
X8423808Y-26464819D02*
X8519046Y-26512438D01*
X8519046Y-26512438D02*
X8566665Y-26560057D01*
X8566665Y-26560057D02*
X8614284Y-26655295D01*
X8614284Y-26655295D02*
X8614284Y-26798152D01*
X8614284Y-26798152D02*
X8566665Y-26893390D01*
X8566665Y-26893390D02*
X8519046Y-26941009D01*
X8519046Y-26941009D02*
X8423808Y-26988628D01*
X8423808Y-26988628D02*
X8042856Y-26988628D01*
X9233332Y-26464819D02*
X9423808Y-26464819D01*
X9423808Y-26464819D02*
X9519046Y-26512438D01*
X9519046Y-26512438D02*
X9614284Y-26607676D01*
X9614284Y-26607676D02*
X9661903Y-26798152D01*
X9661903Y-26798152D02*
X9661903Y-27131485D01*
X9661903Y-27131485D02*
X9614284Y-27321961D01*
X9614284Y-27321961D02*
X9519046Y-27417200D01*
X9519046Y-27417200D02*
X9423808Y-27464819D01*
X9423808Y-27464819D02*
X9233332Y-27464819D01*
X9233332Y-27464819D02*
X9138094Y-27417200D01*
X9138094Y-27417200D02*
X9042856Y-27321961D01*
X9042856Y-27321961D02*
X8995237Y-27131485D01*
X8995237Y-27131485D02*
X8995237Y-26798152D01*
X8995237Y-26798152D02*
X9042856Y-26607676D01*
X9042856Y-26607676D02*
X9138094Y-26512438D01*
X9138094Y-26512438D02*
X9233332Y-26464819D01*
X9947618Y-26464819D02*
X10519046Y-26464819D01*
X10233332Y-27464819D02*
X10233332Y-26464819D01*
X10852380Y-26941009D02*
X11185713Y-26941009D01*
X11328570Y-27464819D02*
X10852380Y-27464819D01*
X10852380Y-27464819D02*
X10852380Y-26464819D01*
X10852380Y-26464819D02*
X11328570Y-26464819D01*
X12328570Y-27369580D02*
X12280951Y-27417200D01*
X12280951Y-27417200D02*
X12138094Y-27464819D01*
X12138094Y-27464819D02*
X12042856Y-27464819D01*
X12042856Y-27464819D02*
X11899999Y-27417200D01*
X11899999Y-27417200D02*
X11804761Y-27321961D01*
X11804761Y-27321961D02*
X11757142Y-27226723D01*
X11757142Y-27226723D02*
X11709523Y-27036247D01*
X11709523Y-27036247D02*
X11709523Y-26893390D01*
X11709523Y-26893390D02*
X11757142Y-26702914D01*
X11757142Y-26702914D02*
X11804761Y-26607676D01*
X11804761Y-26607676D02*
X11899999Y-26512438D01*
X11899999Y-26512438D02*
X12042856Y-26464819D01*
X12042856Y-26464819D02*
X12138094Y-26464819D01*
X12138094Y-26464819D02*
X12280951Y-26512438D01*
X12280951Y-26512438D02*
X12328570Y-26560057D01*
X12614285Y-26464819D02*
X13185713Y-26464819D01*
X12899999Y-27464819D02*
X12899999Y-26464819D01*
X13519047Y-26941009D02*
X13852380Y-26941009D01*
X13995237Y-27464819D02*
X13519047Y-27464819D01*
X13519047Y-27464819D02*
X13519047Y-26464819D01*
X13519047Y-26464819D02*
X13995237Y-26464819D01*
X14423809Y-27464819D02*
X14423809Y-26464819D01*
X14423809Y-26464819D02*
X14661904Y-26464819D01*
X14661904Y-26464819D02*
X14804761Y-26512438D01*
X14804761Y-26512438D02*
X14899999Y-26607676D01*
X14899999Y-26607676D02*
X14947618Y-26702914D01*
X14947618Y-26702914D02*
X14995237Y-26893390D01*
X14995237Y-26893390D02*
X14995237Y-27036247D01*
X14995237Y-27036247D02*
X14947618Y-27226723D01*
X14947618Y-27226723D02*
X14899999Y-27321961D01*
X14899999Y-27321961D02*
X14804761Y-27417200D01*
X14804761Y-27417200D02*
X14661904Y-27464819D01*
X14661904Y-27464819D02*
X14423809Y-27464819D01*
X16042857Y-26464819D02*
X16614285Y-26464819D01*
X16328571Y-27464819D02*
X16328571Y-26464819D01*
X17138095Y-26988628D02*
X17138095Y-27464819D01*
X16804762Y-26464819D02*
X17138095Y-26988628D01*
X17138095Y-26988628D02*
X17471428Y-26464819D01*
X17804762Y-27464819D02*
X17804762Y-26464819D01*
X17804762Y-26464819D02*
X18185714Y-26464819D01*
X18185714Y-26464819D02*
X18280952Y-26512438D01*
X18280952Y-26512438D02*
X18328571Y-26560057D01*
X18328571Y-26560057D02*
X18376190Y-26655295D01*
X18376190Y-26655295D02*
X18376190Y-26798152D01*
X18376190Y-26798152D02*
X18328571Y-26893390D01*
X18328571Y-26893390D02*
X18280952Y-26941009D01*
X18280952Y-26941009D02*
X18185714Y-26988628D01*
X18185714Y-26988628D02*
X17804762Y-26988628D01*
X18804762Y-26941009D02*
X19138095Y-26941009D01*
X19280952Y-27464819D02*
X18804762Y-27464819D01*
X18804762Y-27464819D02*
X18804762Y-26464819D01*
X18804762Y-26464819D02*
X19280952Y-26464819D01*
X20661905Y-26464819D02*
X20852381Y-26464819D01*
X20852381Y-26464819D02*
X20947619Y-26512438D01*
X20947619Y-26512438D02*
X21042857Y-26607676D01*
X21042857Y-26607676D02*
X21090476Y-26798152D01*
X21090476Y-26798152D02*
X21090476Y-27131485D01*
X21090476Y-27131485D02*
X21042857Y-27321961D01*
X21042857Y-27321961D02*
X20947619Y-27417200D01*
X20947619Y-27417200D02*
X20852381Y-27464819D01*
X20852381Y-27464819D02*
X20661905Y-27464819D01*
X20661905Y-27464819D02*
X20566667Y-27417200D01*
X20566667Y-27417200D02*
X20471429Y-27321961D01*
X20471429Y-27321961D02*
X20423810Y-27131485D01*
X20423810Y-27131485D02*
X20423810Y-26798152D01*
X20423810Y-26798152D02*
X20471429Y-26607676D01*
X20471429Y-26607676D02*
X20566667Y-26512438D01*
X20566667Y-26512438D02*
X20661905Y-26464819D01*
X21519048Y-27464819D02*
X21519048Y-26464819D01*
X21519048Y-26464819D02*
X22090476Y-27464819D01*
X22090476Y-27464819D02*
X22090476Y-26464819D01*
X23042857Y-27464819D02*
X22566667Y-27464819D01*
X22566667Y-27464819D02*
X22566667Y-26464819D01*
X23566667Y-26988628D02*
X23566667Y-27464819D01*
X23233334Y-26464819D02*
X23566667Y-26988628D01*
X23566667Y-26988628D02*
X23900000Y-26464819D01*
X25280953Y-27845771D02*
X25233334Y-27798152D01*
X25233334Y-27798152D02*
X25138096Y-27655295D01*
X25138096Y-27655295D02*
X25090477Y-27560057D01*
X25090477Y-27560057D02*
X25042858Y-27417200D01*
X25042858Y-27417200D02*
X24995239Y-27179104D01*
X24995239Y-27179104D02*
X24995239Y-26988628D01*
X24995239Y-26988628D02*
X25042858Y-26750533D01*
X25042858Y-26750533D02*
X25090477Y-26607676D01*
X25090477Y-26607676D02*
X25138096Y-26512438D01*
X25138096Y-26512438D02*
X25233334Y-26369580D01*
X25233334Y-26369580D02*
X25280953Y-26321961D01*
X25661906Y-27464819D02*
X25661906Y-26464819D01*
X25661906Y-26464819D02*
X25900001Y-26464819D01*
X25900001Y-26464819D02*
X26042858Y-26512438D01*
X26042858Y-26512438D02*
X26138096Y-26607676D01*
X26138096Y-26607676D02*
X26185715Y-26702914D01*
X26185715Y-26702914D02*
X26233334Y-26893390D01*
X26233334Y-26893390D02*
X26233334Y-27036247D01*
X26233334Y-27036247D02*
X26185715Y-27226723D01*
X26185715Y-27226723D02*
X26138096Y-27321961D01*
X26138096Y-27321961D02*
X26042858Y-27417200D01*
X26042858Y-27417200D02*
X25900001Y-27464819D01*
X25900001Y-27464819D02*
X25661906Y-27464819D01*
X26566668Y-26464819D02*
X26804763Y-27464819D01*
X26804763Y-27464819D02*
X26995239Y-26750533D01*
X26995239Y-26750533D02*
X27185715Y-27464819D01*
X27185715Y-27464819D02*
X27423811Y-26464819D01*
X27995239Y-26464819D02*
X28090477Y-26464819D01*
X28090477Y-26464819D02*
X28185715Y-26512438D01*
X28185715Y-26512438D02*
X28233334Y-26560057D01*
X28233334Y-26560057D02*
X28280953Y-26655295D01*
X28280953Y-26655295D02*
X28328572Y-26845771D01*
X28328572Y-26845771D02*
X28328572Y-27083866D01*
X28328572Y-27083866D02*
X28280953Y-27274342D01*
X28280953Y-27274342D02*
X28233334Y-27369580D01*
X28233334Y-27369580D02*
X28185715Y-27417200D01*
X28185715Y-27417200D02*
X28090477Y-27464819D01*
X28090477Y-27464819D02*
X27995239Y-27464819D01*
X27995239Y-27464819D02*
X27900001Y-27417200D01*
X27900001Y-27417200D02*
X27852382Y-27369580D01*
X27852382Y-27369580D02*
X27804763Y-27274342D01*
X27804763Y-27274342D02*
X27757144Y-27083866D01*
X27757144Y-27083866D02*
X27757144Y-26845771D01*
X27757144Y-26845771D02*
X27804763Y-26655295D01*
X27804763Y-26655295D02*
X27852382Y-26560057D01*
X27852382Y-26560057D02*
X27900001Y-26512438D01*
X27900001Y-26512438D02*
X27995239Y-26464819D01*
X29280953Y-27464819D02*
X28709525Y-27464819D01*
X28995239Y-27464819D02*
X28995239Y-26464819D01*
X28995239Y-26464819D02*
X28900001Y-26607676D01*
X28900001Y-26607676D02*
X28804763Y-26702914D01*
X28804763Y-26702914D02*
X28709525Y-26750533D01*
X29661906Y-27179104D02*
X30138096Y-27179104D01*
X29566668Y-27464819D02*
X29900001Y-26464819D01*
X29900001Y-26464819D02*
X30233334Y-27464819D01*
X30566668Y-27083866D02*
X31328573Y-27083866D01*
X30947620Y-27464819D02*
X30947620Y-26702914D01*
X32138096Y-26941009D02*
X31804763Y-26941009D01*
X31804763Y-27464819D02*
X31804763Y-26464819D01*
X31804763Y-26464819D02*
X32280953Y-26464819D01*
X32614287Y-27417200D02*
X32757144Y-27464819D01*
X32757144Y-27464819D02*
X32995239Y-27464819D01*
X32995239Y-27464819D02*
X33090477Y-27417200D01*
X33090477Y-27417200D02*
X33138096Y-27369580D01*
X33138096Y-27369580D02*
X33185715Y-27274342D01*
X33185715Y-27274342D02*
X33185715Y-27179104D01*
X33185715Y-27179104D02*
X33138096Y-27083866D01*
X33138096Y-27083866D02*
X33090477Y-27036247D01*
X33090477Y-27036247D02*
X32995239Y-26988628D01*
X32995239Y-26988628D02*
X32804763Y-26941009D01*
X32804763Y-26941009D02*
X32709525Y-26893390D01*
X32709525Y-26893390D02*
X32661906Y-26845771D01*
X32661906Y-26845771D02*
X32614287Y-26750533D01*
X32614287Y-26750533D02*
X32614287Y-26655295D01*
X32614287Y-26655295D02*
X32661906Y-26560057D01*
X32661906Y-26560057D02*
X32709525Y-26512438D01*
X32709525Y-26512438D02*
X32804763Y-26464819D01*
X32804763Y-26464819D02*
X33042858Y-26464819D01*
X33042858Y-26464819D02*
X33185715Y-26512438D01*
X33757144Y-26893390D02*
X33661906Y-26845771D01*
X33661906Y-26845771D02*
X33614287Y-26798152D01*
X33614287Y-26798152D02*
X33566668Y-26702914D01*
X33566668Y-26702914D02*
X33566668Y-26655295D01*
X33566668Y-26655295D02*
X33614287Y-26560057D01*
X33614287Y-26560057D02*
X33661906Y-26512438D01*
X33661906Y-26512438D02*
X33757144Y-26464819D01*
X33757144Y-26464819D02*
X33947620Y-26464819D01*
X33947620Y-26464819D02*
X34042858Y-26512438D01*
X34042858Y-26512438D02*
X34090477Y-26560057D01*
X34090477Y-26560057D02*
X34138096Y-26655295D01*
X34138096Y-26655295D02*
X34138096Y-26702914D01*
X34138096Y-26702914D02*
X34090477Y-26798152D01*
X34090477Y-26798152D02*
X34042858Y-26845771D01*
X34042858Y-26845771D02*
X33947620Y-26893390D01*
X33947620Y-26893390D02*
X33757144Y-26893390D01*
X33757144Y-26893390D02*
X33661906Y-26941009D01*
X33661906Y-26941009D02*
X33614287Y-26988628D01*
X33614287Y-26988628D02*
X33566668Y-27083866D01*
X33566668Y-27083866D02*
X33566668Y-27274342D01*
X33566668Y-27274342D02*
X33614287Y-27369580D01*
X33614287Y-27369580D02*
X33661906Y-27417200D01*
X33661906Y-27417200D02*
X33757144Y-27464819D01*
X33757144Y-27464819D02*
X33947620Y-27464819D01*
X33947620Y-27464819D02*
X34042858Y-27417200D01*
X34042858Y-27417200D02*
X34090477Y-27369580D01*
X34090477Y-27369580D02*
X34138096Y-27274342D01*
X34138096Y-27274342D02*
X34138096Y-27083866D01*
X34138096Y-27083866D02*
X34090477Y-26988628D01*
X34090477Y-26988628D02*
X34042858Y-26941009D01*
X34042858Y-26941009D02*
X33947620Y-26893390D01*
X34519049Y-26560057D02*
X34566668Y-26512438D01*
X34566668Y-26512438D02*
X34661906Y-26464819D01*
X34661906Y-26464819D02*
X34900001Y-26464819D01*
X34900001Y-26464819D02*
X34995239Y-26512438D01*
X34995239Y-26512438D02*
X35042858Y-26560057D01*
X35042858Y-26560057D02*
X35090477Y-26655295D01*
X35090477Y-26655295D02*
X35090477Y-26750533D01*
X35090477Y-26750533D02*
X35042858Y-26893390D01*
X35042858Y-26893390D02*
X34471430Y-27464819D01*
X34471430Y-27464819D02*
X35090477Y-27464819D01*
X35709525Y-26464819D02*
X35804763Y-26464819D01*
X35804763Y-26464819D02*
X35900001Y-26512438D01*
X35900001Y-26512438D02*
X35947620Y-26560057D01*
X35947620Y-26560057D02*
X35995239Y-26655295D01*
X35995239Y-26655295D02*
X36042858Y-26845771D01*
X36042858Y-26845771D02*
X36042858Y-27083866D01*
X36042858Y-27083866D02*
X35995239Y-27274342D01*
X35995239Y-27274342D02*
X35947620Y-27369580D01*
X35947620Y-27369580D02*
X35900001Y-27417200D01*
X35900001Y-27417200D02*
X35804763Y-27464819D01*
X35804763Y-27464819D02*
X35709525Y-27464819D01*
X35709525Y-27464819D02*
X35614287Y-27417200D01*
X35614287Y-27417200D02*
X35566668Y-27369580D01*
X35566668Y-27369580D02*
X35519049Y-27274342D01*
X35519049Y-27274342D02*
X35471430Y-27083866D01*
X35471430Y-27083866D02*
X35471430Y-26845771D01*
X35471430Y-26845771D02*
X35519049Y-26655295D01*
X35519049Y-26655295D02*
X35566668Y-26560057D01*
X35566668Y-26560057D02*
X35614287Y-26512438D01*
X35614287Y-26512438D02*
X35709525Y-26464819D01*
X36947620Y-26464819D02*
X36471430Y-26464819D01*
X36471430Y-26464819D02*
X36423811Y-26941009D01*
X36423811Y-26941009D02*
X36471430Y-26893390D01*
X36471430Y-26893390D02*
X36566668Y-26845771D01*
X36566668Y-26845771D02*
X36804763Y-26845771D01*
X36804763Y-26845771D02*
X36900001Y-26893390D01*
X36900001Y-26893390D02*
X36947620Y-26941009D01*
X36947620Y-26941009D02*
X36995239Y-27036247D01*
X36995239Y-27036247D02*
X36995239Y-27274342D01*
X36995239Y-27274342D02*
X36947620Y-27369580D01*
X36947620Y-27369580D02*
X36900001Y-27417200D01*
X36900001Y-27417200D02*
X36804763Y-27464819D01*
X36804763Y-27464819D02*
X36566668Y-27464819D01*
X36566668Y-27464819D02*
X36471430Y-27417200D01*
X36471430Y-27417200D02*
X36423811Y-27369580D01*
X37376192Y-27179104D02*
X37852382Y-27179104D01*
X37280954Y-27464819D02*
X37614287Y-26464819D01*
X37614287Y-26464819D02*
X37947620Y-27464819D01*
X39233335Y-26464819D02*
X39423811Y-26464819D01*
X39423811Y-26464819D02*
X39519049Y-26512438D01*
X39519049Y-26512438D02*
X39614287Y-26607676D01*
X39614287Y-26607676D02*
X39661906Y-26798152D01*
X39661906Y-26798152D02*
X39661906Y-27131485D01*
X39661906Y-27131485D02*
X39614287Y-27321961D01*
X39614287Y-27321961D02*
X39519049Y-27417200D01*
X39519049Y-27417200D02*
X39423811Y-27464819D01*
X39423811Y-27464819D02*
X39233335Y-27464819D01*
X39233335Y-27464819D02*
X39138097Y-27417200D01*
X39138097Y-27417200D02*
X39042859Y-27321961D01*
X39042859Y-27321961D02*
X38995240Y-27131485D01*
X38995240Y-27131485D02*
X38995240Y-26798152D01*
X38995240Y-26798152D02*
X39042859Y-26607676D01*
X39042859Y-26607676D02*
X39138097Y-26512438D01*
X39138097Y-26512438D02*
X39233335Y-26464819D01*
X40661906Y-27464819D02*
X40328573Y-26988628D01*
X40090478Y-27464819D02*
X40090478Y-26464819D01*
X40090478Y-26464819D02*
X40471430Y-26464819D01*
X40471430Y-26464819D02*
X40566668Y-26512438D01*
X40566668Y-26512438D02*
X40614287Y-26560057D01*
X40614287Y-26560057D02*
X40661906Y-26655295D01*
X40661906Y-26655295D02*
X40661906Y-26798152D01*
X40661906Y-26798152D02*
X40614287Y-26893390D01*
X40614287Y-26893390D02*
X40566668Y-26941009D01*
X40566668Y-26941009D02*
X40471430Y-26988628D01*
X40471430Y-26988628D02*
X40090478Y-26988628D01*
X41804764Y-27417200D02*
X41947621Y-27464819D01*
X41947621Y-27464819D02*
X42185716Y-27464819D01*
X42185716Y-27464819D02*
X42280954Y-27417200D01*
X42280954Y-27417200D02*
X42328573Y-27369580D01*
X42328573Y-27369580D02*
X42376192Y-27274342D01*
X42376192Y-27274342D02*
X42376192Y-27179104D01*
X42376192Y-27179104D02*
X42328573Y-27083866D01*
X42328573Y-27083866D02*
X42280954Y-27036247D01*
X42280954Y-27036247D02*
X42185716Y-26988628D01*
X42185716Y-26988628D02*
X41995240Y-26941009D01*
X41995240Y-26941009D02*
X41900002Y-26893390D01*
X41900002Y-26893390D02*
X41852383Y-26845771D01*
X41852383Y-26845771D02*
X41804764Y-26750533D01*
X41804764Y-26750533D02*
X41804764Y-26655295D01*
X41804764Y-26655295D02*
X41852383Y-26560057D01*
X41852383Y-26560057D02*
X41900002Y-26512438D01*
X41900002Y-26512438D02*
X41995240Y-26464819D01*
X41995240Y-26464819D02*
X42233335Y-26464819D01*
X42233335Y-26464819D02*
X42376192Y-26512438D01*
X42804764Y-27464819D02*
X42804764Y-26464819D01*
X43280954Y-27464819D02*
X43280954Y-26464819D01*
X43280954Y-26464819D02*
X43614287Y-27179104D01*
X43614287Y-27179104D02*
X43947620Y-26464819D01*
X43947620Y-26464819D02*
X43947620Y-27464819D01*
X44423811Y-27464819D02*
X44423811Y-26464819D01*
X45376191Y-27464819D02*
X44900001Y-27464819D01*
X44900001Y-27464819D02*
X44900001Y-26464819D01*
X45661906Y-27179104D02*
X46138096Y-27179104D01*
X45566668Y-27464819D02*
X45900001Y-26464819D01*
X45900001Y-26464819D02*
X46233334Y-27464819D01*
X47138096Y-27464819D02*
X46804763Y-26988628D01*
X46566668Y-27464819D02*
X46566668Y-26464819D01*
X46566668Y-26464819D02*
X46947620Y-26464819D01*
X46947620Y-26464819D02*
X47042858Y-26512438D01*
X47042858Y-26512438D02*
X47090477Y-26560057D01*
X47090477Y-26560057D02*
X47138096Y-26655295D01*
X47138096Y-26655295D02*
X47138096Y-26798152D01*
X47138096Y-26798152D02*
X47090477Y-26893390D01*
X47090477Y-26893390D02*
X47042858Y-26941009D01*
X47042858Y-26941009D02*
X46947620Y-26988628D01*
X46947620Y-26988628D02*
X46566668Y-26988628D01*
X47471430Y-27845771D02*
X47519049Y-27798152D01*
X47519049Y-27798152D02*
X47614287Y-27655295D01*
X47614287Y-27655295D02*
X47661906Y-27560057D01*
X47661906Y-27560057D02*
X47709525Y-27417200D01*
X47709525Y-27417200D02*
X47757144Y-27179104D01*
X47757144Y-27179104D02*
X47757144Y-26988628D01*
X47757144Y-26988628D02*
X47709525Y-26750533D01*
X47709525Y-26750533D02*
X47661906Y-26607676D01*
X47661906Y-26607676D02*
X47614287Y-26512438D01*
X47614287Y-26512438D02*
X47519049Y-26369580D01*
X47519049Y-26369580D02*
X47471430Y-26321961D01*
X44088095Y-11104819D02*
X44088095Y-11914342D01*
X44088095Y-11914342D02*
X44135714Y-12009580D01*
X44135714Y-12009580D02*
X44183333Y-12057200D01*
X44183333Y-12057200D02*
X44278571Y-12104819D01*
X44278571Y-12104819D02*
X44469047Y-12104819D01*
X44469047Y-12104819D02*
X44564285Y-12057200D01*
X44564285Y-12057200D02*
X44611904Y-12009580D01*
X44611904Y-12009580D02*
X44659523Y-11914342D01*
X44659523Y-11914342D02*
X44659523Y-11104819D01*
X45611904Y-11104819D02*
X45135714Y-11104819D01*
X45135714Y-11104819D02*
X45088095Y-11581009D01*
X45088095Y-11581009D02*
X45135714Y-11533390D01*
X45135714Y-11533390D02*
X45230952Y-11485771D01*
X45230952Y-11485771D02*
X45469047Y-11485771D01*
X45469047Y-11485771D02*
X45564285Y-11533390D01*
X45564285Y-11533390D02*
X45611904Y-11581009D01*
X45611904Y-11581009D02*
X45659523Y-11676247D01*
X45659523Y-11676247D02*
X45659523Y-11914342D01*
X45659523Y-11914342D02*
X45611904Y-12009580D01*
X45611904Y-12009580D02*
X45564285Y-12057200D01*
X45564285Y-12057200D02*
X45469047Y-12104819D01*
X45469047Y-12104819D02*
X45230952Y-12104819D01*
X45230952Y-12104819D02*
X45135714Y-12057200D01*
X45135714Y-12057200D02*
X45088095Y-12009580D01*
X23761905Y-12554819D02*
X23761905Y-11554819D01*
X23761905Y-11554819D02*
X24000000Y-11554819D01*
X24000000Y-11554819D02*
X24142857Y-11602438D01*
X24142857Y-11602438D02*
X24238095Y-11697676D01*
X24238095Y-11697676D02*
X24285714Y-11792914D01*
X24285714Y-11792914D02*
X24333333Y-11983390D01*
X24333333Y-11983390D02*
X24333333Y-12126247D01*
X24333333Y-12126247D02*
X24285714Y-12316723D01*
X24285714Y-12316723D02*
X24238095Y-12411961D01*
X24238095Y-12411961D02*
X24142857Y-12507200D01*
X24142857Y-12507200D02*
X24000000Y-12554819D01*
X24000000Y-12554819D02*
X23761905Y-12554819D01*
X24714286Y-11650057D02*
X24761905Y-11602438D01*
X24761905Y-11602438D02*
X24857143Y-11554819D01*
X24857143Y-11554819D02*
X25095238Y-11554819D01*
X25095238Y-11554819D02*
X25190476Y-11602438D01*
X25190476Y-11602438D02*
X25238095Y-11650057D01*
X25238095Y-11650057D02*
X25285714Y-11745295D01*
X25285714Y-11745295D02*
X25285714Y-11840533D01*
X25285714Y-11840533D02*
X25238095Y-11983390D01*
X25238095Y-11983390D02*
X24666667Y-12554819D01*
X24666667Y-12554819D02*
X25285714Y-12554819D01*
X30661905Y-16504819D02*
X30661905Y-15504819D01*
X30661905Y-15504819D02*
X30900000Y-15504819D01*
X30900000Y-15504819D02*
X31042857Y-15552438D01*
X31042857Y-15552438D02*
X31138095Y-15647676D01*
X31138095Y-15647676D02*
X31185714Y-15742914D01*
X31185714Y-15742914D02*
X31233333Y-15933390D01*
X31233333Y-15933390D02*
X31233333Y-16076247D01*
X31233333Y-16076247D02*
X31185714Y-16266723D01*
X31185714Y-16266723D02*
X31138095Y-16361961D01*
X31138095Y-16361961D02*
X31042857Y-16457200D01*
X31042857Y-16457200D02*
X30900000Y-16504819D01*
X30900000Y-16504819D02*
X30661905Y-16504819D01*
X32090476Y-15838152D02*
X32090476Y-16504819D01*
X31852381Y-15457200D02*
X31614286Y-16171485D01*
X31614286Y-16171485D02*
X32233333Y-16171485D01*
X48209580Y-15066666D02*
X48257200Y-15114285D01*
X48257200Y-15114285D02*
X48304819Y-15257142D01*
X48304819Y-15257142D02*
X48304819Y-15352380D01*
X48304819Y-15352380D02*
X48257200Y-15495237D01*
X48257200Y-15495237D02*
X48161961Y-15590475D01*
X48161961Y-15590475D02*
X48066723Y-15638094D01*
X48066723Y-15638094D02*
X47876247Y-15685713D01*
X47876247Y-15685713D02*
X47733390Y-15685713D01*
X47733390Y-15685713D02*
X47542914Y-15638094D01*
X47542914Y-15638094D02*
X47447676Y-15590475D01*
X47447676Y-15590475D02*
X47352438Y-15495237D01*
X47352438Y-15495237D02*
X47304819Y-15352380D01*
X47304819Y-15352380D02*
X47304819Y-15257142D01*
X47304819Y-15257142D02*
X47352438Y-15114285D01*
X47352438Y-15114285D02*
X47400057Y-15066666D01*
X47304819Y-14161904D02*
X47304819Y-14638094D01*
X47304819Y-14638094D02*
X47781009Y-14685713D01*
X47781009Y-14685713D02*
X47733390Y-14638094D01*
X47733390Y-14638094D02*
X47685771Y-14542856D01*
X47685771Y-14542856D02*
X47685771Y-14304761D01*
X47685771Y-14304761D02*
X47733390Y-14209523D01*
X47733390Y-14209523D02*
X47781009Y-14161904D01*
X47781009Y-14161904D02*
X47876247Y-14114285D01*
X47876247Y-14114285D02*
X48114342Y-14114285D01*
X48114342Y-14114285D02*
X48209580Y-14161904D01*
X48209580Y-14161904D02*
X48257200Y-14209523D01*
X48257200Y-14209523D02*
X48304819Y-14304761D01*
X48304819Y-14304761D02*
X48304819Y-14542856D01*
X48304819Y-14542856D02*
X48257200Y-14638094D01*
X48257200Y-14638094D02*
X48209580Y-14685713D01*
X8438095Y-14854819D02*
X8438095Y-15664342D01*
X8438095Y-15664342D02*
X8485714Y-15759580D01*
X8485714Y-15759580D02*
X8533333Y-15807200D01*
X8533333Y-15807200D02*
X8628571Y-15854819D01*
X8628571Y-15854819D02*
X8819047Y-15854819D01*
X8819047Y-15854819D02*
X8914285Y-15807200D01*
X8914285Y-15807200D02*
X8961904Y-15759580D01*
X8961904Y-15759580D02*
X9009523Y-15664342D01*
X9009523Y-15664342D02*
X9009523Y-14854819D01*
X9914285Y-14854819D02*
X9723809Y-14854819D01*
X9723809Y-14854819D02*
X9628571Y-14902438D01*
X9628571Y-14902438D02*
X9580952Y-14950057D01*
X9580952Y-14950057D02*
X9485714Y-15092914D01*
X9485714Y-15092914D02*
X9438095Y-15283390D01*
X9438095Y-15283390D02*
X9438095Y-15664342D01*
X9438095Y-15664342D02*
X9485714Y-15759580D01*
X9485714Y-15759580D02*
X9533333Y-15807200D01*
X9533333Y-15807200D02*
X9628571Y-15854819D01*
X9628571Y-15854819D02*
X9819047Y-15854819D01*
X9819047Y-15854819D02*
X9914285Y-15807200D01*
X9914285Y-15807200D02*
X9961904Y-15759580D01*
X9961904Y-15759580D02*
X10009523Y-15664342D01*
X10009523Y-15664342D02*
X10009523Y-15426247D01*
X10009523Y-15426247D02*
X9961904Y-15331009D01*
X9961904Y-15331009D02*
X9914285Y-15283390D01*
X9914285Y-15283390D02*
X9819047Y-15235771D01*
X9819047Y-15235771D02*
X9628571Y-15235771D01*
X9628571Y-15235771D02*
X9533333Y-15283390D01*
X9533333Y-15283390D02*
X9485714Y-15331009D01*
X9485714Y-15331009D02*
X9438095Y-15426247D01*
X35333333Y-16459580D02*
X35285714Y-16507200D01*
X35285714Y-16507200D02*
X35142857Y-16554819D01*
X35142857Y-16554819D02*
X35047619Y-16554819D01*
X35047619Y-16554819D02*
X34904762Y-16507200D01*
X34904762Y-16507200D02*
X34809524Y-16411961D01*
X34809524Y-16411961D02*
X34761905Y-16316723D01*
X34761905Y-16316723D02*
X34714286Y-16126247D01*
X34714286Y-16126247D02*
X34714286Y-15983390D01*
X34714286Y-15983390D02*
X34761905Y-15792914D01*
X34761905Y-15792914D02*
X34809524Y-15697676D01*
X34809524Y-15697676D02*
X34904762Y-15602438D01*
X34904762Y-15602438D02*
X35047619Y-15554819D01*
X35047619Y-15554819D02*
X35142857Y-15554819D01*
X35142857Y-15554819D02*
X35285714Y-15602438D01*
X35285714Y-15602438D02*
X35333333Y-15650057D01*
X35666667Y-15554819D02*
X36333333Y-15554819D01*
X36333333Y-15554819D02*
X35904762Y-16554819D01*
X8833333Y-18859580D02*
X8785714Y-18907200D01*
X8785714Y-18907200D02*
X8642857Y-18954819D01*
X8642857Y-18954819D02*
X8547619Y-18954819D01*
X8547619Y-18954819D02*
X8404762Y-18907200D01*
X8404762Y-18907200D02*
X8309524Y-18811961D01*
X8309524Y-18811961D02*
X8261905Y-18716723D01*
X8261905Y-18716723D02*
X8214286Y-18526247D01*
X8214286Y-18526247D02*
X8214286Y-18383390D01*
X8214286Y-18383390D02*
X8261905Y-18192914D01*
X8261905Y-18192914D02*
X8309524Y-18097676D01*
X8309524Y-18097676D02*
X8404762Y-18002438D01*
X8404762Y-18002438D02*
X8547619Y-17954819D01*
X8547619Y-17954819D02*
X8642857Y-17954819D01*
X8642857Y-17954819D02*
X8785714Y-18002438D01*
X8785714Y-18002438D02*
X8833333Y-18050057D01*
X9690476Y-17954819D02*
X9500000Y-17954819D01*
X9500000Y-17954819D02*
X9404762Y-18002438D01*
X9404762Y-18002438D02*
X9357143Y-18050057D01*
X9357143Y-18050057D02*
X9261905Y-18192914D01*
X9261905Y-18192914D02*
X9214286Y-18383390D01*
X9214286Y-18383390D02*
X9214286Y-18764342D01*
X9214286Y-18764342D02*
X9261905Y-18859580D01*
X9261905Y-18859580D02*
X9309524Y-18907200D01*
X9309524Y-18907200D02*
X9404762Y-18954819D01*
X9404762Y-18954819D02*
X9595238Y-18954819D01*
X9595238Y-18954819D02*
X9690476Y-18907200D01*
X9690476Y-18907200D02*
X9738095Y-18859580D01*
X9738095Y-18859580D02*
X9785714Y-18764342D01*
X9785714Y-18764342D02*
X9785714Y-18526247D01*
X9785714Y-18526247D02*
X9738095Y-18431009D01*
X9738095Y-18431009D02*
X9690476Y-18383390D01*
X9690476Y-18383390D02*
X9595238Y-18335771D01*
X9595238Y-18335771D02*
X9404762Y-18335771D01*
X9404762Y-18335771D02*
X9309524Y-18383390D01*
X9309524Y-18383390D02*
X9261905Y-18431009D01*
X9261905Y-18431009D02*
X9214286Y-18526247D01*
X18438095Y-15417319D02*
X18438095Y-16226842D01*
X18438095Y-16226842D02*
X18485714Y-16322080D01*
X18485714Y-16322080D02*
X18533333Y-16369700D01*
X18533333Y-16369700D02*
X18628571Y-16417319D01*
X18628571Y-16417319D02*
X18819047Y-16417319D01*
X18819047Y-16417319D02*
X18914285Y-16369700D01*
X18914285Y-16369700D02*
X18961904Y-16322080D01*
X18961904Y-16322080D02*
X19009523Y-16226842D01*
X19009523Y-16226842D02*
X19009523Y-15417319D01*
X20009523Y-16417319D02*
X19438095Y-16417319D01*
X19723809Y-16417319D02*
X19723809Y-15417319D01*
X19723809Y-15417319D02*
X19628571Y-15560176D01*
X19628571Y-15560176D02*
X19533333Y-15655414D01*
X19533333Y-15655414D02*
X19438095Y-15703033D01*
X3266666Y-9654819D02*
X3266666Y-10369104D01*
X3266666Y-10369104D02*
X3219047Y-10511961D01*
X3219047Y-10511961D02*
X3123809Y-10607200D01*
X3123809Y-10607200D02*
X2980952Y-10654819D01*
X2980952Y-10654819D02*
X2885714Y-10654819D01*
X4266666Y-10654819D02*
X3695238Y-10654819D01*
X3980952Y-10654819D02*
X3980952Y-9654819D01*
X3980952Y-9654819D02*
X3885714Y-9797676D01*
X3885714Y-9797676D02*
X3790476Y-9892914D01*
X3790476Y-9892914D02*
X3695238Y-9940533D01*
X22833333Y-15554819D02*
X22500000Y-15078628D01*
X22261905Y-15554819D02*
X22261905Y-14554819D01*
X22261905Y-14554819D02*
X22642857Y-14554819D01*
X22642857Y-14554819D02*
X22738095Y-14602438D01*
X22738095Y-14602438D02*
X22785714Y-14650057D01*
X22785714Y-14650057D02*
X22833333Y-14745295D01*
X22833333Y-14745295D02*
X22833333Y-14888152D01*
X22833333Y-14888152D02*
X22785714Y-14983390D01*
X22785714Y-14983390D02*
X22738095Y-15031009D01*
X22738095Y-15031009D02*
X22642857Y-15078628D01*
X22642857Y-15078628D02*
X22261905Y-15078628D01*
X23785714Y-15554819D02*
X23214286Y-15554819D01*
X23500000Y-15554819D02*
X23500000Y-14554819D01*
X23500000Y-14554819D02*
X23404762Y-14697676D01*
X23404762Y-14697676D02*
X23309524Y-14792914D01*
X23309524Y-14792914D02*
X23214286Y-14840533D01*
X22833333Y-17854819D02*
X22500000Y-17378628D01*
X22261905Y-17854819D02*
X22261905Y-16854819D01*
X22261905Y-16854819D02*
X22642857Y-16854819D01*
X22642857Y-16854819D02*
X22738095Y-16902438D01*
X22738095Y-16902438D02*
X22785714Y-16950057D01*
X22785714Y-16950057D02*
X22833333Y-17045295D01*
X22833333Y-17045295D02*
X22833333Y-17188152D01*
X22833333Y-17188152D02*
X22785714Y-17283390D01*
X22785714Y-17283390D02*
X22738095Y-17331009D01*
X22738095Y-17331009D02*
X22642857Y-17378628D01*
X22642857Y-17378628D02*
X22261905Y-17378628D01*
X23404762Y-17283390D02*
X23309524Y-17235771D01*
X23309524Y-17235771D02*
X23261905Y-17188152D01*
X23261905Y-17188152D02*
X23214286Y-17092914D01*
X23214286Y-17092914D02*
X23214286Y-17045295D01*
X23214286Y-17045295D02*
X23261905Y-16950057D01*
X23261905Y-16950057D02*
X23309524Y-16902438D01*
X23309524Y-16902438D02*
X23404762Y-16854819D01*
X23404762Y-16854819D02*
X23595238Y-16854819D01*
X23595238Y-16854819D02*
X23690476Y-16902438D01*
X23690476Y-16902438D02*
X23738095Y-16950057D01*
X23738095Y-16950057D02*
X23785714Y-17045295D01*
X23785714Y-17045295D02*
X23785714Y-17092914D01*
X23785714Y-17092914D02*
X23738095Y-17188152D01*
X23738095Y-17188152D02*
X23690476Y-17235771D01*
X23690476Y-17235771D02*
X23595238Y-17283390D01*
X23595238Y-17283390D02*
X23404762Y-17283390D01*
X23404762Y-17283390D02*
X23309524Y-17331009D01*
X23309524Y-17331009D02*
X23261905Y-17378628D01*
X23261905Y-17378628D02*
X23214286Y-17473866D01*
X23214286Y-17473866D02*
X23214286Y-17664342D01*
X23214286Y-17664342D02*
X23261905Y-17759580D01*
X23261905Y-17759580D02*
X23309524Y-17807200D01*
X23309524Y-17807200D02*
X23404762Y-17854819D01*
X23404762Y-17854819D02*
X23595238Y-17854819D01*
X23595238Y-17854819D02*
X23690476Y-17807200D01*
X23690476Y-17807200D02*
X23738095Y-17759580D01*
X23738095Y-17759580D02*
X23785714Y-17664342D01*
X23785714Y-17664342D02*
X23785714Y-17473866D01*
X23785714Y-17473866D02*
X23738095Y-17378628D01*
X23738095Y-17378628D02*
X23690476Y-17331009D01*
X23690476Y-17331009D02*
X23595238Y-17283390D01*
X48354819Y-12042857D02*
X47878628Y-12376190D01*
X48354819Y-12614285D02*
X47354819Y-12614285D01*
X47354819Y-12614285D02*
X47354819Y-12233333D01*
X47354819Y-12233333D02*
X47402438Y-12138095D01*
X47402438Y-12138095D02*
X47450057Y-12090476D01*
X47450057Y-12090476D02*
X47545295Y-12042857D01*
X47545295Y-12042857D02*
X47688152Y-12042857D01*
X47688152Y-12042857D02*
X47783390Y-12090476D01*
X47783390Y-12090476D02*
X47831009Y-12138095D01*
X47831009Y-12138095D02*
X47878628Y-12233333D01*
X47878628Y-12233333D02*
X47878628Y-12614285D01*
X48354819Y-11090476D02*
X48354819Y-11661904D01*
X48354819Y-11376190D02*
X47354819Y-11376190D01*
X47354819Y-11376190D02*
X47497676Y-11471428D01*
X47497676Y-11471428D02*
X47592914Y-11566666D01*
X47592914Y-11566666D02*
X47640533Y-11661904D01*
X47354819Y-10757142D02*
X47354819Y-10138095D01*
X47354819Y-10138095D02*
X47735771Y-10471428D01*
X47735771Y-10471428D02*
X47735771Y-10328571D01*
X47735771Y-10328571D02*
X47783390Y-10233333D01*
X47783390Y-10233333D02*
X47831009Y-10185714D01*
X47831009Y-10185714D02*
X47926247Y-10138095D01*
X47926247Y-10138095D02*
X48164342Y-10138095D01*
X48164342Y-10138095D02*
X48259580Y-10185714D01*
X48259580Y-10185714D02*
X48307200Y-10233333D01*
X48307200Y-10233333D02*
X48354819Y-10328571D01*
X48354819Y-10328571D02*
X48354819Y-10614285D01*
X48354819Y-10614285D02*
X48307200Y-10709523D01*
X48307200Y-10709523D02*
X48259580Y-10757142D01*
X38733333Y-16559580D02*
X38685714Y-16607200D01*
X38685714Y-16607200D02*
X38542857Y-16654819D01*
X38542857Y-16654819D02*
X38447619Y-16654819D01*
X38447619Y-16654819D02*
X38304762Y-16607200D01*
X38304762Y-16607200D02*
X38209524Y-16511961D01*
X38209524Y-16511961D02*
X38161905Y-16416723D01*
X38161905Y-16416723D02*
X38114286Y-16226247D01*
X38114286Y-16226247D02*
X38114286Y-16083390D01*
X38114286Y-16083390D02*
X38161905Y-15892914D01*
X38161905Y-15892914D02*
X38209524Y-15797676D01*
X38209524Y-15797676D02*
X38304762Y-15702438D01*
X38304762Y-15702438D02*
X38447619Y-15654819D01*
X38447619Y-15654819D02*
X38542857Y-15654819D01*
X38542857Y-15654819D02*
X38685714Y-15702438D01*
X38685714Y-15702438D02*
X38733333Y-15750057D01*
X39066667Y-15654819D02*
X39685714Y-15654819D01*
X39685714Y-15654819D02*
X39352381Y-16035771D01*
X39352381Y-16035771D02*
X39495238Y-16035771D01*
X39495238Y-16035771D02*
X39590476Y-16083390D01*
X39590476Y-16083390D02*
X39638095Y-16131009D01*
X39638095Y-16131009D02*
X39685714Y-16226247D01*
X39685714Y-16226247D02*
X39685714Y-16464342D01*
X39685714Y-16464342D02*
X39638095Y-16559580D01*
X39638095Y-16559580D02*
X39590476Y-16607200D01*
X39590476Y-16607200D02*
X39495238Y-16654819D01*
X39495238Y-16654819D02*
X39209524Y-16654819D01*
X39209524Y-16654819D02*
X39114286Y-16607200D01*
X39114286Y-16607200D02*
X39066667Y-16559580D01*
X13229761Y-15400057D02*
X13134523Y-15352438D01*
X13134523Y-15352438D02*
X13039285Y-15257200D01*
X13039285Y-15257200D02*
X12896428Y-15114342D01*
X12896428Y-15114342D02*
X12801190Y-15066723D01*
X12801190Y-15066723D02*
X12705952Y-15066723D01*
X12753571Y-15304819D02*
X12658333Y-15257200D01*
X12658333Y-15257200D02*
X12563095Y-15161961D01*
X12563095Y-15161961D02*
X12515476Y-14971485D01*
X12515476Y-14971485D02*
X12515476Y-14638152D01*
X12515476Y-14638152D02*
X12563095Y-14447676D01*
X12563095Y-14447676D02*
X12658333Y-14352438D01*
X12658333Y-14352438D02*
X12753571Y-14304819D01*
X12753571Y-14304819D02*
X12944047Y-14304819D01*
X12944047Y-14304819D02*
X13039285Y-14352438D01*
X13039285Y-14352438D02*
X13134523Y-14447676D01*
X13134523Y-14447676D02*
X13182142Y-14638152D01*
X13182142Y-14638152D02*
X13182142Y-14971485D01*
X13182142Y-14971485D02*
X13134523Y-15161961D01*
X13134523Y-15161961D02*
X13039285Y-15257200D01*
X13039285Y-15257200D02*
X12944047Y-15304819D01*
X12944047Y-15304819D02*
X12753571Y-15304819D01*
X14134523Y-15304819D02*
X13563095Y-15304819D01*
X13848809Y-15304819D02*
X13848809Y-14304819D01*
X13848809Y-14304819D02*
X13753571Y-14447676D01*
X13753571Y-14447676D02*
X13658333Y-14542914D01*
X13658333Y-14542914D02*
X13563095Y-14590533D01*
X30438095Y-12454819D02*
X30438095Y-13264342D01*
X30438095Y-13264342D02*
X30485714Y-13359580D01*
X30485714Y-13359580D02*
X30533333Y-13407200D01*
X30533333Y-13407200D02*
X30628571Y-13454819D01*
X30628571Y-13454819D02*
X30819047Y-13454819D01*
X30819047Y-13454819D02*
X30914285Y-13407200D01*
X30914285Y-13407200D02*
X30961904Y-13359580D01*
X30961904Y-13359580D02*
X31009523Y-13264342D01*
X31009523Y-13264342D02*
X31009523Y-12454819D01*
X31390476Y-12454819D02*
X32009523Y-12454819D01*
X32009523Y-12454819D02*
X31676190Y-12835771D01*
X31676190Y-12835771D02*
X31819047Y-12835771D01*
X31819047Y-12835771D02*
X31914285Y-12883390D01*
X31914285Y-12883390D02*
X31961904Y-12931009D01*
X31961904Y-12931009D02*
X32009523Y-13026247D01*
X32009523Y-13026247D02*
X32009523Y-13264342D01*
X32009523Y-13264342D02*
X31961904Y-13359580D01*
X31961904Y-13359580D02*
X31914285Y-13407200D01*
X31914285Y-13407200D02*
X31819047Y-13454819D01*
X31819047Y-13454819D02*
X31533333Y-13454819D01*
X31533333Y-13454819D02*
X31438095Y-13407200D01*
X31438095Y-13407200D02*
X31390476Y-13359580D01*
X26554819Y-16166666D02*
X26078628Y-16499999D01*
X26554819Y-16738094D02*
X25554819Y-16738094D01*
X25554819Y-16738094D02*
X25554819Y-16357142D01*
X25554819Y-16357142D02*
X25602438Y-16261904D01*
X25602438Y-16261904D02*
X25650057Y-16214285D01*
X25650057Y-16214285D02*
X25745295Y-16166666D01*
X25745295Y-16166666D02*
X25888152Y-16166666D01*
X25888152Y-16166666D02*
X25983390Y-16214285D01*
X25983390Y-16214285D02*
X26031009Y-16261904D01*
X26031009Y-16261904D02*
X26078628Y-16357142D01*
X26078628Y-16357142D02*
X26078628Y-16738094D01*
X25650057Y-15785713D02*
X25602438Y-15738094D01*
X25602438Y-15738094D02*
X25554819Y-15642856D01*
X25554819Y-15642856D02*
X25554819Y-15404761D01*
X25554819Y-15404761D02*
X25602438Y-15309523D01*
X25602438Y-15309523D02*
X25650057Y-15261904D01*
X25650057Y-15261904D02*
X25745295Y-15214285D01*
X25745295Y-15214285D02*
X25840533Y-15214285D01*
X25840533Y-15214285D02*
X25983390Y-15261904D01*
X25983390Y-15261904D02*
X26554819Y-15833332D01*
X26554819Y-15833332D02*
X26554819Y-15214285D01*
X35433333Y-10654819D02*
X35100000Y-10178628D01*
X34861905Y-10654819D02*
X34861905Y-9654819D01*
X34861905Y-9654819D02*
X35242857Y-9654819D01*
X35242857Y-9654819D02*
X35338095Y-9702438D01*
X35338095Y-9702438D02*
X35385714Y-9750057D01*
X35385714Y-9750057D02*
X35433333Y-9845295D01*
X35433333Y-9845295D02*
X35433333Y-9988152D01*
X35433333Y-9988152D02*
X35385714Y-10083390D01*
X35385714Y-10083390D02*
X35338095Y-10131009D01*
X35338095Y-10131009D02*
X35242857Y-10178628D01*
X35242857Y-10178628D02*
X34861905Y-10178628D01*
X36338095Y-9654819D02*
X35861905Y-9654819D01*
X35861905Y-9654819D02*
X35814286Y-10131009D01*
X35814286Y-10131009D02*
X35861905Y-10083390D01*
X35861905Y-10083390D02*
X35957143Y-10035771D01*
X35957143Y-10035771D02*
X36195238Y-10035771D01*
X36195238Y-10035771D02*
X36290476Y-10083390D01*
X36290476Y-10083390D02*
X36338095Y-10131009D01*
X36338095Y-10131009D02*
X36385714Y-10226247D01*
X36385714Y-10226247D02*
X36385714Y-10464342D01*
X36385714Y-10464342D02*
X36338095Y-10559580D01*
X36338095Y-10559580D02*
X36290476Y-10607200D01*
X36290476Y-10607200D02*
X36195238Y-10654819D01*
X36195238Y-10654819D02*
X35957143Y-10654819D01*
X35957143Y-10654819D02*
X35861905Y-10607200D01*
X35861905Y-10607200D02*
X35814286Y-10559580D01*
X34954819Y-13066666D02*
X34478628Y-13399999D01*
X34954819Y-13638094D02*
X33954819Y-13638094D01*
X33954819Y-13638094D02*
X33954819Y-13257142D01*
X33954819Y-13257142D02*
X34002438Y-13161904D01*
X34002438Y-13161904D02*
X34050057Y-13114285D01*
X34050057Y-13114285D02*
X34145295Y-13066666D01*
X34145295Y-13066666D02*
X34288152Y-13066666D01*
X34288152Y-13066666D02*
X34383390Y-13114285D01*
X34383390Y-13114285D02*
X34431009Y-13161904D01*
X34431009Y-13161904D02*
X34478628Y-13257142D01*
X34478628Y-13257142D02*
X34478628Y-13638094D01*
X34288152Y-12209523D02*
X34954819Y-12209523D01*
X33907200Y-12447618D02*
X34621485Y-12685713D01*
X34621485Y-12685713D02*
X34621485Y-12066666D01*
X44257142Y-14754819D02*
X43923809Y-14278628D01*
X43685714Y-14754819D02*
X43685714Y-13754819D01*
X43685714Y-13754819D02*
X44066666Y-13754819D01*
X44066666Y-13754819D02*
X44161904Y-13802438D01*
X44161904Y-13802438D02*
X44209523Y-13850057D01*
X44209523Y-13850057D02*
X44257142Y-13945295D01*
X44257142Y-13945295D02*
X44257142Y-14088152D01*
X44257142Y-14088152D02*
X44209523Y-14183390D01*
X44209523Y-14183390D02*
X44161904Y-14231009D01*
X44161904Y-14231009D02*
X44066666Y-14278628D01*
X44066666Y-14278628D02*
X43685714Y-14278628D01*
X45209523Y-14754819D02*
X44638095Y-14754819D01*
X44923809Y-14754819D02*
X44923809Y-13754819D01*
X44923809Y-13754819D02*
X44828571Y-13897676D01*
X44828571Y-13897676D02*
X44733333Y-13992914D01*
X44733333Y-13992914D02*
X44638095Y-14040533D01*
X46161904Y-14754819D02*
X45590476Y-14754819D01*
X45876190Y-14754819D02*
X45876190Y-13754819D01*
X45876190Y-13754819D02*
X45780952Y-13897676D01*
X45780952Y-13897676D02*
X45685714Y-13992914D01*
X45685714Y-13992914D02*
X45590476Y-14040533D01*
X39038095Y-12454819D02*
X39038095Y-13264342D01*
X39038095Y-13264342D02*
X39085714Y-13359580D01*
X39085714Y-13359580D02*
X39133333Y-13407200D01*
X39133333Y-13407200D02*
X39228571Y-13454819D01*
X39228571Y-13454819D02*
X39419047Y-13454819D01*
X39419047Y-13454819D02*
X39514285Y-13407200D01*
X39514285Y-13407200D02*
X39561904Y-13359580D01*
X39561904Y-13359580D02*
X39609523Y-13264342D01*
X39609523Y-13264342D02*
X39609523Y-12454819D01*
X40038095Y-12550057D02*
X40085714Y-12502438D01*
X40085714Y-12502438D02*
X40180952Y-12454819D01*
X40180952Y-12454819D02*
X40419047Y-12454819D01*
X40419047Y-12454819D02*
X40514285Y-12502438D01*
X40514285Y-12502438D02*
X40561904Y-12550057D01*
X40561904Y-12550057D02*
X40609523Y-12645295D01*
X40609523Y-12645295D02*
X40609523Y-12740533D01*
X40609523Y-12740533D02*
X40561904Y-12883390D01*
X40561904Y-12883390D02*
X39990476Y-13454819D01*
X39990476Y-13454819D02*
X40609523Y-13454819D01*
X8933333Y-12529819D02*
X8600000Y-12053628D01*
X8361905Y-12529819D02*
X8361905Y-11529819D01*
X8361905Y-11529819D02*
X8742857Y-11529819D01*
X8742857Y-11529819D02*
X8838095Y-11577438D01*
X8838095Y-11577438D02*
X8885714Y-11625057D01*
X8885714Y-11625057D02*
X8933333Y-11720295D01*
X8933333Y-11720295D02*
X8933333Y-11863152D01*
X8933333Y-11863152D02*
X8885714Y-11958390D01*
X8885714Y-11958390D02*
X8838095Y-12006009D01*
X8838095Y-12006009D02*
X8742857Y-12053628D01*
X8742857Y-12053628D02*
X8361905Y-12053628D01*
X9409524Y-12529819D02*
X9600000Y-12529819D01*
X9600000Y-12529819D02*
X9695238Y-12482200D01*
X9695238Y-12482200D02*
X9742857Y-12434580D01*
X9742857Y-12434580D02*
X9838095Y-12291723D01*
X9838095Y-12291723D02*
X9885714Y-12101247D01*
X9885714Y-12101247D02*
X9885714Y-11720295D01*
X9885714Y-11720295D02*
X9838095Y-11625057D01*
X9838095Y-11625057D02*
X9790476Y-11577438D01*
X9790476Y-11577438D02*
X9695238Y-11529819D01*
X9695238Y-11529819D02*
X9504762Y-11529819D01*
X9504762Y-11529819D02*
X9409524Y-11577438D01*
X9409524Y-11577438D02*
X9361905Y-11625057D01*
X9361905Y-11625057D02*
X9314286Y-11720295D01*
X9314286Y-11720295D02*
X9314286Y-11958390D01*
X9314286Y-11958390D02*
X9361905Y-12053628D01*
X9361905Y-12053628D02*
X9409524Y-12101247D01*
X9409524Y-12101247D02*
X9504762Y-12148866D01*
X9504762Y-12148866D02*
X9695238Y-12148866D01*
X9695238Y-12148866D02*
X9790476Y-12101247D01*
X9790476Y-12101247D02*
X9838095Y-12053628D01*
X9838095Y-12053628D02*
X9885714Y-11958390D01*
X12661905Y-12254819D02*
X12661905Y-11254819D01*
X12661905Y-11254819D02*
X12900000Y-11254819D01*
X12900000Y-11254819D02*
X13042857Y-11302438D01*
X13042857Y-11302438D02*
X13138095Y-11397676D01*
X13138095Y-11397676D02*
X13185714Y-11492914D01*
X13185714Y-11492914D02*
X13233333Y-11683390D01*
X13233333Y-11683390D02*
X13233333Y-11826247D01*
X13233333Y-11826247D02*
X13185714Y-12016723D01*
X13185714Y-12016723D02*
X13138095Y-12111961D01*
X13138095Y-12111961D02*
X13042857Y-12207200D01*
X13042857Y-12207200D02*
X12900000Y-12254819D01*
X12900000Y-12254819D02*
X12661905Y-12254819D01*
X14185714Y-12254819D02*
X13614286Y-12254819D01*
X13900000Y-12254819D02*
X13900000Y-11254819D01*
X13900000Y-11254819D02*
X13804762Y-11397676D01*
X13804762Y-11397676D02*
X13709524Y-11492914D01*
X13709524Y-11492914D02*
X13614286Y-11540533D01*
X16459580Y-15166666D02*
X16507200Y-15214285D01*
X16507200Y-15214285D02*
X16554819Y-15357142D01*
X16554819Y-15357142D02*
X16554819Y-15452380D01*
X16554819Y-15452380D02*
X16507200Y-15595237D01*
X16507200Y-15595237D02*
X16411961Y-15690475D01*
X16411961Y-15690475D02*
X16316723Y-15738094D01*
X16316723Y-15738094D02*
X16126247Y-15785713D01*
X16126247Y-15785713D02*
X15983390Y-15785713D01*
X15983390Y-15785713D02*
X15792914Y-15738094D01*
X15792914Y-15738094D02*
X15697676Y-15690475D01*
X15697676Y-15690475D02*
X15602438Y-15595237D01*
X15602438Y-15595237D02*
X15554819Y-15452380D01*
X15554819Y-15452380D02*
X15554819Y-15357142D01*
X15554819Y-15357142D02*
X15602438Y-15214285D01*
X15602438Y-15214285D02*
X15650057Y-15166666D01*
X16554819Y-14214285D02*
X16554819Y-14785713D01*
X16554819Y-14499999D02*
X15554819Y-14499999D01*
X15554819Y-14499999D02*
X15697676Y-14595237D01*
X15697676Y-14595237D02*
X15792914Y-14690475D01*
X15792914Y-14690475D02*
X15840533Y-14785713D01*
X37159580Y-13166666D02*
X37207200Y-13214285D01*
X37207200Y-13214285D02*
X37254819Y-13357142D01*
X37254819Y-13357142D02*
X37254819Y-13452380D01*
X37254819Y-13452380D02*
X37207200Y-13595237D01*
X37207200Y-13595237D02*
X37111961Y-13690475D01*
X37111961Y-13690475D02*
X37016723Y-13738094D01*
X37016723Y-13738094D02*
X36826247Y-13785713D01*
X36826247Y-13785713D02*
X36683390Y-13785713D01*
X36683390Y-13785713D02*
X36492914Y-13738094D01*
X36492914Y-13738094D02*
X36397676Y-13690475D01*
X36397676Y-13690475D02*
X36302438Y-13595237D01*
X36302438Y-13595237D02*
X36254819Y-13452380D01*
X36254819Y-13452380D02*
X36254819Y-13357142D01*
X36254819Y-13357142D02*
X36302438Y-13214285D01*
X36302438Y-13214285D02*
X36350057Y-13166666D01*
X36350057Y-12785713D02*
X36302438Y-12738094D01*
X36302438Y-12738094D02*
X36254819Y-12642856D01*
X36254819Y-12642856D02*
X36254819Y-12404761D01*
X36254819Y-12404761D02*
X36302438Y-12309523D01*
X36302438Y-12309523D02*
X36350057Y-12261904D01*
X36350057Y-12261904D02*
X36445295Y-12214285D01*
X36445295Y-12214285D02*
X36540533Y-12214285D01*
X36540533Y-12214285D02*
X36683390Y-12261904D01*
X36683390Y-12261904D02*
X37254819Y-12833332D01*
X37254819Y-12833332D02*
X37254819Y-12214285D01*
D11*
%TO.C,U5*%
X45150000Y-5360000D02*
X45950000Y-5360000D01*
X45150000Y-5360000D02*
X44350000Y-5360000D01*
X45150000Y-2240000D02*
X45950000Y-2240000D01*
X45150000Y-2240000D02*
X43350000Y-2240000D01*
%TO.C,D2*%
X20890000Y-1300000D02*
X20890000Y-4600000D01*
X20890000Y-1300000D02*
X26400000Y-1300000D01*
X20890000Y-4600000D02*
X26400000Y-4600000D01*
%TO.C,D4*%
X29290000Y-6850000D02*
X29290000Y-8850000D01*
X29290000Y-6850000D02*
X33300000Y-6850000D01*
X29290000Y-8850000D02*
X33300000Y-8850000D01*
%TO.C,C5*%
X49035000Y-7038748D02*
X49035000Y-7561252D01*
X47565000Y-7038748D02*
X47565000Y-7561252D01*
%TO.C,D3*%
X27040000Y-8422500D02*
X28960000Y-8422500D01*
X28960000Y-8422500D02*
X28960000Y-5737500D01*
X27040000Y-5737500D02*
X27040000Y-8422500D01*
%TO.C,U6*%
X9100000Y-3640000D02*
X7300000Y-3640000D01*
X9100000Y-3640000D02*
X9900000Y-3640000D01*
X9100000Y-6760000D02*
X8300000Y-6760000D01*
X9100000Y-6760000D02*
X9900000Y-6760000D01*
%TO.C,C7*%
X35538748Y-7065000D02*
X36061252Y-7065000D01*
X35538748Y-8535000D02*
X36061252Y-8535000D01*
%TO.C,C6*%
X9088748Y-7265000D02*
X9611252Y-7265000D01*
X9088748Y-8735000D02*
X9611252Y-8735000D01*
%TO.C,U1*%
X17415000Y-6200000D02*
X17415000Y-8000000D01*
X17415000Y-6200000D02*
X17415000Y-5400000D01*
X20535000Y-6200000D02*
X20535000Y-7000000D01*
X20535000Y-6200000D02*
X20535000Y-5400000D01*
%TO.C,J1*%
X4780000Y-1375000D02*
X3380000Y-1375000D01*
X1280000Y-1375000D02*
X280000Y-1375000D01*
X6380000Y-3475000D02*
X6380000Y-6675000D01*
X6180000Y-3475000D02*
X6180000Y-3375000D01*
X6180000Y-3475000D02*
X6380000Y-3475000D01*
X3380000Y-8975000D02*
X4780000Y-8975000D01*
X1280000Y-8975000D02*
X280000Y-8975000D01*
%TO.C,R1*%
X22777064Y-6535000D02*
X22322936Y-6535000D01*
X22777064Y-5065000D02*
X22322936Y-5065000D01*
%TO.C,R8*%
X22310436Y-7065000D02*
X22764564Y-7065000D01*
X22310436Y-8535000D02*
X22764564Y-8535000D01*
%TO.C,R13*%
X49035000Y-3572936D02*
X49035000Y-4027064D01*
X47565000Y-3572936D02*
X47565000Y-4027064D01*
%TO.C,C3*%
X39088748Y-8535000D02*
X39611252Y-8535000D01*
X39088748Y-7065000D02*
X39611252Y-7065000D01*
%TO.C,Q1*%
X13137500Y-3640000D02*
X11462500Y-3640000D01*
X13137500Y-3640000D02*
X13787500Y-3640000D01*
X13137500Y-6760000D02*
X12487500Y-6760000D01*
X13137500Y-6760000D02*
X13787500Y-6760000D01*
%TO.C,U3*%
X31350000Y-6560000D02*
X33150000Y-6560000D01*
X31350000Y-6560000D02*
X30550000Y-6560000D01*
X31350000Y-3440000D02*
X32150000Y-3440000D01*
X31350000Y-3440000D02*
X30550000Y-3440000D01*
%TO.C,R2*%
X25315000Y-6927064D02*
X25315000Y-6472936D01*
X26785000Y-6927064D02*
X26785000Y-6472936D01*
%TO.C,R5*%
X35222936Y-1565000D02*
X35677064Y-1565000D01*
X35222936Y-3035000D02*
X35677064Y-3035000D01*
%TO.C,BT1*%
X52040000Y-2190000D02*
X50890000Y-2190000D01*
X50890000Y-2190000D02*
X50890000Y-3240000D01*
X50890000Y-3240000D02*
X49900000Y-3240000D01*
X54010000Y-3360000D02*
X54010000Y-6240000D01*
X52040000Y-7410000D02*
X50890000Y-7410000D01*
X50890000Y-7410000D02*
X50890000Y-6360000D01*
%TO.C,R4*%
X33715000Y-5227064D02*
X33715000Y-4772936D01*
X35185000Y-5227064D02*
X35185000Y-4772936D01*
%TO.C,R11*%
X45160436Y-5865000D02*
X45614564Y-5865000D01*
X45160436Y-7335000D02*
X45614564Y-7335000D01*
%TO.C,U2*%
X39550000Y-3440000D02*
X38750000Y-3440000D01*
X39550000Y-3440000D02*
X40350000Y-3440000D01*
X39550000Y-6560000D02*
X38750000Y-6560000D01*
X39550000Y-6560000D02*
X41350000Y-6560000D01*
%TO.C,R9*%
X9135436Y-1515000D02*
X9589564Y-1515000D01*
X9135436Y-2985000D02*
X9589564Y-2985000D01*
%TO.C,D1*%
X16110000Y-3250000D02*
X16110000Y-1250000D01*
X16110000Y-3250000D02*
X12100000Y-3250000D01*
X16110000Y-1250000D02*
X12100000Y-1250000D01*
%TO.C,C1*%
X16860000Y-4988748D02*
X16860000Y-5511252D01*
X15390000Y-4988748D02*
X15390000Y-5511252D01*
%TO.C,C2*%
X37185000Y-4738748D02*
X37185000Y-5261252D01*
X35715000Y-4738748D02*
X35715000Y-5261252D01*
%TD*%
M02*
