%TF.GenerationSoftware,KiCad,Pcbnew,7.0.8*%
%TF.CreationDate,2024-01-10T09:36:00+11:00*%
%TF.ProjectId,cphp82001-pcb,63706870-3832-4303-9031-2d7063622e6b,2.2*%
%TF.SameCoordinates,Original*%
%TF.FileFunction,Profile,NP*%
%FSLAX46Y46*%
G04 Gerber Fmt 4.6, Leading zero omitted, Abs format (unit mm)*
G04 Created by KiCad (PCBNEW 7.0.8) date 2024-01-10 09:36:00*
%MOMM*%
%LPD*%
G01*
G04 APERTURE LIST*
%TA.AperFunction,Profile*%
%ADD10C,0.100000*%
%TD*%
G04 APERTURE END LIST*
D10*
X55000000Y-11000000D02*
X55000000Y-34000000D01*
X56000000Y-1000000D02*
G75*
G03*
X55000000Y0I-1000000J0D01*
G01*
X0Y-43000000D02*
X0Y-35000000D01*
X1000000Y-11000000D02*
X1000000Y-34000000D01*
X0Y-35000000D02*
G75*
G03*
X1000000Y-34000000I0J1000000D01*
G01*
X44000000Y-44000000D02*
G75*
G03*
X43000000Y-43000000I-1000000J0D01*
G01*
X0Y-10000000D02*
X0Y-1000000D01*
X56000000Y-1000000D02*
X56000000Y-10000000D01*
X55000000Y0D02*
X44000000Y1D01*
X55000000Y-44000000D02*
G75*
G03*
X56000000Y-43000000I0J1000000D01*
G01*
X1000000Y0D02*
G75*
G03*
X0Y-1000000I0J-1000000D01*
G01*
X55000000Y-44000000D02*
X44000000Y-44000000D01*
X1000000Y-11000000D02*
G75*
G03*
X0Y-10000000I-1000000J0D01*
G01*
X43000000Y-1000000D02*
G75*
G03*
X44000000Y1I0J1000000D01*
G01*
X28500000Y-999999D02*
X43000000Y-999999D01*
X13000001Y1D02*
G75*
G03*
X14000000Y-999999I999999J-1D01*
G01*
X55000000Y-34000000D02*
G75*
G03*
X56000000Y-35000000I1000000J0D01*
G01*
X13000000Y1D02*
X1000000Y0D01*
X28500000Y-43000000D02*
X14000000Y-43000000D01*
X13000000Y-44000000D02*
X1000000Y-44000000D01*
X28500000Y-43000000D02*
X43000000Y-43000000D01*
X0Y-43000000D02*
G75*
G03*
X1000000Y-44000000I1000000J0D01*
G01*
X56000000Y-10000000D02*
G75*
G03*
X55000000Y-11000000I0J-1000000D01*
G01*
X56000000Y-35000000D02*
X56000000Y-43000000D01*
X14000000Y-43000000D02*
G75*
G03*
X13000000Y-44000000I0J-1000000D01*
G01*
X28500000Y-999999D02*
X14000000Y-999999D01*
M02*
