%TF.GenerationSoftware,KiCad,Pcbnew,7.0.10*%
%TF.CreationDate,2024-01-23T14:54:21+11:00*%
%TF.ProjectId,cphp82001-pcb,63706870-3832-4303-9031-2d7063622e6b,3.1*%
%TF.SameCoordinates,Original*%
%TF.FileFunction,Legend,Bot*%
%TF.FilePolarity,Positive*%
%FSLAX46Y46*%
G04 Gerber Fmt 4.6, Leading zero omitted, Abs format (unit mm)*
G04 Created by KiCad (PCBNEW 7.0.10) date 2024-01-23 14:54:21*
%MOMM*%
%LPD*%
G01*
G04 APERTURE LIST*
%ADD10C,0.150000*%
%ADD11C,1.000000*%
%ADD12C,0.120000*%
%ADD13C,0.250000*%
%ADD14C,0.010000*%
G04 APERTURE END LIST*
D10*
X30000000Y-12000000D02*
X44500000Y-12000000D01*
X44500000Y-15000000D01*
X30000000Y-15000000D01*
X30000000Y-12000000D01*
G36*
X30000000Y-12000000D02*
G01*
X44500000Y-12000000D01*
X44500000Y-15000000D01*
X30000000Y-15000000D01*
X30000000Y-12000000D01*
G37*
D11*
X9904761Y-14456333D02*
X6095238Y-14456333D01*
D12*
X43773433Y-11303664D02*
X43811529Y-11341760D01*
X43811529Y-11341760D02*
X43925814Y-11379855D01*
X43925814Y-11379855D02*
X44002005Y-11379855D01*
X44002005Y-11379855D02*
X44116291Y-11341760D01*
X44116291Y-11341760D02*
X44192481Y-11265569D01*
X44192481Y-11265569D02*
X44230576Y-11189379D01*
X44230576Y-11189379D02*
X44268672Y-11036998D01*
X44268672Y-11036998D02*
X44268672Y-10922712D01*
X44268672Y-10922712D02*
X44230576Y-10770331D01*
X44230576Y-10770331D02*
X44192481Y-10694140D01*
X44192481Y-10694140D02*
X44116291Y-10617950D01*
X44116291Y-10617950D02*
X44002005Y-10579855D01*
X44002005Y-10579855D02*
X43925814Y-10579855D01*
X43925814Y-10579855D02*
X43811529Y-10617950D01*
X43811529Y-10617950D02*
X43773433Y-10656045D01*
X43430576Y-11379855D02*
X43430576Y-10579855D01*
X43430576Y-10579855D02*
X43125814Y-10579855D01*
X43125814Y-10579855D02*
X43049624Y-10617950D01*
X43049624Y-10617950D02*
X43011529Y-10656045D01*
X43011529Y-10656045D02*
X42973433Y-10732236D01*
X42973433Y-10732236D02*
X42973433Y-10846521D01*
X42973433Y-10846521D02*
X43011529Y-10922712D01*
X43011529Y-10922712D02*
X43049624Y-10960807D01*
X43049624Y-10960807D02*
X43125814Y-10998902D01*
X43125814Y-10998902D02*
X43430576Y-10998902D01*
X42630576Y-11379855D02*
X42630576Y-10579855D01*
X42630576Y-10960807D02*
X42173433Y-10960807D01*
X42173433Y-11379855D02*
X42173433Y-10579855D01*
X41792481Y-11379855D02*
X41792481Y-10579855D01*
X41792481Y-10579855D02*
X41487719Y-10579855D01*
X41487719Y-10579855D02*
X41411529Y-10617950D01*
X41411529Y-10617950D02*
X41373434Y-10656045D01*
X41373434Y-10656045D02*
X41335338Y-10732236D01*
X41335338Y-10732236D02*
X41335338Y-10846521D01*
X41335338Y-10846521D02*
X41373434Y-10922712D01*
X41373434Y-10922712D02*
X41411529Y-10960807D01*
X41411529Y-10960807D02*
X41487719Y-10998902D01*
X41487719Y-10998902D02*
X41792481Y-10998902D01*
X40878196Y-10922712D02*
X40954386Y-10884617D01*
X40954386Y-10884617D02*
X40992481Y-10846521D01*
X40992481Y-10846521D02*
X41030577Y-10770331D01*
X41030577Y-10770331D02*
X41030577Y-10732236D01*
X41030577Y-10732236D02*
X40992481Y-10656045D01*
X40992481Y-10656045D02*
X40954386Y-10617950D01*
X40954386Y-10617950D02*
X40878196Y-10579855D01*
X40878196Y-10579855D02*
X40725815Y-10579855D01*
X40725815Y-10579855D02*
X40649624Y-10617950D01*
X40649624Y-10617950D02*
X40611529Y-10656045D01*
X40611529Y-10656045D02*
X40573434Y-10732236D01*
X40573434Y-10732236D02*
X40573434Y-10770331D01*
X40573434Y-10770331D02*
X40611529Y-10846521D01*
X40611529Y-10846521D02*
X40649624Y-10884617D01*
X40649624Y-10884617D02*
X40725815Y-10922712D01*
X40725815Y-10922712D02*
X40878196Y-10922712D01*
X40878196Y-10922712D02*
X40954386Y-10960807D01*
X40954386Y-10960807D02*
X40992481Y-10998902D01*
X40992481Y-10998902D02*
X41030577Y-11075093D01*
X41030577Y-11075093D02*
X41030577Y-11227474D01*
X41030577Y-11227474D02*
X40992481Y-11303664D01*
X40992481Y-11303664D02*
X40954386Y-11341760D01*
X40954386Y-11341760D02*
X40878196Y-11379855D01*
X40878196Y-11379855D02*
X40725815Y-11379855D01*
X40725815Y-11379855D02*
X40649624Y-11341760D01*
X40649624Y-11341760D02*
X40611529Y-11303664D01*
X40611529Y-11303664D02*
X40573434Y-11227474D01*
X40573434Y-11227474D02*
X40573434Y-11075093D01*
X40573434Y-11075093D02*
X40611529Y-10998902D01*
X40611529Y-10998902D02*
X40649624Y-10960807D01*
X40649624Y-10960807D02*
X40725815Y-10922712D01*
X40268672Y-10656045D02*
X40230576Y-10617950D01*
X40230576Y-10617950D02*
X40154386Y-10579855D01*
X40154386Y-10579855D02*
X39963910Y-10579855D01*
X39963910Y-10579855D02*
X39887719Y-10617950D01*
X39887719Y-10617950D02*
X39849624Y-10656045D01*
X39849624Y-10656045D02*
X39811529Y-10732236D01*
X39811529Y-10732236D02*
X39811529Y-10808426D01*
X39811529Y-10808426D02*
X39849624Y-10922712D01*
X39849624Y-10922712D02*
X40306767Y-11379855D01*
X40306767Y-11379855D02*
X39811529Y-11379855D01*
X39316290Y-10579855D02*
X39240100Y-10579855D01*
X39240100Y-10579855D02*
X39163909Y-10617950D01*
X39163909Y-10617950D02*
X39125814Y-10656045D01*
X39125814Y-10656045D02*
X39087719Y-10732236D01*
X39087719Y-10732236D02*
X39049624Y-10884617D01*
X39049624Y-10884617D02*
X39049624Y-11075093D01*
X39049624Y-11075093D02*
X39087719Y-11227474D01*
X39087719Y-11227474D02*
X39125814Y-11303664D01*
X39125814Y-11303664D02*
X39163909Y-11341760D01*
X39163909Y-11341760D02*
X39240100Y-11379855D01*
X39240100Y-11379855D02*
X39316290Y-11379855D01*
X39316290Y-11379855D02*
X39392481Y-11341760D01*
X39392481Y-11341760D02*
X39430576Y-11303664D01*
X39430576Y-11303664D02*
X39468671Y-11227474D01*
X39468671Y-11227474D02*
X39506767Y-11075093D01*
X39506767Y-11075093D02*
X39506767Y-10884617D01*
X39506767Y-10884617D02*
X39468671Y-10732236D01*
X39468671Y-10732236D02*
X39430576Y-10656045D01*
X39430576Y-10656045D02*
X39392481Y-10617950D01*
X39392481Y-10617950D02*
X39316290Y-10579855D01*
X38554385Y-10579855D02*
X38478195Y-10579855D01*
X38478195Y-10579855D02*
X38402004Y-10617950D01*
X38402004Y-10617950D02*
X38363909Y-10656045D01*
X38363909Y-10656045D02*
X38325814Y-10732236D01*
X38325814Y-10732236D02*
X38287719Y-10884617D01*
X38287719Y-10884617D02*
X38287719Y-11075093D01*
X38287719Y-11075093D02*
X38325814Y-11227474D01*
X38325814Y-11227474D02*
X38363909Y-11303664D01*
X38363909Y-11303664D02*
X38402004Y-11341760D01*
X38402004Y-11341760D02*
X38478195Y-11379855D01*
X38478195Y-11379855D02*
X38554385Y-11379855D01*
X38554385Y-11379855D02*
X38630576Y-11341760D01*
X38630576Y-11341760D02*
X38668671Y-11303664D01*
X38668671Y-11303664D02*
X38706766Y-11227474D01*
X38706766Y-11227474D02*
X38744862Y-11075093D01*
X38744862Y-11075093D02*
X38744862Y-10884617D01*
X38744862Y-10884617D02*
X38706766Y-10732236D01*
X38706766Y-10732236D02*
X38668671Y-10656045D01*
X38668671Y-10656045D02*
X38630576Y-10617950D01*
X38630576Y-10617950D02*
X38554385Y-10579855D01*
X37525814Y-11379855D02*
X37982957Y-11379855D01*
X37754385Y-11379855D02*
X37754385Y-10579855D01*
X37754385Y-10579855D02*
X37830576Y-10694140D01*
X37830576Y-10694140D02*
X37906766Y-10770331D01*
X37906766Y-10770331D02*
X37982957Y-10808426D01*
X36687718Y-10579855D02*
X36421051Y-11379855D01*
X36421051Y-11379855D02*
X36154385Y-10579855D01*
X35963909Y-10579855D02*
X35468671Y-10579855D01*
X35468671Y-10579855D02*
X35735337Y-10884617D01*
X35735337Y-10884617D02*
X35621052Y-10884617D01*
X35621052Y-10884617D02*
X35544861Y-10922712D01*
X35544861Y-10922712D02*
X35506766Y-10960807D01*
X35506766Y-10960807D02*
X35468671Y-11036998D01*
X35468671Y-11036998D02*
X35468671Y-11227474D01*
X35468671Y-11227474D02*
X35506766Y-11303664D01*
X35506766Y-11303664D02*
X35544861Y-11341760D01*
X35544861Y-11341760D02*
X35621052Y-11379855D01*
X35621052Y-11379855D02*
X35849623Y-11379855D01*
X35849623Y-11379855D02*
X35925814Y-11341760D01*
X35925814Y-11341760D02*
X35963909Y-11303664D01*
X43849624Y-15731855D02*
X44230576Y-15731855D01*
X44230576Y-15731855D02*
X44268672Y-16112807D01*
X44268672Y-16112807D02*
X44230576Y-16074712D01*
X44230576Y-16074712D02*
X44154386Y-16036617D01*
X44154386Y-16036617D02*
X43963910Y-16036617D01*
X43963910Y-16036617D02*
X43887719Y-16074712D01*
X43887719Y-16074712D02*
X43849624Y-16112807D01*
X43849624Y-16112807D02*
X43811529Y-16188998D01*
X43811529Y-16188998D02*
X43811529Y-16379474D01*
X43811529Y-16379474D02*
X43849624Y-16455664D01*
X43849624Y-16455664D02*
X43887719Y-16493760D01*
X43887719Y-16493760D02*
X43963910Y-16531855D01*
X43963910Y-16531855D02*
X44154386Y-16531855D01*
X44154386Y-16531855D02*
X44230576Y-16493760D01*
X44230576Y-16493760D02*
X44268672Y-16455664D01*
X43582957Y-15731855D02*
X43316290Y-16531855D01*
X43316290Y-16531855D02*
X43049624Y-15731855D01*
X42173433Y-16531855D02*
X42173433Y-15731855D01*
X42173433Y-15731855D02*
X41982957Y-15731855D01*
X41982957Y-15731855D02*
X41868671Y-15769950D01*
X41868671Y-15769950D02*
X41792481Y-15846140D01*
X41792481Y-15846140D02*
X41754386Y-15922331D01*
X41754386Y-15922331D02*
X41716290Y-16074712D01*
X41716290Y-16074712D02*
X41716290Y-16188998D01*
X41716290Y-16188998D02*
X41754386Y-16341379D01*
X41754386Y-16341379D02*
X41792481Y-16417569D01*
X41792481Y-16417569D02*
X41868671Y-16493760D01*
X41868671Y-16493760D02*
X41982957Y-16531855D01*
X41982957Y-16531855D02*
X42173433Y-16531855D01*
X40916290Y-16455664D02*
X40954386Y-16493760D01*
X40954386Y-16493760D02*
X41068671Y-16531855D01*
X41068671Y-16531855D02*
X41144862Y-16531855D01*
X41144862Y-16531855D02*
X41259148Y-16493760D01*
X41259148Y-16493760D02*
X41335338Y-16417569D01*
X41335338Y-16417569D02*
X41373433Y-16341379D01*
X41373433Y-16341379D02*
X41411529Y-16188998D01*
X41411529Y-16188998D02*
X41411529Y-16074712D01*
X41411529Y-16074712D02*
X41373433Y-15922331D01*
X41373433Y-15922331D02*
X41335338Y-15846140D01*
X41335338Y-15846140D02*
X41259148Y-15769950D01*
X41259148Y-15769950D02*
X41144862Y-15731855D01*
X41144862Y-15731855D02*
X41068671Y-15731855D01*
X41068671Y-15731855D02*
X40954386Y-15769950D01*
X40954386Y-15769950D02*
X40916290Y-15808045D01*
X39621052Y-15998521D02*
X39621052Y-16531855D01*
X39811528Y-15693760D02*
X40002005Y-16265188D01*
X40002005Y-16265188D02*
X39506766Y-16265188D01*
X39049623Y-15731855D02*
X38973433Y-15731855D01*
X38973433Y-15731855D02*
X38897242Y-15769950D01*
X38897242Y-15769950D02*
X38859147Y-15808045D01*
X38859147Y-15808045D02*
X38821052Y-15884236D01*
X38821052Y-15884236D02*
X38782957Y-16036617D01*
X38782957Y-16036617D02*
X38782957Y-16227093D01*
X38782957Y-16227093D02*
X38821052Y-16379474D01*
X38821052Y-16379474D02*
X38859147Y-16455664D01*
X38859147Y-16455664D02*
X38897242Y-16493760D01*
X38897242Y-16493760D02*
X38973433Y-16531855D01*
X38973433Y-16531855D02*
X39049623Y-16531855D01*
X39049623Y-16531855D02*
X39125814Y-16493760D01*
X39125814Y-16493760D02*
X39163909Y-16455664D01*
X39163909Y-16455664D02*
X39202004Y-16379474D01*
X39202004Y-16379474D02*
X39240100Y-16227093D01*
X39240100Y-16227093D02*
X39240100Y-16036617D01*
X39240100Y-16036617D02*
X39202004Y-15884236D01*
X39202004Y-15884236D02*
X39163909Y-15808045D01*
X39163909Y-15808045D02*
X39125814Y-15769950D01*
X39125814Y-15769950D02*
X39049623Y-15731855D01*
X38287718Y-15731855D02*
X38211528Y-15731855D01*
X38211528Y-15731855D02*
X38135337Y-15769950D01*
X38135337Y-15769950D02*
X38097242Y-15808045D01*
X38097242Y-15808045D02*
X38059147Y-15884236D01*
X38059147Y-15884236D02*
X38021052Y-16036617D01*
X38021052Y-16036617D02*
X38021052Y-16227093D01*
X38021052Y-16227093D02*
X38059147Y-16379474D01*
X38059147Y-16379474D02*
X38097242Y-16455664D01*
X38097242Y-16455664D02*
X38135337Y-16493760D01*
X38135337Y-16493760D02*
X38211528Y-16531855D01*
X38211528Y-16531855D02*
X38287718Y-16531855D01*
X38287718Y-16531855D02*
X38363909Y-16493760D01*
X38363909Y-16493760D02*
X38402004Y-16455664D01*
X38402004Y-16455664D02*
X38440099Y-16379474D01*
X38440099Y-16379474D02*
X38478195Y-16227093D01*
X38478195Y-16227093D02*
X38478195Y-16036617D01*
X38478195Y-16036617D02*
X38440099Y-15884236D01*
X38440099Y-15884236D02*
X38402004Y-15808045D01*
X38402004Y-15808045D02*
X38363909Y-15769950D01*
X38363909Y-15769950D02*
X38287718Y-15731855D01*
X37678194Y-16531855D02*
X37678194Y-15998521D01*
X37678194Y-16074712D02*
X37640099Y-16036617D01*
X37640099Y-16036617D02*
X37563909Y-15998521D01*
X37563909Y-15998521D02*
X37449623Y-15998521D01*
X37449623Y-15998521D02*
X37373432Y-16036617D01*
X37373432Y-16036617D02*
X37335337Y-16112807D01*
X37335337Y-16112807D02*
X37335337Y-16531855D01*
X37335337Y-16112807D02*
X37297242Y-16036617D01*
X37297242Y-16036617D02*
X37221051Y-15998521D01*
X37221051Y-15998521D02*
X37106766Y-15998521D01*
X37106766Y-15998521D02*
X37030575Y-16036617D01*
X37030575Y-16036617D02*
X36992480Y-16112807D01*
X36992480Y-16112807D02*
X36992480Y-16531855D01*
X36649623Y-16303283D02*
X36268670Y-16303283D01*
X36725813Y-16531855D02*
X36459146Y-15731855D01*
X36459146Y-15731855D02*
X36192480Y-16531855D01*
X43849624Y-17019855D02*
X44230576Y-17019855D01*
X44230576Y-17019855D02*
X44268672Y-17400807D01*
X44268672Y-17400807D02*
X44230576Y-17362712D01*
X44230576Y-17362712D02*
X44154386Y-17324617D01*
X44154386Y-17324617D02*
X43963910Y-17324617D01*
X43963910Y-17324617D02*
X43887719Y-17362712D01*
X43887719Y-17362712D02*
X43849624Y-17400807D01*
X43849624Y-17400807D02*
X43811529Y-17476998D01*
X43811529Y-17476998D02*
X43811529Y-17667474D01*
X43811529Y-17667474D02*
X43849624Y-17743664D01*
X43849624Y-17743664D02*
X43887719Y-17781760D01*
X43887719Y-17781760D02*
X43963910Y-17819855D01*
X43963910Y-17819855D02*
X44154386Y-17819855D01*
X44154386Y-17819855D02*
X44230576Y-17781760D01*
X44230576Y-17781760D02*
X44268672Y-17743664D01*
X43316290Y-17019855D02*
X43240100Y-17019855D01*
X43240100Y-17019855D02*
X43163909Y-17057950D01*
X43163909Y-17057950D02*
X43125814Y-17096045D01*
X43125814Y-17096045D02*
X43087719Y-17172236D01*
X43087719Y-17172236D02*
X43049624Y-17324617D01*
X43049624Y-17324617D02*
X43049624Y-17515093D01*
X43049624Y-17515093D02*
X43087719Y-17667474D01*
X43087719Y-17667474D02*
X43125814Y-17743664D01*
X43125814Y-17743664D02*
X43163909Y-17781760D01*
X43163909Y-17781760D02*
X43240100Y-17819855D01*
X43240100Y-17819855D02*
X43316290Y-17819855D01*
X43316290Y-17819855D02*
X43392481Y-17781760D01*
X43392481Y-17781760D02*
X43430576Y-17743664D01*
X43430576Y-17743664D02*
X43468671Y-17667474D01*
X43468671Y-17667474D02*
X43506767Y-17515093D01*
X43506767Y-17515093D02*
X43506767Y-17324617D01*
X43506767Y-17324617D02*
X43468671Y-17172236D01*
X43468671Y-17172236D02*
X43430576Y-17096045D01*
X43430576Y-17096045D02*
X43392481Y-17057950D01*
X43392481Y-17057950D02*
X43316290Y-17019855D01*
X42706766Y-17819855D02*
X42706766Y-17286521D01*
X42706766Y-17362712D02*
X42668671Y-17324617D01*
X42668671Y-17324617D02*
X42592481Y-17286521D01*
X42592481Y-17286521D02*
X42478195Y-17286521D01*
X42478195Y-17286521D02*
X42402004Y-17324617D01*
X42402004Y-17324617D02*
X42363909Y-17400807D01*
X42363909Y-17400807D02*
X42363909Y-17819855D01*
X42363909Y-17400807D02*
X42325814Y-17324617D01*
X42325814Y-17324617D02*
X42249623Y-17286521D01*
X42249623Y-17286521D02*
X42135338Y-17286521D01*
X42135338Y-17286521D02*
X42059147Y-17324617D01*
X42059147Y-17324617D02*
X42021052Y-17400807D01*
X42021052Y-17400807D02*
X42021052Y-17819855D01*
X41678195Y-17591283D02*
X41297242Y-17591283D01*
X41754385Y-17819855D02*
X41487718Y-17019855D01*
X41487718Y-17019855D02*
X41221052Y-17819855D01*
X40344861Y-17819855D02*
X40344861Y-17019855D01*
X40344861Y-17019855D02*
X40154385Y-17019855D01*
X40154385Y-17019855D02*
X40040099Y-17057950D01*
X40040099Y-17057950D02*
X39963909Y-17134140D01*
X39963909Y-17134140D02*
X39925814Y-17210331D01*
X39925814Y-17210331D02*
X39887718Y-17362712D01*
X39887718Y-17362712D02*
X39887718Y-17476998D01*
X39887718Y-17476998D02*
X39925814Y-17629379D01*
X39925814Y-17629379D02*
X39963909Y-17705569D01*
X39963909Y-17705569D02*
X40040099Y-17781760D01*
X40040099Y-17781760D02*
X40154385Y-17819855D01*
X40154385Y-17819855D02*
X40344861Y-17819855D01*
X39087718Y-17743664D02*
X39125814Y-17781760D01*
X39125814Y-17781760D02*
X39240099Y-17819855D01*
X39240099Y-17819855D02*
X39316290Y-17819855D01*
X39316290Y-17819855D02*
X39430576Y-17781760D01*
X39430576Y-17781760D02*
X39506766Y-17705569D01*
X39506766Y-17705569D02*
X39544861Y-17629379D01*
X39544861Y-17629379D02*
X39582957Y-17476998D01*
X39582957Y-17476998D02*
X39582957Y-17362712D01*
X39582957Y-17362712D02*
X39544861Y-17210331D01*
X39544861Y-17210331D02*
X39506766Y-17134140D01*
X39506766Y-17134140D02*
X39430576Y-17057950D01*
X39430576Y-17057950D02*
X39316290Y-17019855D01*
X39316290Y-17019855D02*
X39240099Y-17019855D01*
X39240099Y-17019855D02*
X39125814Y-17057950D01*
X39125814Y-17057950D02*
X39087718Y-17096045D01*
X37678194Y-17743664D02*
X37716290Y-17781760D01*
X37716290Y-17781760D02*
X37830575Y-17819855D01*
X37830575Y-17819855D02*
X37906766Y-17819855D01*
X37906766Y-17819855D02*
X38021052Y-17781760D01*
X38021052Y-17781760D02*
X38097242Y-17705569D01*
X38097242Y-17705569D02*
X38135337Y-17629379D01*
X38135337Y-17629379D02*
X38173433Y-17476998D01*
X38173433Y-17476998D02*
X38173433Y-17362712D01*
X38173433Y-17362712D02*
X38135337Y-17210331D01*
X38135337Y-17210331D02*
X38097242Y-17134140D01*
X38097242Y-17134140D02*
X38021052Y-17057950D01*
X38021052Y-17057950D02*
X37906766Y-17019855D01*
X37906766Y-17019855D02*
X37830575Y-17019855D01*
X37830575Y-17019855D02*
X37716290Y-17057950D01*
X37716290Y-17057950D02*
X37678194Y-17096045D01*
X36878194Y-17743664D02*
X36916290Y-17781760D01*
X36916290Y-17781760D02*
X37030575Y-17819855D01*
X37030575Y-17819855D02*
X37106766Y-17819855D01*
X37106766Y-17819855D02*
X37221052Y-17781760D01*
X37221052Y-17781760D02*
X37297242Y-17705569D01*
X37297242Y-17705569D02*
X37335337Y-17629379D01*
X37335337Y-17629379D02*
X37373433Y-17476998D01*
X37373433Y-17476998D02*
X37373433Y-17362712D01*
X37373433Y-17362712D02*
X37335337Y-17210331D01*
X37335337Y-17210331D02*
X37297242Y-17134140D01*
X37297242Y-17134140D02*
X37221052Y-17057950D01*
X37221052Y-17057950D02*
X37106766Y-17019855D01*
X37106766Y-17019855D02*
X37030575Y-17019855D01*
X37030575Y-17019855D02*
X36916290Y-17057950D01*
X36916290Y-17057950D02*
X36878194Y-17096045D01*
X35697242Y-18124617D02*
X35735337Y-18086521D01*
X35735337Y-18086521D02*
X35811528Y-17972236D01*
X35811528Y-17972236D02*
X35849623Y-17896045D01*
X35849623Y-17896045D02*
X35887718Y-17781760D01*
X35887718Y-17781760D02*
X35925813Y-17591283D01*
X35925813Y-17591283D02*
X35925813Y-17438902D01*
X35925813Y-17438902D02*
X35887718Y-17248426D01*
X35887718Y-17248426D02*
X35849623Y-17134140D01*
X35849623Y-17134140D02*
X35811528Y-17057950D01*
X35811528Y-17057950D02*
X35735337Y-16943664D01*
X35735337Y-16943664D02*
X35697242Y-16905569D01*
X34973433Y-17819855D02*
X35430576Y-17819855D01*
X35202004Y-17819855D02*
X35202004Y-17019855D01*
X35202004Y-17019855D02*
X35278195Y-17134140D01*
X35278195Y-17134140D02*
X35354385Y-17210331D01*
X35354385Y-17210331D02*
X35430576Y-17248426D01*
X34287718Y-17019855D02*
X34440099Y-17019855D01*
X34440099Y-17019855D02*
X34516290Y-17057950D01*
X34516290Y-17057950D02*
X34554385Y-17096045D01*
X34554385Y-17096045D02*
X34630575Y-17210331D01*
X34630575Y-17210331D02*
X34668671Y-17362712D01*
X34668671Y-17362712D02*
X34668671Y-17667474D01*
X34668671Y-17667474D02*
X34630575Y-17743664D01*
X34630575Y-17743664D02*
X34592480Y-17781760D01*
X34592480Y-17781760D02*
X34516290Y-17819855D01*
X34516290Y-17819855D02*
X34363909Y-17819855D01*
X34363909Y-17819855D02*
X34287718Y-17781760D01*
X34287718Y-17781760D02*
X34249623Y-17743664D01*
X34249623Y-17743664D02*
X34211528Y-17667474D01*
X34211528Y-17667474D02*
X34211528Y-17476998D01*
X34211528Y-17476998D02*
X34249623Y-17400807D01*
X34249623Y-17400807D02*
X34287718Y-17362712D01*
X34287718Y-17362712D02*
X34363909Y-17324617D01*
X34363909Y-17324617D02*
X34516290Y-17324617D01*
X34516290Y-17324617D02*
X34592480Y-17362712D01*
X34592480Y-17362712D02*
X34630575Y-17400807D01*
X34630575Y-17400807D02*
X34668671Y-17476998D01*
X33982956Y-17019855D02*
X33716289Y-17819855D01*
X33716289Y-17819855D02*
X33449623Y-17019855D01*
X32573432Y-17819855D02*
X32573432Y-17019855D01*
X32573432Y-17019855D02*
X32306766Y-17591283D01*
X32306766Y-17591283D02*
X32040099Y-17019855D01*
X32040099Y-17019855D02*
X32040099Y-17819855D01*
X31697242Y-17591283D02*
X31316289Y-17591283D01*
X31773432Y-17819855D02*
X31506765Y-17019855D01*
X31506765Y-17019855D02*
X31240099Y-17819855D01*
X31049623Y-17019855D02*
X30516289Y-17819855D01*
X30516289Y-17019855D02*
X31049623Y-17819855D01*
X30287718Y-18124617D02*
X30249623Y-18086521D01*
X30249623Y-18086521D02*
X30173432Y-17972236D01*
X30173432Y-17972236D02*
X30135337Y-17896045D01*
X30135337Y-17896045D02*
X30097242Y-17781760D01*
X30097242Y-17781760D02*
X30059146Y-17591283D01*
X30059146Y-17591283D02*
X30059146Y-17438902D01*
X30059146Y-17438902D02*
X30097242Y-17248426D01*
X30097242Y-17248426D02*
X30135337Y-17134140D01*
X30135337Y-17134140D02*
X30173432Y-17057950D01*
X30173432Y-17057950D02*
X30249623Y-16943664D01*
X30249623Y-16943664D02*
X30287718Y-16905569D01*
X44306767Y-18307855D02*
X43811529Y-18307855D01*
X43811529Y-18307855D02*
X44078195Y-18612617D01*
X44078195Y-18612617D02*
X43963910Y-18612617D01*
X43963910Y-18612617D02*
X43887719Y-18650712D01*
X43887719Y-18650712D02*
X43849624Y-18688807D01*
X43849624Y-18688807D02*
X43811529Y-18764998D01*
X43811529Y-18764998D02*
X43811529Y-18955474D01*
X43811529Y-18955474D02*
X43849624Y-19031664D01*
X43849624Y-19031664D02*
X43887719Y-19069760D01*
X43887719Y-19069760D02*
X43963910Y-19107855D01*
X43963910Y-19107855D02*
X44192481Y-19107855D01*
X44192481Y-19107855D02*
X44268672Y-19069760D01*
X44268672Y-19069760D02*
X44306767Y-19031664D01*
X43468671Y-19031664D02*
X43430576Y-19069760D01*
X43430576Y-19069760D02*
X43468671Y-19107855D01*
X43468671Y-19107855D02*
X43506767Y-19069760D01*
X43506767Y-19069760D02*
X43468671Y-19031664D01*
X43468671Y-19031664D02*
X43468671Y-19107855D01*
X43163910Y-18307855D02*
X42630576Y-18307855D01*
X42630576Y-18307855D02*
X42973434Y-19107855D01*
X42440100Y-18307855D02*
X42173433Y-19107855D01*
X42173433Y-19107855D02*
X41906767Y-18307855D01*
X41030576Y-19107855D02*
X41030576Y-18307855D01*
X41030576Y-18307855D02*
X40840100Y-18307855D01*
X40840100Y-18307855D02*
X40725814Y-18345950D01*
X40725814Y-18345950D02*
X40649624Y-18422140D01*
X40649624Y-18422140D02*
X40611529Y-18498331D01*
X40611529Y-18498331D02*
X40573433Y-18650712D01*
X40573433Y-18650712D02*
X40573433Y-18764998D01*
X40573433Y-18764998D02*
X40611529Y-18917379D01*
X40611529Y-18917379D02*
X40649624Y-18993569D01*
X40649624Y-18993569D02*
X40725814Y-19069760D01*
X40725814Y-19069760D02*
X40840100Y-19107855D01*
X40840100Y-19107855D02*
X41030576Y-19107855D01*
X39773433Y-19031664D02*
X39811529Y-19069760D01*
X39811529Y-19069760D02*
X39925814Y-19107855D01*
X39925814Y-19107855D02*
X40002005Y-19107855D01*
X40002005Y-19107855D02*
X40116291Y-19069760D01*
X40116291Y-19069760D02*
X40192481Y-18993569D01*
X40192481Y-18993569D02*
X40230576Y-18917379D01*
X40230576Y-18917379D02*
X40268672Y-18764998D01*
X40268672Y-18764998D02*
X40268672Y-18650712D01*
X40268672Y-18650712D02*
X40230576Y-18498331D01*
X40230576Y-18498331D02*
X40192481Y-18422140D01*
X40192481Y-18422140D02*
X40116291Y-18345950D01*
X40116291Y-18345950D02*
X40002005Y-18307855D01*
X40002005Y-18307855D02*
X39925814Y-18307855D01*
X39925814Y-18307855D02*
X39811529Y-18345950D01*
X39811529Y-18345950D02*
X39773433Y-18384045D01*
X38478195Y-18574521D02*
X38478195Y-19107855D01*
X38668671Y-18269760D02*
X38859148Y-18841188D01*
X38859148Y-18841188D02*
X38363909Y-18841188D01*
X37906766Y-18307855D02*
X37830576Y-18307855D01*
X37830576Y-18307855D02*
X37754385Y-18345950D01*
X37754385Y-18345950D02*
X37716290Y-18384045D01*
X37716290Y-18384045D02*
X37678195Y-18460236D01*
X37678195Y-18460236D02*
X37640100Y-18612617D01*
X37640100Y-18612617D02*
X37640100Y-18803093D01*
X37640100Y-18803093D02*
X37678195Y-18955474D01*
X37678195Y-18955474D02*
X37716290Y-19031664D01*
X37716290Y-19031664D02*
X37754385Y-19069760D01*
X37754385Y-19069760D02*
X37830576Y-19107855D01*
X37830576Y-19107855D02*
X37906766Y-19107855D01*
X37906766Y-19107855D02*
X37982957Y-19069760D01*
X37982957Y-19069760D02*
X38021052Y-19031664D01*
X38021052Y-19031664D02*
X38059147Y-18955474D01*
X38059147Y-18955474D02*
X38097243Y-18803093D01*
X38097243Y-18803093D02*
X38097243Y-18612617D01*
X38097243Y-18612617D02*
X38059147Y-18460236D01*
X38059147Y-18460236D02*
X38021052Y-18384045D01*
X38021052Y-18384045D02*
X37982957Y-18345950D01*
X37982957Y-18345950D02*
X37906766Y-18307855D01*
X37144861Y-18307855D02*
X37068671Y-18307855D01*
X37068671Y-18307855D02*
X36992480Y-18345950D01*
X36992480Y-18345950D02*
X36954385Y-18384045D01*
X36954385Y-18384045D02*
X36916290Y-18460236D01*
X36916290Y-18460236D02*
X36878195Y-18612617D01*
X36878195Y-18612617D02*
X36878195Y-18803093D01*
X36878195Y-18803093D02*
X36916290Y-18955474D01*
X36916290Y-18955474D02*
X36954385Y-19031664D01*
X36954385Y-19031664D02*
X36992480Y-19069760D01*
X36992480Y-19069760D02*
X37068671Y-19107855D01*
X37068671Y-19107855D02*
X37144861Y-19107855D01*
X37144861Y-19107855D02*
X37221052Y-19069760D01*
X37221052Y-19069760D02*
X37259147Y-19031664D01*
X37259147Y-19031664D02*
X37297242Y-18955474D01*
X37297242Y-18955474D02*
X37335338Y-18803093D01*
X37335338Y-18803093D02*
X37335338Y-18612617D01*
X37335338Y-18612617D02*
X37297242Y-18460236D01*
X37297242Y-18460236D02*
X37259147Y-18384045D01*
X37259147Y-18384045D02*
X37221052Y-18345950D01*
X37221052Y-18345950D02*
X37144861Y-18307855D01*
X36535337Y-19107855D02*
X36535337Y-18574521D01*
X36535337Y-18650712D02*
X36497242Y-18612617D01*
X36497242Y-18612617D02*
X36421052Y-18574521D01*
X36421052Y-18574521D02*
X36306766Y-18574521D01*
X36306766Y-18574521D02*
X36230575Y-18612617D01*
X36230575Y-18612617D02*
X36192480Y-18688807D01*
X36192480Y-18688807D02*
X36192480Y-19107855D01*
X36192480Y-18688807D02*
X36154385Y-18612617D01*
X36154385Y-18612617D02*
X36078194Y-18574521D01*
X36078194Y-18574521D02*
X35963909Y-18574521D01*
X35963909Y-18574521D02*
X35887718Y-18612617D01*
X35887718Y-18612617D02*
X35849623Y-18688807D01*
X35849623Y-18688807D02*
X35849623Y-19107855D01*
X35506766Y-18879283D02*
X35125813Y-18879283D01*
X35582956Y-19107855D02*
X35316289Y-18307855D01*
X35316289Y-18307855D02*
X35049623Y-19107855D01*
X44306767Y-19595855D02*
X43811529Y-19595855D01*
X43811529Y-19595855D02*
X44078195Y-19900617D01*
X44078195Y-19900617D02*
X43963910Y-19900617D01*
X43963910Y-19900617D02*
X43887719Y-19938712D01*
X43887719Y-19938712D02*
X43849624Y-19976807D01*
X43849624Y-19976807D02*
X43811529Y-20052998D01*
X43811529Y-20052998D02*
X43811529Y-20243474D01*
X43811529Y-20243474D02*
X43849624Y-20319664D01*
X43849624Y-20319664D02*
X43887719Y-20357760D01*
X43887719Y-20357760D02*
X43963910Y-20395855D01*
X43963910Y-20395855D02*
X44192481Y-20395855D01*
X44192481Y-20395855D02*
X44268672Y-20357760D01*
X44268672Y-20357760D02*
X44306767Y-20319664D01*
X43468671Y-20319664D02*
X43430576Y-20357760D01*
X43430576Y-20357760D02*
X43468671Y-20395855D01*
X43468671Y-20395855D02*
X43506767Y-20357760D01*
X43506767Y-20357760D02*
X43468671Y-20319664D01*
X43468671Y-20319664D02*
X43468671Y-20395855D01*
X43163910Y-19595855D02*
X42630576Y-19595855D01*
X42630576Y-19595855D02*
X42973434Y-20395855D01*
X42440100Y-19595855D02*
X42173433Y-20395855D01*
X42173433Y-20395855D02*
X41906767Y-19595855D01*
X41068672Y-19672045D02*
X41030576Y-19633950D01*
X41030576Y-19633950D02*
X40954386Y-19595855D01*
X40954386Y-19595855D02*
X40763910Y-19595855D01*
X40763910Y-19595855D02*
X40687719Y-19633950D01*
X40687719Y-19633950D02*
X40649624Y-19672045D01*
X40649624Y-19672045D02*
X40611529Y-19748236D01*
X40611529Y-19748236D02*
X40611529Y-19824426D01*
X40611529Y-19824426D02*
X40649624Y-19938712D01*
X40649624Y-19938712D02*
X41106767Y-20395855D01*
X41106767Y-20395855D02*
X40611529Y-20395855D01*
X40116290Y-19595855D02*
X40040100Y-19595855D01*
X40040100Y-19595855D02*
X39963909Y-19633950D01*
X39963909Y-19633950D02*
X39925814Y-19672045D01*
X39925814Y-19672045D02*
X39887719Y-19748236D01*
X39887719Y-19748236D02*
X39849624Y-19900617D01*
X39849624Y-19900617D02*
X39849624Y-20091093D01*
X39849624Y-20091093D02*
X39887719Y-20243474D01*
X39887719Y-20243474D02*
X39925814Y-20319664D01*
X39925814Y-20319664D02*
X39963909Y-20357760D01*
X39963909Y-20357760D02*
X40040100Y-20395855D01*
X40040100Y-20395855D02*
X40116290Y-20395855D01*
X40116290Y-20395855D02*
X40192481Y-20357760D01*
X40192481Y-20357760D02*
X40230576Y-20319664D01*
X40230576Y-20319664D02*
X40268671Y-20243474D01*
X40268671Y-20243474D02*
X40306767Y-20091093D01*
X40306767Y-20091093D02*
X40306767Y-19900617D01*
X40306767Y-19900617D02*
X40268671Y-19748236D01*
X40268671Y-19748236D02*
X40230576Y-19672045D01*
X40230576Y-19672045D02*
X40192481Y-19633950D01*
X40192481Y-19633950D02*
X40116290Y-19595855D01*
X39354385Y-19595855D02*
X39278195Y-19595855D01*
X39278195Y-19595855D02*
X39202004Y-19633950D01*
X39202004Y-19633950D02*
X39163909Y-19672045D01*
X39163909Y-19672045D02*
X39125814Y-19748236D01*
X39125814Y-19748236D02*
X39087719Y-19900617D01*
X39087719Y-19900617D02*
X39087719Y-20091093D01*
X39087719Y-20091093D02*
X39125814Y-20243474D01*
X39125814Y-20243474D02*
X39163909Y-20319664D01*
X39163909Y-20319664D02*
X39202004Y-20357760D01*
X39202004Y-20357760D02*
X39278195Y-20395855D01*
X39278195Y-20395855D02*
X39354385Y-20395855D01*
X39354385Y-20395855D02*
X39430576Y-20357760D01*
X39430576Y-20357760D02*
X39468671Y-20319664D01*
X39468671Y-20319664D02*
X39506766Y-20243474D01*
X39506766Y-20243474D02*
X39544862Y-20091093D01*
X39544862Y-20091093D02*
X39544862Y-19900617D01*
X39544862Y-19900617D02*
X39506766Y-19748236D01*
X39506766Y-19748236D02*
X39468671Y-19672045D01*
X39468671Y-19672045D02*
X39430576Y-19633950D01*
X39430576Y-19633950D02*
X39354385Y-19595855D01*
X38592480Y-19595855D02*
X38516290Y-19595855D01*
X38516290Y-19595855D02*
X38440099Y-19633950D01*
X38440099Y-19633950D02*
X38402004Y-19672045D01*
X38402004Y-19672045D02*
X38363909Y-19748236D01*
X38363909Y-19748236D02*
X38325814Y-19900617D01*
X38325814Y-19900617D02*
X38325814Y-20091093D01*
X38325814Y-20091093D02*
X38363909Y-20243474D01*
X38363909Y-20243474D02*
X38402004Y-20319664D01*
X38402004Y-20319664D02*
X38440099Y-20357760D01*
X38440099Y-20357760D02*
X38516290Y-20395855D01*
X38516290Y-20395855D02*
X38592480Y-20395855D01*
X38592480Y-20395855D02*
X38668671Y-20357760D01*
X38668671Y-20357760D02*
X38706766Y-20319664D01*
X38706766Y-20319664D02*
X38744861Y-20243474D01*
X38744861Y-20243474D02*
X38782957Y-20091093D01*
X38782957Y-20091093D02*
X38782957Y-19900617D01*
X38782957Y-19900617D02*
X38744861Y-19748236D01*
X38744861Y-19748236D02*
X38706766Y-19672045D01*
X38706766Y-19672045D02*
X38668671Y-19633950D01*
X38668671Y-19633950D02*
X38592480Y-19595855D01*
X37982956Y-20395855D02*
X37982956Y-19862521D01*
X37982956Y-19938712D02*
X37944861Y-19900617D01*
X37944861Y-19900617D02*
X37868671Y-19862521D01*
X37868671Y-19862521D02*
X37754385Y-19862521D01*
X37754385Y-19862521D02*
X37678194Y-19900617D01*
X37678194Y-19900617D02*
X37640099Y-19976807D01*
X37640099Y-19976807D02*
X37640099Y-20395855D01*
X37640099Y-19976807D02*
X37602004Y-19900617D01*
X37602004Y-19900617D02*
X37525813Y-19862521D01*
X37525813Y-19862521D02*
X37411528Y-19862521D01*
X37411528Y-19862521D02*
X37335337Y-19900617D01*
X37335337Y-19900617D02*
X37297242Y-19976807D01*
X37297242Y-19976807D02*
X37297242Y-20395855D01*
X36954385Y-20167283D02*
X36573432Y-20167283D01*
X37030575Y-20395855D02*
X36763908Y-19595855D01*
X36763908Y-19595855D02*
X36497242Y-20395855D01*
X36230575Y-20395855D02*
X36230575Y-19595855D01*
X35887718Y-20395855D02*
X35887718Y-19976807D01*
X35887718Y-19976807D02*
X35925813Y-19900617D01*
X35925813Y-19900617D02*
X36002004Y-19862521D01*
X36002004Y-19862521D02*
X36116290Y-19862521D01*
X36116290Y-19862521D02*
X36192480Y-19900617D01*
X36192480Y-19900617D02*
X36230575Y-19938712D01*
X34516289Y-20395855D02*
X34897241Y-20395855D01*
X34897241Y-20395855D02*
X34897241Y-19595855D01*
X34249622Y-20395855D02*
X34249622Y-19862521D01*
X34249622Y-19595855D02*
X34287718Y-19633950D01*
X34287718Y-19633950D02*
X34249622Y-19672045D01*
X34249622Y-19672045D02*
X34211527Y-19633950D01*
X34211527Y-19633950D02*
X34249622Y-19595855D01*
X34249622Y-19595855D02*
X34249622Y-19672045D01*
X33868670Y-20395855D02*
X33868670Y-19595855D01*
X33868670Y-19595855D02*
X33563908Y-19595855D01*
X33563908Y-19595855D02*
X33487718Y-19633950D01*
X33487718Y-19633950D02*
X33449623Y-19672045D01*
X33449623Y-19672045D02*
X33411527Y-19748236D01*
X33411527Y-19748236D02*
X33411527Y-19862521D01*
X33411527Y-19862521D02*
X33449623Y-19938712D01*
X33449623Y-19938712D02*
X33487718Y-19976807D01*
X33487718Y-19976807D02*
X33563908Y-20014902D01*
X33563908Y-20014902D02*
X33868670Y-20014902D01*
X32954385Y-20395855D02*
X33030575Y-20357760D01*
X33030575Y-20357760D02*
X33068670Y-20319664D01*
X33068670Y-20319664D02*
X33106766Y-20243474D01*
X33106766Y-20243474D02*
X33106766Y-20014902D01*
X33106766Y-20014902D02*
X33068670Y-19938712D01*
X33068670Y-19938712D02*
X33030575Y-19900617D01*
X33030575Y-19900617D02*
X32954385Y-19862521D01*
X32954385Y-19862521D02*
X32840099Y-19862521D01*
X32840099Y-19862521D02*
X32763908Y-19900617D01*
X32763908Y-19900617D02*
X32725813Y-19938712D01*
X32725813Y-19938712D02*
X32687718Y-20014902D01*
X32687718Y-20014902D02*
X32687718Y-20243474D01*
X32687718Y-20243474D02*
X32725813Y-20319664D01*
X32725813Y-20319664D02*
X32763908Y-20357760D01*
X32763908Y-20357760D02*
X32840099Y-20395855D01*
X32840099Y-20395855D02*
X32954385Y-20395855D01*
D13*
X47121241Y-6038071D02*
X47192669Y-6109500D01*
X47192669Y-6109500D02*
X47406955Y-6180928D01*
X47406955Y-6180928D02*
X47549812Y-6180928D01*
X47549812Y-6180928D02*
X47764098Y-6109500D01*
X47764098Y-6109500D02*
X47906955Y-5966642D01*
X47906955Y-5966642D02*
X47978384Y-5823785D01*
X47978384Y-5823785D02*
X48049812Y-5538071D01*
X48049812Y-5538071D02*
X48049812Y-5323785D01*
X48049812Y-5323785D02*
X47978384Y-5038071D01*
X47978384Y-5038071D02*
X47906955Y-4895214D01*
X47906955Y-4895214D02*
X47764098Y-4752357D01*
X47764098Y-4752357D02*
X47549812Y-4680928D01*
X47549812Y-4680928D02*
X47406955Y-4680928D01*
X47406955Y-4680928D02*
X47192669Y-4752357D01*
X47192669Y-4752357D02*
X47121241Y-4823785D01*
X46549812Y-5752357D02*
X45835527Y-5752357D01*
X46692669Y-6180928D02*
X46192669Y-4680928D01*
X46192669Y-4680928D02*
X45692669Y-6180928D01*
X44478384Y-6180928D02*
X45192670Y-6180928D01*
X45192670Y-6180928D02*
X45192670Y-4680928D01*
X43121241Y-6038071D02*
X43192669Y-6109500D01*
X43192669Y-6109500D02*
X43406955Y-6180928D01*
X43406955Y-6180928D02*
X43549812Y-6180928D01*
X43549812Y-6180928D02*
X43764098Y-6109500D01*
X43764098Y-6109500D02*
X43906955Y-5966642D01*
X43906955Y-5966642D02*
X43978384Y-5823785D01*
X43978384Y-5823785D02*
X44049812Y-5538071D01*
X44049812Y-5538071D02*
X44049812Y-5323785D01*
X44049812Y-5323785D02*
X43978384Y-5038071D01*
X43978384Y-5038071D02*
X43906955Y-4895214D01*
X43906955Y-4895214D02*
X43764098Y-4752357D01*
X43764098Y-4752357D02*
X43549812Y-4680928D01*
X43549812Y-4680928D02*
X43406955Y-4680928D01*
X43406955Y-4680928D02*
X43192669Y-4752357D01*
X43192669Y-4752357D02*
X43121241Y-4823785D01*
X42478384Y-6180928D02*
X42478384Y-4680928D01*
X42478384Y-4680928D02*
X41906955Y-4680928D01*
X41906955Y-4680928D02*
X41764098Y-4752357D01*
X41764098Y-4752357D02*
X41692669Y-4823785D01*
X41692669Y-4823785D02*
X41621241Y-4966642D01*
X41621241Y-4966642D02*
X41621241Y-5180928D01*
X41621241Y-5180928D02*
X41692669Y-5323785D01*
X41692669Y-5323785D02*
X41764098Y-5395214D01*
X41764098Y-5395214D02*
X41906955Y-5466642D01*
X41906955Y-5466642D02*
X42478384Y-5466642D01*
X41049812Y-6109500D02*
X40835527Y-6180928D01*
X40835527Y-6180928D02*
X40478384Y-6180928D01*
X40478384Y-6180928D02*
X40335527Y-6109500D01*
X40335527Y-6109500D02*
X40264098Y-6038071D01*
X40264098Y-6038071D02*
X40192669Y-5895214D01*
X40192669Y-5895214D02*
X40192669Y-5752357D01*
X40192669Y-5752357D02*
X40264098Y-5609500D01*
X40264098Y-5609500D02*
X40335527Y-5538071D01*
X40335527Y-5538071D02*
X40478384Y-5466642D01*
X40478384Y-5466642D02*
X40764098Y-5395214D01*
X40764098Y-5395214D02*
X40906955Y-5323785D01*
X40906955Y-5323785D02*
X40978384Y-5252357D01*
X40978384Y-5252357D02*
X41049812Y-5109500D01*
X41049812Y-5109500D02*
X41049812Y-4966642D01*
X41049812Y-4966642D02*
X40978384Y-4823785D01*
X40978384Y-4823785D02*
X40906955Y-4752357D01*
X40906955Y-4752357D02*
X40764098Y-4680928D01*
X40764098Y-4680928D02*
X40406955Y-4680928D01*
X40406955Y-4680928D02*
X40192669Y-4752357D01*
X39549813Y-4680928D02*
X39549813Y-5895214D01*
X39549813Y-5895214D02*
X39478384Y-6038071D01*
X39478384Y-6038071D02*
X39406956Y-6109500D01*
X39406956Y-6109500D02*
X39264098Y-6180928D01*
X39264098Y-6180928D02*
X38978384Y-6180928D01*
X38978384Y-6180928D02*
X38835527Y-6109500D01*
X38835527Y-6109500D02*
X38764098Y-6038071D01*
X38764098Y-6038071D02*
X38692670Y-5895214D01*
X38692670Y-5895214D02*
X38692670Y-4680928D01*
D12*
X41887719Y-39298521D02*
X41887719Y-39946140D01*
X41887719Y-39946140D02*
X41925814Y-40022331D01*
X41925814Y-40022331D02*
X41963910Y-40060426D01*
X41963910Y-40060426D02*
X42040100Y-40098521D01*
X42040100Y-40098521D02*
X42154386Y-40098521D01*
X42154386Y-40098521D02*
X42230576Y-40060426D01*
X41887719Y-39793760D02*
X41963910Y-39831855D01*
X41963910Y-39831855D02*
X42116291Y-39831855D01*
X42116291Y-39831855D02*
X42192481Y-39793760D01*
X42192481Y-39793760D02*
X42230576Y-39755664D01*
X42230576Y-39755664D02*
X42268672Y-39679474D01*
X42268672Y-39679474D02*
X42268672Y-39450902D01*
X42268672Y-39450902D02*
X42230576Y-39374712D01*
X42230576Y-39374712D02*
X42192481Y-39336617D01*
X42192481Y-39336617D02*
X42116291Y-39298521D01*
X42116291Y-39298521D02*
X41963910Y-39298521D01*
X41963910Y-39298521D02*
X41887719Y-39336617D01*
X41506766Y-39831855D02*
X41506766Y-39298521D01*
X41506766Y-39031855D02*
X41544862Y-39069950D01*
X41544862Y-39069950D02*
X41506766Y-39108045D01*
X41506766Y-39108045D02*
X41468671Y-39069950D01*
X41468671Y-39069950D02*
X41506766Y-39031855D01*
X41506766Y-39031855D02*
X41506766Y-39108045D01*
X41240100Y-39298521D02*
X40935338Y-39298521D01*
X41125814Y-39031855D02*
X41125814Y-39717569D01*
X41125814Y-39717569D02*
X41087719Y-39793760D01*
X41087719Y-39793760D02*
X41011529Y-39831855D01*
X41011529Y-39831855D02*
X40935338Y-39831855D01*
X40668671Y-39831855D02*
X40668671Y-39031855D01*
X40325814Y-39831855D02*
X40325814Y-39412807D01*
X40325814Y-39412807D02*
X40363909Y-39336617D01*
X40363909Y-39336617D02*
X40440100Y-39298521D01*
X40440100Y-39298521D02*
X40554386Y-39298521D01*
X40554386Y-39298521D02*
X40630576Y-39336617D01*
X40630576Y-39336617D02*
X40668671Y-39374712D01*
X39602004Y-39298521D02*
X39602004Y-39831855D01*
X39944861Y-39298521D02*
X39944861Y-39717569D01*
X39944861Y-39717569D02*
X39906766Y-39793760D01*
X39906766Y-39793760D02*
X39830576Y-39831855D01*
X39830576Y-39831855D02*
X39716290Y-39831855D01*
X39716290Y-39831855D02*
X39640099Y-39793760D01*
X39640099Y-39793760D02*
X39602004Y-39755664D01*
X39221051Y-39831855D02*
X39221051Y-39031855D01*
X39221051Y-39336617D02*
X39144861Y-39298521D01*
X39144861Y-39298521D02*
X38992480Y-39298521D01*
X38992480Y-39298521D02*
X38916289Y-39336617D01*
X38916289Y-39336617D02*
X38878194Y-39374712D01*
X38878194Y-39374712D02*
X38840099Y-39450902D01*
X38840099Y-39450902D02*
X38840099Y-39679474D01*
X38840099Y-39679474D02*
X38878194Y-39755664D01*
X38878194Y-39755664D02*
X38916289Y-39793760D01*
X38916289Y-39793760D02*
X38992480Y-39831855D01*
X38992480Y-39831855D02*
X39144861Y-39831855D01*
X39144861Y-39831855D02*
X39221051Y-39793760D01*
X38497241Y-39755664D02*
X38459146Y-39793760D01*
X38459146Y-39793760D02*
X38497241Y-39831855D01*
X38497241Y-39831855D02*
X38535337Y-39793760D01*
X38535337Y-39793760D02*
X38497241Y-39755664D01*
X38497241Y-39755664D02*
X38497241Y-39831855D01*
X37773432Y-39793760D02*
X37849623Y-39831855D01*
X37849623Y-39831855D02*
X38002004Y-39831855D01*
X38002004Y-39831855D02*
X38078194Y-39793760D01*
X38078194Y-39793760D02*
X38116289Y-39755664D01*
X38116289Y-39755664D02*
X38154385Y-39679474D01*
X38154385Y-39679474D02*
X38154385Y-39450902D01*
X38154385Y-39450902D02*
X38116289Y-39374712D01*
X38116289Y-39374712D02*
X38078194Y-39336617D01*
X38078194Y-39336617D02*
X38002004Y-39298521D01*
X38002004Y-39298521D02*
X37849623Y-39298521D01*
X37849623Y-39298521D02*
X37773432Y-39336617D01*
X37316290Y-39831855D02*
X37392480Y-39793760D01*
X37392480Y-39793760D02*
X37430575Y-39755664D01*
X37430575Y-39755664D02*
X37468671Y-39679474D01*
X37468671Y-39679474D02*
X37468671Y-39450902D01*
X37468671Y-39450902D02*
X37430575Y-39374712D01*
X37430575Y-39374712D02*
X37392480Y-39336617D01*
X37392480Y-39336617D02*
X37316290Y-39298521D01*
X37316290Y-39298521D02*
X37202004Y-39298521D01*
X37202004Y-39298521D02*
X37125813Y-39336617D01*
X37125813Y-39336617D02*
X37087718Y-39374712D01*
X37087718Y-39374712D02*
X37049623Y-39450902D01*
X37049623Y-39450902D02*
X37049623Y-39679474D01*
X37049623Y-39679474D02*
X37087718Y-39755664D01*
X37087718Y-39755664D02*
X37125813Y-39793760D01*
X37125813Y-39793760D02*
X37202004Y-39831855D01*
X37202004Y-39831855D02*
X37316290Y-39831855D01*
X36706765Y-39831855D02*
X36706765Y-39298521D01*
X36706765Y-39374712D02*
X36668670Y-39336617D01*
X36668670Y-39336617D02*
X36592480Y-39298521D01*
X36592480Y-39298521D02*
X36478194Y-39298521D01*
X36478194Y-39298521D02*
X36402003Y-39336617D01*
X36402003Y-39336617D02*
X36363908Y-39412807D01*
X36363908Y-39412807D02*
X36363908Y-39831855D01*
X36363908Y-39412807D02*
X36325813Y-39336617D01*
X36325813Y-39336617D02*
X36249622Y-39298521D01*
X36249622Y-39298521D02*
X36135337Y-39298521D01*
X36135337Y-39298521D02*
X36059146Y-39336617D01*
X36059146Y-39336617D02*
X36021051Y-39412807D01*
X36021051Y-39412807D02*
X36021051Y-39831855D01*
X35068670Y-38993760D02*
X35754384Y-40022331D01*
X34459146Y-39793760D02*
X34535337Y-39831855D01*
X34535337Y-39831855D02*
X34687718Y-39831855D01*
X34687718Y-39831855D02*
X34763908Y-39793760D01*
X34763908Y-39793760D02*
X34802003Y-39755664D01*
X34802003Y-39755664D02*
X34840099Y-39679474D01*
X34840099Y-39679474D02*
X34840099Y-39450902D01*
X34840099Y-39450902D02*
X34802003Y-39374712D01*
X34802003Y-39374712D02*
X34763908Y-39336617D01*
X34763908Y-39336617D02*
X34687718Y-39298521D01*
X34687718Y-39298521D02*
X34535337Y-39298521D01*
X34535337Y-39298521D02*
X34459146Y-39336617D01*
X33773432Y-39831855D02*
X33773432Y-39412807D01*
X33773432Y-39412807D02*
X33811527Y-39336617D01*
X33811527Y-39336617D02*
X33887718Y-39298521D01*
X33887718Y-39298521D02*
X34040099Y-39298521D01*
X34040099Y-39298521D02*
X34116289Y-39336617D01*
X33773432Y-39793760D02*
X33849623Y-39831855D01*
X33849623Y-39831855D02*
X34040099Y-39831855D01*
X34040099Y-39831855D02*
X34116289Y-39793760D01*
X34116289Y-39793760D02*
X34154385Y-39717569D01*
X34154385Y-39717569D02*
X34154385Y-39641379D01*
X34154385Y-39641379D02*
X34116289Y-39565188D01*
X34116289Y-39565188D02*
X34040099Y-39527093D01*
X34040099Y-39527093D02*
X33849623Y-39527093D01*
X33849623Y-39527093D02*
X33773432Y-39488998D01*
X33278194Y-39831855D02*
X33354384Y-39793760D01*
X33354384Y-39793760D02*
X33392479Y-39717569D01*
X33392479Y-39717569D02*
X33392479Y-39031855D01*
X32630574Y-39793760D02*
X32706765Y-39831855D01*
X32706765Y-39831855D02*
X32859146Y-39831855D01*
X32859146Y-39831855D02*
X32935336Y-39793760D01*
X32935336Y-39793760D02*
X32973431Y-39755664D01*
X32973431Y-39755664D02*
X33011527Y-39679474D01*
X33011527Y-39679474D02*
X33011527Y-39450902D01*
X33011527Y-39450902D02*
X32973431Y-39374712D01*
X32973431Y-39374712D02*
X32935336Y-39336617D01*
X32935336Y-39336617D02*
X32859146Y-39298521D01*
X32859146Y-39298521D02*
X32706765Y-39298521D01*
X32706765Y-39298521D02*
X32630574Y-39336617D01*
X32287717Y-39298521D02*
X32287717Y-40098521D01*
X32287717Y-39336617D02*
X32211527Y-39298521D01*
X32211527Y-39298521D02*
X32059146Y-39298521D01*
X32059146Y-39298521D02*
X31982955Y-39336617D01*
X31982955Y-39336617D02*
X31944860Y-39374712D01*
X31944860Y-39374712D02*
X31906765Y-39450902D01*
X31906765Y-39450902D02*
X31906765Y-39679474D01*
X31906765Y-39679474D02*
X31944860Y-39755664D01*
X31944860Y-39755664D02*
X31982955Y-39793760D01*
X31982955Y-39793760D02*
X32059146Y-39831855D01*
X32059146Y-39831855D02*
X32211527Y-39831855D01*
X32211527Y-39831855D02*
X32287717Y-39793760D01*
X31602003Y-39793760D02*
X31525812Y-39831855D01*
X31525812Y-39831855D02*
X31373431Y-39831855D01*
X31373431Y-39831855D02*
X31297241Y-39793760D01*
X31297241Y-39793760D02*
X31259145Y-39717569D01*
X31259145Y-39717569D02*
X31259145Y-39679474D01*
X31259145Y-39679474D02*
X31297241Y-39603283D01*
X31297241Y-39603283D02*
X31373431Y-39565188D01*
X31373431Y-39565188D02*
X31487717Y-39565188D01*
X31487717Y-39565188D02*
X31563907Y-39527093D01*
X31563907Y-39527093D02*
X31602003Y-39450902D01*
X31602003Y-39450902D02*
X31602003Y-39412807D01*
X31602003Y-39412807D02*
X31563907Y-39336617D01*
X31563907Y-39336617D02*
X31487717Y-39298521D01*
X31487717Y-39298521D02*
X31373431Y-39298521D01*
X31373431Y-39298521D02*
X31297241Y-39336617D01*
X30573431Y-39298521D02*
X30573431Y-39831855D01*
X30916288Y-39298521D02*
X30916288Y-39717569D01*
X30916288Y-39717569D02*
X30878193Y-39793760D01*
X30878193Y-39793760D02*
X30802003Y-39831855D01*
X30802003Y-39831855D02*
X30687717Y-39831855D01*
X30687717Y-39831855D02*
X30611526Y-39793760D01*
X30611526Y-39793760D02*
X30573431Y-39755664D01*
X29621050Y-38993760D02*
X30306764Y-40022331D01*
X29011526Y-39793760D02*
X29087717Y-39831855D01*
X29087717Y-39831855D02*
X29240098Y-39831855D01*
X29240098Y-39831855D02*
X29316288Y-39793760D01*
X29316288Y-39793760D02*
X29354383Y-39755664D01*
X29354383Y-39755664D02*
X29392479Y-39679474D01*
X29392479Y-39679474D02*
X29392479Y-39450902D01*
X29392479Y-39450902D02*
X29354383Y-39374712D01*
X29354383Y-39374712D02*
X29316288Y-39336617D01*
X29316288Y-39336617D02*
X29240098Y-39298521D01*
X29240098Y-39298521D02*
X29087717Y-39298521D01*
X29087717Y-39298521D02*
X29011526Y-39336617D01*
X28668669Y-39298521D02*
X28668669Y-40098521D01*
X28668669Y-39336617D02*
X28592479Y-39298521D01*
X28592479Y-39298521D02*
X28440098Y-39298521D01*
X28440098Y-39298521D02*
X28363907Y-39336617D01*
X28363907Y-39336617D02*
X28325812Y-39374712D01*
X28325812Y-39374712D02*
X28287717Y-39450902D01*
X28287717Y-39450902D02*
X28287717Y-39679474D01*
X28287717Y-39679474D02*
X28325812Y-39755664D01*
X28325812Y-39755664D02*
X28363907Y-39793760D01*
X28363907Y-39793760D02*
X28440098Y-39831855D01*
X28440098Y-39831855D02*
X28592479Y-39831855D01*
X28592479Y-39831855D02*
X28668669Y-39793760D01*
X27944859Y-39831855D02*
X27944859Y-39031855D01*
X27602002Y-39831855D02*
X27602002Y-39412807D01*
X27602002Y-39412807D02*
X27640097Y-39336617D01*
X27640097Y-39336617D02*
X27716288Y-39298521D01*
X27716288Y-39298521D02*
X27830574Y-39298521D01*
X27830574Y-39298521D02*
X27906764Y-39336617D01*
X27906764Y-39336617D02*
X27944859Y-39374712D01*
X27221049Y-39298521D02*
X27221049Y-40098521D01*
X27221049Y-39336617D02*
X27144859Y-39298521D01*
X27144859Y-39298521D02*
X26992478Y-39298521D01*
X26992478Y-39298521D02*
X26916287Y-39336617D01*
X26916287Y-39336617D02*
X26878192Y-39374712D01*
X26878192Y-39374712D02*
X26840097Y-39450902D01*
X26840097Y-39450902D02*
X26840097Y-39679474D01*
X26840097Y-39679474D02*
X26878192Y-39755664D01*
X26878192Y-39755664D02*
X26916287Y-39793760D01*
X26916287Y-39793760D02*
X26992478Y-39831855D01*
X26992478Y-39831855D02*
X27144859Y-39831855D01*
X27144859Y-39831855D02*
X27221049Y-39793760D01*
X26382954Y-39374712D02*
X26459144Y-39336617D01*
X26459144Y-39336617D02*
X26497239Y-39298521D01*
X26497239Y-39298521D02*
X26535335Y-39222331D01*
X26535335Y-39222331D02*
X26535335Y-39184236D01*
X26535335Y-39184236D02*
X26497239Y-39108045D01*
X26497239Y-39108045D02*
X26459144Y-39069950D01*
X26459144Y-39069950D02*
X26382954Y-39031855D01*
X26382954Y-39031855D02*
X26230573Y-39031855D01*
X26230573Y-39031855D02*
X26154382Y-39069950D01*
X26154382Y-39069950D02*
X26116287Y-39108045D01*
X26116287Y-39108045D02*
X26078192Y-39184236D01*
X26078192Y-39184236D02*
X26078192Y-39222331D01*
X26078192Y-39222331D02*
X26116287Y-39298521D01*
X26116287Y-39298521D02*
X26154382Y-39336617D01*
X26154382Y-39336617D02*
X26230573Y-39374712D01*
X26230573Y-39374712D02*
X26382954Y-39374712D01*
X26382954Y-39374712D02*
X26459144Y-39412807D01*
X26459144Y-39412807D02*
X26497239Y-39450902D01*
X26497239Y-39450902D02*
X26535335Y-39527093D01*
X26535335Y-39527093D02*
X26535335Y-39679474D01*
X26535335Y-39679474D02*
X26497239Y-39755664D01*
X26497239Y-39755664D02*
X26459144Y-39793760D01*
X26459144Y-39793760D02*
X26382954Y-39831855D01*
X26382954Y-39831855D02*
X26230573Y-39831855D01*
X26230573Y-39831855D02*
X26154382Y-39793760D01*
X26154382Y-39793760D02*
X26116287Y-39755664D01*
X26116287Y-39755664D02*
X26078192Y-39679474D01*
X26078192Y-39679474D02*
X26078192Y-39527093D01*
X26078192Y-39527093D02*
X26116287Y-39450902D01*
X26116287Y-39450902D02*
X26154382Y-39412807D01*
X26154382Y-39412807D02*
X26230573Y-39374712D01*
X25773430Y-39108045D02*
X25735334Y-39069950D01*
X25735334Y-39069950D02*
X25659144Y-39031855D01*
X25659144Y-39031855D02*
X25468668Y-39031855D01*
X25468668Y-39031855D02*
X25392477Y-39069950D01*
X25392477Y-39069950D02*
X25354382Y-39108045D01*
X25354382Y-39108045D02*
X25316287Y-39184236D01*
X25316287Y-39184236D02*
X25316287Y-39260426D01*
X25316287Y-39260426D02*
X25354382Y-39374712D01*
X25354382Y-39374712D02*
X25811525Y-39831855D01*
X25811525Y-39831855D02*
X25316287Y-39831855D01*
X24821048Y-39031855D02*
X24744858Y-39031855D01*
X24744858Y-39031855D02*
X24668667Y-39069950D01*
X24668667Y-39069950D02*
X24630572Y-39108045D01*
X24630572Y-39108045D02*
X24592477Y-39184236D01*
X24592477Y-39184236D02*
X24554382Y-39336617D01*
X24554382Y-39336617D02*
X24554382Y-39527093D01*
X24554382Y-39527093D02*
X24592477Y-39679474D01*
X24592477Y-39679474D02*
X24630572Y-39755664D01*
X24630572Y-39755664D02*
X24668667Y-39793760D01*
X24668667Y-39793760D02*
X24744858Y-39831855D01*
X24744858Y-39831855D02*
X24821048Y-39831855D01*
X24821048Y-39831855D02*
X24897239Y-39793760D01*
X24897239Y-39793760D02*
X24935334Y-39755664D01*
X24935334Y-39755664D02*
X24973429Y-39679474D01*
X24973429Y-39679474D02*
X25011525Y-39527093D01*
X25011525Y-39527093D02*
X25011525Y-39336617D01*
X25011525Y-39336617D02*
X24973429Y-39184236D01*
X24973429Y-39184236D02*
X24935334Y-39108045D01*
X24935334Y-39108045D02*
X24897239Y-39069950D01*
X24897239Y-39069950D02*
X24821048Y-39031855D01*
X24059143Y-39031855D02*
X23982953Y-39031855D01*
X23982953Y-39031855D02*
X23906762Y-39069950D01*
X23906762Y-39069950D02*
X23868667Y-39108045D01*
X23868667Y-39108045D02*
X23830572Y-39184236D01*
X23830572Y-39184236D02*
X23792477Y-39336617D01*
X23792477Y-39336617D02*
X23792477Y-39527093D01*
X23792477Y-39527093D02*
X23830572Y-39679474D01*
X23830572Y-39679474D02*
X23868667Y-39755664D01*
X23868667Y-39755664D02*
X23906762Y-39793760D01*
X23906762Y-39793760D02*
X23982953Y-39831855D01*
X23982953Y-39831855D02*
X24059143Y-39831855D01*
X24059143Y-39831855D02*
X24135334Y-39793760D01*
X24135334Y-39793760D02*
X24173429Y-39755664D01*
X24173429Y-39755664D02*
X24211524Y-39679474D01*
X24211524Y-39679474D02*
X24249620Y-39527093D01*
X24249620Y-39527093D02*
X24249620Y-39336617D01*
X24249620Y-39336617D02*
X24211524Y-39184236D01*
X24211524Y-39184236D02*
X24173429Y-39108045D01*
X24173429Y-39108045D02*
X24135334Y-39069950D01*
X24135334Y-39069950D02*
X24059143Y-39031855D01*
X23030572Y-39831855D02*
X23487715Y-39831855D01*
X23259143Y-39831855D02*
X23259143Y-39031855D01*
X23259143Y-39031855D02*
X23335334Y-39146140D01*
X23335334Y-39146140D02*
X23411524Y-39222331D01*
X23411524Y-39222331D02*
X23487715Y-39260426D01*
X52730576Y-11331855D02*
X52730576Y-10531855D01*
X52730576Y-10531855D02*
X52463910Y-11103283D01*
X52463910Y-11103283D02*
X52197243Y-10531855D01*
X52197243Y-10531855D02*
X52197243Y-11331855D01*
X51663909Y-10531855D02*
X51511528Y-10531855D01*
X51511528Y-10531855D02*
X51435338Y-10569950D01*
X51435338Y-10569950D02*
X51359147Y-10646140D01*
X51359147Y-10646140D02*
X51321052Y-10798521D01*
X51321052Y-10798521D02*
X51321052Y-11065188D01*
X51321052Y-11065188D02*
X51359147Y-11217569D01*
X51359147Y-11217569D02*
X51435338Y-11293760D01*
X51435338Y-11293760D02*
X51511528Y-11331855D01*
X51511528Y-11331855D02*
X51663909Y-11331855D01*
X51663909Y-11331855D02*
X51740100Y-11293760D01*
X51740100Y-11293760D02*
X51816290Y-11217569D01*
X51816290Y-11217569D02*
X51854386Y-11065188D01*
X51854386Y-11065188D02*
X51854386Y-10798521D01*
X51854386Y-10798521D02*
X51816290Y-10646140D01*
X51816290Y-10646140D02*
X51740100Y-10569950D01*
X51740100Y-10569950D02*
X51663909Y-10531855D01*
X50978195Y-11331855D02*
X50978195Y-10531855D01*
X50978195Y-10531855D02*
X50787719Y-10531855D01*
X50787719Y-10531855D02*
X50673433Y-10569950D01*
X50673433Y-10569950D02*
X50597243Y-10646140D01*
X50597243Y-10646140D02*
X50559148Y-10722331D01*
X50559148Y-10722331D02*
X50521052Y-10874712D01*
X50521052Y-10874712D02*
X50521052Y-10988998D01*
X50521052Y-10988998D02*
X50559148Y-11141379D01*
X50559148Y-11141379D02*
X50597243Y-11217569D01*
X50597243Y-11217569D02*
X50673433Y-11293760D01*
X50673433Y-11293760D02*
X50787719Y-11331855D01*
X50787719Y-11331855D02*
X50978195Y-11331855D01*
X50178195Y-10912807D02*
X49911529Y-10912807D01*
X49797243Y-11331855D02*
X50178195Y-11331855D01*
X50178195Y-11331855D02*
X50178195Y-10531855D01*
X50178195Y-10531855D02*
X49797243Y-10531855D01*
X49073433Y-11331855D02*
X49454385Y-11331855D01*
X49454385Y-11331855D02*
X49454385Y-10531855D01*
X48806766Y-11255664D02*
X48768671Y-11293760D01*
X48768671Y-11293760D02*
X48806766Y-11331855D01*
X48806766Y-11331855D02*
X48844862Y-11293760D01*
X48844862Y-11293760D02*
X48806766Y-11255664D01*
X48806766Y-11255664D02*
X48806766Y-11331855D01*
X48806766Y-10836617D02*
X48768671Y-10874712D01*
X48768671Y-10874712D02*
X48806766Y-10912807D01*
X48806766Y-10912807D02*
X48844862Y-10874712D01*
X48844862Y-10874712D02*
X48806766Y-10836617D01*
X48806766Y-10836617D02*
X48806766Y-10912807D01*
X52768672Y-13869760D02*
X52654386Y-13907855D01*
X52654386Y-13907855D02*
X52463910Y-13907855D01*
X52463910Y-13907855D02*
X52387719Y-13869760D01*
X52387719Y-13869760D02*
X52349624Y-13831664D01*
X52349624Y-13831664D02*
X52311529Y-13755474D01*
X52311529Y-13755474D02*
X52311529Y-13679283D01*
X52311529Y-13679283D02*
X52349624Y-13603093D01*
X52349624Y-13603093D02*
X52387719Y-13564998D01*
X52387719Y-13564998D02*
X52463910Y-13526902D01*
X52463910Y-13526902D02*
X52616291Y-13488807D01*
X52616291Y-13488807D02*
X52692481Y-13450712D01*
X52692481Y-13450712D02*
X52730576Y-13412617D01*
X52730576Y-13412617D02*
X52768672Y-13336426D01*
X52768672Y-13336426D02*
X52768672Y-13260236D01*
X52768672Y-13260236D02*
X52730576Y-13184045D01*
X52730576Y-13184045D02*
X52692481Y-13145950D01*
X52692481Y-13145950D02*
X52616291Y-13107855D01*
X52616291Y-13107855D02*
X52425814Y-13107855D01*
X52425814Y-13107855D02*
X52311529Y-13145950D01*
X51968671Y-13488807D02*
X51702005Y-13488807D01*
X51587719Y-13907855D02*
X51968671Y-13907855D01*
X51968671Y-13907855D02*
X51968671Y-13107855D01*
X51968671Y-13107855D02*
X51587719Y-13107855D01*
X50787718Y-13907855D02*
X51054385Y-13526902D01*
X51244861Y-13907855D02*
X51244861Y-13107855D01*
X51244861Y-13107855D02*
X50940099Y-13107855D01*
X50940099Y-13107855D02*
X50863909Y-13145950D01*
X50863909Y-13145950D02*
X50825814Y-13184045D01*
X50825814Y-13184045D02*
X50787718Y-13260236D01*
X50787718Y-13260236D02*
X50787718Y-13374521D01*
X50787718Y-13374521D02*
X50825814Y-13450712D01*
X50825814Y-13450712D02*
X50863909Y-13488807D01*
X50863909Y-13488807D02*
X50940099Y-13526902D01*
X50940099Y-13526902D02*
X51244861Y-13526902D01*
X50444861Y-13907855D02*
X50444861Y-13107855D01*
X50102005Y-13679283D02*
X49721052Y-13679283D01*
X50178195Y-13907855D02*
X49911528Y-13107855D01*
X49911528Y-13107855D02*
X49644862Y-13907855D01*
X48997243Y-13907855D02*
X49378195Y-13907855D01*
X49378195Y-13907855D02*
X49378195Y-13107855D01*
X48730576Y-13831664D02*
X48692481Y-13869760D01*
X48692481Y-13869760D02*
X48730576Y-13907855D01*
X48730576Y-13907855D02*
X48768672Y-13869760D01*
X48768672Y-13869760D02*
X48730576Y-13831664D01*
X48730576Y-13831664D02*
X48730576Y-13907855D01*
X48730576Y-13412617D02*
X48692481Y-13450712D01*
X48692481Y-13450712D02*
X48730576Y-13488807D01*
X48730576Y-13488807D02*
X48768672Y-13450712D01*
X48768672Y-13450712D02*
X48730576Y-13412617D01*
X48730576Y-13412617D02*
X48730576Y-13488807D01*
X52730576Y-15683855D02*
X52730576Y-16331474D01*
X52730576Y-16331474D02*
X52692481Y-16407664D01*
X52692481Y-16407664D02*
X52654386Y-16445760D01*
X52654386Y-16445760D02*
X52578195Y-16483855D01*
X52578195Y-16483855D02*
X52425814Y-16483855D01*
X52425814Y-16483855D02*
X52349624Y-16445760D01*
X52349624Y-16445760D02*
X52311529Y-16407664D01*
X52311529Y-16407664D02*
X52273433Y-16331474D01*
X52273433Y-16331474D02*
X52273433Y-15683855D01*
X51930577Y-16445760D02*
X51816291Y-16483855D01*
X51816291Y-16483855D02*
X51625815Y-16483855D01*
X51625815Y-16483855D02*
X51549624Y-16445760D01*
X51549624Y-16445760D02*
X51511529Y-16407664D01*
X51511529Y-16407664D02*
X51473434Y-16331474D01*
X51473434Y-16331474D02*
X51473434Y-16255283D01*
X51473434Y-16255283D02*
X51511529Y-16179093D01*
X51511529Y-16179093D02*
X51549624Y-16140998D01*
X51549624Y-16140998D02*
X51625815Y-16102902D01*
X51625815Y-16102902D02*
X51778196Y-16064807D01*
X51778196Y-16064807D02*
X51854386Y-16026712D01*
X51854386Y-16026712D02*
X51892481Y-15988617D01*
X51892481Y-15988617D02*
X51930577Y-15912426D01*
X51930577Y-15912426D02*
X51930577Y-15836236D01*
X51930577Y-15836236D02*
X51892481Y-15760045D01*
X51892481Y-15760045D02*
X51854386Y-15721950D01*
X51854386Y-15721950D02*
X51778196Y-15683855D01*
X51778196Y-15683855D02*
X51587719Y-15683855D01*
X51587719Y-15683855D02*
X51473434Y-15721950D01*
X50863910Y-16064807D02*
X50749624Y-16102902D01*
X50749624Y-16102902D02*
X50711529Y-16140998D01*
X50711529Y-16140998D02*
X50673433Y-16217188D01*
X50673433Y-16217188D02*
X50673433Y-16331474D01*
X50673433Y-16331474D02*
X50711529Y-16407664D01*
X50711529Y-16407664D02*
X50749624Y-16445760D01*
X50749624Y-16445760D02*
X50825814Y-16483855D01*
X50825814Y-16483855D02*
X51130576Y-16483855D01*
X51130576Y-16483855D02*
X51130576Y-15683855D01*
X51130576Y-15683855D02*
X50863910Y-15683855D01*
X50863910Y-15683855D02*
X50787719Y-15721950D01*
X50787719Y-15721950D02*
X50749624Y-15760045D01*
X50749624Y-15760045D02*
X50711529Y-15836236D01*
X50711529Y-15836236D02*
X50711529Y-15912426D01*
X50711529Y-15912426D02*
X50749624Y-15988617D01*
X50749624Y-15988617D02*
X50787719Y-16026712D01*
X50787719Y-16026712D02*
X50863910Y-16064807D01*
X50863910Y-16064807D02*
X51130576Y-16064807D01*
X49721052Y-16483855D02*
X49721052Y-15683855D01*
X49340100Y-16483855D02*
X49340100Y-15683855D01*
X49340100Y-15683855D02*
X48882957Y-16483855D01*
X48882957Y-16483855D02*
X48882957Y-15683855D01*
X48502005Y-16483855D02*
X48502005Y-15683855D01*
X48502005Y-15683855D02*
X48197243Y-15683855D01*
X48197243Y-15683855D02*
X48121053Y-15721950D01*
X48121053Y-15721950D02*
X48082958Y-15760045D01*
X48082958Y-15760045D02*
X48044862Y-15836236D01*
X48044862Y-15836236D02*
X48044862Y-15950521D01*
X48044862Y-15950521D02*
X48082958Y-16026712D01*
X48082958Y-16026712D02*
X48121053Y-16064807D01*
X48121053Y-16064807D02*
X48197243Y-16102902D01*
X48197243Y-16102902D02*
X48502005Y-16102902D01*
X47702005Y-15683855D02*
X47702005Y-16331474D01*
X47702005Y-16331474D02*
X47663910Y-16407664D01*
X47663910Y-16407664D02*
X47625815Y-16445760D01*
X47625815Y-16445760D02*
X47549624Y-16483855D01*
X47549624Y-16483855D02*
X47397243Y-16483855D01*
X47397243Y-16483855D02*
X47321053Y-16445760D01*
X47321053Y-16445760D02*
X47282958Y-16407664D01*
X47282958Y-16407664D02*
X47244862Y-16331474D01*
X47244862Y-16331474D02*
X47244862Y-15683855D01*
X46978196Y-15683855D02*
X46521053Y-15683855D01*
X46749625Y-16483855D02*
X46749625Y-15683855D01*
X46254386Y-16407664D02*
X46216291Y-16445760D01*
X46216291Y-16445760D02*
X46254386Y-16483855D01*
X46254386Y-16483855D02*
X46292482Y-16445760D01*
X46292482Y-16445760D02*
X46254386Y-16407664D01*
X46254386Y-16407664D02*
X46254386Y-16483855D01*
X46254386Y-15988617D02*
X46216291Y-16026712D01*
X46216291Y-16026712D02*
X46254386Y-16064807D01*
X46254386Y-16064807D02*
X46292482Y-16026712D01*
X46292482Y-16026712D02*
X46254386Y-15988617D01*
X46254386Y-15988617D02*
X46254386Y-16064807D01*
X52730576Y-17771855D02*
X52730576Y-16971855D01*
X52730576Y-16971855D02*
X52425814Y-16971855D01*
X52425814Y-16971855D02*
X52349624Y-17009950D01*
X52349624Y-17009950D02*
X52311529Y-17048045D01*
X52311529Y-17048045D02*
X52273433Y-17124236D01*
X52273433Y-17124236D02*
X52273433Y-17238521D01*
X52273433Y-17238521D02*
X52311529Y-17314712D01*
X52311529Y-17314712D02*
X52349624Y-17352807D01*
X52349624Y-17352807D02*
X52425814Y-17390902D01*
X52425814Y-17390902D02*
X52730576Y-17390902D01*
X51968672Y-17543283D02*
X51587719Y-17543283D01*
X52044862Y-17771855D02*
X51778195Y-16971855D01*
X51778195Y-16971855D02*
X51511529Y-17771855D01*
X51244862Y-17771855D02*
X51244862Y-16971855D01*
X51244862Y-16971855D02*
X51054386Y-16971855D01*
X51054386Y-16971855D02*
X50940100Y-17009950D01*
X50940100Y-17009950D02*
X50863910Y-17086140D01*
X50863910Y-17086140D02*
X50825815Y-17162331D01*
X50825815Y-17162331D02*
X50787719Y-17314712D01*
X50787719Y-17314712D02*
X50787719Y-17428998D01*
X50787719Y-17428998D02*
X50825815Y-17581379D01*
X50825815Y-17581379D02*
X50863910Y-17657569D01*
X50863910Y-17657569D02*
X50940100Y-17733760D01*
X50940100Y-17733760D02*
X51054386Y-17771855D01*
X51054386Y-17771855D02*
X51244862Y-17771855D01*
X49835338Y-17771855D02*
X49835338Y-16971855D01*
X49454386Y-17771855D02*
X49454386Y-16971855D01*
X49454386Y-16971855D02*
X48997243Y-17771855D01*
X48997243Y-17771855D02*
X48997243Y-16971855D01*
X48616291Y-17771855D02*
X48616291Y-16971855D01*
X48616291Y-16971855D02*
X48311529Y-16971855D01*
X48311529Y-16971855D02*
X48235339Y-17009950D01*
X48235339Y-17009950D02*
X48197244Y-17048045D01*
X48197244Y-17048045D02*
X48159148Y-17124236D01*
X48159148Y-17124236D02*
X48159148Y-17238521D01*
X48159148Y-17238521D02*
X48197244Y-17314712D01*
X48197244Y-17314712D02*
X48235339Y-17352807D01*
X48235339Y-17352807D02*
X48311529Y-17390902D01*
X48311529Y-17390902D02*
X48616291Y-17390902D01*
X47816291Y-16971855D02*
X47816291Y-17619474D01*
X47816291Y-17619474D02*
X47778196Y-17695664D01*
X47778196Y-17695664D02*
X47740101Y-17733760D01*
X47740101Y-17733760D02*
X47663910Y-17771855D01*
X47663910Y-17771855D02*
X47511529Y-17771855D01*
X47511529Y-17771855D02*
X47435339Y-17733760D01*
X47435339Y-17733760D02*
X47397244Y-17695664D01*
X47397244Y-17695664D02*
X47359148Y-17619474D01*
X47359148Y-17619474D02*
X47359148Y-16971855D01*
X47092482Y-16971855D02*
X46635339Y-16971855D01*
X46863911Y-17771855D02*
X46863911Y-16971855D01*
X46368672Y-17695664D02*
X46330577Y-17733760D01*
X46330577Y-17733760D02*
X46368672Y-17771855D01*
X46368672Y-17771855D02*
X46406768Y-17733760D01*
X46406768Y-17733760D02*
X46368672Y-17695664D01*
X46368672Y-17695664D02*
X46368672Y-17771855D01*
X46368672Y-17276617D02*
X46330577Y-17314712D01*
X46330577Y-17314712D02*
X46368672Y-17352807D01*
X46368672Y-17352807D02*
X46406768Y-17314712D01*
X46406768Y-17314712D02*
X46368672Y-17276617D01*
X46368672Y-17276617D02*
X46368672Y-17352807D01*
X52730576Y-19059855D02*
X52730576Y-18259855D01*
X52730576Y-18259855D02*
X52425814Y-18259855D01*
X52425814Y-18259855D02*
X52349624Y-18297950D01*
X52349624Y-18297950D02*
X52311529Y-18336045D01*
X52311529Y-18336045D02*
X52273433Y-18412236D01*
X52273433Y-18412236D02*
X52273433Y-18526521D01*
X52273433Y-18526521D02*
X52311529Y-18602712D01*
X52311529Y-18602712D02*
X52349624Y-18640807D01*
X52349624Y-18640807D02*
X52425814Y-18678902D01*
X52425814Y-18678902D02*
X52730576Y-18678902D01*
X51968672Y-18831283D02*
X51587719Y-18831283D01*
X52044862Y-19059855D02*
X51778195Y-18259855D01*
X51778195Y-18259855D02*
X51511529Y-19059855D01*
X51244862Y-19059855D02*
X51244862Y-18259855D01*
X51244862Y-18259855D02*
X51054386Y-18259855D01*
X51054386Y-18259855D02*
X50940100Y-18297950D01*
X50940100Y-18297950D02*
X50863910Y-18374140D01*
X50863910Y-18374140D02*
X50825815Y-18450331D01*
X50825815Y-18450331D02*
X50787719Y-18602712D01*
X50787719Y-18602712D02*
X50787719Y-18716998D01*
X50787719Y-18716998D02*
X50825815Y-18869379D01*
X50825815Y-18869379D02*
X50863910Y-18945569D01*
X50863910Y-18945569D02*
X50940100Y-19021760D01*
X50940100Y-19021760D02*
X51054386Y-19059855D01*
X51054386Y-19059855D02*
X51244862Y-19059855D01*
X49682957Y-18259855D02*
X49530576Y-18259855D01*
X49530576Y-18259855D02*
X49454386Y-18297950D01*
X49454386Y-18297950D02*
X49378195Y-18374140D01*
X49378195Y-18374140D02*
X49340100Y-18526521D01*
X49340100Y-18526521D02*
X49340100Y-18793188D01*
X49340100Y-18793188D02*
X49378195Y-18945569D01*
X49378195Y-18945569D02*
X49454386Y-19021760D01*
X49454386Y-19021760D02*
X49530576Y-19059855D01*
X49530576Y-19059855D02*
X49682957Y-19059855D01*
X49682957Y-19059855D02*
X49759148Y-19021760D01*
X49759148Y-19021760D02*
X49835338Y-18945569D01*
X49835338Y-18945569D02*
X49873434Y-18793188D01*
X49873434Y-18793188D02*
X49873434Y-18526521D01*
X49873434Y-18526521D02*
X49835338Y-18374140D01*
X49835338Y-18374140D02*
X49759148Y-18297950D01*
X49759148Y-18297950D02*
X49682957Y-18259855D01*
X48997243Y-18259855D02*
X48997243Y-18907474D01*
X48997243Y-18907474D02*
X48959148Y-18983664D01*
X48959148Y-18983664D02*
X48921053Y-19021760D01*
X48921053Y-19021760D02*
X48844862Y-19059855D01*
X48844862Y-19059855D02*
X48692481Y-19059855D01*
X48692481Y-19059855D02*
X48616291Y-19021760D01*
X48616291Y-19021760D02*
X48578196Y-18983664D01*
X48578196Y-18983664D02*
X48540100Y-18907474D01*
X48540100Y-18907474D02*
X48540100Y-18259855D01*
X48273434Y-18259855D02*
X47816291Y-18259855D01*
X48044863Y-19059855D02*
X48044863Y-18259855D01*
X47549624Y-19059855D02*
X47549624Y-18259855D01*
X47549624Y-18259855D02*
X47244862Y-18259855D01*
X47244862Y-18259855D02*
X47168672Y-18297950D01*
X47168672Y-18297950D02*
X47130577Y-18336045D01*
X47130577Y-18336045D02*
X47092481Y-18412236D01*
X47092481Y-18412236D02*
X47092481Y-18526521D01*
X47092481Y-18526521D02*
X47130577Y-18602712D01*
X47130577Y-18602712D02*
X47168672Y-18640807D01*
X47168672Y-18640807D02*
X47244862Y-18678902D01*
X47244862Y-18678902D02*
X47549624Y-18678902D01*
X46749624Y-18259855D02*
X46749624Y-18907474D01*
X46749624Y-18907474D02*
X46711529Y-18983664D01*
X46711529Y-18983664D02*
X46673434Y-19021760D01*
X46673434Y-19021760D02*
X46597243Y-19059855D01*
X46597243Y-19059855D02*
X46444862Y-19059855D01*
X46444862Y-19059855D02*
X46368672Y-19021760D01*
X46368672Y-19021760D02*
X46330577Y-18983664D01*
X46330577Y-18983664D02*
X46292481Y-18907474D01*
X46292481Y-18907474D02*
X46292481Y-18259855D01*
X46025815Y-18259855D02*
X45568672Y-18259855D01*
X45797244Y-19059855D02*
X45797244Y-18259855D01*
X45302005Y-18983664D02*
X45263910Y-19021760D01*
X45263910Y-19021760D02*
X45302005Y-19059855D01*
X45302005Y-19059855D02*
X45340101Y-19021760D01*
X45340101Y-19021760D02*
X45302005Y-18983664D01*
X45302005Y-18983664D02*
X45302005Y-19059855D01*
X45302005Y-18564617D02*
X45263910Y-18602712D01*
X45263910Y-18602712D02*
X45302005Y-18640807D01*
X45302005Y-18640807D02*
X45340101Y-18602712D01*
X45340101Y-18602712D02*
X45302005Y-18564617D01*
X45302005Y-18564617D02*
X45302005Y-18640807D01*
X52463910Y-19928807D02*
X52349624Y-19966902D01*
X52349624Y-19966902D02*
X52311529Y-20004998D01*
X52311529Y-20004998D02*
X52273433Y-20081188D01*
X52273433Y-20081188D02*
X52273433Y-20195474D01*
X52273433Y-20195474D02*
X52311529Y-20271664D01*
X52311529Y-20271664D02*
X52349624Y-20309760D01*
X52349624Y-20309760D02*
X52425814Y-20347855D01*
X52425814Y-20347855D02*
X52730576Y-20347855D01*
X52730576Y-20347855D02*
X52730576Y-19547855D01*
X52730576Y-19547855D02*
X52463910Y-19547855D01*
X52463910Y-19547855D02*
X52387719Y-19585950D01*
X52387719Y-19585950D02*
X52349624Y-19624045D01*
X52349624Y-19624045D02*
X52311529Y-19700236D01*
X52311529Y-19700236D02*
X52311529Y-19776426D01*
X52311529Y-19776426D02*
X52349624Y-19852617D01*
X52349624Y-19852617D02*
X52387719Y-19890712D01*
X52387719Y-19890712D02*
X52463910Y-19928807D01*
X52463910Y-19928807D02*
X52730576Y-19928807D01*
X51968672Y-20119283D02*
X51587719Y-20119283D01*
X52044862Y-20347855D02*
X51778195Y-19547855D01*
X51778195Y-19547855D02*
X51511529Y-20347855D01*
X51359148Y-19547855D02*
X50902005Y-19547855D01*
X51130577Y-20347855D02*
X51130577Y-19547855D01*
X50749624Y-19547855D02*
X50292481Y-19547855D01*
X50521053Y-20347855D02*
X50521053Y-19547855D01*
X50025814Y-19928807D02*
X49759148Y-19928807D01*
X49644862Y-20347855D02*
X50025814Y-20347855D01*
X50025814Y-20347855D02*
X50025814Y-19547855D01*
X50025814Y-19547855D02*
X49644862Y-19547855D01*
X48844861Y-20347855D02*
X49111528Y-19966902D01*
X49302004Y-20347855D02*
X49302004Y-19547855D01*
X49302004Y-19547855D02*
X48997242Y-19547855D01*
X48997242Y-19547855D02*
X48921052Y-19585950D01*
X48921052Y-19585950D02*
X48882957Y-19624045D01*
X48882957Y-19624045D02*
X48844861Y-19700236D01*
X48844861Y-19700236D02*
X48844861Y-19814521D01*
X48844861Y-19814521D02*
X48882957Y-19890712D01*
X48882957Y-19890712D02*
X48921052Y-19928807D01*
X48921052Y-19928807D02*
X48997242Y-19966902D01*
X48997242Y-19966902D02*
X49302004Y-19966902D01*
X48349623Y-19966902D02*
X48349623Y-20347855D01*
X48616290Y-19547855D02*
X48349623Y-19966902D01*
X48349623Y-19966902D02*
X48082957Y-19547855D01*
X47816290Y-20271664D02*
X47778195Y-20309760D01*
X47778195Y-20309760D02*
X47816290Y-20347855D01*
X47816290Y-20347855D02*
X47854386Y-20309760D01*
X47854386Y-20309760D02*
X47816290Y-20271664D01*
X47816290Y-20271664D02*
X47816290Y-20347855D01*
X47816290Y-19852617D02*
X47778195Y-19890712D01*
X47778195Y-19890712D02*
X47816290Y-19928807D01*
X47816290Y-19928807D02*
X47854386Y-19890712D01*
X47854386Y-19890712D02*
X47816290Y-19852617D01*
X47816290Y-19852617D02*
X47816290Y-19928807D01*
D11*
X9404761Y-29556333D02*
X5595238Y-29556333D01*
X7499999Y-31461095D02*
X7499999Y-27651571D01*
%TO.C,G\u002A\u002A\u002A*%
G36*
X46698307Y-31955928D02*
G01*
X46698307Y-32117244D01*
X46536990Y-32117244D01*
X46375674Y-32117244D01*
X46375674Y-31955928D01*
X46375674Y-31794612D01*
X46536990Y-31794612D01*
X46698307Y-31794612D01*
X46698307Y-31955928D01*
G37*
G36*
X51537799Y-31955928D02*
G01*
X51537799Y-32439877D01*
X51053850Y-32439877D01*
X50569900Y-32439877D01*
X50569900Y-31955928D01*
X50569900Y-31471979D01*
X51053850Y-31471979D01*
X51537799Y-31471979D01*
X51537799Y-31955928D01*
G37*
G36*
X44439877Y-31955928D02*
G01*
X44439877Y-32439877D01*
X43955928Y-32439877D01*
X43471979Y-32439877D01*
X43471979Y-31955928D01*
X43471979Y-31471979D01*
X43955928Y-31471979D01*
X44439877Y-31471979D01*
X44439877Y-31955928D01*
G37*
G36*
X43471979Y-33569092D02*
G01*
X43471979Y-33730408D01*
X43310662Y-33730408D01*
X43149346Y-33730408D01*
X43149346Y-33569092D01*
X43149346Y-33407776D01*
X43310662Y-33407776D01*
X43471979Y-33407776D01*
X43471979Y-33569092D01*
G37*
G36*
X43471979Y-34214358D02*
G01*
X43471979Y-34375674D01*
X43149346Y-34375674D01*
X42826713Y-34375674D01*
X42826713Y-34214358D01*
X42826713Y-34053041D01*
X43149346Y-34053041D01*
X43471979Y-34053041D01*
X43471979Y-34214358D01*
G37*
G36*
X50247268Y-38085951D02*
G01*
X50247268Y-38247268D01*
X50085951Y-38247268D01*
X49924635Y-38247268D01*
X49924635Y-38085951D01*
X49924635Y-37924635D01*
X50085951Y-37924635D01*
X50247268Y-37924635D01*
X50247268Y-38085951D01*
G37*
G36*
X44439877Y-39053850D02*
G01*
X44439877Y-39537799D01*
X43955928Y-39537799D01*
X43471979Y-39537799D01*
X43471979Y-39053850D01*
X43471979Y-38569900D01*
X43955928Y-38569900D01*
X44439877Y-38569900D01*
X44439877Y-39053850D01*
G37*
G36*
X45730408Y-39699115D02*
G01*
X45730408Y-39860432D01*
X45569092Y-39860432D01*
X45407776Y-39860432D01*
X45407776Y-39699115D01*
X45407776Y-39537799D01*
X45569092Y-39537799D01*
X45730408Y-39537799D01*
X45730408Y-39699115D01*
G37*
G36*
X48634104Y-40021748D02*
G01*
X48634104Y-40183064D01*
X48472787Y-40183064D01*
X48311471Y-40183064D01*
X48311471Y-40021748D01*
X48311471Y-39860432D01*
X48472787Y-39860432D01*
X48634104Y-39860432D01*
X48634104Y-40021748D01*
G37*
G36*
X47343572Y-40021748D02*
G01*
X47343572Y-40183064D01*
X47182256Y-40183064D01*
X47020940Y-40183064D01*
X47020940Y-40021748D01*
X47020940Y-39860432D01*
X47182256Y-39860432D01*
X47343572Y-39860432D01*
X47343572Y-40021748D01*
G37*
G36*
X46053041Y-40021748D02*
G01*
X46053041Y-40183064D01*
X45891725Y-40183064D01*
X45730408Y-40183064D01*
X45730408Y-40021748D01*
X45730408Y-39860432D01*
X45891725Y-39860432D01*
X46053041Y-39860432D01*
X46053041Y-40021748D01*
G37*
G36*
X48634104Y-31794612D02*
G01*
X48634104Y-32117244D01*
X48472787Y-32117244D01*
X48311471Y-32117244D01*
X48311471Y-31955928D01*
X48311471Y-31794612D01*
X48150154Y-31794612D01*
X47988838Y-31794612D01*
X47988838Y-31633295D01*
X47988838Y-31471979D01*
X48311471Y-31471979D01*
X48634104Y-31471979D01*
X48634104Y-31794612D01*
G37*
G36*
X50247268Y-30826713D02*
G01*
X51053850Y-30826713D01*
X52183064Y-30826713D01*
X52183064Y-31955928D01*
X52183064Y-33085143D01*
X51053850Y-33085143D01*
X49924635Y-33085143D01*
X49924635Y-31955928D01*
X49924635Y-31149346D01*
X50247268Y-31149346D01*
X50247268Y-31955928D01*
X50247268Y-32762510D01*
X51053850Y-32762510D01*
X51860432Y-32762510D01*
X51860432Y-31955928D01*
X51860432Y-31149346D01*
X51053850Y-31149346D01*
X50247268Y-31149346D01*
X49924635Y-31149346D01*
X49924635Y-30826713D01*
X50247268Y-30826713D01*
G37*
G36*
X43149346Y-30826713D02*
G01*
X43955928Y-30826713D01*
X45085143Y-30826713D01*
X45085143Y-31955928D01*
X45085143Y-33085143D01*
X43955928Y-33085143D01*
X42826713Y-33085143D01*
X42826713Y-31955928D01*
X42826713Y-31149346D01*
X43149346Y-31149346D01*
X43149346Y-31955928D01*
X43149346Y-32762510D01*
X43955928Y-32762510D01*
X44762510Y-32762510D01*
X44762510Y-31955928D01*
X44762510Y-31149346D01*
X43955928Y-31149346D01*
X43149346Y-31149346D01*
X42826713Y-31149346D01*
X42826713Y-30826713D01*
X43149346Y-30826713D01*
G37*
G36*
X43149346Y-37924635D02*
G01*
X43955928Y-37924635D01*
X45085143Y-37924635D01*
X45085143Y-39053850D01*
X45085143Y-40183064D01*
X43955928Y-40183064D01*
X42826713Y-40183064D01*
X42826713Y-39053850D01*
X42826713Y-38247268D01*
X43149346Y-38247268D01*
X43149346Y-39053850D01*
X43149346Y-39860432D01*
X43955928Y-39860432D01*
X44762510Y-39860432D01*
X44762510Y-39053850D01*
X44762510Y-38247268D01*
X43955928Y-38247268D01*
X43149346Y-38247268D01*
X42826713Y-38247268D01*
X42826713Y-37924635D01*
X43149346Y-37924635D01*
G37*
G36*
X49602002Y-31633295D02*
G01*
X49602002Y-31794612D01*
X49440686Y-31794612D01*
X49279369Y-31794612D01*
X49279369Y-32117244D01*
X49279369Y-32439877D01*
X49440686Y-32439877D01*
X49602002Y-32439877D01*
X49602002Y-32762510D01*
X49602002Y-33085143D01*
X49440686Y-33085143D01*
X49279369Y-33085143D01*
X49279369Y-33246459D01*
X49279369Y-33407776D01*
X49118053Y-33407776D01*
X48956736Y-33407776D01*
X48956736Y-33891725D01*
X48956736Y-34375674D01*
X48795420Y-34375674D01*
X48634104Y-34375674D01*
X48634104Y-34214358D01*
X48634104Y-34053041D01*
X48311471Y-34053041D01*
X47988838Y-34053041D01*
X47988838Y-33891725D01*
X47988838Y-33730408D01*
X48311471Y-33730408D01*
X48634104Y-33730408D01*
X48634104Y-33569092D01*
X48634104Y-33407776D01*
X48472787Y-33407776D01*
X48311471Y-33407776D01*
X48311471Y-33246459D01*
X48311471Y-33085143D01*
X48472787Y-33085143D01*
X48634104Y-33085143D01*
X48634104Y-32762510D01*
X48956736Y-32762510D01*
X48956736Y-32923826D01*
X48956736Y-33085143D01*
X49118053Y-33085143D01*
X49279369Y-33085143D01*
X49279369Y-32923826D01*
X49279369Y-32762510D01*
X49118053Y-32762510D01*
X48956736Y-32762510D01*
X48634104Y-32762510D01*
X48634104Y-32439877D01*
X48795420Y-32439877D01*
X48956736Y-32439877D01*
X48956736Y-31955928D01*
X48956736Y-31471979D01*
X49279369Y-31471979D01*
X49602002Y-31471979D01*
X49602002Y-31633295D01*
G37*
G36*
X43149346Y-34859623D02*
G01*
X43149346Y-35020940D01*
X43310662Y-35020940D01*
X43471979Y-35020940D01*
X43471979Y-34859623D01*
X43471979Y-34698307D01*
X43794612Y-34698307D01*
X44117244Y-34698307D01*
X44117244Y-34859623D01*
X44117244Y-35020940D01*
X43955928Y-35020940D01*
X43794612Y-35020940D01*
X43794612Y-35182256D01*
X43794612Y-35343572D01*
X43633295Y-35343572D01*
X43471979Y-35343572D01*
X43471979Y-35504889D01*
X43471979Y-35666205D01*
X43633295Y-35666205D01*
X43794612Y-35666205D01*
X43794612Y-35504889D01*
X43794612Y-35343572D01*
X43955928Y-35343572D01*
X44117244Y-35343572D01*
X44117244Y-35988838D01*
X44117244Y-36634104D01*
X43955928Y-36634104D01*
X43794612Y-36634104D01*
X43794612Y-36311471D01*
X43794612Y-35988838D01*
X43633295Y-35988838D01*
X43471979Y-35988838D01*
X43471979Y-36472787D01*
X43471979Y-36956736D01*
X43310662Y-36956736D01*
X43149346Y-36956736D01*
X43149346Y-37279369D01*
X43149346Y-37602002D01*
X42988030Y-37602002D01*
X42826713Y-37602002D01*
X42826713Y-37118053D01*
X42826713Y-36634104D01*
X42988030Y-36634104D01*
X43149346Y-36634104D01*
X43149346Y-36311471D01*
X43149346Y-35988838D01*
X42988030Y-35988838D01*
X42826713Y-35988838D01*
X42826713Y-35827522D01*
X42826713Y-35666205D01*
X42988030Y-35666205D01*
X43149346Y-35666205D01*
X43149346Y-35504889D01*
X43149346Y-35343572D01*
X42988030Y-35343572D01*
X42826713Y-35343572D01*
X42826713Y-35020940D01*
X42826713Y-34698307D01*
X42988030Y-34698307D01*
X43149346Y-34698307D01*
X43149346Y-34859623D01*
G37*
G36*
X45891725Y-37924635D02*
G01*
X46053041Y-37924635D01*
X46053041Y-38247268D01*
X46053041Y-38569900D01*
X46214358Y-38569900D01*
X46375674Y-38569900D01*
X46375674Y-38731217D01*
X46375674Y-38892533D01*
X46053041Y-38892533D01*
X45730408Y-38892533D01*
X45730408Y-39053850D01*
X45730408Y-39215166D01*
X45569092Y-39215166D01*
X45407776Y-39215166D01*
X45407776Y-39053850D01*
X45407776Y-38892533D01*
X45569092Y-38892533D01*
X45730408Y-38892533D01*
X45730408Y-38731217D01*
X45730408Y-38569900D01*
X45569092Y-38569900D01*
X45407776Y-38569900D01*
X45407776Y-38408584D01*
X45407776Y-38247268D01*
X45569092Y-38247268D01*
X45730408Y-38247268D01*
X45730408Y-38085951D01*
X45730408Y-37924635D01*
X45891725Y-37924635D01*
G37*
G36*
X46053041Y-37118053D02*
G01*
X46053041Y-37279369D01*
X46214358Y-37279369D01*
X46375674Y-37279369D01*
X46375674Y-37118053D01*
X46375674Y-36956736D01*
X46536990Y-36956736D01*
X46698307Y-36956736D01*
X46698307Y-37118053D01*
X46698307Y-37279369D01*
X46536990Y-37279369D01*
X46375674Y-37279369D01*
X46375674Y-37440686D01*
X46375674Y-37602002D01*
X46053041Y-37602002D01*
X45730408Y-37602002D01*
X45730408Y-37763318D01*
X45730408Y-37924635D01*
X45569092Y-37924635D01*
X45407776Y-37924635D01*
X45407776Y-37763318D01*
X45407776Y-37602002D01*
X45569092Y-37602002D01*
X45730408Y-37602002D01*
X45730408Y-37279369D01*
X45730408Y-36956736D01*
X45891725Y-36956736D01*
X46053041Y-36956736D01*
X46053041Y-37118053D01*
G37*
G36*
X46375674Y-36634104D02*
G01*
X46375674Y-36956736D01*
X46214358Y-36956736D01*
X46053041Y-36956736D01*
X46053041Y-36634104D01*
X46053041Y-36311471D01*
X46214358Y-36311471D01*
X46375674Y-36311471D01*
X46375674Y-36634104D01*
G37*
G36*
X51053850Y-34698307D02*
G01*
X51215166Y-34698307D01*
X51215166Y-34859623D01*
X51215166Y-35020940D01*
X51376482Y-35020940D01*
X51537799Y-35020940D01*
X51537799Y-34859623D01*
X51537799Y-34698307D01*
X51860432Y-34698307D01*
X52183064Y-34698307D01*
X52183064Y-34859623D01*
X52183064Y-35020940D01*
X52021748Y-35020940D01*
X51860432Y-35020940D01*
X51860432Y-35182256D01*
X51860432Y-35343572D01*
X51699115Y-35343572D01*
X51537799Y-35343572D01*
X51537799Y-35504889D01*
X51537799Y-35666205D01*
X51699115Y-35666205D01*
X51860432Y-35666205D01*
X51860432Y-35504889D01*
X51860432Y-35343572D01*
X52021748Y-35343572D01*
X52183064Y-35343572D01*
X52183064Y-35504889D01*
X52183064Y-35666205D01*
X52021748Y-35666205D01*
X51860432Y-35666205D01*
X51860432Y-35827522D01*
X51860432Y-35988838D01*
X51537799Y-35988838D01*
X51215166Y-35988838D01*
X51215166Y-36150154D01*
X51215166Y-36311471D01*
X51053850Y-36311471D01*
X50892533Y-36311471D01*
X50892533Y-36472787D01*
X50892533Y-36634104D01*
X50731217Y-36634104D01*
X50569900Y-36634104D01*
X50569900Y-36311471D01*
X50569900Y-35988838D01*
X50247268Y-35988838D01*
X49924635Y-35988838D01*
X49924635Y-35827522D01*
X49924635Y-35666205D01*
X50085951Y-35666205D01*
X50247268Y-35666205D01*
X50247268Y-35504889D01*
X50247268Y-35343572D01*
X50408584Y-35343572D01*
X50569900Y-35343572D01*
X50569900Y-35504889D01*
X50569900Y-35666205D01*
X50731217Y-35666205D01*
X50892533Y-35666205D01*
X50892533Y-35827522D01*
X50892533Y-35988838D01*
X51053850Y-35988838D01*
X51215166Y-35988838D01*
X51215166Y-35827522D01*
X51215166Y-35666205D01*
X51053850Y-35666205D01*
X50892533Y-35666205D01*
X50892533Y-35182256D01*
X50892533Y-34698307D01*
X51053850Y-34698307D01*
G37*
G36*
X50247268Y-33569092D02*
G01*
X50247268Y-33730408D01*
X50408584Y-33730408D01*
X50569900Y-33730408D01*
X50569900Y-33569092D01*
X50569900Y-33407776D01*
X50892533Y-33407776D01*
X51215166Y-33407776D01*
X51376482Y-33407776D01*
X52183064Y-33407776D01*
X52183064Y-33891725D01*
X52183064Y-34375674D01*
X52021748Y-34375674D01*
X51860432Y-34375674D01*
X51860432Y-34214358D01*
X51860432Y-34053041D01*
X51699115Y-34053041D01*
X51537799Y-34053041D01*
X51537799Y-34214358D01*
X51537799Y-34375674D01*
X51215166Y-34375674D01*
X50892533Y-34375674D01*
X50892533Y-34536990D01*
X50892533Y-34698307D01*
X50569900Y-34698307D01*
X50247268Y-34698307D01*
X50247268Y-34859623D01*
X50247268Y-35020940D01*
X50085951Y-35020940D01*
X49924635Y-35020940D01*
X49924635Y-34698307D01*
X49924635Y-34375674D01*
X50247268Y-34375674D01*
X50408584Y-34375674D01*
X50569900Y-34375674D01*
X50569900Y-34214358D01*
X50569900Y-34053041D01*
X50731217Y-34053041D01*
X50892533Y-34053041D01*
X50892533Y-33891725D01*
X50892533Y-33730408D01*
X51215166Y-33730408D01*
X51215166Y-33891725D01*
X51215166Y-34053041D01*
X51376482Y-34053041D01*
X51537799Y-34053041D01*
X51537799Y-33891725D01*
X51537799Y-33730408D01*
X51376482Y-33730408D01*
X51215166Y-33730408D01*
X50892533Y-33730408D01*
X50731217Y-33730408D01*
X50569900Y-33730408D01*
X50569900Y-33891725D01*
X50569900Y-34053041D01*
X50408584Y-34053041D01*
X50247268Y-34053041D01*
X50247268Y-34214358D01*
X50247268Y-34375674D01*
X49924635Y-34375674D01*
X49763318Y-34375674D01*
X49602002Y-34375674D01*
X49602002Y-34053041D01*
X49602002Y-33730408D01*
X49440686Y-33730408D01*
X49279369Y-33730408D01*
X49279369Y-33569092D01*
X49279369Y-33407776D01*
X49763318Y-33407776D01*
X50247268Y-33407776D01*
X50247268Y-33569092D01*
G37*
G36*
X45891725Y-34698307D02*
G01*
X46053041Y-34698307D01*
X46053041Y-34859623D01*
X46053041Y-35020940D01*
X46214358Y-35020940D01*
X46375674Y-35020940D01*
X46375674Y-34859623D01*
X46375674Y-34698307D01*
X46698307Y-34698307D01*
X47020940Y-34698307D01*
X47020940Y-34859623D01*
X47020940Y-35020940D01*
X46859623Y-35020940D01*
X46698307Y-35020940D01*
X46698307Y-35182256D01*
X46698307Y-35343572D01*
X46536990Y-35343572D01*
X46375674Y-35343572D01*
X46375674Y-35504889D01*
X46375674Y-35666205D01*
X46536990Y-35666205D01*
X46698307Y-35666205D01*
X46698307Y-35504889D01*
X46698307Y-35343572D01*
X46859623Y-35343572D01*
X47020940Y-35343572D01*
X47020940Y-35988838D01*
X47020940Y-36634104D01*
X46859623Y-36634104D01*
X46698307Y-36634104D01*
X46698307Y-36311471D01*
X46698307Y-35988838D01*
X46375674Y-35988838D01*
X46053041Y-35988838D01*
X46053041Y-35827522D01*
X46053041Y-35666205D01*
X45891725Y-35666205D01*
X45730408Y-35666205D01*
X45730408Y-36150154D01*
X45730408Y-36634104D01*
X45569092Y-36634104D01*
X45407776Y-36634104D01*
X45407776Y-36795420D01*
X45407776Y-36956736D01*
X44923826Y-36956736D01*
X44439877Y-36956736D01*
X44439877Y-37118053D01*
X44439877Y-37279369D01*
X44762510Y-37279369D01*
X45085143Y-37279369D01*
X45085143Y-37440686D01*
X45085143Y-37602002D01*
X44601194Y-37602002D01*
X44117244Y-37602002D01*
X44117244Y-37440686D01*
X44117244Y-37279369D01*
X43955928Y-37279369D01*
X43794612Y-37279369D01*
X43794612Y-37440686D01*
X43794612Y-37602002D01*
X43633295Y-37602002D01*
X43471979Y-37602002D01*
X43471979Y-37440686D01*
X43471979Y-37279369D01*
X43633295Y-37279369D01*
X43794612Y-37279369D01*
X43794612Y-37118053D01*
X43794612Y-36956736D01*
X44117244Y-36956736D01*
X44439877Y-36956736D01*
X44439877Y-36795420D01*
X44439877Y-36634104D01*
X44923826Y-36634104D01*
X45407776Y-36634104D01*
X45407776Y-36311471D01*
X45407776Y-35988838D01*
X45246459Y-35988838D01*
X45085143Y-35988838D01*
X45085143Y-36150154D01*
X45085143Y-36311471D01*
X44923826Y-36311471D01*
X44762510Y-36311471D01*
X44762510Y-36150154D01*
X44762510Y-35988838D01*
X44923826Y-35988838D01*
X45085143Y-35988838D01*
X45085143Y-35827522D01*
X45085143Y-35666205D01*
X44923826Y-35666205D01*
X44762510Y-35666205D01*
X44762510Y-35827522D01*
X44762510Y-35988838D01*
X44601194Y-35988838D01*
X44439877Y-35988838D01*
X44439877Y-35827522D01*
X44439877Y-35666205D01*
X44601194Y-35666205D01*
X44762510Y-35666205D01*
X44762510Y-35504889D01*
X44762510Y-35343572D01*
X45085143Y-35343572D01*
X45407776Y-35343572D01*
X45407776Y-35504889D01*
X45407776Y-35666205D01*
X45569092Y-35666205D01*
X45730408Y-35666205D01*
X45730408Y-35182256D01*
X45730408Y-34698307D01*
X45891725Y-34698307D01*
G37*
G36*
X46053041Y-30988030D02*
G01*
X46053041Y-31149346D01*
X45891725Y-31149346D01*
X45730408Y-31149346D01*
X45730408Y-31471979D01*
X45730408Y-31794612D01*
X45891725Y-31794612D01*
X46053041Y-31794612D01*
X46053041Y-31955928D01*
X46053041Y-32117244D01*
X46214358Y-32117244D01*
X46375674Y-32117244D01*
X46375674Y-32601194D01*
X46375674Y-33085143D01*
X46536990Y-33085143D01*
X46698307Y-33085143D01*
X46698307Y-32762510D01*
X47020940Y-32762510D01*
X47020940Y-32923826D01*
X47020940Y-33085143D01*
X47182256Y-33085143D01*
X47343572Y-33085143D01*
X47343572Y-32923826D01*
X47343572Y-32762510D01*
X47182256Y-32762510D01*
X47020940Y-32762510D01*
X46698307Y-32762510D01*
X46698307Y-32439877D01*
X47020940Y-32439877D01*
X47343572Y-32439877D01*
X47343572Y-32278561D01*
X47343572Y-32117244D01*
X47504889Y-32117244D01*
X47666205Y-32117244D01*
X47666205Y-32278561D01*
X47666205Y-32439877D01*
X47988838Y-32439877D01*
X48311471Y-32439877D01*
X48311471Y-32762510D01*
X48311471Y-33085143D01*
X48150154Y-33085143D01*
X47988838Y-33085143D01*
X47988838Y-32923826D01*
X47988838Y-32762510D01*
X47827522Y-32762510D01*
X47666205Y-32762510D01*
X47666205Y-32923826D01*
X47666205Y-33085143D01*
X47504889Y-33085143D01*
X47343572Y-33085143D01*
X47343572Y-33246459D01*
X47343572Y-33407776D01*
X47666205Y-33407776D01*
X47988838Y-33407776D01*
X47988838Y-33569092D01*
X47988838Y-33730408D01*
X47504889Y-33730408D01*
X47020940Y-33730408D01*
X47020940Y-34053041D01*
X47020940Y-34375674D01*
X46859623Y-34375674D01*
X46698307Y-34375674D01*
X46698307Y-34053041D01*
X46698307Y-33730408D01*
X46536990Y-33730408D01*
X46375674Y-33730408D01*
X46375674Y-33569092D01*
X46375674Y-33407776D01*
X46214358Y-33407776D01*
X46053041Y-33407776D01*
X46053041Y-33569092D01*
X46053041Y-33730408D01*
X45891725Y-33730408D01*
X45730408Y-33730408D01*
X45730408Y-33891725D01*
X45730408Y-34053041D01*
X45569092Y-34053041D01*
X45407776Y-34053041D01*
X45407776Y-34214358D01*
X45407776Y-34375674D01*
X45569092Y-34375674D01*
X45730408Y-34375674D01*
X45730408Y-34214358D01*
X45730408Y-34053041D01*
X46053041Y-34053041D01*
X46375674Y-34053041D01*
X46375674Y-34214358D01*
X46375674Y-34375674D01*
X46053041Y-34375674D01*
X45730408Y-34375674D01*
X45730408Y-34536990D01*
X45730408Y-34698307D01*
X45407776Y-34698307D01*
X45085143Y-34698307D01*
X45085143Y-34859623D01*
X45085143Y-35020940D01*
X44762510Y-35020940D01*
X44439877Y-35020940D01*
X44439877Y-34698307D01*
X44439877Y-34375674D01*
X44601194Y-34375674D01*
X44762510Y-34375674D01*
X44762510Y-34536990D01*
X44762510Y-34698307D01*
X44923826Y-34698307D01*
X45085143Y-34698307D01*
X45085143Y-34536990D01*
X45085143Y-34375674D01*
X44923826Y-34375674D01*
X44762510Y-34375674D01*
X44762510Y-34214358D01*
X44762510Y-34053041D01*
X44439877Y-34053041D01*
X44117244Y-34053041D01*
X44117244Y-34214358D01*
X44117244Y-34375674D01*
X43955928Y-34375674D01*
X43794612Y-34375674D01*
X43794612Y-33891725D01*
X43794612Y-33407776D01*
X43955928Y-33407776D01*
X44117244Y-33407776D01*
X44117244Y-33569092D01*
X44117244Y-33730408D01*
X44278561Y-33730408D01*
X44439877Y-33730408D01*
X44439877Y-33569092D01*
X44439877Y-33407776D01*
X44762510Y-33407776D01*
X45085143Y-33407776D01*
X45085143Y-33569092D01*
X45085143Y-33730408D01*
X44923826Y-33730408D01*
X44762510Y-33730408D01*
X44762510Y-33891725D01*
X44762510Y-34053041D01*
X44923826Y-34053041D01*
X45085143Y-34053041D01*
X45085143Y-33891725D01*
X45085143Y-33730408D01*
X45246459Y-33730408D01*
X45407776Y-33730408D01*
X45407776Y-33246459D01*
X45407776Y-32762510D01*
X45569092Y-32762510D01*
X45730408Y-32762510D01*
X45730408Y-32923826D01*
X45730408Y-33085143D01*
X45891725Y-33085143D01*
X46053041Y-33085143D01*
X46053041Y-32923826D01*
X46053041Y-32762510D01*
X45891725Y-32762510D01*
X45730408Y-32762510D01*
X45730408Y-32601194D01*
X45730408Y-32439877D01*
X45569092Y-32439877D01*
X45407776Y-32439877D01*
X45407776Y-31633295D01*
X45407776Y-30826713D01*
X45730408Y-30826713D01*
X46053041Y-30826713D01*
X46053041Y-30988030D01*
G37*
G36*
X47020940Y-31149346D02*
G01*
X47020940Y-31471979D01*
X47182256Y-31471979D01*
X47343572Y-31471979D01*
X47343572Y-31310662D01*
X47343572Y-31149346D01*
X47504889Y-31149346D01*
X47666205Y-31149346D01*
X47666205Y-30988030D01*
X47666205Y-30826713D01*
X48634104Y-30826713D01*
X49602002Y-30826713D01*
X49602002Y-30988030D01*
X49602002Y-31149346D01*
X48795420Y-31149346D01*
X47988838Y-31149346D01*
X47988838Y-31310662D01*
X47988838Y-31471979D01*
X47666205Y-31471979D01*
X47343572Y-31471979D01*
X47343572Y-31794612D01*
X47343572Y-32117244D01*
X47182256Y-32117244D01*
X47020940Y-32117244D01*
X47020940Y-31955928D01*
X47020940Y-31794612D01*
X46859623Y-31794612D01*
X46698307Y-31794612D01*
X46698307Y-31471979D01*
X46698307Y-31149346D01*
X46536990Y-31149346D01*
X46375674Y-31149346D01*
X46375674Y-31310662D01*
X46375674Y-31471979D01*
X46214358Y-31471979D01*
X46053041Y-31471979D01*
X46053041Y-31310662D01*
X46053041Y-31149346D01*
X46214358Y-31149346D01*
X46375674Y-31149346D01*
X46375674Y-30988030D01*
X46375674Y-30826713D01*
X46698307Y-30826713D01*
X47020940Y-30826713D01*
X47020940Y-31149346D01*
G37*
G36*
X48472787Y-34698307D02*
G01*
X48634104Y-34698307D01*
X48634104Y-34859623D01*
X48634104Y-35020940D01*
X48795420Y-35020940D01*
X48956736Y-35020940D01*
X48956736Y-34859623D01*
X48956736Y-34698307D01*
X49279369Y-34698307D01*
X49602002Y-34698307D01*
X49602002Y-34859623D01*
X49602002Y-35020940D01*
X49440686Y-35020940D01*
X49279369Y-35020940D01*
X49279369Y-35182256D01*
X49279369Y-35343572D01*
X49118053Y-35343572D01*
X48956736Y-35343572D01*
X48956736Y-35504889D01*
X48956736Y-35666205D01*
X49118053Y-35666205D01*
X49279369Y-35666205D01*
X49279369Y-35504889D01*
X49279369Y-35343572D01*
X49440686Y-35343572D01*
X49602002Y-35343572D01*
X49602002Y-35504889D01*
X49602002Y-35666205D01*
X49440686Y-35666205D01*
X49279369Y-35666205D01*
X49279369Y-35827522D01*
X49279369Y-35988838D01*
X48956736Y-35988838D01*
X48634104Y-35988838D01*
X48634104Y-35827522D01*
X48634104Y-35666205D01*
X48472787Y-35666205D01*
X48311471Y-35666205D01*
X48311471Y-35988838D01*
X48311471Y-36311471D01*
X48634104Y-36311471D01*
X48956736Y-36311471D01*
X48956736Y-36472787D01*
X48956736Y-36634104D01*
X48795420Y-36634104D01*
X48634104Y-36634104D01*
X48634104Y-36956736D01*
X48634104Y-37279369D01*
X48311471Y-37279369D01*
X47988838Y-37279369D01*
X47988838Y-37440686D01*
X47988838Y-37602002D01*
X48311471Y-37602002D01*
X48634104Y-37602002D01*
X48634104Y-37763318D01*
X48634104Y-37924635D01*
X48795420Y-37924635D01*
X48956736Y-37924635D01*
X48956736Y-37763318D01*
X48956736Y-37602002D01*
X49602002Y-37602002D01*
X49602002Y-38085951D01*
X49602002Y-38569900D01*
X50085951Y-38569900D01*
X50569900Y-38569900D01*
X50569900Y-38085951D01*
X50569900Y-37602002D01*
X50085951Y-37602002D01*
X49602002Y-37602002D01*
X48956736Y-37602002D01*
X48795420Y-37602002D01*
X48634104Y-37602002D01*
X48634104Y-37440686D01*
X48634104Y-37279369D01*
X48956736Y-37279369D01*
X49279369Y-37279369D01*
X49279369Y-37118053D01*
X49279369Y-36956736D01*
X49440686Y-36956736D01*
X49602002Y-36956736D01*
X49602002Y-37118053D01*
X49602002Y-37279369D01*
X49763318Y-37279369D01*
X49924635Y-37279369D01*
X49924635Y-37118053D01*
X49924635Y-36956736D01*
X49763318Y-36956736D01*
X49602002Y-36956736D01*
X49602002Y-36795420D01*
X49602002Y-36634104D01*
X49440686Y-36634104D01*
X49279369Y-36634104D01*
X49279369Y-36311471D01*
X49279369Y-35988838D01*
X49440686Y-35988838D01*
X49602002Y-35988838D01*
X49602002Y-36311471D01*
X49602002Y-36634104D01*
X49763318Y-36634104D01*
X49924635Y-36634104D01*
X49924635Y-36472787D01*
X49924635Y-36311471D01*
X50085951Y-36311471D01*
X50247268Y-36311471D01*
X50247268Y-36634104D01*
X50247268Y-36956736D01*
X50408584Y-36956736D01*
X50569900Y-36956736D01*
X50569900Y-37118053D01*
X50569900Y-37279369D01*
X50731217Y-37279369D01*
X50892533Y-37279369D01*
X50892533Y-37118053D01*
X50892533Y-36956736D01*
X51053850Y-36956736D01*
X51215166Y-36956736D01*
X51215166Y-36795420D01*
X51215166Y-36634104D01*
X51537799Y-36634104D01*
X51860432Y-36634104D01*
X51860432Y-36472787D01*
X51860432Y-36311471D01*
X52021748Y-36311471D01*
X52183064Y-36311471D01*
X52183064Y-36472787D01*
X52183064Y-36634104D01*
X52021748Y-36634104D01*
X51860432Y-36634104D01*
X51860432Y-36795420D01*
X51860432Y-36956736D01*
X51699115Y-36956736D01*
X51537799Y-36956736D01*
X51537799Y-37118053D01*
X51537799Y-37279369D01*
X51699115Y-37279369D01*
X51860432Y-37279369D01*
X51860432Y-37118053D01*
X51860432Y-36956736D01*
X52021748Y-36956736D01*
X52183064Y-36956736D01*
X52183064Y-37118053D01*
X52183064Y-37279369D01*
X52021748Y-37279369D01*
X51860432Y-37279369D01*
X51860432Y-37602002D01*
X51860432Y-37924635D01*
X51699115Y-37924635D01*
X51537799Y-37924635D01*
X51537799Y-38085951D01*
X51537799Y-38247268D01*
X51699115Y-38247268D01*
X51860432Y-38247268D01*
X51860432Y-38085951D01*
X51860432Y-37924635D01*
X52021748Y-37924635D01*
X52183064Y-37924635D01*
X52183064Y-38408584D01*
X52183064Y-38892533D01*
X52021748Y-38892533D01*
X51860432Y-38892533D01*
X51860432Y-39053850D01*
X51860432Y-39215166D01*
X51699115Y-39215166D01*
X51537799Y-39215166D01*
X51537799Y-39376482D01*
X51537799Y-39537799D01*
X51699115Y-39537799D01*
X51860432Y-39537799D01*
X51860432Y-39376482D01*
X51860432Y-39215166D01*
X52021748Y-39215166D01*
X52183064Y-39215166D01*
X52183064Y-39376482D01*
X52183064Y-39537799D01*
X52021748Y-39537799D01*
X51860432Y-39537799D01*
X51860432Y-39699115D01*
X51860432Y-39860432D01*
X51537799Y-39860432D01*
X51215166Y-39860432D01*
X51215166Y-40021748D01*
X51215166Y-40183064D01*
X51053850Y-40183064D01*
X50892533Y-40183064D01*
X50892533Y-39860432D01*
X50892533Y-39537799D01*
X50731217Y-39537799D01*
X50569900Y-39537799D01*
X50569900Y-39699115D01*
X50569900Y-39860432D01*
X50408584Y-39860432D01*
X50247268Y-39860432D01*
X50247268Y-39699115D01*
X50247268Y-39537799D01*
X50408584Y-39537799D01*
X50569900Y-39537799D01*
X50569900Y-39376482D01*
X50569900Y-39215166D01*
X50731217Y-39215166D01*
X50892533Y-39215166D01*
X50892533Y-39053850D01*
X50892533Y-38892533D01*
X51053850Y-38892533D01*
X51215166Y-38892533D01*
X51215166Y-38569900D01*
X51537799Y-38569900D01*
X51537799Y-38731217D01*
X51537799Y-38892533D01*
X51699115Y-38892533D01*
X51860432Y-38892533D01*
X51860432Y-38731217D01*
X51860432Y-38569900D01*
X51699115Y-38569900D01*
X51537799Y-38569900D01*
X51215166Y-38569900D01*
X51215166Y-38247268D01*
X51215166Y-37602002D01*
X51053850Y-37602002D01*
X50892533Y-37602002D01*
X50892533Y-38247268D01*
X50892533Y-38892533D01*
X50569900Y-38892533D01*
X50247268Y-38892533D01*
X50247268Y-39215166D01*
X50247268Y-39537799D01*
X50085951Y-39537799D01*
X49924635Y-39537799D01*
X49924635Y-39860432D01*
X49924635Y-40183064D01*
X49602002Y-40183064D01*
X49279369Y-40183064D01*
X49279369Y-40021748D01*
X49279369Y-39860432D01*
X49118053Y-39860432D01*
X48956736Y-39860432D01*
X48956736Y-39699115D01*
X48956736Y-39537799D01*
X49118053Y-39537799D01*
X49279369Y-39537799D01*
X49279369Y-39376482D01*
X49279369Y-39215166D01*
X49440686Y-39215166D01*
X49602002Y-39215166D01*
X49602002Y-39053850D01*
X49602002Y-38892533D01*
X49440686Y-38892533D01*
X49279369Y-38892533D01*
X49279369Y-38569900D01*
X49279369Y-38247268D01*
X49118053Y-38247268D01*
X48956736Y-38247268D01*
X48956736Y-38569900D01*
X48956736Y-38892533D01*
X48634104Y-38892533D01*
X48311471Y-38892533D01*
X48311471Y-39053850D01*
X48311471Y-39215166D01*
X48634104Y-39215166D01*
X48956736Y-39215166D01*
X48956736Y-39376482D01*
X48956736Y-39537799D01*
X48472787Y-39537799D01*
X47988838Y-39537799D01*
X47988838Y-39699115D01*
X47988838Y-39860432D01*
X47827522Y-39860432D01*
X47666205Y-39860432D01*
X47666205Y-39699115D01*
X47666205Y-39537799D01*
X47827522Y-39537799D01*
X47988838Y-39537799D01*
X47988838Y-39215166D01*
X47988838Y-38892533D01*
X48150154Y-38892533D01*
X48311471Y-38892533D01*
X48311471Y-38731217D01*
X48311471Y-38569900D01*
X48150154Y-38569900D01*
X47988838Y-38569900D01*
X47988838Y-38731217D01*
X47988838Y-38892533D01*
X47827522Y-38892533D01*
X47666205Y-38892533D01*
X47666205Y-39215166D01*
X47666205Y-39537799D01*
X47504889Y-39537799D01*
X47343572Y-39537799D01*
X47343572Y-39215166D01*
X47343572Y-38892533D01*
X47182256Y-38892533D01*
X47020940Y-38892533D01*
X47020940Y-39215166D01*
X47020940Y-39537799D01*
X46859623Y-39537799D01*
X46698307Y-39537799D01*
X46698307Y-39699115D01*
X46698307Y-39860432D01*
X46536990Y-39860432D01*
X46375674Y-39860432D01*
X46375674Y-39699115D01*
X46375674Y-39537799D01*
X46536990Y-39537799D01*
X46698307Y-39537799D01*
X46698307Y-39376482D01*
X46698307Y-39215166D01*
X46536990Y-39215166D01*
X46375674Y-39215166D01*
X46375674Y-39053850D01*
X46375674Y-38892533D01*
X46698307Y-38892533D01*
X47020940Y-38892533D01*
X47020940Y-37924635D01*
X47343572Y-37924635D01*
X47343572Y-38247268D01*
X47343572Y-38569900D01*
X47504889Y-38569900D01*
X47666205Y-38569900D01*
X47666205Y-38247268D01*
X47666205Y-37924635D01*
X47988838Y-37924635D01*
X47988838Y-38085951D01*
X47988838Y-38247268D01*
X48150154Y-38247268D01*
X48311471Y-38247268D01*
X48311471Y-38085951D01*
X48311471Y-37924635D01*
X48150154Y-37924635D01*
X47988838Y-37924635D01*
X47666205Y-37924635D01*
X47504889Y-37924635D01*
X47343572Y-37924635D01*
X47020940Y-37924635D01*
X47020940Y-36956736D01*
X47182256Y-36956736D01*
X47343572Y-36956736D01*
X47343572Y-37118053D01*
X47343572Y-37279369D01*
X47504889Y-37279369D01*
X47666205Y-37279369D01*
X47666205Y-37118053D01*
X47666205Y-36956736D01*
X47827522Y-36956736D01*
X47988838Y-36956736D01*
X47988838Y-36311471D01*
X47988838Y-35666205D01*
X47827522Y-35666205D01*
X47666205Y-35666205D01*
X47666205Y-35827522D01*
X47666205Y-35988838D01*
X47504889Y-35988838D01*
X47343572Y-35988838D01*
X47343572Y-35827522D01*
X47343572Y-35666205D01*
X47504889Y-35666205D01*
X47666205Y-35666205D01*
X47666205Y-35504889D01*
X47666205Y-35343572D01*
X47827522Y-35343572D01*
X47988838Y-35343572D01*
X47988838Y-35504889D01*
X47988838Y-35666205D01*
X48150154Y-35666205D01*
X48311471Y-35666205D01*
X48311471Y-35182256D01*
X48311471Y-34698307D01*
X48472787Y-34698307D01*
G37*
G36*
X48311471Y-34536990D02*
G01*
X48311471Y-34698307D01*
X47988838Y-34698307D01*
X47666205Y-34698307D01*
X47666205Y-34859623D01*
X47666205Y-35020940D01*
X47504889Y-35020940D01*
X47343572Y-35020940D01*
X47343572Y-34698307D01*
X47343572Y-34375674D01*
X47827522Y-34375674D01*
X48311471Y-34375674D01*
X48311471Y-34536990D01*
G37*
%TO.C,REF\u002A\u002A*%
G36*
X44935110Y-24189384D02*
G01*
X44942125Y-24201727D01*
X44940331Y-24235892D01*
X44912515Y-24288539D01*
X44852696Y-24366599D01*
X44754895Y-24476999D01*
X44613132Y-24626669D01*
X44421426Y-24822538D01*
X44173798Y-25071536D01*
X43957254Y-25286712D01*
X43757666Y-25481970D01*
X43585066Y-25647707D01*
X43447851Y-25775955D01*
X43354419Y-25858747D01*
X43313167Y-25888115D01*
X43302031Y-25884456D01*
X43236317Y-25837343D01*
X43133909Y-25747295D01*
X43011694Y-25628836D01*
X42755120Y-25369556D01*
X43381636Y-24755576D01*
X43522523Y-24617499D01*
X43760881Y-24384084D01*
X44292932Y-24384084D01*
X44320035Y-24413359D01*
X44391148Y-24379642D01*
X44452841Y-24346962D01*
X44521562Y-24378778D01*
X44561867Y-24404456D01*
X44586248Y-24386603D01*
X44583989Y-24371031D01*
X44540315Y-24312355D01*
X44521877Y-24281479D01*
X44561971Y-24209282D01*
X44578403Y-24189468D01*
X44605644Y-24121995D01*
X44572422Y-24100855D01*
X44497000Y-24144311D01*
X44443888Y-24180395D01*
X44393926Y-24165967D01*
X44382895Y-24151768D01*
X44319679Y-24120034D01*
X44300203Y-24130997D01*
X44327504Y-24184720D01*
X44359371Y-24245792D01*
X44326639Y-24315134D01*
X44292932Y-24384084D01*
X43760881Y-24384084D01*
X43779661Y-24365693D01*
X43984598Y-24165957D01*
X44143798Y-24012719D01*
X44263724Y-23900409D01*
X44350839Y-23823459D01*
X44411607Y-23776296D01*
X44452490Y-23753353D01*
X44479952Y-23749058D01*
X44500457Y-23757841D01*
X44520467Y-23774133D01*
X44565648Y-23801693D01*
X44616798Y-23801991D01*
X44623519Y-23798592D01*
X44677218Y-23819860D01*
X44754997Y-23881744D01*
X44834003Y-23961698D01*
X44891383Y-24037176D01*
X44904287Y-24085632D01*
X44900496Y-24118499D01*
X44902203Y-24121995D01*
X44935110Y-24189384D01*
G37*
G36*
X38200673Y-24945528D02*
G01*
X38200673Y-25502841D01*
X37826515Y-25863398D01*
X37820006Y-25869669D01*
X37676103Y-26007604D01*
X37556924Y-26120550D01*
X37474701Y-26196999D01*
X37441666Y-26225445D01*
X37440413Y-26219290D01*
X37437398Y-26149140D01*
X37434804Y-26010573D01*
X37432773Y-25815910D01*
X37431449Y-25577471D01*
X37430976Y-25307576D01*
X37430976Y-24783921D01*
X37580640Y-24783921D01*
X37676852Y-24802847D01*
X37735713Y-24828109D01*
X37773064Y-24904321D01*
X37780675Y-24951188D01*
X37815825Y-24986869D01*
X37840678Y-24970832D01*
X37858586Y-24901347D01*
X37872641Y-24846062D01*
X37944108Y-24815825D01*
X37993815Y-24807807D01*
X38029629Y-24773064D01*
X38013593Y-24748210D01*
X37944108Y-24730303D01*
X37888822Y-24716248D01*
X37858586Y-24644781D01*
X37850567Y-24595074D01*
X37815825Y-24559259D01*
X37791958Y-24573064D01*
X37773064Y-24639794D01*
X37753433Y-24695952D01*
X37676852Y-24752125D01*
X37580640Y-24783921D01*
X37430976Y-24783921D01*
X37430976Y-24388216D01*
X37537879Y-24388216D01*
X37608187Y-24377599D01*
X37644781Y-24345455D01*
X37652017Y-24325783D01*
X37708922Y-24302694D01*
X37716651Y-24302188D01*
X37750676Y-24275089D01*
X37768138Y-24195104D01*
X37773064Y-24046128D01*
X37773064Y-23789562D01*
X38521380Y-23789562D01*
X39269697Y-23789562D01*
X39269697Y-23893941D01*
X39267162Y-23936048D01*
X39242531Y-24008420D01*
X39205054Y-24019722D01*
X39171355Y-23958961D01*
X39167597Y-23945988D01*
X39150967Y-23916533D01*
X39115114Y-23896768D01*
X39046784Y-23885193D01*
X38932722Y-23880309D01*
X38759675Y-23880614D01*
X38514389Y-23884610D01*
X37879966Y-23896465D01*
X37866655Y-24081517D01*
X37864367Y-24200213D01*
X37886219Y-24261697D01*
X37941487Y-24289618D01*
X37993959Y-24310813D01*
X38029629Y-24350442D01*
X38045635Y-24372378D01*
X38115151Y-24388216D01*
X38147809Y-24392092D01*
X38172410Y-24413414D01*
X38187909Y-24465806D01*
X38196393Y-24562882D01*
X38199951Y-24718252D01*
X38200125Y-24773064D01*
X38200673Y-24945528D01*
G37*
G36*
X40571136Y-24210599D02*
G01*
X40749532Y-24562149D01*
X40870286Y-24936544D01*
X40930365Y-25325796D01*
X40928770Y-25500000D01*
X40926738Y-25721916D01*
X40856372Y-26116916D01*
X40716235Y-26502807D01*
X40503294Y-26871601D01*
X40214518Y-27215311D01*
X40002713Y-27408143D01*
X39622643Y-27669039D01*
X39213768Y-27850077D01*
X38777946Y-27950306D01*
X38468176Y-27969874D01*
X38040825Y-27928128D01*
X37628682Y-27811442D01*
X37241689Y-27625971D01*
X36889787Y-27377871D01*
X36665307Y-27155072D01*
X37083139Y-27155072D01*
X37298483Y-27293258D01*
X37382583Y-27343984D01*
X37567374Y-27441955D01*
X37739658Y-27519175D01*
X37809904Y-27542684D01*
X38032612Y-27589596D01*
X38296309Y-27617797D01*
X38570310Y-27625921D01*
X38823930Y-27612602D01*
X39026483Y-27576473D01*
X39310091Y-27474855D01*
X39680107Y-27271026D01*
X39996188Y-27007074D01*
X40252627Y-26690496D01*
X40443715Y-26328792D01*
X40563746Y-25929460D01*
X40607011Y-25500000D01*
X40603957Y-25332394D01*
X40576394Y-25086193D01*
X40515378Y-24853944D01*
X40480567Y-24757975D01*
X40406434Y-24586677D01*
X40324126Y-24426260D01*
X40243552Y-24293884D01*
X40174625Y-24206711D01*
X40127253Y-24181900D01*
X40126869Y-24182056D01*
X40084009Y-24216655D01*
X39990793Y-24301516D01*
X39857399Y-24427061D01*
X39694009Y-24583712D01*
X39510803Y-24761890D01*
X38932601Y-25327988D01*
X39289835Y-25937816D01*
X39545682Y-26374568D01*
X39647069Y-26547643D01*
X39308719Y-26560063D01*
X38970370Y-26572482D01*
X38970370Y-26955602D01*
X38970370Y-27210438D01*
X38970370Y-27338721D01*
X38245308Y-27338721D01*
X37520245Y-27338721D01*
X37514894Y-27210438D01*
X37602020Y-27210438D01*
X38243434Y-27210438D01*
X38884848Y-27210438D01*
X38884848Y-26889731D01*
X38884848Y-26569024D01*
X38564141Y-26569024D01*
X38534171Y-26568906D01*
X38386583Y-26564480D01*
X38282704Y-26554938D01*
X38243434Y-26542040D01*
X38246960Y-26531860D01*
X38282661Y-26460841D01*
X38350704Y-26335437D01*
X38443499Y-26169488D01*
X38553451Y-25976838D01*
X38598416Y-25898594D01*
X38662095Y-25786869D01*
X38868229Y-25786869D01*
X38906386Y-25885152D01*
X38957214Y-25993377D01*
X38965383Y-26043876D01*
X38927609Y-26034512D01*
X38911679Y-26027132D01*
X38886641Y-26042679D01*
X38888322Y-26051580D01*
X38916381Y-26122446D01*
X38967573Y-26225920D01*
X39046713Y-26374568D01*
X39040613Y-26054877D01*
X39037343Y-25945880D01*
X39026097Y-25818401D01*
X39004873Y-25752296D01*
X38970370Y-25732412D01*
X38890715Y-25740601D01*
X38868229Y-25786869D01*
X38662095Y-25786869D01*
X38704687Y-25712140D01*
X38792254Y-25556344D01*
X38853047Y-25445644D01*
X38878994Y-25394479D01*
X38867580Y-25398700D01*
X38806461Y-25450492D01*
X38701437Y-25547462D01*
X38562073Y-25680723D01*
X38397933Y-25841390D01*
X38216797Y-26021099D01*
X38084186Y-26156384D01*
X37995181Y-26255680D01*
X37941088Y-26331150D01*
X37913214Y-26394960D01*
X37902864Y-26459273D01*
X37901347Y-26536255D01*
X37901347Y-26740067D01*
X37751683Y-26740067D01*
X37602020Y-26740067D01*
X37602020Y-26975253D01*
X37602020Y-27210438D01*
X37514894Y-27210438D01*
X37507681Y-27037496D01*
X37495118Y-26736272D01*
X37289128Y-26945672D01*
X37083139Y-27155072D01*
X36665307Y-27155072D01*
X36582915Y-27073297D01*
X36331013Y-26718404D01*
X36144024Y-26319348D01*
X36103534Y-26197952D01*
X36071767Y-26067622D01*
X36052804Y-25923853D01*
X36043633Y-25742646D01*
X36041470Y-25522730D01*
X36326546Y-25522730D01*
X36367730Y-25923521D01*
X36486630Y-26315030D01*
X36684327Y-26686616D01*
X36756752Y-26793227D01*
X36818431Y-26878441D01*
X36847508Y-26911111D01*
X36849776Y-26909525D01*
X36895321Y-26867383D01*
X36994574Y-26772152D01*
X37141717Y-26629507D01*
X37330932Y-26445126D01*
X37556402Y-26224687D01*
X37812309Y-25973866D01*
X38092835Y-25698341D01*
X38392162Y-25403788D01*
X39922505Y-23896465D01*
X39723298Y-23754055D01*
X39641407Y-23697968D01*
X39320424Y-23526270D01*
X38974936Y-23420110D01*
X38582748Y-23372055D01*
X38356441Y-23369118D01*
X37962068Y-23414832D01*
X37605584Y-23531837D01*
X37274688Y-23724872D01*
X36957076Y-23998682D01*
X36917392Y-24039480D01*
X36658502Y-24371029D01*
X36473012Y-24735846D01*
X36362000Y-25123292D01*
X36326546Y-25522730D01*
X36041470Y-25522730D01*
X36041246Y-25500000D01*
X36041256Y-25487277D01*
X36052518Y-25153283D01*
X36089980Y-24875826D01*
X36161068Y-24628839D01*
X36273208Y-24386259D01*
X36433825Y-24122019D01*
X36675259Y-23815209D01*
X36999891Y-23523433D01*
X37369289Y-23293837D01*
X37771673Y-23132248D01*
X38195264Y-23044495D01*
X38628283Y-23036404D01*
X38920651Y-23075116D01*
X39341775Y-23192616D01*
X39720417Y-23372902D01*
X40053546Y-23607987D01*
X40338130Y-23889882D01*
X40342913Y-23896465D01*
X40571136Y-24210599D01*
G37*
G36*
X46516281Y-24028188D02*
G01*
X46738412Y-24396679D01*
X46900955Y-24818718D01*
X46975042Y-25168714D01*
X46988877Y-25478438D01*
X46994456Y-25603321D01*
X46937767Y-26026734D01*
X46810551Y-26430316D01*
X46618382Y-26805432D01*
X46524150Y-26932055D01*
X46366834Y-27143446D01*
X46061483Y-27435723D01*
X45707903Y-27673627D01*
X45311670Y-27848522D01*
X44878358Y-27951774D01*
X44752529Y-27966526D01*
X44306998Y-27966565D01*
X43876041Y-27888696D01*
X43468792Y-27738949D01*
X43094385Y-27523352D01*
X42761953Y-27247934D01*
X42687097Y-27160336D01*
X43120820Y-27160336D01*
X43325515Y-27300019D01*
X43421185Y-27359127D01*
X43606982Y-27455354D01*
X43788704Y-27531826D01*
X43892826Y-27563794D01*
X44154540Y-27616319D01*
X44453104Y-27646316D01*
X44470284Y-27647260D01*
X44652346Y-27656139D01*
X44763958Y-27656889D01*
X44819632Y-27647171D01*
X44833878Y-27624645D01*
X44821205Y-27586973D01*
X44806868Y-27540094D01*
X44787607Y-27417025D01*
X44777630Y-27268081D01*
X44774582Y-27203239D01*
X45123457Y-27203239D01*
X45165976Y-27277677D01*
X45209170Y-27357437D01*
X45233107Y-27450173D01*
X45238146Y-27491010D01*
X45265450Y-27526044D01*
X45299183Y-27517106D01*
X45399531Y-27469746D01*
X45536281Y-27392895D01*
X45688162Y-27299338D01*
X45833900Y-27201861D01*
X45952225Y-27113250D01*
X46029902Y-27047796D01*
X46095687Y-26979834D01*
X46109526Y-26932055D01*
X46081988Y-26885944D01*
X46027666Y-26802426D01*
X45975246Y-26685908D01*
X45952403Y-26625085D01*
X45933399Y-26600220D01*
X45926495Y-26650038D01*
X45920280Y-26711499D01*
X45894942Y-26816893D01*
X45871464Y-26847201D01*
X45834912Y-26818763D01*
X45776351Y-26719001D01*
X45696143Y-26572799D01*
X45601392Y-26416574D01*
X45526958Y-26313698D01*
X45481070Y-26276504D01*
X45476443Y-26278041D01*
X45456728Y-26328990D01*
X45448727Y-26429710D01*
X45448409Y-26450463D01*
X45434947Y-26538317D01*
X45405603Y-26556536D01*
X45404838Y-26556081D01*
X45374405Y-26574284D01*
X45362479Y-26658721D01*
X45345771Y-26762806D01*
X45299846Y-26850190D01*
X45265610Y-26890064D01*
X45250619Y-26928737D01*
X45253273Y-26933828D01*
X45269650Y-26998044D01*
X45288990Y-27106439D01*
X45291658Y-27123964D01*
X45300993Y-27216921D01*
X45284234Y-27244839D01*
X45233243Y-27225030D01*
X45228863Y-27222696D01*
X45143355Y-27185744D01*
X45123457Y-27203239D01*
X44774582Y-27203239D01*
X44773360Y-27177237D01*
X44758257Y-27028182D01*
X44737520Y-26923428D01*
X44721577Y-26869212D01*
X44726232Y-26841462D01*
X44775913Y-26876320D01*
X44835711Y-26910751D01*
X44895524Y-26898181D01*
X44917025Y-26827032D01*
X44889999Y-26712017D01*
X44859322Y-26578225D01*
X44865741Y-26368387D01*
X44868665Y-26345419D01*
X44873707Y-26178571D01*
X44847004Y-26064371D01*
X44840706Y-26052215D01*
X44820819Y-25987159D01*
X44847679Y-25978694D01*
X44908957Y-26022564D01*
X44992322Y-26114516D01*
X45102779Y-26254669D01*
X45103257Y-26069251D01*
X45104161Y-26039243D01*
X45128066Y-25881830D01*
X45174185Y-25747597D01*
X45176782Y-25742470D01*
X45226103Y-25599700D01*
X45248922Y-25447871D01*
X45249978Y-25417338D01*
X45257428Y-25322562D01*
X45267731Y-25284380D01*
X45287178Y-25293975D01*
X45361171Y-25340418D01*
X45468336Y-25412408D01*
X45633363Y-25540910D01*
X45818604Y-25748162D01*
X45920762Y-25965718D01*
X45925562Y-25982266D01*
X45981296Y-26108508D01*
X46051268Y-26200517D01*
X46108271Y-26265161D01*
X46138710Y-26340495D01*
X46151823Y-26394706D01*
X46195567Y-26392784D01*
X46258074Y-26319355D01*
X46301346Y-26265829D01*
X46357240Y-26233107D01*
X46372804Y-26236592D01*
X46375653Y-26276617D01*
X46364104Y-26316821D01*
X46373113Y-26393500D01*
X46403434Y-26456306D01*
X46442512Y-26469093D01*
X46486307Y-26414535D01*
X46539039Y-26286511D01*
X46587906Y-26108956D01*
X46628405Y-25901802D01*
X46656032Y-25684985D01*
X46666285Y-25478438D01*
X46662808Y-25332797D01*
X46618611Y-24992795D01*
X46516413Y-24676447D01*
X46347133Y-24351691D01*
X46209559Y-24124695D01*
X45451809Y-24852559D01*
X45389758Y-24912268D01*
X45113466Y-25180032D01*
X44804712Y-25481718D01*
X44485872Y-25795332D01*
X44179322Y-26098883D01*
X43907439Y-26370380D01*
X43120820Y-27160336D01*
X42687097Y-27160336D01*
X42480630Y-26918723D01*
X42259550Y-26541750D01*
X42107846Y-26123042D01*
X42046092Y-25759731D01*
X42044997Y-25504361D01*
X42351311Y-25504361D01*
X42393513Y-25911987D01*
X42516365Y-26312577D01*
X42720674Y-26696689D01*
X42792372Y-26804307D01*
X42851484Y-26890172D01*
X42876874Y-26923090D01*
X42879143Y-26921212D01*
X42924832Y-26877687D01*
X43024727Y-26780815D01*
X43172997Y-26636298D01*
X43363812Y-26449837D01*
X43591343Y-26227132D01*
X43849759Y-25973886D01*
X44133229Y-25695799D01*
X44435923Y-25398572D01*
X45987776Y-23874055D01*
X45710581Y-23694540D01*
X45698140Y-23686532D01*
X45327646Y-23492795D01*
X44942924Y-23380319D01*
X44527801Y-23344315D01*
X44429519Y-23346167D01*
X44002581Y-23399488D01*
X43616565Y-23527838D01*
X43266934Y-23733152D01*
X42949150Y-24017364D01*
X42700563Y-24333680D01*
X42505641Y-24705766D01*
X42388956Y-25099140D01*
X42351311Y-25504361D01*
X42044997Y-25504361D01*
X42044258Y-25331992D01*
X42110281Y-24903631D01*
X42240630Y-24496355D01*
X42431773Y-24131868D01*
X42611869Y-23888936D01*
X42919038Y-23580717D01*
X43261691Y-23340658D01*
X43631187Y-23167432D01*
X44018881Y-23059710D01*
X44416130Y-23016164D01*
X44814293Y-23035465D01*
X45204724Y-23116285D01*
X45578781Y-23257295D01*
X45927822Y-23457168D01*
X46243203Y-23714575D01*
X46382070Y-23874055D01*
X46516281Y-24028188D01*
G37*
G36*
X52832574Y-24664598D02*
G01*
X52929751Y-25017718D01*
X52974305Y-25379009D01*
X52966114Y-25742473D01*
X52905055Y-26102115D01*
X52791005Y-26451937D01*
X52723214Y-26587391D01*
X52623843Y-26785944D01*
X52580355Y-26852203D01*
X52478180Y-26985385D01*
X52352401Y-27131234D01*
X52216493Y-27275108D01*
X52083930Y-27402366D01*
X51968186Y-27498368D01*
X51761752Y-27630895D01*
X51488258Y-27766162D01*
X51196682Y-27874158D01*
X50907583Y-27946201D01*
X50832051Y-27954575D01*
X50711471Y-27960503D01*
X50566351Y-27962814D01*
X50413703Y-27960996D01*
X50398648Y-27960578D01*
X50216685Y-27952232D01*
X50069524Y-27937083D01*
X49936073Y-27912186D01*
X49795243Y-27874595D01*
X49709680Y-27847604D01*
X49363078Y-27702402D01*
X49046593Y-27510833D01*
X48764110Y-27277067D01*
X48519512Y-27005271D01*
X48316684Y-26699615D01*
X48159508Y-26364268D01*
X48063526Y-26042472D01*
X49377583Y-26042472D01*
X49408955Y-26168996D01*
X49414656Y-26181545D01*
X49426495Y-26204314D01*
X49443531Y-26226050D01*
X49472125Y-26251037D01*
X49518633Y-26283563D01*
X49589414Y-26327912D01*
X49690828Y-26388371D01*
X49829232Y-26469223D01*
X50010985Y-26574756D01*
X50108376Y-26630889D01*
X50257205Y-26714040D01*
X50370125Y-26772268D01*
X50455401Y-26809390D01*
X50521299Y-26829218D01*
X50576085Y-26835570D01*
X50583725Y-26835674D01*
X50641318Y-26833061D01*
X50691177Y-26819748D01*
X50739744Y-26789436D01*
X50793465Y-26735821D01*
X50858784Y-26652602D01*
X50942145Y-26533478D01*
X51049992Y-26372147D01*
X51095102Y-26304852D01*
X51173104Y-26192619D01*
X51236828Y-26106315D01*
X51280645Y-26053419D01*
X51298928Y-26041406D01*
X51288546Y-26073963D01*
X51251367Y-26144046D01*
X51193248Y-26240757D01*
X51120202Y-26353592D01*
X50931483Y-26635801D01*
X50931483Y-27060312D01*
X50931476Y-27082934D01*
X50931610Y-27245533D01*
X50934632Y-27358858D01*
X50944149Y-27430288D01*
X50963766Y-27467204D01*
X50997090Y-27476986D01*
X51047727Y-27467013D01*
X51119282Y-27444667D01*
X51276731Y-27384878D01*
X51508696Y-27263998D01*
X51733527Y-27112051D01*
X51934475Y-26940761D01*
X52094789Y-26761853D01*
X52225934Y-26587391D01*
X52225934Y-25920651D01*
X52225790Y-25777835D01*
X52224236Y-25579029D01*
X52219690Y-25426437D01*
X52210595Y-25312957D01*
X52195395Y-25231491D01*
X52172531Y-25174938D01*
X52140447Y-25136199D01*
X52097586Y-25108172D01*
X52042390Y-25083760D01*
X52029260Y-25079477D01*
X51948951Y-25067887D01*
X51830895Y-25063192D01*
X51688698Y-25064627D01*
X51535970Y-25071431D01*
X51386318Y-25082840D01*
X51253351Y-25098091D01*
X51150678Y-25116420D01*
X51091907Y-25137065D01*
X51059255Y-25172512D01*
X51002595Y-25249271D01*
X50938831Y-25342828D01*
X50928111Y-25358556D01*
X50841630Y-25491814D01*
X50748976Y-25640494D01*
X50747091Y-25643578D01*
X50656952Y-25789698D01*
X50575951Y-25918415D01*
X50509231Y-26021762D01*
X50461932Y-26091774D01*
X50439196Y-26120482D01*
X50438304Y-26120882D01*
X50401491Y-26111655D01*
X50326533Y-26078202D01*
X50223866Y-26025554D01*
X50103923Y-25958746D01*
X49947968Y-25872270D01*
X49805325Y-25804506D01*
X49693684Y-25768813D01*
X49605149Y-25763713D01*
X49531823Y-25787730D01*
X49465813Y-25839388D01*
X49402645Y-25926291D01*
X49377583Y-26042472D01*
X48063526Y-26042472D01*
X48051871Y-26003397D01*
X48031366Y-25868584D01*
X48018769Y-25685097D01*
X48016041Y-25481756D01*
X48018483Y-25409630D01*
X48458705Y-25409630D01*
X48465429Y-25418301D01*
X48508720Y-25457914D01*
X48585446Y-25522648D01*
X48687788Y-25605974D01*
X48807928Y-25701359D01*
X48872557Y-25751967D01*
X48988821Y-25842375D01*
X49085929Y-25917068D01*
X49155215Y-25969400D01*
X49188011Y-25992729D01*
X49195337Y-25996177D01*
X49256088Y-25991902D01*
X49326442Y-25945279D01*
X49393094Y-25864618D01*
X49414890Y-25835271D01*
X49509923Y-25760459D01*
X49626536Y-25721507D01*
X49742844Y-25727025D01*
X49774255Y-25733244D01*
X49855483Y-25726236D01*
X49962047Y-25685938D01*
X50024504Y-25657017D01*
X50181462Y-25657017D01*
X50375100Y-25722336D01*
X50382472Y-25724819D01*
X50478999Y-25756571D01*
X50551537Y-25779095D01*
X50584878Y-25787655D01*
X50591710Y-25782197D01*
X50623874Y-25739426D01*
X50674032Y-25663405D01*
X50734701Y-25565242D01*
X50868382Y-25342828D01*
X50734531Y-25291992D01*
X50688749Y-25275332D01*
X50611715Y-25250794D01*
X50566116Y-25241133D01*
X50552435Y-25247391D01*
X50504605Y-25288238D01*
X50435987Y-25358745D01*
X50356507Y-25449063D01*
X50210922Y-25622019D01*
X50181462Y-25657017D01*
X50024504Y-25657017D01*
X50100084Y-25622019D01*
X49962047Y-25522104D01*
X49905809Y-25481602D01*
X49692953Y-25332718D01*
X49516452Y-25216975D01*
X49378125Y-25135464D01*
X49279790Y-25089273D01*
X49223267Y-25079491D01*
X49193114Y-25088685D01*
X49113561Y-25117875D01*
X49007754Y-25160012D01*
X48887070Y-25210185D01*
X48762887Y-25263480D01*
X48646582Y-25314984D01*
X48549532Y-25359786D01*
X48483114Y-25392972D01*
X48458705Y-25409630D01*
X48018483Y-25409630D01*
X48022950Y-25277699D01*
X48039263Y-25092065D01*
X48049817Y-25030746D01*
X49325000Y-25030746D01*
X49710062Y-25294138D01*
X49797635Y-25353612D01*
X49919178Y-25434611D01*
X50018981Y-25499249D01*
X50088533Y-25542047D01*
X50119325Y-25557531D01*
X50135584Y-25541825D01*
X50170052Y-25483089D01*
X50215244Y-25392101D01*
X50266041Y-25280864D01*
X50317323Y-25161379D01*
X50363971Y-25045649D01*
X50400868Y-24945675D01*
X50422893Y-24873460D01*
X50424928Y-24841005D01*
X50414949Y-24833308D01*
X50361807Y-24797685D01*
X50275958Y-24743101D01*
X50167589Y-24675737D01*
X50046886Y-24601775D01*
X49924034Y-24527397D01*
X49809222Y-24458787D01*
X49712634Y-24402125D01*
X49644457Y-24363594D01*
X49614878Y-24349377D01*
X49613449Y-24349733D01*
X49591573Y-24379860D01*
X49557414Y-24448958D01*
X49517719Y-24543544D01*
X49476508Y-24648618D01*
X49425584Y-24777823D01*
X49383395Y-24884229D01*
X49325000Y-25030746D01*
X48049817Y-25030746D01*
X48064748Y-24943993D01*
X48078117Y-24891556D01*
X48201839Y-24533685D01*
X48313134Y-24319566D01*
X49756386Y-24319566D01*
X49784365Y-24361652D01*
X49852924Y-24419626D01*
X49965610Y-24496921D01*
X50125972Y-24596972D01*
X50194293Y-24639005D01*
X50315159Y-24716328D01*
X50412087Y-24782285D01*
X50476526Y-24830943D01*
X50485785Y-24841005D01*
X50499925Y-24856371D01*
X50492980Y-24881803D01*
X50465890Y-24951573D01*
X50423090Y-25051565D01*
X50369678Y-25169519D01*
X50326898Y-25263402D01*
X50283862Y-25362389D01*
X50256308Y-25431539D01*
X50248842Y-25459790D01*
X50253465Y-25457488D01*
X50287661Y-25423871D01*
X50349053Y-25356662D01*
X50430884Y-25263365D01*
X50526398Y-25151486D01*
X50567011Y-25102731D01*
X50653705Y-24993944D01*
X50720299Y-24903575D01*
X50760869Y-24839921D01*
X50769487Y-24811275D01*
X50723191Y-24777705D01*
X50639272Y-24725064D01*
X50528051Y-24659275D01*
X50399143Y-24585623D01*
X50262162Y-24509392D01*
X50126722Y-24435864D01*
X50002439Y-24370323D01*
X49928531Y-24333003D01*
X50971531Y-24333003D01*
X50979016Y-24492269D01*
X51029501Y-24642726D01*
X51119816Y-24771719D01*
X51172758Y-24811275D01*
X51246791Y-24866589D01*
X51297284Y-24889597D01*
X51457263Y-24928351D01*
X51610169Y-24919326D01*
X51749745Y-24869349D01*
X51869734Y-24785246D01*
X51963882Y-24673844D01*
X52025930Y-24541967D01*
X52049623Y-24396444D01*
X52028705Y-24244100D01*
X51956920Y-24091762D01*
X51890115Y-24010518D01*
X51760990Y-23918024D01*
X51612381Y-23868311D01*
X51455821Y-23861323D01*
X51302843Y-23897003D01*
X51164982Y-23975296D01*
X51053769Y-24096146D01*
X51010220Y-24177587D01*
X50971531Y-24333003D01*
X49928531Y-24333003D01*
X49898928Y-24318055D01*
X49825802Y-24284341D01*
X49792678Y-24274467D01*
X49765436Y-24289936D01*
X49756386Y-24319566D01*
X48313134Y-24319566D01*
X48373410Y-24203601D01*
X48588994Y-23905324D01*
X48844757Y-23642869D01*
X49136865Y-23420255D01*
X49461482Y-23241498D01*
X49814775Y-23110616D01*
X49941263Y-23081521D01*
X50132543Y-23053615D01*
X50343970Y-23035759D01*
X50556562Y-23028962D01*
X50751336Y-23034229D01*
X50909310Y-23052568D01*
X51075058Y-23088905D01*
X51441109Y-23208032D01*
X51776278Y-23373870D01*
X52077878Y-23584668D01*
X52343223Y-23838676D01*
X52569625Y-24134145D01*
X52682896Y-24325645D01*
X52714160Y-24396444D01*
X52832574Y-24664598D01*
G37*
D14*
X8272971Y-41517822D02*
X4752178Y-41517822D01*
X4752178Y-40650198D01*
X8272971Y-40650198D01*
X8272971Y-41517822D01*
G36*
X8272971Y-41517822D02*
G01*
X4752178Y-41517822D01*
X4752178Y-40650198D01*
X8272971Y-40650198D01*
X8272971Y-41517822D01*
G37*
X7241894Y-35975718D02*
X7242388Y-35988668D01*
X7248819Y-36010411D01*
X7267123Y-36028851D01*
X7302830Y-36050801D01*
X7334174Y-36070854D01*
X7381893Y-36109356D01*
X7425138Y-36152579D01*
X7458219Y-36194627D01*
X7475442Y-36229604D01*
X7479662Y-36243081D01*
X7487480Y-36252334D01*
X7490116Y-36255454D01*
X7511662Y-36260696D01*
X7551314Y-36261782D01*
X7619109Y-36261782D01*
X7619109Y-36374951D01*
X7459577Y-36374951D01*
X7444682Y-36552732D01*
X7442682Y-36577037D01*
X7438023Y-36637880D01*
X7434731Y-36687389D01*
X7433092Y-36720992D01*
X7433390Y-36734116D01*
X7437724Y-36730343D01*
X7457496Y-36710676D01*
X7491679Y-36675818D01*
X7538541Y-36627576D01*
X7596354Y-36567757D01*
X7663387Y-36498167D01*
X7737912Y-36420615D01*
X7818197Y-36336907D01*
X7902513Y-36248849D01*
X7989130Y-36158250D01*
X8076319Y-36066915D01*
X8162349Y-35976653D01*
X8245492Y-35889269D01*
X8324016Y-35806572D01*
X8396192Y-35730368D01*
X8460291Y-35662463D01*
X8514583Y-35604666D01*
X8611592Y-35501040D01*
X8612034Y-35589315D01*
X8612475Y-35677589D01*
X8011938Y-36309158D01*
X7411401Y-36940726D01*
X7399396Y-37084674D01*
X7351365Y-37660635D01*
X7342876Y-37762791D01*
X7332343Y-37890612D01*
X7322621Y-38009767D01*
X7313898Y-38117914D01*
X7306358Y-38212713D01*
X7300187Y-38291819D01*
X7295573Y-38352892D01*
X7292700Y-38393590D01*
X7291754Y-38411570D01*
X7294251Y-38419808D01*
X7305471Y-38437599D01*
X7326751Y-38464411D01*
X7337021Y-38476129D01*
X7359225Y-38501466D01*
X7404023Y-38549986D01*
X7462281Y-38611192D01*
X7535129Y-38686307D01*
X7623703Y-38776550D01*
X7729134Y-38883145D01*
X7798492Y-38953093D01*
X7895179Y-39050658D01*
X7991526Y-39147941D01*
X8084638Y-39242014D01*
X8171618Y-39329950D01*
X8249569Y-39408820D01*
X8315596Y-39475699D01*
X8366802Y-39527658D01*
X8567514Y-39731620D01*
X8531058Y-39769671D01*
X8522460Y-39778245D01*
X8497095Y-39799297D01*
X8479695Y-39807723D01*
X8466071Y-39800530D01*
X8440743Y-39778944D01*
X8410379Y-39747995D01*
X8391896Y-39728448D01*
X8357427Y-39692752D01*
X8308712Y-39642684D01*
X8247469Y-39580001D01*
X8175420Y-39506457D01*
X8094285Y-39423810D01*
X8005784Y-39333815D01*
X7911637Y-39238228D01*
X7813565Y-39138805D01*
X7271161Y-38589343D01*
X7249066Y-38874746D01*
X7244250Y-38935662D01*
X7237216Y-39017548D01*
X7230872Y-39079569D01*
X7224748Y-39124987D01*
X7218373Y-39157062D01*
X7211277Y-39179052D01*
X7202991Y-39194219D01*
X7191393Y-39215416D01*
X7181850Y-39254386D01*
X7179010Y-39310531D01*
X7179010Y-39392773D01*
X6952674Y-39392773D01*
X6952674Y-39216733D01*
X6107082Y-39216733D01*
X6058203Y-39272262D01*
X6044836Y-39286722D01*
X5972388Y-39344813D01*
X5890532Y-39380576D01*
X5801900Y-39392773D01*
X5723692Y-39386306D01*
X5635233Y-39359047D01*
X5559507Y-39310328D01*
X5544748Y-39296403D01*
X5507864Y-39251328D01*
X5475503Y-39198819D01*
X5452297Y-39147061D01*
X5442879Y-39104239D01*
X5442697Y-39098023D01*
X5441342Y-39075246D01*
X5437800Y-39059513D01*
X5430390Y-39052068D01*
X5417431Y-39054156D01*
X5397243Y-39067020D01*
X5368145Y-39091905D01*
X5328456Y-39130053D01*
X5276496Y-39182710D01*
X5210584Y-39251119D01*
X5129040Y-39336524D01*
X5085604Y-39382112D01*
X5013000Y-39458441D01*
X4944309Y-39530808D01*
X4882223Y-39596366D01*
X4829434Y-39652274D01*
X4788634Y-39695686D01*
X4762515Y-39723758D01*
X4691119Y-39801436D01*
X4602863Y-39713416D01*
X5148690Y-39141287D01*
X5183105Y-39105188D01*
X5305546Y-38976272D01*
X5410651Y-38864754D01*
X5498736Y-38770288D01*
X5570116Y-38692529D01*
X5620588Y-38636174D01*
X5827247Y-38636174D01*
X5828872Y-38649434D01*
X5829156Y-38650819D01*
X5842698Y-38682228D01*
X5869748Y-38696863D01*
X5953129Y-38728063D01*
X6027418Y-38780038D01*
X6085846Y-38848791D01*
X6125890Y-38931315D01*
X6145026Y-39024606D01*
X6151364Y-39103565D01*
X7100838Y-39103565D01*
X7107458Y-39075273D01*
X7108629Y-39068329D01*
X7112268Y-39037281D01*
X7117234Y-38987081D01*
X7123157Y-38921727D01*
X7129669Y-38845219D01*
X7136401Y-38761555D01*
X7158724Y-38476129D01*
X6857826Y-38170565D01*
X6802636Y-38114704D01*
X6735109Y-38046888D01*
X6674529Y-37986643D01*
X6623021Y-37936052D01*
X6582710Y-37897200D01*
X6555722Y-37872170D01*
X6544182Y-37863046D01*
X6536444Y-37867405D01*
X6513395Y-37887241D01*
X6478709Y-37920375D01*
X6435487Y-37963820D01*
X6386832Y-38014587D01*
X6374140Y-38028051D01*
X6317229Y-38088275D01*
X6249414Y-38159864D01*
X6175800Y-38237437D01*
X6101493Y-38315611D01*
X6031599Y-38389005D01*
X6027401Y-38393409D01*
X5962420Y-38461785D01*
X5912836Y-38514732D01*
X5876688Y-38554767D01*
X5852016Y-38584411D01*
X5836858Y-38606181D01*
X5829256Y-38622595D01*
X5827247Y-38636174D01*
X5620588Y-38636174D01*
X5625105Y-38631131D01*
X5664019Y-38585748D01*
X5687173Y-38556035D01*
X5694882Y-38541644D01*
X5694883Y-38541559D01*
X5693825Y-38523624D01*
X5690737Y-38483421D01*
X5685858Y-38423687D01*
X5679432Y-38347158D01*
X5671700Y-38256569D01*
X5662905Y-38154657D01*
X5653287Y-38044159D01*
X5643091Y-37927811D01*
X5632556Y-37808348D01*
X5621926Y-37688507D01*
X5611442Y-37571025D01*
X5601346Y-37458637D01*
X5591881Y-37354081D01*
X5583288Y-37260091D01*
X5575809Y-37179405D01*
X5569687Y-37114759D01*
X5565162Y-37068888D01*
X5562478Y-37044530D01*
X5557067Y-37003732D01*
X5686253Y-37003732D01*
X5687908Y-37034653D01*
X5691549Y-37086653D01*
X5696995Y-37157487D01*
X5704063Y-37244911D01*
X5712570Y-37346681D01*
X5722335Y-37460552D01*
X5733174Y-37584279D01*
X5744907Y-37715618D01*
X5754079Y-37816908D01*
X5765566Y-37942526D01*
X5776322Y-38058762D01*
X5786131Y-38163380D01*
X5794781Y-38254140D01*
X5802057Y-38328804D01*
X5807746Y-38385134D01*
X5811634Y-38420891D01*
X5813506Y-38433837D01*
X5819188Y-38429826D01*
X5840020Y-38410138D01*
X5873872Y-38376322D01*
X5918412Y-38330837D01*
X5971310Y-38276146D01*
X6030236Y-38214710D01*
X6092858Y-38148990D01*
X6156848Y-38081449D01*
X6219874Y-38014547D01*
X6279606Y-37950746D01*
X6333713Y-37892507D01*
X6379865Y-37842292D01*
X6415733Y-37802563D01*
X6438984Y-37775780D01*
X6445778Y-37766477D01*
X6627601Y-37766477D01*
X6903305Y-38041968D01*
X6970726Y-38109224D01*
X7034267Y-38172162D01*
X7083490Y-38220100D01*
X7120196Y-38254594D01*
X7146190Y-38277199D01*
X7163276Y-38289471D01*
X7173256Y-38292966D01*
X7177935Y-38289238D01*
X7179116Y-38279844D01*
X7179873Y-38264749D01*
X7182601Y-38225883D01*
X7187108Y-38166895D01*
X7193179Y-38090473D01*
X7200596Y-37999305D01*
X7209142Y-37896080D01*
X7218602Y-37783483D01*
X7228758Y-37664205D01*
X7237723Y-37559077D01*
X7247066Y-37448351D01*
X7255443Y-37347814D01*
X7262653Y-37259943D01*
X7268496Y-37187215D01*
X7272769Y-37132110D01*
X7275273Y-37097104D01*
X7275805Y-37084674D01*
X7275384Y-37084908D01*
X7263509Y-37096350D01*
X7237130Y-37123198D01*
X7198570Y-37163018D01*
X7150153Y-37213372D01*
X7094203Y-37271828D01*
X7033042Y-37335948D01*
X6968995Y-37403298D01*
X6904385Y-37471443D01*
X6841535Y-37537948D01*
X6782768Y-37600377D01*
X6730409Y-37656295D01*
X6629533Y-37764406D01*
X6627601Y-37766477D01*
X6445778Y-37766477D01*
X6447290Y-37764406D01*
X6439148Y-37753383D01*
X6415478Y-37726999D01*
X6378478Y-37687527D01*
X6330350Y-37637191D01*
X6273296Y-37578217D01*
X6209520Y-37512830D01*
X6141222Y-37443255D01*
X6070605Y-37371716D01*
X5999871Y-37300438D01*
X5931222Y-37231647D01*
X5866861Y-37167566D01*
X5808989Y-37110422D01*
X5759810Y-37062439D01*
X5721524Y-37025841D01*
X5696334Y-37002854D01*
X5686442Y-36995703D01*
X5686253Y-37003732D01*
X5557067Y-37003732D01*
X5555390Y-36991089D01*
X5280297Y-36991089D01*
X5280140Y-36890495D01*
X5380891Y-36890495D01*
X5462624Y-36890495D01*
X5469895Y-36890489D01*
X5510950Y-36889613D01*
X5533277Y-36885867D01*
X5542529Y-36877270D01*
X5544357Y-36861840D01*
X5536306Y-36839159D01*
X5508730Y-36801428D01*
X5462624Y-36752179D01*
X5380891Y-36671172D01*
X5380891Y-36890495D01*
X5280140Y-36890495D01*
X5279968Y-36780471D01*
X5279639Y-36569852D01*
X4827914Y-36110891D01*
X4376189Y-35651931D01*
X4375570Y-35564848D01*
X4374951Y-35477767D01*
X4916769Y-36026952D01*
X4969137Y-36079998D01*
X5077803Y-36189772D01*
X5170709Y-36283114D01*
X5249055Y-36361173D01*
X5314043Y-36425097D01*
X5366872Y-36476035D01*
X5408743Y-36515135D01*
X5440855Y-36543548D01*
X5464410Y-36562420D01*
X5480608Y-36572901D01*
X5490649Y-36576139D01*
X5507579Y-36575158D01*
X5517084Y-36567996D01*
X5518723Y-36548401D01*
X5514782Y-36510124D01*
X5512065Y-36486025D01*
X5508284Y-36445744D01*
X5506760Y-36418961D01*
X5506015Y-36409728D01*
X5498746Y-36399839D01*
X5478668Y-36396562D01*
X5439689Y-36397992D01*
X5429737Y-36398553D01*
X5389898Y-36397921D01*
X5361560Y-36389167D01*
X5341586Y-36374951D01*
X5624852Y-36374951D01*
X5629013Y-36422104D01*
X5630935Y-36443498D01*
X5636924Y-36501909D01*
X5642826Y-36540381D01*
X5649727Y-36562912D01*
X5658712Y-36573498D01*
X5670870Y-36576139D01*
X5681801Y-36577937D01*
X5689050Y-36586530D01*
X5693100Y-36606505D01*
X5694863Y-36642450D01*
X5695248Y-36698952D01*
X5695248Y-36821766D01*
X5735447Y-36861840D01*
X5833565Y-36959654D01*
X5971881Y-37097542D01*
X5971881Y-36991089D01*
X6726337Y-36991089D01*
X6726337Y-37230000D01*
X6107831Y-37230000D01*
X6317592Y-37446906D01*
X6357770Y-37488334D01*
X6413328Y-37545200D01*
X6461570Y-37594082D01*
X6499971Y-37632441D01*
X6526003Y-37657741D01*
X6537140Y-37667442D01*
X6541373Y-37664767D01*
X6561224Y-37646782D01*
X6595451Y-37613481D01*
X6642227Y-37566712D01*
X6699724Y-37508325D01*
X6766112Y-37440169D01*
X6839564Y-37364094D01*
X6918251Y-37281950D01*
X6997341Y-37198943D01*
X7074871Y-37117136D01*
X7137746Y-37050083D01*
X7187502Y-36996007D01*
X7225678Y-36953129D01*
X7253811Y-36919673D01*
X7273440Y-36893861D01*
X7286101Y-36873914D01*
X7293334Y-36858056D01*
X7296675Y-36844509D01*
X7297561Y-36837910D01*
X7301488Y-36801548D01*
X7306459Y-36748018D01*
X7311927Y-36683421D01*
X7317344Y-36613862D01*
X7319181Y-36589635D01*
X7324488Y-36524178D01*
X7329548Y-36467717D01*
X7333863Y-36425618D01*
X7336934Y-36403243D01*
X7342955Y-36374951D01*
X5624852Y-36374951D01*
X5341586Y-36374951D01*
X5333630Y-36369289D01*
X5328820Y-36365104D01*
X5289482Y-36314427D01*
X5273903Y-36261782D01*
X5614698Y-36261782D01*
X7029221Y-36261782D01*
X7241881Y-36261782D01*
X7298908Y-36261782D01*
X7315993Y-36261662D01*
X7341308Y-36259462D01*
X7348616Y-36252334D01*
X7342943Y-36237508D01*
X7341267Y-36234682D01*
X7322448Y-36212944D01*
X7295183Y-36188820D01*
X7267987Y-36169254D01*
X7249371Y-36161188D01*
X7247697Y-36162463D01*
X7243544Y-36179976D01*
X7241881Y-36211485D01*
X7241881Y-36261782D01*
X7029221Y-36261782D01*
X7025526Y-36171095D01*
X7021832Y-36080407D01*
X6946386Y-36065252D01*
X6908551Y-36058379D01*
X6845368Y-36048756D01*
X6786065Y-36041496D01*
X6701188Y-36032893D01*
X6701188Y-36136040D01*
X6122773Y-36136040D01*
X6122773Y-36045122D01*
X6050471Y-36053753D01*
X5939998Y-36072249D01*
X5828816Y-36105691D01*
X5736850Y-36152324D01*
X5662542Y-36212786D01*
X5614698Y-36261782D01*
X5273903Y-36261782D01*
X5272172Y-36255934D01*
X5277474Y-36194575D01*
X5305975Y-36135297D01*
X5308733Y-36131606D01*
X5346822Y-36099851D01*
X5396476Y-36081067D01*
X5450002Y-36076071D01*
X5499707Y-36085678D01*
X5537900Y-36110704D01*
X5550831Y-36123480D01*
X5563428Y-36126576D01*
X5581467Y-36116998D01*
X5611928Y-36093082D01*
X5621274Y-36085731D01*
X5693430Y-36039339D01*
X5701497Y-36035446D01*
X6223367Y-36035446D01*
X6600594Y-36035446D01*
X6600594Y-35972575D01*
X6223367Y-35972575D01*
X6223367Y-36035446D01*
X5701497Y-36035446D01*
X5778915Y-35998084D01*
X5869767Y-35964936D01*
X5958027Y-35942868D01*
X6035736Y-35934852D01*
X6043991Y-35934788D01*
X6089879Y-35930321D01*
X6115079Y-35917795D01*
X6122773Y-35895784D01*
X6123676Y-35888849D01*
X6128615Y-35882885D01*
X6140611Y-35878519D01*
X6162680Y-35875503D01*
X6197836Y-35873590D01*
X6249094Y-35872530D01*
X6319471Y-35872077D01*
X6411980Y-35871980D01*
X6498660Y-35872150D01*
X6572332Y-35872834D01*
X6626265Y-35874215D01*
X6663288Y-35876470D01*
X6686230Y-35879778D01*
X6697920Y-35884320D01*
X6701188Y-35890272D01*
X6711937Y-35904888D01*
X6742055Y-35914215D01*
X6753582Y-35915847D01*
X6792886Y-35921591D01*
X6845188Y-35929378D01*
X6902376Y-35938003D01*
X6933916Y-35942393D01*
X6980074Y-35947148D01*
X7012641Y-35948295D01*
X7026023Y-35945495D01*
X7028308Y-35943671D01*
X7049405Y-35939165D01*
X7087355Y-35936029D01*
X7136048Y-35934852D01*
X7241881Y-35934852D01*
X7241894Y-35972575D01*
X7241894Y-35975718D01*
G36*
X7241894Y-35975718D02*
G01*
X7242388Y-35988668D01*
X7248819Y-36010411D01*
X7267123Y-36028851D01*
X7302830Y-36050801D01*
X7334174Y-36070854D01*
X7381893Y-36109356D01*
X7425138Y-36152579D01*
X7458219Y-36194627D01*
X7475442Y-36229604D01*
X7479662Y-36243081D01*
X7487480Y-36252334D01*
X7490116Y-36255454D01*
X7511662Y-36260696D01*
X7551314Y-36261782D01*
X7619109Y-36261782D01*
X7619109Y-36374951D01*
X7459577Y-36374951D01*
X7444682Y-36552732D01*
X7442682Y-36577037D01*
X7438023Y-36637880D01*
X7434731Y-36687389D01*
X7433092Y-36720992D01*
X7433390Y-36734116D01*
X7437724Y-36730343D01*
X7457496Y-36710676D01*
X7491679Y-36675818D01*
X7538541Y-36627576D01*
X7596354Y-36567757D01*
X7663387Y-36498167D01*
X7737912Y-36420615D01*
X7818197Y-36336907D01*
X7902513Y-36248849D01*
X7989130Y-36158250D01*
X8076319Y-36066915D01*
X8162349Y-35976653D01*
X8245492Y-35889269D01*
X8324016Y-35806572D01*
X8396192Y-35730368D01*
X8460291Y-35662463D01*
X8514583Y-35604666D01*
X8611592Y-35501040D01*
X8612034Y-35589315D01*
X8612475Y-35677589D01*
X8011938Y-36309158D01*
X7411401Y-36940726D01*
X7399396Y-37084674D01*
X7351365Y-37660635D01*
X7342876Y-37762791D01*
X7332343Y-37890612D01*
X7322621Y-38009767D01*
X7313898Y-38117914D01*
X7306358Y-38212713D01*
X7300187Y-38291819D01*
X7295573Y-38352892D01*
X7292700Y-38393590D01*
X7291754Y-38411570D01*
X7294251Y-38419808D01*
X7305471Y-38437599D01*
X7326751Y-38464411D01*
X7337021Y-38476129D01*
X7359225Y-38501466D01*
X7404023Y-38549986D01*
X7462281Y-38611192D01*
X7535129Y-38686307D01*
X7623703Y-38776550D01*
X7729134Y-38883145D01*
X7798492Y-38953093D01*
X7895179Y-39050658D01*
X7991526Y-39147941D01*
X8084638Y-39242014D01*
X8171618Y-39329950D01*
X8249569Y-39408820D01*
X8315596Y-39475699D01*
X8366802Y-39527658D01*
X8567514Y-39731620D01*
X8531058Y-39769671D01*
X8522460Y-39778245D01*
X8497095Y-39799297D01*
X8479695Y-39807723D01*
X8466071Y-39800530D01*
X8440743Y-39778944D01*
X8410379Y-39747995D01*
X8391896Y-39728448D01*
X8357427Y-39692752D01*
X8308712Y-39642684D01*
X8247469Y-39580001D01*
X8175420Y-39506457D01*
X8094285Y-39423810D01*
X8005784Y-39333815D01*
X7911637Y-39238228D01*
X7813565Y-39138805D01*
X7271161Y-38589343D01*
X7249066Y-38874746D01*
X7244250Y-38935662D01*
X7237216Y-39017548D01*
X7230872Y-39079569D01*
X7224748Y-39124987D01*
X7218373Y-39157062D01*
X7211277Y-39179052D01*
X7202991Y-39194219D01*
X7191393Y-39215416D01*
X7181850Y-39254386D01*
X7179010Y-39310531D01*
X7179010Y-39392773D01*
X6952674Y-39392773D01*
X6952674Y-39216733D01*
X6107082Y-39216733D01*
X6058203Y-39272262D01*
X6044836Y-39286722D01*
X5972388Y-39344813D01*
X5890532Y-39380576D01*
X5801900Y-39392773D01*
X5723692Y-39386306D01*
X5635233Y-39359047D01*
X5559507Y-39310328D01*
X5544748Y-39296403D01*
X5507864Y-39251328D01*
X5475503Y-39198819D01*
X5452297Y-39147061D01*
X5442879Y-39104239D01*
X5442697Y-39098023D01*
X5441342Y-39075246D01*
X5437800Y-39059513D01*
X5430390Y-39052068D01*
X5417431Y-39054156D01*
X5397243Y-39067020D01*
X5368145Y-39091905D01*
X5328456Y-39130053D01*
X5276496Y-39182710D01*
X5210584Y-39251119D01*
X5129040Y-39336524D01*
X5085604Y-39382112D01*
X5013000Y-39458441D01*
X4944309Y-39530808D01*
X4882223Y-39596366D01*
X4829434Y-39652274D01*
X4788634Y-39695686D01*
X4762515Y-39723758D01*
X4691119Y-39801436D01*
X4602863Y-39713416D01*
X5148690Y-39141287D01*
X5183105Y-39105188D01*
X5305546Y-38976272D01*
X5410651Y-38864754D01*
X5498736Y-38770288D01*
X5570116Y-38692529D01*
X5620588Y-38636174D01*
X5827247Y-38636174D01*
X5828872Y-38649434D01*
X5829156Y-38650819D01*
X5842698Y-38682228D01*
X5869748Y-38696863D01*
X5953129Y-38728063D01*
X6027418Y-38780038D01*
X6085846Y-38848791D01*
X6125890Y-38931315D01*
X6145026Y-39024606D01*
X6151364Y-39103565D01*
X7100838Y-39103565D01*
X7107458Y-39075273D01*
X7108629Y-39068329D01*
X7112268Y-39037281D01*
X7117234Y-38987081D01*
X7123157Y-38921727D01*
X7129669Y-38845219D01*
X7136401Y-38761555D01*
X7158724Y-38476129D01*
X6857826Y-38170565D01*
X6802636Y-38114704D01*
X6735109Y-38046888D01*
X6674529Y-37986643D01*
X6623021Y-37936052D01*
X6582710Y-37897200D01*
X6555722Y-37872170D01*
X6544182Y-37863046D01*
X6536444Y-37867405D01*
X6513395Y-37887241D01*
X6478709Y-37920375D01*
X6435487Y-37963820D01*
X6386832Y-38014587D01*
X6374140Y-38028051D01*
X6317229Y-38088275D01*
X6249414Y-38159864D01*
X6175800Y-38237437D01*
X6101493Y-38315611D01*
X6031599Y-38389005D01*
X6027401Y-38393409D01*
X5962420Y-38461785D01*
X5912836Y-38514732D01*
X5876688Y-38554767D01*
X5852016Y-38584411D01*
X5836858Y-38606181D01*
X5829256Y-38622595D01*
X5827247Y-38636174D01*
X5620588Y-38636174D01*
X5625105Y-38631131D01*
X5664019Y-38585748D01*
X5687173Y-38556035D01*
X5694882Y-38541644D01*
X5694883Y-38541559D01*
X5693825Y-38523624D01*
X5690737Y-38483421D01*
X5685858Y-38423687D01*
X5679432Y-38347158D01*
X5671700Y-38256569D01*
X5662905Y-38154657D01*
X5653287Y-38044159D01*
X5643091Y-37927811D01*
X5632556Y-37808348D01*
X5621926Y-37688507D01*
X5611442Y-37571025D01*
X5601346Y-37458637D01*
X5591881Y-37354081D01*
X5583288Y-37260091D01*
X5575809Y-37179405D01*
X5569687Y-37114759D01*
X5565162Y-37068888D01*
X5562478Y-37044530D01*
X5557067Y-37003732D01*
X5686253Y-37003732D01*
X5687908Y-37034653D01*
X5691549Y-37086653D01*
X5696995Y-37157487D01*
X5704063Y-37244911D01*
X5712570Y-37346681D01*
X5722335Y-37460552D01*
X5733174Y-37584279D01*
X5744907Y-37715618D01*
X5754079Y-37816908D01*
X5765566Y-37942526D01*
X5776322Y-38058762D01*
X5786131Y-38163380D01*
X5794781Y-38254140D01*
X5802057Y-38328804D01*
X5807746Y-38385134D01*
X5811634Y-38420891D01*
X5813506Y-38433837D01*
X5819188Y-38429826D01*
X5840020Y-38410138D01*
X5873872Y-38376322D01*
X5918412Y-38330837D01*
X5971310Y-38276146D01*
X6030236Y-38214710D01*
X6092858Y-38148990D01*
X6156848Y-38081449D01*
X6219874Y-38014547D01*
X6279606Y-37950746D01*
X6333713Y-37892507D01*
X6379865Y-37842292D01*
X6415733Y-37802563D01*
X6438984Y-37775780D01*
X6445778Y-37766477D01*
X6627601Y-37766477D01*
X6903305Y-38041968D01*
X6970726Y-38109224D01*
X7034267Y-38172162D01*
X7083490Y-38220100D01*
X7120196Y-38254594D01*
X7146190Y-38277199D01*
X7163276Y-38289471D01*
X7173256Y-38292966D01*
X7177935Y-38289238D01*
X7179116Y-38279844D01*
X7179873Y-38264749D01*
X7182601Y-38225883D01*
X7187108Y-38166895D01*
X7193179Y-38090473D01*
X7200596Y-37999305D01*
X7209142Y-37896080D01*
X7218602Y-37783483D01*
X7228758Y-37664205D01*
X7237723Y-37559077D01*
X7247066Y-37448351D01*
X7255443Y-37347814D01*
X7262653Y-37259943D01*
X7268496Y-37187215D01*
X7272769Y-37132110D01*
X7275273Y-37097104D01*
X7275805Y-37084674D01*
X7275384Y-37084908D01*
X7263509Y-37096350D01*
X7237130Y-37123198D01*
X7198570Y-37163018D01*
X7150153Y-37213372D01*
X7094203Y-37271828D01*
X7033042Y-37335948D01*
X6968995Y-37403298D01*
X6904385Y-37471443D01*
X6841535Y-37537948D01*
X6782768Y-37600377D01*
X6730409Y-37656295D01*
X6629533Y-37764406D01*
X6627601Y-37766477D01*
X6445778Y-37766477D01*
X6447290Y-37764406D01*
X6439148Y-37753383D01*
X6415478Y-37726999D01*
X6378478Y-37687527D01*
X6330350Y-37637191D01*
X6273296Y-37578217D01*
X6209520Y-37512830D01*
X6141222Y-37443255D01*
X6070605Y-37371716D01*
X5999871Y-37300438D01*
X5931222Y-37231647D01*
X5866861Y-37167566D01*
X5808989Y-37110422D01*
X5759810Y-37062439D01*
X5721524Y-37025841D01*
X5696334Y-37002854D01*
X5686442Y-36995703D01*
X5686253Y-37003732D01*
X5557067Y-37003732D01*
X5555390Y-36991089D01*
X5280297Y-36991089D01*
X5280140Y-36890495D01*
X5380891Y-36890495D01*
X5462624Y-36890495D01*
X5469895Y-36890489D01*
X5510950Y-36889613D01*
X5533277Y-36885867D01*
X5542529Y-36877270D01*
X5544357Y-36861840D01*
X5536306Y-36839159D01*
X5508730Y-36801428D01*
X5462624Y-36752179D01*
X5380891Y-36671172D01*
X5380891Y-36890495D01*
X5280140Y-36890495D01*
X5279968Y-36780471D01*
X5279639Y-36569852D01*
X4827914Y-36110891D01*
X4376189Y-35651931D01*
X4375570Y-35564848D01*
X4374951Y-35477767D01*
X4916769Y-36026952D01*
X4969137Y-36079998D01*
X5077803Y-36189772D01*
X5170709Y-36283114D01*
X5249055Y-36361173D01*
X5314043Y-36425097D01*
X5366872Y-36476035D01*
X5408743Y-36515135D01*
X5440855Y-36543548D01*
X5464410Y-36562420D01*
X5480608Y-36572901D01*
X5490649Y-36576139D01*
X5507579Y-36575158D01*
X5517084Y-36567996D01*
X5518723Y-36548401D01*
X5514782Y-36510124D01*
X5512065Y-36486025D01*
X5508284Y-36445744D01*
X5506760Y-36418961D01*
X5506015Y-36409728D01*
X5498746Y-36399839D01*
X5478668Y-36396562D01*
X5439689Y-36397992D01*
X5429737Y-36398553D01*
X5389898Y-36397921D01*
X5361560Y-36389167D01*
X5341586Y-36374951D01*
X5624852Y-36374951D01*
X5629013Y-36422104D01*
X5630935Y-36443498D01*
X5636924Y-36501909D01*
X5642826Y-36540381D01*
X5649727Y-36562912D01*
X5658712Y-36573498D01*
X5670870Y-36576139D01*
X5681801Y-36577937D01*
X5689050Y-36586530D01*
X5693100Y-36606505D01*
X5694863Y-36642450D01*
X5695248Y-36698952D01*
X5695248Y-36821766D01*
X5735447Y-36861840D01*
X5833565Y-36959654D01*
X5971881Y-37097542D01*
X5971881Y-36991089D01*
X6726337Y-36991089D01*
X6726337Y-37230000D01*
X6107831Y-37230000D01*
X6317592Y-37446906D01*
X6357770Y-37488334D01*
X6413328Y-37545200D01*
X6461570Y-37594082D01*
X6499971Y-37632441D01*
X6526003Y-37657741D01*
X6537140Y-37667442D01*
X6541373Y-37664767D01*
X6561224Y-37646782D01*
X6595451Y-37613481D01*
X6642227Y-37566712D01*
X6699724Y-37508325D01*
X6766112Y-37440169D01*
X6839564Y-37364094D01*
X6918251Y-37281950D01*
X6997341Y-37198943D01*
X7074871Y-37117136D01*
X7137746Y-37050083D01*
X7187502Y-36996007D01*
X7225678Y-36953129D01*
X7253811Y-36919673D01*
X7273440Y-36893861D01*
X7286101Y-36873914D01*
X7293334Y-36858056D01*
X7296675Y-36844509D01*
X7297561Y-36837910D01*
X7301488Y-36801548D01*
X7306459Y-36748018D01*
X7311927Y-36683421D01*
X7317344Y-36613862D01*
X7319181Y-36589635D01*
X7324488Y-36524178D01*
X7329548Y-36467717D01*
X7333863Y-36425618D01*
X7336934Y-36403243D01*
X7342955Y-36374951D01*
X5624852Y-36374951D01*
X5341586Y-36374951D01*
X5333630Y-36369289D01*
X5328820Y-36365104D01*
X5289482Y-36314427D01*
X5273903Y-36261782D01*
X5614698Y-36261782D01*
X7029221Y-36261782D01*
X7241881Y-36261782D01*
X7298908Y-36261782D01*
X7315993Y-36261662D01*
X7341308Y-36259462D01*
X7348616Y-36252334D01*
X7342943Y-36237508D01*
X7341267Y-36234682D01*
X7322448Y-36212944D01*
X7295183Y-36188820D01*
X7267987Y-36169254D01*
X7249371Y-36161188D01*
X7247697Y-36162463D01*
X7243544Y-36179976D01*
X7241881Y-36211485D01*
X7241881Y-36261782D01*
X7029221Y-36261782D01*
X7025526Y-36171095D01*
X7021832Y-36080407D01*
X6946386Y-36065252D01*
X6908551Y-36058379D01*
X6845368Y-36048756D01*
X6786065Y-36041496D01*
X6701188Y-36032893D01*
X6701188Y-36136040D01*
X6122773Y-36136040D01*
X6122773Y-36045122D01*
X6050471Y-36053753D01*
X5939998Y-36072249D01*
X5828816Y-36105691D01*
X5736850Y-36152324D01*
X5662542Y-36212786D01*
X5614698Y-36261782D01*
X5273903Y-36261782D01*
X5272172Y-36255934D01*
X5277474Y-36194575D01*
X5305975Y-36135297D01*
X5308733Y-36131606D01*
X5346822Y-36099851D01*
X5396476Y-36081067D01*
X5450002Y-36076071D01*
X5499707Y-36085678D01*
X5537900Y-36110704D01*
X5550831Y-36123480D01*
X5563428Y-36126576D01*
X5581467Y-36116998D01*
X5611928Y-36093082D01*
X5621274Y-36085731D01*
X5693430Y-36039339D01*
X5701497Y-36035446D01*
X6223367Y-36035446D01*
X6600594Y-36035446D01*
X6600594Y-35972575D01*
X6223367Y-35972575D01*
X6223367Y-36035446D01*
X5701497Y-36035446D01*
X5778915Y-35998084D01*
X5869767Y-35964936D01*
X5958027Y-35942868D01*
X6035736Y-35934852D01*
X6043991Y-35934788D01*
X6089879Y-35930321D01*
X6115079Y-35917795D01*
X6122773Y-35895784D01*
X6123676Y-35888849D01*
X6128615Y-35882885D01*
X6140611Y-35878519D01*
X6162680Y-35875503D01*
X6197836Y-35873590D01*
X6249094Y-35872530D01*
X6319471Y-35872077D01*
X6411980Y-35871980D01*
X6498660Y-35872150D01*
X6572332Y-35872834D01*
X6626265Y-35874215D01*
X6663288Y-35876470D01*
X6686230Y-35879778D01*
X6697920Y-35884320D01*
X6701188Y-35890272D01*
X6711937Y-35904888D01*
X6742055Y-35914215D01*
X6753582Y-35915847D01*
X6792886Y-35921591D01*
X6845188Y-35929378D01*
X6902376Y-35938003D01*
X6933916Y-35942393D01*
X6980074Y-35947148D01*
X7012641Y-35948295D01*
X7026023Y-35945495D01*
X7028308Y-35943671D01*
X7049405Y-35939165D01*
X7087355Y-35936029D01*
X7136048Y-35934852D01*
X7241881Y-35934852D01*
X7241894Y-35972575D01*
X7241894Y-35975718D01*
G37*
D12*
%TO.C,J3*%
X12800000Y-10300000D02*
X28200000Y-10300000D01*
X28200000Y-10300000D02*
X28200000Y-18700000D01*
X28200000Y-18700000D02*
X12800000Y-18700000D01*
X12800000Y-18700000D02*
X12800000Y-10300000D01*
%TO.C,REF\u002A\u002A*%
G36*
X51697415Y-7180012D02*
G01*
X51716315Y-7185393D01*
X51731001Y-7197205D01*
X51739714Y-7214158D01*
X51740388Y-7217751D01*
X51741566Y-7231303D01*
X51742457Y-7253171D01*
X51743062Y-7283418D01*
X51743382Y-7322108D01*
X51743419Y-7369303D01*
X51743173Y-7425066D01*
X51742980Y-7453854D01*
X51742658Y-7495242D01*
X51742303Y-7529256D01*
X51741880Y-7556682D01*
X51741356Y-7578310D01*
X51740694Y-7594926D01*
X51739861Y-7607319D01*
X51738821Y-7616275D01*
X51737540Y-7622585D01*
X51735984Y-7627033D01*
X51734116Y-7630410D01*
X51725951Y-7639824D01*
X51716843Y-7646133D01*
X51715205Y-7646520D01*
X51705524Y-7647455D01*
X51688803Y-7648306D01*
X51666185Y-7649041D01*
X51638813Y-7649627D01*
X51607830Y-7650030D01*
X51574378Y-7650219D01*
X51559758Y-7650242D01*
X51521874Y-7650180D01*
X51491457Y-7649841D01*
X51467634Y-7649120D01*
X51449532Y-7647913D01*
X51436277Y-7646112D01*
X51426996Y-7643612D01*
X51420815Y-7640309D01*
X51416861Y-7636096D01*
X51414261Y-7630867D01*
X51412520Y-7624499D01*
X51412047Y-7608369D01*
X51416024Y-7594117D01*
X51416401Y-7593423D01*
X51420601Y-7587212D01*
X51426217Y-7582373D01*
X51434279Y-7578739D01*
X51445820Y-7576141D01*
X51461870Y-7574412D01*
X51483461Y-7573385D01*
X51511623Y-7572892D01*
X51547389Y-7572764D01*
X51649082Y-7572764D01*
X51649082Y-7390966D01*
X51649082Y-7209167D01*
X51663765Y-7194485D01*
X51668153Y-7190326D01*
X51680328Y-7182181D01*
X51692913Y-7179819D01*
X51697415Y-7180012D01*
G37*
G36*
X50902024Y-7424284D02*
G01*
X50902024Y-7629765D01*
X50887342Y-7644448D01*
X50871448Y-7655953D01*
X50854315Y-7659214D01*
X50835354Y-7654146D01*
X50834154Y-7653590D01*
X50825768Y-7648855D01*
X50819459Y-7642803D01*
X50814905Y-7634214D01*
X50811780Y-7621868D01*
X50809762Y-7604546D01*
X50808527Y-7581028D01*
X50807752Y-7550094D01*
X50806322Y-7473444D01*
X50768887Y-7473370D01*
X50740710Y-7472845D01*
X50693339Y-7469214D01*
X50653413Y-7461934D01*
X50620579Y-7450770D01*
X50594483Y-7435487D01*
X50574772Y-7415852D01*
X50561093Y-7391631D01*
X50553093Y-7362589D01*
X50550610Y-7330928D01*
X50647246Y-7330928D01*
X50647565Y-7339533D01*
X50652320Y-7360275D01*
X50663421Y-7375999D01*
X50681698Y-7388085D01*
X50687490Y-7390675D01*
X50698414Y-7394220D01*
X50711786Y-7396628D01*
X50729669Y-7398219D01*
X50754123Y-7399310D01*
X50807022Y-7401077D01*
X50807022Y-7328648D01*
X50807022Y-7256219D01*
X50753203Y-7258762D01*
X50730517Y-7260241D01*
X50701586Y-7264111D01*
X50679792Y-7270385D01*
X50664297Y-7279634D01*
X50654267Y-7292427D01*
X50648862Y-7309335D01*
X50647246Y-7330928D01*
X50550610Y-7330928D01*
X50550419Y-7328493D01*
X50550446Y-7317348D01*
X50551146Y-7300739D01*
X50553245Y-7287928D01*
X50557395Y-7275732D01*
X50564247Y-7260970D01*
X50571300Y-7247950D01*
X50585744Y-7228721D01*
X50604196Y-7213476D01*
X50628966Y-7200040D01*
X50631484Y-7198897D01*
X50637990Y-7196286D01*
X50645020Y-7194287D01*
X50653733Y-7192820D01*
X50665288Y-7191803D01*
X50680843Y-7191154D01*
X50701559Y-7190791D01*
X50728593Y-7190633D01*
X50763105Y-7190598D01*
X50876805Y-7190598D01*
X50889414Y-7204701D01*
X50902024Y-7218803D01*
X50902024Y-7256219D01*
X50902024Y-7424284D01*
G37*
G36*
X50654036Y-5849887D02*
G01*
X50690043Y-5850041D01*
X50719667Y-5850387D01*
X50743679Y-5850997D01*
X50762853Y-5851940D01*
X50777959Y-5853287D01*
X50789771Y-5855108D01*
X50799059Y-5857475D01*
X50806596Y-5860456D01*
X50813155Y-5864124D01*
X50819506Y-5868548D01*
X50826423Y-5873799D01*
X50833237Y-5880182D01*
X50844871Y-5895289D01*
X50855573Y-5913873D01*
X50869637Y-5942440D01*
X50869637Y-6123898D01*
X50869637Y-6305355D01*
X50857502Y-6330071D01*
X50853528Y-6337517D01*
X50835872Y-6361342D01*
X50814037Y-6379921D01*
X50789881Y-6391565D01*
X50782483Y-6392786D01*
X50766927Y-6394031D01*
X50744773Y-6395127D01*
X50717101Y-6396071D01*
X50684992Y-6396856D01*
X50649526Y-6397479D01*
X50611783Y-6397933D01*
X50572846Y-6398214D01*
X50533792Y-6398318D01*
X50495705Y-6398237D01*
X50459663Y-6397969D01*
X50426747Y-6397507D01*
X50398039Y-6396847D01*
X50374618Y-6395984D01*
X50357565Y-6394912D01*
X50347960Y-6393627D01*
X50340507Y-6391430D01*
X50314667Y-6378255D01*
X50292653Y-6357743D01*
X50275185Y-6330519D01*
X50260762Y-6301224D01*
X50260762Y-6124082D01*
X50260774Y-6087552D01*
X50260889Y-6046551D01*
X50261231Y-6012662D01*
X50261924Y-5985021D01*
X50263090Y-5962763D01*
X50264854Y-5945022D01*
X50267339Y-5930934D01*
X50270668Y-5919634D01*
X50274966Y-5910256D01*
X50280355Y-5901935D01*
X50286959Y-5893807D01*
X50294901Y-5885006D01*
X50297328Y-5882350D01*
X50303907Y-5875197D01*
X50310036Y-5869183D01*
X50316470Y-5864207D01*
X50323968Y-5860172D01*
X50333287Y-5856979D01*
X50345183Y-5854528D01*
X50360416Y-5852721D01*
X50379740Y-5851460D01*
X50403915Y-5850645D01*
X50433697Y-5850178D01*
X50469843Y-5849959D01*
X50513111Y-5849891D01*
X50564259Y-5849874D01*
X50610874Y-5849856D01*
X50654036Y-5849887D01*
G37*
G36*
X50574872Y-5025917D02*
G01*
X50787590Y-5027151D01*
X50807646Y-5038941D01*
X50820910Y-5047795D01*
X50843394Y-5069907D01*
X50860604Y-5098402D01*
X50862260Y-5102103D01*
X50864190Y-5107285D01*
X50865751Y-5113350D01*
X50866982Y-5121160D01*
X50867921Y-5131576D01*
X50868609Y-5145459D01*
X50869083Y-5163672D01*
X50869384Y-5187075D01*
X50869551Y-5216530D01*
X50869622Y-5252898D01*
X50869637Y-5297042D01*
X50869636Y-5308613D01*
X50869598Y-5351061D01*
X50869482Y-5385954D01*
X50869250Y-5414164D01*
X50868867Y-5436560D01*
X50868299Y-5454012D01*
X50867508Y-5467392D01*
X50866459Y-5477569D01*
X50865116Y-5485413D01*
X50863444Y-5491796D01*
X50861407Y-5497588D01*
X50852687Y-5514888D01*
X50837353Y-5535627D01*
X50819167Y-5553338D01*
X50800545Y-5565331D01*
X50799703Y-5565708D01*
X50795160Y-5567448D01*
X50789637Y-5568899D01*
X50782369Y-5570087D01*
X50772591Y-5571038D01*
X50759535Y-5571779D01*
X50742438Y-5572337D01*
X50720533Y-5572737D01*
X50693054Y-5573006D01*
X50659235Y-5573170D01*
X50618312Y-5573257D01*
X50569518Y-5573292D01*
X50519144Y-5573231D01*
X50468595Y-5572971D01*
X50426092Y-5572508D01*
X50391754Y-5571845D01*
X50365698Y-5570985D01*
X50348041Y-5569929D01*
X50338901Y-5568680D01*
X50327764Y-5564012D01*
X50310114Y-5551623D01*
X50293067Y-5534653D01*
X50278671Y-5515244D01*
X50268979Y-5495544D01*
X50268885Y-5495272D01*
X50266843Y-5488801D01*
X50265173Y-5481736D01*
X50263838Y-5473184D01*
X50262800Y-5462250D01*
X50262024Y-5448042D01*
X50261471Y-5429665D01*
X50261106Y-5406226D01*
X50260890Y-5376832D01*
X50260788Y-5340588D01*
X50260762Y-5296602D01*
X50260762Y-5121273D01*
X50275876Y-5091676D01*
X50279195Y-5085490D01*
X50297819Y-5059367D01*
X50319998Y-5040440D01*
X50345106Y-5029273D01*
X50351954Y-5028271D01*
X50368156Y-5027257D01*
X50392845Y-5026490D01*
X50425941Y-5025972D01*
X50467365Y-5025702D01*
X50517035Y-5025684D01*
X50574872Y-5025917D01*
G37*
G36*
X52503451Y-7181243D02*
G01*
X52542735Y-7188309D01*
X52580131Y-7202104D01*
X52614415Y-7222587D01*
X52644362Y-7249719D01*
X52659309Y-7268585D01*
X52678849Y-7303022D01*
X52692497Y-7340964D01*
X52700377Y-7381221D01*
X52702615Y-7422603D01*
X52699336Y-7463921D01*
X52690665Y-7503985D01*
X52676727Y-7541605D01*
X52657647Y-7575592D01*
X52633552Y-7604756D01*
X52604564Y-7627907D01*
X52583541Y-7639016D01*
X52556290Y-7649526D01*
X52530007Y-7656146D01*
X52515426Y-7657705D01*
X52493401Y-7658458D01*
X52469457Y-7658102D01*
X52447096Y-7656700D01*
X52429820Y-7654317D01*
X52410795Y-7649214D01*
X52378597Y-7635259D01*
X52349893Y-7616085D01*
X52325711Y-7592767D01*
X52307079Y-7566381D01*
X52295026Y-7538001D01*
X52290579Y-7508704D01*
X52290574Y-7503467D01*
X52291609Y-7491016D01*
X52295172Y-7482730D01*
X52302460Y-7475237D01*
X52311235Y-7469392D01*
X52327411Y-7464775D01*
X52343283Y-7466473D01*
X52356098Y-7474524D01*
X52362184Y-7482973D01*
X52370090Y-7496651D01*
X52377873Y-7512309D01*
X52387082Y-7530050D01*
X52405132Y-7553853D01*
X52426910Y-7570195D01*
X52453185Y-7579579D01*
X52484726Y-7582512D01*
X52513908Y-7579648D01*
X52541839Y-7569873D01*
X52564786Y-7553110D01*
X52582797Y-7529310D01*
X52595922Y-7498423D01*
X52604209Y-7460399D01*
X52606286Y-7439966D01*
X52605986Y-7402052D01*
X52600548Y-7365960D01*
X52590372Y-7333204D01*
X52575862Y-7305301D01*
X52557417Y-7283763D01*
X52548463Y-7276611D01*
X52526448Y-7264768D01*
X52500878Y-7258820D01*
X52469957Y-7258242D01*
X52450224Y-7260654D01*
X52431112Y-7266996D01*
X52414160Y-7278223D01*
X52397755Y-7295442D01*
X52380280Y-7319762D01*
X52373855Y-7329478D01*
X52363604Y-7344176D01*
X52355683Y-7353430D01*
X52348589Y-7358498D01*
X52340821Y-7360637D01*
X52330877Y-7361104D01*
X52316140Y-7358666D01*
X52303507Y-7350211D01*
X52295743Y-7336870D01*
X52292854Y-7319856D01*
X52294848Y-7300383D01*
X52301730Y-7279664D01*
X52313509Y-7258913D01*
X52330190Y-7239342D01*
X52351917Y-7221083D01*
X52386511Y-7200827D01*
X52424115Y-7187462D01*
X52463503Y-7180948D01*
X52503451Y-7181243D01*
G37*
G36*
X51232329Y-7185853D02*
G01*
X51270837Y-7199040D01*
X51306184Y-7219314D01*
X51337223Y-7246479D01*
X51356757Y-7269921D01*
X51375841Y-7301342D01*
X51388839Y-7335779D01*
X51396263Y-7374673D01*
X51398623Y-7419466D01*
X51398024Y-7442174D01*
X51392410Y-7487658D01*
X51380635Y-7527957D01*
X51362394Y-7563960D01*
X51337378Y-7596557D01*
X51336269Y-7597763D01*
X51309731Y-7622129D01*
X51280974Y-7639463D01*
X51247484Y-7651295D01*
X51231135Y-7654909D01*
X51190651Y-7658990D01*
X51149536Y-7656986D01*
X51110243Y-7649121D01*
X51075225Y-7635618D01*
X51070161Y-7632912D01*
X51047756Y-7617394D01*
X51028035Y-7598169D01*
X51011599Y-7576508D01*
X50999050Y-7553683D01*
X50990991Y-7530967D01*
X50988024Y-7509632D01*
X50990751Y-7490950D01*
X50999773Y-7476192D01*
X51000060Y-7475909D01*
X51014842Y-7467015D01*
X51032369Y-7464697D01*
X51049364Y-7469404D01*
X51050235Y-7469974D01*
X51056514Y-7477183D01*
X51064309Y-7489641D01*
X51072138Y-7505030D01*
X51074583Y-7510261D01*
X51090467Y-7538516D01*
X51107921Y-7559066D01*
X51128070Y-7572716D01*
X51152040Y-7580267D01*
X51180960Y-7582521D01*
X51188905Y-7582299D01*
X51220538Y-7576957D01*
X51247254Y-7564642D01*
X51268922Y-7545544D01*
X51285411Y-7519857D01*
X51296588Y-7487770D01*
X51302324Y-7449477D01*
X51302485Y-7405169D01*
X51299781Y-7377281D01*
X51292346Y-7343970D01*
X51280262Y-7316241D01*
X51263095Y-7292856D01*
X51247387Y-7277880D01*
X51228152Y-7265993D01*
X51205987Y-7259601D01*
X51178392Y-7257667D01*
X51177431Y-7257667D01*
X51152250Y-7259514D01*
X51131319Y-7265606D01*
X51112982Y-7276957D01*
X51095583Y-7294582D01*
X51077465Y-7319495D01*
X51070637Y-7329556D01*
X51060291Y-7343656D01*
X51051805Y-7353866D01*
X51046540Y-7358469D01*
X51034143Y-7361241D01*
X51016973Y-7358935D01*
X51002358Y-7350336D01*
X50992207Y-7336730D01*
X50988431Y-7319399D01*
X50989072Y-7310485D01*
X50996022Y-7286575D01*
X51009689Y-7262375D01*
X51028925Y-7239355D01*
X51052579Y-7218988D01*
X51079503Y-7202745D01*
X51109295Y-7190752D01*
X51150412Y-7181515D01*
X51191805Y-7179946D01*
X51232329Y-7185853D01*
G37*
G36*
X50007221Y-7183271D02*
G01*
X50023690Y-7194485D01*
X50038372Y-7209167D01*
X50038372Y-7355830D01*
X50038317Y-7379389D01*
X50038033Y-7414233D01*
X50037534Y-7446488D01*
X50036853Y-7474946D01*
X50036020Y-7498397D01*
X50035065Y-7515631D01*
X50034020Y-7525438D01*
X50032557Y-7532530D01*
X50020677Y-7568701D01*
X50002593Y-7598888D01*
X49978400Y-7622996D01*
X49948191Y-7640926D01*
X49912058Y-7652581D01*
X49893086Y-7655656D01*
X49865063Y-7657976D01*
X49835080Y-7658638D01*
X49806606Y-7657582D01*
X49783104Y-7654751D01*
X49772099Y-7652262D01*
X49740523Y-7640452D01*
X49711920Y-7623008D01*
X49688114Y-7601204D01*
X49670929Y-7576317D01*
X49667654Y-7569638D01*
X49662765Y-7558036D01*
X49658835Y-7545629D01*
X49655774Y-7531438D01*
X49653491Y-7514486D01*
X49651899Y-7493793D01*
X49650908Y-7468382D01*
X49650429Y-7437273D01*
X49650372Y-7399488D01*
X49650648Y-7354049D01*
X49651888Y-7204995D01*
X49665990Y-7192399D01*
X49674209Y-7186336D01*
X49691838Y-7180106D01*
X49709447Y-7181502D01*
X49725176Y-7190174D01*
X49737167Y-7205772D01*
X49738475Y-7208630D01*
X49740328Y-7214241D01*
X49741779Y-7221687D01*
X49742876Y-7231939D01*
X49743667Y-7245970D01*
X49744200Y-7264750D01*
X49744521Y-7289252D01*
X49744680Y-7320447D01*
X49744723Y-7359306D01*
X49744771Y-7391247D01*
X49745052Y-7428798D01*
X49745696Y-7459354D01*
X49746832Y-7483867D01*
X49748585Y-7503292D01*
X49751082Y-7518582D01*
X49754449Y-7530689D01*
X49758814Y-7540567D01*
X49764302Y-7549169D01*
X49771041Y-7557448D01*
X49781605Y-7567393D01*
X49798364Y-7576509D01*
X49819763Y-7581420D01*
X49847517Y-7582692D01*
X49875662Y-7580186D01*
X49898961Y-7572617D01*
X49916832Y-7559501D01*
X49930246Y-7540341D01*
X49941211Y-7519052D01*
X49943370Y-7365621D01*
X49943451Y-7359938D01*
X49944057Y-7320030D01*
X49944659Y-7287756D01*
X49945307Y-7262229D01*
X49946056Y-7242559D01*
X49946957Y-7227858D01*
X49948064Y-7217239D01*
X49949430Y-7209811D01*
X49951106Y-7204688D01*
X49953147Y-7200980D01*
X49956965Y-7195988D01*
X49972045Y-7184189D01*
X49989402Y-7179895D01*
X50007221Y-7183271D01*
G37*
G36*
X52197248Y-7498133D02*
G01*
X52207783Y-7525163D01*
X52216339Y-7547206D01*
X52223110Y-7564760D01*
X52228290Y-7578320D01*
X52232071Y-7588383D01*
X52234646Y-7595447D01*
X52236210Y-7600007D01*
X52238698Y-7617802D01*
X52233481Y-7635487D01*
X52220085Y-7650639D01*
X52211737Y-7655605D01*
X52195205Y-7659293D01*
X52178760Y-7656836D01*
X52165520Y-7648363D01*
X52160833Y-7641519D01*
X52153613Y-7627851D01*
X52145410Y-7609996D01*
X52137250Y-7590067D01*
X52118958Y-7542537D01*
X52025093Y-7542537D01*
X51931227Y-7542537D01*
X51912651Y-7590137D01*
X51909704Y-7597564D01*
X51898729Y-7622354D01*
X51888460Y-7639921D01*
X51878052Y-7651249D01*
X51866659Y-7657324D01*
X51853437Y-7659130D01*
X51846536Y-7658603D01*
X51835214Y-7654188D01*
X51822992Y-7643899D01*
X51819103Y-7639928D01*
X51811861Y-7630849D01*
X51809265Y-7622263D01*
X51809846Y-7610433D01*
X51809967Y-7609683D01*
X51812518Y-7600899D01*
X51817933Y-7585304D01*
X51825813Y-7563887D01*
X51835764Y-7537637D01*
X51847387Y-7507544D01*
X51860286Y-7474596D01*
X51863775Y-7465781D01*
X51959997Y-7465781D01*
X51961346Y-7466450D01*
X51969672Y-7467510D01*
X51984327Y-7468359D01*
X52003842Y-7468922D01*
X52026746Y-7469126D01*
X52093496Y-7469126D01*
X52073825Y-7414068D01*
X52065586Y-7390962D01*
X52056312Y-7364871D01*
X52047675Y-7340497D01*
X52040814Y-7321047D01*
X52038093Y-7313520D01*
X52031845Y-7298200D01*
X52027119Y-7289690D01*
X52024303Y-7288749D01*
X52022083Y-7293890D01*
X52017473Y-7305733D01*
X52011088Y-7322671D01*
X52003460Y-7343240D01*
X51995123Y-7365974D01*
X51986608Y-7389407D01*
X51978448Y-7412075D01*
X51971174Y-7432512D01*
X51965319Y-7449252D01*
X51961416Y-7460830D01*
X51959997Y-7465781D01*
X51863775Y-7465781D01*
X51874065Y-7439783D01*
X51888327Y-7404093D01*
X51902674Y-7368515D01*
X51916711Y-7334040D01*
X51930040Y-7301655D01*
X51942265Y-7272350D01*
X51952989Y-7247115D01*
X51961815Y-7226937D01*
X51968346Y-7212806D01*
X51972187Y-7205712D01*
X51976160Y-7200920D01*
X51992984Y-7188459D01*
X52013551Y-7181436D01*
X52035130Y-7180495D01*
X52054990Y-7186276D01*
X52058611Y-7188329D01*
X52070412Y-7198103D01*
X52081498Y-7212829D01*
X52092643Y-7233685D01*
X52104618Y-7261850D01*
X52108136Y-7270808D01*
X52131461Y-7330219D01*
X52151842Y-7382160D01*
X52169471Y-7427128D01*
X52184542Y-7465621D01*
X52185912Y-7469126D01*
X52197248Y-7498133D01*
G37*
G36*
X50333247Y-7181223D02*
G01*
X50368538Y-7187450D01*
X50401019Y-7198330D01*
X50429075Y-7213644D01*
X50451090Y-7233172D01*
X50454359Y-7237183D01*
X50469060Y-7262484D01*
X50476946Y-7290467D01*
X50478113Y-7319423D01*
X50472652Y-7347645D01*
X50460658Y-7373424D01*
X50442224Y-7395053D01*
X50438691Y-7398065D01*
X50423485Y-7409082D01*
X50405440Y-7418963D01*
X50383132Y-7428325D01*
X50355138Y-7437784D01*
X50320034Y-7447956D01*
X50314218Y-7449558D01*
X50286192Y-7457590D01*
X50265035Y-7464424D01*
X50249429Y-7470652D01*
X50238053Y-7476868D01*
X50229587Y-7483664D01*
X50222709Y-7491632D01*
X50217390Y-7501785D01*
X50213946Y-7520021D01*
X50215703Y-7538866D01*
X50222664Y-7554577D01*
X50226531Y-7559261D01*
X50244753Y-7573584D01*
X50267858Y-7583393D01*
X50293748Y-7588430D01*
X50320328Y-7588437D01*
X50345500Y-7583157D01*
X50367168Y-7572331D01*
X50368130Y-7571596D01*
X50376774Y-7562143D01*
X50386876Y-7547338D01*
X50396827Y-7529503D01*
X50399707Y-7523941D01*
X50408734Y-7508244D01*
X50417184Y-7495792D01*
X50423542Y-7488884D01*
X50426363Y-7487078D01*
X50442858Y-7482012D01*
X50459862Y-7484827D01*
X50475427Y-7495282D01*
X50480819Y-7500942D01*
X50485765Y-7508516D01*
X50487223Y-7517493D01*
X50486259Y-7531436D01*
X50481383Y-7555045D01*
X50468088Y-7583182D01*
X50446561Y-7609583D01*
X50426190Y-7627014D01*
X50399605Y-7641979D01*
X50367595Y-7652402D01*
X50359934Y-7654023D01*
X50333729Y-7657335D01*
X50304111Y-7658617D01*
X50274790Y-7657793D01*
X50249476Y-7654789D01*
X50245320Y-7653955D01*
X50213883Y-7643942D01*
X50184797Y-7628459D01*
X50159627Y-7608704D01*
X50139937Y-7585876D01*
X50127293Y-7561174D01*
X50122696Y-7540789D01*
X50120681Y-7515340D01*
X50121607Y-7489745D01*
X50125552Y-7468108D01*
X50126027Y-7466612D01*
X50135594Y-7447968D01*
X50151039Y-7428946D01*
X50170249Y-7411783D01*
X50191114Y-7398715D01*
X50191220Y-7398663D01*
X50204931Y-7392890D01*
X50224406Y-7385880D01*
X50247066Y-7378512D01*
X50270333Y-7371667D01*
X50271763Y-7371271D01*
X50294327Y-7364886D01*
X50315512Y-7358679D01*
X50332999Y-7353339D01*
X50344468Y-7349560D01*
X50362360Y-7341324D01*
X50378902Y-7328295D01*
X50388171Y-7313603D01*
X50390520Y-7298293D01*
X50386297Y-7283407D01*
X50375854Y-7269991D01*
X50359541Y-7259086D01*
X50337708Y-7251738D01*
X50310706Y-7248990D01*
X50286087Y-7250776D01*
X50264786Y-7257613D01*
X50247527Y-7270495D01*
X50232479Y-7290392D01*
X50229931Y-7294530D01*
X50218223Y-7312745D01*
X50209100Y-7324796D01*
X50201287Y-7331900D01*
X50193508Y-7335270D01*
X50184488Y-7336124D01*
X50167351Y-7333938D01*
X50153207Y-7325726D01*
X50143559Y-7310715D01*
X50140084Y-7297562D01*
X50141291Y-7276568D01*
X50149517Y-7255092D01*
X50164025Y-7234380D01*
X50184080Y-7215676D01*
X50208943Y-7200227D01*
X50226686Y-7192662D01*
X50260705Y-7183609D01*
X50296765Y-7179870D01*
X50333247Y-7181223D01*
G37*
G36*
X52701820Y-3749625D02*
G01*
X52701972Y-3800942D01*
X52702107Y-3857396D01*
X52702225Y-3919235D01*
X52702328Y-3986711D01*
X52702416Y-4060072D01*
X52702491Y-4139569D01*
X52702554Y-4225452D01*
X52702605Y-4317971D01*
X52702647Y-4417376D01*
X52702679Y-4523918D01*
X52702703Y-4637845D01*
X52702720Y-4759409D01*
X52702730Y-4888860D01*
X52702736Y-5026446D01*
X52702737Y-5081988D01*
X52702738Y-5172420D01*
X52702738Y-5232328D01*
X52702737Y-5374375D01*
X52702734Y-5508141D01*
X52702728Y-5633877D01*
X52702720Y-5722390D01*
X52702717Y-5751836D01*
X52702700Y-5862270D01*
X52702677Y-5965431D01*
X52702645Y-6061573D01*
X52702603Y-6150947D01*
X52702551Y-6233806D01*
X52702537Y-6251081D01*
X52702487Y-6310402D01*
X52702410Y-6380988D01*
X52702318Y-6445815D01*
X52702211Y-6505137D01*
X52702087Y-6559206D01*
X52701944Y-6608274D01*
X52701782Y-6652593D01*
X52701600Y-6692416D01*
X52701395Y-6727996D01*
X52701168Y-6759584D01*
X52700916Y-6787434D01*
X52700639Y-6811797D01*
X52700335Y-6832926D01*
X52700002Y-6851073D01*
X52699641Y-6866491D01*
X52699249Y-6879432D01*
X52698825Y-6890148D01*
X52698368Y-6898892D01*
X52697877Y-6905917D01*
X52697350Y-6911474D01*
X52696787Y-6915816D01*
X52696186Y-6919196D01*
X52695546Y-6921865D01*
X52694865Y-6924077D01*
X52694142Y-6926083D01*
X52689971Y-6935524D01*
X52674312Y-6958823D01*
X52653311Y-6979067D01*
X52629327Y-6993793D01*
X52628380Y-6994217D01*
X52626485Y-6994998D01*
X52624274Y-6995729D01*
X52621472Y-6996411D01*
X52617799Y-6997046D01*
X52612978Y-6997636D01*
X52606733Y-6998182D01*
X52598786Y-6998687D01*
X52588859Y-6999151D01*
X52576676Y-6999576D01*
X52561958Y-6999965D01*
X52544428Y-7000318D01*
X52523810Y-7000638D01*
X52499825Y-7000926D01*
X52472196Y-7001183D01*
X52440646Y-7001413D01*
X52404898Y-7001615D01*
X52364673Y-7001792D01*
X52319696Y-7001946D01*
X52269687Y-7002077D01*
X52214371Y-7002189D01*
X52153469Y-7002282D01*
X52086705Y-7002358D01*
X52013800Y-7002419D01*
X51934478Y-7002467D01*
X51848461Y-7002503D01*
X51755472Y-7002529D01*
X51655233Y-7002546D01*
X51547467Y-7002557D01*
X51431896Y-7002562D01*
X51308244Y-7002564D01*
X51176233Y-7002565D01*
X51106891Y-7002564D01*
X50979238Y-7002563D01*
X50859801Y-7002560D01*
X50748302Y-7002552D01*
X50644464Y-7002538D01*
X50548009Y-7002517D01*
X50458661Y-7002486D01*
X50376141Y-7002444D01*
X50300173Y-7002390D01*
X50230479Y-7002321D01*
X50166782Y-7002236D01*
X50108804Y-7002134D01*
X50056267Y-7002012D01*
X50008896Y-7001869D01*
X49966411Y-7001703D01*
X49928537Y-7001513D01*
X49894995Y-7001297D01*
X49865507Y-7001054D01*
X49839798Y-7000781D01*
X49817589Y-7000476D01*
X49798603Y-7000140D01*
X49782562Y-6999768D01*
X49769190Y-6999361D01*
X49758208Y-6998916D01*
X49749340Y-6998431D01*
X49742308Y-6997905D01*
X49736834Y-6997336D01*
X49732642Y-6996723D01*
X49729454Y-6996064D01*
X49726992Y-6995357D01*
X49724980Y-6994601D01*
X49723139Y-6993793D01*
X49713522Y-6988830D01*
X49690427Y-6971644D01*
X49671241Y-6949907D01*
X49658324Y-6926083D01*
X49658026Y-6925280D01*
X49657321Y-6923221D01*
X49656656Y-6920854D01*
X49656032Y-6917928D01*
X49655446Y-6914189D01*
X49654898Y-6909385D01*
X49654386Y-6903264D01*
X49653909Y-6895574D01*
X49653466Y-6886062D01*
X49653055Y-6874476D01*
X49652675Y-6860563D01*
X49652326Y-6844071D01*
X49652005Y-6824747D01*
X49651712Y-6802339D01*
X49651445Y-6776596D01*
X49651203Y-6747263D01*
X49650985Y-6714090D01*
X49650790Y-6676823D01*
X49650616Y-6635210D01*
X49650462Y-6588999D01*
X49650327Y-6537938D01*
X49650210Y-6481773D01*
X49650109Y-6420253D01*
X49650023Y-6353125D01*
X49649951Y-6280137D01*
X49649892Y-6201036D01*
X49649845Y-6115571D01*
X49649807Y-6023488D01*
X49649779Y-5924535D01*
X49649758Y-5818460D01*
X49649744Y-5705011D01*
X49649744Y-5702414D01*
X50107160Y-5702414D01*
X50107182Y-5776718D01*
X50107241Y-5850641D01*
X50107337Y-5923667D01*
X50107469Y-5995279D01*
X50107638Y-6064963D01*
X50107843Y-6132202D01*
X50108084Y-6196480D01*
X50108362Y-6257282D01*
X50108676Y-6314090D01*
X50109026Y-6366390D01*
X50109412Y-6413665D01*
X50109833Y-6455400D01*
X50110291Y-6491077D01*
X50110784Y-6520183D01*
X50111312Y-6542199D01*
X50111876Y-6556611D01*
X50112476Y-6562903D01*
X50114106Y-6567722D01*
X50126894Y-6590075D01*
X50146899Y-6609627D01*
X50173044Y-6625274D01*
X50200307Y-6637861D01*
X50550085Y-6638497D01*
X50571377Y-6638529D01*
X50625405Y-6638556D01*
X50677063Y-6638503D01*
X50725654Y-6638375D01*
X50770483Y-6638178D01*
X50810854Y-6637917D01*
X50846069Y-6637596D01*
X50875434Y-6637220D01*
X50898250Y-6636795D01*
X50913823Y-6636326D01*
X50921456Y-6635818D01*
X50951132Y-6628183D01*
X50978287Y-6614501D01*
X50999955Y-6595869D01*
X51014881Y-6573124D01*
X51015798Y-6570855D01*
X51016664Y-6567935D01*
X51017455Y-6564058D01*
X51018174Y-6558858D01*
X51018825Y-6551970D01*
X51019411Y-6543028D01*
X51019936Y-6531666D01*
X51020403Y-6517519D01*
X51020815Y-6500221D01*
X51021176Y-6479406D01*
X51021490Y-6454708D01*
X51021758Y-6425762D01*
X51021986Y-6392203D01*
X51022176Y-6353663D01*
X51022331Y-6309779D01*
X51022450Y-6262607D01*
X51360581Y-6262607D01*
X51366897Y-6290973D01*
X51380037Y-6317245D01*
X51399828Y-6340153D01*
X51426097Y-6358427D01*
X51448283Y-6370129D01*
X51811017Y-6371069D01*
X51853499Y-6371171D01*
X51914847Y-6371279D01*
X51968404Y-6371314D01*
X52014692Y-6371268D01*
X52054233Y-6371135D01*
X52087546Y-6370907D01*
X52115153Y-6370579D01*
X52137576Y-6370143D01*
X52155334Y-6369593D01*
X52168950Y-6368921D01*
X52178943Y-6368121D01*
X52185836Y-6367186D01*
X52190149Y-6366110D01*
X52216349Y-6353289D01*
X52240644Y-6333492D01*
X52259183Y-6309006D01*
X52271018Y-6281109D01*
X52275206Y-6251081D01*
X52275175Y-6248026D01*
X52270549Y-6217817D01*
X52257905Y-6190248D01*
X52237005Y-6164783D01*
X52235094Y-6162896D01*
X52229063Y-6156831D01*
X52223565Y-6151518D01*
X52218027Y-6146907D01*
X52211875Y-6142948D01*
X52204537Y-6139593D01*
X52195439Y-6136790D01*
X52184009Y-6134492D01*
X52169673Y-6132647D01*
X52151858Y-6131208D01*
X52129991Y-6130123D01*
X52103500Y-6129344D01*
X52071810Y-6128820D01*
X52034350Y-6128503D01*
X51990545Y-6128343D01*
X51939823Y-6128290D01*
X51881611Y-6128294D01*
X51815335Y-6128307D01*
X51749291Y-6128300D01*
X51691206Y-6128310D01*
X51640615Y-6128382D01*
X51596946Y-6128559D01*
X51559628Y-6128886D01*
X51528088Y-6129409D01*
X51501756Y-6130171D01*
X51480059Y-6131217D01*
X51462426Y-6132592D01*
X51448284Y-6134340D01*
X51437063Y-6136507D01*
X51428191Y-6139136D01*
X51421096Y-6142272D01*
X51415206Y-6145960D01*
X51409949Y-6150244D01*
X51404755Y-6155169D01*
X51399050Y-6160780D01*
X51384318Y-6177640D01*
X51369118Y-6204671D01*
X51361263Y-6233416D01*
X51360581Y-6262607D01*
X51022450Y-6262607D01*
X51022456Y-6260184D01*
X51022553Y-6204512D01*
X51022626Y-6142397D01*
X51022678Y-6073475D01*
X51022712Y-5997378D01*
X51022733Y-5913743D01*
X51022743Y-5822202D01*
X51022745Y-5722390D01*
X51022745Y-5706771D01*
X51022742Y-5608275D01*
X51022732Y-5517995D01*
X51022711Y-5435563D01*
X51022676Y-5360615D01*
X51022623Y-5292784D01*
X51022549Y-5231705D01*
X51022451Y-5177011D01*
X51022324Y-5128336D01*
X51022174Y-5087127D01*
X51329583Y-5087127D01*
X51334277Y-5116730D01*
X51346504Y-5144880D01*
X51366258Y-5170238D01*
X51371205Y-5175106D01*
X51381015Y-5183918D01*
X51390839Y-5190902D01*
X51401756Y-5196270D01*
X51414844Y-5200233D01*
X51431179Y-5203001D01*
X51451839Y-5204787D01*
X51477902Y-5205801D01*
X51510445Y-5206254D01*
X51550546Y-5206358D01*
X51666355Y-5206358D01*
X51666450Y-5328349D01*
X51666454Y-5332814D01*
X51666542Y-5368187D01*
X51666768Y-5396123D01*
X51667195Y-5417698D01*
X51667885Y-5433991D01*
X51668900Y-5446079D01*
X51670302Y-5455041D01*
X51672154Y-5461954D01*
X51674519Y-5467895D01*
X51686401Y-5488411D01*
X51707115Y-5511444D01*
X51731804Y-5528411D01*
X51736381Y-5530606D01*
X51765737Y-5539647D01*
X51796161Y-5541259D01*
X51825246Y-5535265D01*
X51830205Y-5533411D01*
X51856649Y-5519543D01*
X51877401Y-5500338D01*
X51894144Y-5474306D01*
X51908178Y-5446841D01*
X51908178Y-5326843D01*
X51908178Y-5206845D01*
X52032328Y-5205522D01*
X52062232Y-5205186D01*
X52092183Y-5204760D01*
X52115435Y-5204244D01*
X52133061Y-5203556D01*
X52146129Y-5202616D01*
X52155712Y-5201341D01*
X52162880Y-5199649D01*
X52168704Y-5197459D01*
X52174254Y-5194690D01*
X52186637Y-5187322D01*
X52211885Y-5166127D01*
X52230177Y-5140884D01*
X52241095Y-5112526D01*
X52244221Y-5081988D01*
X52239135Y-5050201D01*
X52234045Y-5036797D01*
X52219616Y-5012970D01*
X52200364Y-4991830D01*
X52178623Y-4976231D01*
X52174203Y-4973988D01*
X52168450Y-4971672D01*
X52161520Y-4969855D01*
X52152349Y-4968449D01*
X52139870Y-4967367D01*
X52123018Y-4966521D01*
X52100727Y-4965826D01*
X52071932Y-4965193D01*
X52035567Y-4964536D01*
X51910337Y-4962377D01*
X51908178Y-4839306D01*
X51907751Y-4815882D01*
X51906962Y-4781455D01*
X51905933Y-4753965D01*
X51904456Y-4732331D01*
X51902322Y-4715476D01*
X51899322Y-4702321D01*
X51895249Y-4691788D01*
X51889893Y-4682797D01*
X51883047Y-4674271D01*
X51874501Y-4665131D01*
X51868615Y-4659315D01*
X51846901Y-4642963D01*
X51822654Y-4633120D01*
X51793387Y-4628667D01*
X51788829Y-4628395D01*
X51770763Y-4628266D01*
X51756641Y-4630482D01*
X51742719Y-4635552D01*
X51742594Y-4635608D01*
X51716301Y-4649891D01*
X51696488Y-4667165D01*
X51681086Y-4689228D01*
X51668515Y-4711918D01*
X51666355Y-4837147D01*
X51664196Y-4962377D01*
X51538967Y-4964536D01*
X51511891Y-4965023D01*
X51478136Y-4965797D01*
X51451239Y-4966813D01*
X51430135Y-4968274D01*
X51413760Y-4970385D01*
X51401052Y-4973351D01*
X51390945Y-4977375D01*
X51382378Y-4982662D01*
X51374285Y-4989417D01*
X51365603Y-4997844D01*
X51360743Y-5002975D01*
X51342811Y-5028911D01*
X51332425Y-5057408D01*
X51329583Y-5087127D01*
X51022174Y-5087127D01*
X51022167Y-5085315D01*
X51021974Y-5047581D01*
X51021743Y-5014769D01*
X51021471Y-4986513D01*
X51021153Y-4962446D01*
X51020786Y-4942203D01*
X51020368Y-4925417D01*
X51019894Y-4911724D01*
X51019361Y-4900755D01*
X51018765Y-4892147D01*
X51018104Y-4885533D01*
X51017373Y-4880546D01*
X51016570Y-4876821D01*
X51015690Y-4873992D01*
X51014731Y-4871693D01*
X51003133Y-4853019D01*
X50982350Y-4832750D01*
X50956002Y-4817163D01*
X50954731Y-4816603D01*
X50944353Y-4812695D01*
X50932913Y-4809906D01*
X50918520Y-4807973D01*
X50899277Y-4806631D01*
X50873293Y-4805615D01*
X50812175Y-4803698D01*
X50810560Y-4729739D01*
X50809901Y-4704151D01*
X50808988Y-4682357D01*
X50807721Y-4666242D01*
X50805923Y-4654243D01*
X50803418Y-4644799D01*
X50800030Y-4636348D01*
X50799314Y-4634806D01*
X50784804Y-4610254D01*
X50766247Y-4591472D01*
X50741385Y-4576143D01*
X50714959Y-4562938D01*
X50565589Y-4562980D01*
X50561388Y-4562981D01*
X50522307Y-4563008D01*
X50490793Y-4563102D01*
X50465873Y-4563320D01*
X50446572Y-4563723D01*
X50431916Y-4564368D01*
X50420929Y-4565315D01*
X50412637Y-4566620D01*
X50406066Y-4568344D01*
X50400241Y-4570545D01*
X50394187Y-4573281D01*
X50373074Y-4585652D01*
X50350308Y-4606178D01*
X50333899Y-4630288D01*
X50333596Y-4630907D01*
X50330584Y-4638257D01*
X50328346Y-4647055D01*
X50326734Y-4658739D01*
X50325603Y-4674745D01*
X50324805Y-4696513D01*
X50324194Y-4725479D01*
X50322853Y-4803813D01*
X50261580Y-4805843D01*
X50235884Y-4806981D01*
X50211336Y-4808984D01*
X50192806Y-4811826D01*
X50178867Y-4815675D01*
X50170682Y-4819225D01*
X50151665Y-4831279D01*
X50134082Y-4847025D01*
X50120169Y-4864276D01*
X50112165Y-4880845D01*
X50111887Y-4882761D01*
X50111307Y-4892990D01*
X50110766Y-4911093D01*
X50110263Y-4936555D01*
X50109798Y-4968860D01*
X50109372Y-5007491D01*
X50108983Y-5051932D01*
X50108632Y-5101668D01*
X50108319Y-5156183D01*
X50108043Y-5214960D01*
X50107805Y-5277484D01*
X50107604Y-5343239D01*
X50107441Y-5411708D01*
X50107315Y-5482376D01*
X50107227Y-5554728D01*
X50107175Y-5628245D01*
X50107160Y-5702414D01*
X49649744Y-5702414D01*
X49649736Y-5583934D01*
X49649731Y-5454979D01*
X49649729Y-5317891D01*
X49649728Y-5172420D01*
X49649728Y-5156584D01*
X49649731Y-5011509D01*
X49649737Y-4874794D01*
X49649748Y-4746189D01*
X49649766Y-4625445D01*
X49649790Y-4512310D01*
X49649823Y-4406534D01*
X49649866Y-4307869D01*
X49649918Y-4216063D01*
X49649982Y-4130867D01*
X49650059Y-4052030D01*
X49650149Y-3979303D01*
X49650253Y-3912436D01*
X49650373Y-3851178D01*
X49650509Y-3795279D01*
X49650663Y-3744489D01*
X49650673Y-3741758D01*
X49956017Y-3741758D01*
X49957251Y-3956947D01*
X49957271Y-3960524D01*
X49957556Y-4008603D01*
X49957833Y-4048865D01*
X49958140Y-4082074D01*
X49958510Y-4108996D01*
X49958979Y-4130398D01*
X49959584Y-4147044D01*
X49960358Y-4159702D01*
X49961338Y-4169137D01*
X49962558Y-4176114D01*
X49964055Y-4181400D01*
X49965864Y-4185761D01*
X49968020Y-4189962D01*
X49977888Y-4204670D01*
X49995778Y-4223430D01*
X50016548Y-4239240D01*
X50037221Y-4249540D01*
X50039725Y-4250214D01*
X50043557Y-4250876D01*
X50048912Y-4251488D01*
X50056099Y-4252053D01*
X50065428Y-4252572D01*
X50077208Y-4253047D01*
X50091749Y-4253479D01*
X50109360Y-4253871D01*
X50130349Y-4254223D01*
X50155027Y-4254539D01*
X50183702Y-4254819D01*
X50216684Y-4255065D01*
X50254282Y-4255280D01*
X50296805Y-4255464D01*
X50344563Y-4255620D01*
X50397865Y-4255749D01*
X50457020Y-4255853D01*
X50522337Y-4255934D01*
X50594126Y-4255994D01*
X50672695Y-4256034D01*
X50758355Y-4256056D01*
X50851415Y-4256062D01*
X50952183Y-4256054D01*
X51060969Y-4256033D01*
X51178082Y-4256001D01*
X51184236Y-4255999D01*
X51301520Y-4255958D01*
X51410487Y-4255910D01*
X51511439Y-4255852D01*
X51604679Y-4255783D01*
X51690511Y-4255700D01*
X51769237Y-4255603D01*
X51841162Y-4255490D01*
X51906588Y-4255357D01*
X51965819Y-4255205D01*
X52019158Y-4255030D01*
X52066907Y-4254832D01*
X52109371Y-4254608D01*
X52146852Y-4254357D01*
X52179654Y-4254076D01*
X52208079Y-4253765D01*
X52232432Y-4253420D01*
X52253015Y-4253041D01*
X52270131Y-4252626D01*
X52284084Y-4252173D01*
X52295177Y-4251679D01*
X52303713Y-4251144D01*
X52309996Y-4250565D01*
X52314328Y-4249941D01*
X52317012Y-4249270D01*
X52334240Y-4240613D01*
X52353938Y-4225878D01*
X52371641Y-4208144D01*
X52384447Y-4189962D01*
X52384605Y-4189665D01*
X52386736Y-4185478D01*
X52388522Y-4181078D01*
X52389999Y-4175701D01*
X52391202Y-4168581D01*
X52392167Y-4158951D01*
X52392929Y-4146046D01*
X52393523Y-4129100D01*
X52393984Y-4107347D01*
X52394349Y-4080021D01*
X52394652Y-4046356D01*
X52394929Y-4005587D01*
X52395216Y-3956947D01*
X52396449Y-3741758D01*
X52386176Y-3719442D01*
X52374628Y-3699206D01*
X52352872Y-3675501D01*
X52324890Y-3657776D01*
X52303299Y-3647551D01*
X51176233Y-3647551D01*
X50049167Y-3647551D01*
X50027486Y-3657648D01*
X50006911Y-3669570D01*
X49983521Y-3691446D01*
X49966245Y-3719416D01*
X49956017Y-3741758D01*
X49650673Y-3741758D01*
X49650835Y-3698559D01*
X49651028Y-3657238D01*
X49651240Y-3620276D01*
X49651475Y-3587423D01*
X49651732Y-3558429D01*
X49652013Y-3533044D01*
X49652319Y-3511018D01*
X49652650Y-3492101D01*
X49653009Y-3476042D01*
X49653395Y-3462593D01*
X49653810Y-3451502D01*
X49654255Y-3442519D01*
X49654732Y-3435395D01*
X49655240Y-3429880D01*
X49655781Y-3425723D01*
X49656357Y-3422675D01*
X49656967Y-3420485D01*
X49658272Y-3416979D01*
X49670245Y-3395817D01*
X49687735Y-3375631D01*
X49708261Y-3358901D01*
X49729343Y-3348109D01*
X49729524Y-3348048D01*
X49731970Y-3347381D01*
X49735319Y-3346757D01*
X49739847Y-3346173D01*
X49745829Y-3345629D01*
X49753544Y-3345123D01*
X49763266Y-3344654D01*
X49775271Y-3344221D01*
X49789837Y-3343822D01*
X49807239Y-3343455D01*
X49827753Y-3343120D01*
X49851656Y-3342815D01*
X49879223Y-3342538D01*
X49910732Y-3342289D01*
X49946458Y-3342065D01*
X49986677Y-3341866D01*
X50031666Y-3341690D01*
X50081701Y-3341536D01*
X50137058Y-3341402D01*
X50198013Y-3341286D01*
X50264842Y-3341189D01*
X50337823Y-3341107D01*
X50417230Y-3341040D01*
X50503340Y-3340987D01*
X50596429Y-3340946D01*
X50696774Y-3340915D01*
X50804651Y-3340893D01*
X50920335Y-3340880D01*
X51044104Y-3340873D01*
X51176233Y-3340871D01*
X51188216Y-3340871D01*
X51319597Y-3340873D01*
X51442642Y-3340881D01*
X51557628Y-3340895D01*
X51664830Y-3340917D01*
X51764525Y-3340949D01*
X51856988Y-3340991D01*
X51942497Y-3341046D01*
X52021327Y-3341114D01*
X52093754Y-3341197D01*
X52160055Y-3341296D01*
X52220506Y-3341413D01*
X52275383Y-3341549D01*
X52324962Y-3341705D01*
X52369520Y-3341883D01*
X52409332Y-3342084D01*
X52444675Y-3342310D01*
X52475826Y-3342562D01*
X52503059Y-3342841D01*
X52526652Y-3343148D01*
X52546881Y-3343486D01*
X52564022Y-3343856D01*
X52578351Y-3344258D01*
X52590145Y-3344694D01*
X52599679Y-3345166D01*
X52607229Y-3345675D01*
X52613073Y-3346223D01*
X52617486Y-3346810D01*
X52620744Y-3347438D01*
X52623124Y-3348109D01*
X52626629Y-3349414D01*
X52647791Y-3361387D01*
X52667977Y-3378877D01*
X52684707Y-3399403D01*
X52695499Y-3420485D01*
X52695565Y-3420683D01*
X52696172Y-3422952D01*
X52696744Y-3426106D01*
X52697281Y-3430395D01*
X52697786Y-3436068D01*
X52698259Y-3443377D01*
X52698701Y-3452570D01*
X52699113Y-3463899D01*
X52699497Y-3477612D01*
X52699852Y-3493961D01*
X52700181Y-3513195D01*
X52700484Y-3535565D01*
X52700762Y-3561319D01*
X52701017Y-3590709D01*
X52701249Y-3623985D01*
X52701460Y-3661396D01*
X52701650Y-3703192D01*
X52701791Y-3741758D01*
X52701820Y-3749625D01*
G37*
%TO.C,J2*%
X12800000Y-25300000D02*
X28200000Y-25300000D01*
X28200000Y-25300000D02*
X28200000Y-33700000D01*
X28200000Y-33700000D02*
X12800000Y-33700000D01*
X12800000Y-33700000D02*
X12800000Y-25300000D01*
%TD*%
M02*
