%TF.GenerationSoftware,KiCad,Pcbnew,7.0.10*%
%TF.CreationDate,2024-04-17T20:08:46+10:00*%
%TF.ProjectId,cphp82001-pcb,63706870-3832-4303-9031-2d7063622e6b,3.1*%
%TF.SameCoordinates,Original*%
%TF.FileFunction,Copper,L1,Top*%
%TF.FilePolarity,Positive*%
%FSLAX46Y46*%
G04 Gerber Fmt 4.6, Leading zero omitted, Abs format (unit mm)*
G04 Created by KiCad (PCBNEW 7.0.10) date 2024-04-17 20:08:46*
%MOMM*%
%LPD*%
G01*
G04 APERTURE LIST*
G04 Aperture macros list*
%AMRoundRect*
0 Rectangle with rounded corners*
0 $1 Rounding radius*
0 $2 $3 $4 $5 $6 $7 $8 $9 X,Y pos of 4 corners*
0 Add a 4 corners polygon primitive as box body*
4,1,4,$2,$3,$4,$5,$6,$7,$8,$9,$2,$3,0*
0 Add four circle primitives for the rounded corners*
1,1,$1+$1,$2,$3*
1,1,$1+$1,$4,$5*
1,1,$1+$1,$6,$7*
1,1,$1+$1,$8,$9*
0 Add four rect primitives between the rounded corners*
20,1,$1+$1,$2,$3,$4,$5,0*
20,1,$1+$1,$4,$5,$6,$7,0*
20,1,$1+$1,$6,$7,$8,$9,0*
20,1,$1+$1,$8,$9,$2,$3,0*%
G04 Aperture macros list end*
%TA.AperFunction,SMDPad,CuDef*%
%ADD10RoundRect,0.150000X-0.587500X-0.150000X0.587500X-0.150000X0.587500X0.150000X-0.587500X0.150000X0*%
%TD*%
%TA.AperFunction,SMDPad,CuDef*%
%ADD11RoundRect,0.050000X-0.500000X-0.250000X0.500000X-0.250000X0.500000X0.250000X-0.500000X0.250000X0*%
%TD*%
%TA.AperFunction,SMDPad,CuDef*%
%ADD12RoundRect,0.250000X-0.650000X1.000000X-0.650000X-1.000000X0.650000X-1.000000X0.650000X1.000000X0*%
%TD*%
%TA.AperFunction,SMDPad,CuDef*%
%ADD13RoundRect,0.250000X-0.250000X-0.475000X0.250000X-0.475000X0.250000X0.475000X-0.250000X0.475000X0*%
%TD*%
%TA.AperFunction,SMDPad,CuDef*%
%ADD14RoundRect,0.243750X0.243750X0.456250X-0.243750X0.456250X-0.243750X-0.456250X0.243750X-0.456250X0*%
%TD*%
%TA.AperFunction,SMDPad,CuDef*%
%ADD15RoundRect,0.250000X-0.475000X0.250000X-0.475000X-0.250000X0.475000X-0.250000X0.475000X0.250000X0*%
%TD*%
%TA.AperFunction,SMDPad,CuDef*%
%ADD16RoundRect,0.050000X0.250000X-0.500000X0.250000X0.500000X-0.250000X0.500000X-0.250000X-0.500000X0*%
%TD*%
%TA.AperFunction,SMDPad,CuDef*%
%ADD17R,1.350000X0.400000*%
%TD*%
%TA.AperFunction,ComponentPad*%
%ADD18O,0.800000X1.600000*%
%TD*%
%TA.AperFunction,ComponentPad*%
%ADD19O,1.550000X0.750000*%
%TD*%
%TA.AperFunction,SMDPad,CuDef*%
%ADD20R,1.550000X1.300000*%
%TD*%
%TA.AperFunction,SMDPad,CuDef*%
%ADD21R,1.550000X1.500000*%
%TD*%
%TA.AperFunction,SMDPad,CuDef*%
%ADD22RoundRect,0.250000X0.450000X-0.262500X0.450000X0.262500X-0.450000X0.262500X-0.450000X-0.262500X0*%
%TD*%
%TA.AperFunction,SMDPad,CuDef*%
%ADD23RoundRect,0.250000X-0.262500X-0.450000X0.262500X-0.450000X0.262500X0.450000X-0.262500X0.450000X0*%
%TD*%
%TA.AperFunction,SMDPad,CuDef*%
%ADD24RoundRect,0.150000X-0.512500X-0.150000X0.512500X-0.150000X0.512500X0.150000X-0.512500X0.150000X0*%
%TD*%
%TA.AperFunction,SMDPad,CuDef*%
%ADD25RoundRect,0.200000X0.200000X0.275000X-0.200000X0.275000X-0.200000X-0.275000X0.200000X-0.275000X0*%
%TD*%
%TA.AperFunction,SMDPad,CuDef*%
%ADD26RoundRect,0.050000X0.500000X0.250000X-0.500000X0.250000X-0.500000X-0.250000X0.500000X-0.250000X0*%
%TD*%
%TA.AperFunction,SMDPad,CuDef*%
%ADD27RoundRect,0.150000X0.512500X0.150000X-0.512500X0.150000X-0.512500X-0.150000X0.512500X-0.150000X0*%
%TD*%
%TA.AperFunction,SMDPad,CuDef*%
%ADD28RoundRect,0.250000X0.262500X0.450000X-0.262500X0.450000X-0.262500X-0.450000X0.262500X-0.450000X0*%
%TD*%
%TA.AperFunction,SMDPad,CuDef*%
%ADD29RoundRect,0.150000X-0.625000X0.150000X-0.625000X-0.150000X0.625000X-0.150000X0.625000X0.150000X0*%
%TD*%
%TA.AperFunction,SMDPad,CuDef*%
%ADD30RoundRect,0.250000X-0.650000X0.350000X-0.650000X-0.350000X0.650000X-0.350000X0.650000X0.350000X0*%
%TD*%
%TA.AperFunction,SMDPad,CuDef*%
%ADD31RoundRect,0.225000X0.225000X0.375000X-0.225000X0.375000X-0.225000X-0.375000X0.225000X-0.375000X0*%
%TD*%
%TA.AperFunction,SMDPad,CuDef*%
%ADD32RoundRect,0.250000X-0.450000X0.262500X-0.450000X-0.262500X0.450000X-0.262500X0.450000X0.262500X0*%
%TD*%
%TA.AperFunction,ViaPad*%
%ADD33C,0.800000*%
%TD*%
%TA.AperFunction,ViaPad*%
%ADD34C,1.200000*%
%TD*%
%TA.AperFunction,Conductor*%
%ADD35C,0.600000*%
%TD*%
%TA.AperFunction,Conductor*%
%ADD36C,0.250000*%
%TD*%
%TA.AperFunction,Conductor*%
%ADD37C,0.400000*%
%TD*%
%TA.AperFunction,Conductor*%
%ADD38C,0.800000*%
%TD*%
G04 APERTURE END LIST*
D10*
%TO.P,Q2,1,G*%
%TO.N,/PASSG*%
X33687500Y-1950000D03*
%TO.P,Q2,2,S*%
%TO.N,/VOUT*%
X33687500Y-3850000D03*
%TO.P,Q2,3,D*%
%TO.N,/VCC*%
X35562500Y-2900000D03*
%TD*%
D11*
%TO.P,U7,1,OUT*%
%TO.N,/VOUTF*%
X29225000Y-6400000D03*
%TO.P,U7,2,GND*%
%TO.N,/GND*%
X29225000Y-7350000D03*
%TO.P,U7,3,~{OC}*%
%TO.N,Net-(U7-~{OC})*%
X29225000Y-8300000D03*
%TO.P,U7,4,EN*%
%TO.N,/VOUT*%
X31825000Y-8300000D03*
%TO.P,U7,5,IN*%
X31825000Y-6400000D03*
%TD*%
D12*
%TO.P,D2,1,K*%
%TO.N,/VOUTF*%
X24800000Y-3600000D03*
%TO.P,D2,2,A*%
%TO.N,/GND*%
X24800000Y-7600000D03*
%TD*%
D13*
%TO.P,C5,1*%
%TO.N,/B+*%
X46250000Y-5900000D03*
%TO.P,C5,2*%
%TO.N,/GND*%
X48150000Y-5900000D03*
%TD*%
D14*
%TO.P,D3,1,K*%
%TO.N,/CHG*%
X16337500Y-7950000D03*
%TO.P,D3,2,A*%
%TO.N,/LCHG*%
X14462500Y-7950000D03*
%TD*%
D11*
%TO.P,U6,1,IN*%
%TO.N,/VBUS1*%
X7625000Y-4250000D03*
%TO.P,U6,2,GND*%
%TO.N,/GND*%
X7625000Y-5200000D03*
%TO.P,U6,3,~{EN}*%
X7625000Y-6150000D03*
%TO.P,U6,4,~{FLAG}*%
%TO.N,unconnected-(U6-~{FLAG}-Pad4)*%
X10225000Y-6150000D03*
%TO.P,U6,5,OUT*%
%TO.N,/VBUS*%
X10225000Y-4250000D03*
%TD*%
D15*
%TO.P,C7,1*%
%TO.N,/VOUTF*%
X27500000Y-2850000D03*
%TO.P,C7,2*%
%TO.N,/GND*%
X27500000Y-4750000D03*
%TD*%
D13*
%TO.P,C6,1*%
%TO.N,/VBUS1*%
X7600000Y-7950000D03*
%TO.P,C6,2*%
%TO.N,/GND*%
X9500000Y-7950000D03*
%TD*%
D16*
%TO.P,U1,1,TS*%
%TO.N,/TS*%
X18025000Y-7500000D03*
%TO.P,U1,2,VOUT*%
%TO.N,/B+*%
X18975000Y-7500000D03*
%TO.P,U1,3,~{CHG}*%
%TO.N,/CHG*%
X19925000Y-7500000D03*
%TO.P,U1,4,ISET*%
%TO.N,/PROG*%
X19925000Y-4900000D03*
%TO.P,U1,5,GND*%
%TO.N,/GND*%
X18975000Y-4900000D03*
%TO.P,U1,6,VIN*%
%TO.N,/VCC*%
X18025000Y-4900000D03*
%TD*%
D17*
%TO.P,J1,1,1*%
%TO.N,/VBUS1*%
X5375000Y-3850000D03*
%TO.P,J1,2,2*%
%TO.N,unconnected-(J1-Pad2)*%
X5375000Y-4500000D03*
%TO.P,J1,3,3*%
%TO.N,unconnected-(J1-Pad3)*%
X5375000Y-5150000D03*
%TO.P,J1,4,4*%
%TO.N,unconnected-(J1-Pad4)*%
X5375000Y-5800000D03*
%TO.P,J1,5,5*%
%TO.N,/GND*%
X5375000Y-6450000D03*
D18*
%TO.P,J1,S1,SHIELD*%
X5400000Y-2650000D03*
%TO.P,J1,S2,SHIELD__1*%
X5400000Y-7650000D03*
D19*
%TO.P,J1,S3,SHIELD__2*%
X2700000Y-1625000D03*
D20*
X2700000Y-2250000D03*
D21*
%TO.P,J1,S4,SHIELD__3*%
X2700000Y-4150000D03*
%TO.P,J1,S5,SHIELD__4*%
X2700000Y-6150000D03*
D20*
%TO.P,J1,S6,SHIELD__5*%
X2700000Y-8050000D03*
D19*
X2700000Y-8675000D03*
%TD*%
D22*
%TO.P,R1,1*%
%TO.N,/PROG2*%
X21900000Y-4725000D03*
%TO.P,R1,2*%
%TO.N,/PROG*%
X21900000Y-2900000D03*
%TD*%
%TO.P,R8,1*%
%TO.N,/GND*%
X21900000Y-8212500D03*
%TO.P,R8,2*%
%TO.N,/PROG2*%
X21900000Y-6387500D03*
%TD*%
D23*
%TO.P,R13,1*%
%TO.N,/GND*%
X46287500Y-8000000D03*
%TO.P,R13,2*%
%TO.N,/TS*%
X48112500Y-8000000D03*
%TD*%
D24*
%TO.P,U5,1,GND*%
%TO.N,/GND*%
X46062500Y-1950000D03*
%TO.P,U5,2,~{RESET}*%
%TO.N,/EN*%
X46062500Y-3850000D03*
%TO.P,U5,3,VCC*%
%TO.N,/B+*%
X48337500Y-2900000D03*
%TD*%
D13*
%TO.P,C3,1*%
%TO.N,/VREG*%
X41650000Y-7900000D03*
%TO.P,C3,2*%
%TO.N,/GND*%
X43550000Y-7900000D03*
%TD*%
D25*
%TO.P,JP1,1,A*%
%TO.N,/VREG*%
X37525000Y-8300000D03*
%TO.P,JP1,2,B*%
%TO.N,/VOUT*%
X35875000Y-8300000D03*
%TD*%
D10*
%TO.P,Q1,1,G*%
%TO.N,/VBUS*%
X12025000Y-4250000D03*
%TO.P,Q1,2,S*%
%TO.N,/GND*%
X12025000Y-6150000D03*
%TO.P,Q1,3,D*%
%TO.N,/PROG2*%
X13900000Y-5200000D03*
%TD*%
D25*
%TO.P,JP2,1,A*%
%TO.N,/VOUT*%
X31350000Y-5400000D03*
%TO.P,JP2,2,B*%
%TO.N,/VOUTF*%
X29700000Y-5400000D03*
%TD*%
D26*
%TO.P,U3,1,VDD*%
%TO.N,/VREG*%
X38000000Y-7300000D03*
%TO.P,U3,2,GND*%
%TO.N,/GND*%
X38000000Y-6350000D03*
%TO.P,U3,3,EN*%
%TO.N,/EN*%
X38000000Y-5400000D03*
%TO.P,U3,4,NC*%
%TO.N,unconnected-(U3-NC-Pad4)*%
X35400000Y-5400000D03*
%TO.P,U3,5,OUT*%
%TO.N,/VOUT*%
X35400000Y-7300000D03*
%TD*%
D27*
%TO.P,U4,1,GND*%
%TO.N,/GND*%
X31700000Y-3850000D03*
%TO.P,U4,2,RESET*%
%TO.N,/PASSG*%
X31700000Y-1950000D03*
%TO.P,U4,3,VCC*%
%TO.N,/VOUTF*%
X29425000Y-2900000D03*
%TD*%
D15*
%TO.P,C4,1*%
%TO.N,/VOUT*%
X33625000Y-6300000D03*
%TO.P,C4,2*%
%TO.N,/GND*%
X33625000Y-8200000D03*
%TD*%
D28*
%TO.P,R2,1*%
%TO.N,/LCHG*%
X12912500Y-7950000D03*
%TO.P,R2,2*%
%TO.N,/VCC*%
X11087500Y-7950000D03*
%TD*%
D23*
%TO.P,R5,1*%
%TO.N,/ADJ*%
X41487500Y-2200000D03*
%TO.P,R5,2*%
%TO.N,/GND*%
X43312500Y-2200000D03*
%TD*%
D29*
%TO.P,BT1,1,Pin_1*%
%TO.N,/B+*%
X50675000Y-3800000D03*
%TO.P,BT1,2,Pin_2*%
%TO.N,/TS*%
X50675000Y-4800000D03*
%TO.P,BT1,3,Pin_3*%
%TO.N,/GND*%
X50675000Y-5800000D03*
D30*
%TO.P,BT1,MP*%
%TO.N,N/C*%
X53200000Y-2500000D03*
X53200000Y-7100000D03*
%TD*%
D22*
%TO.P,R4,1*%
%TO.N,/VREG*%
X39812500Y-5925000D03*
%TO.P,R4,2*%
%TO.N,/ADJ*%
X39812500Y-4100000D03*
%TD*%
D26*
%TO.P,U2,1,IN*%
%TO.N,/B+*%
X44200000Y-5950000D03*
%TO.P,U2,2,GND*%
%TO.N,/GND*%
X44200000Y-5000000D03*
%TO.P,U2,3,EN*%
%TO.N,/EN*%
X44200000Y-4050000D03*
%TO.P,U2,4,ADJ*%
%TO.N,/ADJ*%
X41600000Y-4050000D03*
%TO.P,U2,5,OUT*%
%TO.N,/VREG*%
X41600000Y-5950000D03*
%TD*%
D23*
%TO.P,R9,1*%
%TO.N,/GND*%
X8450000Y-2250000D03*
%TO.P,R9,2*%
%TO.N,/VBUS*%
X10275000Y-2250000D03*
%TD*%
D31*
%TO.P,D1,1,K*%
%TO.N,/VCC*%
X15400000Y-2250000D03*
%TO.P,D1,2,A*%
%TO.N,/VBUS*%
X12100000Y-2250000D03*
%TD*%
D32*
%TO.P,R3,1*%
%TO.N,/GND*%
X27500000Y-6375000D03*
%TO.P,R3,2*%
%TO.N,Net-(U7-~{OC})*%
X27500000Y-8200000D03*
%TD*%
D15*
%TO.P,C1,1*%
%TO.N,/VCC*%
X16125000Y-4300000D03*
%TO.P,C1,2*%
%TO.N,/GND*%
X16125000Y-6200000D03*
%TD*%
D33*
%TO.N,/GND*%
X5000000Y-32500000D03*
X5000000Y-22000000D03*
X17900000Y-6150000D03*
X49200000Y-5800000D03*
X19000000Y-6150000D03*
X43000000Y-4000000D03*
X2500000Y-42000000D03*
X5000000Y-13500000D03*
X43000000Y-6000000D03*
X19100000Y-3550000D03*
X30600000Y-3900000D03*
X36700000Y-5300000D03*
X51000000Y-15000000D03*
X16800000Y-2900000D03*
X9550000Y-9600000D03*
X53250000Y-5650000D03*
X51000000Y-42000000D03*
X20200000Y-2900000D03*
X43000000Y-5000000D03*
X23250000Y-7500000D03*
X36000000Y-40500000D03*
X49200000Y-6900000D03*
X45200000Y-5000000D03*
X36700000Y-6200000D03*
X20000000Y-40500000D03*
X51000000Y-22000000D03*
X11000000Y-5200000D03*
X51000000Y-30000000D03*
X36700000Y-4400000D03*
X17900000Y-2900000D03*
X47400000Y-9400000D03*
X20050000Y-6150000D03*
X23250000Y-8900000D03*
%TO.N,/CHG*%
X19925000Y-8600000D03*
X16400000Y-9100000D03*
%TO.N,/EN*%
X37800000Y-3900000D03*
X44600000Y-2900000D03*
%TO.N,/PROG2*%
X14000000Y-4350000D03*
X23100000Y-3800000D03*
%TO.N,/TS*%
X50100000Y-8100000D03*
X18075000Y-9250000D03*
D34*
%TO.N,/VOUTF*%
X30000000Y-10200000D03*
%TD*%
D35*
%TO.N,/B+*%
X45950000Y-5950000D02*
X46000000Y-6000000D01*
X44200000Y-5950000D02*
X45950000Y-5950000D01*
X18975000Y-10425000D02*
X20750000Y-12200000D01*
X45250000Y-6000000D02*
X45300000Y-5950000D01*
X43700000Y-12200000D02*
X45250000Y-10650000D01*
X48350000Y-3800000D02*
X48350000Y-2912500D01*
X50675000Y-3800000D02*
X48350000Y-3800000D01*
X45300000Y-5950000D02*
X45950000Y-5950000D01*
X20750000Y-12200000D02*
X43700000Y-12200000D01*
X48350000Y-3800000D02*
X48200000Y-3800000D01*
X45250000Y-10650000D02*
X45250000Y-6000000D01*
X48350000Y-2912500D02*
X48337500Y-2900000D01*
X48200000Y-3800000D02*
X46000000Y-6000000D01*
X18975000Y-7500000D02*
X18975000Y-10425000D01*
%TO.N,/VCC*%
X35562500Y-2900000D02*
X31064106Y-2900000D01*
D36*
X14575000Y-6925000D02*
X11975000Y-6925000D01*
X15900000Y-4300000D02*
X15075000Y-5125000D01*
X15075000Y-5125000D02*
X15075000Y-6425000D01*
D35*
X31064106Y-2900000D02*
X29964106Y-1800000D01*
X15850000Y-1800000D02*
X15400000Y-2250000D01*
X29964106Y-1800000D02*
X15850000Y-1800000D01*
D36*
X11975000Y-6925000D02*
X11087500Y-7812500D01*
X15075000Y-6425000D02*
X14575000Y-6925000D01*
%TO.N,/CHG*%
X19925000Y-8600000D02*
X19925000Y-7500000D01*
X16400000Y-9100000D02*
X16400000Y-8012500D01*
D37*
%TO.N,/LCHG*%
X12912500Y-7950000D02*
X14462500Y-7950000D01*
D36*
%TO.N,/PROG*%
X19925000Y-4775000D02*
X21800000Y-2900000D01*
%TO.N,/EN*%
X44200000Y-4050000D02*
X44950000Y-4050000D01*
X44200000Y-4050000D02*
X44200000Y-3300000D01*
X44950000Y-4050000D02*
X45150000Y-3850000D01*
X45150000Y-3850000D02*
X46062500Y-3850000D01*
X44200000Y-3300000D02*
X44600000Y-2900000D01*
X37800000Y-3900000D02*
X37800000Y-5375000D01*
%TO.N,/ADJ*%
X41600000Y-4050000D02*
X41600000Y-2312500D01*
X41600000Y-4050000D02*
X39862500Y-4050000D01*
D37*
%TO.N,/PROG2*%
X21900000Y-6387500D02*
X21900000Y-4725000D01*
D36*
X23050000Y-3800000D02*
X22125000Y-4725000D01*
X14000000Y-5200000D02*
X14000000Y-4350000D01*
X23100000Y-3800000D02*
X23050000Y-3800000D01*
%TO.N,/TS*%
X50100000Y-8100000D02*
X51200000Y-8100000D01*
X18075000Y-9250000D02*
X18025000Y-9200000D01*
X51200000Y-8100000D02*
X51775000Y-7525000D01*
X51775000Y-7525000D02*
X51775000Y-5449092D01*
X18025000Y-9200000D02*
X18025000Y-7500000D01*
X48512500Y-8100000D02*
X51200000Y-8100000D01*
X51775000Y-5449092D02*
X51125908Y-4800000D01*
D37*
%TO.N,/VBUS1*%
X8700000Y-6700000D02*
X7600000Y-7800000D01*
X8700000Y-4600000D02*
X8700000Y-6700000D01*
X6750000Y-4250000D02*
X8350000Y-4250000D01*
X8350000Y-4250000D02*
X8700000Y-4600000D01*
X6350000Y-3850000D02*
X6750000Y-4250000D01*
X5375000Y-3850000D02*
X6350000Y-3850000D01*
D38*
%TO.N,/VOUTF*%
X30375000Y-9825000D02*
X30375000Y-6829376D01*
X30000000Y-10200000D02*
X30375000Y-9825000D01*
X29945624Y-6400000D02*
X29225000Y-6400000D01*
X30375000Y-6829376D02*
X29945624Y-6400000D01*
D36*
%TO.N,/PASSG*%
X31700000Y-1950000D02*
X33687500Y-1950000D01*
%TO.N,Net-(U7-~{OC})*%
X29225000Y-8300000D02*
X27600000Y-8300000D01*
%TD*%
%TA.AperFunction,Conductor*%
%TO.N,/VCC*%
G36*
X15861980Y-1502383D02*
G01*
X15921480Y-1514218D01*
X15966175Y-1532730D01*
X16006272Y-1559522D01*
X16040477Y-1593727D01*
X16067267Y-1633822D01*
X16085781Y-1678517D01*
X16089542Y-1697427D01*
X16097617Y-1738019D01*
X16100000Y-1762210D01*
X16100000Y-3600000D01*
X18237789Y-3600000D01*
X18261980Y-3602383D01*
X18321480Y-3614218D01*
X18366175Y-3632730D01*
X18406272Y-3659522D01*
X18440477Y-3693727D01*
X18467267Y-3733822D01*
X18485781Y-3778517D01*
X18497617Y-3838022D01*
X18500000Y-3862210D01*
X18500000Y-4251119D01*
X18490563Y-4298568D01*
X18489033Y-4302261D01*
X18474500Y-4375323D01*
X18474500Y-5317740D01*
X18454815Y-5384779D01*
X18453601Y-5386632D01*
X18440479Y-5406270D01*
X18406269Y-5440479D01*
X18371975Y-5463394D01*
X18366179Y-5467267D01*
X18321482Y-5485781D01*
X18287857Y-5492469D01*
X18261978Y-5497617D01*
X18237789Y-5500000D01*
X16665398Y-5500000D01*
X16657162Y-5499614D01*
X16657162Y-5499635D01*
X16654277Y-5499500D01*
X16654266Y-5499500D01*
X15595734Y-5499500D01*
X15595723Y-5499500D01*
X15592838Y-5499635D01*
X15592837Y-5499614D01*
X15584602Y-5500000D01*
X14962000Y-5500000D01*
X14894961Y-5480315D01*
X14849206Y-5427511D01*
X14838000Y-5376000D01*
X14838000Y-5016739D01*
X14828073Y-4948608D01*
X14828073Y-4948607D01*
X14776698Y-4843517D01*
X14776696Y-4843515D01*
X14776696Y-4843514D01*
X14693983Y-4760801D01*
X14669539Y-4748851D01*
X14617957Y-4701723D01*
X14600000Y-4637451D01*
X14600000Y-4401285D01*
X14601061Y-4385099D01*
X14605682Y-4349999D01*
X14605682Y-4349998D01*
X14601061Y-4314899D01*
X14600000Y-4298714D01*
X14600000Y-1762210D01*
X14602383Y-1738019D01*
X14614218Y-1678517D01*
X14632729Y-1633826D01*
X14659524Y-1593724D01*
X14693724Y-1559524D01*
X14733826Y-1532729D01*
X14778514Y-1514219D01*
X14838028Y-1502381D01*
X14862211Y-1500000D01*
X15837789Y-1500000D01*
X15861980Y-1502383D01*
G37*
%TD.AperFunction*%
%TD*%
%TA.AperFunction,Conductor*%
%TO.N,/VBUS*%
G36*
X12315677Y-1519685D02*
G01*
X12336319Y-1536319D01*
X12763681Y-1963681D01*
X12797166Y-2025004D01*
X12800000Y-2051362D01*
X12800000Y-4426000D01*
X12780315Y-4493039D01*
X12727511Y-4538794D01*
X12676000Y-4550000D01*
X9824000Y-4550000D01*
X9756961Y-4530315D01*
X9711206Y-4477511D01*
X9700000Y-4426000D01*
X9700000Y-1624000D01*
X9719685Y-1556961D01*
X9772489Y-1511206D01*
X9824000Y-1500000D01*
X12248638Y-1500000D01*
X12315677Y-1519685D01*
G37*
%TD.AperFunction*%
%TD*%
%TA.AperFunction,Conductor*%
%TO.N,/VREG*%
G36*
X42111980Y-5202383D02*
G01*
X42171480Y-5214218D01*
X42216175Y-5232730D01*
X42256272Y-5259522D01*
X42290477Y-5293727D01*
X42317267Y-5333822D01*
X42335781Y-5378517D01*
X42339542Y-5397427D01*
X42347617Y-5438019D01*
X42350000Y-5462210D01*
X42350000Y-8737789D01*
X42347617Y-8761982D01*
X42335781Y-8821482D01*
X42317267Y-8866179D01*
X42290481Y-8906268D01*
X42256269Y-8940479D01*
X42221975Y-8963394D01*
X42216179Y-8967267D01*
X42171482Y-8985781D01*
X42137857Y-8992469D01*
X42111978Y-8997617D01*
X42087789Y-9000000D01*
X37062211Y-9000000D01*
X37038020Y-8997617D01*
X37023189Y-8994667D01*
X36978518Y-8985781D01*
X36933822Y-8967267D01*
X36893727Y-8940477D01*
X36859522Y-8906272D01*
X36832730Y-8866175D01*
X36814218Y-8821480D01*
X36802383Y-8761980D01*
X36800000Y-8737789D01*
X36800000Y-7112210D01*
X36802383Y-7088019D01*
X36814218Y-7028519D01*
X36832729Y-6983826D01*
X36859524Y-6943724D01*
X36893724Y-6909524D01*
X36933826Y-6882729D01*
X36978514Y-6864219D01*
X37038028Y-6852381D01*
X37062211Y-6850000D01*
X37464158Y-6850000D01*
X37474336Y-6850500D01*
X37475326Y-6850500D01*
X38525664Y-6850500D01*
X38535842Y-6850000D01*
X38650001Y-6850000D01*
X38900000Y-6850000D01*
X38900000Y-5462210D01*
X38902383Y-5438019D01*
X38914218Y-5378517D01*
X38932729Y-5333826D01*
X38959524Y-5293724D01*
X38993724Y-5259524D01*
X39033826Y-5232729D01*
X39078514Y-5214219D01*
X39138028Y-5202381D01*
X39162211Y-5200000D01*
X42087789Y-5200000D01*
X42111980Y-5202383D01*
G37*
%TD.AperFunction*%
%TD*%
%TA.AperFunction,Conductor*%
%TO.N,/VOUT*%
G36*
X34562354Y-3420185D02*
G01*
X34598415Y-3455607D01*
X34617267Y-3483822D01*
X34635781Y-3528517D01*
X34639542Y-3547427D01*
X34647617Y-3588019D01*
X34650000Y-3612210D01*
X34650000Y-5114158D01*
X34649500Y-5124336D01*
X34649500Y-5675673D01*
X34650000Y-5685841D01*
X34650000Y-6850000D01*
X36287789Y-6850000D01*
X36311980Y-6852383D01*
X36371480Y-6864218D01*
X36416175Y-6882730D01*
X36456272Y-6909522D01*
X36490477Y-6943727D01*
X36517267Y-6983822D01*
X36535781Y-7028517D01*
X36547617Y-7088022D01*
X36550000Y-7112210D01*
X36550000Y-8737789D01*
X36547617Y-8761978D01*
X36544783Y-8776229D01*
X36535781Y-8821482D01*
X36517266Y-8866179D01*
X36493645Y-8901533D01*
X36490481Y-8906268D01*
X36456269Y-8940479D01*
X36422442Y-8963082D01*
X36416179Y-8967267D01*
X36371482Y-8985781D01*
X36337857Y-8992469D01*
X36311978Y-8997617D01*
X36287789Y-9000000D01*
X34490255Y-9000000D01*
X34423216Y-8980315D01*
X34377461Y-8927511D01*
X34367517Y-8858353D01*
X34396542Y-8794797D01*
X34416617Y-8776233D01*
X34422150Y-8772150D01*
X34502793Y-8662882D01*
X34525219Y-8598790D01*
X34547646Y-8534701D01*
X34547646Y-8534699D01*
X34550500Y-8504269D01*
X34550500Y-7895730D01*
X34547646Y-7865300D01*
X34547646Y-7865298D01*
X34502793Y-7737119D01*
X34502792Y-7737117D01*
X34422150Y-7627850D01*
X34312882Y-7547207D01*
X34312880Y-7547206D01*
X34184700Y-7502353D01*
X34154270Y-7499500D01*
X34154266Y-7499500D01*
X33095734Y-7499500D01*
X33095730Y-7499500D01*
X33065300Y-7502353D01*
X33065298Y-7502353D01*
X32937119Y-7547206D01*
X32937117Y-7547207D01*
X32827850Y-7627850D01*
X32747207Y-7737117D01*
X32747206Y-7737119D01*
X32702353Y-7865298D01*
X32702353Y-7865300D01*
X32699500Y-7895730D01*
X32699500Y-8504269D01*
X32702353Y-8534699D01*
X32702353Y-8534701D01*
X32747206Y-8662880D01*
X32747207Y-8662882D01*
X32802490Y-8737789D01*
X32827850Y-8772150D01*
X32833379Y-8776230D01*
X32875629Y-8831877D01*
X32881088Y-8901533D01*
X32848021Y-8963082D01*
X32786927Y-8996984D01*
X32759745Y-9000000D01*
X31099500Y-9000000D01*
X31032461Y-8980315D01*
X30986706Y-8927511D01*
X30975500Y-8876000D01*
X30975500Y-6876863D01*
X30976561Y-6860677D01*
X30977653Y-6852383D01*
X30980682Y-6829376D01*
X30960044Y-6672614D01*
X30899536Y-6526535D01*
X30899535Y-6526534D01*
X30899535Y-6526533D01*
X30881356Y-6502842D01*
X30881355Y-6502841D01*
X30803281Y-6401093D01*
X30778228Y-6381869D01*
X30766034Y-6371175D01*
X30636319Y-6241460D01*
X30602834Y-6180137D01*
X30600000Y-6153779D01*
X30600000Y-4962210D01*
X30602383Y-4938019D01*
X30614218Y-4878519D01*
X30632729Y-4833826D01*
X30659524Y-4793724D01*
X30693724Y-4759524D01*
X30733826Y-4732729D01*
X30778514Y-4714219D01*
X30838028Y-4702381D01*
X30862211Y-4700000D01*
X32500001Y-4700000D01*
X32750000Y-4700000D01*
X32750000Y-3612210D01*
X32752383Y-3588019D01*
X32764218Y-3528517D01*
X32782732Y-3483821D01*
X32801584Y-3455607D01*
X32855197Y-3410803D01*
X32904685Y-3400500D01*
X34495315Y-3400500D01*
X34562354Y-3420185D01*
G37*
%TD.AperFunction*%
%TD*%
%TA.AperFunction,Conductor*%
%TO.N,/VOUTF*%
G36*
X29772469Y-2320185D02*
G01*
X29793111Y-2336819D01*
X30263681Y-2807389D01*
X30297166Y-2868712D01*
X30300000Y-2895070D01*
X30300000Y-3312134D01*
X30280315Y-3379173D01*
X30251489Y-3410507D01*
X30171718Y-3471718D01*
X30075463Y-3597160D01*
X30014956Y-3743237D01*
X30014955Y-3743239D01*
X29994318Y-3899998D01*
X29994318Y-3900001D01*
X30014955Y-4056760D01*
X30014956Y-4056762D01*
X30075464Y-4202841D01*
X30171718Y-4328282D01*
X30251488Y-4389491D01*
X30292689Y-4445918D01*
X30300000Y-4487866D01*
X30300000Y-6537789D01*
X30297617Y-6561978D01*
X30292469Y-6587857D01*
X30285781Y-6621482D01*
X30267267Y-6666179D01*
X30240481Y-6706268D01*
X30206269Y-6740479D01*
X30171975Y-6763394D01*
X30166179Y-6767267D01*
X30121482Y-6785781D01*
X30087857Y-6792469D01*
X30061978Y-6797617D01*
X30037789Y-6800000D01*
X28662211Y-6800000D01*
X28638020Y-6797617D01*
X28623189Y-6794667D01*
X28578518Y-6785781D01*
X28533822Y-6767267D01*
X28493727Y-6740477D01*
X28459522Y-6706272D01*
X28432730Y-6666175D01*
X28414218Y-6621483D01*
X28402881Y-6564485D01*
X28400500Y-6540302D01*
X28400500Y-6058223D01*
X28400365Y-6055338D01*
X28400385Y-6055337D01*
X28400000Y-6047102D01*
X28400000Y-5349999D01*
X28400000Y-5149418D01*
X28422645Y-5084701D01*
X28422646Y-5084699D01*
X28425500Y-5054269D01*
X28425500Y-4445730D01*
X28422646Y-4415300D01*
X28422646Y-4415298D01*
X28377793Y-4287119D01*
X28377792Y-4287117D01*
X28334370Y-4228282D01*
X28297150Y-4177850D01*
X28187882Y-4097207D01*
X28187880Y-4097206D01*
X28059700Y-4052353D01*
X28029270Y-4049500D01*
X28029266Y-4049500D01*
X26970734Y-4049500D01*
X26970730Y-4049500D01*
X26940300Y-4052353D01*
X26940298Y-4052353D01*
X26812119Y-4097206D01*
X26812117Y-4097207D01*
X26702850Y-4177850D01*
X26622207Y-4287117D01*
X26622206Y-4287119D01*
X26577353Y-4415298D01*
X26577353Y-4415300D01*
X26574500Y-4445730D01*
X26574500Y-4976000D01*
X26554815Y-5043039D01*
X26502011Y-5088794D01*
X26450500Y-5100000D01*
X23962211Y-5100000D01*
X23938020Y-5097617D01*
X23923189Y-5094667D01*
X23878518Y-5085781D01*
X23833822Y-5067267D01*
X23793727Y-5040477D01*
X23759522Y-5006272D01*
X23732730Y-4966175D01*
X23714218Y-4921480D01*
X23702383Y-4861980D01*
X23700000Y-4837789D01*
X23700000Y-3851285D01*
X23701061Y-3835099D01*
X23705682Y-3799999D01*
X23705682Y-3799998D01*
X23701061Y-3764899D01*
X23700000Y-3748714D01*
X23700000Y-2424500D01*
X23719685Y-2357461D01*
X23772489Y-2311706D01*
X23824000Y-2300500D01*
X29705430Y-2300500D01*
X29772469Y-2320185D01*
G37*
%TD.AperFunction*%
%TD*%
%TA.AperFunction,Conductor*%
%TO.N,/GND*%
G36*
X12300952Y-501061D02*
G01*
X12406116Y-514906D01*
X12437383Y-523284D01*
X12527808Y-560739D01*
X12555842Y-576924D01*
X12640003Y-641503D01*
X12652198Y-652198D01*
X13353547Y-1353548D01*
X13353554Y-1353554D01*
X13500000Y-1500000D01*
X13707114Y-1500000D01*
X14289106Y-1500000D01*
X14356145Y-1519685D01*
X14401900Y-1572489D01*
X14411844Y-1641647D01*
X14410724Y-1648189D01*
X14400830Y-1697933D01*
X14400829Y-1697936D01*
X14397872Y-1717872D01*
X14395490Y-1742059D01*
X14395490Y-1742064D01*
X14394500Y-1762210D01*
X14394500Y-1762221D01*
X14394500Y-3677851D01*
X14374815Y-3744890D01*
X14322011Y-3790645D01*
X14252853Y-3800589D01*
X14223048Y-3792412D01*
X14156765Y-3764957D01*
X14156760Y-3764955D01*
X14000001Y-3744318D01*
X13999999Y-3744318D01*
X13843239Y-3764955D01*
X13843237Y-3764956D01*
X13697160Y-3825463D01*
X13571718Y-3921718D01*
X13475463Y-4047160D01*
X13414956Y-4193237D01*
X13414955Y-4193239D01*
X13394318Y-4349998D01*
X13394318Y-4350001D01*
X13414955Y-4506760D01*
X13414956Y-4506762D01*
X13422375Y-4524674D01*
X13423773Y-4528047D01*
X13431242Y-4597516D01*
X13399967Y-4659995D01*
X13339878Y-4695648D01*
X13309212Y-4699500D01*
X13279239Y-4699500D01*
X13211108Y-4709426D01*
X13123821Y-4752098D01*
X13054948Y-4763856D01*
X12990651Y-4736513D01*
X12951344Y-4678748D01*
X12949506Y-4608903D01*
X12961139Y-4580167D01*
X12977490Y-4550937D01*
X12997175Y-4483898D01*
X13005500Y-4426000D01*
X13005500Y-2051362D01*
X13004322Y-2029393D01*
X13001488Y-2003035D01*
X12977529Y-1926518D01*
X12944044Y-1865195D01*
X12908991Y-1818371D01*
X12700206Y-1609586D01*
X12481634Y-1391013D01*
X12481633Y-1391012D01*
X12465283Y-1376325D01*
X12465269Y-1376313D01*
X12444620Y-1359672D01*
X12373575Y-1322509D01*
X12306543Y-1302826D01*
X12301146Y-1302050D01*
X12248638Y-1294500D01*
X9824000Y-1294500D01*
X9823992Y-1294500D01*
X9780313Y-1299197D01*
X9728825Y-1310397D01*
X9718627Y-1312890D01*
X9718624Y-1312891D01*
X9637916Y-1355899D01*
X9637913Y-1355901D01*
X9585104Y-1401660D01*
X9567160Y-1419242D01*
X9567154Y-1419249D01*
X9522511Y-1499059D01*
X9522509Y-1499064D01*
X9502826Y-1566096D01*
X9502825Y-1566101D01*
X9502825Y-1566102D01*
X9497969Y-1599878D01*
X9494500Y-1624003D01*
X9494500Y-3864398D01*
X9489431Y-3889888D01*
X9491416Y-3890283D01*
X9474500Y-3975323D01*
X9474500Y-4524678D01*
X9489032Y-4597735D01*
X9489033Y-4597739D01*
X9501729Y-4616740D01*
X9544399Y-4680601D01*
X9602988Y-4719748D01*
X9627260Y-4735966D01*
X9627264Y-4735967D01*
X9700321Y-4750499D01*
X9700324Y-4750500D01*
X9700326Y-4750500D01*
X9780356Y-4750500D01*
X9798002Y-4751761D01*
X9824000Y-4755500D01*
X9824001Y-4755500D01*
X12675991Y-4755500D01*
X12676000Y-4755500D01*
X12719684Y-4750803D01*
X12748875Y-4744452D01*
X12771174Y-4739602D01*
X12771190Y-4739598D01*
X12771195Y-4739597D01*
X12781373Y-4737110D01*
X12841024Y-4705322D01*
X12909444Y-4691167D01*
X12974656Y-4716250D01*
X13015955Y-4772607D01*
X13020229Y-4842346D01*
X13010739Y-4869215D01*
X12971926Y-4948608D01*
X12962000Y-5016739D01*
X12962000Y-5383260D01*
X12971926Y-5451391D01*
X13023303Y-5556485D01*
X13106014Y-5639196D01*
X13106015Y-5639196D01*
X13106017Y-5639198D01*
X13211107Y-5690573D01*
X13245173Y-5695536D01*
X13279239Y-5700500D01*
X13279240Y-5700500D01*
X14520761Y-5700500D01*
X14598422Y-5689185D01*
X14598604Y-5690436D01*
X14658752Y-5689588D01*
X14718058Y-5726529D01*
X14747977Y-5789669D01*
X14749500Y-5809046D01*
X14749500Y-6238812D01*
X14729815Y-6305851D01*
X14713181Y-6326493D01*
X14476493Y-6563181D01*
X14415170Y-6596666D01*
X14388812Y-6599500D01*
X11994629Y-6599500D01*
X11983820Y-6599028D01*
X11946193Y-6595735D01*
X11909702Y-6605513D01*
X11899145Y-6607854D01*
X11861954Y-6614412D01*
X11856962Y-6616229D01*
X11840117Y-6623206D01*
X11835313Y-6625446D01*
X11804381Y-6647105D01*
X11795264Y-6652914D01*
X11762548Y-6671804D01*
X11762540Y-6671810D01*
X11738262Y-6700743D01*
X11730956Y-6708716D01*
X11426491Y-7013182D01*
X11365170Y-7046666D01*
X11338812Y-7049500D01*
X10770730Y-7049500D01*
X10740300Y-7052353D01*
X10740298Y-7052353D01*
X10612119Y-7097206D01*
X10612117Y-7097207D01*
X10502850Y-7177850D01*
X10422207Y-7287117D01*
X10422206Y-7287119D01*
X10377353Y-7415298D01*
X10377353Y-7415300D01*
X10374500Y-7445730D01*
X10374500Y-8454269D01*
X10377353Y-8484699D01*
X10377353Y-8484701D01*
X10422206Y-8612880D01*
X10422207Y-8612882D01*
X10502850Y-8722150D01*
X10612118Y-8802793D01*
X10649350Y-8815821D01*
X10740299Y-8847646D01*
X10770730Y-8850500D01*
X10770734Y-8850500D01*
X11404270Y-8850500D01*
X11434699Y-8847646D01*
X11434701Y-8847646D01*
X11518162Y-8818441D01*
X11562882Y-8802793D01*
X11672150Y-8722150D01*
X11752793Y-8612882D01*
X11782396Y-8528282D01*
X11797646Y-8484701D01*
X11797646Y-8484699D01*
X11800500Y-8454269D01*
X11800500Y-7611188D01*
X11820185Y-7544149D01*
X11836819Y-7523507D01*
X11987819Y-7372507D01*
X12049142Y-7339022D01*
X12118834Y-7344006D01*
X12174767Y-7385878D01*
X12199184Y-7451342D01*
X12199500Y-7460188D01*
X12199500Y-8454269D01*
X12202353Y-8484699D01*
X12202353Y-8484701D01*
X12247206Y-8612880D01*
X12247207Y-8612882D01*
X12327850Y-8722150D01*
X12437118Y-8802793D01*
X12474350Y-8815821D01*
X12565299Y-8847646D01*
X12595730Y-8850500D01*
X12595734Y-8850500D01*
X13229270Y-8850500D01*
X13259699Y-8847646D01*
X13259701Y-8847646D01*
X13343162Y-8818441D01*
X13387882Y-8802793D01*
X13497150Y-8722150D01*
X13577793Y-8612882D01*
X13582050Y-8600714D01*
X13622767Y-8543940D01*
X13687719Y-8518191D01*
X13756281Y-8531644D01*
X13806686Y-8580029D01*
X13816131Y-8600709D01*
X13821544Y-8616179D01*
X13821545Y-8616180D01*
X13901069Y-8723930D01*
X14008819Y-8803454D01*
X14008821Y-8803455D01*
X14135218Y-8847684D01*
X14135222Y-8847684D01*
X14135226Y-8847686D01*
X14150231Y-8849093D01*
X14165232Y-8850500D01*
X14165236Y-8850500D01*
X14759768Y-8850500D01*
X14773101Y-8849249D01*
X14789774Y-8847686D01*
X14789778Y-8847684D01*
X14789781Y-8847684D01*
X14880839Y-8815821D01*
X14916179Y-8803455D01*
X15023930Y-8723930D01*
X15103455Y-8616179D01*
X15127267Y-8548129D01*
X15147684Y-8489781D01*
X15147684Y-8489778D01*
X15147686Y-8489774D01*
X15150500Y-8459768D01*
X15649500Y-8459768D01*
X15652313Y-8489769D01*
X15652315Y-8489781D01*
X15696544Y-8616178D01*
X15696545Y-8616180D01*
X15774756Y-8722150D01*
X15776070Y-8723930D01*
X15797373Y-8739653D01*
X15839624Y-8795300D01*
X15845083Y-8864956D01*
X15838302Y-8886874D01*
X15814956Y-8943237D01*
X15814955Y-8943239D01*
X15794318Y-9099998D01*
X15794318Y-9100001D01*
X15814955Y-9256760D01*
X15814956Y-9256762D01*
X15833260Y-9300953D01*
X15875464Y-9402841D01*
X15971718Y-9528282D01*
X16097159Y-9624536D01*
X16243238Y-9685044D01*
X16321619Y-9695363D01*
X16399999Y-9705682D01*
X16400000Y-9705682D01*
X16400001Y-9705682D01*
X16460341Y-9697738D01*
X16556762Y-9685044D01*
X16702841Y-9624536D01*
X16828282Y-9528282D01*
X16924536Y-9402841D01*
X16985044Y-9256762D01*
X16985934Y-9250001D01*
X17469318Y-9250001D01*
X17489955Y-9406760D01*
X17489956Y-9406762D01*
X17550464Y-9552841D01*
X17646718Y-9678282D01*
X17772159Y-9774536D01*
X17918238Y-9835044D01*
X17996619Y-9845363D01*
X18074999Y-9855682D01*
X18075000Y-9855682D01*
X18075001Y-9855682D01*
X18127254Y-9848802D01*
X18231762Y-9835044D01*
X18303049Y-9805515D01*
X18372516Y-9798047D01*
X18434995Y-9829322D01*
X18470648Y-9889410D01*
X18474500Y-9920077D01*
X18474500Y-10357858D01*
X18471667Y-10384206D01*
X18470641Y-10388927D01*
X18470641Y-10388929D01*
X18470641Y-10388930D01*
X18474184Y-10438461D01*
X18474500Y-10447308D01*
X18474500Y-10460797D01*
X18476420Y-10474154D01*
X18477365Y-10482946D01*
X18480909Y-10532486D01*
X18482593Y-10537000D01*
X18489148Y-10562682D01*
X18489834Y-10567455D01*
X18510457Y-10612612D01*
X18513845Y-10620790D01*
X18529760Y-10663461D01*
X18531204Y-10667331D01*
X18534096Y-10671194D01*
X18547617Y-10693983D01*
X18549619Y-10698367D01*
X18549622Y-10698372D01*
X18552993Y-10702262D01*
X18582144Y-10735904D01*
X18587688Y-10742785D01*
X18595779Y-10753593D01*
X18605333Y-10763147D01*
X18611353Y-10769614D01*
X18643872Y-10807143D01*
X18643874Y-10807145D01*
X18647928Y-10809750D01*
X18668571Y-10826385D01*
X20348614Y-12506428D01*
X20365246Y-12527066D01*
X20367854Y-12531125D01*
X20367857Y-12531128D01*
X20405400Y-12563658D01*
X20411861Y-12569675D01*
X20421407Y-12579221D01*
X20421413Y-12579226D01*
X20421416Y-12579228D01*
X20432207Y-12587306D01*
X20439100Y-12592860D01*
X20476627Y-12625377D01*
X20481010Y-12627379D01*
X20503807Y-12640905D01*
X20507669Y-12643796D01*
X20554212Y-12661155D01*
X20562360Y-12664530D01*
X20589673Y-12677004D01*
X20607540Y-12685164D01*
X20607541Y-12685164D01*
X20607543Y-12685165D01*
X20612312Y-12685850D01*
X20638002Y-12692407D01*
X20642517Y-12694091D01*
X20692049Y-12697633D01*
X20700843Y-12698579D01*
X20714201Y-12700500D01*
X20727692Y-12700500D01*
X20736538Y-12700815D01*
X20786073Y-12704359D01*
X20790785Y-12703334D01*
X20817143Y-12700500D01*
X43632857Y-12700500D01*
X43659215Y-12703334D01*
X43663927Y-12704359D01*
X43713461Y-12700815D01*
X43722308Y-12700500D01*
X43735799Y-12700500D01*
X43749156Y-12698579D01*
X43757951Y-12697633D01*
X43807483Y-12694091D01*
X43811992Y-12692408D01*
X43837685Y-12685850D01*
X43842457Y-12685165D01*
X43887637Y-12664530D01*
X43895801Y-12661149D01*
X43942331Y-12643796D01*
X43946189Y-12640907D01*
X43968995Y-12627375D01*
X43973373Y-12625377D01*
X44010899Y-12592859D01*
X44017778Y-12587316D01*
X44028593Y-12579221D01*
X44038155Y-12569658D01*
X44044617Y-12563643D01*
X44082143Y-12531128D01*
X44084751Y-12527068D01*
X44101381Y-12506431D01*
X45556431Y-11051381D01*
X45577068Y-11034751D01*
X45581128Y-11032143D01*
X45613653Y-10994605D01*
X45619658Y-10988155D01*
X45629221Y-10978593D01*
X45637316Y-10967778D01*
X45642859Y-10960899D01*
X45675377Y-10923373D01*
X45677375Y-10918995D01*
X45690907Y-10896189D01*
X45693796Y-10892331D01*
X45711149Y-10845801D01*
X45714534Y-10837630D01*
X45719645Y-10826439D01*
X45735165Y-10792457D01*
X45735850Y-10787685D01*
X45742409Y-10761992D01*
X45744091Y-10757483D01*
X45747633Y-10707951D01*
X45748580Y-10699148D01*
X45748692Y-10698373D01*
X45750500Y-10685799D01*
X45750500Y-10672308D01*
X45750816Y-10663461D01*
X45751196Y-10658151D01*
X45754359Y-10613927D01*
X45753332Y-10609206D01*
X45750500Y-10582858D01*
X45750500Y-6939741D01*
X45770185Y-6872702D01*
X45822989Y-6826947D01*
X45892147Y-6817003D01*
X45914644Y-6822503D01*
X45915300Y-6822646D01*
X45945730Y-6825500D01*
X45945734Y-6825500D01*
X46554270Y-6825500D01*
X46584699Y-6822646D01*
X46584701Y-6822646D01*
X46667182Y-6793784D01*
X46712882Y-6777793D01*
X46822150Y-6697150D01*
X46902793Y-6587882D01*
X46934335Y-6497740D01*
X46947646Y-6459701D01*
X46947646Y-6459699D01*
X46950500Y-6429269D01*
X46950500Y-5808676D01*
X46970185Y-5741637D01*
X46986819Y-5720995D01*
X48370995Y-4336819D01*
X48432318Y-4303334D01*
X48458676Y-4300500D01*
X49632074Y-4300500D01*
X49699113Y-4320185D01*
X49744868Y-4372989D01*
X49754812Y-4442147D01*
X49743475Y-4478960D01*
X49709426Y-4548608D01*
X49699500Y-4616739D01*
X49699500Y-4983260D01*
X49709426Y-5051391D01*
X49760803Y-5156485D01*
X49843514Y-5239196D01*
X49843515Y-5239196D01*
X49843517Y-5239198D01*
X49948607Y-5290573D01*
X49982673Y-5295536D01*
X50016739Y-5300500D01*
X50016740Y-5300500D01*
X51114720Y-5300500D01*
X51181759Y-5320185D01*
X51202401Y-5336819D01*
X51413181Y-5547599D01*
X51446666Y-5608922D01*
X51449500Y-5635280D01*
X51449500Y-7338812D01*
X51429815Y-7405851D01*
X51413181Y-7426493D01*
X51101493Y-7738181D01*
X51040170Y-7771666D01*
X51013812Y-7774500D01*
X50668299Y-7774500D01*
X50601260Y-7754815D01*
X50569923Y-7725986D01*
X50528283Y-7671719D01*
X50528282Y-7671718D01*
X50402841Y-7575464D01*
X50350556Y-7553807D01*
X50256762Y-7514956D01*
X50256760Y-7514955D01*
X50100001Y-7494318D01*
X50099999Y-7494318D01*
X49943239Y-7514955D01*
X49943237Y-7514956D01*
X49797160Y-7575463D01*
X49671716Y-7671719D01*
X49630077Y-7725986D01*
X49573649Y-7767189D01*
X49531701Y-7774500D01*
X48949500Y-7774500D01*
X48882461Y-7754815D01*
X48836706Y-7702011D01*
X48825500Y-7650500D01*
X48825500Y-7495730D01*
X48822646Y-7465300D01*
X48822646Y-7465298D01*
X48778459Y-7339022D01*
X48777793Y-7337118D01*
X48697150Y-7227850D01*
X48587882Y-7147207D01*
X48587880Y-7147206D01*
X48459700Y-7102353D01*
X48429270Y-7099500D01*
X48429266Y-7099500D01*
X47795734Y-7099500D01*
X47795730Y-7099500D01*
X47765300Y-7102353D01*
X47765298Y-7102353D01*
X47637119Y-7147206D01*
X47637117Y-7147207D01*
X47527850Y-7227850D01*
X47447207Y-7337117D01*
X47447206Y-7337119D01*
X47402353Y-7465298D01*
X47402353Y-7465300D01*
X47399500Y-7495730D01*
X47399500Y-8504269D01*
X47402353Y-8534699D01*
X47402353Y-8534701D01*
X47446082Y-8659668D01*
X47447207Y-8662882D01*
X47527850Y-8772150D01*
X47637118Y-8852793D01*
X47671878Y-8864956D01*
X47765299Y-8897646D01*
X47795730Y-8900500D01*
X47795734Y-8900500D01*
X48429270Y-8900500D01*
X48459699Y-8897646D01*
X48459701Y-8897646D01*
X48531145Y-8872646D01*
X48587882Y-8852793D01*
X48697150Y-8772150D01*
X48777793Y-8662882D01*
X48806513Y-8580806D01*
X48822646Y-8534701D01*
X48824256Y-8527330D01*
X48826379Y-8527793D01*
X48848198Y-8473018D01*
X48905041Y-8432391D01*
X48945802Y-8425500D01*
X49531701Y-8425500D01*
X49598740Y-8445185D01*
X49630077Y-8474014D01*
X49671342Y-8527793D01*
X49671718Y-8528282D01*
X49797159Y-8624536D01*
X49943238Y-8685044D01*
X50021619Y-8695363D01*
X50099999Y-8705682D01*
X50100000Y-8705682D01*
X50100001Y-8705682D01*
X50152254Y-8698802D01*
X50256762Y-8685044D01*
X50402841Y-8624536D01*
X50528282Y-8528282D01*
X50569923Y-8474013D01*
X50626351Y-8432811D01*
X50668299Y-8425500D01*
X51180372Y-8425500D01*
X51191180Y-8425971D01*
X51228807Y-8429264D01*
X51265319Y-8419479D01*
X51275830Y-8417149D01*
X51313045Y-8410588D01*
X51313050Y-8410584D01*
X51318099Y-8408747D01*
X51334824Y-8401819D01*
X51339681Y-8399554D01*
X51339684Y-8399554D01*
X51370625Y-8377887D01*
X51379744Y-8372079D01*
X51412455Y-8353194D01*
X51412457Y-8353192D01*
X51436736Y-8324256D01*
X51444036Y-8316288D01*
X51991290Y-7769034D01*
X51999245Y-7761744D01*
X52028194Y-7737455D01*
X52028195Y-7737452D01*
X52034577Y-7732098D01*
X52098586Y-7704085D01*
X52167578Y-7715126D01*
X52214051Y-7753453D01*
X52227850Y-7772150D01*
X52337118Y-7852793D01*
X52348607Y-7856813D01*
X52465299Y-7897646D01*
X52495730Y-7900500D01*
X52495734Y-7900500D01*
X53904270Y-7900500D01*
X53934699Y-7897646D01*
X53934701Y-7897646D01*
X53998790Y-7875219D01*
X54062882Y-7852793D01*
X54172150Y-7772150D01*
X54252793Y-7662882D01*
X54292467Y-7549500D01*
X54297646Y-7534701D01*
X54297646Y-7534699D01*
X54300500Y-7504269D01*
X54300500Y-6695730D01*
X54297646Y-6665300D01*
X54297646Y-6665298D01*
X54253907Y-6540302D01*
X54252793Y-6537118D01*
X54172150Y-6427850D01*
X54062882Y-6347207D01*
X54062880Y-6347206D01*
X53934700Y-6302353D01*
X53904270Y-6299500D01*
X53904266Y-6299500D01*
X52495734Y-6299500D01*
X52495730Y-6299500D01*
X52465300Y-6302353D01*
X52465298Y-6302353D01*
X52337119Y-6347206D01*
X52337117Y-6347207D01*
X52298133Y-6375979D01*
X52232503Y-6399949D01*
X52164333Y-6384633D01*
X52115266Y-6334892D01*
X52100500Y-6276208D01*
X52100500Y-5468718D01*
X52100972Y-5457909D01*
X52101736Y-5449184D01*
X52104264Y-5420285D01*
X52094478Y-5383767D01*
X52092150Y-5373265D01*
X52085588Y-5336047D01*
X52085585Y-5336041D01*
X52083760Y-5331025D01*
X52076820Y-5314268D01*
X52074554Y-5309411D01*
X52074554Y-5309408D01*
X52071817Y-5305499D01*
X52052892Y-5278471D01*
X52047080Y-5269348D01*
X52028196Y-5236640D01*
X52028191Y-5236634D01*
X51999255Y-5212354D01*
X51991280Y-5205046D01*
X51686819Y-4900585D01*
X51653334Y-4839262D01*
X51650500Y-4812904D01*
X51650500Y-4616739D01*
X51641927Y-4557903D01*
X51640573Y-4548607D01*
X51589198Y-4443517D01*
X51589196Y-4443515D01*
X51589196Y-4443514D01*
X51533363Y-4387681D01*
X51499878Y-4326358D01*
X51504862Y-4256666D01*
X51533363Y-4212319D01*
X51589196Y-4156485D01*
X51589198Y-4156483D01*
X51640573Y-4051393D01*
X51650500Y-3983260D01*
X51650500Y-3616740D01*
X51640573Y-3548607D01*
X51589198Y-3443517D01*
X51589196Y-3443515D01*
X51589196Y-3443514D01*
X51506485Y-3360803D01*
X51475787Y-3345796D01*
X51401393Y-3309427D01*
X51401391Y-3309426D01*
X51333261Y-3299500D01*
X51333260Y-3299500D01*
X50710799Y-3299500D01*
X49312370Y-3299500D01*
X49245331Y-3279815D01*
X49199576Y-3227011D01*
X49189632Y-3157853D01*
X49189665Y-3157623D01*
X49190573Y-3151391D01*
X49200500Y-3083260D01*
X49200500Y-2904269D01*
X52099500Y-2904269D01*
X52102353Y-2934699D01*
X52102353Y-2934701D01*
X52147206Y-3062880D01*
X52147207Y-3062882D01*
X52227850Y-3172150D01*
X52337118Y-3252793D01*
X52373021Y-3265356D01*
X52465299Y-3297646D01*
X52495730Y-3300500D01*
X52495734Y-3300500D01*
X53904270Y-3300500D01*
X53934699Y-3297646D01*
X53934701Y-3297646D01*
X53998790Y-3275219D01*
X54062882Y-3252793D01*
X54172150Y-3172150D01*
X54252793Y-3062882D01*
X54284541Y-2972151D01*
X54297646Y-2934701D01*
X54297646Y-2934699D01*
X54300500Y-2904269D01*
X54300500Y-2095730D01*
X54297646Y-2065300D01*
X54297646Y-2065298D01*
X54252793Y-1937119D01*
X54252792Y-1937117D01*
X54244968Y-1926516D01*
X54172150Y-1827850D01*
X54062882Y-1747207D01*
X54062880Y-1747206D01*
X53934700Y-1702353D01*
X53904270Y-1699500D01*
X53904266Y-1699500D01*
X52495734Y-1699500D01*
X52495730Y-1699500D01*
X52465300Y-1702353D01*
X52465298Y-1702353D01*
X52337119Y-1747206D01*
X52337117Y-1747207D01*
X52227850Y-1827850D01*
X52147207Y-1937117D01*
X52147206Y-1937119D01*
X52102353Y-2065298D01*
X52102353Y-2065300D01*
X52099500Y-2095730D01*
X52099500Y-2904269D01*
X49200500Y-2904269D01*
X49200500Y-2716740D01*
X49190573Y-2648607D01*
X49139198Y-2543517D01*
X49139196Y-2543515D01*
X49139196Y-2543514D01*
X49056485Y-2460803D01*
X48951391Y-2409426D01*
X48883261Y-2399500D01*
X48883260Y-2399500D01*
X48359808Y-2399500D01*
X48350961Y-2399184D01*
X48301429Y-2395641D01*
X48301425Y-2395641D01*
X48296715Y-2396666D01*
X48270357Y-2399500D01*
X47791739Y-2399500D01*
X47723608Y-2409426D01*
X47618514Y-2460803D01*
X47535803Y-2543514D01*
X47484426Y-2648608D01*
X47474500Y-2716739D01*
X47474500Y-3083260D01*
X47484426Y-3151391D01*
X47484427Y-3151393D01*
X47519994Y-3224148D01*
X47535803Y-3256485D01*
X47618514Y-3339196D01*
X47618515Y-3339196D01*
X47618517Y-3339198D01*
X47681594Y-3370034D01*
X47687137Y-3372744D01*
X47738720Y-3419872D01*
X47756634Y-3487406D01*
X47735193Y-3553905D01*
X47720358Y-3571826D01*
X47132903Y-4159281D01*
X47071580Y-4192766D01*
X47001888Y-4187782D01*
X46945955Y-4145910D01*
X46921538Y-4080446D01*
X46922517Y-4053729D01*
X46925500Y-4033260D01*
X46925500Y-3666740D01*
X46923815Y-3655178D01*
X46919363Y-3624617D01*
X46915573Y-3598607D01*
X46864198Y-3493517D01*
X46864196Y-3493515D01*
X46864196Y-3493514D01*
X46781485Y-3410803D01*
X46676391Y-3359426D01*
X46608261Y-3349500D01*
X46608260Y-3349500D01*
X45516740Y-3349500D01*
X45516739Y-3349500D01*
X45448608Y-3359426D01*
X45343514Y-3410803D01*
X45266137Y-3488181D01*
X45204814Y-3521666D01*
X45178456Y-3524500D01*
X45169628Y-3524500D01*
X45158820Y-3524028D01*
X45151527Y-3523390D01*
X45120901Y-3520710D01*
X45055833Y-3495256D01*
X45014856Y-3438665D01*
X45010979Y-3368903D01*
X45033332Y-3321699D01*
X45124536Y-3202841D01*
X45185044Y-3056762D01*
X45205682Y-2900000D01*
X45199915Y-2856196D01*
X45210680Y-2787161D01*
X45257060Y-2734905D01*
X45324329Y-2716020D01*
X45357450Y-2720935D01*
X45447507Y-2747099D01*
X45447510Y-2747100D01*
X45484350Y-2749999D01*
X45484366Y-2750000D01*
X45812500Y-2750000D01*
X45812500Y-2200000D01*
X46312500Y-2200000D01*
X46312500Y-2750000D01*
X46640634Y-2750000D01*
X46640649Y-2749999D01*
X46677489Y-2747100D01*
X46677495Y-2747099D01*
X46835193Y-2701283D01*
X46835196Y-2701282D01*
X46976552Y-2617685D01*
X46976561Y-2617678D01*
X47092678Y-2501561D01*
X47092685Y-2501552D01*
X47176281Y-2360198D01*
X47222100Y-2202486D01*
X47222295Y-2200001D01*
X47222295Y-2200000D01*
X46312500Y-2200000D01*
X45812500Y-2200000D01*
X44902705Y-2200000D01*
X44896321Y-2206905D01*
X44886994Y-2251300D01*
X44837941Y-2301055D01*
X44769775Y-2316392D01*
X44761557Y-2315587D01*
X44600001Y-2294318D01*
X44599999Y-2294318D01*
X44443239Y-2314955D01*
X44443237Y-2314956D01*
X44297160Y-2375463D01*
X44171718Y-2471718D01*
X44075463Y-2597160D01*
X44014956Y-2743237D01*
X44014955Y-2743239D01*
X43994318Y-2899998D01*
X43994318Y-2900001D01*
X44002946Y-2965540D01*
X43992180Y-3034576D01*
X43959715Y-3076713D01*
X43946805Y-3087545D01*
X43927914Y-3120264D01*
X43922105Y-3129381D01*
X43900446Y-3160313D01*
X43898206Y-3165117D01*
X43891229Y-3181961D01*
X43889410Y-3186960D01*
X43882852Y-3224148D01*
X43880512Y-3234703D01*
X43870735Y-3271191D01*
X43870735Y-3271192D01*
X43874028Y-3308817D01*
X43874500Y-3319626D01*
X43874500Y-3425500D01*
X43854815Y-3492539D01*
X43802011Y-3538294D01*
X43750500Y-3549500D01*
X43675323Y-3549500D01*
X43602264Y-3564032D01*
X43602260Y-3564033D01*
X43519399Y-3619399D01*
X43464033Y-3702260D01*
X43464032Y-3702264D01*
X43449500Y-3775321D01*
X43449500Y-4324678D01*
X43464032Y-4397735D01*
X43464033Y-4397739D01*
X43482405Y-4425235D01*
X43519399Y-4480601D01*
X43602260Y-4535966D01*
X43602264Y-4535967D01*
X43675321Y-4550499D01*
X43675324Y-4550500D01*
X43675326Y-4550500D01*
X44724676Y-4550500D01*
X44724677Y-4550499D01*
X44797740Y-4535966D01*
X44880601Y-4480601D01*
X44915733Y-4428021D01*
X44969342Y-4383217D01*
X44986728Y-4377141D01*
X45015314Y-4369481D01*
X45025830Y-4367149D01*
X45063045Y-4360588D01*
X45063050Y-4360584D01*
X45068099Y-4358747D01*
X45084824Y-4351819D01*
X45089681Y-4349554D01*
X45089684Y-4349554D01*
X45120625Y-4327887D01*
X45129744Y-4322079D01*
X45162455Y-4303194D01*
X45164464Y-4300798D01*
X45168546Y-4298082D01*
X45170768Y-4296219D01*
X45170975Y-4296466D01*
X45222633Y-4262095D01*
X45292494Y-4260983D01*
X45333836Y-4285070D01*
X45335153Y-4283227D01*
X45343513Y-4289195D01*
X45343514Y-4289195D01*
X45343517Y-4289198D01*
X45448607Y-4340573D01*
X45472169Y-4344006D01*
X45516739Y-4350500D01*
X45516740Y-4350500D01*
X46608257Y-4350500D01*
X46608260Y-4350500D01*
X46628723Y-4347518D01*
X46697897Y-4357330D01*
X46750788Y-4402984D01*
X46770601Y-4469986D01*
X46751044Y-4537062D01*
X46734282Y-4557903D01*
X46354005Y-4938181D01*
X46292682Y-4971666D01*
X46266324Y-4974500D01*
X45945730Y-4974500D01*
X45915300Y-4977353D01*
X45915298Y-4977353D01*
X45787119Y-5022206D01*
X45787117Y-5022207D01*
X45677850Y-5102850D01*
X45597207Y-5212117D01*
X45597206Y-5212119D01*
X45552353Y-5340298D01*
X45550744Y-5347670D01*
X45548620Y-5347206D01*
X45526802Y-5401982D01*
X45469959Y-5442609D01*
X45429198Y-5449500D01*
X45367143Y-5449500D01*
X45340785Y-5446666D01*
X45336074Y-5445641D01*
X45336070Y-5445641D01*
X45286539Y-5449184D01*
X45277692Y-5449500D01*
X43675323Y-5449500D01*
X43602264Y-5464032D01*
X43602260Y-5464033D01*
X43519399Y-5519399D01*
X43464033Y-5602260D01*
X43464032Y-5602264D01*
X43449500Y-5675321D01*
X43449500Y-6224678D01*
X43464032Y-6297735D01*
X43464033Y-6297739D01*
X43482405Y-6325235D01*
X43519399Y-6380601D01*
X43592233Y-6429266D01*
X43602260Y-6435966D01*
X43602264Y-6435967D01*
X43675321Y-6450499D01*
X43675324Y-6450500D01*
X43675326Y-6450500D01*
X44164201Y-6450500D01*
X44625500Y-6450500D01*
X44692539Y-6470185D01*
X44738294Y-6522989D01*
X44749500Y-6574500D01*
X44749500Y-10391324D01*
X44729815Y-10458363D01*
X44713181Y-10479005D01*
X43529005Y-11663181D01*
X43467682Y-11696666D01*
X43441324Y-11699500D01*
X21008676Y-11699500D01*
X20941637Y-11679815D01*
X20920995Y-11663181D01*
X19511819Y-10254005D01*
X19478334Y-10192682D01*
X19475500Y-10166324D01*
X19475500Y-9249366D01*
X19495185Y-9182327D01*
X19547989Y-9136572D01*
X19617147Y-9126628D01*
X19646945Y-9134802D01*
X19768238Y-9185044D01*
X19846619Y-9195363D01*
X19924999Y-9205682D01*
X19925000Y-9205682D01*
X19925001Y-9205682D01*
X19989617Y-9197175D01*
X20081762Y-9185044D01*
X20227841Y-9124536D01*
X20353282Y-9028282D01*
X20449536Y-8902841D01*
X20510044Y-8756762D01*
X20528986Y-8612880D01*
X20530682Y-8600001D01*
X20530682Y-8599998D01*
X20510044Y-8443239D01*
X20510042Y-8443234D01*
X20504255Y-8429264D01*
X20479790Y-8370198D01*
X20449538Y-8297163D01*
X20449537Y-8297162D01*
X20449536Y-8297159D01*
X20411785Y-8247961D01*
X20386592Y-8182794D01*
X20400630Y-8114349D01*
X20407061Y-8103584D01*
X20410967Y-8097738D01*
X20425499Y-8024678D01*
X20425500Y-8024676D01*
X20425500Y-6975323D01*
X20425499Y-6975321D01*
X20410967Y-6902264D01*
X20410966Y-6902260D01*
X20399959Y-6885787D01*
X20355601Y-6819399D01*
X20289787Y-6775424D01*
X20272739Y-6764033D01*
X20272735Y-6764032D01*
X20199677Y-6749500D01*
X20199674Y-6749500D01*
X19650326Y-6749500D01*
X19650323Y-6749500D01*
X19577264Y-6764032D01*
X19577261Y-6764033D01*
X19518889Y-6803035D01*
X19452211Y-6823911D01*
X19384831Y-6805425D01*
X19381111Y-6803035D01*
X19323006Y-6764212D01*
X19322740Y-6764034D01*
X19322739Y-6764033D01*
X19322738Y-6764033D01*
X19322735Y-6764032D01*
X19249677Y-6749500D01*
X19249674Y-6749500D01*
X18700326Y-6749500D01*
X18700323Y-6749500D01*
X18627264Y-6764032D01*
X18627261Y-6764033D01*
X18568889Y-6803035D01*
X18502211Y-6823911D01*
X18434831Y-6805425D01*
X18431111Y-6803035D01*
X18373006Y-6764212D01*
X18372740Y-6764034D01*
X18372739Y-6764033D01*
X18372738Y-6764033D01*
X18372735Y-6764032D01*
X18299677Y-6749500D01*
X18299674Y-6749500D01*
X17750326Y-6749500D01*
X17750323Y-6749500D01*
X17677264Y-6764032D01*
X17677260Y-6764033D01*
X17594399Y-6819399D01*
X17539033Y-6902260D01*
X17539032Y-6902264D01*
X17524500Y-6975321D01*
X17524500Y-8024678D01*
X17539032Y-8097735D01*
X17539033Y-8097739D01*
X17539034Y-8097740D01*
X17594399Y-8180601D01*
X17644390Y-8214003D01*
X17689195Y-8267613D01*
X17699500Y-8317105D01*
X17699500Y-8720067D01*
X17679815Y-8787106D01*
X17650988Y-8818441D01*
X17646721Y-8821715D01*
X17646719Y-8821716D01*
X17646718Y-8821718D01*
X17586556Y-8900123D01*
X17550463Y-8947160D01*
X17489956Y-9093237D01*
X17489955Y-9093239D01*
X17469318Y-9249998D01*
X17469318Y-9250001D01*
X16985934Y-9250001D01*
X17004188Y-9111349D01*
X17005682Y-9100001D01*
X17005682Y-9099998D01*
X16985044Y-8943239D01*
X16985044Y-8943238D01*
X16924536Y-8797159D01*
X16922711Y-8792753D01*
X16915242Y-8723283D01*
X16937503Y-8671666D01*
X16978455Y-8616179D01*
X17002267Y-8548129D01*
X17022684Y-8489781D01*
X17022684Y-8489778D01*
X17022686Y-8489774D01*
X17025500Y-8459764D01*
X17025500Y-7440236D01*
X17022686Y-7410226D01*
X17022684Y-7410222D01*
X17022684Y-7410218D01*
X16978455Y-7283821D01*
X16978454Y-7283819D01*
X16898930Y-7176069D01*
X16791180Y-7096545D01*
X16791178Y-7096544D01*
X16664781Y-7052315D01*
X16664769Y-7052313D01*
X16634768Y-7049500D01*
X16634764Y-7049500D01*
X16040236Y-7049500D01*
X16040232Y-7049500D01*
X16010230Y-7052313D01*
X16010218Y-7052315D01*
X15883821Y-7096544D01*
X15883819Y-7096545D01*
X15776069Y-7176069D01*
X15696545Y-7283819D01*
X15696544Y-7283821D01*
X15652315Y-7410218D01*
X15652313Y-7410230D01*
X15649500Y-7440231D01*
X15649500Y-8459768D01*
X15150500Y-8459768D01*
X15150500Y-8459764D01*
X15150500Y-7440236D01*
X15147686Y-7410226D01*
X15147684Y-7410222D01*
X15147684Y-7410218D01*
X15103455Y-7283821D01*
X15103454Y-7283819D01*
X15023930Y-7176069D01*
X15001964Y-7159858D01*
X14959714Y-7104210D01*
X14954255Y-7034554D01*
X14987323Y-6973005D01*
X14987768Y-6972556D01*
X15291290Y-6669034D01*
X15299243Y-6661746D01*
X15328194Y-6637455D01*
X15347082Y-6604739D01*
X15352887Y-6595625D01*
X15374554Y-6564684D01*
X15374554Y-6564681D01*
X15376819Y-6559824D01*
X15383747Y-6543099D01*
X15385584Y-6538050D01*
X15385588Y-6538045D01*
X15392149Y-6500830D01*
X15394479Y-6490319D01*
X15404264Y-6453807D01*
X15400972Y-6416177D01*
X15400500Y-6405369D01*
X15400500Y-5829500D01*
X15420185Y-5762461D01*
X15472989Y-5716706D01*
X15524500Y-5705500D01*
X15584605Y-5705500D01*
X15585249Y-5705484D01*
X15594224Y-5705275D01*
X15596987Y-5705145D01*
X15597191Y-5705136D01*
X15602995Y-5705000D01*
X16647006Y-5705000D01*
X16652810Y-5705136D01*
X16652948Y-5705142D01*
X16655777Y-5705275D01*
X16664750Y-5705484D01*
X16665395Y-5705500D01*
X16665398Y-5705500D01*
X18237777Y-5705500D01*
X18237789Y-5705500D01*
X18257936Y-5704510D01*
X18257952Y-5704508D01*
X18257957Y-5704508D01*
X18259865Y-5704319D01*
X18282125Y-5702127D01*
X18302069Y-5699168D01*
X18361573Y-5687332D01*
X18400123Y-5675638D01*
X18444820Y-5657124D01*
X18480351Y-5638133D01*
X18520441Y-5611345D01*
X18551577Y-5585792D01*
X18585787Y-5551583D01*
X18611345Y-5520442D01*
X18624467Y-5500804D01*
X18625495Y-5499249D01*
X18626709Y-5497396D01*
X18651990Y-5442677D01*
X18671675Y-5375638D01*
X18680000Y-5317740D01*
X18680000Y-4407775D01*
X18682382Y-4383587D01*
X18688615Y-4352247D01*
X18691572Y-4340441D01*
X18692115Y-4338654D01*
X18701552Y-4291205D01*
X18705500Y-4251119D01*
X18705500Y-3862210D01*
X18704510Y-3842062D01*
X18702127Y-3817874D01*
X18700484Y-3806797D01*
X18699172Y-3797949D01*
X18699169Y-3797933D01*
X18698960Y-3796884D01*
X18687333Y-3738427D01*
X18675637Y-3699873D01*
X18657123Y-3655178D01*
X18638135Y-3619654D01*
X18624072Y-3598607D01*
X18611349Y-3579564D01*
X18585783Y-3548412D01*
X18551581Y-3514211D01*
X18520440Y-3488653D01*
X18480348Y-3461865D01*
X18480349Y-3461865D01*
X18444810Y-3442870D01*
X18444809Y-3442869D01*
X18400125Y-3424362D01*
X18400122Y-3424361D01*
X18400117Y-3424359D01*
X18361570Y-3412666D01*
X18361565Y-3412665D01*
X18361562Y-3412664D01*
X18361563Y-3412664D01*
X18302066Y-3400830D01*
X18294524Y-3399711D01*
X18282126Y-3397873D01*
X18282112Y-3397871D01*
X18282108Y-3397871D01*
X18257939Y-3395490D01*
X18252898Y-3395242D01*
X18237789Y-3394500D01*
X18237777Y-3394500D01*
X16429500Y-3394500D01*
X16362461Y-3374815D01*
X16316706Y-3322011D01*
X16305500Y-3270500D01*
X16305500Y-2424500D01*
X16325185Y-2357461D01*
X16377989Y-2311706D01*
X16429500Y-2300500D01*
X20915876Y-2300500D01*
X20982915Y-2320185D01*
X21028670Y-2372989D01*
X21038614Y-2442147D01*
X21032917Y-2465455D01*
X21002354Y-2552798D01*
X21002353Y-2552800D01*
X20999500Y-2583230D01*
X20999500Y-3188810D01*
X20979815Y-3255849D01*
X20963181Y-3276491D01*
X20752267Y-3487406D01*
X20323492Y-3916182D01*
X20126493Y-4113181D01*
X20065170Y-4146666D01*
X20038812Y-4149500D01*
X19650323Y-4149500D01*
X19577264Y-4164032D01*
X19577260Y-4164033D01*
X19494399Y-4219399D01*
X19439033Y-4302260D01*
X19439032Y-4302264D01*
X19424500Y-4375321D01*
X19424500Y-5424678D01*
X19439032Y-5497735D01*
X19439033Y-5497739D01*
X19446915Y-5509535D01*
X19494399Y-5580601D01*
X19560754Y-5624937D01*
X19577260Y-5635966D01*
X19577264Y-5635967D01*
X19650321Y-5650499D01*
X19650324Y-5650500D01*
X19650326Y-5650500D01*
X20199676Y-5650500D01*
X20199677Y-5650499D01*
X20272740Y-5635966D01*
X20355601Y-5580601D01*
X20410966Y-5497740D01*
X20425500Y-5424674D01*
X20425500Y-4786188D01*
X20445185Y-4719149D01*
X20461819Y-4698507D01*
X20787819Y-4372507D01*
X20849142Y-4339022D01*
X20918834Y-4344006D01*
X20974767Y-4385878D01*
X20999184Y-4451342D01*
X20999500Y-4460188D01*
X20999500Y-5041769D01*
X21002353Y-5072199D01*
X21002353Y-5072201D01*
X21042100Y-5185787D01*
X21047207Y-5200382D01*
X21127850Y-5309650D01*
X21237118Y-5390293D01*
X21258918Y-5397921D01*
X21372423Y-5437639D01*
X21371992Y-5438868D01*
X21426411Y-5468643D01*
X21459844Y-5529994D01*
X21454801Y-5599681D01*
X21412883Y-5655580D01*
X21372180Y-5674167D01*
X21372423Y-5674861D01*
X21237119Y-5722206D01*
X21237117Y-5722207D01*
X21127850Y-5802850D01*
X21047207Y-5912117D01*
X21047206Y-5912119D01*
X21002353Y-6040298D01*
X21002353Y-6040300D01*
X20999500Y-6070730D01*
X20999500Y-6704269D01*
X21002353Y-6734699D01*
X21002353Y-6734701D01*
X21043253Y-6851582D01*
X21047207Y-6862882D01*
X21127850Y-6972150D01*
X21237118Y-7052793D01*
X21279845Y-7067744D01*
X21365299Y-7097646D01*
X21395730Y-7100500D01*
X21395734Y-7100500D01*
X22404270Y-7100500D01*
X22434699Y-7097646D01*
X22434701Y-7097646D01*
X22498790Y-7075219D01*
X22562882Y-7052793D01*
X22672150Y-6972150D01*
X22752793Y-6862882D01*
X22781674Y-6780345D01*
X22797646Y-6734701D01*
X22797646Y-6734699D01*
X22800500Y-6704269D01*
X22800500Y-6070730D01*
X22797646Y-6040300D01*
X22797646Y-6040298D01*
X22752793Y-5912119D01*
X22752792Y-5912117D01*
X22752489Y-5911706D01*
X22672150Y-5802850D01*
X22562882Y-5722207D01*
X22562880Y-5722206D01*
X22427577Y-5674861D01*
X22428007Y-5673631D01*
X22373590Y-5643860D01*
X22340155Y-5582509D01*
X22345197Y-5512822D01*
X22387113Y-5456922D01*
X22427819Y-5438332D01*
X22427577Y-5437639D01*
X22504204Y-5410824D01*
X22562882Y-5390293D01*
X22672150Y-5309650D01*
X22752793Y-5200382D01*
X22780766Y-5120440D01*
X22797646Y-5072201D01*
X22797646Y-5072199D01*
X22800500Y-5041769D01*
X22800500Y-4561188D01*
X22820185Y-4494149D01*
X22836818Y-4473508D01*
X22858984Y-4451342D01*
X22884130Y-4426194D01*
X22945453Y-4392709D01*
X22987993Y-4390936D01*
X23100000Y-4405682D01*
X23100001Y-4405682D01*
X23176877Y-4395561D01*
X23256762Y-4385044D01*
X23323049Y-4357586D01*
X23392516Y-4350118D01*
X23454995Y-4381393D01*
X23490648Y-4441481D01*
X23494500Y-4472148D01*
X23494500Y-4837789D01*
X23494954Y-4847023D01*
X23495490Y-4857939D01*
X23496855Y-4871792D01*
X23497873Y-4882126D01*
X23498037Y-4883230D01*
X23500830Y-4902066D01*
X23510087Y-4948608D01*
X23512666Y-4961570D01*
X23524359Y-5000117D01*
X23524361Y-5000122D01*
X23524362Y-5000125D01*
X23542869Y-5044809D01*
X23542870Y-5044810D01*
X23542871Y-5044812D01*
X23546852Y-5052260D01*
X23561865Y-5080349D01*
X23588653Y-5120440D01*
X23614211Y-5151581D01*
X23648412Y-5185783D01*
X23679564Y-5211349D01*
X23691999Y-5219657D01*
X23719654Y-5238135D01*
X23744584Y-5251461D01*
X23755178Y-5257124D01*
X23799872Y-5275637D01*
X23799874Y-5275637D01*
X23799875Y-5275638D01*
X23838426Y-5287332D01*
X23897928Y-5299168D01*
X23917874Y-5302127D01*
X23942065Y-5304510D01*
X23962211Y-5305500D01*
X23962223Y-5305500D01*
X26450491Y-5305500D01*
X26450500Y-5305500D01*
X26494184Y-5300803D01*
X26523375Y-5294452D01*
X26545674Y-5289602D01*
X26545690Y-5289598D01*
X26545695Y-5289597D01*
X26555873Y-5287110D01*
X26636585Y-5244100D01*
X26689389Y-5198345D01*
X26707343Y-5180754D01*
X26751990Y-5100937D01*
X26771675Y-5033898D01*
X26780000Y-4976000D01*
X26780000Y-4479437D01*
X26786957Y-4438487D01*
X26799775Y-4401858D01*
X26817039Y-4369193D01*
X26838705Y-4339836D01*
X26864834Y-4313706D01*
X26894194Y-4292037D01*
X26926868Y-4274770D01*
X26963091Y-4262095D01*
X26963483Y-4261958D01*
X27004435Y-4255000D01*
X27995561Y-4255000D01*
X28036513Y-4261957D01*
X28073130Y-4274771D01*
X28105804Y-4292038D01*
X28135164Y-4313706D01*
X28161298Y-4339841D01*
X28168883Y-4350118D01*
X28182957Y-4369189D01*
X28200223Y-4401858D01*
X28213039Y-4438478D01*
X28220000Y-4479439D01*
X28220000Y-5020558D01*
X28213042Y-5061512D01*
X28206031Y-5081548D01*
X28194500Y-5149416D01*
X28194500Y-6047106D01*
X28194724Y-6056703D01*
X28194865Y-6059718D01*
X28195000Y-6065499D01*
X28195000Y-6540302D01*
X28195466Y-6549784D01*
X28195989Y-6560446D01*
X28198370Y-6584624D01*
X28201329Y-6604576D01*
X28212665Y-6661569D01*
X28224360Y-6700122D01*
X28242873Y-6744816D01*
X28242881Y-6744832D01*
X28261855Y-6780332D01*
X28261866Y-6780350D01*
X28288653Y-6820440D01*
X28314211Y-6851581D01*
X28348412Y-6885783D01*
X28379564Y-6911349D01*
X28390426Y-6918606D01*
X28419654Y-6938135D01*
X28444584Y-6951461D01*
X28455178Y-6957124D01*
X28499872Y-6975637D01*
X28499874Y-6975637D01*
X28499875Y-6975638D01*
X28538426Y-6987332D01*
X28597928Y-6999168D01*
X28617874Y-7002127D01*
X28642065Y-7004510D01*
X28662211Y-7005500D01*
X29650500Y-7005500D01*
X29717539Y-7025185D01*
X29763294Y-7077989D01*
X29774500Y-7129500D01*
X29774500Y-7675500D01*
X29754815Y-7742539D01*
X29702011Y-7788294D01*
X29650500Y-7799500D01*
X28700323Y-7799500D01*
X28627264Y-7814032D01*
X28627257Y-7814035D01*
X28563234Y-7856813D01*
X28496557Y-7877690D01*
X28429177Y-7859205D01*
X28382487Y-7807225D01*
X28377304Y-7794666D01*
X28362883Y-7753454D01*
X28352793Y-7724618D01*
X28272150Y-7615350D01*
X28162882Y-7534707D01*
X28162880Y-7534706D01*
X28034700Y-7489853D01*
X28004270Y-7487000D01*
X28004266Y-7487000D01*
X26995734Y-7487000D01*
X26995730Y-7487000D01*
X26965300Y-7489853D01*
X26965298Y-7489853D01*
X26837119Y-7534706D01*
X26837117Y-7534707D01*
X26727850Y-7615350D01*
X26647207Y-7724617D01*
X26647206Y-7724619D01*
X26602353Y-7852798D01*
X26602353Y-7852800D01*
X26599500Y-7883230D01*
X26599500Y-8516769D01*
X26602353Y-8547199D01*
X26602353Y-8547201D01*
X26645906Y-8671664D01*
X26647207Y-8675382D01*
X26727850Y-8784650D01*
X26837118Y-8865293D01*
X26858132Y-8872646D01*
X26965299Y-8910146D01*
X26995730Y-8913000D01*
X26995734Y-8913000D01*
X28004270Y-8913000D01*
X28034699Y-8910146D01*
X28034701Y-8910146D01*
X28101207Y-8886874D01*
X28162882Y-8865293D01*
X28272150Y-8784650D01*
X28329179Y-8707377D01*
X28384826Y-8665127D01*
X28454482Y-8659668D01*
X28516032Y-8692735D01*
X28532048Y-8712116D01*
X28544399Y-8730601D01*
X28621513Y-8782126D01*
X28627260Y-8785966D01*
X28627264Y-8785967D01*
X28700321Y-8800499D01*
X28700324Y-8800500D01*
X29650500Y-8800500D01*
X29717539Y-8820185D01*
X29763294Y-8872989D01*
X29774500Y-8924500D01*
X29774500Y-9342831D01*
X29754815Y-9409870D01*
X29702011Y-9455625D01*
X29691456Y-9459872D01*
X29650476Y-9474211D01*
X29650475Y-9474212D01*
X29497737Y-9570184D01*
X29370184Y-9697737D01*
X29274211Y-9850476D01*
X29214631Y-10020745D01*
X29214630Y-10020750D01*
X29194435Y-10199996D01*
X29194435Y-10200003D01*
X29214630Y-10379249D01*
X29214631Y-10379254D01*
X29274211Y-10549523D01*
X29342467Y-10658151D01*
X29370184Y-10702262D01*
X29497738Y-10829816D01*
X29523197Y-10845813D01*
X29639679Y-10919004D01*
X29650478Y-10925789D01*
X29801375Y-10978590D01*
X29820745Y-10985368D01*
X29820750Y-10985369D01*
X29999996Y-11005565D01*
X30000000Y-11005565D01*
X30000004Y-11005565D01*
X30179249Y-10985369D01*
X30179252Y-10985368D01*
X30179255Y-10985368D01*
X30349522Y-10925789D01*
X30502262Y-10829816D01*
X30629816Y-10702262D01*
X30725789Y-10549522D01*
X30785368Y-10379255D01*
X30795061Y-10293216D01*
X30819905Y-10231618D01*
X30899536Y-10127841D01*
X30960044Y-9981762D01*
X30975500Y-9864361D01*
X30980682Y-9825000D01*
X30976561Y-9793697D01*
X30975500Y-9777512D01*
X30975500Y-9329500D01*
X30995185Y-9262461D01*
X31047989Y-9216706D01*
X31099500Y-9205500D01*
X32759736Y-9205500D01*
X32759745Y-9205500D01*
X32782407Y-9204247D01*
X32809589Y-9201231D01*
X32886639Y-9176672D01*
X32947733Y-9142770D01*
X32968924Y-9129253D01*
X33029050Y-9060339D01*
X33062117Y-8998790D01*
X33072638Y-8975958D01*
X33084168Y-8897646D01*
X33085960Y-8885479D01*
X33084378Y-8865292D01*
X33080501Y-8815821D01*
X33077008Y-8790930D01*
X33072155Y-8780208D01*
X33039301Y-8707613D01*
X33039297Y-8707607D01*
X33022165Y-8685043D01*
X32997049Y-8651963D01*
X32994802Y-8649747D01*
X32982108Y-8635098D01*
X32942040Y-8580806D01*
X32924770Y-8548129D01*
X32911959Y-8511518D01*
X32905000Y-8470563D01*
X32905000Y-7929437D01*
X32911957Y-7888487D01*
X32924775Y-7851858D01*
X32942039Y-7819193D01*
X32963705Y-7789836D01*
X32989834Y-7763706D01*
X33019194Y-7742037D01*
X33051868Y-7724770D01*
X33079850Y-7714978D01*
X33088483Y-7711958D01*
X33129435Y-7705000D01*
X34120561Y-7705000D01*
X34161513Y-7711957D01*
X34198130Y-7724771D01*
X34230804Y-7742038D01*
X34260164Y-7763706D01*
X34286298Y-7789841D01*
X34293427Y-7799500D01*
X34307957Y-7819189D01*
X34325223Y-7851858D01*
X34338039Y-7888478D01*
X34345000Y-7929439D01*
X34345000Y-8470559D01*
X34338041Y-8511513D01*
X34332174Y-8528282D01*
X34325227Y-8548134D01*
X34307957Y-8580810D01*
X34293794Y-8600001D01*
X34281853Y-8616181D01*
X34277722Y-8621778D01*
X34262144Y-8639181D01*
X34257024Y-8643916D01*
X34257020Y-8643920D01*
X34209612Y-8709430D01*
X34180590Y-8772978D01*
X34171562Y-8796450D01*
X34171561Y-8796453D01*
X34164108Y-8887596D01*
X34164108Y-8887598D01*
X34174052Y-8956754D01*
X34179145Y-8981372D01*
X34179145Y-8981373D01*
X34222154Y-9062083D01*
X34222156Y-9062086D01*
X34267915Y-9114895D01*
X34285497Y-9132839D01*
X34285501Y-9132843D01*
X34285502Y-9132844D01*
X34285504Y-9132845D01*
X34365314Y-9177488D01*
X34365318Y-9177490D01*
X34432357Y-9197175D01*
X34490255Y-9205500D01*
X34490259Y-9205500D01*
X36287777Y-9205500D01*
X36287789Y-9205500D01*
X36307936Y-9204510D01*
X36307952Y-9204508D01*
X36307957Y-9204508D01*
X36309865Y-9204319D01*
X36332125Y-9202127D01*
X36352069Y-9199168D01*
X36411573Y-9187332D01*
X36450123Y-9175638D01*
X36494820Y-9157124D01*
X36530351Y-9138133D01*
X36570441Y-9111345D01*
X36596335Y-9090093D01*
X36660644Y-9062781D01*
X36729512Y-9074572D01*
X36753665Y-9090094D01*
X36779564Y-9111349D01*
X36799301Y-9124536D01*
X36819654Y-9138135D01*
X36844584Y-9151461D01*
X36855178Y-9157124D01*
X36899872Y-9175637D01*
X36899874Y-9175637D01*
X36899875Y-9175638D01*
X36938426Y-9187332D01*
X36997928Y-9199168D01*
X37017874Y-9202127D01*
X37042065Y-9204510D01*
X37062211Y-9205500D01*
X37062223Y-9205500D01*
X42087777Y-9205500D01*
X42087789Y-9205500D01*
X42107936Y-9204510D01*
X42107952Y-9204508D01*
X42107957Y-9204508D01*
X42109865Y-9204319D01*
X42132125Y-9202127D01*
X42152069Y-9199168D01*
X42211573Y-9187332D01*
X42250123Y-9175638D01*
X42294820Y-9157124D01*
X42330351Y-9138133D01*
X42370441Y-9111345D01*
X42401577Y-9085792D01*
X42435789Y-9051581D01*
X42461349Y-9020436D01*
X42488135Y-8980347D01*
X42507124Y-8944820D01*
X42525638Y-8900123D01*
X42537332Y-8861575D01*
X42549168Y-8802075D01*
X42552127Y-8782126D01*
X42554510Y-8757933D01*
X42555500Y-8737789D01*
X42555500Y-5462210D01*
X42554510Y-5442064D01*
X42552127Y-5417873D01*
X42549168Y-5397927D01*
X42537332Y-5338425D01*
X42525637Y-5299873D01*
X42507123Y-5255178D01*
X42488135Y-5219654D01*
X42479325Y-5206469D01*
X42461349Y-5179564D01*
X42435783Y-5148412D01*
X42401581Y-5114211D01*
X42370440Y-5088653D01*
X42330348Y-5061865D01*
X42330349Y-5061865D01*
X42306656Y-5049201D01*
X42294812Y-5042871D01*
X42294810Y-5042870D01*
X42294809Y-5042869D01*
X42250125Y-5024362D01*
X42250122Y-5024361D01*
X42250117Y-5024359D01*
X42211570Y-5012666D01*
X42211565Y-5012665D01*
X42211562Y-5012664D01*
X42211563Y-5012664D01*
X42152066Y-5000830D01*
X42144524Y-4999711D01*
X42132126Y-4997873D01*
X42132112Y-4997871D01*
X42132108Y-4997871D01*
X42107939Y-4995490D01*
X42102898Y-4995242D01*
X42087789Y-4994500D01*
X40541649Y-4994500D01*
X40474610Y-4974815D01*
X40428855Y-4922011D01*
X40418911Y-4852853D01*
X40447936Y-4789297D01*
X40468015Y-4770730D01*
X40488652Y-4755499D01*
X40584650Y-4684650D01*
X40665293Y-4575382D01*
X40689495Y-4506216D01*
X40692317Y-4498152D01*
X40733038Y-4441376D01*
X40797991Y-4415629D01*
X40866553Y-4429085D01*
X40912458Y-4470213D01*
X40919399Y-4480601D01*
X41002260Y-4535966D01*
X41002264Y-4535967D01*
X41075321Y-4550499D01*
X41075324Y-4550500D01*
X41075326Y-4550500D01*
X42124676Y-4550500D01*
X42124677Y-4550499D01*
X42197740Y-4535966D01*
X42280601Y-4480601D01*
X42335966Y-4397740D01*
X42350500Y-4324674D01*
X42350500Y-3775326D01*
X42350500Y-3775323D01*
X42350499Y-3775321D01*
X42335967Y-3702264D01*
X42335966Y-3702260D01*
X42326332Y-3687842D01*
X42280601Y-3619399D01*
X42220975Y-3579559D01*
X42197739Y-3564033D01*
X42197735Y-3564032D01*
X42124677Y-3549500D01*
X42124674Y-3549500D01*
X42049500Y-3549500D01*
X41982461Y-3529815D01*
X41936706Y-3477011D01*
X41925500Y-3425500D01*
X41925500Y-3142980D01*
X41945185Y-3075941D01*
X41975867Y-3043210D01*
X42034414Y-3000000D01*
X42072150Y-2972150D01*
X42152793Y-2862882D01*
X42181414Y-2781087D01*
X42197646Y-2734701D01*
X42197646Y-2734699D01*
X42200500Y-2704269D01*
X42200500Y-1699998D01*
X44902704Y-1699998D01*
X44902705Y-1700000D01*
X45812500Y-1700000D01*
X45812500Y-1150000D01*
X46312500Y-1150000D01*
X46312500Y-1700000D01*
X47222295Y-1700000D01*
X47222295Y-1699998D01*
X47222100Y-1697513D01*
X47176281Y-1539801D01*
X47092685Y-1398447D01*
X47092678Y-1398438D01*
X46976561Y-1282321D01*
X46976552Y-1282314D01*
X46835196Y-1198717D01*
X46835193Y-1198716D01*
X46677495Y-1152900D01*
X46677489Y-1152899D01*
X46640649Y-1150000D01*
X46312500Y-1150000D01*
X45812500Y-1150000D01*
X45484350Y-1150000D01*
X45447510Y-1152899D01*
X45447504Y-1152900D01*
X45289806Y-1198716D01*
X45289803Y-1198717D01*
X45148447Y-1282314D01*
X45148438Y-1282321D01*
X45032321Y-1398438D01*
X45032314Y-1398447D01*
X44948718Y-1539801D01*
X44902899Y-1697513D01*
X44902704Y-1699998D01*
X42200500Y-1699998D01*
X42200500Y-1695730D01*
X42197646Y-1665300D01*
X42197645Y-1665296D01*
X42197525Y-1664952D01*
X42197511Y-1664681D01*
X42196036Y-1657927D01*
X42197154Y-1657682D01*
X42193964Y-1595173D01*
X42228694Y-1534547D01*
X42290688Y-1502321D01*
X42314567Y-1500000D01*
X43292886Y-1500000D01*
X43292893Y-1500000D01*
X43500000Y-1500000D01*
X44347809Y-652190D01*
X44359996Y-641503D01*
X44444157Y-576924D01*
X44472191Y-560739D01*
X44562616Y-523284D01*
X44593882Y-514906D01*
X44699048Y-501061D01*
X44715233Y-500000D01*
X54991874Y-500000D01*
X55008059Y-501061D01*
X55113223Y-514906D01*
X55144491Y-523284D01*
X55234918Y-560740D01*
X55262952Y-576925D01*
X55340602Y-636509D01*
X55363491Y-659398D01*
X55423074Y-737048D01*
X55439259Y-765081D01*
X55476715Y-855508D01*
X55485093Y-886775D01*
X55498939Y-991939D01*
X55500000Y-1008125D01*
X55500000Y-9284767D01*
X55498939Y-9300953D01*
X55485093Y-9406117D01*
X55476715Y-9437383D01*
X55439260Y-9527808D01*
X55423075Y-9555842D01*
X55358496Y-9640003D01*
X55347801Y-9652198D01*
X54646451Y-10353547D01*
X54646445Y-10353554D01*
X54646441Y-10353558D01*
X54500000Y-10500000D01*
X54500000Y-34500000D01*
X54646445Y-34646445D01*
X54646451Y-34646452D01*
X55347801Y-35347801D01*
X55358496Y-35359996D01*
X55423075Y-35444157D01*
X55439260Y-35472191D01*
X55476715Y-35562616D01*
X55485093Y-35593882D01*
X55498939Y-35699046D01*
X55500000Y-35715232D01*
X55500000Y-42991874D01*
X55498939Y-43008060D01*
X55485093Y-43113224D01*
X55476715Y-43144491D01*
X55439259Y-43234918D01*
X55423074Y-43262951D01*
X55363491Y-43340601D01*
X55340601Y-43363491D01*
X55262951Y-43423074D01*
X55234918Y-43439259D01*
X55144491Y-43476715D01*
X55113224Y-43485093D01*
X55019398Y-43497446D01*
X55008058Y-43498939D01*
X54991874Y-43500000D01*
X44715233Y-43500000D01*
X44699048Y-43498939D01*
X44686024Y-43497224D01*
X44593882Y-43485093D01*
X44562616Y-43476715D01*
X44472191Y-43439260D01*
X44444157Y-43423075D01*
X44359996Y-43358496D01*
X44347801Y-43347801D01*
X43646452Y-42646451D01*
X43646445Y-42646445D01*
X43500000Y-42500000D01*
X43292893Y-42500000D01*
X43292886Y-42500000D01*
X13707114Y-42500000D01*
X13707107Y-42500000D01*
X13500000Y-42500000D01*
X13353558Y-42646441D01*
X13353554Y-42646445D01*
X13353547Y-42646451D01*
X12652198Y-43347801D01*
X12640003Y-43358496D01*
X12555842Y-43423075D01*
X12527808Y-43439260D01*
X12437383Y-43476715D01*
X12406117Y-43485093D01*
X12312291Y-43497446D01*
X12300951Y-43498939D01*
X12284767Y-43500000D01*
X1008126Y-43500000D01*
X991941Y-43498939D01*
X978917Y-43497224D01*
X886775Y-43485093D01*
X855508Y-43476715D01*
X765081Y-43439259D01*
X737048Y-43423074D01*
X659398Y-43363491D01*
X636508Y-43340601D01*
X576925Y-43262951D01*
X560740Y-43234918D01*
X523284Y-43144491D01*
X514906Y-43113223D01*
X501061Y-43008059D01*
X500000Y-42991874D01*
X500000Y-35715232D01*
X501061Y-35699047D01*
X514906Y-35593883D01*
X523284Y-35562616D01*
X560739Y-35472191D01*
X576924Y-35444157D01*
X641503Y-35359996D01*
X652190Y-35347809D01*
X1353553Y-34646447D01*
X1500000Y-34500000D01*
X1500000Y-10500000D01*
X1500000Y-6650000D01*
X4200000Y-6650000D01*
X4200000Y-6697844D01*
X4206401Y-6757372D01*
X4206403Y-6757379D01*
X4256645Y-6892086D01*
X4256649Y-6892093D01*
X4342809Y-7007187D01*
X4342812Y-7007190D01*
X4457906Y-7093350D01*
X4457913Y-7093354D01*
X4592620Y-7143596D01*
X4592627Y-7143598D01*
X4652155Y-7149999D01*
X4652172Y-7150000D01*
X5175000Y-7150000D01*
X5175000Y-6650000D01*
X5575000Y-6650000D01*
X5575000Y-7150000D01*
X6097828Y-7150000D01*
X6097844Y-7149999D01*
X6157372Y-7143598D01*
X6157379Y-7143596D01*
X6292086Y-7093354D01*
X6292093Y-7093350D01*
X6407187Y-7007190D01*
X6407190Y-7007187D01*
X6493350Y-6892093D01*
X6493354Y-6892086D01*
X6543596Y-6757379D01*
X6543598Y-6757372D01*
X6549999Y-6697844D01*
X6550000Y-6697827D01*
X6550000Y-6650000D01*
X5575000Y-6650000D01*
X5175000Y-6650000D01*
X4200000Y-6650000D01*
X1500000Y-6650000D01*
X1500000Y-6250000D01*
X4200000Y-6250000D01*
X6550000Y-6250000D01*
X6550000Y-6202172D01*
X6549999Y-6202155D01*
X6543598Y-6142627D01*
X6543596Y-6142620D01*
X6493354Y-6007913D01*
X6493350Y-6007906D01*
X6407190Y-5892812D01*
X6300188Y-5812709D01*
X6258318Y-5756775D01*
X6250500Y-5713443D01*
X6250500Y-5580249D01*
X6250499Y-5580247D01*
X6236485Y-5509790D01*
X6237762Y-5509535D01*
X6231680Y-5452991D01*
X6238694Y-5429100D01*
X6239574Y-5424676D01*
X6250500Y-5369748D01*
X6250500Y-4930252D01*
X6250500Y-4930249D01*
X6250499Y-4930247D01*
X6236485Y-4859790D01*
X6237762Y-4859535D01*
X6231680Y-4802991D01*
X6238694Y-4779100D01*
X6239986Y-4772607D01*
X6250500Y-4719748D01*
X6250500Y-4616254D01*
X6270185Y-4549215D01*
X6322989Y-4503460D01*
X6392147Y-4493516D01*
X6455703Y-4522541D01*
X6462181Y-4528573D01*
X6511658Y-4578050D01*
X6531395Y-4588106D01*
X6547981Y-4598269D01*
X6565910Y-4611296D01*
X6565912Y-4611296D01*
X6565913Y-4611297D01*
X6586974Y-4618140D01*
X6604953Y-4625586D01*
X6624696Y-4635646D01*
X6646585Y-4639112D01*
X6665501Y-4643653D01*
X6686567Y-4650499D01*
X6713346Y-4650499D01*
X6713370Y-4650500D01*
X6718481Y-4650500D01*
X6862935Y-4650500D01*
X6929974Y-4670185D01*
X6935624Y-4674738D01*
X6944399Y-4680601D01*
X7027260Y-4735966D01*
X7027263Y-4735966D01*
X7027264Y-4735967D01*
X7100321Y-4750499D01*
X7100324Y-4750500D01*
X7100326Y-4750500D01*
X8149673Y-4750500D01*
X8149674Y-4750500D01*
X8151302Y-4750176D01*
X8152173Y-4750254D01*
X8155739Y-4749903D01*
X8155805Y-4750578D01*
X8220893Y-4756399D01*
X8276073Y-4799259D01*
X8299322Y-4865148D01*
X8299500Y-4871792D01*
X8299500Y-6482745D01*
X8279815Y-6549784D01*
X8263181Y-6570426D01*
X7845426Y-6988181D01*
X7784103Y-7021666D01*
X7757745Y-7024500D01*
X7295730Y-7024500D01*
X7265300Y-7027353D01*
X7265298Y-7027353D01*
X7137119Y-7072206D01*
X7137117Y-7072207D01*
X7027850Y-7152850D01*
X6947207Y-7262117D01*
X6947206Y-7262119D01*
X6902353Y-7390298D01*
X6902353Y-7390300D01*
X6899500Y-7420730D01*
X6899500Y-8479269D01*
X6902353Y-8509699D01*
X6902353Y-8509701D01*
X6946233Y-8635098D01*
X6947207Y-8637882D01*
X7027850Y-8747150D01*
X7137118Y-8827793D01*
X7179845Y-8842744D01*
X7265299Y-8872646D01*
X7295730Y-8875500D01*
X7295734Y-8875500D01*
X7904270Y-8875500D01*
X7934699Y-8872646D01*
X7934701Y-8872646D01*
X8006031Y-8847686D01*
X8062882Y-8827793D01*
X8172150Y-8747150D01*
X8252793Y-8637882D01*
X8284524Y-8547201D01*
X8297646Y-8509701D01*
X8297646Y-8509699D01*
X8300500Y-8479269D01*
X8300500Y-7717255D01*
X8320185Y-7650216D01*
X8336819Y-7629574D01*
X9012552Y-6953841D01*
X9012557Y-6953834D01*
X9028050Y-6938342D01*
X9038114Y-6918588D01*
X9048263Y-6902026D01*
X9061296Y-6884090D01*
X9068144Y-6863011D01*
X9075586Y-6845044D01*
X9085646Y-6825304D01*
X9089112Y-6803417D01*
X9093655Y-6784498D01*
X9095003Y-6780350D01*
X9100500Y-6763433D01*
X9100500Y-6636567D01*
X9100500Y-6424678D01*
X9474500Y-6424678D01*
X9489032Y-6497735D01*
X9489033Y-6497739D01*
X9504241Y-6520500D01*
X9544399Y-6580601D01*
X9623261Y-6633294D01*
X9627260Y-6635966D01*
X9627264Y-6635967D01*
X9700321Y-6650499D01*
X9700324Y-6650500D01*
X9700326Y-6650500D01*
X10749676Y-6650500D01*
X10749677Y-6650499D01*
X10822740Y-6635966D01*
X10905601Y-6580601D01*
X10960966Y-6497740D01*
X10975500Y-6424674D01*
X10975500Y-5875326D01*
X10975500Y-5875323D01*
X10975499Y-5875321D01*
X10960967Y-5802264D01*
X10960966Y-5802260D01*
X10952553Y-5789669D01*
X10905601Y-5719399D01*
X10840107Y-5675638D01*
X10822739Y-5664033D01*
X10822735Y-5664032D01*
X10749677Y-5649500D01*
X10749674Y-5649500D01*
X9700326Y-5649500D01*
X9700323Y-5649500D01*
X9627264Y-5664032D01*
X9627260Y-5664033D01*
X9544399Y-5719399D01*
X9489033Y-5802260D01*
X9489032Y-5802264D01*
X9474500Y-5875321D01*
X9474500Y-6424678D01*
X9100500Y-6424678D01*
X9100500Y-4568481D01*
X9100500Y-4536567D01*
X9093653Y-4515497D01*
X9089111Y-4496577D01*
X9088782Y-4494500D01*
X9085646Y-4474696D01*
X9075584Y-4454949D01*
X9068140Y-4436976D01*
X9064687Y-4426349D01*
X9061296Y-4415911D01*
X9061091Y-4415629D01*
X9048274Y-4397987D01*
X9038108Y-4381398D01*
X9028050Y-4361658D01*
X9009825Y-4343433D01*
X9009807Y-4343413D01*
X8607813Y-3941419D01*
X8607782Y-3941390D01*
X8588342Y-3921950D01*
X8588340Y-3921949D01*
X8568600Y-3911890D01*
X8552014Y-3901726D01*
X8534090Y-3888704D01*
X8534091Y-3888704D01*
X8513018Y-3881857D01*
X8495045Y-3874412D01*
X8475307Y-3864355D01*
X8475304Y-3864354D01*
X8453418Y-3860887D01*
X8434507Y-3856346D01*
X8413439Y-3849501D01*
X8413434Y-3849500D01*
X8413433Y-3849500D01*
X8413429Y-3849500D01*
X8387065Y-3849500D01*
X8320026Y-3829815D01*
X8314375Y-3825261D01*
X8251469Y-3783230D01*
X8222740Y-3764034D01*
X8222738Y-3764033D01*
X8222735Y-3764032D01*
X8149677Y-3749500D01*
X8149674Y-3749500D01*
X7100326Y-3749500D01*
X7100323Y-3749500D01*
X7027264Y-3764032D01*
X7027257Y-3764034D01*
X6993877Y-3786338D01*
X6927199Y-3807214D01*
X6859819Y-3788728D01*
X6837308Y-3770915D01*
X6607813Y-3541419D01*
X6607782Y-3541390D01*
X6588342Y-3521950D01*
X6588340Y-3521949D01*
X6568600Y-3511890D01*
X6552014Y-3501726D01*
X6534090Y-3488704D01*
X6534091Y-3488704D01*
X6513018Y-3481857D01*
X6495045Y-3474412D01*
X6475307Y-3464355D01*
X6475304Y-3464354D01*
X6453418Y-3460887D01*
X6434507Y-3456346D01*
X6413439Y-3449501D01*
X6413434Y-3449500D01*
X6413433Y-3449500D01*
X6381519Y-3449500D01*
X6069748Y-3449500D01*
X4680252Y-3449500D01*
X4680247Y-3449500D01*
X4621770Y-3461131D01*
X4621769Y-3461132D01*
X4555447Y-3505447D01*
X4511132Y-3571769D01*
X4511131Y-3571770D01*
X4499500Y-3630247D01*
X4499500Y-4069752D01*
X4513515Y-4140209D01*
X4512239Y-4140462D01*
X4518317Y-4197023D01*
X4511303Y-4220910D01*
X4499500Y-4280247D01*
X4499500Y-4719752D01*
X4513515Y-4790209D01*
X4512239Y-4790462D01*
X4518317Y-4847023D01*
X4511303Y-4870910D01*
X4499500Y-4930247D01*
X4499500Y-5369752D01*
X4513515Y-5440209D01*
X4512239Y-5440462D01*
X4518317Y-5497023D01*
X4511303Y-5520910D01*
X4499500Y-5580247D01*
X4499500Y-5713443D01*
X4479815Y-5780482D01*
X4449812Y-5812709D01*
X4342809Y-5892812D01*
X4256649Y-6007906D01*
X4256645Y-6007913D01*
X4206403Y-6142620D01*
X4206401Y-6142627D01*
X4200000Y-6202155D01*
X4200000Y-6250000D01*
X1500000Y-6250000D01*
X1500000Y-1008125D01*
X1501061Y-991940D01*
X1514906Y-886776D01*
X1523284Y-855508D01*
X1560740Y-765081D01*
X1576923Y-737050D01*
X1636513Y-659392D01*
X1659392Y-636513D01*
X1737050Y-576923D01*
X1765079Y-560740D01*
X1855509Y-523283D01*
X1886775Y-514906D01*
X1991941Y-501061D01*
X2008126Y-500000D01*
X12284767Y-500000D01*
X12300952Y-501061D01*
G37*
%TD.AperFunction*%
%TA.AperFunction,Conductor*%
G36*
X40727472Y-1519685D02*
G01*
X40773227Y-1572489D01*
X40783171Y-1641647D01*
X40777475Y-1664952D01*
X40777354Y-1665296D01*
X40777353Y-1665300D01*
X40774500Y-1695730D01*
X40774500Y-2704269D01*
X40777353Y-2734699D01*
X40777353Y-2734701D01*
X40822206Y-2862880D01*
X40822207Y-2862882D01*
X40902850Y-2972150D01*
X41012118Y-3052793D01*
X41023461Y-3056762D01*
X41140295Y-3097645D01*
X41140299Y-3097645D01*
X41140301Y-3097646D01*
X41162078Y-3099688D01*
X41226984Y-3125544D01*
X41267610Y-3182388D01*
X41274500Y-3223146D01*
X41274500Y-3425500D01*
X41254815Y-3492539D01*
X41202011Y-3538294D01*
X41150500Y-3549500D01*
X41075323Y-3549500D01*
X41002264Y-3564032D01*
X41002260Y-3564033D01*
X40919399Y-3619399D01*
X40889495Y-3664154D01*
X40835882Y-3708958D01*
X40766557Y-3717665D01*
X40703530Y-3687510D01*
X40669351Y-3636214D01*
X40665295Y-3624621D01*
X40665293Y-3624618D01*
X40658810Y-3615834D01*
X40584650Y-3515350D01*
X40475382Y-3434707D01*
X40475380Y-3434706D01*
X40347200Y-3389853D01*
X40316770Y-3387000D01*
X40316766Y-3387000D01*
X39308234Y-3387000D01*
X39308230Y-3387000D01*
X39277800Y-3389853D01*
X39277798Y-3389853D01*
X39149619Y-3434706D01*
X39149617Y-3434707D01*
X39040350Y-3515350D01*
X38959707Y-3624617D01*
X38959706Y-3624619D01*
X38914853Y-3752798D01*
X38914853Y-3752800D01*
X38912000Y-3783230D01*
X38912000Y-4416769D01*
X38914853Y-4447199D01*
X38914853Y-4447201D01*
X38957292Y-4568481D01*
X38959707Y-4575382D01*
X39040350Y-4684650D01*
X39149618Y-4765293D01*
X39149625Y-4765295D01*
X39151794Y-4766442D01*
X39153737Y-4768333D01*
X39157095Y-4770811D01*
X39156756Y-4771270D01*
X39201871Y-4815167D01*
X39217656Y-4883230D01*
X39194136Y-4949022D01*
X39138781Y-4991655D01*
X39112059Y-4998735D01*
X39097951Y-5000827D01*
X39038415Y-5012669D01*
X38999893Y-5024354D01*
X38999876Y-5024360D01*
X38955196Y-5042866D01*
X38955177Y-5042875D01*
X38919669Y-5061853D01*
X38919650Y-5061865D01*
X38900198Y-5074862D01*
X38833520Y-5095738D01*
X38766140Y-5077252D01*
X38728208Y-5040648D01*
X38680602Y-4969400D01*
X38680599Y-4969398D01*
X38633879Y-4938181D01*
X38597739Y-4914033D01*
X38597735Y-4914032D01*
X38524677Y-4899500D01*
X38524674Y-4899500D01*
X38249500Y-4899500D01*
X38182461Y-4879815D01*
X38136706Y-4827011D01*
X38125500Y-4775500D01*
X38125500Y-4468298D01*
X38145185Y-4401259D01*
X38174010Y-4369925D01*
X38228282Y-4328282D01*
X38324536Y-4202841D01*
X38385044Y-4056762D01*
X38404700Y-3907462D01*
X38405682Y-3900001D01*
X38405682Y-3899998D01*
X38387782Y-3764034D01*
X38385044Y-3743238D01*
X38324536Y-3597159D01*
X38228282Y-3471718D01*
X38102841Y-3375464D01*
X38101274Y-3374815D01*
X37956762Y-3314956D01*
X37956760Y-3314955D01*
X37800001Y-3294318D01*
X37799999Y-3294318D01*
X37643239Y-3314955D01*
X37643237Y-3314956D01*
X37497160Y-3375463D01*
X37371718Y-3471718D01*
X37275463Y-3597160D01*
X37214956Y-3743237D01*
X37214955Y-3743239D01*
X37194318Y-3899998D01*
X37194318Y-3900001D01*
X37214955Y-4056760D01*
X37214956Y-4056762D01*
X37261347Y-4168761D01*
X37275464Y-4202841D01*
X37371718Y-4328282D01*
X37425987Y-4369924D01*
X37467189Y-4426349D01*
X37474500Y-4468298D01*
X37474500Y-4801256D01*
X37454815Y-4868295D01*
X37411478Y-4905846D01*
X37412415Y-4907248D01*
X37319399Y-4969398D01*
X37264033Y-5052260D01*
X37264032Y-5052264D01*
X37249500Y-5125321D01*
X37249500Y-5674678D01*
X37264032Y-5747735D01*
X37264033Y-5747739D01*
X37264034Y-5747740D01*
X37319399Y-5830601D01*
X37386336Y-5875326D01*
X37402260Y-5885966D01*
X37402264Y-5885967D01*
X37475321Y-5900499D01*
X37475324Y-5900500D01*
X37475326Y-5900500D01*
X38524676Y-5900500D01*
X38546308Y-5896197D01*
X38615899Y-5902424D01*
X38671077Y-5945286D01*
X38694322Y-6011176D01*
X38694500Y-6017814D01*
X38694500Y-6520500D01*
X38674815Y-6587539D01*
X38622011Y-6633294D01*
X38570500Y-6644500D01*
X38535824Y-6644500D01*
X38525767Y-6644747D01*
X38523657Y-6644851D01*
X38517583Y-6645000D01*
X37482417Y-6645000D01*
X37476343Y-6644851D01*
X37474232Y-6644747D01*
X37464176Y-6644500D01*
X37464158Y-6644500D01*
X37062211Y-6644500D01*
X37050704Y-6645065D01*
X37042066Y-6645489D01*
X37017923Y-6647866D01*
X37017899Y-6647869D01*
X37017892Y-6647869D01*
X37017892Y-6647870D01*
X37017872Y-6647873D01*
X37000162Y-6650500D01*
X36997937Y-6650830D01*
X36968320Y-6656721D01*
X36938415Y-6662669D01*
X36899893Y-6674354D01*
X36899876Y-6674360D01*
X36855196Y-6692866D01*
X36855177Y-6692875D01*
X36819669Y-6711853D01*
X36819656Y-6711861D01*
X36779551Y-6738658D01*
X36753660Y-6759906D01*
X36689350Y-6787218D01*
X36620482Y-6775424D01*
X36596332Y-6759903D01*
X36570440Y-6738653D01*
X36530348Y-6711865D01*
X36530349Y-6711865D01*
X36502816Y-6697149D01*
X36494812Y-6692871D01*
X36494810Y-6692870D01*
X36494809Y-6692869D01*
X36450125Y-6674362D01*
X36450122Y-6674361D01*
X36450117Y-6674359D01*
X36411570Y-6662666D01*
X36411565Y-6662665D01*
X36411562Y-6662664D01*
X36411563Y-6662664D01*
X36352066Y-6650830D01*
X36344524Y-6649711D01*
X36332126Y-6647873D01*
X36332112Y-6647871D01*
X36332108Y-6647871D01*
X36307939Y-6645490D01*
X36302898Y-6645242D01*
X36287789Y-6644500D01*
X36287777Y-6644500D01*
X34979500Y-6644500D01*
X34912461Y-6624815D01*
X34866706Y-6572011D01*
X34855500Y-6520500D01*
X34855500Y-6024500D01*
X34875185Y-5957461D01*
X34927989Y-5911706D01*
X34979500Y-5900500D01*
X35924676Y-5900500D01*
X35924677Y-5900499D01*
X35997740Y-5885966D01*
X36080601Y-5830601D01*
X36135966Y-5747740D01*
X36150500Y-5674674D01*
X36150500Y-5125326D01*
X36150500Y-5125323D01*
X36150499Y-5125321D01*
X36135967Y-5052264D01*
X36135966Y-5052260D01*
X36129695Y-5042875D01*
X36080601Y-4969399D01*
X35997740Y-4914034D01*
X35997739Y-4914033D01*
X35997735Y-4914032D01*
X35924677Y-4899500D01*
X35924674Y-4899500D01*
X34979500Y-4899500D01*
X34912461Y-4879815D01*
X34866706Y-4827011D01*
X34855500Y-4775500D01*
X34855500Y-3612221D01*
X34855500Y-3612210D01*
X34854510Y-3592064D01*
X34852127Y-3567873D01*
X34849168Y-3547927D01*
X34849161Y-3547895D01*
X34848905Y-3546411D01*
X34849550Y-3546299D01*
X34855524Y-3479159D01*
X34898358Y-3423960D01*
X34964236Y-3400681D01*
X34970937Y-3400500D01*
X36183261Y-3400500D01*
X36205971Y-3397191D01*
X36251393Y-3390573D01*
X36356483Y-3339198D01*
X36439198Y-3256483D01*
X36490573Y-3151393D01*
X36500500Y-3083260D01*
X36500500Y-2716740D01*
X36490573Y-2648607D01*
X36439198Y-2543517D01*
X36439196Y-2543515D01*
X36439196Y-2543514D01*
X36356485Y-2460803D01*
X36251391Y-2409426D01*
X36183261Y-2399500D01*
X36183260Y-2399500D01*
X35598299Y-2399500D01*
X34717369Y-2399500D01*
X34650330Y-2379815D01*
X34604575Y-2327011D01*
X34594631Y-2257853D01*
X34605968Y-2221040D01*
X34612878Y-2206905D01*
X34615573Y-2201393D01*
X34625500Y-2133260D01*
X34625500Y-1766740D01*
X34615573Y-1698607D01*
X34615244Y-1697933D01*
X34605724Y-1678459D01*
X34593966Y-1609586D01*
X34621310Y-1545289D01*
X34679074Y-1505982D01*
X34717125Y-1500000D01*
X40660433Y-1500000D01*
X40727472Y-1519685D01*
G37*
%TD.AperFunction*%
%TA.AperFunction,Conductor*%
G36*
X30707024Y-3252843D02*
G01*
X30719505Y-3263658D01*
X30725969Y-3269677D01*
X30735513Y-3279221D01*
X30735519Y-3279226D01*
X30735522Y-3279228D01*
X30746313Y-3287306D01*
X30753206Y-3292860D01*
X30760869Y-3299500D01*
X30790733Y-3325377D01*
X30795116Y-3327379D01*
X30817913Y-3340905D01*
X30821775Y-3343796D01*
X30868318Y-3361155D01*
X30876466Y-3364530D01*
X30898986Y-3374815D01*
X30921646Y-3385164D01*
X30921647Y-3385164D01*
X30921649Y-3385165D01*
X30926418Y-3385850D01*
X30952108Y-3392407D01*
X30956623Y-3394091D01*
X31006155Y-3397633D01*
X31014949Y-3398579D01*
X31028307Y-3400500D01*
X31041798Y-3400500D01*
X31050644Y-3400815D01*
X31100179Y-3404359D01*
X31104891Y-3403334D01*
X31131249Y-3400500D01*
X32429062Y-3400500D01*
X32496101Y-3420185D01*
X32541856Y-3472989D01*
X32551800Y-3542147D01*
X32551068Y-3546412D01*
X32551093Y-3546417D01*
X32550829Y-3547936D01*
X32547872Y-3567872D01*
X32545490Y-3592059D01*
X32545490Y-3592064D01*
X32544500Y-3612210D01*
X32544500Y-3612221D01*
X32544500Y-4370500D01*
X32524815Y-4437539D01*
X32472011Y-4483294D01*
X32420500Y-4494500D01*
X30862211Y-4494500D01*
X30850704Y-4495065D01*
X30842066Y-4495489D01*
X30817923Y-4497866D01*
X30817899Y-4497869D01*
X30817892Y-4497869D01*
X30817892Y-4497870D01*
X30797937Y-4500830D01*
X30770860Y-4506216D01*
X30738415Y-4512669D01*
X30699893Y-4524354D01*
X30699875Y-4524360D01*
X30670436Y-4536554D01*
X30600966Y-4544021D01*
X30538488Y-4512745D01*
X30502837Y-4452655D01*
X30500827Y-4443282D01*
X30499728Y-4436976D01*
X30495137Y-4410634D01*
X30494799Y-4408746D01*
X30465155Y-4339841D01*
X30458657Y-4324737D01*
X30458656Y-4324735D01*
X30443030Y-4303334D01*
X30417455Y-4268308D01*
X30376588Y-4226456D01*
X30345809Y-4202839D01*
X30331230Y-4191652D01*
X30308339Y-4168761D01*
X30304710Y-4164032D01*
X30264905Y-4112155D01*
X30248721Y-4084123D01*
X30221413Y-4018196D01*
X30213035Y-3986928D01*
X30211507Y-3975323D01*
X30203721Y-3916178D01*
X30203721Y-3883818D01*
X30213034Y-3813067D01*
X30221412Y-3781803D01*
X30236939Y-3744318D01*
X30248721Y-3715872D01*
X30264897Y-3687852D01*
X30308347Y-3631227D01*
X30331228Y-3608347D01*
X30376590Y-3573541D01*
X30402726Y-3549639D01*
X30429316Y-3520736D01*
X30431497Y-3518365D01*
X30431552Y-3518305D01*
X30432843Y-3516888D01*
X30477490Y-3437071D01*
X30497175Y-3370032D01*
X30503087Y-3328908D01*
X30532113Y-3265356D01*
X30590891Y-3227582D01*
X30660761Y-3227582D01*
X30707024Y-3252843D01*
G37*
%TD.AperFunction*%
%TD*%
M02*
