M48
; DRILL file {KiCad 8.0.5} date 2024-10-15T13:19:14+1100
; FORMAT={-:-/ absolute / metric / decimal}
; #@! TF.CreationDate,2024-10-15T13:19:14+11:00
; #@! TF.GenerationSoftware,Kicad,Pcbnew,8.0.5
; #@! TF.FileFunction,Plated,1,2,PTH
FMAT,2
METRIC
; #@! TA.AperFunction,Plated,PTH,ViaDrill
T1C0.400
; #@! TA.AperFunction,Plated,PTH,ComponentDrill
T2C0.550
; #@! TA.AperFunction,Plated,PTH,ViaDrill
T3C0.600
; #@! TA.AperFunction,Plated,PTH,ComponentDrill
T4C0.600
%
G90
G05
T1
X2.5Y-42.0
X5.0Y-13.5
X5.0Y-22.0
X5.0Y-32.5
X7.25Y-2.25
X9.55Y-9.6
X11.0Y-5.2
X11.1Y-9.6
X15.1Y-6.1
X18.7Y-6.15
X20.0Y-40.5
X20.05Y-6.15
X20.3Y-3.55
X21.4Y-2.9
X21.4Y-6.15
X21.8Y-9.6
X24.6Y-6.4
X28.5Y-7.6
X36.0Y-40.5
X37.7Y-9.0
X47.0Y-1.4
X47.4Y-9.4
X50.1Y-6.9
X50.15Y-2.55
X51.0Y-15.0
X51.0Y-22.0
X51.0Y-30.0
X51.0Y-42.0
T3
X30.0Y-10.2
T2
G00X3.025Y-1.625
M15
G01X2.375Y-1.625
M16
G05
G00X2.375Y-8.675
M15
G01X3.025Y-8.675
M16
G05
T4
G00X5.4Y-2.5
M15
G01X5.4Y-2.8
M16
G05
G00X5.4Y-7.5
M15
G01X5.4Y-7.8
M16
G05
M30
