%TF.GenerationSoftware,KiCad,Pcbnew,8.0.5*%
%TF.CreationDate,2024-09-24T14:58:59+10:00*%
%TF.ProjectId,cphp82001-pcb,63706870-3832-4303-9031-2d7063622e6b,4.0*%
%TF.SameCoordinates,Original*%
%TF.FileFunction,Legend,Bot*%
%TF.FilePolarity,Positive*%
%FSLAX46Y46*%
G04 Gerber Fmt 4.6, Leading zero omitted, Abs format (unit mm)*
G04 Created by KiCad (PCBNEW 8.0.5) date 2024-09-24 14:58:59*
%MOMM*%
%LPD*%
G01*
G04 APERTURE LIST*
%ADD10C,0.150000*%
%ADD11C,1.000000*%
%ADD12C,0.400000*%
%ADD13C,0.120000*%
%ADD14C,0.000000*%
%ADD15C,0.010000*%
G04 APERTURE END LIST*
D10*
X30000000Y-11500000D02*
X44500000Y-11500000D01*
X44500000Y-15000000D01*
X30000000Y-15000000D01*
X30000000Y-11500000D01*
G36*
X30000000Y-11500000D02*
G01*
X44500000Y-11500000D01*
X44500000Y-15000000D01*
X30000000Y-15000000D01*
X30000000Y-11500000D01*
G37*
D11*
X9904761Y-14456333D02*
X6095238Y-14456333D01*
D10*
X43753696Y-10444580D02*
X43791792Y-10492200D01*
X43791792Y-10492200D02*
X43906077Y-10539819D01*
X43906077Y-10539819D02*
X43982268Y-10539819D01*
X43982268Y-10539819D02*
X44096554Y-10492200D01*
X44096554Y-10492200D02*
X44172744Y-10396961D01*
X44172744Y-10396961D02*
X44210839Y-10301723D01*
X44210839Y-10301723D02*
X44248935Y-10111247D01*
X44248935Y-10111247D02*
X44248935Y-9968390D01*
X44248935Y-9968390D02*
X44210839Y-9777914D01*
X44210839Y-9777914D02*
X44172744Y-9682676D01*
X44172744Y-9682676D02*
X44096554Y-9587438D01*
X44096554Y-9587438D02*
X43982268Y-9539819D01*
X43982268Y-9539819D02*
X43906077Y-9539819D01*
X43906077Y-9539819D02*
X43791792Y-9587438D01*
X43791792Y-9587438D02*
X43753696Y-9635057D01*
X43410839Y-10539819D02*
X43410839Y-9539819D01*
X43410839Y-9539819D02*
X43106077Y-9539819D01*
X43106077Y-9539819D02*
X43029887Y-9587438D01*
X43029887Y-9587438D02*
X42991792Y-9635057D01*
X42991792Y-9635057D02*
X42953696Y-9730295D01*
X42953696Y-9730295D02*
X42953696Y-9873152D01*
X42953696Y-9873152D02*
X42991792Y-9968390D01*
X42991792Y-9968390D02*
X43029887Y-10016009D01*
X43029887Y-10016009D02*
X43106077Y-10063628D01*
X43106077Y-10063628D02*
X43410839Y-10063628D01*
X42610839Y-10539819D02*
X42610839Y-9539819D01*
X42610839Y-10016009D02*
X42153696Y-10016009D01*
X42153696Y-10539819D02*
X42153696Y-9539819D01*
X41772744Y-10539819D02*
X41772744Y-9539819D01*
X41772744Y-9539819D02*
X41467982Y-9539819D01*
X41467982Y-9539819D02*
X41391792Y-9587438D01*
X41391792Y-9587438D02*
X41353697Y-9635057D01*
X41353697Y-9635057D02*
X41315601Y-9730295D01*
X41315601Y-9730295D02*
X41315601Y-9873152D01*
X41315601Y-9873152D02*
X41353697Y-9968390D01*
X41353697Y-9968390D02*
X41391792Y-10016009D01*
X41391792Y-10016009D02*
X41467982Y-10063628D01*
X41467982Y-10063628D02*
X41772744Y-10063628D01*
X40858459Y-9968390D02*
X40934649Y-9920771D01*
X40934649Y-9920771D02*
X40972744Y-9873152D01*
X40972744Y-9873152D02*
X41010840Y-9777914D01*
X41010840Y-9777914D02*
X41010840Y-9730295D01*
X41010840Y-9730295D02*
X40972744Y-9635057D01*
X40972744Y-9635057D02*
X40934649Y-9587438D01*
X40934649Y-9587438D02*
X40858459Y-9539819D01*
X40858459Y-9539819D02*
X40706078Y-9539819D01*
X40706078Y-9539819D02*
X40629887Y-9587438D01*
X40629887Y-9587438D02*
X40591792Y-9635057D01*
X40591792Y-9635057D02*
X40553697Y-9730295D01*
X40553697Y-9730295D02*
X40553697Y-9777914D01*
X40553697Y-9777914D02*
X40591792Y-9873152D01*
X40591792Y-9873152D02*
X40629887Y-9920771D01*
X40629887Y-9920771D02*
X40706078Y-9968390D01*
X40706078Y-9968390D02*
X40858459Y-9968390D01*
X40858459Y-9968390D02*
X40934649Y-10016009D01*
X40934649Y-10016009D02*
X40972744Y-10063628D01*
X40972744Y-10063628D02*
X41010840Y-10158866D01*
X41010840Y-10158866D02*
X41010840Y-10349342D01*
X41010840Y-10349342D02*
X40972744Y-10444580D01*
X40972744Y-10444580D02*
X40934649Y-10492200D01*
X40934649Y-10492200D02*
X40858459Y-10539819D01*
X40858459Y-10539819D02*
X40706078Y-10539819D01*
X40706078Y-10539819D02*
X40629887Y-10492200D01*
X40629887Y-10492200D02*
X40591792Y-10444580D01*
X40591792Y-10444580D02*
X40553697Y-10349342D01*
X40553697Y-10349342D02*
X40553697Y-10158866D01*
X40553697Y-10158866D02*
X40591792Y-10063628D01*
X40591792Y-10063628D02*
X40629887Y-10016009D01*
X40629887Y-10016009D02*
X40706078Y-9968390D01*
X40248935Y-9635057D02*
X40210839Y-9587438D01*
X40210839Y-9587438D02*
X40134649Y-9539819D01*
X40134649Y-9539819D02*
X39944173Y-9539819D01*
X39944173Y-9539819D02*
X39867982Y-9587438D01*
X39867982Y-9587438D02*
X39829887Y-9635057D01*
X39829887Y-9635057D02*
X39791792Y-9730295D01*
X39791792Y-9730295D02*
X39791792Y-9825533D01*
X39791792Y-9825533D02*
X39829887Y-9968390D01*
X39829887Y-9968390D02*
X40287030Y-10539819D01*
X40287030Y-10539819D02*
X39791792Y-10539819D01*
X39296553Y-9539819D02*
X39220363Y-9539819D01*
X39220363Y-9539819D02*
X39144172Y-9587438D01*
X39144172Y-9587438D02*
X39106077Y-9635057D01*
X39106077Y-9635057D02*
X39067982Y-9730295D01*
X39067982Y-9730295D02*
X39029887Y-9920771D01*
X39029887Y-9920771D02*
X39029887Y-10158866D01*
X39029887Y-10158866D02*
X39067982Y-10349342D01*
X39067982Y-10349342D02*
X39106077Y-10444580D01*
X39106077Y-10444580D02*
X39144172Y-10492200D01*
X39144172Y-10492200D02*
X39220363Y-10539819D01*
X39220363Y-10539819D02*
X39296553Y-10539819D01*
X39296553Y-10539819D02*
X39372744Y-10492200D01*
X39372744Y-10492200D02*
X39410839Y-10444580D01*
X39410839Y-10444580D02*
X39448934Y-10349342D01*
X39448934Y-10349342D02*
X39487030Y-10158866D01*
X39487030Y-10158866D02*
X39487030Y-9920771D01*
X39487030Y-9920771D02*
X39448934Y-9730295D01*
X39448934Y-9730295D02*
X39410839Y-9635057D01*
X39410839Y-9635057D02*
X39372744Y-9587438D01*
X39372744Y-9587438D02*
X39296553Y-9539819D01*
X38534648Y-9539819D02*
X38458458Y-9539819D01*
X38458458Y-9539819D02*
X38382267Y-9587438D01*
X38382267Y-9587438D02*
X38344172Y-9635057D01*
X38344172Y-9635057D02*
X38306077Y-9730295D01*
X38306077Y-9730295D02*
X38267982Y-9920771D01*
X38267982Y-9920771D02*
X38267982Y-10158866D01*
X38267982Y-10158866D02*
X38306077Y-10349342D01*
X38306077Y-10349342D02*
X38344172Y-10444580D01*
X38344172Y-10444580D02*
X38382267Y-10492200D01*
X38382267Y-10492200D02*
X38458458Y-10539819D01*
X38458458Y-10539819D02*
X38534648Y-10539819D01*
X38534648Y-10539819D02*
X38610839Y-10492200D01*
X38610839Y-10492200D02*
X38648934Y-10444580D01*
X38648934Y-10444580D02*
X38687029Y-10349342D01*
X38687029Y-10349342D02*
X38725125Y-10158866D01*
X38725125Y-10158866D02*
X38725125Y-9920771D01*
X38725125Y-9920771D02*
X38687029Y-9730295D01*
X38687029Y-9730295D02*
X38648934Y-9635057D01*
X38648934Y-9635057D02*
X38610839Y-9587438D01*
X38610839Y-9587438D02*
X38534648Y-9539819D01*
X37506077Y-10539819D02*
X37963220Y-10539819D01*
X37734648Y-10539819D02*
X37734648Y-9539819D01*
X37734648Y-9539819D02*
X37810839Y-9682676D01*
X37810839Y-9682676D02*
X37887029Y-9777914D01*
X37887029Y-9777914D02*
X37963220Y-9825533D01*
X36667981Y-9539819D02*
X36401314Y-10539819D01*
X36401314Y-10539819D02*
X36134648Y-9539819D01*
X35525124Y-9873152D02*
X35525124Y-10539819D01*
X35715600Y-9492200D02*
X35906077Y-10206485D01*
X35906077Y-10206485D02*
X35410838Y-10206485D01*
X35106076Y-10444580D02*
X35067981Y-10492200D01*
X35067981Y-10492200D02*
X35106076Y-10539819D01*
X35106076Y-10539819D02*
X35144172Y-10492200D01*
X35144172Y-10492200D02*
X35106076Y-10444580D01*
X35106076Y-10444580D02*
X35106076Y-10539819D01*
X34572743Y-9539819D02*
X34496553Y-9539819D01*
X34496553Y-9539819D02*
X34420362Y-9587438D01*
X34420362Y-9587438D02*
X34382267Y-9635057D01*
X34382267Y-9635057D02*
X34344172Y-9730295D01*
X34344172Y-9730295D02*
X34306077Y-9920771D01*
X34306077Y-9920771D02*
X34306077Y-10158866D01*
X34306077Y-10158866D02*
X34344172Y-10349342D01*
X34344172Y-10349342D02*
X34382267Y-10444580D01*
X34382267Y-10444580D02*
X34420362Y-10492200D01*
X34420362Y-10492200D02*
X34496553Y-10539819D01*
X34496553Y-10539819D02*
X34572743Y-10539819D01*
X34572743Y-10539819D02*
X34648934Y-10492200D01*
X34648934Y-10492200D02*
X34687029Y-10444580D01*
X34687029Y-10444580D02*
X34725124Y-10349342D01*
X34725124Y-10349342D02*
X34763220Y-10158866D01*
X34763220Y-10158866D02*
X34763220Y-9920771D01*
X34763220Y-9920771D02*
X34725124Y-9730295D01*
X34725124Y-9730295D02*
X34687029Y-9635057D01*
X34687029Y-9635057D02*
X34648934Y-9587438D01*
X34648934Y-9587438D02*
X34572743Y-9539819D01*
X43829887Y-15979595D02*
X44210839Y-15979595D01*
X44210839Y-15979595D02*
X44248935Y-16455785D01*
X44248935Y-16455785D02*
X44210839Y-16408166D01*
X44210839Y-16408166D02*
X44134649Y-16360547D01*
X44134649Y-16360547D02*
X43944173Y-16360547D01*
X43944173Y-16360547D02*
X43867982Y-16408166D01*
X43867982Y-16408166D02*
X43829887Y-16455785D01*
X43829887Y-16455785D02*
X43791792Y-16551023D01*
X43791792Y-16551023D02*
X43791792Y-16789118D01*
X43791792Y-16789118D02*
X43829887Y-16884356D01*
X43829887Y-16884356D02*
X43867982Y-16931976D01*
X43867982Y-16931976D02*
X43944173Y-16979595D01*
X43944173Y-16979595D02*
X44134649Y-16979595D01*
X44134649Y-16979595D02*
X44210839Y-16931976D01*
X44210839Y-16931976D02*
X44248935Y-16884356D01*
X43563220Y-15979595D02*
X43296553Y-16979595D01*
X43296553Y-16979595D02*
X43029887Y-15979595D01*
X42153696Y-16979595D02*
X42153696Y-15979595D01*
X42153696Y-15979595D02*
X41963220Y-15979595D01*
X41963220Y-15979595D02*
X41848934Y-16027214D01*
X41848934Y-16027214D02*
X41772744Y-16122452D01*
X41772744Y-16122452D02*
X41734649Y-16217690D01*
X41734649Y-16217690D02*
X41696553Y-16408166D01*
X41696553Y-16408166D02*
X41696553Y-16551023D01*
X41696553Y-16551023D02*
X41734649Y-16741499D01*
X41734649Y-16741499D02*
X41772744Y-16836737D01*
X41772744Y-16836737D02*
X41848934Y-16931976D01*
X41848934Y-16931976D02*
X41963220Y-16979595D01*
X41963220Y-16979595D02*
X42153696Y-16979595D01*
X40896553Y-16884356D02*
X40934649Y-16931976D01*
X40934649Y-16931976D02*
X41048934Y-16979595D01*
X41048934Y-16979595D02*
X41125125Y-16979595D01*
X41125125Y-16979595D02*
X41239411Y-16931976D01*
X41239411Y-16931976D02*
X41315601Y-16836737D01*
X41315601Y-16836737D02*
X41353696Y-16741499D01*
X41353696Y-16741499D02*
X41391792Y-16551023D01*
X41391792Y-16551023D02*
X41391792Y-16408166D01*
X41391792Y-16408166D02*
X41353696Y-16217690D01*
X41353696Y-16217690D02*
X41315601Y-16122452D01*
X41315601Y-16122452D02*
X41239411Y-16027214D01*
X41239411Y-16027214D02*
X41125125Y-15979595D01*
X41125125Y-15979595D02*
X41048934Y-15979595D01*
X41048934Y-15979595D02*
X40934649Y-16027214D01*
X40934649Y-16027214D02*
X40896553Y-16074833D01*
X39601315Y-16312928D02*
X39601315Y-16979595D01*
X39791791Y-15931976D02*
X39982268Y-16646261D01*
X39982268Y-16646261D02*
X39487029Y-16646261D01*
X39029886Y-15979595D02*
X38953696Y-15979595D01*
X38953696Y-15979595D02*
X38877505Y-16027214D01*
X38877505Y-16027214D02*
X38839410Y-16074833D01*
X38839410Y-16074833D02*
X38801315Y-16170071D01*
X38801315Y-16170071D02*
X38763220Y-16360547D01*
X38763220Y-16360547D02*
X38763220Y-16598642D01*
X38763220Y-16598642D02*
X38801315Y-16789118D01*
X38801315Y-16789118D02*
X38839410Y-16884356D01*
X38839410Y-16884356D02*
X38877505Y-16931976D01*
X38877505Y-16931976D02*
X38953696Y-16979595D01*
X38953696Y-16979595D02*
X39029886Y-16979595D01*
X39029886Y-16979595D02*
X39106077Y-16931976D01*
X39106077Y-16931976D02*
X39144172Y-16884356D01*
X39144172Y-16884356D02*
X39182267Y-16789118D01*
X39182267Y-16789118D02*
X39220363Y-16598642D01*
X39220363Y-16598642D02*
X39220363Y-16360547D01*
X39220363Y-16360547D02*
X39182267Y-16170071D01*
X39182267Y-16170071D02*
X39144172Y-16074833D01*
X39144172Y-16074833D02*
X39106077Y-16027214D01*
X39106077Y-16027214D02*
X39029886Y-15979595D01*
X38267981Y-15979595D02*
X38191791Y-15979595D01*
X38191791Y-15979595D02*
X38115600Y-16027214D01*
X38115600Y-16027214D02*
X38077505Y-16074833D01*
X38077505Y-16074833D02*
X38039410Y-16170071D01*
X38039410Y-16170071D02*
X38001315Y-16360547D01*
X38001315Y-16360547D02*
X38001315Y-16598642D01*
X38001315Y-16598642D02*
X38039410Y-16789118D01*
X38039410Y-16789118D02*
X38077505Y-16884356D01*
X38077505Y-16884356D02*
X38115600Y-16931976D01*
X38115600Y-16931976D02*
X38191791Y-16979595D01*
X38191791Y-16979595D02*
X38267981Y-16979595D01*
X38267981Y-16979595D02*
X38344172Y-16931976D01*
X38344172Y-16931976D02*
X38382267Y-16884356D01*
X38382267Y-16884356D02*
X38420362Y-16789118D01*
X38420362Y-16789118D02*
X38458458Y-16598642D01*
X38458458Y-16598642D02*
X38458458Y-16360547D01*
X38458458Y-16360547D02*
X38420362Y-16170071D01*
X38420362Y-16170071D02*
X38382267Y-16074833D01*
X38382267Y-16074833D02*
X38344172Y-16027214D01*
X38344172Y-16027214D02*
X38267981Y-15979595D01*
X37658457Y-16979595D02*
X37658457Y-16312928D01*
X37658457Y-16408166D02*
X37620362Y-16360547D01*
X37620362Y-16360547D02*
X37544172Y-16312928D01*
X37544172Y-16312928D02*
X37429886Y-16312928D01*
X37429886Y-16312928D02*
X37353695Y-16360547D01*
X37353695Y-16360547D02*
X37315600Y-16455785D01*
X37315600Y-16455785D02*
X37315600Y-16979595D01*
X37315600Y-16455785D02*
X37277505Y-16360547D01*
X37277505Y-16360547D02*
X37201314Y-16312928D01*
X37201314Y-16312928D02*
X37087029Y-16312928D01*
X37087029Y-16312928D02*
X37010838Y-16360547D01*
X37010838Y-16360547D02*
X36972743Y-16455785D01*
X36972743Y-16455785D02*
X36972743Y-16979595D01*
X36629886Y-16693880D02*
X36248933Y-16693880D01*
X36706076Y-16979595D02*
X36439409Y-15979595D01*
X36439409Y-15979595D02*
X36172743Y-16979595D01*
X43829887Y-17589539D02*
X44210839Y-17589539D01*
X44210839Y-17589539D02*
X44248935Y-18065729D01*
X44248935Y-18065729D02*
X44210839Y-18018110D01*
X44210839Y-18018110D02*
X44134649Y-17970491D01*
X44134649Y-17970491D02*
X43944173Y-17970491D01*
X43944173Y-17970491D02*
X43867982Y-18018110D01*
X43867982Y-18018110D02*
X43829887Y-18065729D01*
X43829887Y-18065729D02*
X43791792Y-18160967D01*
X43791792Y-18160967D02*
X43791792Y-18399062D01*
X43791792Y-18399062D02*
X43829887Y-18494300D01*
X43829887Y-18494300D02*
X43867982Y-18541920D01*
X43867982Y-18541920D02*
X43944173Y-18589539D01*
X43944173Y-18589539D02*
X44134649Y-18589539D01*
X44134649Y-18589539D02*
X44210839Y-18541920D01*
X44210839Y-18541920D02*
X44248935Y-18494300D01*
X43296553Y-17589539D02*
X43220363Y-17589539D01*
X43220363Y-17589539D02*
X43144172Y-17637158D01*
X43144172Y-17637158D02*
X43106077Y-17684777D01*
X43106077Y-17684777D02*
X43067982Y-17780015D01*
X43067982Y-17780015D02*
X43029887Y-17970491D01*
X43029887Y-17970491D02*
X43029887Y-18208586D01*
X43029887Y-18208586D02*
X43067982Y-18399062D01*
X43067982Y-18399062D02*
X43106077Y-18494300D01*
X43106077Y-18494300D02*
X43144172Y-18541920D01*
X43144172Y-18541920D02*
X43220363Y-18589539D01*
X43220363Y-18589539D02*
X43296553Y-18589539D01*
X43296553Y-18589539D02*
X43372744Y-18541920D01*
X43372744Y-18541920D02*
X43410839Y-18494300D01*
X43410839Y-18494300D02*
X43448934Y-18399062D01*
X43448934Y-18399062D02*
X43487030Y-18208586D01*
X43487030Y-18208586D02*
X43487030Y-17970491D01*
X43487030Y-17970491D02*
X43448934Y-17780015D01*
X43448934Y-17780015D02*
X43410839Y-17684777D01*
X43410839Y-17684777D02*
X43372744Y-17637158D01*
X43372744Y-17637158D02*
X43296553Y-17589539D01*
X42687029Y-18589539D02*
X42687029Y-17922872D01*
X42687029Y-18018110D02*
X42648934Y-17970491D01*
X42648934Y-17970491D02*
X42572744Y-17922872D01*
X42572744Y-17922872D02*
X42458458Y-17922872D01*
X42458458Y-17922872D02*
X42382267Y-17970491D01*
X42382267Y-17970491D02*
X42344172Y-18065729D01*
X42344172Y-18065729D02*
X42344172Y-18589539D01*
X42344172Y-18065729D02*
X42306077Y-17970491D01*
X42306077Y-17970491D02*
X42229886Y-17922872D01*
X42229886Y-17922872D02*
X42115601Y-17922872D01*
X42115601Y-17922872D02*
X42039410Y-17970491D01*
X42039410Y-17970491D02*
X42001315Y-18065729D01*
X42001315Y-18065729D02*
X42001315Y-18589539D01*
X41658458Y-18303824D02*
X41277505Y-18303824D01*
X41734648Y-18589539D02*
X41467981Y-17589539D01*
X41467981Y-17589539D02*
X41201315Y-18589539D01*
X40325124Y-18589539D02*
X40325124Y-17589539D01*
X40325124Y-17589539D02*
X40134648Y-17589539D01*
X40134648Y-17589539D02*
X40020362Y-17637158D01*
X40020362Y-17637158D02*
X39944172Y-17732396D01*
X39944172Y-17732396D02*
X39906077Y-17827634D01*
X39906077Y-17827634D02*
X39867981Y-18018110D01*
X39867981Y-18018110D02*
X39867981Y-18160967D01*
X39867981Y-18160967D02*
X39906077Y-18351443D01*
X39906077Y-18351443D02*
X39944172Y-18446681D01*
X39944172Y-18446681D02*
X40020362Y-18541920D01*
X40020362Y-18541920D02*
X40134648Y-18589539D01*
X40134648Y-18589539D02*
X40325124Y-18589539D01*
X39067981Y-18494300D02*
X39106077Y-18541920D01*
X39106077Y-18541920D02*
X39220362Y-18589539D01*
X39220362Y-18589539D02*
X39296553Y-18589539D01*
X39296553Y-18589539D02*
X39410839Y-18541920D01*
X39410839Y-18541920D02*
X39487029Y-18446681D01*
X39487029Y-18446681D02*
X39525124Y-18351443D01*
X39525124Y-18351443D02*
X39563220Y-18160967D01*
X39563220Y-18160967D02*
X39563220Y-18018110D01*
X39563220Y-18018110D02*
X39525124Y-17827634D01*
X39525124Y-17827634D02*
X39487029Y-17732396D01*
X39487029Y-17732396D02*
X39410839Y-17637158D01*
X39410839Y-17637158D02*
X39296553Y-17589539D01*
X39296553Y-17589539D02*
X39220362Y-17589539D01*
X39220362Y-17589539D02*
X39106077Y-17637158D01*
X39106077Y-17637158D02*
X39067981Y-17684777D01*
X37658457Y-18494300D02*
X37696553Y-18541920D01*
X37696553Y-18541920D02*
X37810838Y-18589539D01*
X37810838Y-18589539D02*
X37887029Y-18589539D01*
X37887029Y-18589539D02*
X38001315Y-18541920D01*
X38001315Y-18541920D02*
X38077505Y-18446681D01*
X38077505Y-18446681D02*
X38115600Y-18351443D01*
X38115600Y-18351443D02*
X38153696Y-18160967D01*
X38153696Y-18160967D02*
X38153696Y-18018110D01*
X38153696Y-18018110D02*
X38115600Y-17827634D01*
X38115600Y-17827634D02*
X38077505Y-17732396D01*
X38077505Y-17732396D02*
X38001315Y-17637158D01*
X38001315Y-17637158D02*
X37887029Y-17589539D01*
X37887029Y-17589539D02*
X37810838Y-17589539D01*
X37810838Y-17589539D02*
X37696553Y-17637158D01*
X37696553Y-17637158D02*
X37658457Y-17684777D01*
X36858457Y-18494300D02*
X36896553Y-18541920D01*
X36896553Y-18541920D02*
X37010838Y-18589539D01*
X37010838Y-18589539D02*
X37087029Y-18589539D01*
X37087029Y-18589539D02*
X37201315Y-18541920D01*
X37201315Y-18541920D02*
X37277505Y-18446681D01*
X37277505Y-18446681D02*
X37315600Y-18351443D01*
X37315600Y-18351443D02*
X37353696Y-18160967D01*
X37353696Y-18160967D02*
X37353696Y-18018110D01*
X37353696Y-18018110D02*
X37315600Y-17827634D01*
X37315600Y-17827634D02*
X37277505Y-17732396D01*
X37277505Y-17732396D02*
X37201315Y-17637158D01*
X37201315Y-17637158D02*
X37087029Y-17589539D01*
X37087029Y-17589539D02*
X37010838Y-17589539D01*
X37010838Y-17589539D02*
X36896553Y-17637158D01*
X36896553Y-17637158D02*
X36858457Y-17684777D01*
X35677505Y-18970491D02*
X35715600Y-18922872D01*
X35715600Y-18922872D02*
X35791791Y-18780015D01*
X35791791Y-18780015D02*
X35829886Y-18684777D01*
X35829886Y-18684777D02*
X35867981Y-18541920D01*
X35867981Y-18541920D02*
X35906076Y-18303824D01*
X35906076Y-18303824D02*
X35906076Y-18113348D01*
X35906076Y-18113348D02*
X35867981Y-17875253D01*
X35867981Y-17875253D02*
X35829886Y-17732396D01*
X35829886Y-17732396D02*
X35791791Y-17637158D01*
X35791791Y-17637158D02*
X35715600Y-17494300D01*
X35715600Y-17494300D02*
X35677505Y-17446681D01*
X34953696Y-18589539D02*
X35410839Y-18589539D01*
X35182267Y-18589539D02*
X35182267Y-17589539D01*
X35182267Y-17589539D02*
X35258458Y-17732396D01*
X35258458Y-17732396D02*
X35334648Y-17827634D01*
X35334648Y-17827634D02*
X35410839Y-17875253D01*
X34267981Y-17589539D02*
X34420362Y-17589539D01*
X34420362Y-17589539D02*
X34496553Y-17637158D01*
X34496553Y-17637158D02*
X34534648Y-17684777D01*
X34534648Y-17684777D02*
X34610838Y-17827634D01*
X34610838Y-17827634D02*
X34648934Y-18018110D01*
X34648934Y-18018110D02*
X34648934Y-18399062D01*
X34648934Y-18399062D02*
X34610838Y-18494300D01*
X34610838Y-18494300D02*
X34572743Y-18541920D01*
X34572743Y-18541920D02*
X34496553Y-18589539D01*
X34496553Y-18589539D02*
X34344172Y-18589539D01*
X34344172Y-18589539D02*
X34267981Y-18541920D01*
X34267981Y-18541920D02*
X34229886Y-18494300D01*
X34229886Y-18494300D02*
X34191791Y-18399062D01*
X34191791Y-18399062D02*
X34191791Y-18160967D01*
X34191791Y-18160967D02*
X34229886Y-18065729D01*
X34229886Y-18065729D02*
X34267981Y-18018110D01*
X34267981Y-18018110D02*
X34344172Y-17970491D01*
X34344172Y-17970491D02*
X34496553Y-17970491D01*
X34496553Y-17970491D02*
X34572743Y-18018110D01*
X34572743Y-18018110D02*
X34610838Y-18065729D01*
X34610838Y-18065729D02*
X34648934Y-18160967D01*
X33963219Y-17589539D02*
X33696552Y-18589539D01*
X33696552Y-18589539D02*
X33429886Y-17589539D01*
X32553695Y-18589539D02*
X32553695Y-17589539D01*
X32553695Y-17589539D02*
X32287029Y-18303824D01*
X32287029Y-18303824D02*
X32020362Y-17589539D01*
X32020362Y-17589539D02*
X32020362Y-18589539D01*
X31677505Y-18303824D02*
X31296552Y-18303824D01*
X31753695Y-18589539D02*
X31487028Y-17589539D01*
X31487028Y-17589539D02*
X31220362Y-18589539D01*
X31029886Y-17589539D02*
X30496552Y-18589539D01*
X30496552Y-17589539D02*
X31029886Y-18589539D01*
X30267981Y-18970491D02*
X30229886Y-18922872D01*
X30229886Y-18922872D02*
X30153695Y-18780015D01*
X30153695Y-18780015D02*
X30115600Y-18684777D01*
X30115600Y-18684777D02*
X30077505Y-18541920D01*
X30077505Y-18541920D02*
X30039409Y-18303824D01*
X30039409Y-18303824D02*
X30039409Y-18113348D01*
X30039409Y-18113348D02*
X30077505Y-17875253D01*
X30077505Y-17875253D02*
X30115600Y-17732396D01*
X30115600Y-17732396D02*
X30153695Y-17637158D01*
X30153695Y-17637158D02*
X30229886Y-17494300D01*
X30229886Y-17494300D02*
X30267981Y-17446681D01*
X44287030Y-19199483D02*
X43791792Y-19199483D01*
X43791792Y-19199483D02*
X44058458Y-19580435D01*
X44058458Y-19580435D02*
X43944173Y-19580435D01*
X43944173Y-19580435D02*
X43867982Y-19628054D01*
X43867982Y-19628054D02*
X43829887Y-19675673D01*
X43829887Y-19675673D02*
X43791792Y-19770911D01*
X43791792Y-19770911D02*
X43791792Y-20009006D01*
X43791792Y-20009006D02*
X43829887Y-20104244D01*
X43829887Y-20104244D02*
X43867982Y-20151864D01*
X43867982Y-20151864D02*
X43944173Y-20199483D01*
X43944173Y-20199483D02*
X44172744Y-20199483D01*
X44172744Y-20199483D02*
X44248935Y-20151864D01*
X44248935Y-20151864D02*
X44287030Y-20104244D01*
X43448934Y-20104244D02*
X43410839Y-20151864D01*
X43410839Y-20151864D02*
X43448934Y-20199483D01*
X43448934Y-20199483D02*
X43487030Y-20151864D01*
X43487030Y-20151864D02*
X43448934Y-20104244D01*
X43448934Y-20104244D02*
X43448934Y-20199483D01*
X43144173Y-19199483D02*
X42610839Y-19199483D01*
X42610839Y-19199483D02*
X42953697Y-20199483D01*
X42420363Y-19199483D02*
X42153696Y-20199483D01*
X42153696Y-20199483D02*
X41887030Y-19199483D01*
X41010839Y-20199483D02*
X41010839Y-19199483D01*
X41010839Y-19199483D02*
X40820363Y-19199483D01*
X40820363Y-19199483D02*
X40706077Y-19247102D01*
X40706077Y-19247102D02*
X40629887Y-19342340D01*
X40629887Y-19342340D02*
X40591792Y-19437578D01*
X40591792Y-19437578D02*
X40553696Y-19628054D01*
X40553696Y-19628054D02*
X40553696Y-19770911D01*
X40553696Y-19770911D02*
X40591792Y-19961387D01*
X40591792Y-19961387D02*
X40629887Y-20056625D01*
X40629887Y-20056625D02*
X40706077Y-20151864D01*
X40706077Y-20151864D02*
X40820363Y-20199483D01*
X40820363Y-20199483D02*
X41010839Y-20199483D01*
X39753696Y-20104244D02*
X39791792Y-20151864D01*
X39791792Y-20151864D02*
X39906077Y-20199483D01*
X39906077Y-20199483D02*
X39982268Y-20199483D01*
X39982268Y-20199483D02*
X40096554Y-20151864D01*
X40096554Y-20151864D02*
X40172744Y-20056625D01*
X40172744Y-20056625D02*
X40210839Y-19961387D01*
X40210839Y-19961387D02*
X40248935Y-19770911D01*
X40248935Y-19770911D02*
X40248935Y-19628054D01*
X40248935Y-19628054D02*
X40210839Y-19437578D01*
X40210839Y-19437578D02*
X40172744Y-19342340D01*
X40172744Y-19342340D02*
X40096554Y-19247102D01*
X40096554Y-19247102D02*
X39982268Y-19199483D01*
X39982268Y-19199483D02*
X39906077Y-19199483D01*
X39906077Y-19199483D02*
X39791792Y-19247102D01*
X39791792Y-19247102D02*
X39753696Y-19294721D01*
X38458458Y-19532816D02*
X38458458Y-20199483D01*
X38648934Y-19151864D02*
X38839411Y-19866149D01*
X38839411Y-19866149D02*
X38344172Y-19866149D01*
X37887029Y-19199483D02*
X37810839Y-19199483D01*
X37810839Y-19199483D02*
X37734648Y-19247102D01*
X37734648Y-19247102D02*
X37696553Y-19294721D01*
X37696553Y-19294721D02*
X37658458Y-19389959D01*
X37658458Y-19389959D02*
X37620363Y-19580435D01*
X37620363Y-19580435D02*
X37620363Y-19818530D01*
X37620363Y-19818530D02*
X37658458Y-20009006D01*
X37658458Y-20009006D02*
X37696553Y-20104244D01*
X37696553Y-20104244D02*
X37734648Y-20151864D01*
X37734648Y-20151864D02*
X37810839Y-20199483D01*
X37810839Y-20199483D02*
X37887029Y-20199483D01*
X37887029Y-20199483D02*
X37963220Y-20151864D01*
X37963220Y-20151864D02*
X38001315Y-20104244D01*
X38001315Y-20104244D02*
X38039410Y-20009006D01*
X38039410Y-20009006D02*
X38077506Y-19818530D01*
X38077506Y-19818530D02*
X38077506Y-19580435D01*
X38077506Y-19580435D02*
X38039410Y-19389959D01*
X38039410Y-19389959D02*
X38001315Y-19294721D01*
X38001315Y-19294721D02*
X37963220Y-19247102D01*
X37963220Y-19247102D02*
X37887029Y-19199483D01*
X37125124Y-19199483D02*
X37048934Y-19199483D01*
X37048934Y-19199483D02*
X36972743Y-19247102D01*
X36972743Y-19247102D02*
X36934648Y-19294721D01*
X36934648Y-19294721D02*
X36896553Y-19389959D01*
X36896553Y-19389959D02*
X36858458Y-19580435D01*
X36858458Y-19580435D02*
X36858458Y-19818530D01*
X36858458Y-19818530D02*
X36896553Y-20009006D01*
X36896553Y-20009006D02*
X36934648Y-20104244D01*
X36934648Y-20104244D02*
X36972743Y-20151864D01*
X36972743Y-20151864D02*
X37048934Y-20199483D01*
X37048934Y-20199483D02*
X37125124Y-20199483D01*
X37125124Y-20199483D02*
X37201315Y-20151864D01*
X37201315Y-20151864D02*
X37239410Y-20104244D01*
X37239410Y-20104244D02*
X37277505Y-20009006D01*
X37277505Y-20009006D02*
X37315601Y-19818530D01*
X37315601Y-19818530D02*
X37315601Y-19580435D01*
X37315601Y-19580435D02*
X37277505Y-19389959D01*
X37277505Y-19389959D02*
X37239410Y-19294721D01*
X37239410Y-19294721D02*
X37201315Y-19247102D01*
X37201315Y-19247102D02*
X37125124Y-19199483D01*
X36515600Y-20199483D02*
X36515600Y-19532816D01*
X36515600Y-19628054D02*
X36477505Y-19580435D01*
X36477505Y-19580435D02*
X36401315Y-19532816D01*
X36401315Y-19532816D02*
X36287029Y-19532816D01*
X36287029Y-19532816D02*
X36210838Y-19580435D01*
X36210838Y-19580435D02*
X36172743Y-19675673D01*
X36172743Y-19675673D02*
X36172743Y-20199483D01*
X36172743Y-19675673D02*
X36134648Y-19580435D01*
X36134648Y-19580435D02*
X36058457Y-19532816D01*
X36058457Y-19532816D02*
X35944172Y-19532816D01*
X35944172Y-19532816D02*
X35867981Y-19580435D01*
X35867981Y-19580435D02*
X35829886Y-19675673D01*
X35829886Y-19675673D02*
X35829886Y-20199483D01*
X35487029Y-19913768D02*
X35106076Y-19913768D01*
X35563219Y-20199483D02*
X35296552Y-19199483D01*
X35296552Y-19199483D02*
X35029886Y-20199483D01*
X44287030Y-20809427D02*
X43791792Y-20809427D01*
X43791792Y-20809427D02*
X44058458Y-21190379D01*
X44058458Y-21190379D02*
X43944173Y-21190379D01*
X43944173Y-21190379D02*
X43867982Y-21237998D01*
X43867982Y-21237998D02*
X43829887Y-21285617D01*
X43829887Y-21285617D02*
X43791792Y-21380855D01*
X43791792Y-21380855D02*
X43791792Y-21618950D01*
X43791792Y-21618950D02*
X43829887Y-21714188D01*
X43829887Y-21714188D02*
X43867982Y-21761808D01*
X43867982Y-21761808D02*
X43944173Y-21809427D01*
X43944173Y-21809427D02*
X44172744Y-21809427D01*
X44172744Y-21809427D02*
X44248935Y-21761808D01*
X44248935Y-21761808D02*
X44287030Y-21714188D01*
X43448934Y-21714188D02*
X43410839Y-21761808D01*
X43410839Y-21761808D02*
X43448934Y-21809427D01*
X43448934Y-21809427D02*
X43487030Y-21761808D01*
X43487030Y-21761808D02*
X43448934Y-21714188D01*
X43448934Y-21714188D02*
X43448934Y-21809427D01*
X43144173Y-20809427D02*
X42610839Y-20809427D01*
X42610839Y-20809427D02*
X42953697Y-21809427D01*
X42420363Y-20809427D02*
X42153696Y-21809427D01*
X42153696Y-21809427D02*
X41887030Y-20809427D01*
X41048935Y-20904665D02*
X41010839Y-20857046D01*
X41010839Y-20857046D02*
X40934649Y-20809427D01*
X40934649Y-20809427D02*
X40744173Y-20809427D01*
X40744173Y-20809427D02*
X40667982Y-20857046D01*
X40667982Y-20857046D02*
X40629887Y-20904665D01*
X40629887Y-20904665D02*
X40591792Y-20999903D01*
X40591792Y-20999903D02*
X40591792Y-21095141D01*
X40591792Y-21095141D02*
X40629887Y-21237998D01*
X40629887Y-21237998D02*
X41087030Y-21809427D01*
X41087030Y-21809427D02*
X40591792Y-21809427D01*
X40096553Y-20809427D02*
X40020363Y-20809427D01*
X40020363Y-20809427D02*
X39944172Y-20857046D01*
X39944172Y-20857046D02*
X39906077Y-20904665D01*
X39906077Y-20904665D02*
X39867982Y-20999903D01*
X39867982Y-20999903D02*
X39829887Y-21190379D01*
X39829887Y-21190379D02*
X39829887Y-21428474D01*
X39829887Y-21428474D02*
X39867982Y-21618950D01*
X39867982Y-21618950D02*
X39906077Y-21714188D01*
X39906077Y-21714188D02*
X39944172Y-21761808D01*
X39944172Y-21761808D02*
X40020363Y-21809427D01*
X40020363Y-21809427D02*
X40096553Y-21809427D01*
X40096553Y-21809427D02*
X40172744Y-21761808D01*
X40172744Y-21761808D02*
X40210839Y-21714188D01*
X40210839Y-21714188D02*
X40248934Y-21618950D01*
X40248934Y-21618950D02*
X40287030Y-21428474D01*
X40287030Y-21428474D02*
X40287030Y-21190379D01*
X40287030Y-21190379D02*
X40248934Y-20999903D01*
X40248934Y-20999903D02*
X40210839Y-20904665D01*
X40210839Y-20904665D02*
X40172744Y-20857046D01*
X40172744Y-20857046D02*
X40096553Y-20809427D01*
X39334648Y-20809427D02*
X39258458Y-20809427D01*
X39258458Y-20809427D02*
X39182267Y-20857046D01*
X39182267Y-20857046D02*
X39144172Y-20904665D01*
X39144172Y-20904665D02*
X39106077Y-20999903D01*
X39106077Y-20999903D02*
X39067982Y-21190379D01*
X39067982Y-21190379D02*
X39067982Y-21428474D01*
X39067982Y-21428474D02*
X39106077Y-21618950D01*
X39106077Y-21618950D02*
X39144172Y-21714188D01*
X39144172Y-21714188D02*
X39182267Y-21761808D01*
X39182267Y-21761808D02*
X39258458Y-21809427D01*
X39258458Y-21809427D02*
X39334648Y-21809427D01*
X39334648Y-21809427D02*
X39410839Y-21761808D01*
X39410839Y-21761808D02*
X39448934Y-21714188D01*
X39448934Y-21714188D02*
X39487029Y-21618950D01*
X39487029Y-21618950D02*
X39525125Y-21428474D01*
X39525125Y-21428474D02*
X39525125Y-21190379D01*
X39525125Y-21190379D02*
X39487029Y-20999903D01*
X39487029Y-20999903D02*
X39448934Y-20904665D01*
X39448934Y-20904665D02*
X39410839Y-20857046D01*
X39410839Y-20857046D02*
X39334648Y-20809427D01*
X38572743Y-20809427D02*
X38496553Y-20809427D01*
X38496553Y-20809427D02*
X38420362Y-20857046D01*
X38420362Y-20857046D02*
X38382267Y-20904665D01*
X38382267Y-20904665D02*
X38344172Y-20999903D01*
X38344172Y-20999903D02*
X38306077Y-21190379D01*
X38306077Y-21190379D02*
X38306077Y-21428474D01*
X38306077Y-21428474D02*
X38344172Y-21618950D01*
X38344172Y-21618950D02*
X38382267Y-21714188D01*
X38382267Y-21714188D02*
X38420362Y-21761808D01*
X38420362Y-21761808D02*
X38496553Y-21809427D01*
X38496553Y-21809427D02*
X38572743Y-21809427D01*
X38572743Y-21809427D02*
X38648934Y-21761808D01*
X38648934Y-21761808D02*
X38687029Y-21714188D01*
X38687029Y-21714188D02*
X38725124Y-21618950D01*
X38725124Y-21618950D02*
X38763220Y-21428474D01*
X38763220Y-21428474D02*
X38763220Y-21190379D01*
X38763220Y-21190379D02*
X38725124Y-20999903D01*
X38725124Y-20999903D02*
X38687029Y-20904665D01*
X38687029Y-20904665D02*
X38648934Y-20857046D01*
X38648934Y-20857046D02*
X38572743Y-20809427D01*
X37963219Y-21809427D02*
X37963219Y-21142760D01*
X37963219Y-21237998D02*
X37925124Y-21190379D01*
X37925124Y-21190379D02*
X37848934Y-21142760D01*
X37848934Y-21142760D02*
X37734648Y-21142760D01*
X37734648Y-21142760D02*
X37658457Y-21190379D01*
X37658457Y-21190379D02*
X37620362Y-21285617D01*
X37620362Y-21285617D02*
X37620362Y-21809427D01*
X37620362Y-21285617D02*
X37582267Y-21190379D01*
X37582267Y-21190379D02*
X37506076Y-21142760D01*
X37506076Y-21142760D02*
X37391791Y-21142760D01*
X37391791Y-21142760D02*
X37315600Y-21190379D01*
X37315600Y-21190379D02*
X37277505Y-21285617D01*
X37277505Y-21285617D02*
X37277505Y-21809427D01*
X36934648Y-21523712D02*
X36553695Y-21523712D01*
X37010838Y-21809427D02*
X36744171Y-20809427D01*
X36744171Y-20809427D02*
X36477505Y-21809427D01*
X36210838Y-21809427D02*
X36210838Y-20809427D01*
X35867981Y-21809427D02*
X35867981Y-21285617D01*
X35867981Y-21285617D02*
X35906076Y-21190379D01*
X35906076Y-21190379D02*
X35982267Y-21142760D01*
X35982267Y-21142760D02*
X36096553Y-21142760D01*
X36096553Y-21142760D02*
X36172743Y-21190379D01*
X36172743Y-21190379D02*
X36210838Y-21237998D01*
X34496552Y-21809427D02*
X34877504Y-21809427D01*
X34877504Y-21809427D02*
X34877504Y-20809427D01*
X34229885Y-21809427D02*
X34229885Y-21142760D01*
X34229885Y-20809427D02*
X34267981Y-20857046D01*
X34267981Y-20857046D02*
X34229885Y-20904665D01*
X34229885Y-20904665D02*
X34191790Y-20857046D01*
X34191790Y-20857046D02*
X34229885Y-20809427D01*
X34229885Y-20809427D02*
X34229885Y-20904665D01*
X33848933Y-21809427D02*
X33848933Y-20809427D01*
X33848933Y-20809427D02*
X33544171Y-20809427D01*
X33544171Y-20809427D02*
X33467981Y-20857046D01*
X33467981Y-20857046D02*
X33429886Y-20904665D01*
X33429886Y-20904665D02*
X33391790Y-20999903D01*
X33391790Y-20999903D02*
X33391790Y-21142760D01*
X33391790Y-21142760D02*
X33429886Y-21237998D01*
X33429886Y-21237998D02*
X33467981Y-21285617D01*
X33467981Y-21285617D02*
X33544171Y-21333236D01*
X33544171Y-21333236D02*
X33848933Y-21333236D01*
X32934648Y-21809427D02*
X33010838Y-21761808D01*
X33010838Y-21761808D02*
X33048933Y-21714188D01*
X33048933Y-21714188D02*
X33087029Y-21618950D01*
X33087029Y-21618950D02*
X33087029Y-21333236D01*
X33087029Y-21333236D02*
X33048933Y-21237998D01*
X33048933Y-21237998D02*
X33010838Y-21190379D01*
X33010838Y-21190379D02*
X32934648Y-21142760D01*
X32934648Y-21142760D02*
X32820362Y-21142760D01*
X32820362Y-21142760D02*
X32744171Y-21190379D01*
X32744171Y-21190379D02*
X32706076Y-21237998D01*
X32706076Y-21237998D02*
X32667981Y-21333236D01*
X32667981Y-21333236D02*
X32667981Y-21618950D01*
X32667981Y-21618950D02*
X32706076Y-21714188D01*
X32706076Y-21714188D02*
X32744171Y-21761808D01*
X32744171Y-21761808D02*
X32820362Y-21809427D01*
X32820362Y-21809427D02*
X32934648Y-21809427D01*
D12*
X44617795Y-5713961D02*
X44713033Y-5809200D01*
X44713033Y-5809200D02*
X44998747Y-5904438D01*
X44998747Y-5904438D02*
X45189223Y-5904438D01*
X45189223Y-5904438D02*
X45474938Y-5809200D01*
X45474938Y-5809200D02*
X45665414Y-5618723D01*
X45665414Y-5618723D02*
X45760652Y-5428247D01*
X45760652Y-5428247D02*
X45855890Y-5047295D01*
X45855890Y-5047295D02*
X45855890Y-4761580D01*
X45855890Y-4761580D02*
X45760652Y-4380628D01*
X45760652Y-4380628D02*
X45665414Y-4190152D01*
X45665414Y-4190152D02*
X45474938Y-3999676D01*
X45474938Y-3999676D02*
X45189223Y-3904438D01*
X45189223Y-3904438D02*
X44998747Y-3904438D01*
X44998747Y-3904438D02*
X44713033Y-3999676D01*
X44713033Y-3999676D02*
X44617795Y-4094914D01*
X43855890Y-5333009D02*
X42903509Y-5333009D01*
X44046366Y-5904438D02*
X43379700Y-3904438D01*
X43379700Y-3904438D02*
X42713033Y-5904438D01*
X41093985Y-5904438D02*
X42046366Y-5904438D01*
X42046366Y-5904438D02*
X42046366Y-3904438D01*
X39284461Y-5713961D02*
X39379699Y-5809200D01*
X39379699Y-5809200D02*
X39665413Y-5904438D01*
X39665413Y-5904438D02*
X39855889Y-5904438D01*
X39855889Y-5904438D02*
X40141604Y-5809200D01*
X40141604Y-5809200D02*
X40332080Y-5618723D01*
X40332080Y-5618723D02*
X40427318Y-5428247D01*
X40427318Y-5428247D02*
X40522556Y-5047295D01*
X40522556Y-5047295D02*
X40522556Y-4761580D01*
X40522556Y-4761580D02*
X40427318Y-4380628D01*
X40427318Y-4380628D02*
X40332080Y-4190152D01*
X40332080Y-4190152D02*
X40141604Y-3999676D01*
X40141604Y-3999676D02*
X39855889Y-3904438D01*
X39855889Y-3904438D02*
X39665413Y-3904438D01*
X39665413Y-3904438D02*
X39379699Y-3999676D01*
X39379699Y-3999676D02*
X39284461Y-4094914D01*
X38427318Y-5904438D02*
X38427318Y-3904438D01*
X38427318Y-3904438D02*
X37665413Y-3904438D01*
X37665413Y-3904438D02*
X37474937Y-3999676D01*
X37474937Y-3999676D02*
X37379699Y-4094914D01*
X37379699Y-4094914D02*
X37284461Y-4285390D01*
X37284461Y-4285390D02*
X37284461Y-4571104D01*
X37284461Y-4571104D02*
X37379699Y-4761580D01*
X37379699Y-4761580D02*
X37474937Y-4856819D01*
X37474937Y-4856819D02*
X37665413Y-4952057D01*
X37665413Y-4952057D02*
X38427318Y-4952057D01*
X36522556Y-5809200D02*
X36236842Y-5904438D01*
X36236842Y-5904438D02*
X35760651Y-5904438D01*
X35760651Y-5904438D02*
X35570175Y-5809200D01*
X35570175Y-5809200D02*
X35474937Y-5713961D01*
X35474937Y-5713961D02*
X35379699Y-5523485D01*
X35379699Y-5523485D02*
X35379699Y-5333009D01*
X35379699Y-5333009D02*
X35474937Y-5142533D01*
X35474937Y-5142533D02*
X35570175Y-5047295D01*
X35570175Y-5047295D02*
X35760651Y-4952057D01*
X35760651Y-4952057D02*
X36141604Y-4856819D01*
X36141604Y-4856819D02*
X36332080Y-4761580D01*
X36332080Y-4761580D02*
X36427318Y-4666342D01*
X36427318Y-4666342D02*
X36522556Y-4475866D01*
X36522556Y-4475866D02*
X36522556Y-4285390D01*
X36522556Y-4285390D02*
X36427318Y-4094914D01*
X36427318Y-4094914D02*
X36332080Y-3999676D01*
X36332080Y-3999676D02*
X36141604Y-3904438D01*
X36141604Y-3904438D02*
X35665413Y-3904438D01*
X35665413Y-3904438D02*
X35379699Y-3999676D01*
X34522556Y-3904438D02*
X34522556Y-5523485D01*
X34522556Y-5523485D02*
X34427318Y-5713961D01*
X34427318Y-5713961D02*
X34332080Y-5809200D01*
X34332080Y-5809200D02*
X34141604Y-5904438D01*
X34141604Y-5904438D02*
X33760651Y-5904438D01*
X33760651Y-5904438D02*
X33570175Y-5809200D01*
X33570175Y-5809200D02*
X33474937Y-5713961D01*
X33474937Y-5713961D02*
X33379699Y-5523485D01*
X33379699Y-5523485D02*
X33379699Y-3904438D01*
D13*
X40754386Y-39374712D02*
X40754386Y-40184236D01*
X40754386Y-40184236D02*
X40802005Y-40279474D01*
X40802005Y-40279474D02*
X40849624Y-40327093D01*
X40849624Y-40327093D02*
X40944862Y-40374712D01*
X40944862Y-40374712D02*
X41087719Y-40374712D01*
X41087719Y-40374712D02*
X41182957Y-40327093D01*
X40754386Y-39993760D02*
X40849624Y-40041379D01*
X40849624Y-40041379D02*
X41040100Y-40041379D01*
X41040100Y-40041379D02*
X41135338Y-39993760D01*
X41135338Y-39993760D02*
X41182957Y-39946140D01*
X41182957Y-39946140D02*
X41230576Y-39850902D01*
X41230576Y-39850902D02*
X41230576Y-39565188D01*
X41230576Y-39565188D02*
X41182957Y-39469950D01*
X41182957Y-39469950D02*
X41135338Y-39422331D01*
X41135338Y-39422331D02*
X41040100Y-39374712D01*
X41040100Y-39374712D02*
X40849624Y-39374712D01*
X40849624Y-39374712D02*
X40754386Y-39422331D01*
X40278195Y-40041379D02*
X40278195Y-39374712D01*
X40278195Y-39041379D02*
X40325814Y-39088998D01*
X40325814Y-39088998D02*
X40278195Y-39136617D01*
X40278195Y-39136617D02*
X40230576Y-39088998D01*
X40230576Y-39088998D02*
X40278195Y-39041379D01*
X40278195Y-39041379D02*
X40278195Y-39136617D01*
X39944862Y-39374712D02*
X39563910Y-39374712D01*
X39802005Y-39041379D02*
X39802005Y-39898521D01*
X39802005Y-39898521D02*
X39754386Y-39993760D01*
X39754386Y-39993760D02*
X39659148Y-40041379D01*
X39659148Y-40041379D02*
X39563910Y-40041379D01*
X39230576Y-40041379D02*
X39230576Y-39041379D01*
X38802005Y-40041379D02*
X38802005Y-39517569D01*
X38802005Y-39517569D02*
X38849624Y-39422331D01*
X38849624Y-39422331D02*
X38944862Y-39374712D01*
X38944862Y-39374712D02*
X39087719Y-39374712D01*
X39087719Y-39374712D02*
X39182957Y-39422331D01*
X39182957Y-39422331D02*
X39230576Y-39469950D01*
X37897243Y-39374712D02*
X37897243Y-40041379D01*
X38325814Y-39374712D02*
X38325814Y-39898521D01*
X38325814Y-39898521D02*
X38278195Y-39993760D01*
X38278195Y-39993760D02*
X38182957Y-40041379D01*
X38182957Y-40041379D02*
X38040100Y-40041379D01*
X38040100Y-40041379D02*
X37944862Y-39993760D01*
X37944862Y-39993760D02*
X37897243Y-39946140D01*
X37421052Y-40041379D02*
X37421052Y-39041379D01*
X37421052Y-39422331D02*
X37325814Y-39374712D01*
X37325814Y-39374712D02*
X37135338Y-39374712D01*
X37135338Y-39374712D02*
X37040100Y-39422331D01*
X37040100Y-39422331D02*
X36992481Y-39469950D01*
X36992481Y-39469950D02*
X36944862Y-39565188D01*
X36944862Y-39565188D02*
X36944862Y-39850902D01*
X36944862Y-39850902D02*
X36992481Y-39946140D01*
X36992481Y-39946140D02*
X37040100Y-39993760D01*
X37040100Y-39993760D02*
X37135338Y-40041379D01*
X37135338Y-40041379D02*
X37325814Y-40041379D01*
X37325814Y-40041379D02*
X37421052Y-39993760D01*
X36516290Y-39946140D02*
X36468671Y-39993760D01*
X36468671Y-39993760D02*
X36516290Y-40041379D01*
X36516290Y-40041379D02*
X36563909Y-39993760D01*
X36563909Y-39993760D02*
X36516290Y-39946140D01*
X36516290Y-39946140D02*
X36516290Y-40041379D01*
X35611529Y-39993760D02*
X35706767Y-40041379D01*
X35706767Y-40041379D02*
X35897243Y-40041379D01*
X35897243Y-40041379D02*
X35992481Y-39993760D01*
X35992481Y-39993760D02*
X36040100Y-39946140D01*
X36040100Y-39946140D02*
X36087719Y-39850902D01*
X36087719Y-39850902D02*
X36087719Y-39565188D01*
X36087719Y-39565188D02*
X36040100Y-39469950D01*
X36040100Y-39469950D02*
X35992481Y-39422331D01*
X35992481Y-39422331D02*
X35897243Y-39374712D01*
X35897243Y-39374712D02*
X35706767Y-39374712D01*
X35706767Y-39374712D02*
X35611529Y-39422331D01*
X35040100Y-40041379D02*
X35135338Y-39993760D01*
X35135338Y-39993760D02*
X35182957Y-39946140D01*
X35182957Y-39946140D02*
X35230576Y-39850902D01*
X35230576Y-39850902D02*
X35230576Y-39565188D01*
X35230576Y-39565188D02*
X35182957Y-39469950D01*
X35182957Y-39469950D02*
X35135338Y-39422331D01*
X35135338Y-39422331D02*
X35040100Y-39374712D01*
X35040100Y-39374712D02*
X34897243Y-39374712D01*
X34897243Y-39374712D02*
X34802005Y-39422331D01*
X34802005Y-39422331D02*
X34754386Y-39469950D01*
X34754386Y-39469950D02*
X34706767Y-39565188D01*
X34706767Y-39565188D02*
X34706767Y-39850902D01*
X34706767Y-39850902D02*
X34754386Y-39946140D01*
X34754386Y-39946140D02*
X34802005Y-39993760D01*
X34802005Y-39993760D02*
X34897243Y-40041379D01*
X34897243Y-40041379D02*
X35040100Y-40041379D01*
X34278195Y-40041379D02*
X34278195Y-39374712D01*
X34278195Y-39469950D02*
X34230576Y-39422331D01*
X34230576Y-39422331D02*
X34135338Y-39374712D01*
X34135338Y-39374712D02*
X33992481Y-39374712D01*
X33992481Y-39374712D02*
X33897243Y-39422331D01*
X33897243Y-39422331D02*
X33849624Y-39517569D01*
X33849624Y-39517569D02*
X33849624Y-40041379D01*
X33849624Y-39517569D02*
X33802005Y-39422331D01*
X33802005Y-39422331D02*
X33706767Y-39374712D01*
X33706767Y-39374712D02*
X33563910Y-39374712D01*
X33563910Y-39374712D02*
X33468671Y-39422331D01*
X33468671Y-39422331D02*
X33421052Y-39517569D01*
X33421052Y-39517569D02*
X33421052Y-40041379D01*
X32230577Y-38993760D02*
X33087719Y-40279474D01*
X31468672Y-39993760D02*
X31563910Y-40041379D01*
X31563910Y-40041379D02*
X31754386Y-40041379D01*
X31754386Y-40041379D02*
X31849624Y-39993760D01*
X31849624Y-39993760D02*
X31897243Y-39946140D01*
X31897243Y-39946140D02*
X31944862Y-39850902D01*
X31944862Y-39850902D02*
X31944862Y-39565188D01*
X31944862Y-39565188D02*
X31897243Y-39469950D01*
X31897243Y-39469950D02*
X31849624Y-39422331D01*
X31849624Y-39422331D02*
X31754386Y-39374712D01*
X31754386Y-39374712D02*
X31563910Y-39374712D01*
X31563910Y-39374712D02*
X31468672Y-39422331D01*
X30611529Y-40041379D02*
X30611529Y-39517569D01*
X30611529Y-39517569D02*
X30659148Y-39422331D01*
X30659148Y-39422331D02*
X30754386Y-39374712D01*
X30754386Y-39374712D02*
X30944862Y-39374712D01*
X30944862Y-39374712D02*
X31040100Y-39422331D01*
X30611529Y-39993760D02*
X30706767Y-40041379D01*
X30706767Y-40041379D02*
X30944862Y-40041379D01*
X30944862Y-40041379D02*
X31040100Y-39993760D01*
X31040100Y-39993760D02*
X31087719Y-39898521D01*
X31087719Y-39898521D02*
X31087719Y-39803283D01*
X31087719Y-39803283D02*
X31040100Y-39708045D01*
X31040100Y-39708045D02*
X30944862Y-39660426D01*
X30944862Y-39660426D02*
X30706767Y-39660426D01*
X30706767Y-39660426D02*
X30611529Y-39612807D01*
X29992481Y-40041379D02*
X30087719Y-39993760D01*
X30087719Y-39993760D02*
X30135338Y-39898521D01*
X30135338Y-39898521D02*
X30135338Y-39041379D01*
X29182957Y-39993760D02*
X29278195Y-40041379D01*
X29278195Y-40041379D02*
X29468671Y-40041379D01*
X29468671Y-40041379D02*
X29563909Y-39993760D01*
X29563909Y-39993760D02*
X29611528Y-39946140D01*
X29611528Y-39946140D02*
X29659147Y-39850902D01*
X29659147Y-39850902D02*
X29659147Y-39565188D01*
X29659147Y-39565188D02*
X29611528Y-39469950D01*
X29611528Y-39469950D02*
X29563909Y-39422331D01*
X29563909Y-39422331D02*
X29468671Y-39374712D01*
X29468671Y-39374712D02*
X29278195Y-39374712D01*
X29278195Y-39374712D02*
X29182957Y-39422331D01*
X28754385Y-39374712D02*
X28754385Y-40374712D01*
X28754385Y-39422331D02*
X28659147Y-39374712D01*
X28659147Y-39374712D02*
X28468671Y-39374712D01*
X28468671Y-39374712D02*
X28373433Y-39422331D01*
X28373433Y-39422331D02*
X28325814Y-39469950D01*
X28325814Y-39469950D02*
X28278195Y-39565188D01*
X28278195Y-39565188D02*
X28278195Y-39850902D01*
X28278195Y-39850902D02*
X28325814Y-39946140D01*
X28325814Y-39946140D02*
X28373433Y-39993760D01*
X28373433Y-39993760D02*
X28468671Y-40041379D01*
X28468671Y-40041379D02*
X28659147Y-40041379D01*
X28659147Y-40041379D02*
X28754385Y-39993760D01*
X27897242Y-39993760D02*
X27802004Y-40041379D01*
X27802004Y-40041379D02*
X27611528Y-40041379D01*
X27611528Y-40041379D02*
X27516290Y-39993760D01*
X27516290Y-39993760D02*
X27468671Y-39898521D01*
X27468671Y-39898521D02*
X27468671Y-39850902D01*
X27468671Y-39850902D02*
X27516290Y-39755664D01*
X27516290Y-39755664D02*
X27611528Y-39708045D01*
X27611528Y-39708045D02*
X27754385Y-39708045D01*
X27754385Y-39708045D02*
X27849623Y-39660426D01*
X27849623Y-39660426D02*
X27897242Y-39565188D01*
X27897242Y-39565188D02*
X27897242Y-39517569D01*
X27897242Y-39517569D02*
X27849623Y-39422331D01*
X27849623Y-39422331D02*
X27754385Y-39374712D01*
X27754385Y-39374712D02*
X27611528Y-39374712D01*
X27611528Y-39374712D02*
X27516290Y-39422331D01*
X26611528Y-39374712D02*
X26611528Y-40041379D01*
X27040099Y-39374712D02*
X27040099Y-39898521D01*
X27040099Y-39898521D02*
X26992480Y-39993760D01*
X26992480Y-39993760D02*
X26897242Y-40041379D01*
X26897242Y-40041379D02*
X26754385Y-40041379D01*
X26754385Y-40041379D02*
X26659147Y-39993760D01*
X26659147Y-39993760D02*
X26611528Y-39946140D01*
X25421052Y-38993760D02*
X26278194Y-40279474D01*
X24659147Y-39993760D02*
X24754385Y-40041379D01*
X24754385Y-40041379D02*
X24944861Y-40041379D01*
X24944861Y-40041379D02*
X25040099Y-39993760D01*
X25040099Y-39993760D02*
X25087718Y-39946140D01*
X25087718Y-39946140D02*
X25135337Y-39850902D01*
X25135337Y-39850902D02*
X25135337Y-39565188D01*
X25135337Y-39565188D02*
X25087718Y-39469950D01*
X25087718Y-39469950D02*
X25040099Y-39422331D01*
X25040099Y-39422331D02*
X24944861Y-39374712D01*
X24944861Y-39374712D02*
X24754385Y-39374712D01*
X24754385Y-39374712D02*
X24659147Y-39422331D01*
X24230575Y-39374712D02*
X24230575Y-40374712D01*
X24230575Y-39422331D02*
X24135337Y-39374712D01*
X24135337Y-39374712D02*
X23944861Y-39374712D01*
X23944861Y-39374712D02*
X23849623Y-39422331D01*
X23849623Y-39422331D02*
X23802004Y-39469950D01*
X23802004Y-39469950D02*
X23754385Y-39565188D01*
X23754385Y-39565188D02*
X23754385Y-39850902D01*
X23754385Y-39850902D02*
X23802004Y-39946140D01*
X23802004Y-39946140D02*
X23849623Y-39993760D01*
X23849623Y-39993760D02*
X23944861Y-40041379D01*
X23944861Y-40041379D02*
X24135337Y-40041379D01*
X24135337Y-40041379D02*
X24230575Y-39993760D01*
X23325813Y-40041379D02*
X23325813Y-39041379D01*
X22897242Y-40041379D02*
X22897242Y-39517569D01*
X22897242Y-39517569D02*
X22944861Y-39422331D01*
X22944861Y-39422331D02*
X23040099Y-39374712D01*
X23040099Y-39374712D02*
X23182956Y-39374712D01*
X23182956Y-39374712D02*
X23278194Y-39422331D01*
X23278194Y-39422331D02*
X23325813Y-39469950D01*
X22421051Y-39374712D02*
X22421051Y-40374712D01*
X22421051Y-39422331D02*
X22325813Y-39374712D01*
X22325813Y-39374712D02*
X22135337Y-39374712D01*
X22135337Y-39374712D02*
X22040099Y-39422331D01*
X22040099Y-39422331D02*
X21992480Y-39469950D01*
X21992480Y-39469950D02*
X21944861Y-39565188D01*
X21944861Y-39565188D02*
X21944861Y-39850902D01*
X21944861Y-39850902D02*
X21992480Y-39946140D01*
X21992480Y-39946140D02*
X22040099Y-39993760D01*
X22040099Y-39993760D02*
X22135337Y-40041379D01*
X22135337Y-40041379D02*
X22325813Y-40041379D01*
X22325813Y-40041379D02*
X22421051Y-39993760D01*
X21373432Y-39469950D02*
X21468670Y-39422331D01*
X21468670Y-39422331D02*
X21516289Y-39374712D01*
X21516289Y-39374712D02*
X21563908Y-39279474D01*
X21563908Y-39279474D02*
X21563908Y-39231855D01*
X21563908Y-39231855D02*
X21516289Y-39136617D01*
X21516289Y-39136617D02*
X21468670Y-39088998D01*
X21468670Y-39088998D02*
X21373432Y-39041379D01*
X21373432Y-39041379D02*
X21182956Y-39041379D01*
X21182956Y-39041379D02*
X21087718Y-39088998D01*
X21087718Y-39088998D02*
X21040099Y-39136617D01*
X21040099Y-39136617D02*
X20992480Y-39231855D01*
X20992480Y-39231855D02*
X20992480Y-39279474D01*
X20992480Y-39279474D02*
X21040099Y-39374712D01*
X21040099Y-39374712D02*
X21087718Y-39422331D01*
X21087718Y-39422331D02*
X21182956Y-39469950D01*
X21182956Y-39469950D02*
X21373432Y-39469950D01*
X21373432Y-39469950D02*
X21468670Y-39517569D01*
X21468670Y-39517569D02*
X21516289Y-39565188D01*
X21516289Y-39565188D02*
X21563908Y-39660426D01*
X21563908Y-39660426D02*
X21563908Y-39850902D01*
X21563908Y-39850902D02*
X21516289Y-39946140D01*
X21516289Y-39946140D02*
X21468670Y-39993760D01*
X21468670Y-39993760D02*
X21373432Y-40041379D01*
X21373432Y-40041379D02*
X21182956Y-40041379D01*
X21182956Y-40041379D02*
X21087718Y-39993760D01*
X21087718Y-39993760D02*
X21040099Y-39946140D01*
X21040099Y-39946140D02*
X20992480Y-39850902D01*
X20992480Y-39850902D02*
X20992480Y-39660426D01*
X20992480Y-39660426D02*
X21040099Y-39565188D01*
X21040099Y-39565188D02*
X21087718Y-39517569D01*
X21087718Y-39517569D02*
X21182956Y-39469950D01*
X20611527Y-39136617D02*
X20563908Y-39088998D01*
X20563908Y-39088998D02*
X20468670Y-39041379D01*
X20468670Y-39041379D02*
X20230575Y-39041379D01*
X20230575Y-39041379D02*
X20135337Y-39088998D01*
X20135337Y-39088998D02*
X20087718Y-39136617D01*
X20087718Y-39136617D02*
X20040099Y-39231855D01*
X20040099Y-39231855D02*
X20040099Y-39327093D01*
X20040099Y-39327093D02*
X20087718Y-39469950D01*
X20087718Y-39469950D02*
X20659146Y-40041379D01*
X20659146Y-40041379D02*
X20040099Y-40041379D01*
X19421051Y-39041379D02*
X19325813Y-39041379D01*
X19325813Y-39041379D02*
X19230575Y-39088998D01*
X19230575Y-39088998D02*
X19182956Y-39136617D01*
X19182956Y-39136617D02*
X19135337Y-39231855D01*
X19135337Y-39231855D02*
X19087718Y-39422331D01*
X19087718Y-39422331D02*
X19087718Y-39660426D01*
X19087718Y-39660426D02*
X19135337Y-39850902D01*
X19135337Y-39850902D02*
X19182956Y-39946140D01*
X19182956Y-39946140D02*
X19230575Y-39993760D01*
X19230575Y-39993760D02*
X19325813Y-40041379D01*
X19325813Y-40041379D02*
X19421051Y-40041379D01*
X19421051Y-40041379D02*
X19516289Y-39993760D01*
X19516289Y-39993760D02*
X19563908Y-39946140D01*
X19563908Y-39946140D02*
X19611527Y-39850902D01*
X19611527Y-39850902D02*
X19659146Y-39660426D01*
X19659146Y-39660426D02*
X19659146Y-39422331D01*
X19659146Y-39422331D02*
X19611527Y-39231855D01*
X19611527Y-39231855D02*
X19563908Y-39136617D01*
X19563908Y-39136617D02*
X19516289Y-39088998D01*
X19516289Y-39088998D02*
X19421051Y-39041379D01*
X18468670Y-39041379D02*
X18373432Y-39041379D01*
X18373432Y-39041379D02*
X18278194Y-39088998D01*
X18278194Y-39088998D02*
X18230575Y-39136617D01*
X18230575Y-39136617D02*
X18182956Y-39231855D01*
X18182956Y-39231855D02*
X18135337Y-39422331D01*
X18135337Y-39422331D02*
X18135337Y-39660426D01*
X18135337Y-39660426D02*
X18182956Y-39850902D01*
X18182956Y-39850902D02*
X18230575Y-39946140D01*
X18230575Y-39946140D02*
X18278194Y-39993760D01*
X18278194Y-39993760D02*
X18373432Y-40041379D01*
X18373432Y-40041379D02*
X18468670Y-40041379D01*
X18468670Y-40041379D02*
X18563908Y-39993760D01*
X18563908Y-39993760D02*
X18611527Y-39946140D01*
X18611527Y-39946140D02*
X18659146Y-39850902D01*
X18659146Y-39850902D02*
X18706765Y-39660426D01*
X18706765Y-39660426D02*
X18706765Y-39422331D01*
X18706765Y-39422331D02*
X18659146Y-39231855D01*
X18659146Y-39231855D02*
X18611527Y-39136617D01*
X18611527Y-39136617D02*
X18563908Y-39088998D01*
X18563908Y-39088998D02*
X18468670Y-39041379D01*
X17182956Y-40041379D02*
X17754384Y-40041379D01*
X17468670Y-40041379D02*
X17468670Y-39041379D01*
X17468670Y-39041379D02*
X17563908Y-39184236D01*
X17563908Y-39184236D02*
X17659146Y-39279474D01*
X17659146Y-39279474D02*
X17754384Y-39327093D01*
D10*
X52710839Y-10539819D02*
X52710839Y-9539819D01*
X52710839Y-9539819D02*
X52444173Y-10254104D01*
X52444173Y-10254104D02*
X52177506Y-9539819D01*
X52177506Y-9539819D02*
X52177506Y-10539819D01*
X51644172Y-9539819D02*
X51491791Y-9539819D01*
X51491791Y-9539819D02*
X51415601Y-9587438D01*
X51415601Y-9587438D02*
X51339410Y-9682676D01*
X51339410Y-9682676D02*
X51301315Y-9873152D01*
X51301315Y-9873152D02*
X51301315Y-10206485D01*
X51301315Y-10206485D02*
X51339410Y-10396961D01*
X51339410Y-10396961D02*
X51415601Y-10492200D01*
X51415601Y-10492200D02*
X51491791Y-10539819D01*
X51491791Y-10539819D02*
X51644172Y-10539819D01*
X51644172Y-10539819D02*
X51720363Y-10492200D01*
X51720363Y-10492200D02*
X51796553Y-10396961D01*
X51796553Y-10396961D02*
X51834649Y-10206485D01*
X51834649Y-10206485D02*
X51834649Y-9873152D01*
X51834649Y-9873152D02*
X51796553Y-9682676D01*
X51796553Y-9682676D02*
X51720363Y-9587438D01*
X51720363Y-9587438D02*
X51644172Y-9539819D01*
X50958458Y-10539819D02*
X50958458Y-9539819D01*
X50958458Y-9539819D02*
X50767982Y-9539819D01*
X50767982Y-9539819D02*
X50653696Y-9587438D01*
X50653696Y-9587438D02*
X50577506Y-9682676D01*
X50577506Y-9682676D02*
X50539411Y-9777914D01*
X50539411Y-9777914D02*
X50501315Y-9968390D01*
X50501315Y-9968390D02*
X50501315Y-10111247D01*
X50501315Y-10111247D02*
X50539411Y-10301723D01*
X50539411Y-10301723D02*
X50577506Y-10396961D01*
X50577506Y-10396961D02*
X50653696Y-10492200D01*
X50653696Y-10492200D02*
X50767982Y-10539819D01*
X50767982Y-10539819D02*
X50958458Y-10539819D01*
X50158458Y-10016009D02*
X49891792Y-10016009D01*
X49777506Y-10539819D02*
X50158458Y-10539819D01*
X50158458Y-10539819D02*
X50158458Y-9539819D01*
X50158458Y-9539819D02*
X49777506Y-9539819D01*
X49053696Y-10539819D02*
X49434648Y-10539819D01*
X49434648Y-10539819D02*
X49434648Y-9539819D01*
X48787029Y-10444580D02*
X48748934Y-10492200D01*
X48748934Y-10492200D02*
X48787029Y-10539819D01*
X48787029Y-10539819D02*
X48825125Y-10492200D01*
X48825125Y-10492200D02*
X48787029Y-10444580D01*
X48787029Y-10444580D02*
X48787029Y-10539819D01*
X48787029Y-9920771D02*
X48748934Y-9968390D01*
X48748934Y-9968390D02*
X48787029Y-10016009D01*
X48787029Y-10016009D02*
X48825125Y-9968390D01*
X48825125Y-9968390D02*
X48787029Y-9920771D01*
X48787029Y-9920771D02*
X48787029Y-10016009D01*
X52748935Y-13712088D02*
X52634649Y-13759707D01*
X52634649Y-13759707D02*
X52444173Y-13759707D01*
X52444173Y-13759707D02*
X52367982Y-13712088D01*
X52367982Y-13712088D02*
X52329887Y-13664468D01*
X52329887Y-13664468D02*
X52291792Y-13569230D01*
X52291792Y-13569230D02*
X52291792Y-13473992D01*
X52291792Y-13473992D02*
X52329887Y-13378754D01*
X52329887Y-13378754D02*
X52367982Y-13331135D01*
X52367982Y-13331135D02*
X52444173Y-13283516D01*
X52444173Y-13283516D02*
X52596554Y-13235897D01*
X52596554Y-13235897D02*
X52672744Y-13188278D01*
X52672744Y-13188278D02*
X52710839Y-13140659D01*
X52710839Y-13140659D02*
X52748935Y-13045421D01*
X52748935Y-13045421D02*
X52748935Y-12950183D01*
X52748935Y-12950183D02*
X52710839Y-12854945D01*
X52710839Y-12854945D02*
X52672744Y-12807326D01*
X52672744Y-12807326D02*
X52596554Y-12759707D01*
X52596554Y-12759707D02*
X52406077Y-12759707D01*
X52406077Y-12759707D02*
X52291792Y-12807326D01*
X51948934Y-13235897D02*
X51682268Y-13235897D01*
X51567982Y-13759707D02*
X51948934Y-13759707D01*
X51948934Y-13759707D02*
X51948934Y-12759707D01*
X51948934Y-12759707D02*
X51567982Y-12759707D01*
X50767981Y-13759707D02*
X51034648Y-13283516D01*
X51225124Y-13759707D02*
X51225124Y-12759707D01*
X51225124Y-12759707D02*
X50920362Y-12759707D01*
X50920362Y-12759707D02*
X50844172Y-12807326D01*
X50844172Y-12807326D02*
X50806077Y-12854945D01*
X50806077Y-12854945D02*
X50767981Y-12950183D01*
X50767981Y-12950183D02*
X50767981Y-13093040D01*
X50767981Y-13093040D02*
X50806077Y-13188278D01*
X50806077Y-13188278D02*
X50844172Y-13235897D01*
X50844172Y-13235897D02*
X50920362Y-13283516D01*
X50920362Y-13283516D02*
X51225124Y-13283516D01*
X50425124Y-13759707D02*
X50425124Y-12759707D01*
X50082268Y-13473992D02*
X49701315Y-13473992D01*
X50158458Y-13759707D02*
X49891791Y-12759707D01*
X49891791Y-12759707D02*
X49625125Y-13759707D01*
X48977506Y-13759707D02*
X49358458Y-13759707D01*
X49358458Y-13759707D02*
X49358458Y-12759707D01*
X48710839Y-13664468D02*
X48672744Y-13712088D01*
X48672744Y-13712088D02*
X48710839Y-13759707D01*
X48710839Y-13759707D02*
X48748935Y-13712088D01*
X48748935Y-13712088D02*
X48710839Y-13664468D01*
X48710839Y-13664468D02*
X48710839Y-13759707D01*
X48710839Y-13140659D02*
X48672744Y-13188278D01*
X48672744Y-13188278D02*
X48710839Y-13235897D01*
X48710839Y-13235897D02*
X48748935Y-13188278D01*
X48748935Y-13188278D02*
X48710839Y-13140659D01*
X48710839Y-13140659D02*
X48710839Y-13235897D01*
X52710839Y-15979595D02*
X52710839Y-16789118D01*
X52710839Y-16789118D02*
X52672744Y-16884356D01*
X52672744Y-16884356D02*
X52634649Y-16931976D01*
X52634649Y-16931976D02*
X52558458Y-16979595D01*
X52558458Y-16979595D02*
X52406077Y-16979595D01*
X52406077Y-16979595D02*
X52329887Y-16931976D01*
X52329887Y-16931976D02*
X52291792Y-16884356D01*
X52291792Y-16884356D02*
X52253696Y-16789118D01*
X52253696Y-16789118D02*
X52253696Y-15979595D01*
X51910840Y-16931976D02*
X51796554Y-16979595D01*
X51796554Y-16979595D02*
X51606078Y-16979595D01*
X51606078Y-16979595D02*
X51529887Y-16931976D01*
X51529887Y-16931976D02*
X51491792Y-16884356D01*
X51491792Y-16884356D02*
X51453697Y-16789118D01*
X51453697Y-16789118D02*
X51453697Y-16693880D01*
X51453697Y-16693880D02*
X51491792Y-16598642D01*
X51491792Y-16598642D02*
X51529887Y-16551023D01*
X51529887Y-16551023D02*
X51606078Y-16503404D01*
X51606078Y-16503404D02*
X51758459Y-16455785D01*
X51758459Y-16455785D02*
X51834649Y-16408166D01*
X51834649Y-16408166D02*
X51872744Y-16360547D01*
X51872744Y-16360547D02*
X51910840Y-16265309D01*
X51910840Y-16265309D02*
X51910840Y-16170071D01*
X51910840Y-16170071D02*
X51872744Y-16074833D01*
X51872744Y-16074833D02*
X51834649Y-16027214D01*
X51834649Y-16027214D02*
X51758459Y-15979595D01*
X51758459Y-15979595D02*
X51567982Y-15979595D01*
X51567982Y-15979595D02*
X51453697Y-16027214D01*
X50844173Y-16455785D02*
X50729887Y-16503404D01*
X50729887Y-16503404D02*
X50691792Y-16551023D01*
X50691792Y-16551023D02*
X50653696Y-16646261D01*
X50653696Y-16646261D02*
X50653696Y-16789118D01*
X50653696Y-16789118D02*
X50691792Y-16884356D01*
X50691792Y-16884356D02*
X50729887Y-16931976D01*
X50729887Y-16931976D02*
X50806077Y-16979595D01*
X50806077Y-16979595D02*
X51110839Y-16979595D01*
X51110839Y-16979595D02*
X51110839Y-15979595D01*
X51110839Y-15979595D02*
X50844173Y-15979595D01*
X50844173Y-15979595D02*
X50767982Y-16027214D01*
X50767982Y-16027214D02*
X50729887Y-16074833D01*
X50729887Y-16074833D02*
X50691792Y-16170071D01*
X50691792Y-16170071D02*
X50691792Y-16265309D01*
X50691792Y-16265309D02*
X50729887Y-16360547D01*
X50729887Y-16360547D02*
X50767982Y-16408166D01*
X50767982Y-16408166D02*
X50844173Y-16455785D01*
X50844173Y-16455785D02*
X51110839Y-16455785D01*
X49701315Y-16979595D02*
X49701315Y-15979595D01*
X49320363Y-16979595D02*
X49320363Y-15979595D01*
X49320363Y-15979595D02*
X48863220Y-16979595D01*
X48863220Y-16979595D02*
X48863220Y-15979595D01*
X48482268Y-16979595D02*
X48482268Y-15979595D01*
X48482268Y-15979595D02*
X48177506Y-15979595D01*
X48177506Y-15979595D02*
X48101316Y-16027214D01*
X48101316Y-16027214D02*
X48063221Y-16074833D01*
X48063221Y-16074833D02*
X48025125Y-16170071D01*
X48025125Y-16170071D02*
X48025125Y-16312928D01*
X48025125Y-16312928D02*
X48063221Y-16408166D01*
X48063221Y-16408166D02*
X48101316Y-16455785D01*
X48101316Y-16455785D02*
X48177506Y-16503404D01*
X48177506Y-16503404D02*
X48482268Y-16503404D01*
X47682268Y-15979595D02*
X47682268Y-16789118D01*
X47682268Y-16789118D02*
X47644173Y-16884356D01*
X47644173Y-16884356D02*
X47606078Y-16931976D01*
X47606078Y-16931976D02*
X47529887Y-16979595D01*
X47529887Y-16979595D02*
X47377506Y-16979595D01*
X47377506Y-16979595D02*
X47301316Y-16931976D01*
X47301316Y-16931976D02*
X47263221Y-16884356D01*
X47263221Y-16884356D02*
X47225125Y-16789118D01*
X47225125Y-16789118D02*
X47225125Y-15979595D01*
X46958459Y-15979595D02*
X46501316Y-15979595D01*
X46729888Y-16979595D02*
X46729888Y-15979595D01*
X46234649Y-16884356D02*
X46196554Y-16931976D01*
X46196554Y-16931976D02*
X46234649Y-16979595D01*
X46234649Y-16979595D02*
X46272745Y-16931976D01*
X46272745Y-16931976D02*
X46234649Y-16884356D01*
X46234649Y-16884356D02*
X46234649Y-16979595D01*
X46234649Y-16360547D02*
X46196554Y-16408166D01*
X46196554Y-16408166D02*
X46234649Y-16455785D01*
X46234649Y-16455785D02*
X46272745Y-16408166D01*
X46272745Y-16408166D02*
X46234649Y-16360547D01*
X46234649Y-16360547D02*
X46234649Y-16455785D01*
X52710839Y-18589539D02*
X52710839Y-17589539D01*
X52710839Y-17589539D02*
X52406077Y-17589539D01*
X52406077Y-17589539D02*
X52329887Y-17637158D01*
X52329887Y-17637158D02*
X52291792Y-17684777D01*
X52291792Y-17684777D02*
X52253696Y-17780015D01*
X52253696Y-17780015D02*
X52253696Y-17922872D01*
X52253696Y-17922872D02*
X52291792Y-18018110D01*
X52291792Y-18018110D02*
X52329887Y-18065729D01*
X52329887Y-18065729D02*
X52406077Y-18113348D01*
X52406077Y-18113348D02*
X52710839Y-18113348D01*
X51948935Y-18303824D02*
X51567982Y-18303824D01*
X52025125Y-18589539D02*
X51758458Y-17589539D01*
X51758458Y-17589539D02*
X51491792Y-18589539D01*
X51225125Y-18589539D02*
X51225125Y-17589539D01*
X51225125Y-17589539D02*
X51034649Y-17589539D01*
X51034649Y-17589539D02*
X50920363Y-17637158D01*
X50920363Y-17637158D02*
X50844173Y-17732396D01*
X50844173Y-17732396D02*
X50806078Y-17827634D01*
X50806078Y-17827634D02*
X50767982Y-18018110D01*
X50767982Y-18018110D02*
X50767982Y-18160967D01*
X50767982Y-18160967D02*
X50806078Y-18351443D01*
X50806078Y-18351443D02*
X50844173Y-18446681D01*
X50844173Y-18446681D02*
X50920363Y-18541920D01*
X50920363Y-18541920D02*
X51034649Y-18589539D01*
X51034649Y-18589539D02*
X51225125Y-18589539D01*
X49815601Y-18589539D02*
X49815601Y-17589539D01*
X49434649Y-18589539D02*
X49434649Y-17589539D01*
X49434649Y-17589539D02*
X48977506Y-18589539D01*
X48977506Y-18589539D02*
X48977506Y-17589539D01*
X48596554Y-18589539D02*
X48596554Y-17589539D01*
X48596554Y-17589539D02*
X48291792Y-17589539D01*
X48291792Y-17589539D02*
X48215602Y-17637158D01*
X48215602Y-17637158D02*
X48177507Y-17684777D01*
X48177507Y-17684777D02*
X48139411Y-17780015D01*
X48139411Y-17780015D02*
X48139411Y-17922872D01*
X48139411Y-17922872D02*
X48177507Y-18018110D01*
X48177507Y-18018110D02*
X48215602Y-18065729D01*
X48215602Y-18065729D02*
X48291792Y-18113348D01*
X48291792Y-18113348D02*
X48596554Y-18113348D01*
X47796554Y-17589539D02*
X47796554Y-18399062D01*
X47796554Y-18399062D02*
X47758459Y-18494300D01*
X47758459Y-18494300D02*
X47720364Y-18541920D01*
X47720364Y-18541920D02*
X47644173Y-18589539D01*
X47644173Y-18589539D02*
X47491792Y-18589539D01*
X47491792Y-18589539D02*
X47415602Y-18541920D01*
X47415602Y-18541920D02*
X47377507Y-18494300D01*
X47377507Y-18494300D02*
X47339411Y-18399062D01*
X47339411Y-18399062D02*
X47339411Y-17589539D01*
X47072745Y-17589539D02*
X46615602Y-17589539D01*
X46844174Y-18589539D02*
X46844174Y-17589539D01*
X46348935Y-18494300D02*
X46310840Y-18541920D01*
X46310840Y-18541920D02*
X46348935Y-18589539D01*
X46348935Y-18589539D02*
X46387031Y-18541920D01*
X46387031Y-18541920D02*
X46348935Y-18494300D01*
X46348935Y-18494300D02*
X46348935Y-18589539D01*
X46348935Y-17970491D02*
X46310840Y-18018110D01*
X46310840Y-18018110D02*
X46348935Y-18065729D01*
X46348935Y-18065729D02*
X46387031Y-18018110D01*
X46387031Y-18018110D02*
X46348935Y-17970491D01*
X46348935Y-17970491D02*
X46348935Y-18065729D01*
X52710839Y-20199483D02*
X52710839Y-19199483D01*
X52710839Y-19199483D02*
X52406077Y-19199483D01*
X52406077Y-19199483D02*
X52329887Y-19247102D01*
X52329887Y-19247102D02*
X52291792Y-19294721D01*
X52291792Y-19294721D02*
X52253696Y-19389959D01*
X52253696Y-19389959D02*
X52253696Y-19532816D01*
X52253696Y-19532816D02*
X52291792Y-19628054D01*
X52291792Y-19628054D02*
X52329887Y-19675673D01*
X52329887Y-19675673D02*
X52406077Y-19723292D01*
X52406077Y-19723292D02*
X52710839Y-19723292D01*
X51948935Y-19913768D02*
X51567982Y-19913768D01*
X52025125Y-20199483D02*
X51758458Y-19199483D01*
X51758458Y-19199483D02*
X51491792Y-20199483D01*
X51225125Y-20199483D02*
X51225125Y-19199483D01*
X51225125Y-19199483D02*
X51034649Y-19199483D01*
X51034649Y-19199483D02*
X50920363Y-19247102D01*
X50920363Y-19247102D02*
X50844173Y-19342340D01*
X50844173Y-19342340D02*
X50806078Y-19437578D01*
X50806078Y-19437578D02*
X50767982Y-19628054D01*
X50767982Y-19628054D02*
X50767982Y-19770911D01*
X50767982Y-19770911D02*
X50806078Y-19961387D01*
X50806078Y-19961387D02*
X50844173Y-20056625D01*
X50844173Y-20056625D02*
X50920363Y-20151864D01*
X50920363Y-20151864D02*
X51034649Y-20199483D01*
X51034649Y-20199483D02*
X51225125Y-20199483D01*
X49663220Y-19199483D02*
X49510839Y-19199483D01*
X49510839Y-19199483D02*
X49434649Y-19247102D01*
X49434649Y-19247102D02*
X49358458Y-19342340D01*
X49358458Y-19342340D02*
X49320363Y-19532816D01*
X49320363Y-19532816D02*
X49320363Y-19866149D01*
X49320363Y-19866149D02*
X49358458Y-20056625D01*
X49358458Y-20056625D02*
X49434649Y-20151864D01*
X49434649Y-20151864D02*
X49510839Y-20199483D01*
X49510839Y-20199483D02*
X49663220Y-20199483D01*
X49663220Y-20199483D02*
X49739411Y-20151864D01*
X49739411Y-20151864D02*
X49815601Y-20056625D01*
X49815601Y-20056625D02*
X49853697Y-19866149D01*
X49853697Y-19866149D02*
X49853697Y-19532816D01*
X49853697Y-19532816D02*
X49815601Y-19342340D01*
X49815601Y-19342340D02*
X49739411Y-19247102D01*
X49739411Y-19247102D02*
X49663220Y-19199483D01*
X48977506Y-19199483D02*
X48977506Y-20009006D01*
X48977506Y-20009006D02*
X48939411Y-20104244D01*
X48939411Y-20104244D02*
X48901316Y-20151864D01*
X48901316Y-20151864D02*
X48825125Y-20199483D01*
X48825125Y-20199483D02*
X48672744Y-20199483D01*
X48672744Y-20199483D02*
X48596554Y-20151864D01*
X48596554Y-20151864D02*
X48558459Y-20104244D01*
X48558459Y-20104244D02*
X48520363Y-20009006D01*
X48520363Y-20009006D02*
X48520363Y-19199483D01*
X48253697Y-19199483D02*
X47796554Y-19199483D01*
X48025126Y-20199483D02*
X48025126Y-19199483D01*
X47529887Y-20199483D02*
X47529887Y-19199483D01*
X47529887Y-19199483D02*
X47225125Y-19199483D01*
X47225125Y-19199483D02*
X47148935Y-19247102D01*
X47148935Y-19247102D02*
X47110840Y-19294721D01*
X47110840Y-19294721D02*
X47072744Y-19389959D01*
X47072744Y-19389959D02*
X47072744Y-19532816D01*
X47072744Y-19532816D02*
X47110840Y-19628054D01*
X47110840Y-19628054D02*
X47148935Y-19675673D01*
X47148935Y-19675673D02*
X47225125Y-19723292D01*
X47225125Y-19723292D02*
X47529887Y-19723292D01*
X46729887Y-19199483D02*
X46729887Y-20009006D01*
X46729887Y-20009006D02*
X46691792Y-20104244D01*
X46691792Y-20104244D02*
X46653697Y-20151864D01*
X46653697Y-20151864D02*
X46577506Y-20199483D01*
X46577506Y-20199483D02*
X46425125Y-20199483D01*
X46425125Y-20199483D02*
X46348935Y-20151864D01*
X46348935Y-20151864D02*
X46310840Y-20104244D01*
X46310840Y-20104244D02*
X46272744Y-20009006D01*
X46272744Y-20009006D02*
X46272744Y-19199483D01*
X46006078Y-19199483D02*
X45548935Y-19199483D01*
X45777507Y-20199483D02*
X45777507Y-19199483D01*
X45282268Y-20104244D02*
X45244173Y-20151864D01*
X45244173Y-20151864D02*
X45282268Y-20199483D01*
X45282268Y-20199483D02*
X45320364Y-20151864D01*
X45320364Y-20151864D02*
X45282268Y-20104244D01*
X45282268Y-20104244D02*
X45282268Y-20199483D01*
X45282268Y-19580435D02*
X45244173Y-19628054D01*
X45244173Y-19628054D02*
X45282268Y-19675673D01*
X45282268Y-19675673D02*
X45320364Y-19628054D01*
X45320364Y-19628054D02*
X45282268Y-19580435D01*
X45282268Y-19580435D02*
X45282268Y-19675673D01*
X52253696Y-21714188D02*
X52291792Y-21761808D01*
X52291792Y-21761808D02*
X52406077Y-21809427D01*
X52406077Y-21809427D02*
X52482268Y-21809427D01*
X52482268Y-21809427D02*
X52596554Y-21761808D01*
X52596554Y-21761808D02*
X52672744Y-21666569D01*
X52672744Y-21666569D02*
X52710839Y-21571331D01*
X52710839Y-21571331D02*
X52748935Y-21380855D01*
X52748935Y-21380855D02*
X52748935Y-21237998D01*
X52748935Y-21237998D02*
X52710839Y-21047522D01*
X52710839Y-21047522D02*
X52672744Y-20952284D01*
X52672744Y-20952284D02*
X52596554Y-20857046D01*
X52596554Y-20857046D02*
X52482268Y-20809427D01*
X52482268Y-20809427D02*
X52406077Y-20809427D01*
X52406077Y-20809427D02*
X52291792Y-20857046D01*
X52291792Y-20857046D02*
X52253696Y-20904665D01*
X51910839Y-21285617D02*
X51644173Y-21285617D01*
X51529887Y-21809427D02*
X51910839Y-21809427D01*
X51910839Y-21809427D02*
X51910839Y-20809427D01*
X51910839Y-20809427D02*
X51529887Y-20809427D01*
X50806077Y-21809427D02*
X51187029Y-21809427D01*
X51187029Y-21809427D02*
X51187029Y-20809427D01*
X50158458Y-21809427D02*
X50539410Y-21809427D01*
X50539410Y-21809427D02*
X50539410Y-20809427D01*
X49891791Y-21714188D02*
X49853696Y-21761808D01*
X49853696Y-21761808D02*
X49891791Y-21809427D01*
X49891791Y-21809427D02*
X49929887Y-21761808D01*
X49929887Y-21761808D02*
X49891791Y-21714188D01*
X49891791Y-21714188D02*
X49891791Y-21809427D01*
X49891791Y-21190379D02*
X49853696Y-21237998D01*
X49853696Y-21237998D02*
X49891791Y-21285617D01*
X49891791Y-21285617D02*
X49929887Y-21237998D01*
X49929887Y-21237998D02*
X49891791Y-21190379D01*
X49891791Y-21190379D02*
X49891791Y-21285617D01*
D11*
X9404761Y-29556333D02*
X5595238Y-29556333D01*
X7499999Y-31461095D02*
X7499999Y-27651571D01*
D14*
%TO.C,G\u002A\u002A\u002A*%
G36*
X43471979Y-34214358D02*
G01*
X43471979Y-34375674D01*
X43149346Y-34375674D01*
X42826713Y-34375674D01*
X42826713Y-34214358D01*
X42826713Y-34053041D01*
X43149346Y-34053041D01*
X43471979Y-34053041D01*
X43471979Y-34214358D01*
G37*
G36*
X43471979Y-33569092D02*
G01*
X43471979Y-33730408D01*
X43310662Y-33730408D01*
X43149346Y-33730408D01*
X43149346Y-33569092D01*
X43149346Y-33407776D01*
X43310662Y-33407776D01*
X43471979Y-33407776D01*
X43471979Y-33569092D01*
G37*
G36*
X44439877Y-31955928D02*
G01*
X44439877Y-32439877D01*
X43955928Y-32439877D01*
X43471979Y-32439877D01*
X43471979Y-31955928D01*
X43471979Y-31471979D01*
X43955928Y-31471979D01*
X44439877Y-31471979D01*
X44439877Y-31955928D01*
G37*
G36*
X44439877Y-39053850D02*
G01*
X44439877Y-39537799D01*
X43955928Y-39537799D01*
X43471979Y-39537799D01*
X43471979Y-39053850D01*
X43471979Y-38569900D01*
X43955928Y-38569900D01*
X44439877Y-38569900D01*
X44439877Y-39053850D01*
G37*
G36*
X45730408Y-39699115D02*
G01*
X45730408Y-39860432D01*
X45569092Y-39860432D01*
X45407776Y-39860432D01*
X45407776Y-39699115D01*
X45407776Y-39537799D01*
X45569092Y-39537799D01*
X45730408Y-39537799D01*
X45730408Y-39699115D01*
G37*
G36*
X46053041Y-40021748D02*
G01*
X46053041Y-40183064D01*
X45891725Y-40183064D01*
X45730408Y-40183064D01*
X45730408Y-40021748D01*
X45730408Y-39860432D01*
X45891725Y-39860432D01*
X46053041Y-39860432D01*
X46053041Y-40021748D01*
G37*
G36*
X46698307Y-31955928D02*
G01*
X46698307Y-32117244D01*
X46536990Y-32117244D01*
X46375674Y-32117244D01*
X46375674Y-31955928D01*
X46375674Y-31794612D01*
X46536990Y-31794612D01*
X46698307Y-31794612D01*
X46698307Y-31955928D01*
G37*
G36*
X47343572Y-40021748D02*
G01*
X47343572Y-40183064D01*
X47182256Y-40183064D01*
X47020940Y-40183064D01*
X47020940Y-40021748D01*
X47020940Y-39860432D01*
X47182256Y-39860432D01*
X47343572Y-39860432D01*
X47343572Y-40021748D01*
G37*
G36*
X48634104Y-40021748D02*
G01*
X48634104Y-40183064D01*
X48472787Y-40183064D01*
X48311471Y-40183064D01*
X48311471Y-40021748D01*
X48311471Y-39860432D01*
X48472787Y-39860432D01*
X48634104Y-39860432D01*
X48634104Y-40021748D01*
G37*
G36*
X50247268Y-38085951D02*
G01*
X50247268Y-38247268D01*
X50085951Y-38247268D01*
X49924635Y-38247268D01*
X49924635Y-38085951D01*
X49924635Y-37924635D01*
X50085951Y-37924635D01*
X50247268Y-37924635D01*
X50247268Y-38085951D01*
G37*
G36*
X51537799Y-31955928D02*
G01*
X51537799Y-32439877D01*
X51053850Y-32439877D01*
X50569900Y-32439877D01*
X50569900Y-31955928D01*
X50569900Y-31471979D01*
X51053850Y-31471979D01*
X51537799Y-31471979D01*
X51537799Y-31955928D01*
G37*
G36*
X48634104Y-31794612D02*
G01*
X48634104Y-32117244D01*
X48472787Y-32117244D01*
X48311471Y-32117244D01*
X48311471Y-31955928D01*
X48311471Y-31794612D01*
X48150154Y-31794612D01*
X47988838Y-31794612D01*
X47988838Y-31633295D01*
X47988838Y-31471979D01*
X48311471Y-31471979D01*
X48634104Y-31471979D01*
X48634104Y-31794612D01*
G37*
G36*
X43149346Y-30826713D02*
G01*
X43955928Y-30826713D01*
X45085143Y-30826713D01*
X45085143Y-31955928D01*
X45085143Y-33085143D01*
X43955928Y-33085143D01*
X42826713Y-33085143D01*
X42826713Y-31955928D01*
X43149346Y-31955928D01*
X43149346Y-32762510D01*
X43955928Y-32762510D01*
X44762510Y-32762510D01*
X44762510Y-31955928D01*
X44762510Y-31149346D01*
X43955928Y-31149346D01*
X43149346Y-31149346D01*
X43149346Y-31955928D01*
X42826713Y-31955928D01*
X42826713Y-30826713D01*
X43149346Y-30826713D01*
G37*
G36*
X43149346Y-37924635D02*
G01*
X43955928Y-37924635D01*
X45085143Y-37924635D01*
X45085143Y-39053850D01*
X45085143Y-40183064D01*
X43955928Y-40183064D01*
X42826713Y-40183064D01*
X42826713Y-39053850D01*
X43149346Y-39053850D01*
X43149346Y-39860432D01*
X43955928Y-39860432D01*
X44762510Y-39860432D01*
X44762510Y-39053850D01*
X44762510Y-38247268D01*
X43955928Y-38247268D01*
X43149346Y-38247268D01*
X43149346Y-39053850D01*
X42826713Y-39053850D01*
X42826713Y-37924635D01*
X43149346Y-37924635D01*
G37*
G36*
X50247268Y-30826713D02*
G01*
X51053850Y-30826713D01*
X52183064Y-30826713D01*
X52183064Y-31955928D01*
X52183064Y-33085143D01*
X51053850Y-33085143D01*
X49924635Y-33085143D01*
X49924635Y-31955928D01*
X50247268Y-31955928D01*
X50247268Y-32762510D01*
X51053850Y-32762510D01*
X51860432Y-32762510D01*
X51860432Y-31955928D01*
X51860432Y-31149346D01*
X51053850Y-31149346D01*
X50247268Y-31149346D01*
X50247268Y-31955928D01*
X49924635Y-31955928D01*
X49924635Y-30826713D01*
X50247268Y-30826713D01*
G37*
G36*
X49602002Y-31633295D02*
G01*
X49602002Y-31794612D01*
X49440686Y-31794612D01*
X49279369Y-31794612D01*
X49279369Y-32117244D01*
X49279369Y-32439877D01*
X49440686Y-32439877D01*
X49602002Y-32439877D01*
X49602002Y-32762510D01*
X49602002Y-33085143D01*
X49440686Y-33085143D01*
X49279369Y-33085143D01*
X49279369Y-33246459D01*
X49279369Y-33407776D01*
X49118053Y-33407776D01*
X48956736Y-33407776D01*
X48956736Y-33891725D01*
X48956736Y-34375674D01*
X48795420Y-34375674D01*
X48634104Y-34375674D01*
X48634104Y-34214358D01*
X48634104Y-34053041D01*
X48311471Y-34053041D01*
X47988838Y-34053041D01*
X47988838Y-33891725D01*
X47988838Y-33730408D01*
X48311471Y-33730408D01*
X48634104Y-33730408D01*
X48634104Y-33569092D01*
X48634104Y-33407776D01*
X48472787Y-33407776D01*
X48311471Y-33407776D01*
X48311471Y-33246459D01*
X48311471Y-33085143D01*
X48472787Y-33085143D01*
X48634104Y-33085143D01*
X48634104Y-32923826D01*
X48956736Y-32923826D01*
X48956736Y-33085143D01*
X49118053Y-33085143D01*
X49279369Y-33085143D01*
X49279369Y-32923826D01*
X49279369Y-32762510D01*
X49118053Y-32762510D01*
X48956736Y-32762510D01*
X48956736Y-32923826D01*
X48634104Y-32923826D01*
X48634104Y-32762510D01*
X48634104Y-32439877D01*
X48795420Y-32439877D01*
X48956736Y-32439877D01*
X48956736Y-31955928D01*
X48956736Y-31471979D01*
X49279369Y-31471979D01*
X49602002Y-31471979D01*
X49602002Y-31633295D01*
G37*
G36*
X43149346Y-34859623D02*
G01*
X43149346Y-35020940D01*
X43310662Y-35020940D01*
X43471979Y-35020940D01*
X43471979Y-34859623D01*
X43471979Y-34698307D01*
X43794612Y-34698307D01*
X44117244Y-34698307D01*
X44117244Y-34859623D01*
X44117244Y-35020940D01*
X43955928Y-35020940D01*
X43794612Y-35020940D01*
X43794612Y-35182256D01*
X43794612Y-35343572D01*
X43633295Y-35343572D01*
X43471979Y-35343572D01*
X43471979Y-35504889D01*
X43471979Y-35666205D01*
X43633295Y-35666205D01*
X43794612Y-35666205D01*
X43794612Y-35504889D01*
X43794612Y-35343572D01*
X43955928Y-35343572D01*
X44117244Y-35343572D01*
X44117244Y-35988838D01*
X44117244Y-36634104D01*
X43955928Y-36634104D01*
X43794612Y-36634104D01*
X43794612Y-36311471D01*
X43794612Y-35988838D01*
X43633295Y-35988838D01*
X43471979Y-35988838D01*
X43471979Y-36472787D01*
X43471979Y-36956736D01*
X43310662Y-36956736D01*
X43149346Y-36956736D01*
X43149346Y-37279369D01*
X43149346Y-37602002D01*
X42988030Y-37602002D01*
X42826713Y-37602002D01*
X42826713Y-37118053D01*
X42826713Y-36634104D01*
X42988030Y-36634104D01*
X43149346Y-36634104D01*
X43149346Y-36311471D01*
X43149346Y-35988838D01*
X42988030Y-35988838D01*
X42826713Y-35988838D01*
X42826713Y-35827522D01*
X42826713Y-35666205D01*
X42988030Y-35666205D01*
X43149346Y-35666205D01*
X43149346Y-35504889D01*
X43149346Y-35343572D01*
X42988030Y-35343572D01*
X42826713Y-35343572D01*
X42826713Y-35020940D01*
X42826713Y-34698307D01*
X42988030Y-34698307D01*
X43149346Y-34698307D01*
X43149346Y-34859623D01*
G37*
G36*
X45891725Y-37924635D02*
G01*
X46053041Y-37924635D01*
X46053041Y-38247268D01*
X46053041Y-38569900D01*
X46214358Y-38569900D01*
X46375674Y-38569900D01*
X46375674Y-38731217D01*
X46375674Y-38892533D01*
X46053041Y-38892533D01*
X45730408Y-38892533D01*
X45730408Y-39053850D01*
X45730408Y-39215166D01*
X45569092Y-39215166D01*
X45407776Y-39215166D01*
X45407776Y-39053850D01*
X45407776Y-38892533D01*
X45569092Y-38892533D01*
X45730408Y-38892533D01*
X45730408Y-38731217D01*
X45730408Y-38569900D01*
X45569092Y-38569900D01*
X45407776Y-38569900D01*
X45407776Y-38408584D01*
X45407776Y-38247268D01*
X45569092Y-38247268D01*
X45730408Y-38247268D01*
X45730408Y-38085951D01*
X45730408Y-37924635D01*
X45891725Y-37924635D01*
G37*
G36*
X46053041Y-37118053D02*
G01*
X46053041Y-37279369D01*
X46214358Y-37279369D01*
X46375674Y-37279369D01*
X46375674Y-37118053D01*
X46375674Y-36956736D01*
X46536990Y-36956736D01*
X46698307Y-36956736D01*
X46698307Y-37118053D01*
X46698307Y-37279369D01*
X46536990Y-37279369D01*
X46375674Y-37279369D01*
X46375674Y-37440686D01*
X46375674Y-37602002D01*
X46053041Y-37602002D01*
X45730408Y-37602002D01*
X45730408Y-37763318D01*
X45730408Y-37924635D01*
X45569092Y-37924635D01*
X45407776Y-37924635D01*
X45407776Y-37763318D01*
X45407776Y-37602002D01*
X45569092Y-37602002D01*
X45730408Y-37602002D01*
X45730408Y-37279369D01*
X45730408Y-36956736D01*
X45891725Y-36956736D01*
X46053041Y-36956736D01*
X46053041Y-37118053D01*
G37*
G36*
X46375674Y-36634104D02*
G01*
X46375674Y-36956736D01*
X46214358Y-36956736D01*
X46053041Y-36956736D01*
X46053041Y-36634104D01*
X46053041Y-36311471D01*
X46214358Y-36311471D01*
X46375674Y-36311471D01*
X46375674Y-36634104D01*
G37*
G36*
X51053850Y-34698307D02*
G01*
X51215166Y-34698307D01*
X51215166Y-34859623D01*
X51215166Y-35020940D01*
X51376482Y-35020940D01*
X51537799Y-35020940D01*
X51537799Y-34859623D01*
X51537799Y-34698307D01*
X51860432Y-34698307D01*
X52183064Y-34698307D01*
X52183064Y-34859623D01*
X52183064Y-35020940D01*
X52021748Y-35020940D01*
X51860432Y-35020940D01*
X51860432Y-35182256D01*
X51860432Y-35343572D01*
X51699115Y-35343572D01*
X51537799Y-35343572D01*
X51537799Y-35504889D01*
X51537799Y-35666205D01*
X51699115Y-35666205D01*
X51860432Y-35666205D01*
X51860432Y-35504889D01*
X51860432Y-35343572D01*
X52021748Y-35343572D01*
X52183064Y-35343572D01*
X52183064Y-35504889D01*
X52183064Y-35666205D01*
X52021748Y-35666205D01*
X51860432Y-35666205D01*
X51860432Y-35827522D01*
X51860432Y-35988838D01*
X51537799Y-35988838D01*
X51215166Y-35988838D01*
X51215166Y-36150154D01*
X51215166Y-36311471D01*
X51053850Y-36311471D01*
X50892533Y-36311471D01*
X50892533Y-36472787D01*
X50892533Y-36634104D01*
X50731217Y-36634104D01*
X50569900Y-36634104D01*
X50569900Y-36311471D01*
X50569900Y-35988838D01*
X50247268Y-35988838D01*
X49924635Y-35988838D01*
X49924635Y-35827522D01*
X50892533Y-35827522D01*
X50892533Y-35988838D01*
X51053850Y-35988838D01*
X51215166Y-35988838D01*
X51215166Y-35827522D01*
X51215166Y-35666205D01*
X51053850Y-35666205D01*
X50892533Y-35666205D01*
X50892533Y-35827522D01*
X49924635Y-35827522D01*
X49924635Y-35666205D01*
X50085951Y-35666205D01*
X50247268Y-35666205D01*
X50247268Y-35504889D01*
X50247268Y-35343572D01*
X50408584Y-35343572D01*
X50569900Y-35343572D01*
X50569900Y-35504889D01*
X50569900Y-35666205D01*
X50731217Y-35666205D01*
X50892533Y-35666205D01*
X50892533Y-35182256D01*
X50892533Y-34698307D01*
X51053850Y-34698307D01*
G37*
G36*
X50247268Y-33569092D02*
G01*
X50247268Y-33730408D01*
X50408584Y-33730408D01*
X50569900Y-33730408D01*
X50569900Y-33569092D01*
X50569900Y-33407776D01*
X50892533Y-33407776D01*
X51215166Y-33407776D01*
X51376482Y-33407776D01*
X52183064Y-33407776D01*
X52183064Y-33891725D01*
X52183064Y-34375674D01*
X52021748Y-34375674D01*
X51860432Y-34375674D01*
X51860432Y-34214358D01*
X51860432Y-34053041D01*
X51699115Y-34053041D01*
X51537799Y-34053041D01*
X51537799Y-34214358D01*
X51537799Y-34375674D01*
X51215166Y-34375674D01*
X50892533Y-34375674D01*
X50892533Y-34536990D01*
X50892533Y-34698307D01*
X50569900Y-34698307D01*
X50247268Y-34698307D01*
X50247268Y-34859623D01*
X50247268Y-35020940D01*
X50085951Y-35020940D01*
X49924635Y-35020940D01*
X49924635Y-34698307D01*
X49924635Y-34375674D01*
X49763318Y-34375674D01*
X49602002Y-34375674D01*
X49602002Y-34053041D01*
X50247268Y-34053041D01*
X50247268Y-34214358D01*
X50247268Y-34375674D01*
X50408584Y-34375674D01*
X50569900Y-34375674D01*
X50569900Y-34214358D01*
X50569900Y-34053041D01*
X50731217Y-34053041D01*
X50892533Y-34053041D01*
X50892533Y-33891725D01*
X51215166Y-33891725D01*
X51215166Y-34053041D01*
X51376482Y-34053041D01*
X51537799Y-34053041D01*
X51537799Y-33891725D01*
X51537799Y-33730408D01*
X51376482Y-33730408D01*
X51215166Y-33730408D01*
X51215166Y-33891725D01*
X50892533Y-33891725D01*
X50892533Y-33730408D01*
X50731217Y-33730408D01*
X50569900Y-33730408D01*
X50569900Y-33891725D01*
X50569900Y-34053041D01*
X50408584Y-34053041D01*
X50247268Y-34053041D01*
X49602002Y-34053041D01*
X49602002Y-33730408D01*
X49440686Y-33730408D01*
X49279369Y-33730408D01*
X49279369Y-33569092D01*
X49279369Y-33407776D01*
X49763318Y-33407776D01*
X50247268Y-33407776D01*
X50247268Y-33569092D01*
G37*
G36*
X45891725Y-34698307D02*
G01*
X46053041Y-34698307D01*
X46053041Y-34859623D01*
X46053041Y-35020940D01*
X46214358Y-35020940D01*
X46375674Y-35020940D01*
X46375674Y-34859623D01*
X46375674Y-34698307D01*
X46698307Y-34698307D01*
X47020940Y-34698307D01*
X47020940Y-34859623D01*
X47020940Y-35020940D01*
X46859623Y-35020940D01*
X46698307Y-35020940D01*
X46698307Y-35182256D01*
X46698307Y-35343572D01*
X46536990Y-35343572D01*
X46375674Y-35343572D01*
X46375674Y-35504889D01*
X46375674Y-35666205D01*
X46536990Y-35666205D01*
X46698307Y-35666205D01*
X46698307Y-35504889D01*
X46698307Y-35343572D01*
X46859623Y-35343572D01*
X47020940Y-35343572D01*
X47020940Y-35988838D01*
X47020940Y-36634104D01*
X46859623Y-36634104D01*
X46698307Y-36634104D01*
X46698307Y-36311471D01*
X46698307Y-35988838D01*
X46375674Y-35988838D01*
X46053041Y-35988838D01*
X46053041Y-35827522D01*
X46053041Y-35666205D01*
X45891725Y-35666205D01*
X45730408Y-35666205D01*
X45730408Y-36150154D01*
X45730408Y-36634104D01*
X45569092Y-36634104D01*
X45407776Y-36634104D01*
X45407776Y-36795420D01*
X45407776Y-36956736D01*
X44923826Y-36956736D01*
X44439877Y-36956736D01*
X44439877Y-37118053D01*
X44439877Y-37279369D01*
X44762510Y-37279369D01*
X45085143Y-37279369D01*
X45085143Y-37440686D01*
X45085143Y-37602002D01*
X44601194Y-37602002D01*
X44117244Y-37602002D01*
X44117244Y-37440686D01*
X44117244Y-37279369D01*
X43955928Y-37279369D01*
X43794612Y-37279369D01*
X43794612Y-37440686D01*
X43794612Y-37602002D01*
X43633295Y-37602002D01*
X43471979Y-37602002D01*
X43471979Y-37440686D01*
X43471979Y-37279369D01*
X43633295Y-37279369D01*
X43794612Y-37279369D01*
X43794612Y-37118053D01*
X43794612Y-36956736D01*
X44117244Y-36956736D01*
X44439877Y-36956736D01*
X44439877Y-36795420D01*
X44439877Y-36634104D01*
X44923826Y-36634104D01*
X45407776Y-36634104D01*
X45407776Y-36311471D01*
X45407776Y-35988838D01*
X45246459Y-35988838D01*
X45085143Y-35988838D01*
X45085143Y-36150154D01*
X45085143Y-36311471D01*
X44923826Y-36311471D01*
X44762510Y-36311471D01*
X44762510Y-36150154D01*
X44762510Y-35988838D01*
X44923826Y-35988838D01*
X45085143Y-35988838D01*
X45085143Y-35827522D01*
X45085143Y-35666205D01*
X44923826Y-35666205D01*
X44762510Y-35666205D01*
X44762510Y-35827522D01*
X44762510Y-35988838D01*
X44601194Y-35988838D01*
X44439877Y-35988838D01*
X44439877Y-35827522D01*
X44439877Y-35666205D01*
X44601194Y-35666205D01*
X44762510Y-35666205D01*
X44762510Y-35504889D01*
X44762510Y-35343572D01*
X45085143Y-35343572D01*
X45407776Y-35343572D01*
X45407776Y-35504889D01*
X45407776Y-35666205D01*
X45569092Y-35666205D01*
X45730408Y-35666205D01*
X45730408Y-35182256D01*
X45730408Y-34698307D01*
X45891725Y-34698307D01*
G37*
G36*
X46053041Y-30988030D02*
G01*
X46053041Y-31149346D01*
X45891725Y-31149346D01*
X45730408Y-31149346D01*
X45730408Y-31471979D01*
X45730408Y-31794612D01*
X45891725Y-31794612D01*
X46053041Y-31794612D01*
X46053041Y-31955928D01*
X46053041Y-32117244D01*
X46214358Y-32117244D01*
X46375674Y-32117244D01*
X46375674Y-32601194D01*
X46375674Y-33085143D01*
X46536990Y-33085143D01*
X46698307Y-33085143D01*
X46698307Y-32923826D01*
X47020940Y-32923826D01*
X47020940Y-33085143D01*
X47182256Y-33085143D01*
X47343572Y-33085143D01*
X47343572Y-32923826D01*
X47343572Y-32762510D01*
X47182256Y-32762510D01*
X47020940Y-32762510D01*
X47020940Y-32923826D01*
X46698307Y-32923826D01*
X46698307Y-32762510D01*
X46698307Y-32439877D01*
X47020940Y-32439877D01*
X47343572Y-32439877D01*
X47343572Y-32278561D01*
X47343572Y-32117244D01*
X47504889Y-32117244D01*
X47666205Y-32117244D01*
X47666205Y-32278561D01*
X47666205Y-32439877D01*
X47988838Y-32439877D01*
X48311471Y-32439877D01*
X48311471Y-32762510D01*
X48311471Y-33085143D01*
X48150154Y-33085143D01*
X47988838Y-33085143D01*
X47988838Y-32923826D01*
X47988838Y-32762510D01*
X47827522Y-32762510D01*
X47666205Y-32762510D01*
X47666205Y-32923826D01*
X47666205Y-33085143D01*
X47504889Y-33085143D01*
X47343572Y-33085143D01*
X47343572Y-33246459D01*
X47343572Y-33407776D01*
X47666205Y-33407776D01*
X47988838Y-33407776D01*
X47988838Y-33569092D01*
X47988838Y-33730408D01*
X47504889Y-33730408D01*
X47020940Y-33730408D01*
X47020940Y-34053041D01*
X47020940Y-34375674D01*
X46859623Y-34375674D01*
X46698307Y-34375674D01*
X46698307Y-34053041D01*
X46698307Y-33730408D01*
X46536990Y-33730408D01*
X46375674Y-33730408D01*
X46375674Y-33569092D01*
X46375674Y-33407776D01*
X46214358Y-33407776D01*
X46053041Y-33407776D01*
X46053041Y-33569092D01*
X46053041Y-33730408D01*
X45891725Y-33730408D01*
X45730408Y-33730408D01*
X45730408Y-33891725D01*
X45730408Y-34053041D01*
X45569092Y-34053041D01*
X45407776Y-34053041D01*
X45407776Y-34214358D01*
X45407776Y-34375674D01*
X45569092Y-34375674D01*
X45730408Y-34375674D01*
X45730408Y-34214358D01*
X45730408Y-34053041D01*
X46053041Y-34053041D01*
X46375674Y-34053041D01*
X46375674Y-34214358D01*
X46375674Y-34375674D01*
X46053041Y-34375674D01*
X45730408Y-34375674D01*
X45730408Y-34536990D01*
X45730408Y-34698307D01*
X45407776Y-34698307D01*
X45085143Y-34698307D01*
X45085143Y-34859623D01*
X45085143Y-35020940D01*
X44762510Y-35020940D01*
X44439877Y-35020940D01*
X44439877Y-34698307D01*
X44439877Y-34375674D01*
X44601194Y-34375674D01*
X44762510Y-34375674D01*
X44762510Y-34536990D01*
X44762510Y-34698307D01*
X44923826Y-34698307D01*
X45085143Y-34698307D01*
X45085143Y-34536990D01*
X45085143Y-34375674D01*
X44923826Y-34375674D01*
X44762510Y-34375674D01*
X44762510Y-34214358D01*
X44762510Y-34053041D01*
X44439877Y-34053041D01*
X44117244Y-34053041D01*
X44117244Y-34214358D01*
X44117244Y-34375674D01*
X43955928Y-34375674D01*
X43794612Y-34375674D01*
X43794612Y-33891725D01*
X43794612Y-33407776D01*
X43955928Y-33407776D01*
X44117244Y-33407776D01*
X44117244Y-33569092D01*
X44117244Y-33730408D01*
X44278561Y-33730408D01*
X44439877Y-33730408D01*
X44439877Y-33569092D01*
X44439877Y-33407776D01*
X44762510Y-33407776D01*
X45085143Y-33407776D01*
X45085143Y-33569092D01*
X45085143Y-33730408D01*
X44923826Y-33730408D01*
X44762510Y-33730408D01*
X44762510Y-33891725D01*
X44762510Y-34053041D01*
X44923826Y-34053041D01*
X45085143Y-34053041D01*
X45085143Y-33891725D01*
X45085143Y-33730408D01*
X45246459Y-33730408D01*
X45407776Y-33730408D01*
X45407776Y-33246459D01*
X45407776Y-32762510D01*
X45569092Y-32762510D01*
X45730408Y-32762510D01*
X45730408Y-32923826D01*
X45730408Y-33085143D01*
X45891725Y-33085143D01*
X46053041Y-33085143D01*
X46053041Y-32923826D01*
X46053041Y-32762510D01*
X45891725Y-32762510D01*
X45730408Y-32762510D01*
X45730408Y-32601194D01*
X45730408Y-32439877D01*
X45569092Y-32439877D01*
X45407776Y-32439877D01*
X45407776Y-31633295D01*
X45407776Y-30826713D01*
X45730408Y-30826713D01*
X46053041Y-30826713D01*
X46053041Y-30988030D01*
G37*
G36*
X47020940Y-31149346D02*
G01*
X47020940Y-31471979D01*
X47182256Y-31471979D01*
X47343572Y-31471979D01*
X47343572Y-31310662D01*
X47343572Y-31149346D01*
X47504889Y-31149346D01*
X47666205Y-31149346D01*
X47666205Y-30988030D01*
X47666205Y-30826713D01*
X48634104Y-30826713D01*
X49602002Y-30826713D01*
X49602002Y-30988030D01*
X49602002Y-31149346D01*
X48795420Y-31149346D01*
X47988838Y-31149346D01*
X47988838Y-31310662D01*
X47988838Y-31471979D01*
X47666205Y-31471979D01*
X47343572Y-31471979D01*
X47343572Y-31794612D01*
X47343572Y-32117244D01*
X47182256Y-32117244D01*
X47020940Y-32117244D01*
X47020940Y-31955928D01*
X47020940Y-31794612D01*
X46859623Y-31794612D01*
X46698307Y-31794612D01*
X46698307Y-31471979D01*
X46698307Y-31149346D01*
X46536990Y-31149346D01*
X46375674Y-31149346D01*
X46375674Y-31310662D01*
X46375674Y-31471979D01*
X46214358Y-31471979D01*
X46053041Y-31471979D01*
X46053041Y-31310662D01*
X46053041Y-31149346D01*
X46214358Y-31149346D01*
X46375674Y-31149346D01*
X46375674Y-30988030D01*
X46375674Y-30826713D01*
X46698307Y-30826713D01*
X47020940Y-30826713D01*
X47020940Y-31149346D01*
G37*
G36*
X48472787Y-34698307D02*
G01*
X48634104Y-34698307D01*
X48634104Y-34859623D01*
X48634104Y-35020940D01*
X48795420Y-35020940D01*
X48956736Y-35020940D01*
X48956736Y-34859623D01*
X48956736Y-34698307D01*
X49279369Y-34698307D01*
X49602002Y-34698307D01*
X49602002Y-34859623D01*
X49602002Y-35020940D01*
X49440686Y-35020940D01*
X49279369Y-35020940D01*
X49279369Y-35182256D01*
X49279369Y-35343572D01*
X49118053Y-35343572D01*
X48956736Y-35343572D01*
X48956736Y-35504889D01*
X48956736Y-35666205D01*
X49118053Y-35666205D01*
X49279369Y-35666205D01*
X49279369Y-35504889D01*
X49279369Y-35343572D01*
X49440686Y-35343572D01*
X49602002Y-35343572D01*
X49602002Y-35504889D01*
X49602002Y-35666205D01*
X49440686Y-35666205D01*
X49279369Y-35666205D01*
X49279369Y-35827522D01*
X49279369Y-35988838D01*
X48956736Y-35988838D01*
X48634104Y-35988838D01*
X48634104Y-35827522D01*
X48634104Y-35666205D01*
X48472787Y-35666205D01*
X48311471Y-35666205D01*
X48311471Y-35988838D01*
X48311471Y-36311471D01*
X48634104Y-36311471D01*
X48956736Y-36311471D01*
X48956736Y-36472787D01*
X48956736Y-36634104D01*
X48795420Y-36634104D01*
X48634104Y-36634104D01*
X48634104Y-36956736D01*
X48634104Y-37279369D01*
X48311471Y-37279369D01*
X47988838Y-37279369D01*
X47988838Y-37440686D01*
X47988838Y-37602002D01*
X48311471Y-37602002D01*
X48634104Y-37602002D01*
X48634104Y-37763318D01*
X48634104Y-37924635D01*
X48795420Y-37924635D01*
X48956736Y-37924635D01*
X48956736Y-37763318D01*
X48956736Y-37602002D01*
X48795420Y-37602002D01*
X48634104Y-37602002D01*
X48634104Y-37440686D01*
X48634104Y-37279369D01*
X48956736Y-37279369D01*
X49279369Y-37279369D01*
X49279369Y-37118053D01*
X49279369Y-36956736D01*
X49440686Y-36956736D01*
X49602002Y-36956736D01*
X49602002Y-37118053D01*
X49602002Y-37279369D01*
X49763318Y-37279369D01*
X49924635Y-37279369D01*
X49924635Y-37118053D01*
X49924635Y-36956736D01*
X49763318Y-36956736D01*
X49602002Y-36956736D01*
X49602002Y-36795420D01*
X49602002Y-36634104D01*
X49440686Y-36634104D01*
X49279369Y-36634104D01*
X49279369Y-36311471D01*
X49279369Y-35988838D01*
X49440686Y-35988838D01*
X49602002Y-35988838D01*
X49602002Y-36311471D01*
X49602002Y-36634104D01*
X49763318Y-36634104D01*
X49924635Y-36634104D01*
X49924635Y-36472787D01*
X49924635Y-36311471D01*
X50085951Y-36311471D01*
X50247268Y-36311471D01*
X50247268Y-36634104D01*
X50247268Y-36956736D01*
X50408584Y-36956736D01*
X50569900Y-36956736D01*
X50569900Y-37118053D01*
X50569900Y-37279369D01*
X50731217Y-37279369D01*
X50892533Y-37279369D01*
X50892533Y-37118053D01*
X50892533Y-36956736D01*
X51053850Y-36956736D01*
X51215166Y-36956736D01*
X51215166Y-36795420D01*
X51215166Y-36634104D01*
X51537799Y-36634104D01*
X51860432Y-36634104D01*
X51860432Y-36472787D01*
X51860432Y-36311471D01*
X52021748Y-36311471D01*
X52183064Y-36311471D01*
X52183064Y-36472787D01*
X52183064Y-36634104D01*
X52021748Y-36634104D01*
X51860432Y-36634104D01*
X51860432Y-36795420D01*
X51860432Y-36956736D01*
X51699115Y-36956736D01*
X51537799Y-36956736D01*
X51537799Y-37118053D01*
X51537799Y-37279369D01*
X51699115Y-37279369D01*
X51860432Y-37279369D01*
X51860432Y-37118053D01*
X51860432Y-36956736D01*
X52021748Y-36956736D01*
X52183064Y-36956736D01*
X52183064Y-37118053D01*
X52183064Y-37279369D01*
X52021748Y-37279369D01*
X51860432Y-37279369D01*
X51860432Y-37602002D01*
X51860432Y-37924635D01*
X51699115Y-37924635D01*
X51537799Y-37924635D01*
X51537799Y-38085951D01*
X51537799Y-38247268D01*
X51699115Y-38247268D01*
X51860432Y-38247268D01*
X51860432Y-38085951D01*
X51860432Y-37924635D01*
X52021748Y-37924635D01*
X52183064Y-37924635D01*
X52183064Y-38408584D01*
X52183064Y-38892533D01*
X52021748Y-38892533D01*
X51860432Y-38892533D01*
X51860432Y-39053850D01*
X51860432Y-39215166D01*
X51699115Y-39215166D01*
X51537799Y-39215166D01*
X51537799Y-39376482D01*
X51537799Y-39537799D01*
X51699115Y-39537799D01*
X51860432Y-39537799D01*
X51860432Y-39376482D01*
X51860432Y-39215166D01*
X52021748Y-39215166D01*
X52183064Y-39215166D01*
X52183064Y-39376482D01*
X52183064Y-39537799D01*
X52021748Y-39537799D01*
X51860432Y-39537799D01*
X51860432Y-39699115D01*
X51860432Y-39860432D01*
X51537799Y-39860432D01*
X51215166Y-39860432D01*
X51215166Y-40021748D01*
X51215166Y-40183064D01*
X51053850Y-40183064D01*
X50892533Y-40183064D01*
X50892533Y-39860432D01*
X50892533Y-39537799D01*
X50731217Y-39537799D01*
X50569900Y-39537799D01*
X50569900Y-39699115D01*
X50569900Y-39860432D01*
X50408584Y-39860432D01*
X50247268Y-39860432D01*
X50247268Y-39699115D01*
X50247268Y-39537799D01*
X50408584Y-39537799D01*
X50569900Y-39537799D01*
X50569900Y-39376482D01*
X50569900Y-39215166D01*
X50731217Y-39215166D01*
X50892533Y-39215166D01*
X50892533Y-39053850D01*
X50892533Y-38892533D01*
X51053850Y-38892533D01*
X51215166Y-38892533D01*
X51215166Y-38731217D01*
X51537799Y-38731217D01*
X51537799Y-38892533D01*
X51699115Y-38892533D01*
X51860432Y-38892533D01*
X51860432Y-38731217D01*
X51860432Y-38569900D01*
X51699115Y-38569900D01*
X51537799Y-38569900D01*
X51537799Y-38731217D01*
X51215166Y-38731217D01*
X51215166Y-38247268D01*
X51215166Y-37602002D01*
X51053850Y-37602002D01*
X50892533Y-37602002D01*
X50892533Y-38247268D01*
X50892533Y-38892533D01*
X50569900Y-38892533D01*
X50247268Y-38892533D01*
X50247268Y-39215166D01*
X50247268Y-39537799D01*
X50085951Y-39537799D01*
X49924635Y-39537799D01*
X49924635Y-39860432D01*
X49924635Y-40183064D01*
X49602002Y-40183064D01*
X49279369Y-40183064D01*
X49279369Y-40021748D01*
X49279369Y-39860432D01*
X49118053Y-39860432D01*
X48956736Y-39860432D01*
X48956736Y-39699115D01*
X48956736Y-39537799D01*
X49118053Y-39537799D01*
X49279369Y-39537799D01*
X49279369Y-39376482D01*
X49279369Y-39215166D01*
X49440686Y-39215166D01*
X49602002Y-39215166D01*
X49602002Y-39053850D01*
X49602002Y-38892533D01*
X49440686Y-38892533D01*
X49279369Y-38892533D01*
X49279369Y-38569900D01*
X49279369Y-38247268D01*
X49118053Y-38247268D01*
X48956736Y-38247268D01*
X48956736Y-38569900D01*
X48956736Y-38892533D01*
X48634104Y-38892533D01*
X48311471Y-38892533D01*
X48311471Y-39053850D01*
X48311471Y-39215166D01*
X48634104Y-39215166D01*
X48956736Y-39215166D01*
X48956736Y-39376482D01*
X48956736Y-39537799D01*
X48472787Y-39537799D01*
X47988838Y-39537799D01*
X47988838Y-39699115D01*
X47988838Y-39860432D01*
X47827522Y-39860432D01*
X47666205Y-39860432D01*
X47666205Y-39699115D01*
X47666205Y-39537799D01*
X47827522Y-39537799D01*
X47988838Y-39537799D01*
X47988838Y-39215166D01*
X47988838Y-38892533D01*
X48150154Y-38892533D01*
X48311471Y-38892533D01*
X48311471Y-38731217D01*
X48311471Y-38569900D01*
X48150154Y-38569900D01*
X47988838Y-38569900D01*
X47988838Y-38731217D01*
X47988838Y-38892533D01*
X47827522Y-38892533D01*
X47666205Y-38892533D01*
X47666205Y-39215166D01*
X47666205Y-39537799D01*
X47504889Y-39537799D01*
X47343572Y-39537799D01*
X47343572Y-39215166D01*
X47343572Y-38892533D01*
X47182256Y-38892533D01*
X47020940Y-38892533D01*
X47020940Y-39215166D01*
X47020940Y-39537799D01*
X46859623Y-39537799D01*
X46698307Y-39537799D01*
X46698307Y-39699115D01*
X46698307Y-39860432D01*
X46536990Y-39860432D01*
X46375674Y-39860432D01*
X46375674Y-39699115D01*
X46375674Y-39537799D01*
X46536990Y-39537799D01*
X46698307Y-39537799D01*
X46698307Y-39376482D01*
X46698307Y-39215166D01*
X46536990Y-39215166D01*
X46375674Y-39215166D01*
X46375674Y-39053850D01*
X46375674Y-38892533D01*
X46698307Y-38892533D01*
X47020940Y-38892533D01*
X47020940Y-38247268D01*
X47343572Y-38247268D01*
X47343572Y-38569900D01*
X47504889Y-38569900D01*
X47666205Y-38569900D01*
X47666205Y-38247268D01*
X47666205Y-38085951D01*
X47988838Y-38085951D01*
X47988838Y-38247268D01*
X48150154Y-38247268D01*
X48311471Y-38247268D01*
X48311471Y-38085951D01*
X49602002Y-38085951D01*
X49602002Y-38569900D01*
X50085951Y-38569900D01*
X50569900Y-38569900D01*
X50569900Y-38085951D01*
X50569900Y-37602002D01*
X50085951Y-37602002D01*
X49602002Y-37602002D01*
X49602002Y-38085951D01*
X48311471Y-38085951D01*
X48311471Y-37924635D01*
X48150154Y-37924635D01*
X47988838Y-37924635D01*
X47988838Y-38085951D01*
X47666205Y-38085951D01*
X47666205Y-37924635D01*
X47504889Y-37924635D01*
X47343572Y-37924635D01*
X47343572Y-38247268D01*
X47020940Y-38247268D01*
X47020940Y-37924635D01*
X47020940Y-36956736D01*
X47182256Y-36956736D01*
X47343572Y-36956736D01*
X47343572Y-37118053D01*
X47343572Y-37279369D01*
X47504889Y-37279369D01*
X47666205Y-37279369D01*
X47666205Y-37118053D01*
X47666205Y-36956736D01*
X47827522Y-36956736D01*
X47988838Y-36956736D01*
X47988838Y-36311471D01*
X47988838Y-35666205D01*
X47827522Y-35666205D01*
X47666205Y-35666205D01*
X47666205Y-35827522D01*
X47666205Y-35988838D01*
X47504889Y-35988838D01*
X47343572Y-35988838D01*
X47343572Y-35827522D01*
X47343572Y-35666205D01*
X47504889Y-35666205D01*
X47666205Y-35666205D01*
X47666205Y-35504889D01*
X47666205Y-35343572D01*
X47827522Y-35343572D01*
X47988838Y-35343572D01*
X47988838Y-35504889D01*
X47988838Y-35666205D01*
X48150154Y-35666205D01*
X48311471Y-35666205D01*
X48311471Y-35182256D01*
X48311471Y-34698307D01*
X48472787Y-34698307D01*
G37*
G36*
X48311471Y-34536990D02*
G01*
X48311471Y-34698307D01*
X47988838Y-34698307D01*
X47666205Y-34698307D01*
X47666205Y-34859623D01*
X47666205Y-35020940D01*
X47504889Y-35020940D01*
X47343572Y-35020940D01*
X47343572Y-34698307D01*
X47343572Y-34375674D01*
X47827522Y-34375674D01*
X48311471Y-34375674D01*
X48311471Y-34536990D01*
G37*
%TO.C,REF\u002A\u002A*%
G36*
X44935110Y-24189384D02*
G01*
X44942125Y-24201727D01*
X44940331Y-24235892D01*
X44912515Y-24288539D01*
X44852696Y-24366599D01*
X44754895Y-24476999D01*
X44613132Y-24626669D01*
X44421426Y-24822538D01*
X44173798Y-25071536D01*
X43957254Y-25286712D01*
X43757666Y-25481970D01*
X43585066Y-25647707D01*
X43447851Y-25775955D01*
X43354419Y-25858747D01*
X43313167Y-25888115D01*
X43302031Y-25884456D01*
X43236317Y-25837343D01*
X43133909Y-25747295D01*
X43011694Y-25628836D01*
X42755120Y-25369556D01*
X43381636Y-24755576D01*
X43522523Y-24617499D01*
X43760881Y-24384084D01*
X44292932Y-24384084D01*
X44320035Y-24413359D01*
X44391148Y-24379642D01*
X44452841Y-24346962D01*
X44521562Y-24378778D01*
X44561867Y-24404456D01*
X44586248Y-24386603D01*
X44583989Y-24371031D01*
X44540315Y-24312355D01*
X44521877Y-24281479D01*
X44561971Y-24209282D01*
X44578403Y-24189468D01*
X44605644Y-24121995D01*
X44572422Y-24100855D01*
X44497000Y-24144311D01*
X44443888Y-24180395D01*
X44393926Y-24165967D01*
X44382895Y-24151768D01*
X44319679Y-24120034D01*
X44300203Y-24130997D01*
X44327504Y-24184720D01*
X44359371Y-24245792D01*
X44326639Y-24315134D01*
X44292932Y-24384084D01*
X43760881Y-24384084D01*
X43779661Y-24365693D01*
X43984598Y-24165957D01*
X44143798Y-24012719D01*
X44263724Y-23900409D01*
X44350839Y-23823459D01*
X44411607Y-23776296D01*
X44452490Y-23753353D01*
X44479952Y-23749058D01*
X44500457Y-23757841D01*
X44520467Y-23774133D01*
X44565648Y-23801693D01*
X44616798Y-23801991D01*
X44623519Y-23798592D01*
X44677218Y-23819860D01*
X44754997Y-23881744D01*
X44834003Y-23961698D01*
X44891383Y-24037176D01*
X44904287Y-24085632D01*
X44900496Y-24118499D01*
X44902203Y-24121995D01*
X44935110Y-24189384D01*
G37*
G36*
X38200673Y-24945528D02*
G01*
X38200673Y-25502841D01*
X37826515Y-25863398D01*
X37820006Y-25869669D01*
X37676103Y-26007604D01*
X37556924Y-26120550D01*
X37474701Y-26196999D01*
X37441666Y-26225445D01*
X37440413Y-26219290D01*
X37437398Y-26149140D01*
X37434804Y-26010573D01*
X37432773Y-25815910D01*
X37431449Y-25577471D01*
X37430976Y-25307576D01*
X37430976Y-24783921D01*
X37580640Y-24783921D01*
X37676852Y-24802847D01*
X37735713Y-24828109D01*
X37773064Y-24904321D01*
X37780675Y-24951188D01*
X37815825Y-24986869D01*
X37840678Y-24970832D01*
X37858586Y-24901347D01*
X37872641Y-24846062D01*
X37944108Y-24815825D01*
X37993815Y-24807807D01*
X38029629Y-24773064D01*
X38013593Y-24748210D01*
X37944108Y-24730303D01*
X37888822Y-24716248D01*
X37858586Y-24644781D01*
X37850567Y-24595074D01*
X37815825Y-24559259D01*
X37791958Y-24573064D01*
X37773064Y-24639794D01*
X37753433Y-24695952D01*
X37676852Y-24752125D01*
X37580640Y-24783921D01*
X37430976Y-24783921D01*
X37430976Y-24388216D01*
X37537879Y-24388216D01*
X37608187Y-24377599D01*
X37644781Y-24345455D01*
X37652017Y-24325783D01*
X37708922Y-24302694D01*
X37716651Y-24302188D01*
X37750676Y-24275089D01*
X37768138Y-24195104D01*
X37773064Y-24046128D01*
X37773064Y-23789562D01*
X38521380Y-23789562D01*
X39269697Y-23789562D01*
X39269697Y-23893941D01*
X39267162Y-23936048D01*
X39242531Y-24008420D01*
X39205054Y-24019722D01*
X39171355Y-23958961D01*
X39167597Y-23945988D01*
X39150967Y-23916533D01*
X39115114Y-23896768D01*
X39046784Y-23885193D01*
X38932722Y-23880309D01*
X38759675Y-23880614D01*
X38514389Y-23884610D01*
X37879966Y-23896465D01*
X37866655Y-24081517D01*
X37864367Y-24200213D01*
X37886219Y-24261697D01*
X37941487Y-24289618D01*
X37993959Y-24310813D01*
X38029629Y-24350442D01*
X38045635Y-24372378D01*
X38115151Y-24388216D01*
X38147809Y-24392092D01*
X38172410Y-24413414D01*
X38187909Y-24465806D01*
X38196393Y-24562882D01*
X38199951Y-24718252D01*
X38200125Y-24773064D01*
X38200673Y-24945528D01*
G37*
G36*
X40571136Y-24210599D02*
G01*
X40749532Y-24562149D01*
X40870286Y-24936544D01*
X40930365Y-25325796D01*
X40928770Y-25500000D01*
X40926738Y-25721916D01*
X40856372Y-26116916D01*
X40716235Y-26502807D01*
X40503294Y-26871601D01*
X40214518Y-27215311D01*
X40002713Y-27408143D01*
X39622643Y-27669039D01*
X39213768Y-27850077D01*
X38777946Y-27950306D01*
X38468176Y-27969874D01*
X38040825Y-27928128D01*
X37628682Y-27811442D01*
X37241689Y-27625971D01*
X36889787Y-27377871D01*
X36665307Y-27155072D01*
X37083139Y-27155072D01*
X37298483Y-27293258D01*
X37382583Y-27343984D01*
X37567374Y-27441955D01*
X37739658Y-27519175D01*
X37809904Y-27542684D01*
X38032612Y-27589596D01*
X38296309Y-27617797D01*
X38570310Y-27625921D01*
X38823930Y-27612602D01*
X39026483Y-27576473D01*
X39310091Y-27474855D01*
X39680107Y-27271026D01*
X39996188Y-27007074D01*
X40252627Y-26690496D01*
X40443715Y-26328792D01*
X40563746Y-25929460D01*
X40607011Y-25500000D01*
X40603957Y-25332394D01*
X40576394Y-25086193D01*
X40515378Y-24853944D01*
X40480567Y-24757975D01*
X40406434Y-24586677D01*
X40324126Y-24426260D01*
X40243552Y-24293884D01*
X40174625Y-24206711D01*
X40127253Y-24181900D01*
X40126869Y-24182056D01*
X40084009Y-24216655D01*
X39990793Y-24301516D01*
X39857399Y-24427061D01*
X39694009Y-24583712D01*
X39510803Y-24761890D01*
X38932601Y-25327988D01*
X39289835Y-25937816D01*
X39545682Y-26374568D01*
X39647069Y-26547643D01*
X39308719Y-26560063D01*
X38970370Y-26572482D01*
X38970370Y-26955602D01*
X38970370Y-27210438D01*
X38970370Y-27338721D01*
X38245308Y-27338721D01*
X37520245Y-27338721D01*
X37507681Y-27037496D01*
X37495276Y-26740067D01*
X37602020Y-26740067D01*
X37602020Y-26975253D01*
X37602020Y-27210438D01*
X38243434Y-27210438D01*
X38884848Y-27210438D01*
X38884848Y-26889731D01*
X38884848Y-26569024D01*
X38564141Y-26569024D01*
X38534171Y-26568906D01*
X38386583Y-26564480D01*
X38282704Y-26554938D01*
X38243434Y-26542040D01*
X38246960Y-26531860D01*
X38282661Y-26460841D01*
X38350704Y-26335437D01*
X38443499Y-26169488D01*
X38553451Y-25976838D01*
X38598416Y-25898594D01*
X38662095Y-25786869D01*
X38868229Y-25786869D01*
X38906386Y-25885152D01*
X38957214Y-25993377D01*
X38965383Y-26043876D01*
X38927609Y-26034512D01*
X38911679Y-26027132D01*
X38886641Y-26042679D01*
X38888322Y-26051580D01*
X38916381Y-26122446D01*
X38967573Y-26225920D01*
X39046713Y-26374568D01*
X39040613Y-26054877D01*
X39037343Y-25945880D01*
X39026097Y-25818401D01*
X39004873Y-25752296D01*
X38970370Y-25732412D01*
X38890715Y-25740601D01*
X38868229Y-25786869D01*
X38662095Y-25786869D01*
X38704687Y-25712140D01*
X38792254Y-25556344D01*
X38853047Y-25445644D01*
X38878994Y-25394479D01*
X38867580Y-25398700D01*
X38806461Y-25450492D01*
X38701437Y-25547462D01*
X38562073Y-25680723D01*
X38397933Y-25841390D01*
X38216797Y-26021099D01*
X38084186Y-26156384D01*
X37995181Y-26255680D01*
X37941088Y-26331150D01*
X37913214Y-26394960D01*
X37902864Y-26459273D01*
X37901347Y-26536255D01*
X37901347Y-26740067D01*
X37751683Y-26740067D01*
X37602020Y-26740067D01*
X37495276Y-26740067D01*
X37495118Y-26736272D01*
X37289128Y-26945672D01*
X37083139Y-27155072D01*
X36665307Y-27155072D01*
X36582915Y-27073297D01*
X36331013Y-26718404D01*
X36144024Y-26319348D01*
X36103534Y-26197952D01*
X36071767Y-26067622D01*
X36052804Y-25923853D01*
X36043633Y-25742646D01*
X36041470Y-25522730D01*
X36326546Y-25522730D01*
X36367730Y-25923521D01*
X36486630Y-26315030D01*
X36684327Y-26686616D01*
X36756752Y-26793227D01*
X36818431Y-26878441D01*
X36847508Y-26911111D01*
X36849776Y-26909525D01*
X36895321Y-26867383D01*
X36994574Y-26772152D01*
X37141717Y-26629507D01*
X37330932Y-26445126D01*
X37556402Y-26224687D01*
X37812309Y-25973866D01*
X38092835Y-25698341D01*
X38392162Y-25403788D01*
X39922505Y-23896465D01*
X39723298Y-23754055D01*
X39641407Y-23697968D01*
X39320424Y-23526270D01*
X38974936Y-23420110D01*
X38582748Y-23372055D01*
X38356441Y-23369118D01*
X37962068Y-23414832D01*
X37605584Y-23531837D01*
X37274688Y-23724872D01*
X36957076Y-23998682D01*
X36917392Y-24039480D01*
X36658502Y-24371029D01*
X36473012Y-24735846D01*
X36362000Y-25123292D01*
X36326546Y-25522730D01*
X36041470Y-25522730D01*
X36041246Y-25500000D01*
X36041256Y-25487277D01*
X36052518Y-25153283D01*
X36089980Y-24875826D01*
X36161068Y-24628839D01*
X36273208Y-24386259D01*
X36433825Y-24122019D01*
X36675259Y-23815209D01*
X36999891Y-23523433D01*
X37369289Y-23293837D01*
X37771673Y-23132248D01*
X38195264Y-23044495D01*
X38628283Y-23036404D01*
X38920651Y-23075116D01*
X39341775Y-23192616D01*
X39720417Y-23372902D01*
X40053546Y-23607987D01*
X40338130Y-23889882D01*
X40342913Y-23896465D01*
X40571136Y-24210599D01*
G37*
G36*
X46516281Y-24028188D02*
G01*
X46738412Y-24396679D01*
X46900955Y-24818718D01*
X46975042Y-25168714D01*
X46988877Y-25478438D01*
X46994456Y-25603321D01*
X46937767Y-26026734D01*
X46810551Y-26430316D01*
X46618382Y-26805432D01*
X46524150Y-26932055D01*
X46366834Y-27143446D01*
X46061483Y-27435723D01*
X45707903Y-27673627D01*
X45311670Y-27848522D01*
X44878358Y-27951774D01*
X44752529Y-27966526D01*
X44306998Y-27966565D01*
X43876041Y-27888696D01*
X43468792Y-27738949D01*
X43094385Y-27523352D01*
X42761953Y-27247934D01*
X42687097Y-27160336D01*
X43120820Y-27160336D01*
X43325515Y-27300019D01*
X43421185Y-27359127D01*
X43606982Y-27455354D01*
X43788704Y-27531826D01*
X43892826Y-27563794D01*
X44154540Y-27616319D01*
X44453104Y-27646316D01*
X44470284Y-27647260D01*
X44652346Y-27656139D01*
X44763958Y-27656889D01*
X44819632Y-27647171D01*
X44833878Y-27624645D01*
X44821205Y-27586973D01*
X44806868Y-27540094D01*
X44787607Y-27417025D01*
X44777630Y-27268081D01*
X44774582Y-27203239D01*
X45123457Y-27203239D01*
X45165976Y-27277677D01*
X45209170Y-27357437D01*
X45233107Y-27450173D01*
X45238146Y-27491010D01*
X45265450Y-27526044D01*
X45299183Y-27517106D01*
X45399531Y-27469746D01*
X45536281Y-27392895D01*
X45688162Y-27299338D01*
X45833900Y-27201861D01*
X45952225Y-27113250D01*
X46029902Y-27047796D01*
X46095687Y-26979834D01*
X46109526Y-26932055D01*
X46081988Y-26885944D01*
X46027666Y-26802426D01*
X45975246Y-26685908D01*
X45952403Y-26625085D01*
X45933399Y-26600220D01*
X45926495Y-26650038D01*
X45920280Y-26711499D01*
X45894942Y-26816893D01*
X45871464Y-26847201D01*
X45834912Y-26818763D01*
X45776351Y-26719001D01*
X45696143Y-26572799D01*
X45601392Y-26416574D01*
X45526958Y-26313698D01*
X45481070Y-26276504D01*
X45476443Y-26278041D01*
X45456728Y-26328990D01*
X45448727Y-26429710D01*
X45448409Y-26450463D01*
X45434947Y-26538317D01*
X45405603Y-26556536D01*
X45404838Y-26556081D01*
X45374405Y-26574284D01*
X45362479Y-26658721D01*
X45345771Y-26762806D01*
X45299846Y-26850190D01*
X45265610Y-26890064D01*
X45250619Y-26928737D01*
X45253273Y-26933828D01*
X45269650Y-26998044D01*
X45288990Y-27106439D01*
X45291658Y-27123964D01*
X45300993Y-27216921D01*
X45284234Y-27244839D01*
X45233243Y-27225030D01*
X45228863Y-27222696D01*
X45143355Y-27185744D01*
X45123457Y-27203239D01*
X44774582Y-27203239D01*
X44773360Y-27177237D01*
X44758257Y-27028182D01*
X44737520Y-26923428D01*
X44721577Y-26869212D01*
X44726232Y-26841462D01*
X44775913Y-26876320D01*
X44835711Y-26910751D01*
X44895524Y-26898181D01*
X44917025Y-26827032D01*
X44889999Y-26712017D01*
X44859322Y-26578225D01*
X44865741Y-26368387D01*
X44868665Y-26345419D01*
X44873707Y-26178571D01*
X44847004Y-26064371D01*
X44840706Y-26052215D01*
X44820819Y-25987159D01*
X44847679Y-25978694D01*
X44908957Y-26022564D01*
X44992322Y-26114516D01*
X45102779Y-26254669D01*
X45103257Y-26069251D01*
X45104161Y-26039243D01*
X45128066Y-25881830D01*
X45174185Y-25747597D01*
X45176782Y-25742470D01*
X45226103Y-25599700D01*
X45248922Y-25447871D01*
X45249978Y-25417338D01*
X45257428Y-25322562D01*
X45267731Y-25284380D01*
X45287178Y-25293975D01*
X45361171Y-25340418D01*
X45468336Y-25412408D01*
X45633363Y-25540910D01*
X45818604Y-25748162D01*
X45920762Y-25965718D01*
X45925562Y-25982266D01*
X45981296Y-26108508D01*
X46051268Y-26200517D01*
X46108271Y-26265161D01*
X46138710Y-26340495D01*
X46151823Y-26394706D01*
X46195567Y-26392784D01*
X46258074Y-26319355D01*
X46301346Y-26265829D01*
X46357240Y-26233107D01*
X46372804Y-26236592D01*
X46375653Y-26276617D01*
X46364104Y-26316821D01*
X46373113Y-26393500D01*
X46403434Y-26456306D01*
X46442512Y-26469093D01*
X46486307Y-26414535D01*
X46539039Y-26286511D01*
X46587906Y-26108956D01*
X46628405Y-25901802D01*
X46656032Y-25684985D01*
X46666285Y-25478438D01*
X46662808Y-25332797D01*
X46618611Y-24992795D01*
X46516413Y-24676447D01*
X46347133Y-24351691D01*
X46209559Y-24124695D01*
X45451809Y-24852559D01*
X45389758Y-24912268D01*
X45113466Y-25180032D01*
X44804712Y-25481718D01*
X44485872Y-25795332D01*
X44179322Y-26098883D01*
X43907439Y-26370380D01*
X43120820Y-27160336D01*
X42687097Y-27160336D01*
X42480630Y-26918723D01*
X42259550Y-26541750D01*
X42107846Y-26123042D01*
X42046092Y-25759731D01*
X42044997Y-25504361D01*
X42351311Y-25504361D01*
X42393513Y-25911987D01*
X42516365Y-26312577D01*
X42720674Y-26696689D01*
X42792372Y-26804307D01*
X42851484Y-26890172D01*
X42876874Y-26923090D01*
X42879143Y-26921212D01*
X42924832Y-26877687D01*
X43024727Y-26780815D01*
X43172997Y-26636298D01*
X43363812Y-26449837D01*
X43591343Y-26227132D01*
X43849759Y-25973886D01*
X44133229Y-25695799D01*
X44435923Y-25398572D01*
X45987776Y-23874055D01*
X45710581Y-23694540D01*
X45698140Y-23686532D01*
X45327646Y-23492795D01*
X44942924Y-23380319D01*
X44527801Y-23344315D01*
X44429519Y-23346167D01*
X44002581Y-23399488D01*
X43616565Y-23527838D01*
X43266934Y-23733152D01*
X42949150Y-24017364D01*
X42700563Y-24333680D01*
X42505641Y-24705766D01*
X42388956Y-25099140D01*
X42351311Y-25504361D01*
X42044997Y-25504361D01*
X42044258Y-25331992D01*
X42110281Y-24903631D01*
X42240630Y-24496355D01*
X42431773Y-24131868D01*
X42611869Y-23888936D01*
X42919038Y-23580717D01*
X43261691Y-23340658D01*
X43631187Y-23167432D01*
X44018881Y-23059710D01*
X44416130Y-23016164D01*
X44814293Y-23035465D01*
X45204724Y-23116285D01*
X45578781Y-23257295D01*
X45927822Y-23457168D01*
X46243203Y-23714575D01*
X46382070Y-23874055D01*
X46516281Y-24028188D01*
G37*
G36*
X52832574Y-24664598D02*
G01*
X52929751Y-25017718D01*
X52974305Y-25379009D01*
X52966114Y-25742473D01*
X52905055Y-26102115D01*
X52791005Y-26451937D01*
X52723214Y-26587391D01*
X52623843Y-26785944D01*
X52580355Y-26852203D01*
X52478180Y-26985385D01*
X52352401Y-27131234D01*
X52216493Y-27275108D01*
X52083930Y-27402366D01*
X51968186Y-27498368D01*
X51761752Y-27630895D01*
X51488258Y-27766162D01*
X51196682Y-27874158D01*
X50907583Y-27946201D01*
X50832051Y-27954575D01*
X50711471Y-27960503D01*
X50566351Y-27962814D01*
X50413703Y-27960996D01*
X50398648Y-27960578D01*
X50216685Y-27952232D01*
X50069524Y-27937083D01*
X49936073Y-27912186D01*
X49795243Y-27874595D01*
X49709680Y-27847604D01*
X49363078Y-27702402D01*
X49046593Y-27510833D01*
X48764110Y-27277067D01*
X48519512Y-27005271D01*
X48316684Y-26699615D01*
X48159508Y-26364268D01*
X48063526Y-26042472D01*
X49377583Y-26042472D01*
X49408955Y-26168996D01*
X49414656Y-26181545D01*
X49426495Y-26204314D01*
X49443531Y-26226050D01*
X49472125Y-26251037D01*
X49518633Y-26283563D01*
X49589414Y-26327912D01*
X49690828Y-26388371D01*
X49829232Y-26469223D01*
X50010985Y-26574756D01*
X50108376Y-26630889D01*
X50257205Y-26714040D01*
X50370125Y-26772268D01*
X50455401Y-26809390D01*
X50521299Y-26829218D01*
X50576085Y-26835570D01*
X50583725Y-26835674D01*
X50641318Y-26833061D01*
X50691177Y-26819748D01*
X50739744Y-26789436D01*
X50793465Y-26735821D01*
X50858784Y-26652602D01*
X50942145Y-26533478D01*
X51049992Y-26372147D01*
X51095102Y-26304852D01*
X51173104Y-26192619D01*
X51236828Y-26106315D01*
X51280645Y-26053419D01*
X51298928Y-26041406D01*
X51288546Y-26073963D01*
X51251367Y-26144046D01*
X51193248Y-26240757D01*
X51120202Y-26353592D01*
X50931483Y-26635801D01*
X50931483Y-27060312D01*
X50931476Y-27082934D01*
X50931610Y-27245533D01*
X50934632Y-27358858D01*
X50944149Y-27430288D01*
X50963766Y-27467204D01*
X50997090Y-27476986D01*
X51047727Y-27467013D01*
X51119282Y-27444667D01*
X51276731Y-27384878D01*
X51508696Y-27263998D01*
X51733527Y-27112051D01*
X51934475Y-26940761D01*
X52094789Y-26761853D01*
X52225934Y-26587391D01*
X52225934Y-25920651D01*
X52225790Y-25777835D01*
X52224236Y-25579029D01*
X52219690Y-25426437D01*
X52210595Y-25312957D01*
X52195395Y-25231491D01*
X52172531Y-25174938D01*
X52140447Y-25136199D01*
X52097586Y-25108172D01*
X52042390Y-25083760D01*
X52029260Y-25079477D01*
X51948951Y-25067887D01*
X51830895Y-25063192D01*
X51688698Y-25064627D01*
X51535970Y-25071431D01*
X51386318Y-25082840D01*
X51253351Y-25098091D01*
X51150678Y-25116420D01*
X51091907Y-25137065D01*
X51059255Y-25172512D01*
X51002595Y-25249271D01*
X50938831Y-25342828D01*
X50928111Y-25358556D01*
X50841630Y-25491814D01*
X50748976Y-25640494D01*
X50747091Y-25643578D01*
X50656952Y-25789698D01*
X50575951Y-25918415D01*
X50509231Y-26021762D01*
X50461932Y-26091774D01*
X50439196Y-26120482D01*
X50438304Y-26120882D01*
X50401491Y-26111655D01*
X50326533Y-26078202D01*
X50223866Y-26025554D01*
X50103923Y-25958746D01*
X49947968Y-25872270D01*
X49805325Y-25804506D01*
X49693684Y-25768813D01*
X49605149Y-25763713D01*
X49531823Y-25787730D01*
X49465813Y-25839388D01*
X49402645Y-25926291D01*
X49377583Y-26042472D01*
X48063526Y-26042472D01*
X48051871Y-26003397D01*
X48031366Y-25868584D01*
X48018769Y-25685097D01*
X48016041Y-25481756D01*
X48018483Y-25409630D01*
X48458705Y-25409630D01*
X48465429Y-25418301D01*
X48508720Y-25457914D01*
X48585446Y-25522648D01*
X48687788Y-25605974D01*
X48807928Y-25701359D01*
X48872557Y-25751967D01*
X48988821Y-25842375D01*
X49085929Y-25917068D01*
X49155215Y-25969400D01*
X49188011Y-25992729D01*
X49195337Y-25996177D01*
X49256088Y-25991902D01*
X49326442Y-25945279D01*
X49393094Y-25864618D01*
X49414890Y-25835271D01*
X49509923Y-25760459D01*
X49626536Y-25721507D01*
X49742844Y-25727025D01*
X49774255Y-25733244D01*
X49855483Y-25726236D01*
X49962047Y-25685938D01*
X50024504Y-25657017D01*
X50181462Y-25657017D01*
X50375100Y-25722336D01*
X50382472Y-25724819D01*
X50478999Y-25756571D01*
X50551537Y-25779095D01*
X50584878Y-25787655D01*
X50591710Y-25782197D01*
X50623874Y-25739426D01*
X50674032Y-25663405D01*
X50734701Y-25565242D01*
X50868382Y-25342828D01*
X50734531Y-25291992D01*
X50688749Y-25275332D01*
X50611715Y-25250794D01*
X50566116Y-25241133D01*
X50552435Y-25247391D01*
X50504605Y-25288238D01*
X50435987Y-25358745D01*
X50356507Y-25449063D01*
X50210922Y-25622019D01*
X50181462Y-25657017D01*
X50024504Y-25657017D01*
X50100084Y-25622019D01*
X49962047Y-25522104D01*
X49905809Y-25481602D01*
X49692953Y-25332718D01*
X49516452Y-25216975D01*
X49378125Y-25135464D01*
X49279790Y-25089273D01*
X49223267Y-25079491D01*
X49193114Y-25088685D01*
X49113561Y-25117875D01*
X49007754Y-25160012D01*
X48887070Y-25210185D01*
X48762887Y-25263480D01*
X48646582Y-25314984D01*
X48549532Y-25359786D01*
X48483114Y-25392972D01*
X48458705Y-25409630D01*
X48018483Y-25409630D01*
X48022950Y-25277699D01*
X48039263Y-25092065D01*
X48049817Y-25030746D01*
X49325000Y-25030746D01*
X49710062Y-25294138D01*
X49797635Y-25353612D01*
X49919178Y-25434611D01*
X50018981Y-25499249D01*
X50088533Y-25542047D01*
X50119325Y-25557531D01*
X50135584Y-25541825D01*
X50170052Y-25483089D01*
X50215244Y-25392101D01*
X50266041Y-25280864D01*
X50317323Y-25161379D01*
X50363971Y-25045649D01*
X50400868Y-24945675D01*
X50422893Y-24873460D01*
X50424928Y-24841005D01*
X50414949Y-24833308D01*
X50361807Y-24797685D01*
X50275958Y-24743101D01*
X50167589Y-24675737D01*
X50046886Y-24601775D01*
X49924034Y-24527397D01*
X49809222Y-24458787D01*
X49712634Y-24402125D01*
X49644457Y-24363594D01*
X49614878Y-24349377D01*
X49613449Y-24349733D01*
X49591573Y-24379860D01*
X49557414Y-24448958D01*
X49517719Y-24543544D01*
X49476508Y-24648618D01*
X49425584Y-24777823D01*
X49383395Y-24884229D01*
X49325000Y-25030746D01*
X48049817Y-25030746D01*
X48064748Y-24943993D01*
X48078117Y-24891556D01*
X48201839Y-24533685D01*
X48313134Y-24319566D01*
X49756386Y-24319566D01*
X49784365Y-24361652D01*
X49852924Y-24419626D01*
X49965610Y-24496921D01*
X50125972Y-24596972D01*
X50194293Y-24639005D01*
X50315159Y-24716328D01*
X50412087Y-24782285D01*
X50476526Y-24830943D01*
X50485785Y-24841005D01*
X50499925Y-24856371D01*
X50492980Y-24881803D01*
X50465890Y-24951573D01*
X50423090Y-25051565D01*
X50369678Y-25169519D01*
X50326898Y-25263402D01*
X50283862Y-25362389D01*
X50256308Y-25431539D01*
X50248842Y-25459790D01*
X50253465Y-25457488D01*
X50287661Y-25423871D01*
X50349053Y-25356662D01*
X50430884Y-25263365D01*
X50526398Y-25151486D01*
X50567011Y-25102731D01*
X50653705Y-24993944D01*
X50720299Y-24903575D01*
X50760869Y-24839921D01*
X50769487Y-24811275D01*
X50723191Y-24777705D01*
X50639272Y-24725064D01*
X50528051Y-24659275D01*
X50399143Y-24585623D01*
X50262162Y-24509392D01*
X50126722Y-24435864D01*
X50002439Y-24370323D01*
X49928531Y-24333003D01*
X50971531Y-24333003D01*
X50979016Y-24492269D01*
X51029501Y-24642726D01*
X51119816Y-24771719D01*
X51172758Y-24811275D01*
X51246791Y-24866589D01*
X51297284Y-24889597D01*
X51457263Y-24928351D01*
X51610169Y-24919326D01*
X51749745Y-24869349D01*
X51869734Y-24785246D01*
X51963882Y-24673844D01*
X52025930Y-24541967D01*
X52049623Y-24396444D01*
X52028705Y-24244100D01*
X51956920Y-24091762D01*
X51890115Y-24010518D01*
X51760990Y-23918024D01*
X51612381Y-23868311D01*
X51455821Y-23861323D01*
X51302843Y-23897003D01*
X51164982Y-23975296D01*
X51053769Y-24096146D01*
X51010220Y-24177587D01*
X50971531Y-24333003D01*
X49928531Y-24333003D01*
X49898928Y-24318055D01*
X49825802Y-24284341D01*
X49792678Y-24274467D01*
X49765436Y-24289936D01*
X49756386Y-24319566D01*
X48313134Y-24319566D01*
X48373410Y-24203601D01*
X48588994Y-23905324D01*
X48844757Y-23642869D01*
X49136865Y-23420255D01*
X49461482Y-23241498D01*
X49814775Y-23110616D01*
X49941263Y-23081521D01*
X50132543Y-23053615D01*
X50343970Y-23035759D01*
X50556562Y-23028962D01*
X50751336Y-23034229D01*
X50909310Y-23052568D01*
X51075058Y-23088905D01*
X51441109Y-23208032D01*
X51776278Y-23373870D01*
X52077878Y-23584668D01*
X52343223Y-23838676D01*
X52569625Y-24134145D01*
X52682896Y-24325645D01*
X52714160Y-24396444D01*
X52832574Y-24664598D01*
G37*
%TO.C,G\u002A\u002A\u002A*%
G36*
X49898824Y-4781534D02*
G01*
X49933696Y-4803386D01*
X49968178Y-4838616D01*
X49994779Y-4882401D01*
X49997754Y-4889113D01*
X50000790Y-4897463D01*
X50003243Y-4907302D01*
X50005175Y-4920002D01*
X50006649Y-4936932D01*
X50007726Y-4959461D01*
X50008468Y-4988960D01*
X50008938Y-5026799D01*
X50009196Y-5074347D01*
X50009306Y-5132975D01*
X50009329Y-5204052D01*
X50009315Y-5263421D01*
X50009225Y-5324166D01*
X50008997Y-5373587D01*
X50008570Y-5413055D01*
X50007881Y-5443939D01*
X50006868Y-5467610D01*
X50005470Y-5485437D01*
X50003624Y-5498789D01*
X50001268Y-5509038D01*
X49998340Y-5517553D01*
X49994779Y-5525704D01*
X49971856Y-5564605D01*
X49938194Y-5601007D01*
X49898824Y-5626571D01*
X49864225Y-5642682D01*
X49522196Y-5642682D01*
X49180167Y-5642682D01*
X49145234Y-5626416D01*
X49135878Y-5621647D01*
X49098992Y-5594279D01*
X49068429Y-5557772D01*
X49047388Y-5515743D01*
X49045272Y-5509224D01*
X49042529Y-5498315D01*
X49040319Y-5484979D01*
X49038587Y-5467791D01*
X49037276Y-5445329D01*
X49036329Y-5416168D01*
X49035691Y-5378884D01*
X49035305Y-5332052D01*
X49035114Y-5274250D01*
X49035063Y-5204052D01*
X49035084Y-5156555D01*
X49035220Y-5094646D01*
X49035532Y-5044197D01*
X49036077Y-5003786D01*
X49036911Y-4971989D01*
X49038091Y-4947380D01*
X49039672Y-4928538D01*
X49041711Y-4914036D01*
X49044264Y-4902452D01*
X49047388Y-4892361D01*
X49051360Y-4882054D01*
X49074957Y-4841011D01*
X49107314Y-4806350D01*
X49145234Y-4781689D01*
X49180167Y-4765422D01*
X49522196Y-4765422D01*
X49864225Y-4765422D01*
X49898824Y-4781534D01*
G37*
G36*
X49584454Y-6078170D02*
G01*
X49656333Y-6078293D01*
X49716557Y-6078699D01*
X49766369Y-6079549D01*
X49807010Y-6081005D01*
X49839723Y-6083227D01*
X49865747Y-6086378D01*
X49886326Y-6090618D01*
X49902700Y-6096109D01*
X49916111Y-6103011D01*
X49927801Y-6111487D01*
X49939012Y-6121697D01*
X49950984Y-6133803D01*
X49962607Y-6145901D01*
X49974124Y-6159006D01*
X49983574Y-6172259D01*
X49991161Y-6187028D01*
X49997089Y-6204681D01*
X50001563Y-6226583D01*
X50004788Y-6254102D01*
X50006968Y-6288606D01*
X50008308Y-6331460D01*
X50009011Y-6384033D01*
X50009283Y-6447692D01*
X50009329Y-6523802D01*
X50009329Y-6807099D01*
X49991481Y-6845144D01*
X49970049Y-6881914D01*
X49937285Y-6917991D01*
X49898927Y-6942729D01*
X49896701Y-6943709D01*
X49889339Y-6946406D01*
X49880277Y-6948655D01*
X49868301Y-6950494D01*
X49852199Y-6951965D01*
X49830761Y-6953107D01*
X49802774Y-6953963D01*
X49767026Y-6954572D01*
X49722306Y-6954975D01*
X49667403Y-6955213D01*
X49601103Y-6955325D01*
X49522196Y-6955354D01*
X49490642Y-6955357D01*
X49413383Y-6955353D01*
X49348292Y-6955205D01*
X49294160Y-6954757D01*
X49249779Y-6953852D01*
X49213940Y-6952333D01*
X49185434Y-6950044D01*
X49163053Y-6946828D01*
X49145587Y-6942528D01*
X49131828Y-6936988D01*
X49120568Y-6930051D01*
X49110597Y-6921560D01*
X49100708Y-6911359D01*
X49089690Y-6899290D01*
X49079661Y-6888251D01*
X49068636Y-6875136D01*
X49059596Y-6862027D01*
X49052344Y-6847541D01*
X49046684Y-6830296D01*
X49042418Y-6808909D01*
X49039349Y-6781998D01*
X49037281Y-6748181D01*
X49036015Y-6706074D01*
X49035355Y-6654295D01*
X49035103Y-6591462D01*
X49035063Y-6516192D01*
X49035063Y-6232194D01*
X49059303Y-6184527D01*
X49062675Y-6178130D01*
X49092798Y-6135766D01*
X49130566Y-6104670D01*
X49175487Y-6085262D01*
X49176765Y-6084962D01*
X49192274Y-6083277D01*
X49220565Y-6081799D01*
X49260751Y-6080547D01*
X49311942Y-6079540D01*
X49373251Y-6078795D01*
X49443789Y-6078331D01*
X49522669Y-6078166D01*
X49584454Y-6078170D01*
G37*
G36*
X52941019Y-2722818D02*
G01*
X52941263Y-2804774D01*
X52941478Y-2894943D01*
X52941668Y-2993726D01*
X52941832Y-3101523D01*
X52941974Y-3218734D01*
X52942094Y-3345760D01*
X52942195Y-3483001D01*
X52942278Y-3630858D01*
X52942344Y-3789732D01*
X52942395Y-3960022D01*
X52942434Y-4142129D01*
X52942461Y-4336454D01*
X52942478Y-4543397D01*
X52942487Y-4763358D01*
X52942488Y-4859375D01*
X52942490Y-4996739D01*
X52942494Y-5145691D01*
X52942518Y-5372993D01*
X52942553Y-5587121D01*
X52942593Y-5788472D01*
X52942629Y-5977443D01*
X52942653Y-6154430D01*
X52942658Y-6319832D01*
X52942635Y-6474045D01*
X52942577Y-6617466D01*
X52942486Y-6736894D01*
X52942476Y-6750491D01*
X52942322Y-6873519D01*
X52942110Y-6986947D01*
X52941829Y-7091170D01*
X52941474Y-7186587D01*
X52941348Y-7211466D01*
X52941035Y-7273594D01*
X52940504Y-7352588D01*
X52939874Y-7423966D01*
X52939137Y-7488126D01*
X52938285Y-7545464D01*
X52937309Y-7596378D01*
X52936202Y-7641264D01*
X52934955Y-7680520D01*
X52933562Y-7714542D01*
X52932013Y-7743728D01*
X52930301Y-7768474D01*
X52928417Y-7789178D01*
X52926355Y-7806237D01*
X52924105Y-7820047D01*
X52921661Y-7831006D01*
X52919013Y-7839511D01*
X52916154Y-7845958D01*
X52913076Y-7850746D01*
X52909771Y-7854270D01*
X52906231Y-7856928D01*
X52902448Y-7859117D01*
X52898414Y-7861234D01*
X52894121Y-7863676D01*
X52889561Y-7866840D01*
X52884726Y-7871123D01*
X52871567Y-7883405D01*
X52843423Y-7904746D01*
X52817928Y-7917924D01*
X52817152Y-7918179D01*
X52812944Y-7919177D01*
X52806711Y-7920112D01*
X52798016Y-7920986D01*
X52786423Y-7921801D01*
X52771495Y-7922559D01*
X52752794Y-7923264D01*
X52729885Y-7923916D01*
X52702329Y-7924518D01*
X52669691Y-7925072D01*
X52631534Y-7925580D01*
X52587420Y-7926045D01*
X52536913Y-7926469D01*
X52479576Y-7926853D01*
X52414972Y-7927200D01*
X52342665Y-7927512D01*
X52262217Y-7927792D01*
X52173192Y-7928041D01*
X52075152Y-7928261D01*
X51967662Y-7928455D01*
X51850284Y-7928625D01*
X51722581Y-7928774D01*
X51584116Y-7928902D01*
X51434453Y-7929013D01*
X51273155Y-7929108D01*
X51099785Y-7929190D01*
X50913906Y-7929261D01*
X50715082Y-7929322D01*
X50502875Y-7929377D01*
X50476695Y-7929384D01*
X50266775Y-7929430D01*
X50070179Y-7929464D01*
X49886466Y-7929485D01*
X49715194Y-7929490D01*
X49555922Y-7929477D01*
X49408207Y-7929444D01*
X49271608Y-7929389D01*
X49145683Y-7929310D01*
X49029991Y-7929205D01*
X48924090Y-7929071D01*
X48827537Y-7928907D01*
X48739893Y-7928710D01*
X48660713Y-7928478D01*
X48589558Y-7928210D01*
X48525985Y-7927903D01*
X48469552Y-7927555D01*
X48419818Y-7927163D01*
X48376342Y-7926727D01*
X48338680Y-7926243D01*
X48306392Y-7925710D01*
X48279037Y-7925125D01*
X48256171Y-7924487D01*
X48237354Y-7923793D01*
X48222144Y-7923041D01*
X48210098Y-7922229D01*
X48200777Y-7921355D01*
X48193736Y-7920417D01*
X48188536Y-7919413D01*
X48184734Y-7918340D01*
X48179125Y-7916253D01*
X48145263Y-7897095D01*
X48112963Y-7869108D01*
X48086194Y-7836264D01*
X48068926Y-7802532D01*
X48068825Y-7802232D01*
X48067854Y-7798607D01*
X48066939Y-7793569D01*
X48066078Y-7786718D01*
X48065270Y-7777652D01*
X48064513Y-7765973D01*
X48063805Y-7751279D01*
X48063145Y-7733171D01*
X48062531Y-7711248D01*
X48061962Y-7685111D01*
X48061436Y-7654358D01*
X48060951Y-7618590D01*
X48060505Y-7577407D01*
X48060097Y-7530408D01*
X48059726Y-7477193D01*
X48059388Y-7417363D01*
X48059084Y-7350516D01*
X48058811Y-7276253D01*
X48058611Y-7208602D01*
X48789769Y-7208602D01*
X48807549Y-7244281D01*
X48808153Y-7245479D01*
X48834875Y-7283134D01*
X48871807Y-7312633D01*
X48917071Y-7332464D01*
X48917547Y-7332603D01*
X48925668Y-7334431D01*
X48937040Y-7336026D01*
X48952546Y-7337403D01*
X48973065Y-7338575D01*
X48999477Y-7339556D01*
X49032665Y-7340361D01*
X49073507Y-7341004D01*
X49122885Y-7341498D01*
X49181680Y-7341859D01*
X49250771Y-7342099D01*
X49331040Y-7342233D01*
X49423367Y-7342275D01*
X49528632Y-7342240D01*
X49542747Y-7342231D01*
X49643929Y-7342154D01*
X49732339Y-7342047D01*
X49808901Y-7341890D01*
X49874542Y-7341663D01*
X49930188Y-7341343D01*
X49976764Y-7340912D01*
X50015197Y-7340348D01*
X50046412Y-7339630D01*
X50071336Y-7338738D01*
X50090894Y-7337651D01*
X50106013Y-7336348D01*
X50117618Y-7334809D01*
X50126636Y-7333013D01*
X50133992Y-7330940D01*
X50140613Y-7328568D01*
X50179343Y-7309172D01*
X50215269Y-7279266D01*
X50239947Y-7242687D01*
X50254623Y-7211466D01*
X50254567Y-6724183D01*
X50797152Y-6724183D01*
X50797281Y-6736460D01*
X50799136Y-6765964D01*
X50803873Y-6788173D01*
X50812369Y-6807904D01*
X50813946Y-6810844D01*
X50838361Y-6848491D01*
X50866686Y-6876375D01*
X50902723Y-6898299D01*
X50942136Y-6917654D01*
X51512185Y-6919013D01*
X51559752Y-6919127D01*
X51659627Y-6919348D01*
X51747005Y-6919474D01*
X51822810Y-6919455D01*
X51887963Y-6919243D01*
X51943387Y-6918788D01*
X51990003Y-6918040D01*
X52028735Y-6916952D01*
X52060504Y-6915474D01*
X52086233Y-6913556D01*
X52106843Y-6911149D01*
X52123257Y-6908204D01*
X52136398Y-6904673D01*
X52147187Y-6900505D01*
X52156547Y-6895652D01*
X52165399Y-6890064D01*
X52174667Y-6883693D01*
X52199650Y-6862946D01*
X52228893Y-6825429D01*
X52247707Y-6782641D01*
X52256028Y-6736894D01*
X52253795Y-6690504D01*
X52240944Y-6645785D01*
X52217414Y-6605052D01*
X52183140Y-6570620D01*
X52177674Y-6566397D01*
X52168336Y-6559350D01*
X52159164Y-6553204D01*
X52149225Y-6547897D01*
X52137586Y-6543367D01*
X52123315Y-6539553D01*
X52105481Y-6536394D01*
X52083150Y-6533827D01*
X52055390Y-6531792D01*
X52021269Y-6530227D01*
X51979855Y-6529070D01*
X51930216Y-6528260D01*
X51871418Y-6527735D01*
X51802531Y-6527433D01*
X51722621Y-6527294D01*
X51630756Y-6527256D01*
X51526005Y-6527257D01*
X51467505Y-6527255D01*
X51369862Y-6527268D01*
X51284600Y-6527353D01*
X51210787Y-6527573D01*
X51147491Y-6527988D01*
X51093779Y-6528660D01*
X51048719Y-6529651D01*
X51011378Y-6531022D01*
X50980825Y-6532834D01*
X50956127Y-6535150D01*
X50936352Y-6538031D01*
X50920567Y-6541538D01*
X50907840Y-6545733D01*
X50897239Y-6550677D01*
X50887832Y-6556431D01*
X50878686Y-6563059D01*
X50868869Y-6570620D01*
X50855987Y-6582212D01*
X50835423Y-6605839D01*
X50818469Y-6630902D01*
X50816947Y-6633613D01*
X50806384Y-6654405D01*
X50800384Y-6672843D01*
X50797716Y-6694308D01*
X50797152Y-6724183D01*
X50254567Y-6724183D01*
X50254471Y-5879549D01*
X50254468Y-5857537D01*
X50254446Y-5699791D01*
X50254413Y-5555202D01*
X50254364Y-5423182D01*
X50254295Y-5303145D01*
X50254198Y-5194506D01*
X50254069Y-5096679D01*
X50253902Y-5009077D01*
X50253692Y-4931115D01*
X50253486Y-4876551D01*
X50745724Y-4876551D01*
X50755469Y-4923413D01*
X50776761Y-4966496D01*
X50808942Y-5003797D01*
X50851358Y-5033314D01*
X50886859Y-5052039D01*
X51085131Y-5054238D01*
X51283403Y-5056437D01*
X51285512Y-5258074D01*
X51287620Y-5459711D01*
X51306487Y-5491803D01*
X51318310Y-5509836D01*
X51354012Y-5547455D01*
X51398175Y-5574242D01*
X51434797Y-5585806D01*
X51479853Y-5590558D01*
X51523817Y-5586324D01*
X51561959Y-5573136D01*
X51576756Y-5564520D01*
X51616650Y-5531307D01*
X51647277Y-5489585D01*
X51667653Y-5452801D01*
X51669770Y-5254148D01*
X51671886Y-5055494D01*
X51853350Y-5055494D01*
X51882192Y-5055459D01*
X51936060Y-5055106D01*
X51978623Y-5054305D01*
X52011606Y-5052973D01*
X52036732Y-5051026D01*
X52055726Y-5048381D01*
X52070311Y-5044953D01*
X52085093Y-5039923D01*
X52127772Y-5016924D01*
X52161992Y-4985291D01*
X52187176Y-4947103D01*
X52202750Y-4904439D01*
X52208137Y-4859375D01*
X52202761Y-4813992D01*
X52186047Y-4770365D01*
X52157419Y-4730575D01*
X52145660Y-4718178D01*
X52129878Y-4702891D01*
X52114416Y-4690850D01*
X52097508Y-4681645D01*
X52077385Y-4674862D01*
X52052280Y-4670092D01*
X52020426Y-4666923D01*
X51980055Y-4664943D01*
X51929400Y-4663741D01*
X51866693Y-4662905D01*
X51671880Y-4660686D01*
X51669767Y-4462511D01*
X51669204Y-4413207D01*
X51668308Y-4361052D01*
X51666878Y-4319617D01*
X51664549Y-4287161D01*
X51660955Y-4261944D01*
X51655731Y-4242225D01*
X51648512Y-4226264D01*
X51638933Y-4212321D01*
X51626628Y-4198654D01*
X51611234Y-4183525D01*
X51606364Y-4178992D01*
X51565948Y-4151086D01*
X51520903Y-4134394D01*
X51473729Y-4128946D01*
X51426924Y-4134771D01*
X51382987Y-4151899D01*
X51344417Y-4180359D01*
X51331921Y-4192697D01*
X51318962Y-4206755D01*
X51308800Y-4220742D01*
X51301074Y-4236394D01*
X51295421Y-4255448D01*
X51291481Y-4279640D01*
X51288890Y-4310706D01*
X51287287Y-4350382D01*
X51286309Y-4400405D01*
X51285596Y-4462510D01*
X51283572Y-4660685D01*
X51088670Y-4662891D01*
X51061790Y-4663205D01*
X51009714Y-4663929D01*
X50968925Y-4664771D01*
X50937663Y-4665860D01*
X50914169Y-4667326D01*
X50896683Y-4669298D01*
X50883445Y-4671906D01*
X50872695Y-4675281D01*
X50862675Y-4679551D01*
X50860360Y-4680638D01*
X50820912Y-4704091D01*
X50790837Y-4733836D01*
X50766340Y-4773578D01*
X50763493Y-4779506D01*
X50748180Y-4827914D01*
X50745724Y-4876551D01*
X50253486Y-4876551D01*
X50253432Y-4862206D01*
X50253117Y-4801766D01*
X50252742Y-4749207D01*
X50252301Y-4703944D01*
X50251789Y-4665391D01*
X50251199Y-4632962D01*
X50250526Y-4606071D01*
X50249765Y-4584131D01*
X50248911Y-4566558D01*
X50247956Y-4552765D01*
X50246897Y-4542167D01*
X50245726Y-4534176D01*
X50244440Y-4528208D01*
X50243031Y-4523675D01*
X50241495Y-4519994D01*
X50223031Y-4490237D01*
X50189777Y-4457726D01*
X50147522Y-4432568D01*
X50144004Y-4431014D01*
X50127680Y-4424925D01*
X50109669Y-4420619D01*
X50086937Y-4417675D01*
X50056452Y-4415672D01*
X50015181Y-4414189D01*
X49917387Y-4411391D01*
X49914990Y-4292950D01*
X49914198Y-4256806D01*
X49913094Y-4222556D01*
X49911513Y-4197379D01*
X49909092Y-4178654D01*
X49905469Y-4163757D01*
X49900283Y-4150065D01*
X49893170Y-4134957D01*
X49883294Y-4117520D01*
X49864555Y-4091441D01*
X49845558Y-4071274D01*
X49837659Y-4064623D01*
X49824229Y-4054320D01*
X49810543Y-4046006D01*
X49795093Y-4039485D01*
X49776373Y-4034558D01*
X49752876Y-4031028D01*
X49723095Y-4028698D01*
X49685524Y-4027369D01*
X49638656Y-4026845D01*
X49580983Y-4026928D01*
X49510999Y-4027421D01*
X49446507Y-4027977D01*
X49390053Y-4028688D01*
X49344442Y-4029796D01*
X49308141Y-4031578D01*
X49279618Y-4034311D01*
X49257341Y-4038272D01*
X49239778Y-4043739D01*
X49225396Y-4050988D01*
X49212663Y-4060297D01*
X49200047Y-4071943D01*
X49186016Y-4086203D01*
X49172111Y-4101539D01*
X49158505Y-4120769D01*
X49148634Y-4142166D01*
X49141936Y-4168053D01*
X49137849Y-4200757D01*
X49135809Y-4242599D01*
X49135254Y-4295907D01*
X49135254Y-4411387D01*
X49033336Y-4414233D01*
X49013379Y-4414837D01*
X48976635Y-4416419D01*
X48949428Y-4418626D01*
X48928785Y-4421862D01*
X48911734Y-4426533D01*
X48895301Y-4433043D01*
X48864620Y-4450801D01*
X48834644Y-4476555D01*
X48811028Y-4505761D01*
X48797242Y-4534817D01*
X48796409Y-4541622D01*
X48795472Y-4559838D01*
X48794612Y-4589189D01*
X48793827Y-4629880D01*
X48793115Y-4682118D01*
X48792476Y-4746109D01*
X48791909Y-4822061D01*
X48791412Y-4910179D01*
X48790984Y-5010671D01*
X48790625Y-5123742D01*
X48790332Y-5249600D01*
X48790105Y-5388451D01*
X48789943Y-5540501D01*
X48789844Y-5705958D01*
X48789808Y-5885027D01*
X48789769Y-7208602D01*
X48058611Y-7208602D01*
X48058568Y-7194173D01*
X48058353Y-7103877D01*
X48058164Y-7004964D01*
X48057999Y-6897033D01*
X48057858Y-6779686D01*
X48057738Y-6652520D01*
X48057637Y-6515138D01*
X48057555Y-6367137D01*
X48057489Y-6208118D01*
X48057437Y-6037681D01*
X48057399Y-5855426D01*
X48057372Y-5660952D01*
X48057355Y-5453859D01*
X48057346Y-5233748D01*
X48057343Y-5000217D01*
X48057343Y-4976250D01*
X48057346Y-4744079D01*
X48057356Y-4525287D01*
X48057374Y-4319474D01*
X48057402Y-4126240D01*
X48057442Y-3945184D01*
X48057494Y-3775907D01*
X48057562Y-3618008D01*
X48057646Y-3471087D01*
X48057749Y-3334744D01*
X48057871Y-3208579D01*
X48058015Y-3092191D01*
X48058181Y-2985180D01*
X48058373Y-2887147D01*
X48058591Y-2797690D01*
X48058837Y-2716410D01*
X48058854Y-2711974D01*
X48547438Y-2711974D01*
X48549412Y-3056300D01*
X48549444Y-3062023D01*
X48549900Y-3138956D01*
X48550344Y-3203379D01*
X48550834Y-3256516D01*
X48551427Y-3299595D01*
X48552178Y-3333840D01*
X48553145Y-3360476D01*
X48554384Y-3380730D01*
X48555951Y-3395827D01*
X48557905Y-3406991D01*
X48560300Y-3415450D01*
X48563194Y-3422427D01*
X48566643Y-3429149D01*
X48582966Y-3453536D01*
X48612517Y-3484141D01*
X48646876Y-3509243D01*
X48681478Y-3525031D01*
X48682024Y-3525187D01*
X48687212Y-3526262D01*
X48694954Y-3527259D01*
X48705740Y-3528181D01*
X48720061Y-3529030D01*
X48738406Y-3529810D01*
X48761264Y-3530523D01*
X48789126Y-3531171D01*
X48822481Y-3531757D01*
X48861819Y-3532284D01*
X48907630Y-3532754D01*
X48960404Y-3533171D01*
X49020630Y-3533536D01*
X49088797Y-3533853D01*
X49165397Y-3534123D01*
X49250919Y-3534350D01*
X49345852Y-3534537D01*
X49450686Y-3534685D01*
X49565911Y-3534798D01*
X49692016Y-3534879D01*
X49829493Y-3534929D01*
X49978829Y-3534952D01*
X50140516Y-3534950D01*
X50315042Y-3534926D01*
X50502898Y-3534882D01*
X50517114Y-3534878D01*
X50705478Y-3534818D01*
X50880532Y-3534741D01*
X51042748Y-3534645D01*
X51192601Y-3534528D01*
X51330564Y-3534387D01*
X51457111Y-3534220D01*
X51572715Y-3534023D01*
X51677851Y-3533795D01*
X51772992Y-3533532D01*
X51858612Y-3533232D01*
X51935185Y-3532892D01*
X52003184Y-3532510D01*
X52063084Y-3532083D01*
X52115358Y-3531608D01*
X52160480Y-3531082D01*
X52198923Y-3530504D01*
X52231162Y-3529870D01*
X52257670Y-3529178D01*
X52278921Y-3528425D01*
X52295389Y-3527608D01*
X52307547Y-3526725D01*
X52315869Y-3525774D01*
X52320830Y-3524751D01*
X52334247Y-3519722D01*
X52369923Y-3498527D01*
X52402997Y-3468455D01*
X52429494Y-3432866D01*
X52448447Y-3400625D01*
X52450421Y-3056300D01*
X52452395Y-2711974D01*
X52436028Y-2676225D01*
X52417111Y-2643015D01*
X52382405Y-2605266D01*
X52338037Y-2577389D01*
X52303344Y-2561233D01*
X50499916Y-2561233D01*
X48696489Y-2561233D01*
X48661796Y-2577389D01*
X48628873Y-2596465D01*
X48591448Y-2631470D01*
X48563805Y-2676225D01*
X48547438Y-2711974D01*
X48058854Y-2711974D01*
X48059113Y-2642906D01*
X48059421Y-2576779D01*
X48059761Y-2517628D01*
X48060136Y-2465053D01*
X48060548Y-2418654D01*
X48060997Y-2378030D01*
X48061487Y-2342781D01*
X48062017Y-2312508D01*
X48062591Y-2286810D01*
X48063209Y-2265287D01*
X48063874Y-2247538D01*
X48064586Y-2233164D01*
X48065348Y-2221763D01*
X48066161Y-2212937D01*
X48067028Y-2206285D01*
X48067949Y-2201407D01*
X48068926Y-2197902D01*
X48071013Y-2192292D01*
X48090171Y-2158431D01*
X48118157Y-2126131D01*
X48151002Y-2099361D01*
X48184734Y-2082093D01*
X48185025Y-2081996D01*
X48188938Y-2080928D01*
X48194297Y-2079929D01*
X48201542Y-2078995D01*
X48211115Y-2078125D01*
X48223459Y-2077315D01*
X48239015Y-2076565D01*
X48258225Y-2075872D01*
X48281532Y-2075233D01*
X48309376Y-2074647D01*
X48342201Y-2074110D01*
X48380448Y-2073622D01*
X48424560Y-2073179D01*
X48474977Y-2072780D01*
X48532142Y-2072422D01*
X48596498Y-2072104D01*
X48668485Y-2071822D01*
X48748546Y-2071575D01*
X48837123Y-2071360D01*
X48934658Y-2071176D01*
X49041592Y-2071020D01*
X49158369Y-2070889D01*
X49285428Y-2070782D01*
X49423214Y-2070697D01*
X49572167Y-2070631D01*
X49732730Y-2070582D01*
X49905345Y-2070547D01*
X50090452Y-2070525D01*
X50288496Y-2070514D01*
X50499916Y-2070511D01*
X50519090Y-2070511D01*
X50729314Y-2070514D01*
X50926200Y-2070527D01*
X51110190Y-2070550D01*
X51281725Y-2070585D01*
X51441247Y-2070636D01*
X51589199Y-2070704D01*
X51726022Y-2070791D01*
X51852158Y-2070900D01*
X51968050Y-2071032D01*
X52074138Y-2071191D01*
X52170866Y-2071378D01*
X52258675Y-2071595D01*
X52338007Y-2071845D01*
X52409305Y-2072130D01*
X52473009Y-2072452D01*
X52529562Y-2072814D01*
X52579406Y-2073216D01*
X52622983Y-2073663D01*
X52660734Y-2074156D01*
X52693103Y-2074696D01*
X52720530Y-2075287D01*
X52743458Y-2075931D01*
X52762329Y-2076629D01*
X52777584Y-2077384D01*
X52789666Y-2078199D01*
X52799016Y-2079075D01*
X52806077Y-2080014D01*
X52811291Y-2081020D01*
X52815099Y-2082093D01*
X52820708Y-2084181D01*
X52854569Y-2103339D01*
X52886870Y-2131325D01*
X52913639Y-2164169D01*
X52930907Y-2197902D01*
X52930987Y-2198140D01*
X52931960Y-2201741D01*
X52932877Y-2206748D01*
X52933740Y-2213561D01*
X52934549Y-2222580D01*
X52935308Y-2234206D01*
X52936016Y-2248840D01*
X52936677Y-2266881D01*
X52937292Y-2288731D01*
X52937862Y-2314789D01*
X52938390Y-2345456D01*
X52938876Y-2381132D01*
X52939322Y-2422219D01*
X52939731Y-2469116D01*
X52940103Y-2522224D01*
X52940441Y-2581944D01*
X52940745Y-2648675D01*
X52940979Y-2711974D01*
X52941019Y-2722818D01*
G37*
D15*
%TO.C,REF\u002A\u002A*%
X34272971Y-29017822D02*
X30752178Y-29017822D01*
X30752178Y-28150198D01*
X34272971Y-28150198D01*
X34272971Y-29017822D01*
G36*
X34272971Y-29017822D02*
G01*
X30752178Y-29017822D01*
X30752178Y-28150198D01*
X34272971Y-28150198D01*
X34272971Y-29017822D01*
G37*
X33241894Y-23475718D02*
X33242388Y-23488668D01*
X33248819Y-23510411D01*
X33267123Y-23528851D01*
X33302830Y-23550801D01*
X33334174Y-23570854D01*
X33381893Y-23609356D01*
X33425138Y-23652579D01*
X33458219Y-23694627D01*
X33475442Y-23729604D01*
X33479662Y-23743081D01*
X33487480Y-23752334D01*
X33490116Y-23755454D01*
X33511662Y-23760696D01*
X33551314Y-23761782D01*
X33619109Y-23761782D01*
X33619109Y-23874951D01*
X33459577Y-23874951D01*
X33444682Y-24052732D01*
X33442682Y-24077037D01*
X33438023Y-24137880D01*
X33434731Y-24187389D01*
X33433092Y-24220992D01*
X33433390Y-24234116D01*
X33437724Y-24230343D01*
X33457496Y-24210676D01*
X33491679Y-24175818D01*
X33538541Y-24127576D01*
X33596354Y-24067757D01*
X33663387Y-23998167D01*
X33737912Y-23920615D01*
X33818197Y-23836907D01*
X33902513Y-23748849D01*
X33989130Y-23658250D01*
X34076319Y-23566915D01*
X34162349Y-23476653D01*
X34245492Y-23389269D01*
X34324016Y-23306572D01*
X34396192Y-23230368D01*
X34460291Y-23162463D01*
X34514583Y-23104666D01*
X34611592Y-23001040D01*
X34612034Y-23089315D01*
X34612475Y-23177589D01*
X34011938Y-23809158D01*
X33411401Y-24440726D01*
X33399396Y-24584674D01*
X33351365Y-25160635D01*
X33342876Y-25262791D01*
X33332343Y-25390612D01*
X33322621Y-25509767D01*
X33313898Y-25617914D01*
X33306358Y-25712713D01*
X33300187Y-25791819D01*
X33295573Y-25852892D01*
X33292700Y-25893590D01*
X33291754Y-25911570D01*
X33294251Y-25919808D01*
X33305471Y-25937599D01*
X33326751Y-25964411D01*
X33337021Y-25976129D01*
X33359225Y-26001466D01*
X33404023Y-26049986D01*
X33462281Y-26111192D01*
X33535129Y-26186307D01*
X33623703Y-26276550D01*
X33729134Y-26383145D01*
X33798492Y-26453093D01*
X33895179Y-26550658D01*
X33991526Y-26647941D01*
X34084638Y-26742014D01*
X34171618Y-26829950D01*
X34249569Y-26908820D01*
X34315596Y-26975699D01*
X34366802Y-27027658D01*
X34567514Y-27231620D01*
X34531058Y-27269671D01*
X34522460Y-27278245D01*
X34497095Y-27299297D01*
X34479695Y-27307723D01*
X34466071Y-27300530D01*
X34440743Y-27278944D01*
X34410379Y-27247995D01*
X34391896Y-27228448D01*
X34357427Y-27192752D01*
X34308712Y-27142684D01*
X34247469Y-27080001D01*
X34175420Y-27006457D01*
X34094285Y-26923810D01*
X34005784Y-26833815D01*
X33911637Y-26738228D01*
X33813565Y-26638805D01*
X33271161Y-26089343D01*
X33249066Y-26374746D01*
X33244250Y-26435662D01*
X33237216Y-26517548D01*
X33230872Y-26579569D01*
X33224748Y-26624987D01*
X33218373Y-26657062D01*
X33211277Y-26679052D01*
X33202991Y-26694219D01*
X33191393Y-26715416D01*
X33181850Y-26754386D01*
X33179010Y-26810531D01*
X33179010Y-26892773D01*
X32952674Y-26892773D01*
X32952674Y-26716733D01*
X32107082Y-26716733D01*
X32058203Y-26772262D01*
X32044836Y-26786722D01*
X31972388Y-26844813D01*
X31890532Y-26880576D01*
X31801900Y-26892773D01*
X31723692Y-26886306D01*
X31635233Y-26859047D01*
X31559507Y-26810328D01*
X31544748Y-26796403D01*
X31507864Y-26751328D01*
X31475503Y-26698819D01*
X31452297Y-26647061D01*
X31442879Y-26604239D01*
X31442697Y-26598023D01*
X31441342Y-26575246D01*
X31437800Y-26559513D01*
X31430390Y-26552068D01*
X31417431Y-26554156D01*
X31397243Y-26567020D01*
X31368145Y-26591905D01*
X31328456Y-26630053D01*
X31276496Y-26682710D01*
X31210584Y-26751119D01*
X31129040Y-26836524D01*
X31085604Y-26882112D01*
X31013000Y-26958441D01*
X30944309Y-27030808D01*
X30882223Y-27096366D01*
X30829434Y-27152274D01*
X30788634Y-27195686D01*
X30762515Y-27223758D01*
X30691119Y-27301436D01*
X30602863Y-27213416D01*
X31148690Y-26641287D01*
X31183105Y-26605188D01*
X31305546Y-26476272D01*
X31410651Y-26364754D01*
X31498736Y-26270288D01*
X31570116Y-26192529D01*
X31620588Y-26136174D01*
X31827247Y-26136174D01*
X31828872Y-26149434D01*
X31829156Y-26150819D01*
X31842698Y-26182228D01*
X31869748Y-26196863D01*
X31953129Y-26228063D01*
X32027418Y-26280038D01*
X32085846Y-26348791D01*
X32125890Y-26431315D01*
X32145026Y-26524606D01*
X32151364Y-26603565D01*
X33100838Y-26603565D01*
X33107458Y-26575273D01*
X33108629Y-26568329D01*
X33112268Y-26537281D01*
X33117234Y-26487081D01*
X33123157Y-26421727D01*
X33129669Y-26345219D01*
X33136401Y-26261555D01*
X33158724Y-25976129D01*
X32857826Y-25670565D01*
X32802636Y-25614704D01*
X32735109Y-25546888D01*
X32674529Y-25486643D01*
X32623021Y-25436052D01*
X32582710Y-25397200D01*
X32555722Y-25372170D01*
X32544182Y-25363046D01*
X32536444Y-25367405D01*
X32513395Y-25387241D01*
X32478709Y-25420375D01*
X32435487Y-25463820D01*
X32386832Y-25514587D01*
X32374140Y-25528051D01*
X32317229Y-25588275D01*
X32249414Y-25659864D01*
X32175800Y-25737437D01*
X32101493Y-25815611D01*
X32031599Y-25889005D01*
X32027401Y-25893409D01*
X31962420Y-25961785D01*
X31912836Y-26014732D01*
X31876688Y-26054767D01*
X31852016Y-26084411D01*
X31836858Y-26106181D01*
X31829256Y-26122595D01*
X31827247Y-26136174D01*
X31620588Y-26136174D01*
X31625105Y-26131131D01*
X31664019Y-26085748D01*
X31687173Y-26056035D01*
X31694882Y-26041644D01*
X31694883Y-26041559D01*
X31693825Y-26023624D01*
X31690737Y-25983421D01*
X31685858Y-25923687D01*
X31679432Y-25847158D01*
X31671700Y-25756569D01*
X31662905Y-25654657D01*
X31653287Y-25544159D01*
X31643091Y-25427811D01*
X31632556Y-25308348D01*
X31621926Y-25188507D01*
X31611442Y-25071025D01*
X31601346Y-24958637D01*
X31591881Y-24854081D01*
X31583288Y-24760091D01*
X31575809Y-24679405D01*
X31569687Y-24614759D01*
X31565162Y-24568888D01*
X31562478Y-24544530D01*
X31557067Y-24503732D01*
X31686253Y-24503732D01*
X31687908Y-24534653D01*
X31691549Y-24586653D01*
X31696995Y-24657487D01*
X31704063Y-24744911D01*
X31712570Y-24846681D01*
X31722335Y-24960552D01*
X31733174Y-25084279D01*
X31744907Y-25215618D01*
X31754079Y-25316908D01*
X31765566Y-25442526D01*
X31776322Y-25558762D01*
X31786131Y-25663380D01*
X31794781Y-25754140D01*
X31802057Y-25828804D01*
X31807746Y-25885134D01*
X31811634Y-25920891D01*
X31813506Y-25933837D01*
X31819188Y-25929826D01*
X31840020Y-25910138D01*
X31873872Y-25876322D01*
X31918412Y-25830837D01*
X31971310Y-25776146D01*
X32030236Y-25714710D01*
X32092858Y-25648990D01*
X32156848Y-25581449D01*
X32219874Y-25514547D01*
X32279606Y-25450746D01*
X32333713Y-25392507D01*
X32379865Y-25342292D01*
X32415733Y-25302563D01*
X32438984Y-25275780D01*
X32445778Y-25266477D01*
X32627601Y-25266477D01*
X32903305Y-25541968D01*
X32970726Y-25609224D01*
X33034267Y-25672162D01*
X33083490Y-25720100D01*
X33120196Y-25754594D01*
X33146190Y-25777199D01*
X33163276Y-25789471D01*
X33173256Y-25792966D01*
X33177935Y-25789238D01*
X33179116Y-25779844D01*
X33179873Y-25764749D01*
X33182601Y-25725883D01*
X33187108Y-25666895D01*
X33193179Y-25590473D01*
X33200596Y-25499305D01*
X33209142Y-25396080D01*
X33218602Y-25283483D01*
X33228758Y-25164205D01*
X33237723Y-25059077D01*
X33247066Y-24948351D01*
X33255443Y-24847814D01*
X33262653Y-24759943D01*
X33268496Y-24687215D01*
X33272769Y-24632110D01*
X33275273Y-24597104D01*
X33275805Y-24584674D01*
X33275384Y-24584908D01*
X33263509Y-24596350D01*
X33237130Y-24623198D01*
X33198570Y-24663018D01*
X33150153Y-24713372D01*
X33094203Y-24771828D01*
X33033042Y-24835948D01*
X32968995Y-24903298D01*
X32904385Y-24971443D01*
X32841535Y-25037948D01*
X32782768Y-25100377D01*
X32730409Y-25156295D01*
X32629533Y-25264406D01*
X32627601Y-25266477D01*
X32445778Y-25266477D01*
X32447290Y-25264406D01*
X32439148Y-25253383D01*
X32415478Y-25226999D01*
X32378478Y-25187527D01*
X32330350Y-25137191D01*
X32273296Y-25078217D01*
X32209520Y-25012830D01*
X32141222Y-24943255D01*
X32070605Y-24871716D01*
X31999871Y-24800438D01*
X31931222Y-24731647D01*
X31866861Y-24667566D01*
X31808989Y-24610422D01*
X31759810Y-24562439D01*
X31721524Y-24525841D01*
X31696334Y-24502854D01*
X31686442Y-24495703D01*
X31686253Y-24503732D01*
X31557067Y-24503732D01*
X31555390Y-24491089D01*
X31280297Y-24491089D01*
X31279968Y-24280471D01*
X31279797Y-24171172D01*
X31380891Y-24171172D01*
X31380891Y-24390495D01*
X31462624Y-24390495D01*
X31469895Y-24390489D01*
X31510950Y-24389613D01*
X31533277Y-24385867D01*
X31542529Y-24377270D01*
X31544357Y-24361840D01*
X31536306Y-24339159D01*
X31508730Y-24301428D01*
X31462624Y-24252179D01*
X31380891Y-24171172D01*
X31279797Y-24171172D01*
X31279639Y-24069852D01*
X30827914Y-23610891D01*
X30376189Y-23151931D01*
X30375570Y-23064848D01*
X30374951Y-22977767D01*
X30916769Y-23526952D01*
X30969137Y-23579998D01*
X31077803Y-23689772D01*
X31170709Y-23783114D01*
X31249055Y-23861173D01*
X31314043Y-23925097D01*
X31366872Y-23976035D01*
X31408743Y-24015135D01*
X31440855Y-24043548D01*
X31464410Y-24062420D01*
X31480608Y-24072901D01*
X31490649Y-24076139D01*
X31507579Y-24075158D01*
X31517084Y-24067996D01*
X31518723Y-24048401D01*
X31514782Y-24010124D01*
X31512065Y-23986025D01*
X31508284Y-23945744D01*
X31506760Y-23918961D01*
X31506015Y-23909728D01*
X31498746Y-23899839D01*
X31478668Y-23896562D01*
X31439689Y-23897992D01*
X31429737Y-23898553D01*
X31389898Y-23897921D01*
X31361560Y-23889167D01*
X31341586Y-23874951D01*
X31624852Y-23874951D01*
X31629013Y-23922104D01*
X31630935Y-23943498D01*
X31636924Y-24001909D01*
X31642826Y-24040381D01*
X31649727Y-24062912D01*
X31658712Y-24073498D01*
X31670870Y-24076139D01*
X31681801Y-24077937D01*
X31689050Y-24086530D01*
X31693100Y-24106505D01*
X31694863Y-24142450D01*
X31695248Y-24198952D01*
X31695248Y-24321766D01*
X31735447Y-24361840D01*
X31833565Y-24459654D01*
X31971881Y-24597542D01*
X31971881Y-24491089D01*
X32726337Y-24491089D01*
X32726337Y-24730000D01*
X32107831Y-24730000D01*
X32317592Y-24946906D01*
X32357770Y-24988334D01*
X32413328Y-25045200D01*
X32461570Y-25094082D01*
X32499971Y-25132441D01*
X32526003Y-25157741D01*
X32537140Y-25167442D01*
X32541373Y-25164767D01*
X32561224Y-25146782D01*
X32595451Y-25113481D01*
X32642227Y-25066712D01*
X32699724Y-25008325D01*
X32766112Y-24940169D01*
X32839564Y-24864094D01*
X32918251Y-24781950D01*
X32997341Y-24698943D01*
X33074871Y-24617136D01*
X33137746Y-24550083D01*
X33187502Y-24496007D01*
X33225678Y-24453129D01*
X33253811Y-24419673D01*
X33273440Y-24393861D01*
X33286101Y-24373914D01*
X33293334Y-24358056D01*
X33296675Y-24344509D01*
X33297561Y-24337910D01*
X33301488Y-24301548D01*
X33306459Y-24248018D01*
X33311927Y-24183421D01*
X33317344Y-24113862D01*
X33319181Y-24089635D01*
X33324488Y-24024178D01*
X33329548Y-23967717D01*
X33333863Y-23925618D01*
X33336934Y-23903243D01*
X33342955Y-23874951D01*
X31624852Y-23874951D01*
X31341586Y-23874951D01*
X31333630Y-23869289D01*
X31328820Y-23865104D01*
X31289482Y-23814427D01*
X31273903Y-23761782D01*
X31614698Y-23761782D01*
X33029221Y-23761782D01*
X33027172Y-23711485D01*
X33241881Y-23711485D01*
X33241881Y-23761782D01*
X33298908Y-23761782D01*
X33315993Y-23761662D01*
X33341308Y-23759462D01*
X33348616Y-23752334D01*
X33342943Y-23737508D01*
X33341267Y-23734682D01*
X33322448Y-23712944D01*
X33295183Y-23688820D01*
X33267987Y-23669254D01*
X33249371Y-23661188D01*
X33247697Y-23662463D01*
X33243544Y-23679976D01*
X33241881Y-23711485D01*
X33027172Y-23711485D01*
X33025526Y-23671095D01*
X33021832Y-23580407D01*
X32946386Y-23565252D01*
X32908551Y-23558379D01*
X32845368Y-23548756D01*
X32786065Y-23541496D01*
X32701188Y-23532893D01*
X32701188Y-23636040D01*
X32122773Y-23636040D01*
X32122773Y-23545122D01*
X32050471Y-23553753D01*
X31939998Y-23572249D01*
X31828816Y-23605691D01*
X31736850Y-23652324D01*
X31662542Y-23712786D01*
X31614698Y-23761782D01*
X31273903Y-23761782D01*
X31272172Y-23755934D01*
X31277474Y-23694575D01*
X31305975Y-23635297D01*
X31308733Y-23631606D01*
X31346822Y-23599851D01*
X31396476Y-23581067D01*
X31450002Y-23576071D01*
X31499707Y-23585678D01*
X31537900Y-23610704D01*
X31550831Y-23623480D01*
X31563428Y-23626576D01*
X31581467Y-23616998D01*
X31611928Y-23593082D01*
X31621274Y-23585731D01*
X31693430Y-23539339D01*
X31778915Y-23498084D01*
X31848830Y-23472575D01*
X32223367Y-23472575D01*
X32223367Y-23535446D01*
X32600594Y-23535446D01*
X32600594Y-23472575D01*
X32223367Y-23472575D01*
X31848830Y-23472575D01*
X31869767Y-23464936D01*
X31958027Y-23442868D01*
X32035736Y-23434852D01*
X32043991Y-23434788D01*
X32089879Y-23430321D01*
X32115079Y-23417795D01*
X32122773Y-23395784D01*
X32123676Y-23388849D01*
X32128615Y-23382885D01*
X32140611Y-23378519D01*
X32162680Y-23375503D01*
X32197836Y-23373590D01*
X32249094Y-23372530D01*
X32319471Y-23372077D01*
X32411980Y-23371980D01*
X32498660Y-23372150D01*
X32572332Y-23372834D01*
X32626265Y-23374215D01*
X32663288Y-23376470D01*
X32686230Y-23379778D01*
X32697920Y-23384320D01*
X32701188Y-23390272D01*
X32711937Y-23404888D01*
X32742055Y-23414215D01*
X32753582Y-23415847D01*
X32792886Y-23421591D01*
X32845188Y-23429378D01*
X32902376Y-23438003D01*
X32933916Y-23442393D01*
X32980074Y-23447148D01*
X33012641Y-23448295D01*
X33026023Y-23445495D01*
X33028308Y-23443671D01*
X33049405Y-23439165D01*
X33087355Y-23436029D01*
X33136048Y-23434852D01*
X33241881Y-23434852D01*
X33241894Y-23472575D01*
X33241894Y-23475718D01*
G36*
X33241894Y-23475718D02*
G01*
X33242388Y-23488668D01*
X33248819Y-23510411D01*
X33267123Y-23528851D01*
X33302830Y-23550801D01*
X33334174Y-23570854D01*
X33381893Y-23609356D01*
X33425138Y-23652579D01*
X33458219Y-23694627D01*
X33475442Y-23729604D01*
X33479662Y-23743081D01*
X33487480Y-23752334D01*
X33490116Y-23755454D01*
X33511662Y-23760696D01*
X33551314Y-23761782D01*
X33619109Y-23761782D01*
X33619109Y-23874951D01*
X33459577Y-23874951D01*
X33444682Y-24052732D01*
X33442682Y-24077037D01*
X33438023Y-24137880D01*
X33434731Y-24187389D01*
X33433092Y-24220992D01*
X33433390Y-24234116D01*
X33437724Y-24230343D01*
X33457496Y-24210676D01*
X33491679Y-24175818D01*
X33538541Y-24127576D01*
X33596354Y-24067757D01*
X33663387Y-23998167D01*
X33737912Y-23920615D01*
X33818197Y-23836907D01*
X33902513Y-23748849D01*
X33989130Y-23658250D01*
X34076319Y-23566915D01*
X34162349Y-23476653D01*
X34245492Y-23389269D01*
X34324016Y-23306572D01*
X34396192Y-23230368D01*
X34460291Y-23162463D01*
X34514583Y-23104666D01*
X34611592Y-23001040D01*
X34612034Y-23089315D01*
X34612475Y-23177589D01*
X34011938Y-23809158D01*
X33411401Y-24440726D01*
X33399396Y-24584674D01*
X33351365Y-25160635D01*
X33342876Y-25262791D01*
X33332343Y-25390612D01*
X33322621Y-25509767D01*
X33313898Y-25617914D01*
X33306358Y-25712713D01*
X33300187Y-25791819D01*
X33295573Y-25852892D01*
X33292700Y-25893590D01*
X33291754Y-25911570D01*
X33294251Y-25919808D01*
X33305471Y-25937599D01*
X33326751Y-25964411D01*
X33337021Y-25976129D01*
X33359225Y-26001466D01*
X33404023Y-26049986D01*
X33462281Y-26111192D01*
X33535129Y-26186307D01*
X33623703Y-26276550D01*
X33729134Y-26383145D01*
X33798492Y-26453093D01*
X33895179Y-26550658D01*
X33991526Y-26647941D01*
X34084638Y-26742014D01*
X34171618Y-26829950D01*
X34249569Y-26908820D01*
X34315596Y-26975699D01*
X34366802Y-27027658D01*
X34567514Y-27231620D01*
X34531058Y-27269671D01*
X34522460Y-27278245D01*
X34497095Y-27299297D01*
X34479695Y-27307723D01*
X34466071Y-27300530D01*
X34440743Y-27278944D01*
X34410379Y-27247995D01*
X34391896Y-27228448D01*
X34357427Y-27192752D01*
X34308712Y-27142684D01*
X34247469Y-27080001D01*
X34175420Y-27006457D01*
X34094285Y-26923810D01*
X34005784Y-26833815D01*
X33911637Y-26738228D01*
X33813565Y-26638805D01*
X33271161Y-26089343D01*
X33249066Y-26374746D01*
X33244250Y-26435662D01*
X33237216Y-26517548D01*
X33230872Y-26579569D01*
X33224748Y-26624987D01*
X33218373Y-26657062D01*
X33211277Y-26679052D01*
X33202991Y-26694219D01*
X33191393Y-26715416D01*
X33181850Y-26754386D01*
X33179010Y-26810531D01*
X33179010Y-26892773D01*
X32952674Y-26892773D01*
X32952674Y-26716733D01*
X32107082Y-26716733D01*
X32058203Y-26772262D01*
X32044836Y-26786722D01*
X31972388Y-26844813D01*
X31890532Y-26880576D01*
X31801900Y-26892773D01*
X31723692Y-26886306D01*
X31635233Y-26859047D01*
X31559507Y-26810328D01*
X31544748Y-26796403D01*
X31507864Y-26751328D01*
X31475503Y-26698819D01*
X31452297Y-26647061D01*
X31442879Y-26604239D01*
X31442697Y-26598023D01*
X31441342Y-26575246D01*
X31437800Y-26559513D01*
X31430390Y-26552068D01*
X31417431Y-26554156D01*
X31397243Y-26567020D01*
X31368145Y-26591905D01*
X31328456Y-26630053D01*
X31276496Y-26682710D01*
X31210584Y-26751119D01*
X31129040Y-26836524D01*
X31085604Y-26882112D01*
X31013000Y-26958441D01*
X30944309Y-27030808D01*
X30882223Y-27096366D01*
X30829434Y-27152274D01*
X30788634Y-27195686D01*
X30762515Y-27223758D01*
X30691119Y-27301436D01*
X30602863Y-27213416D01*
X31148690Y-26641287D01*
X31183105Y-26605188D01*
X31305546Y-26476272D01*
X31410651Y-26364754D01*
X31498736Y-26270288D01*
X31570116Y-26192529D01*
X31620588Y-26136174D01*
X31827247Y-26136174D01*
X31828872Y-26149434D01*
X31829156Y-26150819D01*
X31842698Y-26182228D01*
X31869748Y-26196863D01*
X31953129Y-26228063D01*
X32027418Y-26280038D01*
X32085846Y-26348791D01*
X32125890Y-26431315D01*
X32145026Y-26524606D01*
X32151364Y-26603565D01*
X33100838Y-26603565D01*
X33107458Y-26575273D01*
X33108629Y-26568329D01*
X33112268Y-26537281D01*
X33117234Y-26487081D01*
X33123157Y-26421727D01*
X33129669Y-26345219D01*
X33136401Y-26261555D01*
X33158724Y-25976129D01*
X32857826Y-25670565D01*
X32802636Y-25614704D01*
X32735109Y-25546888D01*
X32674529Y-25486643D01*
X32623021Y-25436052D01*
X32582710Y-25397200D01*
X32555722Y-25372170D01*
X32544182Y-25363046D01*
X32536444Y-25367405D01*
X32513395Y-25387241D01*
X32478709Y-25420375D01*
X32435487Y-25463820D01*
X32386832Y-25514587D01*
X32374140Y-25528051D01*
X32317229Y-25588275D01*
X32249414Y-25659864D01*
X32175800Y-25737437D01*
X32101493Y-25815611D01*
X32031599Y-25889005D01*
X32027401Y-25893409D01*
X31962420Y-25961785D01*
X31912836Y-26014732D01*
X31876688Y-26054767D01*
X31852016Y-26084411D01*
X31836858Y-26106181D01*
X31829256Y-26122595D01*
X31827247Y-26136174D01*
X31620588Y-26136174D01*
X31625105Y-26131131D01*
X31664019Y-26085748D01*
X31687173Y-26056035D01*
X31694882Y-26041644D01*
X31694883Y-26041559D01*
X31693825Y-26023624D01*
X31690737Y-25983421D01*
X31685858Y-25923687D01*
X31679432Y-25847158D01*
X31671700Y-25756569D01*
X31662905Y-25654657D01*
X31653287Y-25544159D01*
X31643091Y-25427811D01*
X31632556Y-25308348D01*
X31621926Y-25188507D01*
X31611442Y-25071025D01*
X31601346Y-24958637D01*
X31591881Y-24854081D01*
X31583288Y-24760091D01*
X31575809Y-24679405D01*
X31569687Y-24614759D01*
X31565162Y-24568888D01*
X31562478Y-24544530D01*
X31557067Y-24503732D01*
X31686253Y-24503732D01*
X31687908Y-24534653D01*
X31691549Y-24586653D01*
X31696995Y-24657487D01*
X31704063Y-24744911D01*
X31712570Y-24846681D01*
X31722335Y-24960552D01*
X31733174Y-25084279D01*
X31744907Y-25215618D01*
X31754079Y-25316908D01*
X31765566Y-25442526D01*
X31776322Y-25558762D01*
X31786131Y-25663380D01*
X31794781Y-25754140D01*
X31802057Y-25828804D01*
X31807746Y-25885134D01*
X31811634Y-25920891D01*
X31813506Y-25933837D01*
X31819188Y-25929826D01*
X31840020Y-25910138D01*
X31873872Y-25876322D01*
X31918412Y-25830837D01*
X31971310Y-25776146D01*
X32030236Y-25714710D01*
X32092858Y-25648990D01*
X32156848Y-25581449D01*
X32219874Y-25514547D01*
X32279606Y-25450746D01*
X32333713Y-25392507D01*
X32379865Y-25342292D01*
X32415733Y-25302563D01*
X32438984Y-25275780D01*
X32445778Y-25266477D01*
X32627601Y-25266477D01*
X32903305Y-25541968D01*
X32970726Y-25609224D01*
X33034267Y-25672162D01*
X33083490Y-25720100D01*
X33120196Y-25754594D01*
X33146190Y-25777199D01*
X33163276Y-25789471D01*
X33173256Y-25792966D01*
X33177935Y-25789238D01*
X33179116Y-25779844D01*
X33179873Y-25764749D01*
X33182601Y-25725883D01*
X33187108Y-25666895D01*
X33193179Y-25590473D01*
X33200596Y-25499305D01*
X33209142Y-25396080D01*
X33218602Y-25283483D01*
X33228758Y-25164205D01*
X33237723Y-25059077D01*
X33247066Y-24948351D01*
X33255443Y-24847814D01*
X33262653Y-24759943D01*
X33268496Y-24687215D01*
X33272769Y-24632110D01*
X33275273Y-24597104D01*
X33275805Y-24584674D01*
X33275384Y-24584908D01*
X33263509Y-24596350D01*
X33237130Y-24623198D01*
X33198570Y-24663018D01*
X33150153Y-24713372D01*
X33094203Y-24771828D01*
X33033042Y-24835948D01*
X32968995Y-24903298D01*
X32904385Y-24971443D01*
X32841535Y-25037948D01*
X32782768Y-25100377D01*
X32730409Y-25156295D01*
X32629533Y-25264406D01*
X32627601Y-25266477D01*
X32445778Y-25266477D01*
X32447290Y-25264406D01*
X32439148Y-25253383D01*
X32415478Y-25226999D01*
X32378478Y-25187527D01*
X32330350Y-25137191D01*
X32273296Y-25078217D01*
X32209520Y-25012830D01*
X32141222Y-24943255D01*
X32070605Y-24871716D01*
X31999871Y-24800438D01*
X31931222Y-24731647D01*
X31866861Y-24667566D01*
X31808989Y-24610422D01*
X31759810Y-24562439D01*
X31721524Y-24525841D01*
X31696334Y-24502854D01*
X31686442Y-24495703D01*
X31686253Y-24503732D01*
X31557067Y-24503732D01*
X31555390Y-24491089D01*
X31280297Y-24491089D01*
X31279968Y-24280471D01*
X31279797Y-24171172D01*
X31380891Y-24171172D01*
X31380891Y-24390495D01*
X31462624Y-24390495D01*
X31469895Y-24390489D01*
X31510950Y-24389613D01*
X31533277Y-24385867D01*
X31542529Y-24377270D01*
X31544357Y-24361840D01*
X31536306Y-24339159D01*
X31508730Y-24301428D01*
X31462624Y-24252179D01*
X31380891Y-24171172D01*
X31279797Y-24171172D01*
X31279639Y-24069852D01*
X30827914Y-23610891D01*
X30376189Y-23151931D01*
X30375570Y-23064848D01*
X30374951Y-22977767D01*
X30916769Y-23526952D01*
X30969137Y-23579998D01*
X31077803Y-23689772D01*
X31170709Y-23783114D01*
X31249055Y-23861173D01*
X31314043Y-23925097D01*
X31366872Y-23976035D01*
X31408743Y-24015135D01*
X31440855Y-24043548D01*
X31464410Y-24062420D01*
X31480608Y-24072901D01*
X31490649Y-24076139D01*
X31507579Y-24075158D01*
X31517084Y-24067996D01*
X31518723Y-24048401D01*
X31514782Y-24010124D01*
X31512065Y-23986025D01*
X31508284Y-23945744D01*
X31506760Y-23918961D01*
X31506015Y-23909728D01*
X31498746Y-23899839D01*
X31478668Y-23896562D01*
X31439689Y-23897992D01*
X31429737Y-23898553D01*
X31389898Y-23897921D01*
X31361560Y-23889167D01*
X31341586Y-23874951D01*
X31624852Y-23874951D01*
X31629013Y-23922104D01*
X31630935Y-23943498D01*
X31636924Y-24001909D01*
X31642826Y-24040381D01*
X31649727Y-24062912D01*
X31658712Y-24073498D01*
X31670870Y-24076139D01*
X31681801Y-24077937D01*
X31689050Y-24086530D01*
X31693100Y-24106505D01*
X31694863Y-24142450D01*
X31695248Y-24198952D01*
X31695248Y-24321766D01*
X31735447Y-24361840D01*
X31833565Y-24459654D01*
X31971881Y-24597542D01*
X31971881Y-24491089D01*
X32726337Y-24491089D01*
X32726337Y-24730000D01*
X32107831Y-24730000D01*
X32317592Y-24946906D01*
X32357770Y-24988334D01*
X32413328Y-25045200D01*
X32461570Y-25094082D01*
X32499971Y-25132441D01*
X32526003Y-25157741D01*
X32537140Y-25167442D01*
X32541373Y-25164767D01*
X32561224Y-25146782D01*
X32595451Y-25113481D01*
X32642227Y-25066712D01*
X32699724Y-25008325D01*
X32766112Y-24940169D01*
X32839564Y-24864094D01*
X32918251Y-24781950D01*
X32997341Y-24698943D01*
X33074871Y-24617136D01*
X33137746Y-24550083D01*
X33187502Y-24496007D01*
X33225678Y-24453129D01*
X33253811Y-24419673D01*
X33273440Y-24393861D01*
X33286101Y-24373914D01*
X33293334Y-24358056D01*
X33296675Y-24344509D01*
X33297561Y-24337910D01*
X33301488Y-24301548D01*
X33306459Y-24248018D01*
X33311927Y-24183421D01*
X33317344Y-24113862D01*
X33319181Y-24089635D01*
X33324488Y-24024178D01*
X33329548Y-23967717D01*
X33333863Y-23925618D01*
X33336934Y-23903243D01*
X33342955Y-23874951D01*
X31624852Y-23874951D01*
X31341586Y-23874951D01*
X31333630Y-23869289D01*
X31328820Y-23865104D01*
X31289482Y-23814427D01*
X31273903Y-23761782D01*
X31614698Y-23761782D01*
X33029221Y-23761782D01*
X33027172Y-23711485D01*
X33241881Y-23711485D01*
X33241881Y-23761782D01*
X33298908Y-23761782D01*
X33315993Y-23761662D01*
X33341308Y-23759462D01*
X33348616Y-23752334D01*
X33342943Y-23737508D01*
X33341267Y-23734682D01*
X33322448Y-23712944D01*
X33295183Y-23688820D01*
X33267987Y-23669254D01*
X33249371Y-23661188D01*
X33247697Y-23662463D01*
X33243544Y-23679976D01*
X33241881Y-23711485D01*
X33027172Y-23711485D01*
X33025526Y-23671095D01*
X33021832Y-23580407D01*
X32946386Y-23565252D01*
X32908551Y-23558379D01*
X32845368Y-23548756D01*
X32786065Y-23541496D01*
X32701188Y-23532893D01*
X32701188Y-23636040D01*
X32122773Y-23636040D01*
X32122773Y-23545122D01*
X32050471Y-23553753D01*
X31939998Y-23572249D01*
X31828816Y-23605691D01*
X31736850Y-23652324D01*
X31662542Y-23712786D01*
X31614698Y-23761782D01*
X31273903Y-23761782D01*
X31272172Y-23755934D01*
X31277474Y-23694575D01*
X31305975Y-23635297D01*
X31308733Y-23631606D01*
X31346822Y-23599851D01*
X31396476Y-23581067D01*
X31450002Y-23576071D01*
X31499707Y-23585678D01*
X31537900Y-23610704D01*
X31550831Y-23623480D01*
X31563428Y-23626576D01*
X31581467Y-23616998D01*
X31611928Y-23593082D01*
X31621274Y-23585731D01*
X31693430Y-23539339D01*
X31778915Y-23498084D01*
X31848830Y-23472575D01*
X32223367Y-23472575D01*
X32223367Y-23535446D01*
X32600594Y-23535446D01*
X32600594Y-23472575D01*
X32223367Y-23472575D01*
X31848830Y-23472575D01*
X31869767Y-23464936D01*
X31958027Y-23442868D01*
X32035736Y-23434852D01*
X32043991Y-23434788D01*
X32089879Y-23430321D01*
X32115079Y-23417795D01*
X32122773Y-23395784D01*
X32123676Y-23388849D01*
X32128615Y-23382885D01*
X32140611Y-23378519D01*
X32162680Y-23375503D01*
X32197836Y-23373590D01*
X32249094Y-23372530D01*
X32319471Y-23372077D01*
X32411980Y-23371980D01*
X32498660Y-23372150D01*
X32572332Y-23372834D01*
X32626265Y-23374215D01*
X32663288Y-23376470D01*
X32686230Y-23379778D01*
X32697920Y-23384320D01*
X32701188Y-23390272D01*
X32711937Y-23404888D01*
X32742055Y-23414215D01*
X32753582Y-23415847D01*
X32792886Y-23421591D01*
X32845188Y-23429378D01*
X32902376Y-23438003D01*
X32933916Y-23442393D01*
X32980074Y-23447148D01*
X33012641Y-23448295D01*
X33026023Y-23445495D01*
X33028308Y-23443671D01*
X33049405Y-23439165D01*
X33087355Y-23436029D01*
X33136048Y-23434852D01*
X33241881Y-23434852D01*
X33241894Y-23472575D01*
X33241894Y-23475718D01*
G37*
%TO.C,J3*%
D13*
X12800000Y-10300000D02*
X28200000Y-10300000D01*
X28200000Y-18700000D01*
X12800000Y-18700000D01*
X12800000Y-10300000D01*
%TO.C,J2*%
X12800000Y-25300000D02*
X28200000Y-25300000D01*
X28200000Y-33700000D01*
X12800000Y-33700000D01*
X12800000Y-25300000D01*
%TD*%
M02*
