%TF.GenerationSoftware,KiCad,Pcbnew,7.0.8*%
%TF.CreationDate,2024-01-10T09:36:00+11:00*%
%TF.ProjectId,cphp82001-pcb,63706870-3832-4303-9031-2d7063622e6b,2.2*%
%TF.SameCoordinates,Original*%
%TF.FileFunction,Copper,L2,Bot*%
%TF.FilePolarity,Positive*%
%FSLAX46Y46*%
G04 Gerber Fmt 4.6, Leading zero omitted, Abs format (unit mm)*
G04 Created by KiCad (PCBNEW 7.0.8) date 2024-01-10 09:36:00*
%MOMM*%
%LPD*%
G01*
G04 APERTURE LIST*
G04 Aperture macros list*
%AMRoundRect*
0 Rectangle with rounded corners*
0 $1 Rounding radius*
0 $2 $3 $4 $5 $6 $7 $8 $9 X,Y pos of 4 corners*
0 Add a 4 corners polygon primitive as box body*
4,1,4,$2,$3,$4,$5,$6,$7,$8,$9,$2,$3,0*
0 Add four circle primitives for the rounded corners*
1,1,$1+$1,$2,$3*
1,1,$1+$1,$4,$5*
1,1,$1+$1,$6,$7*
1,1,$1+$1,$8,$9*
0 Add four rect primitives between the rounded corners*
20,1,$1+$1,$2,$3,$4,$5,0*
20,1,$1+$1,$4,$5,$6,$7,0*
20,1,$1+$1,$6,$7,$8,$9,0*
20,1,$1+$1,$8,$9,$2,$3,0*%
G04 Aperture macros list end*
%TA.AperFunction,ComponentPad*%
%ADD10O,1.800000X1.100000*%
%TD*%
%TA.AperFunction,SMDPad,CuDef*%
%ADD11RoundRect,0.800000X-6.700000X3.200000X-6.700000X-3.200000X6.700000X-3.200000X6.700000X3.200000X0*%
%TD*%
%TA.AperFunction,ViaPad*%
%ADD12C,0.800000*%
%TD*%
%TA.AperFunction,ViaPad*%
%ADD13C,1.200000*%
%TD*%
%TA.AperFunction,Conductor*%
%ADD14C,0.800000*%
%TD*%
%TA.AperFunction,Conductor*%
%ADD15C,0.250000*%
%TD*%
G04 APERTURE END LIST*
D10*
%TO.P,J1,6,Shield*%
%TO.N,/GND*%
X5800000Y-1600000D03*
X2330000Y-1600000D03*
X5800000Y-8750000D03*
X2330000Y-8750000D03*
%TD*%
D11*
%TO.P,J3,1,Pin_1*%
%TO.N,/GNDF*%
X20500000Y-14500000D03*
%TD*%
%TO.P,J2,1,Pin_1*%
%TO.N,/VOUT*%
X20500000Y-29500000D03*
%TD*%
D12*
%TO.N,/GND*%
X5000000Y-32500000D03*
X5000000Y-22000000D03*
X39000000Y-8700000D03*
X39000000Y-7000000D03*
X2500000Y-42000000D03*
X20400000Y-6500000D03*
X39000000Y-5400000D03*
X28500000Y-2000000D03*
X20800000Y-8600000D03*
X18975000Y-6537500D03*
X44800000Y-9700000D03*
X17500000Y-6500000D03*
X29300000Y-2700000D03*
X41400000Y-7000000D03*
X41400000Y-8700000D03*
X37500000Y-7000000D03*
X50000000Y-14500000D03*
X52500000Y-42500000D03*
X33300000Y-4200000D03*
X19000000Y-3800000D03*
X46900000Y-9700000D03*
X20200000Y-3800000D03*
X50200000Y-2500000D03*
X41400000Y-5400000D03*
X52700000Y-5800000D03*
X50000000Y-23500000D03*
X49500000Y-31000000D03*
X14500000Y-6200000D03*
X28500000Y-3400000D03*
X43400000Y-3300000D03*
D13*
%TO.N,/VOUT*%
X30300000Y-9250000D03*
D12*
%TO.N,/EN*%
X40200000Y-5300000D03*
X45200000Y-2187500D03*
X31450000Y-2950000D03*
%TO.N,/PROG2*%
X14000000Y-4350000D03*
X24500000Y-5800000D03*
%TO.N,/TS*%
X52100000Y-4800000D03*
X18025000Y-9000000D03*
D13*
%TO.N,/GNDF*%
X21600000Y-19900000D03*
X19400000Y-19900000D03*
%TD*%
D14*
%TO.N,/VOUT*%
X30300000Y-23200000D02*
X30300000Y-9250000D01*
X24000000Y-29500000D02*
X30300000Y-23200000D01*
X20500000Y-29500000D02*
X24000000Y-29500000D01*
D15*
%TO.N,/EN*%
X40200000Y-2950000D02*
X37850000Y-2950000D01*
X41012500Y-2187500D02*
X40250000Y-2950000D01*
X45200000Y-2187500D02*
X41012500Y-2187500D01*
X40250000Y-2950000D02*
X37850000Y-2950000D01*
X37850000Y-2950000D02*
X31450000Y-2950000D01*
X40200000Y-5300000D02*
X40200000Y-2950000D01*
%TO.N,/PROG2*%
X15400000Y-2950000D02*
X14000000Y-4350000D01*
X24500000Y-5800000D02*
X21650000Y-2950000D01*
X21650000Y-2950000D02*
X15400000Y-2950000D01*
%TO.N,/TS*%
X48400000Y-4800000D02*
X43700000Y-9500000D01*
X29200000Y-7800000D02*
X27625000Y-9375000D01*
X18400000Y-9375000D02*
X18025000Y-9000000D01*
X43700000Y-9500000D02*
X33100000Y-9500000D01*
X52100000Y-4800000D02*
X48400000Y-4800000D01*
X27625000Y-9375000D02*
X18400000Y-9375000D01*
X33100000Y-9500000D02*
X31400000Y-7800000D01*
X31400000Y-7800000D02*
X29200000Y-7800000D01*
D14*
%TO.N,/GNDF*%
X20500000Y-14500000D02*
X20500000Y-19800000D01*
X20500000Y-19800000D02*
X20600000Y-19900000D01*
X20600000Y-19900000D02*
X21600000Y-19900000D01*
X20600000Y-19900000D02*
X19400000Y-19900000D01*
%TD*%
%TA.AperFunction,Conductor*%
%TO.N,/GND*%
G36*
X1385710Y-519685D02*
G01*
X1431465Y-572489D01*
X1441409Y-641647D01*
X1412384Y-705203D01*
X1397336Y-719853D01*
X1233944Y-853944D01*
X1102732Y-1013826D01*
X1102728Y-1013833D01*
X1005233Y-1196233D01*
X958590Y-1350000D01*
X1955376Y-1350000D01*
X1882455Y-1364505D01*
X1799760Y-1419760D01*
X1744505Y-1502455D01*
X1725102Y-1600000D01*
X1744505Y-1697545D01*
X1799760Y-1780240D01*
X1882455Y-1835495D01*
X1955376Y-1850000D01*
X958590Y-1850000D01*
X1005233Y-2003766D01*
X1102728Y-2186166D01*
X1102732Y-2186173D01*
X1233944Y-2346055D01*
X1393826Y-2477267D01*
X1393833Y-2477271D01*
X1576233Y-2574766D01*
X1774165Y-2634808D01*
X1928415Y-2650000D01*
X2080000Y-2650000D01*
X2080000Y-1850000D01*
X2580000Y-1850000D01*
X2580000Y-2650000D01*
X2731585Y-2650000D01*
X2885834Y-2634808D01*
X3083766Y-2574766D01*
X3266166Y-2477271D01*
X3266173Y-2477267D01*
X3426055Y-2346055D01*
X3557267Y-2186173D01*
X3557271Y-2186166D01*
X3654766Y-2003766D01*
X3701410Y-1850000D01*
X2704624Y-1850000D01*
X2777545Y-1835495D01*
X2860240Y-1780240D01*
X2915495Y-1697545D01*
X2934898Y-1600000D01*
X2915495Y-1502455D01*
X2860240Y-1419760D01*
X2777545Y-1364505D01*
X2704624Y-1350000D01*
X3701410Y-1350000D01*
X3654766Y-1196233D01*
X3557271Y-1013833D01*
X3557267Y-1013826D01*
X3426055Y-853944D01*
X3262664Y-719853D01*
X3223330Y-662108D01*
X3221459Y-592263D01*
X3257646Y-532495D01*
X3320402Y-501779D01*
X3341329Y-500000D01*
X4788671Y-500000D01*
X4855710Y-519685D01*
X4901465Y-572489D01*
X4911409Y-641647D01*
X4882384Y-705203D01*
X4867336Y-719853D01*
X4703944Y-853944D01*
X4572732Y-1013826D01*
X4572728Y-1013833D01*
X4475233Y-1196233D01*
X4428590Y-1350000D01*
X5425376Y-1350000D01*
X5352455Y-1364505D01*
X5269760Y-1419760D01*
X5214505Y-1502455D01*
X5195102Y-1600000D01*
X5214505Y-1697545D01*
X5269760Y-1780240D01*
X5352455Y-1835495D01*
X5425376Y-1850000D01*
X4428590Y-1850000D01*
X4475233Y-2003766D01*
X4572728Y-2186166D01*
X4572732Y-2186173D01*
X4703944Y-2346055D01*
X4854548Y-2469652D01*
X4868585Y-2490260D01*
X4880641Y-2489961D01*
X4907124Y-2500411D01*
X5046233Y-2574766D01*
X5244165Y-2634808D01*
X5398415Y-2650000D01*
X5550000Y-2650000D01*
X5550000Y-1850000D01*
X6050000Y-1850000D01*
X6050000Y-2650000D01*
X6201585Y-2650000D01*
X6355834Y-2634808D01*
X6553766Y-2574766D01*
X6736166Y-2477271D01*
X6736173Y-2477267D01*
X6896055Y-2346055D01*
X7027267Y-2186173D01*
X7027271Y-2186166D01*
X7124766Y-2003766D01*
X7171410Y-1850000D01*
X6174624Y-1850000D01*
X6247545Y-1835495D01*
X6330240Y-1780240D01*
X6385495Y-1697545D01*
X6404898Y-1600000D01*
X6385495Y-1502455D01*
X6330240Y-1419760D01*
X6247545Y-1364505D01*
X6174624Y-1350000D01*
X7171410Y-1350000D01*
X7124766Y-1196233D01*
X7027271Y-1013833D01*
X7027267Y-1013826D01*
X6896055Y-853944D01*
X6732664Y-719853D01*
X6693330Y-662108D01*
X6691459Y-592263D01*
X6727646Y-532495D01*
X6790402Y-501779D01*
X6811329Y-500000D01*
X12288826Y-500000D01*
X12296924Y-500530D01*
X12388772Y-512622D01*
X12406116Y-514906D01*
X12437383Y-523284D01*
X12527808Y-560739D01*
X12555842Y-576924D01*
X12643224Y-643974D01*
X12649319Y-649319D01*
X13500000Y-1500000D01*
X43292886Y-1500000D01*
X43292893Y-1500000D01*
X43500000Y-1500000D01*
X44350687Y-649312D01*
X44356768Y-643979D01*
X44444157Y-576924D01*
X44472191Y-560739D01*
X44562616Y-523284D01*
X44593882Y-514906D01*
X44703074Y-500530D01*
X44711174Y-500000D01*
X54995933Y-500000D01*
X55004031Y-500530D01*
X55095879Y-512622D01*
X55113223Y-514906D01*
X55144491Y-523284D01*
X55234918Y-560740D01*
X55262952Y-576925D01*
X55340602Y-636509D01*
X55363491Y-659398D01*
X55423074Y-737048D01*
X55439259Y-765081D01*
X55476715Y-855508D01*
X55485093Y-886775D01*
X55499469Y-995964D01*
X55500000Y-1004065D01*
X55500000Y-9288827D01*
X55499469Y-9296928D01*
X55485093Y-9406117D01*
X55476715Y-9437383D01*
X55439260Y-9527808D01*
X55423075Y-9555842D01*
X55356025Y-9643224D01*
X55350672Y-9649328D01*
X54646451Y-10353547D01*
X54646445Y-10353554D01*
X54646441Y-10353558D01*
X54500000Y-10500000D01*
X54500000Y-34500000D01*
X54646447Y-34646447D01*
X55350679Y-35350679D01*
X55356025Y-35356775D01*
X55423075Y-35444157D01*
X55439260Y-35472191D01*
X55476715Y-35562616D01*
X55485093Y-35593882D01*
X55499469Y-35703071D01*
X55500000Y-35711172D01*
X55500000Y-42995934D01*
X55499469Y-43004035D01*
X55485093Y-43113224D01*
X55476715Y-43144491D01*
X55439259Y-43234918D01*
X55423074Y-43262951D01*
X55363491Y-43340601D01*
X55340601Y-43363491D01*
X55262951Y-43423074D01*
X55234918Y-43439259D01*
X55144491Y-43476715D01*
X55113224Y-43485093D01*
X55024783Y-43496737D01*
X55004031Y-43499469D01*
X54995934Y-43500000D01*
X44711173Y-43500000D01*
X44703075Y-43499469D01*
X44679564Y-43496374D01*
X44593882Y-43485093D01*
X44562616Y-43476715D01*
X44472191Y-43439260D01*
X44444157Y-43423075D01*
X44356775Y-43356025D01*
X44350679Y-43350679D01*
X43646447Y-42646447D01*
X43500000Y-42500000D01*
X43292893Y-42500000D01*
X43292886Y-42500000D01*
X13707114Y-42500000D01*
X13707107Y-42500000D01*
X13500000Y-42500000D01*
X13353558Y-42646441D01*
X13353554Y-42646445D01*
X13353547Y-42646451D01*
X12649328Y-43350672D01*
X12643224Y-43356025D01*
X12555842Y-43423075D01*
X12527808Y-43439260D01*
X12437383Y-43476715D01*
X12406117Y-43485093D01*
X12317676Y-43496737D01*
X12296924Y-43499469D01*
X12288827Y-43500000D01*
X1004066Y-43500000D01*
X995968Y-43499469D01*
X972457Y-43496374D01*
X886775Y-43485093D01*
X855508Y-43476715D01*
X765081Y-43439259D01*
X737048Y-43423074D01*
X659398Y-43363491D01*
X636508Y-43340601D01*
X576925Y-43262951D01*
X560740Y-43234918D01*
X523284Y-43144491D01*
X514906Y-43113223D01*
X500531Y-43004035D01*
X500000Y-42995933D01*
X500000Y-35711173D01*
X500531Y-35703071D01*
X514906Y-35593883D01*
X523284Y-35562616D01*
X560739Y-35472191D01*
X576924Y-35444157D01*
X584742Y-35433967D01*
X643979Y-35356768D01*
X649312Y-35350687D01*
X1353553Y-34646447D01*
X1500000Y-34500000D01*
X1500000Y-26210095D01*
X11999500Y-26210095D01*
X11999501Y-32789904D01*
X12005173Y-32890931D01*
X12005804Y-32902158D01*
X12005805Y-32902165D01*
X12055971Y-33167299D01*
X12055973Y-33167309D01*
X12116948Y-33341565D01*
X12145102Y-33422025D01*
X12271198Y-33660610D01*
X12431445Y-33877737D01*
X12622263Y-34068555D01*
X12839390Y-34228802D01*
X13077975Y-34354898D01*
X13332690Y-34444026D01*
X13332700Y-34444028D01*
X13465266Y-34469111D01*
X13597843Y-34494196D01*
X13710095Y-34500500D01*
X13710102Y-34500499D01*
X13710103Y-34500500D01*
X20100593Y-34500499D01*
X27289904Y-34500499D01*
X27402157Y-34494196D01*
X27667310Y-34444026D01*
X27922025Y-34354898D01*
X28160610Y-34228802D01*
X28377737Y-34068555D01*
X28568555Y-33877737D01*
X28728802Y-33660610D01*
X28854898Y-33422025D01*
X28944026Y-33167310D01*
X28994196Y-32902157D01*
X29000500Y-32789905D01*
X29000500Y-32500000D01*
X30500000Y-32500000D01*
X31000000Y-33000000D01*
X40000000Y-33000000D01*
X40500000Y-32500000D01*
X40500000Y-26500000D01*
X40000000Y-26000000D01*
X31000000Y-26000000D01*
X30999999Y-26000000D01*
X30500000Y-26499999D01*
X30500000Y-26500000D01*
X30500000Y-32500000D01*
X29000500Y-32500000D01*
X29000499Y-26210096D01*
X28994196Y-26097843D01*
X28944026Y-25832690D01*
X28858949Y-25589554D01*
X28855389Y-25519780D01*
X28888309Y-25460925D01*
X30693916Y-23655318D01*
X30700006Y-23649977D01*
X30728282Y-23628282D01*
X30824536Y-23502841D01*
X30885044Y-23356762D01*
X30900500Y-23239361D01*
X30905682Y-23200000D01*
X30901030Y-23164669D01*
X30900500Y-23156571D01*
X30900500Y-18124000D01*
X30920185Y-18056961D01*
X30972989Y-18011206D01*
X31024500Y-18000000D01*
X40000000Y-18000000D01*
X40500000Y-17500000D01*
X40500000Y-11500000D01*
X40000000Y-11000000D01*
X31024500Y-11000000D01*
X30957461Y-10980315D01*
X30911706Y-10927511D01*
X30900500Y-10876000D01*
X30900500Y-9832412D01*
X30920185Y-9765373D01*
X30927555Y-9755097D01*
X30929810Y-9752267D01*
X30929816Y-9752262D01*
X31025789Y-9599522D01*
X31085368Y-9429255D01*
X31099611Y-9302843D01*
X31105565Y-9250003D01*
X31105565Y-9249996D01*
X31085369Y-9070750D01*
X31085368Y-9070745D01*
X31060613Y-9000000D01*
X31025789Y-8900478D01*
X30929816Y-8747738D01*
X30802262Y-8620184D01*
X30722013Y-8569760D01*
X30649523Y-8524211D01*
X30479254Y-8464631D01*
X30479249Y-8464630D01*
X30300004Y-8444435D01*
X30299996Y-8444435D01*
X30120750Y-8464630D01*
X30120745Y-8464631D01*
X29950476Y-8524211D01*
X29797737Y-8620184D01*
X29670184Y-8747737D01*
X29574211Y-8900476D01*
X29514631Y-9070745D01*
X29514630Y-9070750D01*
X29494435Y-9249996D01*
X29494435Y-9250003D01*
X29514630Y-9429249D01*
X29514631Y-9429254D01*
X29574211Y-9599523D01*
X29605506Y-9649328D01*
X29651283Y-9722182D01*
X29670185Y-9752263D01*
X29672445Y-9755097D01*
X29673334Y-9757275D01*
X29673889Y-9758158D01*
X29673734Y-9758255D01*
X29698855Y-9819783D01*
X29699500Y-9832412D01*
X29699500Y-22899901D01*
X29679815Y-22966940D01*
X29663181Y-22987582D01*
X28039075Y-24611687D01*
X27977752Y-24645172D01*
X27910440Y-24641048D01*
X27806344Y-24604623D01*
X27667310Y-24555974D01*
X27667307Y-24555973D01*
X27667299Y-24555971D01*
X27402166Y-24505805D01*
X27402159Y-24505804D01*
X27379706Y-24504543D01*
X27289905Y-24499500D01*
X27289897Y-24499500D01*
X20899406Y-24499500D01*
X13710096Y-24499501D01*
X13618252Y-24504658D01*
X13597841Y-24505804D01*
X13597834Y-24505805D01*
X13332700Y-24555971D01*
X13332690Y-24555973D01*
X13077972Y-24645103D01*
X12839393Y-24771196D01*
X12839387Y-24771199D01*
X12622263Y-24931444D01*
X12431444Y-25122263D01*
X12271199Y-25339387D01*
X12271196Y-25339393D01*
X12145103Y-25577972D01*
X12055973Y-25832690D01*
X12055971Y-25832700D01*
X12005805Y-26097833D01*
X12005804Y-26097840D01*
X12005804Y-26097841D01*
X12005804Y-26097843D01*
X11999500Y-26210095D01*
X1500000Y-26210095D01*
X1500000Y-11210095D01*
X11999500Y-11210095D01*
X11999501Y-17789904D01*
X12005173Y-17890931D01*
X12005804Y-17902158D01*
X12005805Y-17902165D01*
X12055971Y-18167299D01*
X12055973Y-18167309D01*
X12116948Y-18341565D01*
X12145102Y-18422025D01*
X12271198Y-18660610D01*
X12431445Y-18877737D01*
X12622263Y-19068555D01*
X12839390Y-19228802D01*
X13077975Y-19354898D01*
X13332690Y-19444026D01*
X13332700Y-19444028D01*
X13465266Y-19469111D01*
X13597843Y-19494196D01*
X13710095Y-19500500D01*
X13710102Y-19500499D01*
X13710103Y-19500500D01*
X13710306Y-19500499D01*
X18516937Y-19500499D01*
X18583976Y-19520184D01*
X18629731Y-19572988D01*
X18639675Y-19642146D01*
X18633979Y-19665453D01*
X18614632Y-19720742D01*
X18614630Y-19720750D01*
X18594435Y-19899996D01*
X18594435Y-19900003D01*
X18614630Y-20079249D01*
X18614631Y-20079254D01*
X18674211Y-20249523D01*
X18770184Y-20402262D01*
X18897738Y-20529816D01*
X19050478Y-20625789D01*
X19220745Y-20685368D01*
X19220750Y-20685369D01*
X19399996Y-20705565D01*
X19400000Y-20705565D01*
X19400004Y-20705565D01*
X19579249Y-20685369D01*
X19579252Y-20685368D01*
X19579255Y-20685368D01*
X19749522Y-20625789D01*
X19902262Y-20529816D01*
X19902267Y-20529810D01*
X19905097Y-20527555D01*
X19907275Y-20526665D01*
X19908158Y-20526111D01*
X19908255Y-20526265D01*
X19969783Y-20501145D01*
X19982412Y-20500500D01*
X20556572Y-20500500D01*
X20564670Y-20501030D01*
X20600000Y-20505682D01*
X20635329Y-20501030D01*
X20643428Y-20500500D01*
X21017588Y-20500500D01*
X21084627Y-20520185D01*
X21094903Y-20527555D01*
X21097736Y-20529814D01*
X21097738Y-20529816D01*
X21250478Y-20625789D01*
X21420745Y-20685368D01*
X21420750Y-20685369D01*
X21599996Y-20705565D01*
X21600000Y-20705565D01*
X21600004Y-20705565D01*
X21779249Y-20685369D01*
X21779252Y-20685368D01*
X21779255Y-20685368D01*
X21949522Y-20625789D01*
X22102262Y-20529816D01*
X22229816Y-20402262D01*
X22325789Y-20249522D01*
X22385368Y-20079255D01*
X22405565Y-19900000D01*
X22385368Y-19720745D01*
X22385367Y-19720742D01*
X22366021Y-19665453D01*
X22362460Y-19595675D01*
X22397189Y-19535047D01*
X22459182Y-19502820D01*
X22483063Y-19500499D01*
X27289895Y-19500499D01*
X27289904Y-19500499D01*
X27402157Y-19494196D01*
X27667310Y-19444026D01*
X27922025Y-19354898D01*
X28160610Y-19228802D01*
X28377737Y-19068555D01*
X28568555Y-18877737D01*
X28728802Y-18660610D01*
X28854898Y-18422025D01*
X28944026Y-18167310D01*
X28994196Y-17902157D01*
X29000500Y-17789905D01*
X29000499Y-11210096D01*
X28994196Y-11097843D01*
X28944026Y-10832690D01*
X28854898Y-10577975D01*
X28728802Y-10339390D01*
X28568555Y-10122263D01*
X28377737Y-9931445D01*
X28377736Y-9931444D01*
X28160612Y-9771199D01*
X28000694Y-9686680D01*
X27950622Y-9637951D01*
X27934843Y-9569887D01*
X27958368Y-9504096D01*
X27970948Y-9489376D01*
X29298508Y-8161819D01*
X29359831Y-8128334D01*
X29386189Y-8125500D01*
X31213812Y-8125500D01*
X31280851Y-8145185D01*
X31301493Y-8161819D01*
X32857863Y-9718189D01*
X32861518Y-9722178D01*
X32887541Y-9753190D01*
X32887543Y-9753191D01*
X32887545Y-9753194D01*
X32887547Y-9753195D01*
X32887548Y-9753196D01*
X32922599Y-9773433D01*
X32927162Y-9776339D01*
X32960316Y-9799554D01*
X32960319Y-9799554D01*
X32965176Y-9801820D01*
X32981933Y-9808760D01*
X32986950Y-9810586D01*
X32986952Y-9810586D01*
X32986955Y-9810588D01*
X33026818Y-9817616D01*
X33032076Y-9818782D01*
X33071193Y-9829264D01*
X33111518Y-9825735D01*
X33116922Y-9825500D01*
X43683078Y-9825500D01*
X43688481Y-9825735D01*
X43728807Y-9829264D01*
X43767940Y-9818777D01*
X43773162Y-9817619D01*
X43813045Y-9810588D01*
X43813050Y-9810584D01*
X43818099Y-9808747D01*
X43834824Y-9801819D01*
X43839681Y-9799554D01*
X43839684Y-9799554D01*
X43872841Y-9776335D01*
X43877390Y-9773438D01*
X43912455Y-9753194D01*
X43912459Y-9753190D01*
X43938476Y-9722182D01*
X43942122Y-9718202D01*
X48498507Y-5161819D01*
X48559830Y-5128334D01*
X48586188Y-5125500D01*
X51531701Y-5125500D01*
X51598740Y-5145185D01*
X51630077Y-5174014D01*
X51661492Y-5214956D01*
X51671718Y-5228282D01*
X51797159Y-5324536D01*
X51943238Y-5385044D01*
X52021619Y-5395363D01*
X52099999Y-5405682D01*
X52100000Y-5405682D01*
X52100001Y-5405682D01*
X52152254Y-5398802D01*
X52256762Y-5385044D01*
X52402841Y-5324536D01*
X52528282Y-5228282D01*
X52624536Y-5102841D01*
X52685044Y-4956762D01*
X52705682Y-4800000D01*
X52702212Y-4773646D01*
X52685044Y-4643239D01*
X52685044Y-4643238D01*
X52624536Y-4497159D01*
X52528282Y-4371718D01*
X52402841Y-4275464D01*
X52256762Y-4214956D01*
X52256760Y-4214955D01*
X52100001Y-4194318D01*
X52099999Y-4194318D01*
X51943239Y-4214955D01*
X51943237Y-4214956D01*
X51797160Y-4275463D01*
X51671716Y-4371719D01*
X51630077Y-4425986D01*
X51573649Y-4467189D01*
X51531701Y-4474500D01*
X48416922Y-4474500D01*
X48411518Y-4474264D01*
X48406107Y-4473790D01*
X48371192Y-4470735D01*
X48371191Y-4470735D01*
X48332091Y-4481212D01*
X48326811Y-4482383D01*
X48286959Y-4489410D01*
X48281961Y-4491229D01*
X48265117Y-4498206D01*
X48260313Y-4500446D01*
X48227166Y-4523656D01*
X48222606Y-4526562D01*
X48187548Y-4546804D01*
X48187540Y-4546810D01*
X48161523Y-4577815D01*
X48157869Y-4581804D01*
X43601493Y-9138181D01*
X43540170Y-9171666D01*
X43513812Y-9174500D01*
X33286188Y-9174500D01*
X33219149Y-9154815D01*
X33198507Y-9138181D01*
X32454644Y-8394318D01*
X31642119Y-7581793D01*
X31638474Y-7577814D01*
X31612456Y-7546807D01*
X31612455Y-7546806D01*
X31601058Y-7540226D01*
X31577392Y-7526561D01*
X31572831Y-7523655D01*
X31559687Y-7514452D01*
X31539684Y-7500446D01*
X31539681Y-7500445D01*
X31534861Y-7498197D01*
X31518055Y-7491235D01*
X31513043Y-7489411D01*
X31473190Y-7482383D01*
X31467910Y-7481212D01*
X31428808Y-7470735D01*
X31393892Y-7473790D01*
X31388481Y-7474264D01*
X31383078Y-7474500D01*
X29216911Y-7474500D01*
X29211507Y-7474264D01*
X29206176Y-7473797D01*
X29171192Y-7470736D01*
X29132099Y-7481211D01*
X29126819Y-7482382D01*
X29086954Y-7489412D01*
X29081962Y-7491229D01*
X29065117Y-7498206D01*
X29060313Y-7500446D01*
X29027163Y-7523658D01*
X29022602Y-7526564D01*
X28987548Y-7546804D01*
X28987545Y-7546806D01*
X28987543Y-7546807D01*
X28987542Y-7546809D01*
X28961523Y-7577815D01*
X28957869Y-7581803D01*
X27526493Y-9013181D01*
X27465170Y-9046666D01*
X27438812Y-9049500D01*
X18745944Y-9049500D01*
X18678905Y-9029815D01*
X18633150Y-8977011D01*
X18623005Y-8941686D01*
X18621380Y-8929349D01*
X18610044Y-8843238D01*
X18549536Y-8697159D01*
X18453282Y-8571718D01*
X18327841Y-8475464D01*
X18301690Y-8464632D01*
X18181762Y-8414956D01*
X18181760Y-8414955D01*
X18025001Y-8394318D01*
X18024999Y-8394318D01*
X17868239Y-8414955D01*
X17868237Y-8414956D01*
X17722160Y-8475463D01*
X17596718Y-8571718D01*
X17500463Y-8697160D01*
X17439956Y-8843237D01*
X17439955Y-8843239D01*
X17419318Y-8999998D01*
X17419318Y-9000000D01*
X17439955Y-9156760D01*
X17439956Y-9156762D01*
X17500465Y-9302843D01*
X17504528Y-9309881D01*
X17502551Y-9311022D01*
X17523489Y-9365193D01*
X17509445Y-9433637D01*
X17460627Y-9483623D01*
X17399918Y-9499500D01*
X13710219Y-9499500D01*
X13710096Y-9499501D01*
X13618252Y-9504658D01*
X13597841Y-9505804D01*
X13597834Y-9505805D01*
X13332700Y-9555971D01*
X13332690Y-9555973D01*
X13077972Y-9645103D01*
X12839393Y-9771196D01*
X12839387Y-9771199D01*
X12622263Y-9931444D01*
X12431444Y-10122263D01*
X12271199Y-10339387D01*
X12271196Y-10339393D01*
X12145103Y-10577972D01*
X12055973Y-10832690D01*
X12055971Y-10832700D01*
X12005805Y-11097833D01*
X12005804Y-11097840D01*
X12005804Y-11097841D01*
X12005804Y-11097843D01*
X11999500Y-11210095D01*
X1500000Y-11210095D01*
X1500000Y-10500000D01*
X649319Y-9649319D01*
X643974Y-9643224D01*
X576924Y-9555842D01*
X560739Y-9527808D01*
X523284Y-9437383D01*
X514906Y-9406116D01*
X500531Y-9296928D01*
X500000Y-9288826D01*
X500000Y-9000000D01*
X958590Y-9000000D01*
X1005233Y-9153766D01*
X1102728Y-9336166D01*
X1102732Y-9336173D01*
X1233944Y-9496055D01*
X1393826Y-9627267D01*
X1393833Y-9627271D01*
X1576233Y-9724766D01*
X1774165Y-9784808D01*
X1928415Y-9800000D01*
X2080000Y-9800000D01*
X2080000Y-9000000D01*
X2580000Y-9000000D01*
X2580000Y-9800000D01*
X2731585Y-9800000D01*
X2885834Y-9784808D01*
X3083766Y-9724766D01*
X3266166Y-9627271D01*
X3266173Y-9627267D01*
X3426055Y-9496055D01*
X3557267Y-9336173D01*
X3557271Y-9336166D01*
X3654766Y-9153766D01*
X3701410Y-9000000D01*
X4428590Y-9000000D01*
X4475233Y-9153766D01*
X4572728Y-9336166D01*
X4572732Y-9336173D01*
X4703944Y-9496055D01*
X4863826Y-9627267D01*
X4863833Y-9627271D01*
X5046233Y-9724766D01*
X5244165Y-9784808D01*
X5398415Y-9800000D01*
X5550000Y-9800000D01*
X5550000Y-9000000D01*
X6050000Y-9000000D01*
X6050000Y-9800000D01*
X6201585Y-9800000D01*
X6355834Y-9784808D01*
X6553766Y-9724766D01*
X6736166Y-9627271D01*
X6736173Y-9627267D01*
X6896055Y-9496055D01*
X7027267Y-9336173D01*
X7027271Y-9336166D01*
X7124766Y-9153766D01*
X7171410Y-9000000D01*
X6174624Y-9000000D01*
X6247545Y-8985495D01*
X6330240Y-8930240D01*
X6385495Y-8847545D01*
X6404898Y-8750000D01*
X6385495Y-8652455D01*
X6330240Y-8569760D01*
X6247545Y-8514505D01*
X6174624Y-8500000D01*
X7171410Y-8500000D01*
X7124766Y-8346233D01*
X7027271Y-8163833D01*
X7027267Y-8163826D01*
X6896055Y-8003944D01*
X6736173Y-7872732D01*
X6736166Y-7872728D01*
X6553766Y-7775233D01*
X6355834Y-7715191D01*
X6201585Y-7700000D01*
X6050000Y-7700000D01*
X6050000Y-8500000D01*
X5550000Y-8500000D01*
X5550000Y-7700000D01*
X5398415Y-7700000D01*
X5244165Y-7715191D01*
X5046233Y-7775233D01*
X4922738Y-7841243D01*
X4877890Y-7850580D01*
X4862143Y-7874109D01*
X4861364Y-7874753D01*
X4703944Y-8003944D01*
X4572732Y-8163826D01*
X4572728Y-8163833D01*
X4475233Y-8346233D01*
X4428590Y-8500000D01*
X5425376Y-8500000D01*
X5352455Y-8514505D01*
X5269760Y-8569760D01*
X5214505Y-8652455D01*
X5195102Y-8750000D01*
X5214505Y-8847545D01*
X5269760Y-8930240D01*
X5352455Y-8985495D01*
X5425376Y-9000000D01*
X4428590Y-9000000D01*
X3701410Y-9000000D01*
X2704624Y-9000000D01*
X2777545Y-8985495D01*
X2860240Y-8930240D01*
X2915495Y-8847545D01*
X2934898Y-8750000D01*
X2915495Y-8652455D01*
X2860240Y-8569760D01*
X2777545Y-8514505D01*
X2704624Y-8500000D01*
X3701410Y-8500000D01*
X3654766Y-8346233D01*
X3557271Y-8163833D01*
X3557267Y-8163826D01*
X3426055Y-8003944D01*
X3266173Y-7872732D01*
X3266166Y-7872728D01*
X3083766Y-7775233D01*
X2885834Y-7715191D01*
X2731585Y-7700000D01*
X2580000Y-7700000D01*
X2580000Y-8500000D01*
X2080000Y-8500000D01*
X2080000Y-7700000D01*
X1928415Y-7700000D01*
X1774165Y-7715191D01*
X1576233Y-7775233D01*
X1393833Y-7872728D01*
X1393826Y-7872732D01*
X1233944Y-8003944D01*
X1102732Y-8163826D01*
X1102728Y-8163833D01*
X1005233Y-8346233D01*
X958590Y-8500000D01*
X1955376Y-8500000D01*
X1882455Y-8514505D01*
X1799760Y-8569760D01*
X1744505Y-8652455D01*
X1725102Y-8750000D01*
X1744505Y-8847545D01*
X1799760Y-8930240D01*
X1882455Y-8985495D01*
X1955376Y-9000000D01*
X958590Y-9000000D01*
X500000Y-9000000D01*
X500000Y-7212921D01*
X3925619Y-7212921D01*
X3956405Y-7361078D01*
X3956407Y-7361083D01*
X3956408Y-7361085D01*
X4026029Y-7495447D01*
X4026031Y-7495449D01*
X4026032Y-7495451D01*
X4129318Y-7606043D01*
X4129320Y-7606044D01*
X4258618Y-7684672D01*
X4404335Y-7725500D01*
X4404336Y-7725500D01*
X4517659Y-7725500D01*
X4545723Y-7721642D01*
X4629920Y-7710070D01*
X4733298Y-7665165D01*
X4767656Y-7660877D01*
X4777390Y-7643424D01*
X4786024Y-7635701D01*
X4886108Y-7554278D01*
X4891383Y-7546806D01*
X4925688Y-7498206D01*
X4973377Y-7430647D01*
X4980255Y-7411293D01*
X5024053Y-7288060D01*
X5024053Y-7288058D01*
X5024054Y-7288056D01*
X5034381Y-7137079D01*
X5018768Y-7061944D01*
X5003594Y-6988921D01*
X5003592Y-6988918D01*
X5003592Y-6988915D01*
X4933971Y-6854553D01*
X4933967Y-6854549D01*
X4933967Y-6854548D01*
X4830681Y-6743956D01*
X4752053Y-6696141D01*
X4701382Y-6665328D01*
X4555665Y-6624500D01*
X4442342Y-6624500D01*
X4442341Y-6624500D01*
X4330082Y-6639929D01*
X4330079Y-6639930D01*
X4191283Y-6700217D01*
X4073889Y-6795724D01*
X3986623Y-6919352D01*
X3986621Y-6919355D01*
X3935946Y-7061939D01*
X3935946Y-7061942D01*
X3925619Y-7212918D01*
X3925619Y-7212921D01*
X500000Y-7212921D01*
X500000Y-4350001D01*
X13394318Y-4350001D01*
X13414955Y-4506760D01*
X13414956Y-4506762D01*
X13475464Y-4652841D01*
X13571718Y-4778282D01*
X13697159Y-4874536D01*
X13843238Y-4935044D01*
X13921619Y-4945363D01*
X13999999Y-4955682D01*
X14000000Y-4955682D01*
X14000001Y-4955682D01*
X14052254Y-4948802D01*
X14156762Y-4935044D01*
X14302841Y-4874536D01*
X14428282Y-4778282D01*
X14524536Y-4652841D01*
X14585044Y-4506762D01*
X14605682Y-4350000D01*
X14596753Y-4282180D01*
X14607518Y-4213145D01*
X14632008Y-4178316D01*
X15498507Y-3311819D01*
X15559830Y-3278334D01*
X15586188Y-3275500D01*
X21463812Y-3275500D01*
X21530851Y-3295185D01*
X21551493Y-3311819D01*
X23867988Y-5628314D01*
X23901473Y-5689637D01*
X23903246Y-5732179D01*
X23894318Y-5799997D01*
X23894318Y-5800001D01*
X23914955Y-5956760D01*
X23914956Y-5956762D01*
X23975464Y-6102841D01*
X24071718Y-6228282D01*
X24197159Y-6324536D01*
X24343238Y-6385044D01*
X24421619Y-6395363D01*
X24499999Y-6405682D01*
X24500000Y-6405682D01*
X24500001Y-6405682D01*
X24552254Y-6398802D01*
X24656762Y-6385044D01*
X24802841Y-6324536D01*
X24928282Y-6228282D01*
X25024536Y-6102841D01*
X25085044Y-5956762D01*
X25105682Y-5800000D01*
X25085044Y-5643238D01*
X25024536Y-5497159D01*
X24928282Y-5371718D01*
X24802841Y-5275464D01*
X24656762Y-5214956D01*
X24656760Y-5214955D01*
X24500001Y-5194318D01*
X24499997Y-5194318D01*
X24432179Y-5203246D01*
X24363144Y-5192480D01*
X24328314Y-5167988D01*
X23207485Y-4047159D01*
X22110327Y-2950001D01*
X30844318Y-2950001D01*
X30864955Y-3106760D01*
X30864956Y-3106762D01*
X30908928Y-3212921D01*
X30925464Y-3252841D01*
X31021718Y-3378282D01*
X31147159Y-3474536D01*
X31293238Y-3535044D01*
X31371619Y-3545363D01*
X31449999Y-3555682D01*
X31450000Y-3555682D01*
X31450001Y-3555682D01*
X31502254Y-3548802D01*
X31606762Y-3535044D01*
X31752841Y-3474536D01*
X31878282Y-3378282D01*
X31919923Y-3324013D01*
X31976351Y-3282811D01*
X32018299Y-3275500D01*
X37821525Y-3275500D01*
X39750500Y-3275500D01*
X39817539Y-3295185D01*
X39863294Y-3347989D01*
X39874500Y-3399500D01*
X39874500Y-4731699D01*
X39854815Y-4798738D01*
X39825988Y-4830074D01*
X39771720Y-4871715D01*
X39675463Y-4997160D01*
X39614956Y-5143237D01*
X39614955Y-5143239D01*
X39594318Y-5299998D01*
X39594318Y-5300001D01*
X39614955Y-5456760D01*
X39614956Y-5456762D01*
X39675464Y-5602841D01*
X39771718Y-5728282D01*
X39897159Y-5824536D01*
X40043238Y-5885044D01*
X40121619Y-5895363D01*
X40199999Y-5905682D01*
X40200000Y-5905682D01*
X40200001Y-5905682D01*
X40252254Y-5898802D01*
X40356762Y-5885044D01*
X40502841Y-5824536D01*
X40628282Y-5728282D01*
X40724536Y-5602841D01*
X40785044Y-5456762D01*
X40805682Y-5300000D01*
X40785044Y-5143238D01*
X40724536Y-4997159D01*
X40628282Y-4871718D01*
X40628280Y-4871716D01*
X40628279Y-4871715D01*
X40574012Y-4830074D01*
X40532810Y-4773646D01*
X40525500Y-4731699D01*
X40525500Y-3186188D01*
X40545185Y-3119149D01*
X40561819Y-3098507D01*
X41111007Y-2549319D01*
X41172330Y-2515834D01*
X41198688Y-2513000D01*
X44631701Y-2513000D01*
X44698740Y-2532685D01*
X44730077Y-2561514D01*
X44763302Y-2604815D01*
X44771718Y-2615782D01*
X44897159Y-2712036D01*
X45043238Y-2772544D01*
X45121619Y-2782863D01*
X45199999Y-2793182D01*
X45200000Y-2793182D01*
X45200001Y-2793182D01*
X45252254Y-2786302D01*
X45356762Y-2772544D01*
X45502841Y-2712036D01*
X45628282Y-2615782D01*
X45724536Y-2490341D01*
X45785044Y-2344262D01*
X45805682Y-2187500D01*
X45805507Y-2186173D01*
X45785044Y-2030739D01*
X45785044Y-2030738D01*
X45724536Y-1884659D01*
X45628282Y-1759218D01*
X45502841Y-1662964D01*
X45356762Y-1602456D01*
X45356760Y-1602455D01*
X45200001Y-1581818D01*
X45199999Y-1581818D01*
X45043239Y-1602455D01*
X45043237Y-1602456D01*
X44897160Y-1662963D01*
X44771716Y-1759219D01*
X44730077Y-1813486D01*
X44673649Y-1854689D01*
X44631701Y-1862000D01*
X41029422Y-1862000D01*
X41024018Y-1861764D01*
X41018607Y-1861290D01*
X40983692Y-1858235D01*
X40983691Y-1858235D01*
X40944591Y-1868712D01*
X40939311Y-1869883D01*
X40899459Y-1876910D01*
X40894461Y-1878729D01*
X40877617Y-1885706D01*
X40872813Y-1887946D01*
X40839666Y-1911156D01*
X40835106Y-1914062D01*
X40800048Y-1934304D01*
X40800045Y-1934306D01*
X40800043Y-1934308D01*
X40800041Y-1934310D01*
X40774024Y-1965315D01*
X40770369Y-1969304D01*
X40151493Y-2588181D01*
X40090170Y-2621666D01*
X40063812Y-2624500D01*
X32018299Y-2624500D01*
X31951260Y-2604815D01*
X31919923Y-2575986D01*
X31878283Y-2521719D01*
X31878282Y-2521718D01*
X31752841Y-2425464D01*
X31606762Y-2364956D01*
X31606760Y-2364955D01*
X31450001Y-2344318D01*
X31449999Y-2344318D01*
X31293239Y-2364955D01*
X31293237Y-2364956D01*
X31147160Y-2425463D01*
X31021718Y-2521718D01*
X30925463Y-2647160D01*
X30864956Y-2793237D01*
X30864955Y-2793239D01*
X30844318Y-2949998D01*
X30844318Y-2950001D01*
X22110327Y-2950001D01*
X21892119Y-2731793D01*
X21888474Y-2727814D01*
X21862456Y-2696807D01*
X21862455Y-2696806D01*
X21838131Y-2682762D01*
X21827392Y-2676561D01*
X21822831Y-2673655D01*
X21809687Y-2664452D01*
X21789684Y-2650446D01*
X21789681Y-2650445D01*
X21784861Y-2648197D01*
X21768055Y-2641235D01*
X21763043Y-2639411D01*
X21723190Y-2632383D01*
X21717910Y-2631212D01*
X21678808Y-2620735D01*
X21643892Y-2623790D01*
X21638481Y-2624264D01*
X21633078Y-2624500D01*
X15416922Y-2624500D01*
X15411518Y-2624264D01*
X15406107Y-2623790D01*
X15371192Y-2620735D01*
X15371191Y-2620735D01*
X15332091Y-2631212D01*
X15326811Y-2632383D01*
X15286959Y-2639410D01*
X15281961Y-2641229D01*
X15265117Y-2648206D01*
X15260313Y-2650446D01*
X15227166Y-2673656D01*
X15222606Y-2676562D01*
X15187548Y-2696804D01*
X15187540Y-2696810D01*
X15161523Y-2727815D01*
X15157869Y-2731804D01*
X14171684Y-3717988D01*
X14110361Y-3751473D01*
X14067818Y-3753246D01*
X14000001Y-3744318D01*
X13999999Y-3744318D01*
X13843239Y-3764955D01*
X13843237Y-3764956D01*
X13697160Y-3825463D01*
X13571718Y-3921718D01*
X13475463Y-4047160D01*
X13414956Y-4193237D01*
X13414955Y-4193239D01*
X13394318Y-4349998D01*
X13394318Y-4350001D01*
X500000Y-4350001D01*
X500000Y-3212921D01*
X3925619Y-3212921D01*
X3956405Y-3361078D01*
X3956407Y-3361083D01*
X3956408Y-3361085D01*
X4026029Y-3495447D01*
X4026031Y-3495449D01*
X4026032Y-3495451D01*
X4129318Y-3606043D01*
X4129320Y-3606044D01*
X4258618Y-3684672D01*
X4404335Y-3725500D01*
X4404336Y-3725500D01*
X4517659Y-3725500D01*
X4545723Y-3721642D01*
X4629920Y-3710070D01*
X4739854Y-3662318D01*
X4768716Y-3649782D01*
X4768716Y-3649781D01*
X4768720Y-3649780D01*
X4886108Y-3554278D01*
X4973377Y-3430647D01*
X4991988Y-3378280D01*
X5024053Y-3288060D01*
X5024053Y-3288058D01*
X5024054Y-3288056D01*
X5034381Y-3137079D01*
X5018768Y-3061944D01*
X5003594Y-2988921D01*
X5003592Y-2988918D01*
X5003592Y-2988915D01*
X4933971Y-2854553D01*
X4933967Y-2854549D01*
X4933967Y-2854548D01*
X4830681Y-2743956D01*
X4784243Y-2715717D01*
X4754223Y-2682762D01*
X4727410Y-2679638D01*
X4711457Y-2671454D01*
X4701386Y-2665330D01*
X4701384Y-2665329D01*
X4701383Y-2665328D01*
X4701382Y-2665328D01*
X4555665Y-2624500D01*
X4442342Y-2624500D01*
X4442341Y-2624500D01*
X4330082Y-2639929D01*
X4330079Y-2639930D01*
X4191283Y-2700217D01*
X4073889Y-2795724D01*
X3986623Y-2919352D01*
X3986621Y-2919355D01*
X3935946Y-3061939D01*
X3935946Y-3061942D01*
X3925619Y-3212918D01*
X3925619Y-3212921D01*
X500000Y-3212921D01*
X500000Y-1004066D01*
X500531Y-995964D01*
X514906Y-886776D01*
X523284Y-855508D01*
X560740Y-765081D01*
X576923Y-737050D01*
X636513Y-659392D01*
X659392Y-636513D01*
X737050Y-576923D01*
X765079Y-560740D01*
X855509Y-523283D01*
X886775Y-514906D01*
X995967Y-500530D01*
X1004067Y-500000D01*
X1318671Y-500000D01*
X1385710Y-519685D01*
G37*
%TD.AperFunction*%
%TD*%
M02*
