M48
; DRILL file {KiCad 7.0.10} date Fri Jan 26 14:36:36 2024
; FORMAT={-:-/ absolute / metric / decimal}
; #@! TF.CreationDate,2024-01-26T14:36:36+11:00
; #@! TF.GenerationSoftware,Kicad,Pcbnew,7.0.10
; #@! TF.FileFunction,Plated,1,2,PTH
FMAT,2
METRIC
; #@! TA.AperFunction,Plated,PTH,ViaDrill
T1C0.400
; #@! TA.AperFunction,Plated,PTH,ComponentDrill
T2C0.550
; #@! TA.AperFunction,Plated,PTH,ViaDrill
T3C0.600
; #@! TA.AperFunction,Plated,PTH,ComponentDrill
T4C0.600
%
G90
G05
T1
X2.5Y-42.0
X4.5Y-13.5
X5.0Y-22.0
X5.0Y-32.5
X9.55Y-9.6
X11.0Y-5.2
X14.0Y-4.35
X16.4Y-9.1
X16.8Y-3.0
X17.9Y-3.0
X17.9Y-6.15
X18.075Y-9.25
X19.0Y-3.55
X19.0Y-6.15
X19.925Y-8.6
X20.0Y-40.5
X20.05Y-3.0
X20.05Y-6.15
X23.1Y-3.8
X23.25Y-7.5
X23.25Y-8.9
X24.1Y-5.7
X25.2Y-5.7
X28.5Y-8.75
X30.95Y-8.75
X33.0Y-8.25
X34.6Y-3.7
X34.6Y-5.8
X35.9Y-4.8
X35.9Y-5.8
X35.9Y-6.8
X35.9Y-8.1
X36.0Y-40.5
X37.3Y-8.1
X41.5Y-5.0
X42.2Y-2.8
X42.9Y-3.95
X42.9Y-5.0
X42.9Y-6.05
X42.9Y-7.2
X43.6Y-2.8
X44.1Y-7.2
X48.4Y-9.3
X49.0Y-5.8
X51.0Y-15.0
X51.0Y-22.0
X51.0Y-30.0
X51.0Y-42.0
X52.9Y-8.65
X53.25Y-5.65
T3
X30.1Y-10.1
T2
G00X3.025Y-1.625
M15
G01X2.375Y-1.625
M16
G05
G00X2.375Y-8.675
M15
G01X3.025Y-8.675
M16
G05
T4
G00X5.4Y-2.5
M15
G01X5.4Y-2.8
M16
G05
G00X5.4Y-7.5
M15
G01X5.4Y-7.8
M16
G05
M30
