%TF.GenerationSoftware,KiCad,Pcbnew,8.0.5*%
%TF.CreationDate,2024-09-24T14:58:59+10:00*%
%TF.ProjectId,cphp82001-pcb,63706870-3832-4303-9031-2d7063622e6b,4.0*%
%TF.SameCoordinates,Original*%
%TF.FileFunction,Copper,L1,Top*%
%TF.FilePolarity,Positive*%
%FSLAX46Y46*%
G04 Gerber Fmt 4.6, Leading zero omitted, Abs format (unit mm)*
G04 Created by KiCad (PCBNEW 8.0.5) date 2024-09-24 14:58:59*
%MOMM*%
%LPD*%
G01*
G04 APERTURE LIST*
G04 Aperture macros list*
%AMRoundRect*
0 Rectangle with rounded corners*
0 $1 Rounding radius*
0 $2 $3 $4 $5 $6 $7 $8 $9 X,Y pos of 4 corners*
0 Add a 4 corners polygon primitive as box body*
4,1,4,$2,$3,$4,$5,$6,$7,$8,$9,$2,$3,0*
0 Add four circle primitives for the rounded corners*
1,1,$1+$1,$2,$3*
1,1,$1+$1,$4,$5*
1,1,$1+$1,$6,$7*
1,1,$1+$1,$8,$9*
0 Add four rect primitives between the rounded corners*
20,1,$1+$1,$2,$3,$4,$5,0*
20,1,$1+$1,$4,$5,$6,$7,0*
20,1,$1+$1,$6,$7,$8,$9,0*
20,1,$1+$1,$8,$9,$2,$3,0*%
G04 Aperture macros list end*
%TA.AperFunction,SMDPad,CuDef*%
%ADD10RoundRect,0.150000X-0.587500X-0.150000X0.587500X-0.150000X0.587500X0.150000X-0.587500X0.150000X0*%
%TD*%
%TA.AperFunction,SMDPad,CuDef*%
%ADD11RoundRect,0.050000X-0.500000X-0.250000X0.500000X-0.250000X0.500000X0.250000X-0.500000X0.250000X0*%
%TD*%
%TA.AperFunction,SMDPad,CuDef*%
%ADD12RoundRect,0.250000X-0.650000X1.000000X-0.650000X-1.000000X0.650000X-1.000000X0.650000X1.000000X0*%
%TD*%
%TA.AperFunction,SMDPad,CuDef*%
%ADD13RoundRect,0.250000X-0.250000X-0.475000X0.250000X-0.475000X0.250000X0.475000X-0.250000X0.475000X0*%
%TD*%
%TA.AperFunction,SMDPad,CuDef*%
%ADD14RoundRect,0.243750X0.243750X0.456250X-0.243750X0.456250X-0.243750X-0.456250X0.243750X-0.456250X0*%
%TD*%
%TA.AperFunction,SMDPad,CuDef*%
%ADD15RoundRect,0.250000X-0.475000X0.250000X-0.475000X-0.250000X0.475000X-0.250000X0.475000X0.250000X0*%
%TD*%
%TA.AperFunction,SMDPad,CuDef*%
%ADD16RoundRect,0.050000X0.250000X-0.500000X0.250000X0.500000X-0.250000X0.500000X-0.250000X-0.500000X0*%
%TD*%
%TA.AperFunction,SMDPad,CuDef*%
%ADD17R,1.350000X0.400000*%
%TD*%
%TA.AperFunction,ComponentPad*%
%ADD18O,0.800000X1.600000*%
%TD*%
%TA.AperFunction,ComponentPad*%
%ADD19O,1.550000X0.750000*%
%TD*%
%TA.AperFunction,SMDPad,CuDef*%
%ADD20R,1.550000X1.300000*%
%TD*%
%TA.AperFunction,SMDPad,CuDef*%
%ADD21R,1.550000X1.500000*%
%TD*%
%TA.AperFunction,SMDPad,CuDef*%
%ADD22RoundRect,0.250000X0.450000X-0.262500X0.450000X0.262500X-0.450000X0.262500X-0.450000X-0.262500X0*%
%TD*%
%TA.AperFunction,SMDPad,CuDef*%
%ADD23RoundRect,0.250000X-0.262500X-0.450000X0.262500X-0.450000X0.262500X0.450000X-0.262500X0.450000X0*%
%TD*%
%TA.AperFunction,SMDPad,CuDef*%
%ADD24RoundRect,0.150000X-0.512500X-0.150000X0.512500X-0.150000X0.512500X0.150000X-0.512500X0.150000X0*%
%TD*%
%TA.AperFunction,SMDPad,CuDef*%
%ADD25RoundRect,0.250000X0.250000X0.475000X-0.250000X0.475000X-0.250000X-0.475000X0.250000X-0.475000X0*%
%TD*%
%TA.AperFunction,SMDPad,CuDef*%
%ADD26RoundRect,0.200000X0.200000X0.275000X-0.200000X0.275000X-0.200000X-0.275000X0.200000X-0.275000X0*%
%TD*%
%TA.AperFunction,SMDPad,CuDef*%
%ADD27RoundRect,0.050000X0.500000X0.250000X-0.500000X0.250000X-0.500000X-0.250000X0.500000X-0.250000X0*%
%TD*%
%TA.AperFunction,SMDPad,CuDef*%
%ADD28RoundRect,0.150000X0.512500X0.150000X-0.512500X0.150000X-0.512500X-0.150000X0.512500X-0.150000X0*%
%TD*%
%TA.AperFunction,SMDPad,CuDef*%
%ADD29RoundRect,0.250000X0.262500X0.450000X-0.262500X0.450000X-0.262500X-0.450000X0.262500X-0.450000X0*%
%TD*%
%TA.AperFunction,SMDPad,CuDef*%
%ADD30RoundRect,0.250000X-0.850000X0.350000X-0.850000X-0.350000X0.850000X-0.350000X0.850000X0.350000X0*%
%TD*%
%TA.AperFunction,SMDPad,CuDef*%
%ADD31RoundRect,0.150000X-0.625000X0.150000X-0.625000X-0.150000X0.625000X-0.150000X0.625000X0.150000X0*%
%TD*%
%TA.AperFunction,SMDPad,CuDef*%
%ADD32RoundRect,0.225000X0.225000X0.375000X-0.225000X0.375000X-0.225000X-0.375000X0.225000X-0.375000X0*%
%TD*%
%TA.AperFunction,SMDPad,CuDef*%
%ADD33RoundRect,0.250000X-0.450000X0.262500X-0.450000X-0.262500X0.450000X-0.262500X0.450000X0.262500X0*%
%TD*%
%TA.AperFunction,ViaPad*%
%ADD34C,0.800000*%
%TD*%
%TA.AperFunction,ViaPad*%
%ADD35C,1.200000*%
%TD*%
%TA.AperFunction,Conductor*%
%ADD36C,0.600000*%
%TD*%
%TA.AperFunction,Conductor*%
%ADD37C,0.250000*%
%TD*%
%TA.AperFunction,Conductor*%
%ADD38C,0.400000*%
%TD*%
%TA.AperFunction,Conductor*%
%ADD39C,0.800000*%
%TD*%
G04 APERTURE END LIST*
D10*
%TO.P,Q2,1,G*%
%TO.N,/PASSG*%
X33687500Y-1950000D03*
%TO.P,Q2,2,S*%
%TO.N,/VOUT*%
X33687500Y-3850000D03*
%TO.P,Q2,3,D*%
%TO.N,/VCC*%
X35562500Y-2900000D03*
%TD*%
D11*
%TO.P,U7,1,OUT*%
%TO.N,/VOUTF*%
X29225000Y-6400000D03*
%TO.P,U7,2,GND*%
%TO.N,/GND*%
X29225000Y-7350000D03*
%TO.P,U7,3,~{OC}*%
%TO.N,Net-(U7-~{OC})*%
X29225000Y-8300000D03*
%TO.P,U7,4,EN*%
%TO.N,/VOUT*%
X31825000Y-8300000D03*
%TO.P,U7,5,IN*%
X31825000Y-6400000D03*
%TD*%
D12*
%TO.P,D2,1,K*%
%TO.N,/VOUTF*%
X24800000Y-3600000D03*
%TO.P,D2,2,A*%
%TO.N,/GND*%
X24800000Y-7600000D03*
%TD*%
D13*
%TO.P,C5,1*%
%TO.N,/B+*%
X46600000Y-5900000D03*
%TO.P,C5,2*%
%TO.N,/GND*%
X48500000Y-5900000D03*
%TD*%
D14*
%TO.P,D3,1,K*%
%TO.N,/CHG*%
X16337500Y-7950000D03*
%TO.P,D3,2,A*%
%TO.N,/LCHG*%
X14462500Y-7950000D03*
%TD*%
D11*
%TO.P,U6,1,IN*%
%TO.N,/VBUS1*%
X7625000Y-4250000D03*
%TO.P,U6,2,GND*%
%TO.N,/GND*%
X7625000Y-5200000D03*
%TO.P,U6,3,~{EN}*%
X7625000Y-6150000D03*
%TO.P,U6,4,~{FLAG}*%
%TO.N,unconnected-(U6-~{FLAG}-Pad4)*%
X10225000Y-6150000D03*
%TO.P,U6,5,OUT*%
%TO.N,/VBUS*%
X10225000Y-4250000D03*
%TD*%
D15*
%TO.P,C7,1*%
%TO.N,/VOUTF*%
X27500000Y-2850000D03*
%TO.P,C7,2*%
%TO.N,/GND*%
X27500000Y-4750000D03*
%TD*%
D13*
%TO.P,C6,1*%
%TO.N,/VBUS1*%
X7600000Y-7950000D03*
%TO.P,C6,2*%
%TO.N,/GND*%
X9500000Y-7950000D03*
%TD*%
D16*
%TO.P,U1,1,TS*%
%TO.N,/TS*%
X18025000Y-7500000D03*
%TO.P,U1,2,VOUT*%
%TO.N,/B+*%
X18975000Y-7500000D03*
%TO.P,U1,3,~{CHG}*%
%TO.N,/CHG*%
X19925000Y-7500000D03*
%TO.P,U1,4,ISET*%
%TO.N,/PROG*%
X19925000Y-4900000D03*
%TO.P,U1,5,GND*%
%TO.N,/GND*%
X18975000Y-4900000D03*
%TO.P,U1,6,VIN*%
%TO.N,/VCC*%
X18025000Y-4900000D03*
%TD*%
D17*
%TO.P,J1,1,1*%
%TO.N,/VBUS1*%
X5375000Y-3850000D03*
%TO.P,J1,2,2*%
%TO.N,unconnected-(J1-Pad2)*%
X5375000Y-4500000D03*
%TO.P,J1,3,3*%
%TO.N,unconnected-(J1-Pad3)*%
X5375000Y-5150000D03*
%TO.P,J1,4,4*%
%TO.N,unconnected-(J1-Pad4)*%
X5375000Y-5800000D03*
%TO.P,J1,5,5*%
%TO.N,/GND*%
X5375000Y-6450000D03*
D18*
%TO.P,J1,S1,SHIELD*%
X5400000Y-2650000D03*
%TO.P,J1,S2,SHIELD__1*%
X5400000Y-7650000D03*
D19*
%TO.P,J1,S3,SHIELD__2*%
X2700000Y-1625000D03*
D20*
X2700000Y-2250000D03*
D21*
%TO.P,J1,S4,SHIELD__3*%
X2700000Y-4150000D03*
%TO.P,J1,S5,SHIELD__4*%
X2700000Y-6150000D03*
D20*
%TO.P,J1,S6,SHIELD__5*%
X2700000Y-8050000D03*
D19*
X2700000Y-8675000D03*
%TD*%
D22*
%TO.P,R1,1*%
%TO.N,/PROG2*%
X21900000Y-4725000D03*
%TO.P,R1,2*%
%TO.N,/PROG*%
X21900000Y-2900000D03*
%TD*%
%TO.P,R8,1*%
%TO.N,/GND*%
X21900000Y-8212500D03*
%TO.P,R8,2*%
%TO.N,/PROG2*%
X21900000Y-6387500D03*
%TD*%
D23*
%TO.P,R13,1*%
%TO.N,/GND*%
X46687500Y-8000000D03*
%TO.P,R13,2*%
%TO.N,/TS*%
X48512500Y-8000000D03*
%TD*%
D24*
%TO.P,U5,1,GND*%
%TO.N,/GND*%
X46062500Y-1950000D03*
%TO.P,U5,2,~{RESET}*%
%TO.N,/EN*%
X46062500Y-3850000D03*
%TO.P,U5,3,VCC*%
%TO.N,/B+*%
X48337500Y-2900000D03*
%TD*%
D25*
%TO.P,C3,1*%
%TO.N,/VREG*%
X41850000Y-8050000D03*
%TO.P,C3,2*%
%TO.N,/GND*%
X39950000Y-8050000D03*
%TD*%
D26*
%TO.P,JP1,1,A*%
%TO.N,/B+*%
X45125000Y-7600000D03*
%TO.P,JP1,2,B*%
%TO.N,/VREG*%
X43475000Y-7600000D03*
%TD*%
D10*
%TO.P,Q1,1,G*%
%TO.N,/VBUS*%
X12025000Y-4250000D03*
%TO.P,Q1,2,S*%
%TO.N,/GND*%
X12025000Y-6150000D03*
%TO.P,Q1,3,D*%
%TO.N,/PROG2*%
X13900000Y-5200000D03*
%TD*%
D26*
%TO.P,JP2,1,A*%
%TO.N,/VOUT*%
X31350000Y-5400000D03*
%TO.P,JP2,2,B*%
%TO.N,/VOUTF*%
X29700000Y-5400000D03*
%TD*%
D27*
%TO.P,U3,1,VDD*%
%TO.N,/VREG*%
X38000000Y-7300000D03*
%TO.P,U3,2,GND*%
%TO.N,/GND*%
X38000000Y-6350000D03*
%TO.P,U3,3,EN*%
%TO.N,/EN*%
X38000000Y-5400000D03*
%TO.P,U3,4,NC*%
%TO.N,unconnected-(U3-NC-Pad4)*%
X35400000Y-5400000D03*
%TO.P,U3,5,OUT*%
%TO.N,/VOUT*%
X35400000Y-7300000D03*
%TD*%
D28*
%TO.P,U4,1,GND*%
%TO.N,/GND*%
X31700000Y-3850000D03*
%TO.P,U4,2,RESET*%
%TO.N,/PASSG*%
X31700000Y-1950000D03*
%TO.P,U4,3,VCC*%
%TO.N,/VOUTF*%
X29425000Y-2900000D03*
%TD*%
D15*
%TO.P,C4,1*%
%TO.N,/VOUT*%
X33625000Y-6300000D03*
%TO.P,C4,2*%
%TO.N,/GND*%
X33625000Y-8200000D03*
%TD*%
D29*
%TO.P,R2,1*%
%TO.N,/LCHG*%
X12912500Y-7950000D03*
%TO.P,R2,2*%
%TO.N,/VCC*%
X11087500Y-7950000D03*
%TD*%
D23*
%TO.P,R5,1*%
%TO.N,/ADJ*%
X41487500Y-2200000D03*
%TO.P,R5,2*%
%TO.N,/GND*%
X43312500Y-2200000D03*
%TD*%
D30*
%TO.P,BT1,1,Pin_1*%
%TO.N,/B+*%
X53200000Y-2500000D03*
D31*
X50675000Y-3800000D03*
%TO.P,BT1,2,Pin_2*%
%TO.N,/TS*%
X50675000Y-4800000D03*
%TO.P,BT1,3,Pin_3*%
%TO.N,/GND*%
X50675000Y-5800000D03*
D30*
X53200000Y-7100000D03*
%TD*%
D22*
%TO.P,R4,1*%
%TO.N,/VREG*%
X39812500Y-5925000D03*
%TO.P,R4,2*%
%TO.N,/ADJ*%
X39812500Y-4100000D03*
%TD*%
D27*
%TO.P,U2,1,IN*%
%TO.N,/B+*%
X44200000Y-5950000D03*
%TO.P,U2,2,GND*%
%TO.N,/GND*%
X44200000Y-5000000D03*
%TO.P,U2,3,EN*%
%TO.N,/EN*%
X44200000Y-4050000D03*
%TO.P,U2,4,ADJ*%
%TO.N,/ADJ*%
X41600000Y-4050000D03*
%TO.P,U2,5,OUT*%
%TO.N,/VREG*%
X41600000Y-5950000D03*
%TD*%
D23*
%TO.P,R9,1*%
%TO.N,/GND*%
X8450000Y-2250000D03*
%TO.P,R9,2*%
%TO.N,/VBUS*%
X10275000Y-2250000D03*
%TD*%
D32*
%TO.P,D1,1,K*%
%TO.N,/VCC*%
X15400000Y-2250000D03*
%TO.P,D1,2,A*%
%TO.N,/VBUS*%
X12100000Y-2250000D03*
%TD*%
D33*
%TO.P,R3,1*%
%TO.N,/GND*%
X27500000Y-6375000D03*
%TO.P,R3,2*%
%TO.N,Net-(U7-~{OC})*%
X27500000Y-8200000D03*
%TD*%
D15*
%TO.P,C1,1*%
%TO.N,/VCC*%
X16125000Y-4300000D03*
%TO.P,C1,2*%
%TO.N,/GND*%
X16125000Y-6200000D03*
%TD*%
D34*
%TO.N,/GND*%
X5000000Y-32500000D03*
X5000000Y-22000000D03*
X17900000Y-6150000D03*
X50100000Y-6900000D03*
X19000000Y-6150000D03*
X43000000Y-4000000D03*
X2500000Y-42000000D03*
X5000000Y-13500000D03*
X43000000Y-6000000D03*
X19100000Y-3550000D03*
X30600000Y-3900000D03*
X36700000Y-5300000D03*
X51000000Y-15000000D03*
X16800000Y-2900000D03*
X9550000Y-9600000D03*
X51000000Y-42000000D03*
X20200000Y-2900000D03*
X43000000Y-5000000D03*
X23250000Y-7500000D03*
X36000000Y-40500000D03*
X45200000Y-5000000D03*
X36700000Y-6200000D03*
X20000000Y-40500000D03*
X50150000Y-2550000D03*
X51000000Y-22000000D03*
X11000000Y-5200000D03*
X51000000Y-30000000D03*
X36700000Y-7200000D03*
X17900000Y-2900000D03*
X47400000Y-9400000D03*
X20050000Y-6150000D03*
X23250000Y-8900000D03*
%TO.N,/CHG*%
X19925000Y-8600000D03*
X16400000Y-9100000D03*
%TO.N,/EN*%
X37800000Y-3900000D03*
X44600000Y-2900000D03*
%TO.N,/PROG2*%
X14000000Y-4350000D03*
X23100000Y-3800000D03*
%TO.N,/TS*%
X50100000Y-8100000D03*
X18075000Y-9250000D03*
D35*
%TO.N,/VOUTF*%
X30000000Y-10200000D03*
%TD*%
D36*
%TO.N,/B+*%
X44200000Y-5950000D02*
X45300000Y-5950000D01*
X18975000Y-10425000D02*
X20750000Y-12200000D01*
X43700000Y-12200000D02*
X45250000Y-10650000D01*
X48350000Y-3800000D02*
X48350000Y-2912500D01*
X50675000Y-3800000D02*
X48350000Y-3800000D01*
X20750000Y-12200000D02*
X43700000Y-12200000D01*
X48350000Y-3800000D02*
X48200000Y-3800000D01*
X52900000Y-2500000D02*
X53200000Y-2500000D01*
X50675000Y-3800000D02*
X51600000Y-3800000D01*
X51600000Y-3800000D02*
X52900000Y-2500000D01*
X45250000Y-10650000D02*
X45250000Y-6000000D01*
X48200000Y-3800000D02*
X46600000Y-5400000D01*
X46550000Y-5950000D02*
X46600000Y-5900000D01*
X48350000Y-2912500D02*
X48337500Y-2900000D01*
X46600000Y-5400000D02*
X46600000Y-5900000D01*
X45250000Y-6000000D02*
X45300000Y-5950000D01*
X45300000Y-5950000D02*
X46550000Y-5950000D01*
X18975000Y-7500000D02*
X18975000Y-10425000D01*
%TO.N,/VCC*%
X35562500Y-2900000D02*
X31064106Y-2900000D01*
D37*
X14575000Y-6925000D02*
X11975000Y-6925000D01*
X15900000Y-4300000D02*
X15075000Y-5125000D01*
X15075000Y-5125000D02*
X15075000Y-6425000D01*
D36*
X31064106Y-2900000D02*
X29964106Y-1800000D01*
X15850000Y-1800000D02*
X15400000Y-2250000D01*
X29964106Y-1800000D02*
X15850000Y-1800000D01*
D37*
X11975000Y-6925000D02*
X11087500Y-7812500D01*
X15075000Y-6425000D02*
X14575000Y-6925000D01*
D38*
%TO.N,/GND*%
X5375000Y-6450000D02*
X6400000Y-6450000D01*
X6700000Y-6150000D02*
X7625000Y-6150000D01*
D37*
X5400000Y-7650000D02*
X5400000Y-8900000D01*
X2700000Y-8675000D02*
X2700000Y-8050000D01*
X2700000Y-1625000D02*
X2700000Y-2250000D01*
D36*
X39950000Y-7800000D02*
X39950000Y-9650000D01*
X39950000Y-9650000D02*
X39900000Y-9700000D01*
D38*
X6400000Y-6450000D02*
X6700000Y-6150000D01*
D37*
X5400000Y-2650000D02*
X5400000Y-1150000D01*
D36*
%TO.N,/VREG*%
X43475000Y-7600000D02*
X42050000Y-7600000D01*
X42050000Y-7600000D02*
X41850000Y-7800000D01*
D37*
%TO.N,/CHG*%
X19925000Y-8600000D02*
X19925000Y-7500000D01*
X16400000Y-9100000D02*
X16400000Y-8012500D01*
D38*
%TO.N,/LCHG*%
X12912500Y-7950000D02*
X14462500Y-7950000D01*
D37*
%TO.N,/PROG*%
X19925000Y-4775000D02*
X21800000Y-2900000D01*
%TO.N,/EN*%
X44200000Y-4050000D02*
X44950000Y-4050000D01*
X44200000Y-4050000D02*
X44200000Y-3300000D01*
X44950000Y-4050000D02*
X45150000Y-3850000D01*
X45150000Y-3850000D02*
X46062500Y-3850000D01*
X44200000Y-3300000D02*
X44600000Y-2900000D01*
X37800000Y-3900000D02*
X37800000Y-5375000D01*
%TO.N,/ADJ*%
X41600000Y-4050000D02*
X41600000Y-2312500D01*
X41600000Y-4050000D02*
X39862500Y-4050000D01*
D38*
%TO.N,/PROG2*%
X21900000Y-6387500D02*
X21900000Y-4725000D01*
D37*
X23050000Y-3800000D02*
X22125000Y-4725000D01*
X14000000Y-5200000D02*
X14000000Y-4350000D01*
X23100000Y-3800000D02*
X23050000Y-3800000D01*
%TO.N,/TS*%
X50100000Y-8100000D02*
X51200000Y-8100000D01*
X18075000Y-9250000D02*
X18025000Y-9200000D01*
X51200000Y-8100000D02*
X51775000Y-7525000D01*
X51775000Y-7525000D02*
X51775000Y-5449092D01*
X18025000Y-9200000D02*
X18025000Y-7500000D01*
X48512500Y-8100000D02*
X51200000Y-8100000D01*
X51775000Y-5449092D02*
X51125908Y-4800000D01*
D38*
%TO.N,/VBUS1*%
X8700000Y-6700000D02*
X7600000Y-7800000D01*
X8700000Y-4600000D02*
X8700000Y-6700000D01*
X6750000Y-4250000D02*
X8350000Y-4250000D01*
X8350000Y-4250000D02*
X8700000Y-4600000D01*
X6350000Y-3850000D02*
X6750000Y-4250000D01*
X5375000Y-3850000D02*
X6350000Y-3850000D01*
D39*
%TO.N,/VOUTF*%
X30375000Y-9825000D02*
X30375000Y-6829376D01*
X30000000Y-10200000D02*
X30375000Y-9825000D01*
X29945624Y-6400000D02*
X29225000Y-6400000D01*
X30375000Y-6829376D02*
X29945624Y-6400000D01*
D37*
%TO.N,/PASSG*%
X31700000Y-1950000D02*
X33687500Y-1950000D01*
%TO.N,Net-(U7-~{OC})*%
X29225000Y-8300000D02*
X27600000Y-8300000D01*
%TD*%
%TA.AperFunction,Conductor*%
%TO.N,/VCC*%
G36*
X15861980Y-1502383D02*
G01*
X15921480Y-1514218D01*
X15966175Y-1532730D01*
X16006272Y-1559522D01*
X16040477Y-1593727D01*
X16067267Y-1633822D01*
X16085781Y-1678517D01*
X16089542Y-1697427D01*
X16097617Y-1738019D01*
X16100000Y-1762210D01*
X16100000Y-3600000D01*
X18237789Y-3600000D01*
X18261980Y-3602383D01*
X18321480Y-3614218D01*
X18366175Y-3632730D01*
X18406272Y-3659522D01*
X18440477Y-3693727D01*
X18467267Y-3733822D01*
X18485781Y-3778517D01*
X18497617Y-3838022D01*
X18500000Y-3862210D01*
X18500000Y-4251119D01*
X18490563Y-4298568D01*
X18489033Y-4302261D01*
X18474500Y-4375323D01*
X18474500Y-5317740D01*
X18454815Y-5384779D01*
X18453601Y-5386632D01*
X18440479Y-5406270D01*
X18406269Y-5440479D01*
X18371975Y-5463394D01*
X18366179Y-5467267D01*
X18321482Y-5485781D01*
X18287857Y-5492469D01*
X18261978Y-5497617D01*
X18237789Y-5500000D01*
X16665398Y-5500000D01*
X16657162Y-5499614D01*
X16657162Y-5499635D01*
X16654277Y-5499500D01*
X16654266Y-5499500D01*
X15595734Y-5499500D01*
X15595723Y-5499500D01*
X15592838Y-5499635D01*
X15592837Y-5499614D01*
X15584602Y-5500000D01*
X14962000Y-5500000D01*
X14894961Y-5480315D01*
X14849206Y-5427511D01*
X14838000Y-5376000D01*
X14838000Y-5016739D01*
X14828073Y-4948608D01*
X14828073Y-4948607D01*
X14776698Y-4843517D01*
X14776696Y-4843515D01*
X14776696Y-4843514D01*
X14693983Y-4760801D01*
X14669539Y-4748851D01*
X14617957Y-4701723D01*
X14600000Y-4637451D01*
X14600000Y-4401285D01*
X14601061Y-4385099D01*
X14605682Y-4349999D01*
X14605682Y-4349998D01*
X14601061Y-4314899D01*
X14600000Y-4298714D01*
X14600000Y-1762210D01*
X14602383Y-1738019D01*
X14614218Y-1678517D01*
X14632729Y-1633826D01*
X14659524Y-1593724D01*
X14693724Y-1559524D01*
X14733826Y-1532729D01*
X14778514Y-1514219D01*
X14838028Y-1502381D01*
X14862211Y-1500000D01*
X15837789Y-1500000D01*
X15861980Y-1502383D01*
G37*
%TD.AperFunction*%
%TD*%
%TA.AperFunction,Conductor*%
%TO.N,/VBUS*%
G36*
X12315677Y-1519685D02*
G01*
X12336319Y-1536319D01*
X12763681Y-1963681D01*
X12797166Y-2025004D01*
X12800000Y-2051362D01*
X12800000Y-4426000D01*
X12780315Y-4493039D01*
X12727511Y-4538794D01*
X12676000Y-4550000D01*
X9824000Y-4550000D01*
X9756961Y-4530315D01*
X9711206Y-4477511D01*
X9700000Y-4426000D01*
X9700000Y-1624000D01*
X9719685Y-1556961D01*
X9772489Y-1511206D01*
X9824000Y-1500000D01*
X12248638Y-1500000D01*
X12315677Y-1519685D01*
G37*
%TD.AperFunction*%
%TD*%
%TA.AperFunction,Conductor*%
%TO.N,/VREG*%
G36*
X42111980Y-5202383D02*
G01*
X42171480Y-5214218D01*
X42216175Y-5232730D01*
X42256272Y-5259522D01*
X42290477Y-5293727D01*
X42317267Y-5333822D01*
X42335781Y-5378517D01*
X42339542Y-5397427D01*
X42347617Y-5438019D01*
X42350000Y-5462210D01*
X42350000Y-8737789D01*
X42347617Y-8761982D01*
X42335781Y-8821482D01*
X42317267Y-8866179D01*
X42290481Y-8906268D01*
X42256269Y-8940479D01*
X42221975Y-8963394D01*
X42216179Y-8967267D01*
X42171482Y-8985781D01*
X42137857Y-8992469D01*
X42111978Y-8997617D01*
X42087789Y-9000000D01*
X40654972Y-9000000D01*
X40587933Y-8980315D01*
X40542178Y-8927511D01*
X40532234Y-8858353D01*
X40555201Y-8802367D01*
X40602793Y-8737882D01*
X40625219Y-8673790D01*
X40647646Y-8609701D01*
X40647646Y-8609699D01*
X40650500Y-8579269D01*
X40650500Y-7520730D01*
X40647646Y-7490300D01*
X40647646Y-7490298D01*
X40602793Y-7362119D01*
X40602792Y-7362117D01*
X40584837Y-7337789D01*
X40522150Y-7252850D01*
X40412882Y-7172207D01*
X40412880Y-7172206D01*
X40284700Y-7127353D01*
X40254270Y-7124500D01*
X40254266Y-7124500D01*
X39645734Y-7124500D01*
X39645730Y-7124500D01*
X39615300Y-7127353D01*
X39615298Y-7127353D01*
X39487119Y-7172206D01*
X39487117Y-7172207D01*
X39377850Y-7252850D01*
X39297207Y-7362117D01*
X39297206Y-7362119D01*
X39252353Y-7490298D01*
X39250744Y-7497670D01*
X39248761Y-7497236D01*
X39226753Y-7552484D01*
X39169909Y-7593110D01*
X39129151Y-7600000D01*
X37712211Y-7600000D01*
X37688020Y-7597617D01*
X37673189Y-7594667D01*
X37628518Y-7585781D01*
X37583822Y-7567267D01*
X37543727Y-7540477D01*
X37509522Y-7506272D01*
X37482730Y-7466175D01*
X37464218Y-7421480D01*
X37452383Y-7361980D01*
X37450000Y-7337789D01*
X37450000Y-7262210D01*
X37452383Y-7238019D01*
X37464218Y-7178519D01*
X37482729Y-7133826D01*
X37509524Y-7093724D01*
X37543724Y-7059524D01*
X37583826Y-7032729D01*
X37628514Y-7014219D01*
X37688028Y-7002381D01*
X37712211Y-7000000D01*
X38446449Y-7000000D01*
X38550000Y-7000000D01*
X38900000Y-6650000D01*
X38900000Y-5462210D01*
X38902383Y-5438019D01*
X38914218Y-5378517D01*
X38932729Y-5333826D01*
X38959524Y-5293724D01*
X38993724Y-5259524D01*
X39033826Y-5232729D01*
X39078514Y-5214219D01*
X39138028Y-5202381D01*
X39162211Y-5200000D01*
X42087789Y-5200000D01*
X42111980Y-5202383D01*
G37*
%TD.AperFunction*%
%TD*%
%TA.AperFunction,Conductor*%
%TO.N,/VOUT*%
G36*
X34562354Y-3420185D02*
G01*
X34598415Y-3455607D01*
X34617267Y-3483822D01*
X34635781Y-3528517D01*
X34639542Y-3547427D01*
X34647617Y-3588019D01*
X34650000Y-3612210D01*
X34650000Y-5114158D01*
X34649500Y-5124336D01*
X34649500Y-5674678D01*
X34650000Y-5677191D01*
X34650000Y-5900000D01*
X34872812Y-5900000D01*
X34875321Y-5900499D01*
X34875324Y-5900500D01*
X35690303Y-5900500D01*
X35714493Y-5902882D01*
X35771480Y-5914218D01*
X35816175Y-5932730D01*
X35856272Y-5959522D01*
X35890477Y-5993727D01*
X35917267Y-6033822D01*
X35935781Y-6078517D01*
X35947617Y-6138022D01*
X35950000Y-6162210D01*
X35950000Y-7337789D01*
X35947617Y-7361982D01*
X35935781Y-7421482D01*
X35917267Y-7466179D01*
X35890481Y-7506268D01*
X35856269Y-7540479D01*
X35821975Y-7563394D01*
X35816179Y-7567267D01*
X35771482Y-7585781D01*
X35737857Y-7592469D01*
X35711978Y-7597617D01*
X35687789Y-7600000D01*
X34443878Y-7600000D01*
X34443764Y-7598846D01*
X34382469Y-7593353D01*
X34354253Y-7577740D01*
X34312882Y-7547207D01*
X34312880Y-7547206D01*
X34184700Y-7502353D01*
X34154270Y-7499500D01*
X34154266Y-7499500D01*
X33095734Y-7499500D01*
X33095730Y-7499500D01*
X33065300Y-7502353D01*
X33065298Y-7502353D01*
X32937119Y-7547206D01*
X32937117Y-7547207D01*
X32827850Y-7627850D01*
X32747207Y-7737117D01*
X32747206Y-7737119D01*
X32702353Y-7865298D01*
X32702353Y-7865300D01*
X32699500Y-7895730D01*
X32699500Y-8504269D01*
X32702353Y-8534699D01*
X32702353Y-8534701D01*
X32747206Y-8662880D01*
X32747207Y-8662882D01*
X32827850Y-8772150D01*
X32874787Y-8806791D01*
X32917036Y-8862435D01*
X32922495Y-8932091D01*
X32889428Y-8993641D01*
X32828335Y-9027543D01*
X32799430Y-9030547D01*
X31097778Y-9006913D01*
X31031018Y-8986299D01*
X30986001Y-8932865D01*
X30975500Y-8882925D01*
X30975500Y-6750322D01*
X30975500Y-6750319D01*
X30974025Y-6744816D01*
X30962050Y-6700123D01*
X30934577Y-6597592D01*
X30927088Y-6584621D01*
X30855524Y-6460666D01*
X30855521Y-6460662D01*
X30855520Y-6460660D01*
X30743716Y-6348856D01*
X30743715Y-6348855D01*
X30739385Y-6344525D01*
X30739374Y-6344515D01*
X30636319Y-6241460D01*
X30602834Y-6180137D01*
X30600000Y-6153779D01*
X30600000Y-4962210D01*
X30602383Y-4938019D01*
X30614218Y-4878519D01*
X30632729Y-4833826D01*
X30659524Y-4793724D01*
X30693724Y-4759524D01*
X30733826Y-4732729D01*
X30778514Y-4714219D01*
X30838028Y-4702381D01*
X30862211Y-4700000D01*
X32500001Y-4700000D01*
X32750000Y-4700000D01*
X32750000Y-3612210D01*
X32752383Y-3588019D01*
X32764218Y-3528517D01*
X32782732Y-3483821D01*
X32801584Y-3455607D01*
X32855197Y-3410803D01*
X32904685Y-3400500D01*
X34495315Y-3400500D01*
X34562354Y-3420185D01*
G37*
%TD.AperFunction*%
%TD*%
%TA.AperFunction,Conductor*%
%TO.N,/VOUTF*%
G36*
X29772469Y-2320185D02*
G01*
X29793111Y-2336819D01*
X30263681Y-2807389D01*
X30297166Y-2868712D01*
X30300000Y-2895070D01*
X30300000Y-3312134D01*
X30280315Y-3379173D01*
X30251489Y-3410507D01*
X30171718Y-3471718D01*
X30075463Y-3597160D01*
X30014956Y-3743237D01*
X30014955Y-3743239D01*
X29994318Y-3899998D01*
X29994318Y-3900001D01*
X30014955Y-4056760D01*
X30014956Y-4056762D01*
X30075464Y-4202841D01*
X30171718Y-4328282D01*
X30251488Y-4389491D01*
X30292689Y-4445918D01*
X30300000Y-4487866D01*
X30300000Y-6537789D01*
X30297617Y-6561978D01*
X30292469Y-6587857D01*
X30285781Y-6621482D01*
X30267267Y-6666179D01*
X30240481Y-6706268D01*
X30206269Y-6740479D01*
X30171975Y-6763394D01*
X30166179Y-6767267D01*
X30121482Y-6785781D01*
X30087857Y-6792469D01*
X30061978Y-6797617D01*
X30037789Y-6800000D01*
X28662211Y-6800000D01*
X28638020Y-6797617D01*
X28623189Y-6794667D01*
X28578518Y-6785781D01*
X28533822Y-6767267D01*
X28493727Y-6740477D01*
X28459522Y-6706272D01*
X28432730Y-6666175D01*
X28414218Y-6621483D01*
X28402881Y-6564485D01*
X28400500Y-6540302D01*
X28400500Y-6058223D01*
X28400365Y-6055338D01*
X28400385Y-6055337D01*
X28400000Y-6047102D01*
X28400000Y-5349999D01*
X28400000Y-5149418D01*
X28422645Y-5084701D01*
X28422646Y-5084699D01*
X28425500Y-5054269D01*
X28425500Y-4445730D01*
X28422646Y-4415300D01*
X28422646Y-4415298D01*
X28377793Y-4287119D01*
X28377792Y-4287117D01*
X28334370Y-4228282D01*
X28297150Y-4177850D01*
X28187882Y-4097207D01*
X28187880Y-4097206D01*
X28059700Y-4052353D01*
X28029270Y-4049500D01*
X28029266Y-4049500D01*
X26970734Y-4049500D01*
X26970730Y-4049500D01*
X26940300Y-4052353D01*
X26940298Y-4052353D01*
X26812119Y-4097206D01*
X26812117Y-4097207D01*
X26702850Y-4177850D01*
X26622207Y-4287117D01*
X26622206Y-4287119D01*
X26577353Y-4415298D01*
X26577353Y-4415300D01*
X26574500Y-4445730D01*
X26574500Y-4976000D01*
X26554815Y-5043039D01*
X26502011Y-5088794D01*
X26450500Y-5100000D01*
X23962211Y-5100000D01*
X23938020Y-5097617D01*
X23923189Y-5094667D01*
X23878518Y-5085781D01*
X23833822Y-5067267D01*
X23793727Y-5040477D01*
X23759522Y-5006272D01*
X23732730Y-4966175D01*
X23714218Y-4921480D01*
X23702383Y-4861980D01*
X23700000Y-4837789D01*
X23700000Y-3851285D01*
X23701061Y-3835099D01*
X23705682Y-3799999D01*
X23705682Y-3799998D01*
X23701061Y-3764899D01*
X23700000Y-3748714D01*
X23700000Y-2424500D01*
X23719685Y-2357461D01*
X23772489Y-2311706D01*
X23824000Y-2300500D01*
X29705430Y-2300500D01*
X29772469Y-2320185D01*
G37*
%TD.AperFunction*%
%TD*%
%TA.AperFunction,Conductor*%
%TO.N,/GND*%
G36*
X12300952Y-501061D02*
G01*
X12406116Y-514906D01*
X12437383Y-523284D01*
X12527808Y-560739D01*
X12555842Y-576924D01*
X12640003Y-641503D01*
X12652198Y-652198D01*
X13353547Y-1353548D01*
X13353554Y-1353554D01*
X13500000Y-1500000D01*
X13707114Y-1500000D01*
X14289106Y-1500000D01*
X14356145Y-1519685D01*
X14401900Y-1572489D01*
X14411844Y-1641647D01*
X14410724Y-1648189D01*
X14400830Y-1697933D01*
X14400829Y-1697936D01*
X14397872Y-1717872D01*
X14395490Y-1742059D01*
X14395490Y-1742064D01*
X14394500Y-1762210D01*
X14394500Y-1762221D01*
X14394500Y-3677851D01*
X14374815Y-3744890D01*
X14322011Y-3790645D01*
X14252853Y-3800589D01*
X14223048Y-3792412D01*
X14156765Y-3764957D01*
X14156760Y-3764955D01*
X14000001Y-3744318D01*
X13999999Y-3744318D01*
X13843239Y-3764955D01*
X13843237Y-3764956D01*
X13697160Y-3825463D01*
X13571718Y-3921718D01*
X13475463Y-4047160D01*
X13414956Y-4193237D01*
X13414955Y-4193239D01*
X13394318Y-4349998D01*
X13394318Y-4350001D01*
X13414955Y-4506760D01*
X13414956Y-4506762D01*
X13422375Y-4524674D01*
X13423773Y-4528047D01*
X13431242Y-4597516D01*
X13399967Y-4659995D01*
X13339878Y-4695648D01*
X13309212Y-4699500D01*
X13279239Y-4699500D01*
X13211108Y-4709426D01*
X13123821Y-4752098D01*
X13054948Y-4763856D01*
X12990651Y-4736513D01*
X12951344Y-4678748D01*
X12949506Y-4608903D01*
X12961139Y-4580167D01*
X12977490Y-4550937D01*
X12997175Y-4483898D01*
X13005500Y-4426000D01*
X13005500Y-2051362D01*
X13004322Y-2029393D01*
X13001488Y-2003035D01*
X12977529Y-1926518D01*
X12944044Y-1865195D01*
X12908991Y-1818371D01*
X12700206Y-1609586D01*
X12481634Y-1391013D01*
X12481633Y-1391012D01*
X12465283Y-1376325D01*
X12465269Y-1376313D01*
X12444620Y-1359672D01*
X12373575Y-1322509D01*
X12306543Y-1302826D01*
X12303260Y-1302354D01*
X12248638Y-1294500D01*
X9824000Y-1294500D01*
X9823992Y-1294500D01*
X9780313Y-1299197D01*
X9728825Y-1310397D01*
X9718627Y-1312890D01*
X9718624Y-1312891D01*
X9637916Y-1355899D01*
X9637913Y-1355901D01*
X9585104Y-1401660D01*
X9567160Y-1419242D01*
X9567154Y-1419249D01*
X9522511Y-1499059D01*
X9522509Y-1499064D01*
X9502826Y-1566096D01*
X9502825Y-1566101D01*
X9502825Y-1566102D01*
X9497969Y-1599878D01*
X9494500Y-1624003D01*
X9494500Y-3864398D01*
X9489431Y-3889888D01*
X9491416Y-3890283D01*
X9474500Y-3975323D01*
X9474500Y-4524678D01*
X9489032Y-4597735D01*
X9489033Y-4597739D01*
X9501729Y-4616740D01*
X9544399Y-4680601D01*
X9599185Y-4717207D01*
X9627260Y-4735966D01*
X9627264Y-4735967D01*
X9700321Y-4750499D01*
X9700324Y-4750500D01*
X9700326Y-4750500D01*
X9780356Y-4750500D01*
X9798002Y-4751761D01*
X9824000Y-4755500D01*
X9824001Y-4755500D01*
X12675991Y-4755500D01*
X12676000Y-4755500D01*
X12719684Y-4750803D01*
X12748875Y-4744452D01*
X12771174Y-4739602D01*
X12771190Y-4739598D01*
X12771195Y-4739597D01*
X12781373Y-4737110D01*
X12841024Y-4705322D01*
X12909444Y-4691167D01*
X12974656Y-4716250D01*
X13015955Y-4772607D01*
X13020229Y-4842346D01*
X13010739Y-4869215D01*
X12971926Y-4948608D01*
X12962000Y-5016739D01*
X12962000Y-5383260D01*
X12971926Y-5451391D01*
X13023303Y-5556485D01*
X13106014Y-5639196D01*
X13106015Y-5639196D01*
X13106017Y-5639198D01*
X13211107Y-5690573D01*
X13234772Y-5694021D01*
X13279239Y-5700500D01*
X13279240Y-5700500D01*
X14520761Y-5700500D01*
X14598422Y-5689185D01*
X14598604Y-5690436D01*
X14658752Y-5689588D01*
X14718058Y-5726529D01*
X14747977Y-5789669D01*
X14749500Y-5809046D01*
X14749500Y-6238811D01*
X14729815Y-6305850D01*
X14713181Y-6326492D01*
X14476492Y-6563181D01*
X14415169Y-6596666D01*
X14388811Y-6599500D01*
X12025465Y-6599500D01*
X12025449Y-6599499D01*
X12017853Y-6599499D01*
X11932148Y-6599499D01*
X11890755Y-6610590D01*
X11849360Y-6621682D01*
X11849355Y-6621685D01*
X11775144Y-6664530D01*
X11775136Y-6664536D01*
X11744004Y-6695669D01*
X11714535Y-6725138D01*
X11714533Y-6725140D01*
X11553827Y-6885847D01*
X11426493Y-7013181D01*
X11365170Y-7046666D01*
X11338812Y-7049500D01*
X10770730Y-7049500D01*
X10740300Y-7052353D01*
X10740298Y-7052353D01*
X10612119Y-7097206D01*
X10612117Y-7097207D01*
X10502850Y-7177850D01*
X10422207Y-7287117D01*
X10422206Y-7287119D01*
X10377353Y-7415298D01*
X10377353Y-7415300D01*
X10374500Y-7445730D01*
X10374500Y-8454269D01*
X10377353Y-8484699D01*
X10377353Y-8484701D01*
X10422206Y-8612880D01*
X10422207Y-8612882D01*
X10502850Y-8722150D01*
X10612118Y-8802793D01*
X10654845Y-8817744D01*
X10740299Y-8847646D01*
X10770730Y-8850500D01*
X10770734Y-8850500D01*
X11404270Y-8850500D01*
X11434699Y-8847646D01*
X11434701Y-8847646D01*
X11519634Y-8817926D01*
X11562882Y-8802793D01*
X11672150Y-8722150D01*
X11752793Y-8612882D01*
X11782396Y-8528282D01*
X11797646Y-8484701D01*
X11797646Y-8484699D01*
X11800500Y-8454269D01*
X11800500Y-7611188D01*
X11820185Y-7544149D01*
X11836819Y-7523507D01*
X11987819Y-7372507D01*
X12049142Y-7339022D01*
X12118834Y-7344006D01*
X12174767Y-7385878D01*
X12199184Y-7451342D01*
X12199500Y-7460188D01*
X12199500Y-8454269D01*
X12202353Y-8484699D01*
X12202353Y-8484701D01*
X12247206Y-8612880D01*
X12247207Y-8612882D01*
X12327850Y-8722150D01*
X12437118Y-8802793D01*
X12479845Y-8817744D01*
X12565299Y-8847646D01*
X12595730Y-8850500D01*
X12595734Y-8850500D01*
X13229270Y-8850500D01*
X13259699Y-8847646D01*
X13259701Y-8847646D01*
X13344634Y-8817926D01*
X13387882Y-8802793D01*
X13497150Y-8722150D01*
X13577793Y-8612882D01*
X13582050Y-8600714D01*
X13622767Y-8543940D01*
X13687719Y-8518191D01*
X13756281Y-8531644D01*
X13806686Y-8580029D01*
X13816131Y-8600709D01*
X13821544Y-8616179D01*
X13821545Y-8616180D01*
X13901069Y-8723930D01*
X14008819Y-8803454D01*
X14008821Y-8803455D01*
X14135218Y-8847684D01*
X14135222Y-8847684D01*
X14135226Y-8847686D01*
X14150231Y-8849093D01*
X14165232Y-8850500D01*
X14165236Y-8850500D01*
X14759768Y-8850500D01*
X14773101Y-8849249D01*
X14789774Y-8847686D01*
X14789778Y-8847684D01*
X14789781Y-8847684D01*
X14874823Y-8817926D01*
X14916179Y-8803455D01*
X15023930Y-8723930D01*
X15103455Y-8616179D01*
X15127267Y-8548127D01*
X15147684Y-8489781D01*
X15147684Y-8489778D01*
X15147686Y-8489774D01*
X15150500Y-8459764D01*
X15150500Y-7440236D01*
X15150500Y-7440231D01*
X15649500Y-7440231D01*
X15649500Y-8459768D01*
X15652313Y-8489769D01*
X15652315Y-8489781D01*
X15696544Y-8616178D01*
X15696545Y-8616180D01*
X15774756Y-8722150D01*
X15776070Y-8723930D01*
X15797373Y-8739653D01*
X15839624Y-8795300D01*
X15845083Y-8864956D01*
X15838302Y-8886874D01*
X15814956Y-8943237D01*
X15814955Y-8943239D01*
X15794318Y-9099998D01*
X15794318Y-9100001D01*
X15814955Y-9256760D01*
X15814956Y-9256762D01*
X15833260Y-9300953D01*
X15875464Y-9402841D01*
X15971718Y-9528282D01*
X16097159Y-9624536D01*
X16243238Y-9685044D01*
X16321619Y-9695363D01*
X16399999Y-9705682D01*
X16400000Y-9705682D01*
X16400001Y-9705682D01*
X16460341Y-9697738D01*
X16556762Y-9685044D01*
X16702841Y-9624536D01*
X16828282Y-9528282D01*
X16924536Y-9402841D01*
X16985044Y-9256762D01*
X16985935Y-9249998D01*
X17469318Y-9249998D01*
X17469318Y-9250000D01*
X17489955Y-9406760D01*
X17489956Y-9406762D01*
X17550464Y-9552841D01*
X17646718Y-9678282D01*
X17772159Y-9774536D01*
X17918238Y-9835044D01*
X17996619Y-9845363D01*
X18074999Y-9855682D01*
X18075000Y-9855682D01*
X18075001Y-9855682D01*
X18127254Y-9848802D01*
X18231762Y-9835044D01*
X18303049Y-9805515D01*
X18372516Y-9798047D01*
X18434995Y-9829322D01*
X18470648Y-9889410D01*
X18474500Y-9920077D01*
X18474500Y-10359108D01*
X18474500Y-10490892D01*
X18490209Y-10549521D01*
X18508608Y-10618187D01*
X18541554Y-10675250D01*
X18574500Y-10732314D01*
X20442686Y-12600500D01*
X20556814Y-12666392D01*
X20684107Y-12700500D01*
X20684108Y-12700500D01*
X20684109Y-12700500D01*
X43765890Y-12700500D01*
X43765892Y-12700500D01*
X43893186Y-12666392D01*
X44007314Y-12600500D01*
X45650500Y-10957314D01*
X45716392Y-10843186D01*
X45750500Y-10715892D01*
X45750500Y-10584108D01*
X45750500Y-6698184D01*
X45770185Y-6631145D01*
X45822989Y-6585390D01*
X45892147Y-6575446D01*
X45955703Y-6604471D01*
X45974265Y-6624544D01*
X46027850Y-6697150D01*
X46137118Y-6777793D01*
X46144426Y-6780350D01*
X46265299Y-6822646D01*
X46295730Y-6825500D01*
X46295734Y-6825500D01*
X46904270Y-6825500D01*
X46934699Y-6822646D01*
X46934701Y-6822646D01*
X47005516Y-6797866D01*
X47062882Y-6777793D01*
X47172150Y-6697150D01*
X47252793Y-6587882D01*
X47284335Y-6497740D01*
X47297646Y-6459701D01*
X47297646Y-6459699D01*
X47300500Y-6429269D01*
X47300500Y-6050001D01*
X49402704Y-6050001D01*
X49402899Y-6052486D01*
X49448718Y-6210198D01*
X49532314Y-6351552D01*
X49532321Y-6351561D01*
X49648438Y-6467678D01*
X49648447Y-6467685D01*
X49789803Y-6551282D01*
X49789806Y-6551283D01*
X49947504Y-6597099D01*
X49947510Y-6597100D01*
X49984350Y-6599999D01*
X49984366Y-6600000D01*
X50425000Y-6600000D01*
X50425000Y-6050000D01*
X49402705Y-6050000D01*
X49402704Y-6050001D01*
X47300500Y-6050001D01*
X47300500Y-5458676D01*
X47320185Y-5391637D01*
X47336819Y-5370995D01*
X48370995Y-4336819D01*
X48432318Y-4303334D01*
X48458676Y-4300500D01*
X49632074Y-4300500D01*
X49699113Y-4320185D01*
X49744868Y-4372989D01*
X49754812Y-4442147D01*
X49743475Y-4478960D01*
X49709426Y-4548608D01*
X49702301Y-4597516D01*
X49699500Y-4616740D01*
X49699500Y-4983260D01*
X49701138Y-4994500D01*
X49703456Y-5010412D01*
X49693641Y-5079589D01*
X49653491Y-5126099D01*
X49654607Y-5127537D01*
X49648438Y-5132321D01*
X49532321Y-5248438D01*
X49532314Y-5248447D01*
X49448718Y-5389801D01*
X49402899Y-5547513D01*
X49402704Y-5549998D01*
X49402705Y-5550000D01*
X50801000Y-5550000D01*
X50868039Y-5569685D01*
X50913794Y-5622489D01*
X50925000Y-5674000D01*
X50925000Y-6600000D01*
X51325500Y-6600000D01*
X51392539Y-6619685D01*
X51438294Y-6672489D01*
X51449500Y-6724000D01*
X51449500Y-7338811D01*
X51429815Y-7405850D01*
X51413181Y-7426492D01*
X51101492Y-7738181D01*
X51040169Y-7771666D01*
X51013811Y-7774500D01*
X50668299Y-7774500D01*
X50601260Y-7754815D01*
X50569923Y-7725986D01*
X50528283Y-7671719D01*
X50528282Y-7671718D01*
X50402841Y-7575464D01*
X50400943Y-7574678D01*
X50256762Y-7514956D01*
X50256760Y-7514955D01*
X50100001Y-7494318D01*
X50099999Y-7494318D01*
X49943239Y-7514955D01*
X49943237Y-7514956D01*
X49797160Y-7575463D01*
X49671716Y-7671719D01*
X49630077Y-7725986D01*
X49573649Y-7767189D01*
X49531701Y-7774500D01*
X49349500Y-7774500D01*
X49282461Y-7754815D01*
X49236706Y-7702011D01*
X49225500Y-7650500D01*
X49225500Y-7495730D01*
X49222646Y-7465300D01*
X49222646Y-7465298D01*
X49188263Y-7367039D01*
X49177793Y-7337118D01*
X49097150Y-7227850D01*
X48987882Y-7147207D01*
X48987880Y-7147206D01*
X48859700Y-7102353D01*
X48829270Y-7099500D01*
X48829266Y-7099500D01*
X48195734Y-7099500D01*
X48195730Y-7099500D01*
X48165300Y-7102353D01*
X48165298Y-7102353D01*
X48037119Y-7147206D01*
X48037117Y-7147207D01*
X47927850Y-7227850D01*
X47847207Y-7337117D01*
X47847206Y-7337119D01*
X47802353Y-7465298D01*
X47802353Y-7465300D01*
X47799500Y-7495730D01*
X47799500Y-8504269D01*
X47802353Y-8534699D01*
X47802353Y-8534701D01*
X47842699Y-8649999D01*
X47847207Y-8662882D01*
X47927850Y-8772150D01*
X48037118Y-8852793D01*
X48071878Y-8864956D01*
X48165299Y-8897646D01*
X48195730Y-8900500D01*
X48195734Y-8900500D01*
X48829270Y-8900500D01*
X48859699Y-8897646D01*
X48859701Y-8897646D01*
X48931145Y-8872646D01*
X48987882Y-8852793D01*
X49097150Y-8772150D01*
X49177793Y-8662882D01*
X49204516Y-8586511D01*
X49222646Y-8534701D01*
X49224256Y-8527330D01*
X49226379Y-8527793D01*
X49248198Y-8473018D01*
X49305041Y-8432391D01*
X49345802Y-8425500D01*
X49531701Y-8425500D01*
X49598740Y-8445185D01*
X49630077Y-8474014D01*
X49671342Y-8527793D01*
X49671718Y-8528282D01*
X49797159Y-8624536D01*
X49943238Y-8685044D01*
X50021619Y-8695363D01*
X50099999Y-8705682D01*
X50100000Y-8705682D01*
X50100001Y-8705682D01*
X50152254Y-8698802D01*
X50256762Y-8685044D01*
X50402841Y-8624536D01*
X50528282Y-8528282D01*
X50569923Y-8474013D01*
X50626351Y-8432811D01*
X50668299Y-8425500D01*
X51242851Y-8425500D01*
X51242853Y-8425500D01*
X51325639Y-8403318D01*
X51399862Y-8360465D01*
X51712242Y-8048083D01*
X51773561Y-8014601D01*
X51843253Y-8019585D01*
X51876835Y-8038504D01*
X51881656Y-8042316D01*
X52030875Y-8134356D01*
X52030880Y-8134358D01*
X52197302Y-8189505D01*
X52197309Y-8189506D01*
X52300019Y-8199999D01*
X52949999Y-8199999D01*
X53450000Y-8199999D01*
X54099972Y-8199999D01*
X54099986Y-8199998D01*
X54202697Y-8189505D01*
X54369119Y-8134358D01*
X54369124Y-8134356D01*
X54518345Y-8042315D01*
X54642315Y-7918345D01*
X54734356Y-7769124D01*
X54734358Y-7769119D01*
X54789505Y-7602697D01*
X54789506Y-7602690D01*
X54799999Y-7499986D01*
X54800000Y-7499973D01*
X54800000Y-7350000D01*
X53450000Y-7350000D01*
X53450000Y-8199999D01*
X52949999Y-8199999D01*
X52950000Y-8199998D01*
X52950000Y-6850000D01*
X53450000Y-6850000D01*
X54799999Y-6850000D01*
X54799999Y-6700028D01*
X54799998Y-6700013D01*
X54789505Y-6597302D01*
X54734358Y-6430880D01*
X54734356Y-6430875D01*
X54642315Y-6281654D01*
X54518345Y-6157684D01*
X54369124Y-6065643D01*
X54369119Y-6065641D01*
X54202697Y-6010494D01*
X54202690Y-6010493D01*
X54099986Y-6000000D01*
X53450000Y-6000000D01*
X53450000Y-6850000D01*
X52950000Y-6850000D01*
X52950000Y-6000000D01*
X52300028Y-6000000D01*
X52300010Y-6000001D01*
X52237101Y-6006428D01*
X52168408Y-5993658D01*
X52117524Y-5945777D01*
X52100500Y-5883070D01*
X52100500Y-5501947D01*
X52100501Y-5501934D01*
X52100501Y-5406240D01*
X52096096Y-5389801D01*
X52078318Y-5323453D01*
X52056891Y-5286342D01*
X52050711Y-5275638D01*
X52035467Y-5249233D01*
X52035466Y-5249232D01*
X52035465Y-5249230D01*
X51974862Y-5188627D01*
X51974861Y-5188626D01*
X51970531Y-5184296D01*
X51970520Y-5184286D01*
X51686819Y-4900584D01*
X51653334Y-4839261D01*
X51650500Y-4812903D01*
X51650500Y-4616739D01*
X51640573Y-4548607D01*
X51640572Y-4548604D01*
X51602389Y-4470499D01*
X51590629Y-4401626D01*
X51617973Y-4337329D01*
X51675737Y-4298022D01*
X51681656Y-4296276D01*
X51793186Y-4266392D01*
X51907314Y-4200500D01*
X52770995Y-3336819D01*
X52832318Y-3303334D01*
X52858676Y-3300500D01*
X54104270Y-3300500D01*
X54134699Y-3297646D01*
X54134701Y-3297646D01*
X54212278Y-3270500D01*
X54262882Y-3252793D01*
X54372150Y-3172150D01*
X54452793Y-3062882D01*
X54484541Y-2972151D01*
X54497646Y-2934701D01*
X54497646Y-2934699D01*
X54500500Y-2904269D01*
X54500500Y-2095730D01*
X54497646Y-2065300D01*
X54497646Y-2065298D01*
X54452793Y-1937119D01*
X54452792Y-1937117D01*
X54411813Y-1881592D01*
X54372150Y-1827850D01*
X54262882Y-1747207D01*
X54262880Y-1747206D01*
X54134700Y-1702353D01*
X54104270Y-1699500D01*
X54104266Y-1699500D01*
X52295734Y-1699500D01*
X52295730Y-1699500D01*
X52265300Y-1702353D01*
X52265298Y-1702353D01*
X52137119Y-1747206D01*
X52137117Y-1747207D01*
X52027850Y-1827850D01*
X51947207Y-1937117D01*
X51947206Y-1937119D01*
X51902353Y-2065298D01*
X51902353Y-2065300D01*
X51899500Y-2095730D01*
X51899500Y-2741324D01*
X51879815Y-2808363D01*
X51863181Y-2829005D01*
X51429005Y-3263181D01*
X51367682Y-3296666D01*
X51341324Y-3299500D01*
X49312370Y-3299500D01*
X49245331Y-3279815D01*
X49199576Y-3227011D01*
X49189632Y-3157853D01*
X49189665Y-3157623D01*
X49190573Y-3151391D01*
X49200500Y-3083260D01*
X49200500Y-2716740D01*
X49190573Y-2648607D01*
X49139198Y-2543517D01*
X49139196Y-2543515D01*
X49139196Y-2543514D01*
X49056485Y-2460803D01*
X48951391Y-2409426D01*
X48883261Y-2399500D01*
X48883260Y-2399500D01*
X47791740Y-2399500D01*
X47791739Y-2399500D01*
X47723608Y-2409426D01*
X47618514Y-2460803D01*
X47535803Y-2543514D01*
X47484426Y-2648608D01*
X47474500Y-2716739D01*
X47474500Y-3083260D01*
X47484426Y-3151391D01*
X47535803Y-3256485D01*
X47618514Y-3339196D01*
X47618515Y-3339196D01*
X47618517Y-3339198D01*
X47687139Y-3372745D01*
X47738720Y-3419872D01*
X47756635Y-3487406D01*
X47735194Y-3553904D01*
X47720359Y-3571826D01*
X47132903Y-4159282D01*
X47071580Y-4192767D01*
X47001888Y-4187783D01*
X46945955Y-4145911D01*
X46921538Y-4080447D01*
X46922517Y-4053728D01*
X46925500Y-4033260D01*
X46925500Y-3666740D01*
X46923815Y-3655178D01*
X46919363Y-3624617D01*
X46915573Y-3598607D01*
X46864198Y-3493517D01*
X46864196Y-3493515D01*
X46864196Y-3493514D01*
X46781485Y-3410803D01*
X46676391Y-3359426D01*
X46608261Y-3349500D01*
X46608260Y-3349500D01*
X45516740Y-3349500D01*
X45516739Y-3349500D01*
X45448608Y-3359426D01*
X45343514Y-3410803D01*
X45266138Y-3488180D01*
X45204815Y-3521665D01*
X45178457Y-3524499D01*
X45129166Y-3524499D01*
X45062127Y-3504814D01*
X45016372Y-3452010D01*
X45006428Y-3382852D01*
X45030788Y-3325015D01*
X45124536Y-3202841D01*
X45185044Y-3056762D01*
X45205682Y-2900000D01*
X45199915Y-2856196D01*
X45210680Y-2787161D01*
X45257060Y-2734905D01*
X45324329Y-2716020D01*
X45357450Y-2720935D01*
X45447507Y-2747099D01*
X45447510Y-2747100D01*
X45484350Y-2749999D01*
X45484366Y-2750000D01*
X45812500Y-2750000D01*
X46312500Y-2750000D01*
X46640634Y-2750000D01*
X46640649Y-2749999D01*
X46677489Y-2747100D01*
X46677495Y-2747099D01*
X46835193Y-2701283D01*
X46835196Y-2701282D01*
X46976552Y-2617685D01*
X46976561Y-2617678D01*
X47092678Y-2501561D01*
X47092685Y-2501552D01*
X47176281Y-2360198D01*
X47222100Y-2202486D01*
X47222295Y-2200001D01*
X47222295Y-2200000D01*
X46312500Y-2200000D01*
X46312500Y-2750000D01*
X45812500Y-2750000D01*
X45812500Y-2200000D01*
X44902705Y-2200000D01*
X44896321Y-2206905D01*
X44886994Y-2251300D01*
X44837941Y-2301055D01*
X44769775Y-2316392D01*
X44761557Y-2315587D01*
X44600001Y-2294318D01*
X44599999Y-2294318D01*
X44443239Y-2314955D01*
X44443237Y-2314956D01*
X44297160Y-2375463D01*
X44171718Y-2471718D01*
X44075463Y-2597160D01*
X44014956Y-2743237D01*
X44014955Y-2743239D01*
X43994318Y-2899998D01*
X43994318Y-2900001D01*
X44003246Y-2967817D01*
X43992480Y-3036852D01*
X43967990Y-3071682D01*
X43939536Y-3100136D01*
X43896680Y-3174362D01*
X43886716Y-3211555D01*
X43886716Y-3211556D01*
X43874500Y-3257147D01*
X43874500Y-3425500D01*
X43854815Y-3492539D01*
X43802011Y-3538294D01*
X43750500Y-3549500D01*
X43675323Y-3549500D01*
X43602264Y-3564032D01*
X43602260Y-3564033D01*
X43519399Y-3619399D01*
X43464033Y-3702260D01*
X43464032Y-3702264D01*
X43449500Y-3775321D01*
X43449500Y-4324678D01*
X43464032Y-4397735D01*
X43464033Y-4397739D01*
X43482405Y-4425235D01*
X43519399Y-4480601D01*
X43584881Y-4524354D01*
X43602260Y-4535966D01*
X43602264Y-4535967D01*
X43675321Y-4550499D01*
X43675324Y-4550500D01*
X43675326Y-4550500D01*
X44724676Y-4550500D01*
X44724677Y-4550499D01*
X44797740Y-4535966D01*
X44880601Y-4480601D01*
X44915733Y-4428020D01*
X44969344Y-4383216D01*
X44986743Y-4377136D01*
X44992849Y-4375500D01*
X44992853Y-4375500D01*
X45075639Y-4353318D01*
X45149862Y-4310465D01*
X45169641Y-4290685D01*
X45230959Y-4257201D01*
X45300651Y-4262183D01*
X45334600Y-4284000D01*
X45335153Y-4283227D01*
X45343513Y-4289195D01*
X45343514Y-4289195D01*
X45343517Y-4289198D01*
X45448607Y-4340573D01*
X45472176Y-4344007D01*
X45516739Y-4350500D01*
X45516740Y-4350500D01*
X46608257Y-4350500D01*
X46608260Y-4350500D01*
X46628723Y-4347518D01*
X46697897Y-4357330D01*
X46750788Y-4402984D01*
X46770601Y-4469986D01*
X46751044Y-4537062D01*
X46734282Y-4557903D01*
X46351561Y-4940624D01*
X46290238Y-4974109D01*
X46275458Y-4976401D01*
X46265300Y-4977353D01*
X46265298Y-4977353D01*
X46137119Y-5022206D01*
X46137117Y-5022207D01*
X46027850Y-5102850D01*
X45947207Y-5212117D01*
X45947206Y-5212119D01*
X45902353Y-5340298D01*
X45900744Y-5347670D01*
X45898620Y-5347206D01*
X45876802Y-5401982D01*
X45819959Y-5442609D01*
X45779198Y-5449500D01*
X43675323Y-5449500D01*
X43602264Y-5464032D01*
X43602260Y-5464033D01*
X43519399Y-5519399D01*
X43464033Y-5602260D01*
X43464032Y-5602264D01*
X43449500Y-5675321D01*
X43449500Y-6224678D01*
X43464032Y-6297735D01*
X43464033Y-6297739D01*
X43464034Y-6297740D01*
X43519399Y-6380601D01*
X43585360Y-6424674D01*
X43602260Y-6435966D01*
X43602264Y-6435967D01*
X43675321Y-6450499D01*
X43675324Y-6450500D01*
X43675326Y-6450500D01*
X44134108Y-6450500D01*
X44625500Y-6450500D01*
X44692539Y-6470185D01*
X44738294Y-6522989D01*
X44749500Y-6574500D01*
X44749500Y-6888942D01*
X44729815Y-6955981D01*
X44693095Y-6989209D01*
X44694552Y-6991214D01*
X44686657Y-6996950D01*
X44596954Y-7086652D01*
X44596951Y-7086657D01*
X44596950Y-7086658D01*
X44588007Y-7104210D01*
X44539352Y-7199698D01*
X44524500Y-7293475D01*
X44524500Y-7906517D01*
X44531745Y-7952260D01*
X44539354Y-8000304D01*
X44596950Y-8113342D01*
X44686658Y-8203050D01*
X44686660Y-8203051D01*
X44686663Y-8203054D01*
X44694557Y-8208790D01*
X44692903Y-8211066D01*
X44732584Y-8248535D01*
X44749500Y-8311057D01*
X44749500Y-10391324D01*
X44729815Y-10458363D01*
X44713181Y-10479005D01*
X43529005Y-11663181D01*
X43467682Y-11696666D01*
X43441324Y-11699500D01*
X21008676Y-11699500D01*
X20941637Y-11679815D01*
X20920995Y-11663181D01*
X19511819Y-10254005D01*
X19478334Y-10192682D01*
X19475500Y-10166324D01*
X19475500Y-9249366D01*
X19495185Y-9182327D01*
X19547989Y-9136572D01*
X19617147Y-9126628D01*
X19646945Y-9134802D01*
X19768238Y-9185044D01*
X19836433Y-9194022D01*
X19924999Y-9205682D01*
X19925000Y-9205682D01*
X19925001Y-9205682D01*
X19989617Y-9197175D01*
X20081762Y-9185044D01*
X20227841Y-9124536D01*
X20353282Y-9028282D01*
X20449536Y-8902841D01*
X20510044Y-8756762D01*
X20529217Y-8611126D01*
X20530682Y-8600001D01*
X20530682Y-8599998D01*
X20510044Y-8443239D01*
X20510042Y-8443234D01*
X20502696Y-8425500D01*
X20449536Y-8297159D01*
X20411785Y-8247961D01*
X20386592Y-8182794D01*
X20400630Y-8114349D01*
X20407061Y-8103584D01*
X20410967Y-8097738D01*
X20425499Y-8024678D01*
X20425500Y-8024676D01*
X20425500Y-6975323D01*
X20425499Y-6975321D01*
X20410967Y-6902264D01*
X20410966Y-6902260D01*
X20355601Y-6819399D01*
X20272740Y-6764034D01*
X20272739Y-6764033D01*
X20272735Y-6764032D01*
X20199677Y-6749500D01*
X20199674Y-6749500D01*
X19650326Y-6749500D01*
X19650323Y-6749500D01*
X19577264Y-6764032D01*
X19577261Y-6764033D01*
X19518889Y-6803035D01*
X19452211Y-6823911D01*
X19384831Y-6805425D01*
X19381111Y-6803035D01*
X19343331Y-6777792D01*
X19322740Y-6764034D01*
X19322739Y-6764033D01*
X19322738Y-6764033D01*
X19322735Y-6764032D01*
X19249677Y-6749500D01*
X19249674Y-6749500D01*
X18700326Y-6749500D01*
X18700323Y-6749500D01*
X18627264Y-6764032D01*
X18627261Y-6764033D01*
X18568889Y-6803035D01*
X18502211Y-6823911D01*
X18434831Y-6805425D01*
X18431111Y-6803035D01*
X18393331Y-6777792D01*
X18372740Y-6764034D01*
X18372739Y-6764033D01*
X18372738Y-6764033D01*
X18372735Y-6764032D01*
X18299677Y-6749500D01*
X18299674Y-6749500D01*
X17750326Y-6749500D01*
X17750323Y-6749500D01*
X17677264Y-6764032D01*
X17677260Y-6764033D01*
X17594399Y-6819399D01*
X17539033Y-6902260D01*
X17539032Y-6902264D01*
X17524500Y-6975321D01*
X17524500Y-8024678D01*
X17539032Y-8097735D01*
X17539033Y-8097739D01*
X17539034Y-8097740D01*
X17594399Y-8180601D01*
X17644390Y-8214003D01*
X17689195Y-8267613D01*
X17699500Y-8317105D01*
X17699500Y-8720067D01*
X17679815Y-8787106D01*
X17650988Y-8818441D01*
X17646721Y-8821715D01*
X17646719Y-8821716D01*
X17646718Y-8821718D01*
X17586556Y-8900123D01*
X17550463Y-8947160D01*
X17489956Y-9093237D01*
X17489955Y-9093239D01*
X17469318Y-9249998D01*
X16985935Y-9249998D01*
X17003722Y-9114889D01*
X17005682Y-9100001D01*
X17005682Y-9099998D01*
X16985044Y-8943239D01*
X16985044Y-8943238D01*
X16924536Y-8797159D01*
X16922711Y-8792753D01*
X16915242Y-8723283D01*
X16937503Y-8671666D01*
X16978455Y-8616179D01*
X17002267Y-8548127D01*
X17022684Y-8489781D01*
X17022684Y-8489778D01*
X17022686Y-8489774D01*
X17025500Y-8459764D01*
X17025500Y-7440236D01*
X17022686Y-7410226D01*
X17022684Y-7410222D01*
X17022684Y-7410218D01*
X16978455Y-7283821D01*
X16978454Y-7283819D01*
X16898930Y-7176069D01*
X16791180Y-7096545D01*
X16791178Y-7096544D01*
X16664781Y-7052315D01*
X16664769Y-7052313D01*
X16634768Y-7049500D01*
X16634764Y-7049500D01*
X16040236Y-7049500D01*
X16040232Y-7049500D01*
X16010230Y-7052313D01*
X16010218Y-7052315D01*
X15883821Y-7096544D01*
X15883819Y-7096545D01*
X15776069Y-7176069D01*
X15696545Y-7283819D01*
X15696544Y-7283821D01*
X15652315Y-7410218D01*
X15652313Y-7410230D01*
X15649500Y-7440231D01*
X15150500Y-7440231D01*
X15147686Y-7410226D01*
X15147684Y-7410222D01*
X15147684Y-7410218D01*
X15103455Y-7283821D01*
X15103454Y-7283819D01*
X15023930Y-7176069D01*
X15001964Y-7159858D01*
X14959714Y-7104210D01*
X14954255Y-7034554D01*
X14987323Y-6973005D01*
X14987768Y-6972556D01*
X15264652Y-6695673D01*
X15264657Y-6695669D01*
X15274860Y-6685465D01*
X15274862Y-6685465D01*
X15335465Y-6624862D01*
X15361019Y-6580601D01*
X15378318Y-6550639D01*
X15400500Y-6467853D01*
X15400500Y-6382147D01*
X15400500Y-5829500D01*
X15420185Y-5762461D01*
X15472989Y-5716706D01*
X15524500Y-5705500D01*
X15584605Y-5705500D01*
X15585249Y-5705484D01*
X15594224Y-5705275D01*
X15596987Y-5705145D01*
X15597191Y-5705136D01*
X15602995Y-5705000D01*
X16647006Y-5705000D01*
X16652810Y-5705136D01*
X16652948Y-5705142D01*
X16655777Y-5705275D01*
X16664750Y-5705484D01*
X16665395Y-5705500D01*
X16665398Y-5705500D01*
X18237777Y-5705500D01*
X18237789Y-5705500D01*
X18257936Y-5704510D01*
X18282125Y-5702127D01*
X18302072Y-5699168D01*
X18327941Y-5694022D01*
X18327946Y-5694022D01*
X18327946Y-5694021D01*
X18361571Y-5687333D01*
X18400123Y-5675638D01*
X18444820Y-5657124D01*
X18480354Y-5638131D01*
X18486150Y-5634258D01*
X18486149Y-5634257D01*
X18503761Y-5622489D01*
X18520440Y-5611345D01*
X18520445Y-5611340D01*
X18523182Y-5609512D01*
X18525297Y-5607359D01*
X18551579Y-5585790D01*
X18567684Y-5569685D01*
X18585787Y-5551583D01*
X18611345Y-5520442D01*
X18624467Y-5500804D01*
X18625495Y-5499249D01*
X18626709Y-5497396D01*
X18651990Y-5442677D01*
X18671675Y-5375638D01*
X18680000Y-5317740D01*
X18680000Y-4407775D01*
X18682382Y-4383587D01*
X18687604Y-4357330D01*
X18688615Y-4352243D01*
X18691572Y-4340441D01*
X18692115Y-4338654D01*
X18701552Y-4291205D01*
X18705500Y-4251119D01*
X18705500Y-3862210D01*
X18704510Y-3842062D01*
X18702127Y-3817874D01*
X18700484Y-3806797D01*
X18699172Y-3797949D01*
X18699169Y-3797933D01*
X18698960Y-3796884D01*
X18687333Y-3738427D01*
X18675637Y-3699873D01*
X18657123Y-3655178D01*
X18638135Y-3619654D01*
X18624072Y-3598607D01*
X18611349Y-3579564D01*
X18601767Y-3567889D01*
X18585787Y-3548417D01*
X18585783Y-3548412D01*
X18551581Y-3514211D01*
X18520440Y-3488653D01*
X18480348Y-3461865D01*
X18480349Y-3461865D01*
X18444810Y-3442870D01*
X18444809Y-3442869D01*
X18400125Y-3424362D01*
X18400122Y-3424361D01*
X18400117Y-3424359D01*
X18361570Y-3412666D01*
X18361565Y-3412665D01*
X18361562Y-3412664D01*
X18361563Y-3412664D01*
X18302066Y-3400830D01*
X18294524Y-3399711D01*
X18282126Y-3397873D01*
X18282112Y-3397871D01*
X18282108Y-3397871D01*
X18257939Y-3395490D01*
X18252898Y-3395242D01*
X18237789Y-3394500D01*
X18237777Y-3394500D01*
X16429500Y-3394500D01*
X16362461Y-3374815D01*
X16316706Y-3322011D01*
X16305500Y-3270500D01*
X16305500Y-2424500D01*
X16325185Y-2357461D01*
X16377989Y-2311706D01*
X16429500Y-2300500D01*
X20915876Y-2300500D01*
X20982915Y-2320185D01*
X21028670Y-2372989D01*
X21038614Y-2442147D01*
X21032917Y-2465455D01*
X21002354Y-2552798D01*
X21002353Y-2552800D01*
X20999500Y-2583230D01*
X20999500Y-3188810D01*
X20979815Y-3255849D01*
X20963181Y-3276491D01*
X20126492Y-4113181D01*
X20065169Y-4146666D01*
X20038811Y-4149500D01*
X19650323Y-4149500D01*
X19577264Y-4164032D01*
X19577260Y-4164033D01*
X19494399Y-4219399D01*
X19439033Y-4302260D01*
X19439032Y-4302264D01*
X19424500Y-4375321D01*
X19424500Y-5424678D01*
X19439032Y-5497735D01*
X19439033Y-5497739D01*
X19441836Y-5501934D01*
X19494399Y-5580601D01*
X19557090Y-5622489D01*
X19577260Y-5635966D01*
X19577264Y-5635967D01*
X19650321Y-5650499D01*
X19650324Y-5650500D01*
X19650326Y-5650500D01*
X20199676Y-5650500D01*
X20199677Y-5650499D01*
X20272740Y-5635966D01*
X20355601Y-5580601D01*
X20410966Y-5497740D01*
X20425500Y-5424674D01*
X20425500Y-4786189D01*
X20445185Y-4719150D01*
X20461819Y-4698508D01*
X20787819Y-4372508D01*
X20849142Y-4339023D01*
X20918834Y-4344007D01*
X20974767Y-4385879D01*
X20999184Y-4451343D01*
X20999500Y-4460189D01*
X20999500Y-5041769D01*
X21002353Y-5072199D01*
X21002353Y-5072201D01*
X21046492Y-5198339D01*
X21047207Y-5200382D01*
X21127850Y-5309650D01*
X21237118Y-5390293D01*
X21270523Y-5401982D01*
X21372423Y-5437639D01*
X21371992Y-5438868D01*
X21426411Y-5468643D01*
X21459844Y-5529994D01*
X21454801Y-5599681D01*
X21412883Y-5655580D01*
X21372180Y-5674167D01*
X21372423Y-5674861D01*
X21237119Y-5722206D01*
X21237117Y-5722207D01*
X21127850Y-5802850D01*
X21047207Y-5912117D01*
X21047206Y-5912119D01*
X21002353Y-6040298D01*
X21002353Y-6040300D01*
X20999500Y-6070730D01*
X20999500Y-6704269D01*
X21002353Y-6734699D01*
X21002353Y-6734701D01*
X21044305Y-6854589D01*
X21047207Y-6862882D01*
X21127850Y-6972150D01*
X21237118Y-7052793D01*
X21279845Y-7067744D01*
X21365299Y-7097646D01*
X21395730Y-7100500D01*
X21395734Y-7100500D01*
X22404270Y-7100500D01*
X22434699Y-7097646D01*
X22434701Y-7097646D01*
X22498790Y-7075219D01*
X22562882Y-7052793D01*
X22672150Y-6972150D01*
X22752793Y-6862882D01*
X22776829Y-6794191D01*
X22797646Y-6734701D01*
X22797646Y-6734699D01*
X22800500Y-6704269D01*
X22800500Y-6070730D01*
X22797646Y-6040300D01*
X22797646Y-6040298D01*
X22752793Y-5912119D01*
X22752792Y-5912117D01*
X22672150Y-5802850D01*
X22562882Y-5722207D01*
X22562880Y-5722206D01*
X22427577Y-5674861D01*
X22428007Y-5673631D01*
X22373590Y-5643860D01*
X22340155Y-5582509D01*
X22345197Y-5512822D01*
X22387113Y-5456922D01*
X22427819Y-5438332D01*
X22427577Y-5437639D01*
X22504204Y-5410824D01*
X22562882Y-5390293D01*
X22672150Y-5309650D01*
X22752793Y-5200382D01*
X22775219Y-5136290D01*
X22797646Y-5072201D01*
X22797646Y-5072199D01*
X22800500Y-5041769D01*
X22800500Y-4561188D01*
X22820185Y-4494149D01*
X22836818Y-4473508D01*
X22858983Y-4451343D01*
X22884130Y-4426194D01*
X22945453Y-4392709D01*
X22987993Y-4390936D01*
X23100000Y-4405682D01*
X23100001Y-4405682D01*
X23176877Y-4395561D01*
X23256762Y-4385044D01*
X23323049Y-4357586D01*
X23392516Y-4350118D01*
X23454995Y-4381393D01*
X23490648Y-4441481D01*
X23494500Y-4472148D01*
X23494500Y-4837789D01*
X23494954Y-4847023D01*
X23495490Y-4857939D01*
X23496855Y-4871792D01*
X23497873Y-4882126D01*
X23498037Y-4883230D01*
X23500830Y-4902066D01*
X23510087Y-4948608D01*
X23512666Y-4961570D01*
X23524359Y-5000117D01*
X23524361Y-5000122D01*
X23524362Y-5000125D01*
X23542869Y-5044809D01*
X23542870Y-5044810D01*
X23542871Y-5044812D01*
X23546852Y-5052260D01*
X23561865Y-5080349D01*
X23588653Y-5120440D01*
X23614211Y-5151581D01*
X23648412Y-5185783D01*
X23679564Y-5211349D01*
X23691999Y-5219657D01*
X23719654Y-5238135D01*
X23744584Y-5251461D01*
X23755178Y-5257124D01*
X23799869Y-5275636D01*
X23799873Y-5275637D01*
X23799875Y-5275638D01*
X23838425Y-5287332D01*
X23879293Y-5295461D01*
X23879300Y-5295463D01*
X23881445Y-5295889D01*
X23883096Y-5296218D01*
X23883099Y-5296219D01*
X23897930Y-5299169D01*
X23917874Y-5302127D01*
X23942065Y-5304510D01*
X23962211Y-5305500D01*
X23962223Y-5305500D01*
X26450491Y-5305500D01*
X26450500Y-5305500D01*
X26494184Y-5300803D01*
X26523375Y-5294452D01*
X26545674Y-5289602D01*
X26545690Y-5289598D01*
X26545695Y-5289597D01*
X26555873Y-5287110D01*
X26636585Y-5244100D01*
X26689389Y-5198345D01*
X26707343Y-5180754D01*
X26751990Y-5100937D01*
X26771675Y-5033898D01*
X26780000Y-4976000D01*
X26780000Y-4479436D01*
X26786958Y-4438484D01*
X26799769Y-4401870D01*
X26817036Y-4369194D01*
X26838706Y-4339833D01*
X26864837Y-4313703D01*
X26894192Y-4292038D01*
X26926870Y-4274769D01*
X26963483Y-4261958D01*
X27004436Y-4255000D01*
X27995560Y-4255000D01*
X28036516Y-4261959D01*
X28073132Y-4274772D01*
X28105807Y-4292041D01*
X28127984Y-4308407D01*
X28135155Y-4313700D01*
X28135157Y-4313701D01*
X28161293Y-4339836D01*
X28169024Y-4350311D01*
X28169025Y-4350312D01*
X28182959Y-4369192D01*
X28200228Y-4401866D01*
X28213041Y-4438482D01*
X28220000Y-4479438D01*
X28220000Y-5020559D01*
X28213042Y-5061511D01*
X28206033Y-5081540D01*
X28206030Y-5081554D01*
X28194500Y-5149416D01*
X28194500Y-6047106D01*
X28194724Y-6056703D01*
X28194865Y-6059718D01*
X28195000Y-6065499D01*
X28195000Y-6540302D01*
X28195466Y-6549784D01*
X28195989Y-6560446D01*
X28198370Y-6584624D01*
X28201329Y-6604576D01*
X28212665Y-6661569D01*
X28224360Y-6700122D01*
X28242873Y-6744816D01*
X28242881Y-6744832D01*
X28261855Y-6780332D01*
X28261866Y-6780350D01*
X28288653Y-6820440D01*
X28314211Y-6851581D01*
X28348412Y-6885783D01*
X28379564Y-6911349D01*
X28399247Y-6924500D01*
X28419654Y-6938135D01*
X28444584Y-6951461D01*
X28455178Y-6957124D01*
X28499869Y-6975636D01*
X28499873Y-6975637D01*
X28499875Y-6975638D01*
X28538425Y-6987332D01*
X28579293Y-6995461D01*
X28579300Y-6995463D01*
X28581445Y-6995889D01*
X28583096Y-6996218D01*
X28583099Y-6996219D01*
X28597930Y-6999169D01*
X28617874Y-7002127D01*
X28642065Y-7004510D01*
X28662211Y-7005500D01*
X29650500Y-7005500D01*
X29717539Y-7025185D01*
X29763294Y-7077989D01*
X29774500Y-7129500D01*
X29774500Y-7675500D01*
X29754815Y-7742539D01*
X29702011Y-7788294D01*
X29650500Y-7799500D01*
X28700323Y-7799500D01*
X28627264Y-7814032D01*
X28627257Y-7814035D01*
X28563234Y-7856813D01*
X28496557Y-7877690D01*
X28429177Y-7859205D01*
X28382487Y-7807225D01*
X28377304Y-7794666D01*
X28369779Y-7773161D01*
X28352793Y-7724618D01*
X28272150Y-7615350D01*
X28162882Y-7534707D01*
X28162880Y-7534706D01*
X28034700Y-7489853D01*
X28004270Y-7487000D01*
X28004266Y-7487000D01*
X26995734Y-7487000D01*
X26995730Y-7487000D01*
X26965300Y-7489853D01*
X26965298Y-7489853D01*
X26837119Y-7534706D01*
X26837117Y-7534707D01*
X26727850Y-7615350D01*
X26647207Y-7724617D01*
X26647206Y-7724619D01*
X26602353Y-7852798D01*
X26602353Y-7852800D01*
X26599500Y-7883230D01*
X26599500Y-8516769D01*
X26602353Y-8547199D01*
X26602353Y-8547201D01*
X26645906Y-8671664D01*
X26647207Y-8675382D01*
X26727850Y-8784650D01*
X26837118Y-8865293D01*
X26858132Y-8872646D01*
X26965299Y-8910146D01*
X26995730Y-8913000D01*
X26995734Y-8913000D01*
X28004270Y-8913000D01*
X28034699Y-8910146D01*
X28034701Y-8910146D01*
X28101207Y-8886874D01*
X28162882Y-8865293D01*
X28272150Y-8784650D01*
X28329179Y-8707377D01*
X28384826Y-8665127D01*
X28454482Y-8659668D01*
X28516032Y-8692735D01*
X28532048Y-8712116D01*
X28544399Y-8730601D01*
X28621513Y-8782126D01*
X28627260Y-8785966D01*
X28627264Y-8785967D01*
X28700321Y-8800499D01*
X28700324Y-8800500D01*
X29650500Y-8800500D01*
X29717539Y-8820185D01*
X29763294Y-8872989D01*
X29774500Y-8924500D01*
X29774500Y-9342831D01*
X29754815Y-9409870D01*
X29702011Y-9455625D01*
X29691456Y-9459872D01*
X29650476Y-9474211D01*
X29650475Y-9474212D01*
X29497737Y-9570184D01*
X29370184Y-9697737D01*
X29274211Y-9850476D01*
X29214631Y-10020745D01*
X29214630Y-10020750D01*
X29194435Y-10199996D01*
X29194435Y-10200003D01*
X29214630Y-10379249D01*
X29214631Y-10379254D01*
X29274211Y-10549523D01*
X29317355Y-10618186D01*
X29370184Y-10702262D01*
X29497738Y-10829816D01*
X29650478Y-10925789D01*
X29740577Y-10957316D01*
X29820745Y-10985368D01*
X29820750Y-10985369D01*
X29999996Y-11005565D01*
X30000000Y-11005565D01*
X30000004Y-11005565D01*
X30179249Y-10985369D01*
X30179252Y-10985368D01*
X30179255Y-10985368D01*
X30349522Y-10925789D01*
X30502262Y-10829816D01*
X30629816Y-10702262D01*
X30725789Y-10549522D01*
X30785368Y-10379255D01*
X30795161Y-10292330D01*
X30822226Y-10227920D01*
X30830697Y-10218537D01*
X30855520Y-10193716D01*
X30905639Y-10106904D01*
X30934577Y-10056785D01*
X30975500Y-9904057D01*
X30975500Y-9745943D01*
X30975500Y-9336468D01*
X30995185Y-9269429D01*
X31047989Y-9223674D01*
X31101219Y-9212480D01*
X32796576Y-9236027D01*
X32820673Y-9234946D01*
X32849578Y-9231942D01*
X32928048Y-9207230D01*
X32989141Y-9173328D01*
X33010332Y-9159811D01*
X33070457Y-9090897D01*
X33103524Y-9029347D01*
X33114045Y-9006516D01*
X33122784Y-8947160D01*
X33127367Y-8916037D01*
X33126149Y-8900500D01*
X33121908Y-8846379D01*
X33118415Y-8821485D01*
X33080705Y-8738166D01*
X33038456Y-8682522D01*
X32996817Y-8641446D01*
X32995906Y-8640774D01*
X32989839Y-8636296D01*
X32963703Y-8610160D01*
X32942041Y-8580809D01*
X32924769Y-8548127D01*
X32911958Y-8511513D01*
X32905000Y-8470561D01*
X32905000Y-7929436D01*
X32911958Y-7888484D01*
X32924769Y-7851870D01*
X32942036Y-7819194D01*
X32963706Y-7789833D01*
X32989837Y-7763703D01*
X33019192Y-7742038D01*
X33051870Y-7724769D01*
X33088483Y-7711958D01*
X33129436Y-7705000D01*
X34120560Y-7705000D01*
X34161512Y-7711957D01*
X34198137Y-7724773D01*
X34230817Y-7742047D01*
X34232223Y-7743085D01*
X34254758Y-7757548D01*
X34254770Y-7757555D01*
X34254774Y-7757557D01*
X34282966Y-7773157D01*
X34282968Y-7773157D01*
X34282974Y-7773161D01*
X34364126Y-7798033D01*
X34425421Y-7803526D01*
X34425421Y-7803525D01*
X34433212Y-7804224D01*
X34436943Y-7804814D01*
X34436954Y-7804720D01*
X34443876Y-7805499D01*
X34443878Y-7805500D01*
X34443880Y-7805500D01*
X34445176Y-7805646D01*
X34452975Y-7805995D01*
X34455922Y-7806259D01*
X34468053Y-7805500D01*
X35687777Y-7805500D01*
X35687789Y-7805500D01*
X35707936Y-7804510D01*
X35732125Y-7802127D01*
X35733085Y-7801984D01*
X35734047Y-7801842D01*
X35752240Y-7800500D01*
X35924676Y-7800500D01*
X35924677Y-7800499D01*
X35997740Y-7785966D01*
X36080601Y-7730601D01*
X36135966Y-7647740D01*
X36150500Y-7574674D01*
X36150500Y-7402240D01*
X36151842Y-7384048D01*
X36152124Y-7382145D01*
X36152127Y-7382126D01*
X36154510Y-7357933D01*
X36155500Y-7337789D01*
X36155500Y-6162210D01*
X36154510Y-6142062D01*
X36152127Y-6117874D01*
X36149169Y-6097932D01*
X36137333Y-6038427D01*
X36125637Y-5999873D01*
X36107123Y-5955178D01*
X36093375Y-5929458D01*
X36079135Y-5861057D01*
X36099632Y-5802118D01*
X36135966Y-5747740D01*
X36150500Y-5674674D01*
X36150500Y-5125326D01*
X36150500Y-5125323D01*
X36150499Y-5125321D01*
X36135967Y-5052264D01*
X36135966Y-5052260D01*
X36129695Y-5042875D01*
X36080601Y-4969399D01*
X35997740Y-4914034D01*
X35997739Y-4914033D01*
X35997735Y-4914032D01*
X35924677Y-4899500D01*
X35924674Y-4899500D01*
X34979500Y-4899500D01*
X34912461Y-4879815D01*
X34866706Y-4827011D01*
X34855500Y-4775500D01*
X34855500Y-3612221D01*
X34855500Y-3612210D01*
X34854510Y-3592064D01*
X34852127Y-3567873D01*
X34849168Y-3547924D01*
X34849166Y-3547918D01*
X34849164Y-3547899D01*
X34848911Y-3546441D01*
X34848947Y-3546434D01*
X34848944Y-3546414D01*
X34849531Y-3546326D01*
X34855549Y-3479098D01*
X34898413Y-3423921D01*
X34964303Y-3400678D01*
X34970938Y-3400500D01*
X36183261Y-3400500D01*
X36205971Y-3397191D01*
X36251393Y-3390573D01*
X36356483Y-3339198D01*
X36439198Y-3256483D01*
X36490573Y-3151393D01*
X36500500Y-3083260D01*
X36500500Y-2716740D01*
X36490573Y-2648607D01*
X36439198Y-2543517D01*
X36439196Y-2543515D01*
X36439196Y-2543514D01*
X36356485Y-2460803D01*
X36251391Y-2409426D01*
X36183261Y-2399500D01*
X36183260Y-2399500D01*
X35628392Y-2399500D01*
X34717369Y-2399500D01*
X34650330Y-2379815D01*
X34604575Y-2327011D01*
X34594631Y-2257853D01*
X34605968Y-2221040D01*
X34612878Y-2206905D01*
X34615573Y-2201393D01*
X34625500Y-2133260D01*
X34625500Y-1766740D01*
X34615573Y-1698607D01*
X34615244Y-1697933D01*
X34605724Y-1678459D01*
X34593966Y-1609586D01*
X34621310Y-1545289D01*
X34679074Y-1505982D01*
X34717125Y-1500000D01*
X40660433Y-1500000D01*
X40727472Y-1519685D01*
X40773227Y-1572489D01*
X40783171Y-1641647D01*
X40777475Y-1664952D01*
X40777354Y-1665296D01*
X40777353Y-1665300D01*
X40774500Y-1695730D01*
X40774500Y-2704269D01*
X40777353Y-2734699D01*
X40777353Y-2734701D01*
X40822206Y-2862880D01*
X40822207Y-2862882D01*
X40902850Y-2972150D01*
X41012118Y-3052793D01*
X41023461Y-3056762D01*
X41140295Y-3097645D01*
X41140299Y-3097645D01*
X41140301Y-3097646D01*
X41162078Y-3099688D01*
X41226984Y-3125544D01*
X41267610Y-3182388D01*
X41274500Y-3223146D01*
X41274500Y-3425500D01*
X41254815Y-3492539D01*
X41202011Y-3538294D01*
X41150500Y-3549500D01*
X41075323Y-3549500D01*
X41002264Y-3564032D01*
X41002260Y-3564033D01*
X40919399Y-3619399D01*
X40889495Y-3664154D01*
X40835882Y-3708958D01*
X40766557Y-3717665D01*
X40703530Y-3687510D01*
X40669351Y-3636214D01*
X40665295Y-3624621D01*
X40665293Y-3624618D01*
X40658810Y-3615834D01*
X40584650Y-3515350D01*
X40475382Y-3434707D01*
X40475380Y-3434706D01*
X40347200Y-3389853D01*
X40316770Y-3387000D01*
X40316766Y-3387000D01*
X39308234Y-3387000D01*
X39308230Y-3387000D01*
X39277800Y-3389853D01*
X39277798Y-3389853D01*
X39149619Y-3434706D01*
X39149617Y-3434707D01*
X39040350Y-3515350D01*
X38959707Y-3624617D01*
X38959706Y-3624619D01*
X38914853Y-3752798D01*
X38914853Y-3752800D01*
X38912000Y-3783230D01*
X38912000Y-4416769D01*
X38914853Y-4447199D01*
X38914853Y-4447201D01*
X38959706Y-4575380D01*
X38959707Y-4575382D01*
X39040350Y-4684650D01*
X39149618Y-4765293D01*
X39149625Y-4765295D01*
X39151794Y-4766442D01*
X39153737Y-4768333D01*
X39157095Y-4770811D01*
X39156756Y-4771270D01*
X39201871Y-4815167D01*
X39217656Y-4883230D01*
X39194136Y-4949022D01*
X39138781Y-4991655D01*
X39112059Y-4998735D01*
X39097951Y-5000827D01*
X39038415Y-5012669D01*
X38999893Y-5024354D01*
X38999876Y-5024360D01*
X38955196Y-5042866D01*
X38955177Y-5042875D01*
X38919669Y-5061853D01*
X38919650Y-5061865D01*
X38900198Y-5074862D01*
X38833520Y-5095738D01*
X38766140Y-5077252D01*
X38728208Y-5040648D01*
X38680602Y-4969400D01*
X38680599Y-4969398D01*
X38637535Y-4940624D01*
X38597739Y-4914033D01*
X38597735Y-4914032D01*
X38524677Y-4899500D01*
X38524674Y-4899500D01*
X38249500Y-4899500D01*
X38182461Y-4879815D01*
X38136706Y-4827011D01*
X38125500Y-4775500D01*
X38125500Y-4468298D01*
X38145185Y-4401259D01*
X38174010Y-4369925D01*
X38228282Y-4328282D01*
X38324536Y-4202841D01*
X38385044Y-4056762D01*
X38403552Y-3916182D01*
X38405682Y-3900001D01*
X38405682Y-3899998D01*
X38387782Y-3764034D01*
X38385044Y-3743238D01*
X38324536Y-3597159D01*
X38228282Y-3471718D01*
X38102841Y-3375464D01*
X38101274Y-3374815D01*
X37956762Y-3314956D01*
X37956760Y-3314955D01*
X37800001Y-3294318D01*
X37799999Y-3294318D01*
X37643239Y-3314955D01*
X37643237Y-3314956D01*
X37497160Y-3375463D01*
X37371718Y-3471718D01*
X37275463Y-3597160D01*
X37214956Y-3743237D01*
X37214955Y-3743239D01*
X37194318Y-3899998D01*
X37194318Y-3900001D01*
X37214955Y-4056760D01*
X37214956Y-4056762D01*
X37275036Y-4201809D01*
X37275464Y-4202841D01*
X37371718Y-4328282D01*
X37425987Y-4369924D01*
X37467189Y-4426349D01*
X37474500Y-4468298D01*
X37474500Y-4801256D01*
X37454815Y-4868295D01*
X37411478Y-4905846D01*
X37412415Y-4907248D01*
X37319399Y-4969398D01*
X37264033Y-5052260D01*
X37264032Y-5052264D01*
X37249500Y-5125321D01*
X37249500Y-5674678D01*
X37264032Y-5747735D01*
X37264033Y-5747739D01*
X37264034Y-5747740D01*
X37319399Y-5830601D01*
X37386336Y-5875326D01*
X37402260Y-5885966D01*
X37402264Y-5885967D01*
X37475321Y-5900499D01*
X37475324Y-5900500D01*
X37475326Y-5900500D01*
X38524676Y-5900500D01*
X38546308Y-5896197D01*
X38615899Y-5902424D01*
X38671077Y-5945286D01*
X38694322Y-6011176D01*
X38694500Y-6017814D01*
X38694500Y-6513518D01*
X38674815Y-6580557D01*
X38658181Y-6601199D01*
X38501199Y-6758181D01*
X38439876Y-6791666D01*
X38413518Y-6794500D01*
X37712211Y-6794500D01*
X37700704Y-6795065D01*
X37692066Y-6795489D01*
X37667923Y-6797866D01*
X37667895Y-6797869D01*
X37667892Y-6797870D01*
X37665940Y-6798159D01*
X37647758Y-6799500D01*
X37475323Y-6799500D01*
X37402264Y-6814032D01*
X37402260Y-6814033D01*
X37319399Y-6869399D01*
X37264033Y-6952260D01*
X37264032Y-6952264D01*
X37249500Y-7025321D01*
X37249500Y-7197759D01*
X37248159Y-7215947D01*
X37247871Y-7217883D01*
X37245490Y-7242059D01*
X37245490Y-7242064D01*
X37244500Y-7262210D01*
X37244500Y-7337789D01*
X37244561Y-7339022D01*
X37245490Y-7357939D01*
X37247872Y-7382120D01*
X37248158Y-7384047D01*
X37249500Y-7402240D01*
X37249500Y-7574678D01*
X37264032Y-7647735D01*
X37264033Y-7647739D01*
X37276163Y-7665893D01*
X37319399Y-7730601D01*
X37383090Y-7773157D01*
X37402260Y-7785966D01*
X37402264Y-7785967D01*
X37475321Y-7800499D01*
X37475324Y-7800500D01*
X37475326Y-7800500D01*
X37647761Y-7800500D01*
X37665950Y-7801841D01*
X37667874Y-7802127D01*
X37692065Y-7804510D01*
X37712211Y-7805500D01*
X37712223Y-7805500D01*
X39129147Y-7805500D01*
X39129151Y-7805500D01*
X39129156Y-7805499D01*
X39129168Y-7805499D01*
X39140946Y-7804510D01*
X39163404Y-7802625D01*
X39204162Y-7795735D01*
X39205024Y-7795588D01*
X39289399Y-7760300D01*
X39346243Y-7719674D01*
X39365761Y-7703835D01*
X39417663Y-7628533D01*
X39427666Y-7603421D01*
X39432760Y-7596920D01*
X39446318Y-7558171D01*
X39446320Y-7558172D01*
X39450010Y-7547625D01*
X39451838Y-7542740D01*
X39455001Y-7534800D01*
X39456373Y-7529442D01*
X39474770Y-7476867D01*
X39492036Y-7444194D01*
X39513706Y-7414833D01*
X39539837Y-7388703D01*
X39569192Y-7367038D01*
X39601870Y-7349769D01*
X39638483Y-7336958D01*
X39679436Y-7330000D01*
X40220560Y-7330000D01*
X40261516Y-7336959D01*
X40298132Y-7349772D01*
X40330806Y-7367040D01*
X40338214Y-7372507D01*
X40360157Y-7388701D01*
X40386297Y-7414841D01*
X40407960Y-7444195D01*
X40425228Y-7476867D01*
X40433318Y-7499986D01*
X40438041Y-7513481D01*
X40445000Y-7554438D01*
X40445000Y-8545557D01*
X40438042Y-8586509D01*
X40431252Y-8605914D01*
X40431250Y-8605920D01*
X40428815Y-8612880D01*
X40425225Y-8623138D01*
X40407957Y-8655809D01*
X40389855Y-8680336D01*
X40365080Y-8724365D01*
X40365071Y-8724385D01*
X40342110Y-8780357D01*
X40336281Y-8796443D01*
X40336279Y-8796452D01*
X40328825Y-8887597D01*
X40328825Y-8887598D01*
X40338769Y-8956754D01*
X40338770Y-8956758D01*
X40343862Y-8981373D01*
X40369426Y-9029347D01*
X40386871Y-9062083D01*
X40386873Y-9062086D01*
X40432632Y-9114895D01*
X40450214Y-9132839D01*
X40450218Y-9132843D01*
X40450219Y-9132844D01*
X40450221Y-9132845D01*
X40498431Y-9159812D01*
X40530035Y-9177490D01*
X40597074Y-9197175D01*
X40654972Y-9205500D01*
X40654976Y-9205500D01*
X42087777Y-9205500D01*
X42087789Y-9205500D01*
X42107936Y-9204510D01*
X42132125Y-9202127D01*
X42152072Y-9199168D01*
X42177941Y-9194022D01*
X42177946Y-9194022D01*
X42177946Y-9194021D01*
X42211571Y-9187333D01*
X42250123Y-9175638D01*
X42294820Y-9157124D01*
X42330354Y-9138131D01*
X42336150Y-9134258D01*
X42336149Y-9134257D01*
X42352960Y-9123024D01*
X42370440Y-9111345D01*
X42370445Y-9111340D01*
X42373182Y-9109512D01*
X42375297Y-9107359D01*
X42384264Y-9100000D01*
X42401577Y-9085792D01*
X42435789Y-9051581D01*
X42461349Y-9020436D01*
X42488135Y-8980347D01*
X42507124Y-8944820D01*
X42525638Y-8900123D01*
X42537332Y-8861575D01*
X42549168Y-8802075D01*
X42552127Y-8782126D01*
X42554510Y-8757933D01*
X42555500Y-8737789D01*
X42555500Y-8224500D01*
X42575185Y-8157461D01*
X42627989Y-8111706D01*
X42679500Y-8100500D01*
X42882746Y-8100500D01*
X42949785Y-8120185D01*
X42970422Y-8136814D01*
X43036658Y-8203050D01*
X43125927Y-8248535D01*
X43149698Y-8260647D01*
X43243475Y-8275499D01*
X43243481Y-8275500D01*
X43706518Y-8275499D01*
X43800304Y-8260646D01*
X43913342Y-8203050D01*
X44003050Y-8113342D01*
X44060646Y-8000304D01*
X44060646Y-8000302D01*
X44060647Y-8000301D01*
X44075499Y-7906524D01*
X44075500Y-7906519D01*
X44075499Y-7293482D01*
X44060646Y-7199696D01*
X44003050Y-7086658D01*
X44003046Y-7086654D01*
X44003045Y-7086652D01*
X43913347Y-6996954D01*
X43913344Y-6996952D01*
X43913342Y-6996950D01*
X43825641Y-6952264D01*
X43800301Y-6939352D01*
X43706524Y-6924500D01*
X43243482Y-6924500D01*
X43162519Y-6937323D01*
X43149696Y-6939354D01*
X43036658Y-6996950D01*
X43036657Y-6996951D01*
X43036656Y-6996951D01*
X43011942Y-7021666D01*
X42970425Y-7063182D01*
X42909105Y-7096666D01*
X42882746Y-7099500D01*
X42679500Y-7099500D01*
X42612461Y-7079815D01*
X42566706Y-7027011D01*
X42555500Y-6975500D01*
X42555500Y-5462221D01*
X42555500Y-5462210D01*
X42554510Y-5442064D01*
X42552127Y-5417873D01*
X42549168Y-5397924D01*
X42541093Y-5357332D01*
X42535326Y-5328342D01*
X42533465Y-5325610D01*
X42532801Y-5323491D01*
X42525637Y-5299873D01*
X42525635Y-5299868D01*
X42525633Y-5299862D01*
X42507127Y-5255187D01*
X42507123Y-5255178D01*
X42503520Y-5248438D01*
X42488135Y-5219654D01*
X42467403Y-5188625D01*
X42461349Y-5179564D01*
X42435783Y-5148412D01*
X42401581Y-5114211D01*
X42370440Y-5088653D01*
X42330348Y-5061865D01*
X42330349Y-5061865D01*
X42306656Y-5049201D01*
X42294812Y-5042871D01*
X42294810Y-5042870D01*
X42294809Y-5042869D01*
X42250125Y-5024362D01*
X42250122Y-5024361D01*
X42250117Y-5024359D01*
X42211570Y-5012666D01*
X42211565Y-5012665D01*
X42211562Y-5012664D01*
X42211563Y-5012664D01*
X42152066Y-5000830D01*
X42144524Y-4999711D01*
X42132126Y-4997873D01*
X42132112Y-4997871D01*
X42132108Y-4997871D01*
X42107939Y-4995490D01*
X42102898Y-4995242D01*
X42087789Y-4994500D01*
X40541649Y-4994500D01*
X40474610Y-4974815D01*
X40428855Y-4922011D01*
X40418911Y-4852853D01*
X40447936Y-4789297D01*
X40468015Y-4770730D01*
X40488652Y-4755499D01*
X40584650Y-4684650D01*
X40665293Y-4575382D01*
X40691380Y-4500830D01*
X40692317Y-4498152D01*
X40733038Y-4441376D01*
X40797991Y-4415629D01*
X40866553Y-4429085D01*
X40912458Y-4470213D01*
X40919399Y-4480601D01*
X40984881Y-4524354D01*
X41002260Y-4535966D01*
X41002264Y-4535967D01*
X41075321Y-4550499D01*
X41075324Y-4550500D01*
X41075326Y-4550500D01*
X42124676Y-4550500D01*
X42124677Y-4550499D01*
X42197740Y-4535966D01*
X42280601Y-4480601D01*
X42335966Y-4397740D01*
X42350500Y-4324674D01*
X42350500Y-3775326D01*
X42350500Y-3775323D01*
X42350499Y-3775321D01*
X42335967Y-3702264D01*
X42335966Y-3702260D01*
X42326334Y-3687844D01*
X42280601Y-3619399D01*
X42220975Y-3579559D01*
X42197739Y-3564033D01*
X42197735Y-3564032D01*
X42124677Y-3549500D01*
X42124674Y-3549500D01*
X42049500Y-3549500D01*
X41982461Y-3529815D01*
X41936706Y-3477011D01*
X41925500Y-3425500D01*
X41925500Y-3142980D01*
X41945185Y-3075941D01*
X41975867Y-3043210D01*
X42013998Y-3015067D01*
X42072150Y-2972150D01*
X42152793Y-2862882D01*
X42179289Y-2787161D01*
X42197646Y-2734701D01*
X42197646Y-2734699D01*
X42200500Y-2704269D01*
X42200500Y-1699998D01*
X44902704Y-1699998D01*
X44902705Y-1700000D01*
X45812500Y-1700000D01*
X46312500Y-1700000D01*
X47222295Y-1700000D01*
X47222295Y-1699998D01*
X47222100Y-1697513D01*
X47176281Y-1539801D01*
X47092685Y-1398447D01*
X47092678Y-1398438D01*
X46976561Y-1282321D01*
X46976552Y-1282314D01*
X46835196Y-1198717D01*
X46835193Y-1198716D01*
X46677495Y-1152900D01*
X46677489Y-1152899D01*
X46640649Y-1150000D01*
X46312500Y-1150000D01*
X46312500Y-1700000D01*
X45812500Y-1700000D01*
X45812500Y-1150000D01*
X45484350Y-1150000D01*
X45447510Y-1152899D01*
X45447504Y-1152900D01*
X45289806Y-1198716D01*
X45289803Y-1198717D01*
X45148447Y-1282314D01*
X45148438Y-1282321D01*
X45032321Y-1398438D01*
X45032314Y-1398447D01*
X44948718Y-1539801D01*
X44902899Y-1697513D01*
X44902704Y-1699998D01*
X42200500Y-1699998D01*
X42200500Y-1695730D01*
X42197646Y-1665300D01*
X42197645Y-1665296D01*
X42197525Y-1664952D01*
X42197511Y-1664681D01*
X42196036Y-1657927D01*
X42197154Y-1657682D01*
X42193964Y-1595173D01*
X42228694Y-1534547D01*
X42290688Y-1502321D01*
X42314567Y-1500000D01*
X43292886Y-1500000D01*
X43292893Y-1500000D01*
X43500000Y-1500000D01*
X44347809Y-652190D01*
X44359996Y-641503D01*
X44444157Y-576924D01*
X44472191Y-560739D01*
X44562616Y-523284D01*
X44593882Y-514906D01*
X44699048Y-501061D01*
X44715233Y-500000D01*
X54991874Y-500000D01*
X55008059Y-501061D01*
X55113223Y-514906D01*
X55144491Y-523284D01*
X55234918Y-560740D01*
X55262952Y-576925D01*
X55340602Y-636509D01*
X55363491Y-659398D01*
X55423074Y-737048D01*
X55439259Y-765081D01*
X55476715Y-855508D01*
X55485093Y-886775D01*
X55498939Y-991939D01*
X55500000Y-1008125D01*
X55500000Y-9284767D01*
X55498939Y-9300953D01*
X55485093Y-9406117D01*
X55476715Y-9437383D01*
X55439260Y-9527808D01*
X55423075Y-9555842D01*
X55358496Y-9640003D01*
X55347801Y-9652198D01*
X54646451Y-10353547D01*
X54646445Y-10353554D01*
X54646441Y-10353558D01*
X54500000Y-10500000D01*
X54500000Y-34500000D01*
X54646445Y-34646445D01*
X54646451Y-34646452D01*
X55347801Y-35347801D01*
X55358496Y-35359996D01*
X55423075Y-35444157D01*
X55439260Y-35472191D01*
X55476715Y-35562616D01*
X55485093Y-35593882D01*
X55498939Y-35699046D01*
X55500000Y-35715232D01*
X55500000Y-42991874D01*
X55498939Y-43008060D01*
X55485093Y-43113224D01*
X55476715Y-43144491D01*
X55439259Y-43234918D01*
X55423074Y-43262951D01*
X55363491Y-43340601D01*
X55340601Y-43363491D01*
X55262951Y-43423074D01*
X55234918Y-43439259D01*
X55144491Y-43476715D01*
X55113224Y-43485093D01*
X55019398Y-43497446D01*
X55008058Y-43498939D01*
X54991874Y-43500000D01*
X44715233Y-43500000D01*
X44699048Y-43498939D01*
X44686024Y-43497224D01*
X44593882Y-43485093D01*
X44562616Y-43476715D01*
X44472191Y-43439260D01*
X44444157Y-43423075D01*
X44359996Y-43358496D01*
X44347801Y-43347801D01*
X43646452Y-42646451D01*
X43646445Y-42646445D01*
X43500000Y-42500000D01*
X43292893Y-42500000D01*
X43292886Y-42500000D01*
X13707114Y-42500000D01*
X13707107Y-42500000D01*
X13500000Y-42500000D01*
X13353558Y-42646441D01*
X13353554Y-42646445D01*
X13353547Y-42646451D01*
X12652198Y-43347801D01*
X12640003Y-43358496D01*
X12555842Y-43423075D01*
X12527808Y-43439260D01*
X12437383Y-43476715D01*
X12406117Y-43485093D01*
X12312291Y-43497446D01*
X12300951Y-43498939D01*
X12284767Y-43500000D01*
X1008126Y-43500000D01*
X991941Y-43498939D01*
X978917Y-43497224D01*
X886775Y-43485093D01*
X855508Y-43476715D01*
X765081Y-43439259D01*
X737048Y-43423074D01*
X659398Y-43363491D01*
X636508Y-43340601D01*
X576925Y-43262951D01*
X560740Y-43234918D01*
X523284Y-43144491D01*
X514906Y-43113223D01*
X501061Y-43008059D01*
X500000Y-42991874D01*
X500000Y-35715232D01*
X501061Y-35699047D01*
X514906Y-35593883D01*
X523284Y-35562616D01*
X560739Y-35472191D01*
X576924Y-35444157D01*
X641503Y-35359996D01*
X652190Y-35347809D01*
X1353553Y-34646447D01*
X1500000Y-34500000D01*
X1500000Y-10500000D01*
X1500000Y-8852861D01*
X1519685Y-8785822D01*
X1572489Y-8740067D01*
X1641647Y-8730123D01*
X1705203Y-8759148D01*
X1742977Y-8817926D01*
X1743775Y-8820768D01*
X1764185Y-8896941D01*
X1764185Y-8896942D01*
X1839883Y-9028054D01*
X1839887Y-9028060D01*
X1946939Y-9135112D01*
X1946945Y-9135116D01*
X2078055Y-9210813D01*
X2078058Y-9210814D01*
X2224300Y-9249999D01*
X2224302Y-9250000D01*
X3175698Y-9250000D01*
X3175699Y-9249999D01*
X3321941Y-9210814D01*
X3321944Y-9210813D01*
X3453054Y-9135116D01*
X3453060Y-9135112D01*
X3560112Y-9028060D01*
X3560116Y-9028054D01*
X3635815Y-8896942D01*
X3635814Y-8896941D01*
X3674999Y-8750699D01*
X3675000Y-8750698D01*
X3675000Y-8599302D01*
X3674999Y-8599300D01*
X3635814Y-8453058D01*
X3635813Y-8453055D01*
X3560116Y-8321945D01*
X3560112Y-8321939D01*
X3453060Y-8214887D01*
X3453054Y-8214883D01*
X3321944Y-8139186D01*
X3321941Y-8139185D01*
X3175699Y-8100000D01*
X2224300Y-8100000D01*
X2078058Y-8139185D01*
X2078055Y-8139186D01*
X1946945Y-8214883D01*
X1946939Y-8214887D01*
X1839887Y-8321939D01*
X1839883Y-8321945D01*
X1764186Y-8453055D01*
X1764185Y-8453058D01*
X1743775Y-8529231D01*
X1707410Y-8588892D01*
X1644563Y-8619421D01*
X1575188Y-8611126D01*
X1521310Y-8566641D01*
X1500035Y-8500089D01*
X1500000Y-8497138D01*
X1500000Y-3630247D01*
X4499500Y-3630247D01*
X4499500Y-4069752D01*
X4513515Y-4140209D01*
X4512239Y-4140462D01*
X4518317Y-4197023D01*
X4511303Y-4220910D01*
X4499500Y-4280247D01*
X4499500Y-4719752D01*
X4513515Y-4790209D01*
X4512239Y-4790462D01*
X4518317Y-4847023D01*
X4511303Y-4870910D01*
X4499500Y-4930247D01*
X4499500Y-5369752D01*
X4513515Y-5440209D01*
X4512239Y-5440462D01*
X4518317Y-5497023D01*
X4511303Y-5520910D01*
X4499500Y-5580247D01*
X4499500Y-6019752D01*
X4513515Y-6090209D01*
X4512437Y-6090423D01*
X4518594Y-6147683D01*
X4511894Y-6170500D01*
X4500000Y-6230297D01*
X4500000Y-6669702D01*
X4511602Y-6728033D01*
X4511603Y-6728034D01*
X4555808Y-6794191D01*
X4621965Y-6838396D01*
X4621966Y-6838397D01*
X4680297Y-6849999D01*
X4680301Y-6850000D01*
X4725067Y-6850000D01*
X4792106Y-6869685D01*
X4837861Y-6922489D01*
X4847805Y-6991647D01*
X4842643Y-7010464D01*
X4842993Y-7010558D01*
X4800000Y-7171009D01*
X4800000Y-8128990D01*
X4840889Y-8281591D01*
X4919881Y-8418407D01*
X4919883Y-8418410D01*
X5031589Y-8530116D01*
X5031592Y-8530118D01*
X5168408Y-8609110D01*
X5321009Y-8649999D01*
X5321011Y-8650000D01*
X5478989Y-8650000D01*
X5478990Y-8649999D01*
X5631591Y-8609110D01*
X5768407Y-8530118D01*
X5768410Y-8530116D01*
X5880116Y-8418410D01*
X5880118Y-8418407D01*
X5959110Y-8281591D01*
X5999999Y-8128990D01*
X6000000Y-8128989D01*
X6000000Y-7171011D01*
X5999999Y-7171009D01*
X5957007Y-7010558D01*
X5959137Y-7009987D01*
X5952905Y-6951973D01*
X5984186Y-6889496D01*
X6044278Y-6853849D01*
X6063716Y-6851408D01*
X6063637Y-6850597D01*
X6069702Y-6849999D01*
X6128033Y-6838397D01*
X6128034Y-6838396D01*
X6194191Y-6794191D01*
X6238396Y-6728034D01*
X6238397Y-6728033D01*
X6249999Y-6669702D01*
X6250000Y-6669699D01*
X6250000Y-6230301D01*
X6249999Y-6230297D01*
X6236014Y-6159986D01*
X6237431Y-6159703D01*
X6231405Y-6103649D01*
X6238862Y-6078256D01*
X6241371Y-6065641D01*
X6250500Y-6019748D01*
X6250500Y-5580252D01*
X6250500Y-5580249D01*
X6250499Y-5580247D01*
X6236485Y-5509790D01*
X6237762Y-5509535D01*
X6231680Y-5452991D01*
X6238694Y-5429100D01*
X6239574Y-5424676D01*
X6250500Y-5369748D01*
X6250500Y-4930252D01*
X6250500Y-4930249D01*
X6250499Y-4930247D01*
X6236485Y-4859790D01*
X6237762Y-4859535D01*
X6231680Y-4802991D01*
X6238694Y-4779100D01*
X6239986Y-4772607D01*
X6250500Y-4719748D01*
X6250500Y-4616255D01*
X6270185Y-4549216D01*
X6322989Y-4503461D01*
X6392147Y-4493517D01*
X6455703Y-4522542D01*
X6462181Y-4528574D01*
X6504087Y-4570480D01*
X6595413Y-4623207D01*
X6697273Y-4650500D01*
X6802727Y-4650500D01*
X6862935Y-4650500D01*
X6929974Y-4670185D01*
X6935624Y-4674738D01*
X6944399Y-4680601D01*
X7027260Y-4735966D01*
X7027263Y-4735966D01*
X7027264Y-4735967D01*
X7100321Y-4750499D01*
X7100324Y-4750500D01*
X7100326Y-4750500D01*
X8149673Y-4750500D01*
X8149674Y-4750500D01*
X8151302Y-4750176D01*
X8152173Y-4750254D01*
X8155739Y-4749903D01*
X8155805Y-4750578D01*
X8220893Y-4756399D01*
X8276073Y-4799259D01*
X8299322Y-4865148D01*
X8299500Y-4871792D01*
X8299500Y-6482745D01*
X8279815Y-6549784D01*
X8263181Y-6570426D01*
X7845426Y-6988181D01*
X7784103Y-7021666D01*
X7757745Y-7024500D01*
X7295730Y-7024500D01*
X7265300Y-7027353D01*
X7265298Y-7027353D01*
X7137119Y-7072206D01*
X7137117Y-7072207D01*
X7027850Y-7152850D01*
X6947207Y-7262117D01*
X6947206Y-7262119D01*
X6902353Y-7390298D01*
X6902353Y-7390300D01*
X6899500Y-7420730D01*
X6899500Y-8479269D01*
X6902353Y-8509699D01*
X6902353Y-8509701D01*
X6942874Y-8625500D01*
X6947207Y-8637882D01*
X7027850Y-8747150D01*
X7137118Y-8827793D01*
X7179845Y-8842744D01*
X7265299Y-8872646D01*
X7295730Y-8875500D01*
X7295734Y-8875500D01*
X7904270Y-8875500D01*
X7934699Y-8872646D01*
X7934701Y-8872646D01*
X8006031Y-8847686D01*
X8062882Y-8827793D01*
X8172150Y-8747150D01*
X8252793Y-8637882D01*
X8277721Y-8566641D01*
X8297646Y-8509701D01*
X8297646Y-8509699D01*
X8300500Y-8479269D01*
X8300500Y-7717255D01*
X8320185Y-7650216D01*
X8336819Y-7629574D01*
X8672918Y-7293475D01*
X9020480Y-6945913D01*
X9073207Y-6854588D01*
X9100500Y-6752727D01*
X9100500Y-6647273D01*
X9100500Y-5875321D01*
X9474500Y-5875321D01*
X9474500Y-6424678D01*
X9489032Y-6497735D01*
X9489033Y-6497739D01*
X9489034Y-6497740D01*
X9544399Y-6580601D01*
X9610643Y-6624863D01*
X9627260Y-6635966D01*
X9627264Y-6635967D01*
X9700321Y-6650499D01*
X9700324Y-6650500D01*
X9700326Y-6650500D01*
X10749676Y-6650500D01*
X10749677Y-6650499D01*
X10822740Y-6635966D01*
X10905601Y-6580601D01*
X10960966Y-6497740D01*
X10975500Y-6424674D01*
X10975500Y-5875326D01*
X10975500Y-5875323D01*
X10975499Y-5875321D01*
X10960967Y-5802264D01*
X10960966Y-5802260D01*
X10952553Y-5789669D01*
X10905601Y-5719399D01*
X10840107Y-5675638D01*
X10822739Y-5664033D01*
X10822735Y-5664032D01*
X10749677Y-5649500D01*
X10749674Y-5649500D01*
X9700326Y-5649500D01*
X9700323Y-5649500D01*
X9627264Y-5664032D01*
X9627260Y-5664033D01*
X9544399Y-5719399D01*
X9489033Y-5802260D01*
X9489032Y-5802264D01*
X9474500Y-5875321D01*
X9100500Y-5875321D01*
X9100500Y-4662729D01*
X9100501Y-4662716D01*
X9100501Y-4547275D01*
X9100501Y-4547273D01*
X9073207Y-4445412D01*
X9045683Y-4397740D01*
X9034171Y-4377800D01*
X9020482Y-4354090D01*
X9020478Y-4354085D01*
X8595915Y-3929522D01*
X8595913Y-3929520D01*
X8532088Y-3892670D01*
X8504589Y-3876793D01*
X8450162Y-3862210D01*
X8402727Y-3849500D01*
X8402726Y-3849500D01*
X8387065Y-3849500D01*
X8320026Y-3829815D01*
X8314375Y-3825261D01*
X8249332Y-3781802D01*
X8222740Y-3764034D01*
X8222738Y-3764033D01*
X8222735Y-3764032D01*
X8149677Y-3749500D01*
X8149674Y-3749500D01*
X7100326Y-3749500D01*
X7100323Y-3749500D01*
X7027264Y-3764032D01*
X7027257Y-3764034D01*
X6993877Y-3786338D01*
X6927199Y-3807214D01*
X6859819Y-3788728D01*
X6837308Y-3770915D01*
X6595915Y-3529522D01*
X6595913Y-3529520D01*
X6550250Y-3503156D01*
X6504589Y-3476793D01*
X6446135Y-3461131D01*
X6402727Y-3449500D01*
X6075140Y-3449500D01*
X6008101Y-3429815D01*
X5962346Y-3377011D01*
X5952402Y-3307853D01*
X5957421Y-3289553D01*
X5957007Y-3289442D01*
X5999999Y-3128990D01*
X6000000Y-3128989D01*
X6000000Y-2171011D01*
X5999999Y-2171009D01*
X5959110Y-2018408D01*
X5880118Y-1881592D01*
X5880116Y-1881589D01*
X5768410Y-1769883D01*
X5768407Y-1769881D01*
X5631591Y-1690889D01*
X5478990Y-1650000D01*
X5321009Y-1650000D01*
X5168408Y-1690889D01*
X5031592Y-1769881D01*
X5031589Y-1769883D01*
X4919883Y-1881589D01*
X4919881Y-1881592D01*
X4840889Y-2018408D01*
X4800000Y-2171009D01*
X4800000Y-3128990D01*
X4842993Y-3289442D01*
X4840713Y-3290052D01*
X4846888Y-3347526D01*
X4815608Y-3410003D01*
X4755517Y-3445651D01*
X4724860Y-3449500D01*
X4680247Y-3449500D01*
X4621770Y-3461131D01*
X4621769Y-3461132D01*
X4555447Y-3505447D01*
X4511132Y-3571769D01*
X4511131Y-3571770D01*
X4499500Y-3630247D01*
X1500000Y-3630247D01*
X1500000Y-1802861D01*
X1519685Y-1735822D01*
X1572489Y-1690067D01*
X1641647Y-1680123D01*
X1705203Y-1709148D01*
X1742977Y-1767926D01*
X1743775Y-1770768D01*
X1764185Y-1846941D01*
X1764186Y-1846944D01*
X1839883Y-1978054D01*
X1839887Y-1978060D01*
X1946939Y-2085112D01*
X1946945Y-2085116D01*
X2078055Y-2160813D01*
X2078058Y-2160814D01*
X2224300Y-2199999D01*
X2224302Y-2200000D01*
X3175698Y-2200000D01*
X3175699Y-2199999D01*
X3321941Y-2160814D01*
X3321944Y-2160813D01*
X3453054Y-2085116D01*
X3453060Y-2085112D01*
X3560112Y-1978060D01*
X3560116Y-1978054D01*
X3635813Y-1846944D01*
X3635814Y-1846941D01*
X3674999Y-1700699D01*
X3675000Y-1700698D01*
X3675000Y-1549302D01*
X3674999Y-1549300D01*
X3635814Y-1403058D01*
X3635813Y-1403055D01*
X3560116Y-1271945D01*
X3560112Y-1271939D01*
X3453060Y-1164887D01*
X3453054Y-1164883D01*
X3321944Y-1089186D01*
X3321941Y-1089185D01*
X3175699Y-1050000D01*
X2224300Y-1050000D01*
X2078058Y-1089185D01*
X2078055Y-1089186D01*
X1946945Y-1164883D01*
X1946939Y-1164887D01*
X1839887Y-1271939D01*
X1839883Y-1271945D01*
X1764186Y-1403055D01*
X1764185Y-1403058D01*
X1743775Y-1479231D01*
X1707410Y-1538892D01*
X1644563Y-1569421D01*
X1575188Y-1561126D01*
X1521310Y-1516641D01*
X1500035Y-1450089D01*
X1500000Y-1447138D01*
X1500000Y-1008125D01*
X1501061Y-991940D01*
X1514906Y-886776D01*
X1523284Y-855508D01*
X1560740Y-765081D01*
X1576923Y-737050D01*
X1636513Y-659392D01*
X1659392Y-636513D01*
X1737050Y-576923D01*
X1765079Y-560740D01*
X1855509Y-523283D01*
X1886775Y-514906D01*
X1991941Y-501061D01*
X2008126Y-500000D01*
X12284767Y-500000D01*
X12300952Y-501061D01*
G37*
%TD.AperFunction*%
%TA.AperFunction,Conductor*%
G36*
X30713715Y-3257423D02*
G01*
X30756792Y-3300500D01*
X30870920Y-3366392D01*
X30998214Y-3400500D01*
X31129999Y-3400500D01*
X32429062Y-3400500D01*
X32496101Y-3420185D01*
X32541856Y-3472989D01*
X32551800Y-3542147D01*
X32551068Y-3546412D01*
X32551093Y-3546417D01*
X32550829Y-3547936D01*
X32547872Y-3567872D01*
X32546721Y-3579564D01*
X32545490Y-3592064D01*
X32544500Y-3612210D01*
X32544500Y-3612221D01*
X32544500Y-4370500D01*
X32524815Y-4437539D01*
X32472011Y-4483294D01*
X32420500Y-4494500D01*
X30862211Y-4494500D01*
X30850704Y-4495065D01*
X30842066Y-4495489D01*
X30817923Y-4497866D01*
X30817899Y-4497869D01*
X30817892Y-4497869D01*
X30817892Y-4497870D01*
X30797937Y-4500830D01*
X30768320Y-4506721D01*
X30738415Y-4512669D01*
X30699893Y-4524354D01*
X30699875Y-4524360D01*
X30670436Y-4536554D01*
X30600966Y-4544021D01*
X30538488Y-4512745D01*
X30502837Y-4452655D01*
X30500827Y-4443282D01*
X30499991Y-4438484D01*
X30495137Y-4410634D01*
X30494799Y-4408746D01*
X30460182Y-4328282D01*
X30458657Y-4324737D01*
X30458656Y-4324735D01*
X30450599Y-4313700D01*
X30417455Y-4268308D01*
X30376588Y-4226456D01*
X30342761Y-4200500D01*
X30331230Y-4191652D01*
X30308339Y-4168761D01*
X30304710Y-4164032D01*
X30264905Y-4112155D01*
X30248721Y-4084123D01*
X30221412Y-4018194D01*
X30213034Y-3986925D01*
X30206792Y-3939511D01*
X30203721Y-3916178D01*
X30203721Y-3883814D01*
X30204646Y-3876793D01*
X30213034Y-3813070D01*
X30221412Y-3781802D01*
X30248719Y-3715875D01*
X30264904Y-3687844D01*
X30308343Y-3631232D01*
X30331228Y-3608347D01*
X30376590Y-3573541D01*
X30402726Y-3549639D01*
X30431552Y-3518305D01*
X30432843Y-3516888D01*
X30477490Y-3437071D01*
X30497175Y-3370032D01*
X30503297Y-3327454D01*
X30532321Y-3263901D01*
X30591100Y-3226127D01*
X30660969Y-3226127D01*
X30713715Y-3257423D01*
G37*
%TD.AperFunction*%
%TD*%
M02*
